G04 #@! TF.GenerationSoftware,KiCad,Pcbnew,(5.1.12)-1*
G04 #@! TF.CreationDate,2026-04-14T09:03:33-06:00*
G04 #@! TF.ProjectId,Mux_SDI_BJT,4d75785f-5344-4495-9f42-4a542e6b6963,2.10*
G04 #@! TF.SameCoordinates,Original*
G04 #@! TF.FileFunction,Legend,Bot*
G04 #@! TF.FilePolarity,Positive*
%FSLAX46Y46*%
G04 Gerber Fmt 4.6, Leading zero omitted, Abs format (unit mm)*
G04 Created by KiCad (PCBNEW (5.1.12)-1) date 2026-04-14 09:03:33*
%MOMM*%
%LPD*%
G01*
G04 APERTURE LIST*
%ADD10C,0.150000*%
%ADD11C,0.120000*%
%ADD12C,0.200000*%
%ADD13C,1.102000*%
%ADD14C,1.548000*%
%ADD15C,0.254000*%
%ADD16C,0.100000*%
G04 APERTURE END LIST*
D10*
X167578607Y-111875000D02*
G75*
G03*
X167578607Y-111875000I-223607J0D01*
G01*
D11*
X186428641Y-95555000D02*
X186121359Y-95555000D01*
X186428641Y-94795000D02*
X186121359Y-94795000D01*
X186555000Y-101071359D02*
X186555000Y-101378641D01*
X185795000Y-101071359D02*
X185795000Y-101378641D01*
X185878641Y-100005000D02*
X185571359Y-100005000D01*
X185878641Y-99245000D02*
X185571359Y-99245000D01*
X180021359Y-89395000D02*
X180328641Y-89395000D01*
X180021359Y-90155000D02*
X180328641Y-90155000D01*
X187421359Y-89395000D02*
X187728641Y-89395000D01*
X187421359Y-90155000D02*
X187728641Y-90155000D01*
X184165000Y-92732836D02*
X184165000Y-92517164D01*
X184885000Y-92732836D02*
X184885000Y-92517164D01*
X172965000Y-109784420D02*
X172965000Y-110065580D01*
X173985000Y-109784420D02*
X173985000Y-110065580D01*
X167215580Y-97315000D02*
X166934420Y-97315000D01*
X167215580Y-98335000D02*
X166934420Y-98335000D01*
X165285000Y-106465580D02*
X165285000Y-106184420D01*
X164265000Y-106465580D02*
X164265000Y-106184420D01*
D12*
X172725000Y-105675000D02*
X172725000Y-102175000D01*
X172725000Y-102175000D02*
X166225000Y-102175000D01*
X166225000Y-102175000D02*
X166225000Y-105675000D01*
X166225000Y-105675000D02*
X172725000Y-105675000D01*
X172600000Y-107950000D02*
X172600000Y-106200000D01*
D11*
X170112221Y-98335000D02*
X170437779Y-98335000D01*
X170112221Y-97315000D02*
X170437779Y-97315000D01*
X171165000Y-109784420D02*
X171165000Y-110065580D01*
X172185000Y-109784420D02*
X172185000Y-110065580D01*
D12*
X176325000Y-87775000D02*
X176325000Y-84275000D01*
X176325000Y-84275000D02*
X169825000Y-84275000D01*
X169825000Y-84275000D02*
X169825000Y-87775000D01*
X169825000Y-87775000D02*
X176325000Y-87775000D01*
X176225000Y-90025000D02*
X176225000Y-88825000D01*
X177450000Y-99750000D02*
X177450000Y-101225000D01*
X182475000Y-101575000D02*
X177475000Y-101575000D01*
X182475000Y-105275000D02*
X182475000Y-101575000D01*
X177475000Y-105275000D02*
X182475000Y-105275000D01*
X177475000Y-101575000D02*
X177475000Y-105275000D01*
D11*
X181784641Y-109503000D02*
X181477359Y-109503000D01*
X181784641Y-108743000D02*
X181477359Y-108743000D01*
X184379000Y-109609359D02*
X184379000Y-109916641D01*
X183619000Y-109609359D02*
X183619000Y-109916641D01*
X185513000Y-109916641D02*
X185513000Y-109609359D01*
X186273000Y-109916641D02*
X186273000Y-109609359D01*
X173378641Y-79055000D02*
X173071359Y-79055000D01*
X173378641Y-78295000D02*
X173071359Y-78295000D01*
X184905000Y-96928641D02*
X184905000Y-96621359D01*
X184145000Y-96928641D02*
X184145000Y-96621359D01*
X186428641Y-92595000D02*
X186121359Y-92595000D01*
X186428641Y-93355000D02*
X186121359Y-93355000D01*
X186428641Y-93695000D02*
X186121359Y-93695000D01*
X186428641Y-94455000D02*
X186121359Y-94455000D01*
X180678641Y-92245000D02*
X180371359Y-92245000D01*
X180678641Y-93005000D02*
X180371359Y-93005000D01*
X180678641Y-91245000D02*
X180371359Y-91245000D01*
X180678641Y-92005000D02*
X180371359Y-92005000D01*
X179917164Y-86235000D02*
X180132836Y-86235000D01*
X179917164Y-85515000D02*
X180132836Y-85515000D01*
X165837742Y-85152500D02*
X166312258Y-85152500D01*
X165837742Y-86197500D02*
X166312258Y-86197500D01*
%LPC*%
D13*
X166143000Y-88215000D03*
G36*
G01*
X167893000Y-88766000D02*
X166893000Y-88766000D01*
G75*
G02*
X166842000Y-88715000I0J51000D01*
G01*
X166842000Y-87715000D01*
G75*
G02*
X166893000Y-87664000I51000J0D01*
G01*
X167893000Y-87664000D01*
G75*
G02*
X167944000Y-87715000I0J-51000D01*
G01*
X167944000Y-88715000D01*
G75*
G02*
X167893000Y-88766000I-51000J0D01*
G01*
G37*
G36*
G01*
X186086000Y-94964500D02*
X186086000Y-95385500D01*
G75*
G02*
X185925500Y-95546000I-160500J0D01*
G01*
X185604500Y-95546000D01*
G75*
G02*
X185444000Y-95385500I0J160500D01*
G01*
X185444000Y-94964500D01*
G75*
G02*
X185604500Y-94804000I160500J0D01*
G01*
X185925500Y-94804000D01*
G75*
G02*
X186086000Y-94964500I0J-160500D01*
G01*
G37*
G36*
G01*
X187106000Y-94964500D02*
X187106000Y-95385500D01*
G75*
G02*
X186945500Y-95546000I-160500J0D01*
G01*
X186624500Y-95546000D01*
G75*
G02*
X186464000Y-95385500I0J160500D01*
G01*
X186464000Y-94964500D01*
G75*
G02*
X186624500Y-94804000I160500J0D01*
G01*
X186945500Y-94804000D01*
G75*
G02*
X187106000Y-94964500I0J-160500D01*
G01*
G37*
G36*
G01*
X185964500Y-101414000D02*
X186385500Y-101414000D01*
G75*
G02*
X186546000Y-101574500I0J-160500D01*
G01*
X186546000Y-101895500D01*
G75*
G02*
X186385500Y-102056000I-160500J0D01*
G01*
X185964500Y-102056000D01*
G75*
G02*
X185804000Y-101895500I0J160500D01*
G01*
X185804000Y-101574500D01*
G75*
G02*
X185964500Y-101414000I160500J0D01*
G01*
G37*
G36*
G01*
X185964500Y-100394000D02*
X186385500Y-100394000D01*
G75*
G02*
X186546000Y-100554500I0J-160500D01*
G01*
X186546000Y-100875500D01*
G75*
G02*
X186385500Y-101036000I-160500J0D01*
G01*
X185964500Y-101036000D01*
G75*
G02*
X185804000Y-100875500I0J160500D01*
G01*
X185804000Y-100554500D01*
G75*
G02*
X185964500Y-100394000I160500J0D01*
G01*
G37*
G36*
G01*
X185536000Y-99414500D02*
X185536000Y-99835500D01*
G75*
G02*
X185375500Y-99996000I-160500J0D01*
G01*
X185054500Y-99996000D01*
G75*
G02*
X184894000Y-99835500I0J160500D01*
G01*
X184894000Y-99414500D01*
G75*
G02*
X185054500Y-99254000I160500J0D01*
G01*
X185375500Y-99254000D01*
G75*
G02*
X185536000Y-99414500I0J-160500D01*
G01*
G37*
G36*
G01*
X186556000Y-99414500D02*
X186556000Y-99835500D01*
G75*
G02*
X186395500Y-99996000I-160500J0D01*
G01*
X186074500Y-99996000D01*
G75*
G02*
X185914000Y-99835500I0J160500D01*
G01*
X185914000Y-99414500D01*
G75*
G02*
X186074500Y-99254000I160500J0D01*
G01*
X186395500Y-99254000D01*
G75*
G02*
X186556000Y-99414500I0J-160500D01*
G01*
G37*
G36*
G01*
X180364000Y-89985500D02*
X180364000Y-89564500D01*
G75*
G02*
X180524500Y-89404000I160500J0D01*
G01*
X180845500Y-89404000D01*
G75*
G02*
X181006000Y-89564500I0J-160500D01*
G01*
X181006000Y-89985500D01*
G75*
G02*
X180845500Y-90146000I-160500J0D01*
G01*
X180524500Y-90146000D01*
G75*
G02*
X180364000Y-89985500I0J160500D01*
G01*
G37*
G36*
G01*
X179344000Y-89985500D02*
X179344000Y-89564500D01*
G75*
G02*
X179504500Y-89404000I160500J0D01*
G01*
X179825500Y-89404000D01*
G75*
G02*
X179986000Y-89564500I0J-160500D01*
G01*
X179986000Y-89985500D01*
G75*
G02*
X179825500Y-90146000I-160500J0D01*
G01*
X179504500Y-90146000D01*
G75*
G02*
X179344000Y-89985500I0J160500D01*
G01*
G37*
G36*
G01*
X187764000Y-89985500D02*
X187764000Y-89564500D01*
G75*
G02*
X187924500Y-89404000I160500J0D01*
G01*
X188245500Y-89404000D01*
G75*
G02*
X188406000Y-89564500I0J-160500D01*
G01*
X188406000Y-89985500D01*
G75*
G02*
X188245500Y-90146000I-160500J0D01*
G01*
X187924500Y-90146000D01*
G75*
G02*
X187764000Y-89985500I0J160500D01*
G01*
G37*
G36*
G01*
X186744000Y-89985500D02*
X186744000Y-89564500D01*
G75*
G02*
X186904500Y-89404000I160500J0D01*
G01*
X187225500Y-89404000D01*
G75*
G02*
X187386000Y-89564500I0J-160500D01*
G01*
X187386000Y-89985500D01*
G75*
G02*
X187225500Y-90146000I-160500J0D01*
G01*
X186904500Y-90146000D01*
G75*
G02*
X186744000Y-89985500I0J160500D01*
G01*
G37*
G36*
G01*
X184720500Y-92476000D02*
X184329500Y-92476000D01*
G75*
G02*
X184164000Y-92310500I0J165500D01*
G01*
X184164000Y-91979500D01*
G75*
G02*
X184329500Y-91814000I165500J0D01*
G01*
X184720500Y-91814000D01*
G75*
G02*
X184886000Y-91979500I0J-165500D01*
G01*
X184886000Y-92310500D01*
G75*
G02*
X184720500Y-92476000I-165500J0D01*
G01*
G37*
G36*
G01*
X184720500Y-93436000D02*
X184329500Y-93436000D01*
G75*
G02*
X184164000Y-93270500I0J165500D01*
G01*
X184164000Y-92939500D01*
G75*
G02*
X184329500Y-92774000I165500J0D01*
G01*
X184720500Y-92774000D01*
G75*
G02*
X184886000Y-92939500I0J-165500D01*
G01*
X184886000Y-93270500D01*
G75*
G02*
X184720500Y-93436000I-165500J0D01*
G01*
G37*
G36*
G01*
X173199500Y-110199000D02*
X173750500Y-110199000D01*
G75*
G02*
X174001000Y-110449500I0J-250500D01*
G01*
X174001000Y-110950500D01*
G75*
G02*
X173750500Y-111201000I-250500J0D01*
G01*
X173199500Y-111201000D01*
G75*
G02*
X172949000Y-110950500I0J250500D01*
G01*
X172949000Y-110449500D01*
G75*
G02*
X173199500Y-110199000I250500J0D01*
G01*
G37*
G36*
G01*
X173199500Y-108649000D02*
X173750500Y-108649000D01*
G75*
G02*
X174001000Y-108899500I0J-250500D01*
G01*
X174001000Y-109400500D01*
G75*
G02*
X173750500Y-109651000I-250500J0D01*
G01*
X173199500Y-109651000D01*
G75*
G02*
X172949000Y-109400500I0J250500D01*
G01*
X172949000Y-108899500D01*
G75*
G02*
X173199500Y-108649000I250500J0D01*
G01*
G37*
G36*
G01*
X166801000Y-97549500D02*
X166801000Y-98100500D01*
G75*
G02*
X166550500Y-98351000I-250500J0D01*
G01*
X166049500Y-98351000D01*
G75*
G02*
X165799000Y-98100500I0J250500D01*
G01*
X165799000Y-97549500D01*
G75*
G02*
X166049500Y-97299000I250500J0D01*
G01*
X166550500Y-97299000D01*
G75*
G02*
X166801000Y-97549500I0J-250500D01*
G01*
G37*
G36*
G01*
X168351000Y-97549500D02*
X168351000Y-98100500D01*
G75*
G02*
X168100500Y-98351000I-250500J0D01*
G01*
X167599500Y-98351000D01*
G75*
G02*
X167349000Y-98100500I0J250500D01*
G01*
X167349000Y-97549500D01*
G75*
G02*
X167599500Y-97299000I250500J0D01*
G01*
X168100500Y-97299000D01*
G75*
G02*
X168351000Y-97549500I0J-250500D01*
G01*
G37*
G36*
G01*
X165050500Y-106051000D02*
X164499500Y-106051000D01*
G75*
G02*
X164249000Y-105800500I0J250500D01*
G01*
X164249000Y-105299500D01*
G75*
G02*
X164499500Y-105049000I250500J0D01*
G01*
X165050500Y-105049000D01*
G75*
G02*
X165301000Y-105299500I0J-250500D01*
G01*
X165301000Y-105800500D01*
G75*
G02*
X165050500Y-106051000I-250500J0D01*
G01*
G37*
G36*
G01*
X165050500Y-107601000D02*
X164499500Y-107601000D01*
G75*
G02*
X164249000Y-107350500I0J250500D01*
G01*
X164249000Y-106849500D01*
G75*
G02*
X164499500Y-106599000I250500J0D01*
G01*
X165050500Y-106599000D01*
G75*
G02*
X165301000Y-106849500I0J-250500D01*
G01*
X165301000Y-107350500D01*
G75*
G02*
X165050500Y-107601000I-250500J0D01*
G01*
G37*
G36*
G01*
X171075000Y-101701000D02*
X167875000Y-101701000D01*
G75*
G02*
X167824000Y-101650000I0J51000D01*
G01*
X167824000Y-99900000D01*
G75*
G02*
X167875000Y-99849000I51000J0D01*
G01*
X171075000Y-99849000D01*
G75*
G02*
X171126000Y-99900000I0J-51000D01*
G01*
X171126000Y-101650000D01*
G75*
G02*
X171075000Y-101701000I-51000J0D01*
G01*
G37*
G36*
G01*
X166649000Y-107950000D02*
X166649000Y-106200000D01*
G75*
G02*
X166700000Y-106149000I51000J0D01*
G01*
X167650000Y-106149000D01*
G75*
G02*
X167701000Y-106200000I0J-51000D01*
G01*
X167701000Y-107950000D01*
G75*
G02*
X167650000Y-108001000I-51000J0D01*
G01*
X166700000Y-108001000D01*
G75*
G02*
X166649000Y-107950000I0J51000D01*
G01*
G37*
G36*
G01*
X168949000Y-107950000D02*
X168949000Y-106200000D01*
G75*
G02*
X169000000Y-106149000I51000J0D01*
G01*
X169950000Y-106149000D01*
G75*
G02*
X170001000Y-106200000I0J-51000D01*
G01*
X170001000Y-107950000D01*
G75*
G02*
X169950000Y-108001000I-51000J0D01*
G01*
X169000000Y-108001000D01*
G75*
G02*
X168949000Y-107950000I0J51000D01*
G01*
G37*
G36*
G01*
X171249000Y-107950000D02*
X171249000Y-106200000D01*
G75*
G02*
X171300000Y-106149000I51000J0D01*
G01*
X172250000Y-106149000D01*
G75*
G02*
X172301000Y-106200000I0J-51000D01*
G01*
X172301000Y-107950000D01*
G75*
G02*
X172250000Y-108001000I-51000J0D01*
G01*
X171300000Y-108001000D01*
G75*
G02*
X171249000Y-107950000I0J51000D01*
G01*
G37*
G36*
G01*
X170574000Y-98106750D02*
X170574000Y-97543250D01*
G75*
G02*
X170818250Y-97299000I244250J0D01*
G01*
X171306750Y-97299000D01*
G75*
G02*
X171551000Y-97543250I0J-244250D01*
G01*
X171551000Y-98106750D01*
G75*
G02*
X171306750Y-98351000I-244250J0D01*
G01*
X170818250Y-98351000D01*
G75*
G02*
X170574000Y-98106750I0J244250D01*
G01*
G37*
G36*
G01*
X168999000Y-98106750D02*
X168999000Y-97543250D01*
G75*
G02*
X169243250Y-97299000I244250J0D01*
G01*
X169731750Y-97299000D01*
G75*
G02*
X169976000Y-97543250I0J-244250D01*
G01*
X169976000Y-98106750D01*
G75*
G02*
X169731750Y-98351000I-244250J0D01*
G01*
X169243250Y-98351000D01*
G75*
G02*
X168999000Y-98106750I0J244250D01*
G01*
G37*
G36*
G01*
X171399500Y-110199000D02*
X171950500Y-110199000D01*
G75*
G02*
X172201000Y-110449500I0J-250500D01*
G01*
X172201000Y-110950500D01*
G75*
G02*
X171950500Y-111201000I-250500J0D01*
G01*
X171399500Y-111201000D01*
G75*
G02*
X171149000Y-110950500I0J250500D01*
G01*
X171149000Y-110449500D01*
G75*
G02*
X171399500Y-110199000I250500J0D01*
G01*
G37*
G36*
G01*
X171399500Y-108649000D02*
X171950500Y-108649000D01*
G75*
G02*
X172201000Y-108899500I0J-250500D01*
G01*
X172201000Y-109400500D01*
G75*
G02*
X171950500Y-109651000I-250500J0D01*
G01*
X171399500Y-109651000D01*
G75*
G02*
X171149000Y-109400500I0J250500D01*
G01*
X171149000Y-108899500D01*
G75*
G02*
X171399500Y-108649000I250500J0D01*
G01*
G37*
X175225000Y-111925000D03*
X176475000Y-111925000D03*
X177725000Y-111925000D03*
X178975000Y-111925000D03*
G36*
G01*
X174725001Y-83276000D02*
X171424999Y-83276000D01*
G75*
G02*
X171374000Y-83225001I0J50999D01*
G01*
X171374000Y-82024999D01*
G75*
G02*
X171424999Y-81974000I50999J0D01*
G01*
X174725001Y-81974000D01*
G75*
G02*
X174776000Y-82024999I0J-50999D01*
G01*
X174776000Y-83225001D01*
G75*
G02*
X174725001Y-83276000I-50999J0D01*
G01*
G37*
G36*
G01*
X170224000Y-90025000D02*
X170224000Y-88825000D01*
G75*
G02*
X170275000Y-88774000I51000J0D01*
G01*
X171275000Y-88774000D01*
G75*
G02*
X171326000Y-88825000I0J-51000D01*
G01*
X171326000Y-90025000D01*
G75*
G02*
X171275000Y-90076000I-51000J0D01*
G01*
X170275000Y-90076000D01*
G75*
G02*
X170224000Y-90025000I0J51000D01*
G01*
G37*
G36*
G01*
X172524000Y-90025000D02*
X172524000Y-88825000D01*
G75*
G02*
X172575000Y-88774000I51000J0D01*
G01*
X173575000Y-88774000D01*
G75*
G02*
X173626000Y-88825000I0J-51000D01*
G01*
X173626000Y-90025000D01*
G75*
G02*
X173575000Y-90076000I-51000J0D01*
G01*
X172575000Y-90076000D01*
G75*
G02*
X172524000Y-90025000I0J51000D01*
G01*
G37*
G36*
G01*
X174824000Y-90025000D02*
X174824000Y-88825000D01*
G75*
G02*
X174875000Y-88774000I51000J0D01*
G01*
X175875000Y-88774000D01*
G75*
G02*
X175926000Y-88825000I0J-51000D01*
G01*
X175926000Y-90025000D01*
G75*
G02*
X175875000Y-90076000I-51000J0D01*
G01*
X174875000Y-90076000D01*
G75*
G02*
X174824000Y-90025000I0J51000D01*
G01*
G37*
G36*
G01*
X178301000Y-105625500D02*
X178301000Y-107100500D01*
G75*
G02*
X178250000Y-107151500I-51000J0D01*
G01*
X177800000Y-107151500D01*
G75*
G02*
X177749000Y-107100500I0J51000D01*
G01*
X177749000Y-105625500D01*
G75*
G02*
X177800000Y-105574500I51000J0D01*
G01*
X178250000Y-105574500D01*
G75*
G02*
X178301000Y-105625500I0J-51000D01*
G01*
G37*
G36*
G01*
X178951000Y-105625500D02*
X178951000Y-107100500D01*
G75*
G02*
X178900000Y-107151500I-51000J0D01*
G01*
X178450000Y-107151500D01*
G75*
G02*
X178399000Y-107100500I0J51000D01*
G01*
X178399000Y-105625500D01*
G75*
G02*
X178450000Y-105574500I51000J0D01*
G01*
X178900000Y-105574500D01*
G75*
G02*
X178951000Y-105625500I0J-51000D01*
G01*
G37*
G36*
G01*
X179601000Y-105625500D02*
X179601000Y-107100500D01*
G75*
G02*
X179550000Y-107151500I-51000J0D01*
G01*
X179100000Y-107151500D01*
G75*
G02*
X179049000Y-107100500I0J51000D01*
G01*
X179049000Y-105625500D01*
G75*
G02*
X179100000Y-105574500I51000J0D01*
G01*
X179550000Y-105574500D01*
G75*
G02*
X179601000Y-105625500I0J-51000D01*
G01*
G37*
G36*
G01*
X180251000Y-105625500D02*
X180251000Y-107100500D01*
G75*
G02*
X180200000Y-107151500I-51000J0D01*
G01*
X179750000Y-107151500D01*
G75*
G02*
X179699000Y-107100500I0J51000D01*
G01*
X179699000Y-105625500D01*
G75*
G02*
X179750000Y-105574500I51000J0D01*
G01*
X180200000Y-105574500D01*
G75*
G02*
X180251000Y-105625500I0J-51000D01*
G01*
G37*
G36*
G01*
X180901000Y-105625500D02*
X180901000Y-107100500D01*
G75*
G02*
X180850000Y-107151500I-51000J0D01*
G01*
X180400000Y-107151500D01*
G75*
G02*
X180349000Y-107100500I0J51000D01*
G01*
X180349000Y-105625500D01*
G75*
G02*
X180400000Y-105574500I51000J0D01*
G01*
X180850000Y-105574500D01*
G75*
G02*
X180901000Y-105625500I0J-51000D01*
G01*
G37*
G36*
G01*
X181551000Y-105625500D02*
X181551000Y-107100500D01*
G75*
G02*
X181500000Y-107151500I-51000J0D01*
G01*
X181050000Y-107151500D01*
G75*
G02*
X180999000Y-107100500I0J51000D01*
G01*
X180999000Y-105625500D01*
G75*
G02*
X181050000Y-105574500I51000J0D01*
G01*
X181500000Y-105574500D01*
G75*
G02*
X181551000Y-105625500I0J-51000D01*
G01*
G37*
G36*
G01*
X182201000Y-105625500D02*
X182201000Y-107100500D01*
G75*
G02*
X182150000Y-107151500I-51000J0D01*
G01*
X181700000Y-107151500D01*
G75*
G02*
X181649000Y-107100500I0J51000D01*
G01*
X181649000Y-105625500D01*
G75*
G02*
X181700000Y-105574500I51000J0D01*
G01*
X182150000Y-105574500D01*
G75*
G02*
X182201000Y-105625500I0J-51000D01*
G01*
G37*
G36*
G01*
X182201000Y-99749500D02*
X182201000Y-101224500D01*
G75*
G02*
X182150000Y-101275500I-51000J0D01*
G01*
X181700000Y-101275500D01*
G75*
G02*
X181649000Y-101224500I0J51000D01*
G01*
X181649000Y-99749500D01*
G75*
G02*
X181700000Y-99698500I51000J0D01*
G01*
X182150000Y-99698500D01*
G75*
G02*
X182201000Y-99749500I0J-51000D01*
G01*
G37*
G36*
G01*
X181551000Y-99749500D02*
X181551000Y-101224500D01*
G75*
G02*
X181500000Y-101275500I-51000J0D01*
G01*
X181050000Y-101275500D01*
G75*
G02*
X180999000Y-101224500I0J51000D01*
G01*
X180999000Y-99749500D01*
G75*
G02*
X181050000Y-99698500I51000J0D01*
G01*
X181500000Y-99698500D01*
G75*
G02*
X181551000Y-99749500I0J-51000D01*
G01*
G37*
G36*
G01*
X180901000Y-99749500D02*
X180901000Y-101224500D01*
G75*
G02*
X180850000Y-101275500I-51000J0D01*
G01*
X180400000Y-101275500D01*
G75*
G02*
X180349000Y-101224500I0J51000D01*
G01*
X180349000Y-99749500D01*
G75*
G02*
X180400000Y-99698500I51000J0D01*
G01*
X180850000Y-99698500D01*
G75*
G02*
X180901000Y-99749500I0J-51000D01*
G01*
G37*
G36*
G01*
X180251000Y-99749500D02*
X180251000Y-101224500D01*
G75*
G02*
X180200000Y-101275500I-51000J0D01*
G01*
X179750000Y-101275500D01*
G75*
G02*
X179699000Y-101224500I0J51000D01*
G01*
X179699000Y-99749500D01*
G75*
G02*
X179750000Y-99698500I51000J0D01*
G01*
X180200000Y-99698500D01*
G75*
G02*
X180251000Y-99749500I0J-51000D01*
G01*
G37*
G36*
G01*
X179601000Y-99749500D02*
X179601000Y-101224500D01*
G75*
G02*
X179550000Y-101275500I-51000J0D01*
G01*
X179100000Y-101275500D01*
G75*
G02*
X179049000Y-101224500I0J51000D01*
G01*
X179049000Y-99749500D01*
G75*
G02*
X179100000Y-99698500I51000J0D01*
G01*
X179550000Y-99698500D01*
G75*
G02*
X179601000Y-99749500I0J-51000D01*
G01*
G37*
G36*
G01*
X178951000Y-99749500D02*
X178951000Y-101224500D01*
G75*
G02*
X178900000Y-101275500I-51000J0D01*
G01*
X178450000Y-101275500D01*
G75*
G02*
X178399000Y-101224500I0J51000D01*
G01*
X178399000Y-99749500D01*
G75*
G02*
X178450000Y-99698500I51000J0D01*
G01*
X178900000Y-99698500D01*
G75*
G02*
X178951000Y-99749500I0J-51000D01*
G01*
G37*
G36*
G01*
X178301000Y-99749500D02*
X178301000Y-101224500D01*
G75*
G02*
X178250000Y-101275500I-51000J0D01*
G01*
X177800000Y-101275500D01*
G75*
G02*
X177749000Y-101224500I0J51000D01*
G01*
X177749000Y-99749500D01*
G75*
G02*
X177800000Y-99698500I51000J0D01*
G01*
X178250000Y-99698500D01*
G75*
G02*
X178301000Y-99749500I0J-51000D01*
G01*
G37*
G36*
G01*
X181442000Y-108912500D02*
X181442000Y-109333500D01*
G75*
G02*
X181281500Y-109494000I-160500J0D01*
G01*
X180960500Y-109494000D01*
G75*
G02*
X180800000Y-109333500I0J160500D01*
G01*
X180800000Y-108912500D01*
G75*
G02*
X180960500Y-108752000I160500J0D01*
G01*
X181281500Y-108752000D01*
G75*
G02*
X181442000Y-108912500I0J-160500D01*
G01*
G37*
G36*
G01*
X182462000Y-108912500D02*
X182462000Y-109333500D01*
G75*
G02*
X182301500Y-109494000I-160500J0D01*
G01*
X181980500Y-109494000D01*
G75*
G02*
X181820000Y-109333500I0J160500D01*
G01*
X181820000Y-108912500D01*
G75*
G02*
X181980500Y-108752000I160500J0D01*
G01*
X182301500Y-108752000D01*
G75*
G02*
X182462000Y-108912500I0J-160500D01*
G01*
G37*
G36*
G01*
X183788500Y-109952000D02*
X184209500Y-109952000D01*
G75*
G02*
X184370000Y-110112500I0J-160500D01*
G01*
X184370000Y-110433500D01*
G75*
G02*
X184209500Y-110594000I-160500J0D01*
G01*
X183788500Y-110594000D01*
G75*
G02*
X183628000Y-110433500I0J160500D01*
G01*
X183628000Y-110112500D01*
G75*
G02*
X183788500Y-109952000I160500J0D01*
G01*
G37*
G36*
G01*
X183788500Y-108932000D02*
X184209500Y-108932000D01*
G75*
G02*
X184370000Y-109092500I0J-160500D01*
G01*
X184370000Y-109413500D01*
G75*
G02*
X184209500Y-109574000I-160500J0D01*
G01*
X183788500Y-109574000D01*
G75*
G02*
X183628000Y-109413500I0J160500D01*
G01*
X183628000Y-109092500D01*
G75*
G02*
X183788500Y-108932000I160500J0D01*
G01*
G37*
G36*
G01*
X186103500Y-109574000D02*
X185682500Y-109574000D01*
G75*
G02*
X185522000Y-109413500I0J160500D01*
G01*
X185522000Y-109092500D01*
G75*
G02*
X185682500Y-108932000I160500J0D01*
G01*
X186103500Y-108932000D01*
G75*
G02*
X186264000Y-109092500I0J-160500D01*
G01*
X186264000Y-109413500D01*
G75*
G02*
X186103500Y-109574000I-160500J0D01*
G01*
G37*
G36*
G01*
X186103500Y-110594000D02*
X185682500Y-110594000D01*
G75*
G02*
X185522000Y-110433500I0J160500D01*
G01*
X185522000Y-110112500D01*
G75*
G02*
X185682500Y-109952000I160500J0D01*
G01*
X186103500Y-109952000D01*
G75*
G02*
X186264000Y-110112500I0J-160500D01*
G01*
X186264000Y-110433500D01*
G75*
G02*
X186103500Y-110594000I-160500J0D01*
G01*
G37*
G36*
G01*
X173036000Y-78464500D02*
X173036000Y-78885500D01*
G75*
G02*
X172875500Y-79046000I-160500J0D01*
G01*
X172554500Y-79046000D01*
G75*
G02*
X172394000Y-78885500I0J160500D01*
G01*
X172394000Y-78464500D01*
G75*
G02*
X172554500Y-78304000I160500J0D01*
G01*
X172875500Y-78304000D01*
G75*
G02*
X173036000Y-78464500I0J-160500D01*
G01*
G37*
G36*
G01*
X174056000Y-78464500D02*
X174056000Y-78885500D01*
G75*
G02*
X173895500Y-79046000I-160500J0D01*
G01*
X173574500Y-79046000D01*
G75*
G02*
X173414000Y-78885500I0J160500D01*
G01*
X173414000Y-78464500D01*
G75*
G02*
X173574500Y-78304000I160500J0D01*
G01*
X173895500Y-78304000D01*
G75*
G02*
X174056000Y-78464500I0J-160500D01*
G01*
G37*
G36*
G01*
X184735500Y-96586000D02*
X184314500Y-96586000D01*
G75*
G02*
X184154000Y-96425500I0J160500D01*
G01*
X184154000Y-96104500D01*
G75*
G02*
X184314500Y-95944000I160500J0D01*
G01*
X184735500Y-95944000D01*
G75*
G02*
X184896000Y-96104500I0J-160500D01*
G01*
X184896000Y-96425500D01*
G75*
G02*
X184735500Y-96586000I-160500J0D01*
G01*
G37*
G36*
G01*
X184735500Y-97606000D02*
X184314500Y-97606000D01*
G75*
G02*
X184154000Y-97445500I0J160500D01*
G01*
X184154000Y-97124500D01*
G75*
G02*
X184314500Y-96964000I160500J0D01*
G01*
X184735500Y-96964000D01*
G75*
G02*
X184896000Y-97124500I0J-160500D01*
G01*
X184896000Y-97445500D01*
G75*
G02*
X184735500Y-97606000I-160500J0D01*
G01*
G37*
G36*
G01*
X186086000Y-92764500D02*
X186086000Y-93185500D01*
G75*
G02*
X185925500Y-93346000I-160500J0D01*
G01*
X185604500Y-93346000D01*
G75*
G02*
X185444000Y-93185500I0J160500D01*
G01*
X185444000Y-92764500D01*
G75*
G02*
X185604500Y-92604000I160500J0D01*
G01*
X185925500Y-92604000D01*
G75*
G02*
X186086000Y-92764500I0J-160500D01*
G01*
G37*
G36*
G01*
X187106000Y-92764500D02*
X187106000Y-93185500D01*
G75*
G02*
X186945500Y-93346000I-160500J0D01*
G01*
X186624500Y-93346000D01*
G75*
G02*
X186464000Y-93185500I0J160500D01*
G01*
X186464000Y-92764500D01*
G75*
G02*
X186624500Y-92604000I160500J0D01*
G01*
X186945500Y-92604000D01*
G75*
G02*
X187106000Y-92764500I0J-160500D01*
G01*
G37*
G36*
G01*
X186086000Y-93864500D02*
X186086000Y-94285500D01*
G75*
G02*
X185925500Y-94446000I-160500J0D01*
G01*
X185604500Y-94446000D01*
G75*
G02*
X185444000Y-94285500I0J160500D01*
G01*
X185444000Y-93864500D01*
G75*
G02*
X185604500Y-93704000I160500J0D01*
G01*
X185925500Y-93704000D01*
G75*
G02*
X186086000Y-93864500I0J-160500D01*
G01*
G37*
G36*
G01*
X187106000Y-93864500D02*
X187106000Y-94285500D01*
G75*
G02*
X186945500Y-94446000I-160500J0D01*
G01*
X186624500Y-94446000D01*
G75*
G02*
X186464000Y-94285500I0J160500D01*
G01*
X186464000Y-93864500D01*
G75*
G02*
X186624500Y-93704000I160500J0D01*
G01*
X186945500Y-93704000D01*
G75*
G02*
X187106000Y-93864500I0J-160500D01*
G01*
G37*
G36*
G01*
X180336000Y-92414500D02*
X180336000Y-92835500D01*
G75*
G02*
X180175500Y-92996000I-160500J0D01*
G01*
X179854500Y-92996000D01*
G75*
G02*
X179694000Y-92835500I0J160500D01*
G01*
X179694000Y-92414500D01*
G75*
G02*
X179854500Y-92254000I160500J0D01*
G01*
X180175500Y-92254000D01*
G75*
G02*
X180336000Y-92414500I0J-160500D01*
G01*
G37*
G36*
G01*
X181356000Y-92414500D02*
X181356000Y-92835500D01*
G75*
G02*
X181195500Y-92996000I-160500J0D01*
G01*
X180874500Y-92996000D01*
G75*
G02*
X180714000Y-92835500I0J160500D01*
G01*
X180714000Y-92414500D01*
G75*
G02*
X180874500Y-92254000I160500J0D01*
G01*
X181195500Y-92254000D01*
G75*
G02*
X181356000Y-92414500I0J-160500D01*
G01*
G37*
G36*
G01*
X180336000Y-91414500D02*
X180336000Y-91835500D01*
G75*
G02*
X180175500Y-91996000I-160500J0D01*
G01*
X179854500Y-91996000D01*
G75*
G02*
X179694000Y-91835500I0J160500D01*
G01*
X179694000Y-91414500D01*
G75*
G02*
X179854500Y-91254000I160500J0D01*
G01*
X180175500Y-91254000D01*
G75*
G02*
X180336000Y-91414500I0J-160500D01*
G01*
G37*
G36*
G01*
X181356000Y-91414500D02*
X181356000Y-91835500D01*
G75*
G02*
X181195500Y-91996000I-160500J0D01*
G01*
X180874500Y-91996000D01*
G75*
G02*
X180714000Y-91835500I0J160500D01*
G01*
X180714000Y-91414500D01*
G75*
G02*
X180874500Y-91254000I160500J0D01*
G01*
X181195500Y-91254000D01*
G75*
G02*
X181356000Y-91414500I0J-160500D01*
G01*
G37*
G36*
G01*
X180174000Y-86070500D02*
X180174000Y-85679500D01*
G75*
G02*
X180339500Y-85514000I165500J0D01*
G01*
X180670500Y-85514000D01*
G75*
G02*
X180836000Y-85679500I0J-165500D01*
G01*
X180836000Y-86070500D01*
G75*
G02*
X180670500Y-86236000I-165500J0D01*
G01*
X180339500Y-86236000D01*
G75*
G02*
X180174000Y-86070500I0J165500D01*
G01*
G37*
G36*
G01*
X179214000Y-86070500D02*
X179214000Y-85679500D01*
G75*
G02*
X179379500Y-85514000I165500J0D01*
G01*
X179710500Y-85514000D01*
G75*
G02*
X179876000Y-85679500I0J-165500D01*
G01*
X179876000Y-86070500D01*
G75*
G02*
X179710500Y-86236000I-165500J0D01*
G01*
X179379500Y-86236000D01*
G75*
G02*
X179214000Y-86070500I0J165500D01*
G01*
G37*
G36*
G01*
X166449000Y-85975500D02*
X166449000Y-85374500D01*
G75*
G02*
X166674500Y-85149000I225500J0D01*
G01*
X167125500Y-85149000D01*
G75*
G02*
X167351000Y-85374500I0J-225500D01*
G01*
X167351000Y-85975500D01*
G75*
G02*
X167125500Y-86201000I-225500J0D01*
G01*
X166674500Y-86201000D01*
G75*
G02*
X166449000Y-85975500I0J225500D01*
G01*
G37*
G36*
G01*
X164799000Y-85975500D02*
X164799000Y-85374500D01*
G75*
G02*
X165024500Y-85149000I225500J0D01*
G01*
X165475500Y-85149000D01*
G75*
G02*
X165701000Y-85374500I0J-225500D01*
G01*
X165701000Y-85975500D01*
G75*
G02*
X165475500Y-86201000I-225500J0D01*
G01*
X165024500Y-86201000D01*
G75*
G02*
X164799000Y-85975500I0J225500D01*
G01*
G37*
G36*
G01*
X172225000Y-79624000D02*
X173225000Y-79624000D01*
G75*
G02*
X173276000Y-79675000I0J-51000D01*
G01*
X173276000Y-80675000D01*
G75*
G02*
X173225000Y-80726000I-51000J0D01*
G01*
X172225000Y-80726000D01*
G75*
G02*
X172174000Y-80675000I0J51000D01*
G01*
X172174000Y-79675000D01*
G75*
G02*
X172225000Y-79624000I51000J0D01*
G01*
G37*
X173975000Y-80175000D03*
X168175000Y-80125000D03*
G36*
G01*
X166425000Y-79574000D02*
X167425000Y-79574000D01*
G75*
G02*
X167476000Y-79625000I0J-51000D01*
G01*
X167476000Y-80625000D01*
G75*
G02*
X167425000Y-80676000I-51000J0D01*
G01*
X166425000Y-80676000D01*
G75*
G02*
X166374000Y-80625000I0J51000D01*
G01*
X166374000Y-79625000D01*
G75*
G02*
X166425000Y-79574000I51000J0D01*
G01*
G37*
D14*
X183755000Y-79675000D03*
X185025000Y-78405000D03*
X182485000Y-78405000D03*
X182485000Y-80945000D03*
X185025000Y-80945000D03*
X189940000Y-80945000D03*
X189940000Y-78405000D03*
X192480000Y-78405000D03*
X192480000Y-80945000D03*
X191210000Y-79675000D03*
X189085000Y-109755000D03*
X191625000Y-109755000D03*
X191625000Y-112295000D03*
X189085000Y-112295000D03*
X190355000Y-111025000D03*
D15*
X168148000Y-111798000D02*
X166302000Y-111798000D01*
X166302000Y-108952000D01*
X168148000Y-108952000D01*
X168148000Y-111798000D01*
D16*
G36*
X168148000Y-111798000D02*
G01*
X166302000Y-111798000D01*
X166302000Y-108952000D01*
X168148000Y-108952000D01*
X168148000Y-111798000D01*
G37*
M02*
