M48
; DRILL file {KiCad (5.1.12)-1} date 04/14/26 09:04:09
; FORMAT={-:-/ absolute / metric / decimal}
; #@! TF.CreationDate,2026-04-14T09:04:09-06:00
; #@! TF.GenerationSoftware,Kicad,Pcbnew,(5.1.12)-1
; #@! TF.FileFunction,Plated,1,4,PTH
FMAT,2
METRIC
T1C0.300
T2C0.500
T3C0.550
T4C0.890
%
G90
G05
T1
X165.475Y-82.475
X165.525Y-83.125
X167.725Y-83.775
X173.725Y-78.675
X177.725Y-78.325
X178.025Y-102.275
X178.025Y-103.325
X178.675Y-100.475
X179.325Y-100.475
X179.325Y-106.375
X179.525Y-85.875
X179.675Y-94.925
X179.975Y-102.275
X179.975Y-106.375
X180.025Y-92.625
X180.525Y-85.875
X180.525Y-88.125
X180.625Y-96.125
X180.625Y-104.625
X180.725Y-89.775
X181.075Y-91.625
X181.075Y-92.625
X181.125Y-109.175
X181.275Y-106.375
X181.425Y-87.825
X181.525Y-94.675
X181.625Y-104.625
X182.125Y-110.225
X182.475Y-86.725
X182.475Y-87.825
X182.475Y-88.875
X182.575Y-93.575
X182.575Y-94.675
X182.575Y-95.725
X183.575Y-87.825
X183.675Y-94.675
X183.975Y-110.275
X184.025Y-109.225
X184.525Y-92.125
X184.525Y-93.125
X184.525Y-94.425
X184.525Y-96.275
X184.525Y-97.275
X185.125Y-101.775
X185.225Y-99.625
X185.625Y-86.675
X185.625Y-96.125
X185.675Y-87.675
X185.675Y-88.775
X185.875Y-84.375
X185.875Y-109.225
X185.875Y-110.275
X185.925Y-90.275
X186.175Y-100.725
X186.175Y-101.775
X186.275Y-99.625
X186.525Y-104.375
X187.275Y-83.275
X187.775Y-94.075
X187.925Y-88.125
X188.325Y-100.675
X188.375Y-102.575
X188.475Y-104.375
X188.825Y-87.775
X188.925Y-89.775
X189.355Y-100.675
X189.375Y-99.625
X189.375Y-101.725
X189.475Y-106.375
X189.925Y-86.725
X189.925Y-87.775
X189.925Y-88.875
X190.025Y-95.275
X190.375Y-100.675
X190.975Y-87.775
X191.375Y-104.375
X193.175Y-86.875
X193.175Y-87.875
X193.375Y-84.325
X193.625Y-89.875
X194.125Y-86.925
X194.125Y-87.925
X194.625Y-96.425
T2
X164.725Y-99.275
X164.725Y-101.025
X164.725Y-103.725
X166.143Y-88.215
X166.675Y-109.425
X166.675Y-110.425
X166.675Y-111.425
X166.925Y-80.125
X166.975Y-85.675
X167.393Y-88.215
X167.675Y-109.425
X167.675Y-110.425
X167.675Y-111.425
X168.175Y-80.125
X171.625Y-99.075
X171.675Y-103.475
X171.675Y-104.925
X171.675Y-109.075
X171.775Y-111.025
X172.725Y-80.175
X173.525Y-82.625
X173.575Y-83.825
X173.575Y-84.975
X173.975Y-80.175
X175.325Y-85.775
X178.725Y-80.525
X182.125Y-111.825
X183.975Y-111.825
X185.925Y-111.825
X192.575Y-93.225
T3
X175.225Y-111.925
X176.475Y-111.925
X177.725Y-111.925
X178.975Y-111.925
T4
X182.485Y-78.405
X182.485Y-80.945
X183.755Y-79.675
X185.025Y-78.405
X185.025Y-80.945
X189.085Y-109.755
X189.085Y-112.295
X189.94Y-78.405
X189.94Y-80.945
X190.355Y-111.025
X191.21Y-79.675
X191.625Y-109.755
X191.625Y-112.295
X192.48Y-78.405
X192.48Y-80.945
T0
M30
