G04 #@! TF.GenerationSoftware,KiCad,Pcbnew,(5.1.12)-1*
G04 #@! TF.CreationDate,2026-04-14T09:03:33-06:00*
G04 #@! TF.ProjectId,Mux_SDI_BJT,4d75785f-5344-4495-9f42-4a542e6b6963,2.10*
G04 #@! TF.SameCoordinates,Original*
G04 #@! TF.FileFunction,Copper,L2,Inr*
G04 #@! TF.FilePolarity,Positive*
%FSLAX46Y46*%
G04 Gerber Fmt 4.6, Leading zero omitted, Abs format (unit mm)*
G04 Created by KiCad (PCBNEW (5.1.12)-1) date 2026-04-14 09:03:33*
%MOMM*%
%LPD*%
G01*
G04 APERTURE LIST*
G04 #@! TA.AperFunction,ComponentPad*
%ADD10C,1.000000*%
G04 #@! TD*
G04 #@! TA.AperFunction,ComponentPad*
%ADD11R,1.000000X1.000000*%
G04 #@! TD*
G04 #@! TA.AperFunction,ComponentPad*
%ADD12C,1.446000*%
G04 #@! TD*
G04 #@! TA.AperFunction,ViaPad*
%ADD13C,0.400000*%
G04 #@! TD*
G04 #@! TA.AperFunction,ViaPad*
%ADD14C,0.700000*%
G04 #@! TD*
G04 #@! TA.AperFunction,Conductor*
%ADD15C,0.200000*%
G04 #@! TD*
G04 #@! TA.AperFunction,Conductor*
%ADD16C,0.100000*%
G04 #@! TD*
G04 APERTURE END LIST*
D10*
X166143000Y-88215000D03*
D11*
X167393000Y-88215000D03*
D10*
X175225000Y-111925000D03*
X176475000Y-111925000D03*
X177725000Y-111925000D03*
X178975000Y-111925000D03*
D11*
X172725000Y-80175000D03*
D10*
X173975000Y-80175000D03*
X168175000Y-80125000D03*
D11*
X166925000Y-80125000D03*
D12*
X183755000Y-79675000D03*
X185025000Y-78405000D03*
X182485000Y-78405000D03*
X182485000Y-80945000D03*
X185025000Y-80945000D03*
X189940000Y-80945000D03*
X189940000Y-78405000D03*
X192480000Y-78405000D03*
X192480000Y-80945000D03*
X191210000Y-79675000D03*
X189085000Y-109755000D03*
X191625000Y-109755000D03*
X191625000Y-112295000D03*
X189085000Y-112295000D03*
X190355000Y-111025000D03*
D13*
X165475000Y-82475000D03*
X181125000Y-109175000D03*
D14*
X171675000Y-109075000D03*
X166675000Y-109425000D03*
X167675000Y-109425000D03*
X166675000Y-110425000D03*
X167675000Y-110425000D03*
X167675000Y-111425000D03*
X166675000Y-111425000D03*
D13*
X194125000Y-87925000D03*
X194125000Y-86925000D03*
X193375000Y-84325000D03*
X187275000Y-83275000D03*
X185875000Y-84375000D03*
X185675000Y-87675000D03*
X188925000Y-89775000D03*
X180725000Y-89775000D03*
X181075000Y-92625000D03*
X184525000Y-97275000D03*
D14*
X192575000Y-93225000D03*
D13*
X190025000Y-95275000D03*
D14*
X178725000Y-80525000D03*
D13*
X173725000Y-78675000D03*
X167725000Y-83775000D03*
X184525000Y-92125000D03*
D14*
X164725000Y-99275000D03*
X164725000Y-101025000D03*
X164725000Y-103725000D03*
X171625000Y-99075000D03*
X171675000Y-103475000D03*
X171675000Y-104925000D03*
X171775000Y-111025000D03*
X182125000Y-111825000D03*
X183975000Y-111825000D03*
X185925000Y-111825000D03*
D13*
X189475000Y-106375000D03*
X186525000Y-104375000D03*
X185125000Y-101775000D03*
X181625000Y-104625000D03*
X181275000Y-106375000D03*
X178025000Y-103325000D03*
X183675000Y-94675000D03*
X181525000Y-94675000D03*
X182575000Y-95725000D03*
X182575000Y-93575000D03*
X182575000Y-94675000D03*
X182475000Y-86725000D03*
X182475000Y-88875000D03*
X183575000Y-87825000D03*
X181425000Y-87825000D03*
X182475000Y-87825000D03*
X189925000Y-86725000D03*
X189925000Y-88875000D03*
X190975000Y-87775000D03*
X188825000Y-87775000D03*
X189925000Y-87775000D03*
X189355000Y-100675000D03*
X190375000Y-100675000D03*
X189375000Y-101725000D03*
X188325000Y-100675000D03*
X189375000Y-99625000D03*
X165525000Y-83125000D03*
D14*
X166975000Y-85675000D03*
D13*
X182125000Y-110225000D03*
X185875000Y-110275000D03*
X183975000Y-110275000D03*
X188475000Y-104375000D03*
X188375000Y-102575000D03*
X177725000Y-78325000D03*
X180625000Y-104625000D03*
X186175000Y-101775000D03*
X191375000Y-104375000D03*
X185225000Y-99625000D03*
X181075000Y-91625000D03*
X184525000Y-93125000D03*
X187775000Y-94075000D03*
X194625000Y-96425000D03*
X193175000Y-87875000D03*
X193175000Y-86875000D03*
X185625000Y-86675000D03*
X185675000Y-88775000D03*
X179525000Y-85875000D03*
X180525000Y-85875000D03*
X184525000Y-94425000D03*
X185625000Y-96125000D03*
X184525000Y-96275000D03*
X180025000Y-92625000D03*
X185925000Y-90275000D03*
X193625000Y-89875000D03*
X187925000Y-88125000D03*
X180525000Y-88125000D03*
X180625000Y-96125000D03*
X179675000Y-94925000D03*
X186175000Y-100725000D03*
X186275000Y-99625000D03*
X179325000Y-100475000D03*
X178675000Y-100475000D03*
X179975000Y-106375000D03*
X185875000Y-109225000D03*
X179325000Y-106375000D03*
X184025000Y-109225000D03*
D14*
X173525000Y-82625000D03*
X173575000Y-83825000D03*
X173575000Y-84975000D03*
X175325000Y-85775000D03*
D13*
X178025000Y-102275000D03*
X179975000Y-102275000D03*
D15*
X193120082Y-77503393D02*
X193620356Y-77654434D01*
X194081762Y-77899767D01*
X194486732Y-78230053D01*
X194819831Y-78632702D01*
X195068384Y-79092389D01*
X195222912Y-79591590D01*
X195280000Y-80134738D01*
X195280001Y-110745532D01*
X195226607Y-111290082D01*
X195075566Y-111790355D01*
X194830233Y-112251762D01*
X194499949Y-112656729D01*
X194097298Y-112989831D01*
X193637611Y-113238384D01*
X193138408Y-113392912D01*
X192595262Y-113450000D01*
X165984458Y-113450000D01*
X165439918Y-113396607D01*
X164939645Y-113245566D01*
X164478238Y-113000233D01*
X164073271Y-112669949D01*
X163740169Y-112267298D01*
X163507160Y-111836358D01*
X174325000Y-111836358D01*
X174325000Y-112013642D01*
X174359586Y-112187520D01*
X174427430Y-112351310D01*
X174525924Y-112498717D01*
X174651283Y-112624076D01*
X174798690Y-112722570D01*
X174962480Y-112790414D01*
X175136358Y-112825000D01*
X175313642Y-112825000D01*
X175487520Y-112790414D01*
X175651310Y-112722570D01*
X175798717Y-112624076D01*
X175924076Y-112498717D01*
X176022570Y-112351310D01*
X176090414Y-112187520D01*
X176125000Y-112013642D01*
X176125000Y-111836358D01*
X176825000Y-111836358D01*
X176825000Y-112013642D01*
X176859586Y-112187520D01*
X176927430Y-112351310D01*
X177025924Y-112498717D01*
X177151283Y-112624076D01*
X177298690Y-112722570D01*
X177462480Y-112790414D01*
X177636358Y-112825000D01*
X177813642Y-112825000D01*
X177987520Y-112790414D01*
X178151310Y-112722570D01*
X178298717Y-112624076D01*
X178350000Y-112572793D01*
X178401283Y-112624076D01*
X178548690Y-112722570D01*
X178712480Y-112790414D01*
X178886358Y-112825000D01*
X179063642Y-112825000D01*
X179237520Y-112790414D01*
X179401310Y-112722570D01*
X179548717Y-112624076D01*
X179674076Y-112498717D01*
X179772570Y-112351310D01*
X179840414Y-112187520D01*
X179875000Y-112013642D01*
X179875000Y-111836358D01*
X179840414Y-111662480D01*
X179772570Y-111498690D01*
X179674076Y-111351283D01*
X179548717Y-111225924D01*
X179401310Y-111127430D01*
X179237520Y-111059586D01*
X179063642Y-111025000D01*
X178886358Y-111025000D01*
X178712480Y-111059586D01*
X178548690Y-111127430D01*
X178401283Y-111225924D01*
X178350000Y-111277207D01*
X178298717Y-111225924D01*
X178151310Y-111127430D01*
X177987520Y-111059586D01*
X177813642Y-111025000D01*
X177636358Y-111025000D01*
X177462480Y-111059586D01*
X177298690Y-111127430D01*
X177151283Y-111225924D01*
X177025924Y-111351283D01*
X176927430Y-111498690D01*
X176859586Y-111662480D01*
X176825000Y-111836358D01*
X176125000Y-111836358D01*
X176090414Y-111662480D01*
X176022570Y-111498690D01*
X175924076Y-111351283D01*
X175798717Y-111225924D01*
X175651310Y-111127430D01*
X175487520Y-111059586D01*
X175313642Y-111025000D01*
X175136358Y-111025000D01*
X174962480Y-111059586D01*
X174798690Y-111127430D01*
X174651283Y-111225924D01*
X174525924Y-111351283D01*
X174427430Y-111498690D01*
X174359586Y-111662480D01*
X174325000Y-111836358D01*
X163507160Y-111836358D01*
X163491616Y-111807611D01*
X163337088Y-111308408D01*
X163295675Y-110914394D01*
X189232000Y-110914394D01*
X189232000Y-111135606D01*
X189275156Y-111352567D01*
X189359810Y-111556940D01*
X189482709Y-111740871D01*
X189639129Y-111897291D01*
X189823060Y-112020190D01*
X190027433Y-112104844D01*
X190244394Y-112148000D01*
X190465606Y-112148000D01*
X190682567Y-112104844D01*
X190886940Y-112020190D01*
X191070871Y-111897291D01*
X191227291Y-111740871D01*
X191350190Y-111556940D01*
X191434844Y-111352567D01*
X191478000Y-111135606D01*
X191478000Y-110914394D01*
X191434844Y-110697433D01*
X191350190Y-110493060D01*
X191227291Y-110309129D01*
X191070871Y-110152709D01*
X190886940Y-110029810D01*
X190682567Y-109945156D01*
X190465606Y-109902000D01*
X190244394Y-109902000D01*
X190027433Y-109945156D01*
X189823060Y-110029810D01*
X189639129Y-110152709D01*
X189482709Y-110309129D01*
X189359810Y-110493060D01*
X189275156Y-110697433D01*
X189232000Y-110914394D01*
X163295675Y-110914394D01*
X163280000Y-110765262D01*
X163280000Y-110165905D01*
X181525000Y-110165905D01*
X181525000Y-110284095D01*
X181548058Y-110400014D01*
X181593287Y-110509207D01*
X181658950Y-110607478D01*
X181742522Y-110691050D01*
X181840793Y-110756713D01*
X181949986Y-110801942D01*
X182065905Y-110825000D01*
X182184095Y-110825000D01*
X182300014Y-110801942D01*
X182409207Y-110756713D01*
X182507478Y-110691050D01*
X182591050Y-110607478D01*
X182656713Y-110509207D01*
X182701942Y-110400014D01*
X182725000Y-110284095D01*
X182725000Y-110215905D01*
X183375000Y-110215905D01*
X183375000Y-110334095D01*
X183398058Y-110450014D01*
X183443287Y-110559207D01*
X183508950Y-110657478D01*
X183592522Y-110741050D01*
X183690793Y-110806713D01*
X183799986Y-110851942D01*
X183915905Y-110875000D01*
X184034095Y-110875000D01*
X184150014Y-110851942D01*
X184259207Y-110806713D01*
X184357478Y-110741050D01*
X184441050Y-110657478D01*
X184506713Y-110559207D01*
X184551942Y-110450014D01*
X184575000Y-110334095D01*
X184575000Y-110215905D01*
X184551942Y-110099986D01*
X184506713Y-109990793D01*
X184441050Y-109892522D01*
X184357478Y-109808950D01*
X184290745Y-109764360D01*
X184309207Y-109756713D01*
X184407478Y-109691050D01*
X184491050Y-109607478D01*
X184556713Y-109509207D01*
X184601942Y-109400014D01*
X184625000Y-109284095D01*
X184625000Y-109165905D01*
X185275000Y-109165905D01*
X185275000Y-109284095D01*
X185298058Y-109400014D01*
X185343287Y-109509207D01*
X185408950Y-109607478D01*
X185492522Y-109691050D01*
X185580746Y-109750000D01*
X185492522Y-109808950D01*
X185408950Y-109892522D01*
X185343287Y-109990793D01*
X185298058Y-110099986D01*
X185275000Y-110215905D01*
X185275000Y-110334095D01*
X185298058Y-110450014D01*
X185343287Y-110559207D01*
X185408950Y-110657478D01*
X185492522Y-110741050D01*
X185590793Y-110806713D01*
X185699986Y-110851942D01*
X185815905Y-110875000D01*
X185934095Y-110875000D01*
X186050014Y-110851942D01*
X186159207Y-110806713D01*
X186257478Y-110741050D01*
X186341050Y-110657478D01*
X186406713Y-110559207D01*
X186451942Y-110450014D01*
X186475000Y-110334095D01*
X186475000Y-110215905D01*
X186451942Y-110099986D01*
X186406713Y-109990793D01*
X186341050Y-109892522D01*
X186257478Y-109808950D01*
X186169254Y-109750000D01*
X186257478Y-109691050D01*
X186341050Y-109607478D01*
X186406713Y-109509207D01*
X186451942Y-109400014D01*
X186475000Y-109284095D01*
X186475000Y-109165905D01*
X186451942Y-109049986D01*
X186406713Y-108940793D01*
X186341050Y-108842522D01*
X186257478Y-108758950D01*
X186159207Y-108693287D01*
X186050014Y-108648058D01*
X185934095Y-108625000D01*
X185815905Y-108625000D01*
X185699986Y-108648058D01*
X185590793Y-108693287D01*
X185492522Y-108758950D01*
X185408950Y-108842522D01*
X185343287Y-108940793D01*
X185298058Y-109049986D01*
X185275000Y-109165905D01*
X184625000Y-109165905D01*
X184601942Y-109049986D01*
X184556713Y-108940793D01*
X184491050Y-108842522D01*
X184407478Y-108758950D01*
X184309207Y-108693287D01*
X184200014Y-108648058D01*
X184084095Y-108625000D01*
X183965905Y-108625000D01*
X183849986Y-108648058D01*
X183740793Y-108693287D01*
X183642522Y-108758950D01*
X183558950Y-108842522D01*
X183493287Y-108940793D01*
X183448058Y-109049986D01*
X183425000Y-109165905D01*
X183425000Y-109284095D01*
X183448058Y-109400014D01*
X183493287Y-109509207D01*
X183558950Y-109607478D01*
X183642522Y-109691050D01*
X183709255Y-109735640D01*
X183690793Y-109743287D01*
X183592522Y-109808950D01*
X183508950Y-109892522D01*
X183443287Y-109990793D01*
X183398058Y-110099986D01*
X183375000Y-110215905D01*
X182725000Y-110215905D01*
X182725000Y-110165905D01*
X182701942Y-110049986D01*
X182656713Y-109940793D01*
X182591050Y-109842522D01*
X182507478Y-109758950D01*
X182409207Y-109693287D01*
X182300014Y-109648058D01*
X182184095Y-109625000D01*
X182065905Y-109625000D01*
X181949986Y-109648058D01*
X181840793Y-109693287D01*
X181742522Y-109758950D01*
X181658950Y-109842522D01*
X181593287Y-109940793D01*
X181548058Y-110049986D01*
X181525000Y-110165905D01*
X163280000Y-110165905D01*
X163280000Y-109001131D01*
X170925000Y-109001131D01*
X170925000Y-109148869D01*
X170953822Y-109293767D01*
X171010359Y-109430258D01*
X171092437Y-109553097D01*
X171196903Y-109657563D01*
X171319742Y-109739641D01*
X171456233Y-109796178D01*
X171601131Y-109825000D01*
X171748869Y-109825000D01*
X171893767Y-109796178D01*
X172030258Y-109739641D01*
X172153097Y-109657563D01*
X172257563Y-109553097D01*
X172339641Y-109430258D01*
X172396178Y-109293767D01*
X172425000Y-109148869D01*
X172425000Y-109115905D01*
X180525000Y-109115905D01*
X180525000Y-109234095D01*
X180548058Y-109350014D01*
X180593287Y-109459207D01*
X180658950Y-109557478D01*
X180742522Y-109641050D01*
X180840793Y-109706713D01*
X180949986Y-109751942D01*
X181065905Y-109775000D01*
X181184095Y-109775000D01*
X181300014Y-109751942D01*
X181409207Y-109706713D01*
X181507478Y-109641050D01*
X181591050Y-109557478D01*
X181656713Y-109459207D01*
X181701942Y-109350014D01*
X181725000Y-109234095D01*
X181725000Y-109115905D01*
X181701942Y-108999986D01*
X181656713Y-108890793D01*
X181591050Y-108792522D01*
X181507478Y-108708950D01*
X181409207Y-108643287D01*
X181300014Y-108598058D01*
X181184095Y-108575000D01*
X181065905Y-108575000D01*
X180949986Y-108598058D01*
X180840793Y-108643287D01*
X180742522Y-108708950D01*
X180658950Y-108792522D01*
X180593287Y-108890793D01*
X180548058Y-108999986D01*
X180525000Y-109115905D01*
X172425000Y-109115905D01*
X172425000Y-109001131D01*
X172396178Y-108856233D01*
X172339641Y-108719742D01*
X172257563Y-108596903D01*
X172153097Y-108492437D01*
X172030258Y-108410359D01*
X171893767Y-108353822D01*
X171748869Y-108325000D01*
X171601131Y-108325000D01*
X171456233Y-108353822D01*
X171319742Y-108410359D01*
X171196903Y-108492437D01*
X171092437Y-108596903D01*
X171010359Y-108719742D01*
X170953822Y-108856233D01*
X170925000Y-109001131D01*
X163280000Y-109001131D01*
X163280000Y-106315905D01*
X178725000Y-106315905D01*
X178725000Y-106434095D01*
X178748058Y-106550014D01*
X178793287Y-106659207D01*
X178858950Y-106757478D01*
X178942522Y-106841050D01*
X179040793Y-106906713D01*
X179149986Y-106951942D01*
X179265905Y-106975000D01*
X179384095Y-106975000D01*
X179500014Y-106951942D01*
X179609207Y-106906713D01*
X179650000Y-106879456D01*
X179690793Y-106906713D01*
X179799986Y-106951942D01*
X179915905Y-106975000D01*
X180034095Y-106975000D01*
X180150014Y-106951942D01*
X180259207Y-106906713D01*
X180357478Y-106841050D01*
X180441050Y-106757478D01*
X180506713Y-106659207D01*
X180551942Y-106550014D01*
X180575000Y-106434095D01*
X180575000Y-106315905D01*
X180551942Y-106199986D01*
X180506713Y-106090793D01*
X180441050Y-105992522D01*
X180357478Y-105908950D01*
X180259207Y-105843287D01*
X180150014Y-105798058D01*
X180034095Y-105775000D01*
X179915905Y-105775000D01*
X179799986Y-105798058D01*
X179690793Y-105843287D01*
X179650000Y-105870544D01*
X179609207Y-105843287D01*
X179500014Y-105798058D01*
X179384095Y-105775000D01*
X179265905Y-105775000D01*
X179149986Y-105798058D01*
X179040793Y-105843287D01*
X178942522Y-105908950D01*
X178858950Y-105992522D01*
X178793287Y-106090793D01*
X178748058Y-106199986D01*
X178725000Y-106315905D01*
X163280000Y-106315905D01*
X163280000Y-104565905D01*
X180025000Y-104565905D01*
X180025000Y-104684095D01*
X180048058Y-104800014D01*
X180093287Y-104909207D01*
X180158950Y-105007478D01*
X180242522Y-105091050D01*
X180340793Y-105156713D01*
X180449986Y-105201942D01*
X180565905Y-105225000D01*
X180684095Y-105225000D01*
X180800014Y-105201942D01*
X180909207Y-105156713D01*
X181007478Y-105091050D01*
X181091050Y-105007478D01*
X181156713Y-104909207D01*
X181201942Y-104800014D01*
X181225000Y-104684095D01*
X181225000Y-104565905D01*
X181201942Y-104449986D01*
X181156713Y-104340793D01*
X181140084Y-104315905D01*
X187875000Y-104315905D01*
X187875000Y-104434095D01*
X187898058Y-104550014D01*
X187943287Y-104659207D01*
X188008950Y-104757478D01*
X188092522Y-104841050D01*
X188190793Y-104906713D01*
X188299986Y-104951942D01*
X188415905Y-104975000D01*
X188534095Y-104975000D01*
X188650014Y-104951942D01*
X188759207Y-104906713D01*
X188857478Y-104841050D01*
X188941050Y-104757478D01*
X189006713Y-104659207D01*
X189051942Y-104550014D01*
X189075000Y-104434095D01*
X189075000Y-104315905D01*
X190775000Y-104315905D01*
X190775000Y-104434095D01*
X190798058Y-104550014D01*
X190843287Y-104659207D01*
X190908950Y-104757478D01*
X190992522Y-104841050D01*
X191090793Y-104906713D01*
X191199986Y-104951942D01*
X191315905Y-104975000D01*
X191434095Y-104975000D01*
X191550014Y-104951942D01*
X191659207Y-104906713D01*
X191757478Y-104841050D01*
X191841050Y-104757478D01*
X191906713Y-104659207D01*
X191951942Y-104550014D01*
X191975000Y-104434095D01*
X191975000Y-104315905D01*
X191951942Y-104199986D01*
X191906713Y-104090793D01*
X191841050Y-103992522D01*
X191757478Y-103908950D01*
X191659207Y-103843287D01*
X191550014Y-103798058D01*
X191434095Y-103775000D01*
X191315905Y-103775000D01*
X191199986Y-103798058D01*
X191090793Y-103843287D01*
X190992522Y-103908950D01*
X190908950Y-103992522D01*
X190843287Y-104090793D01*
X190798058Y-104199986D01*
X190775000Y-104315905D01*
X189075000Y-104315905D01*
X189051942Y-104199986D01*
X189006713Y-104090793D01*
X188941050Y-103992522D01*
X188857478Y-103908950D01*
X188759207Y-103843287D01*
X188650014Y-103798058D01*
X188534095Y-103775000D01*
X188415905Y-103775000D01*
X188299986Y-103798058D01*
X188190793Y-103843287D01*
X188092522Y-103908950D01*
X188008950Y-103992522D01*
X187943287Y-104090793D01*
X187898058Y-104199986D01*
X187875000Y-104315905D01*
X181140084Y-104315905D01*
X181091050Y-104242522D01*
X181007478Y-104158950D01*
X180909207Y-104093287D01*
X180800014Y-104048058D01*
X180684095Y-104025000D01*
X180565905Y-104025000D01*
X180449986Y-104048058D01*
X180340793Y-104093287D01*
X180242522Y-104158950D01*
X180158950Y-104242522D01*
X180093287Y-104340793D01*
X180048058Y-104449986D01*
X180025000Y-104565905D01*
X163280000Y-104565905D01*
X163280000Y-102215905D01*
X177425000Y-102215905D01*
X177425000Y-102334095D01*
X177448058Y-102450014D01*
X177493287Y-102559207D01*
X177558950Y-102657478D01*
X177642522Y-102741050D01*
X177740793Y-102806713D01*
X177849986Y-102851942D01*
X177965905Y-102875000D01*
X178084095Y-102875000D01*
X178200014Y-102851942D01*
X178309207Y-102806713D01*
X178407478Y-102741050D01*
X178491050Y-102657478D01*
X178556713Y-102559207D01*
X178601942Y-102450014D01*
X178625000Y-102334095D01*
X178625000Y-102215905D01*
X179375000Y-102215905D01*
X179375000Y-102334095D01*
X179398058Y-102450014D01*
X179443287Y-102559207D01*
X179508950Y-102657478D01*
X179592522Y-102741050D01*
X179690793Y-102806713D01*
X179799986Y-102851942D01*
X179915905Y-102875000D01*
X180034095Y-102875000D01*
X180150014Y-102851942D01*
X180259207Y-102806713D01*
X180357478Y-102741050D01*
X180441050Y-102657478D01*
X180506713Y-102559207D01*
X180524649Y-102515905D01*
X187775000Y-102515905D01*
X187775000Y-102634095D01*
X187798058Y-102750014D01*
X187843287Y-102859207D01*
X187908950Y-102957478D01*
X187992522Y-103041050D01*
X188090793Y-103106713D01*
X188199986Y-103151942D01*
X188315905Y-103175000D01*
X188434095Y-103175000D01*
X188550014Y-103151942D01*
X188659207Y-103106713D01*
X188757478Y-103041050D01*
X188841050Y-102957478D01*
X188906713Y-102859207D01*
X188951942Y-102750014D01*
X188975000Y-102634095D01*
X188975000Y-102515905D01*
X188951942Y-102399986D01*
X188906713Y-102290793D01*
X188841050Y-102192522D01*
X188757478Y-102108950D01*
X188659207Y-102043287D01*
X188550014Y-101998058D01*
X188434095Y-101975000D01*
X188315905Y-101975000D01*
X188199986Y-101998058D01*
X188090793Y-102043287D01*
X187992522Y-102108950D01*
X187908950Y-102192522D01*
X187843287Y-102290793D01*
X187798058Y-102399986D01*
X187775000Y-102515905D01*
X180524649Y-102515905D01*
X180551942Y-102450014D01*
X180575000Y-102334095D01*
X180575000Y-102215905D01*
X180551942Y-102099986D01*
X180506713Y-101990793D01*
X180441050Y-101892522D01*
X180357478Y-101808950D01*
X180259207Y-101743287D01*
X180150014Y-101698058D01*
X180034095Y-101675000D01*
X179915905Y-101675000D01*
X179799986Y-101698058D01*
X179690793Y-101743287D01*
X179592522Y-101808950D01*
X179508950Y-101892522D01*
X179443287Y-101990793D01*
X179398058Y-102099986D01*
X179375000Y-102215905D01*
X178625000Y-102215905D01*
X178601942Y-102099986D01*
X178556713Y-101990793D01*
X178491050Y-101892522D01*
X178407478Y-101808950D01*
X178309207Y-101743287D01*
X178200014Y-101698058D01*
X178084095Y-101675000D01*
X177965905Y-101675000D01*
X177849986Y-101698058D01*
X177740793Y-101743287D01*
X177642522Y-101808950D01*
X177558950Y-101892522D01*
X177493287Y-101990793D01*
X177448058Y-102099986D01*
X177425000Y-102215905D01*
X163280000Y-102215905D01*
X163280000Y-100415905D01*
X178075000Y-100415905D01*
X178075000Y-100534095D01*
X178098058Y-100650014D01*
X178143287Y-100759207D01*
X178208950Y-100857478D01*
X178292522Y-100941050D01*
X178390793Y-101006713D01*
X178499986Y-101051942D01*
X178615905Y-101075000D01*
X178734095Y-101075000D01*
X178850014Y-101051942D01*
X178959207Y-101006713D01*
X179000000Y-100979456D01*
X179040793Y-101006713D01*
X179149986Y-101051942D01*
X179265905Y-101075000D01*
X179384095Y-101075000D01*
X179500014Y-101051942D01*
X179609207Y-101006713D01*
X179707478Y-100941050D01*
X179791050Y-100857478D01*
X179856713Y-100759207D01*
X179901942Y-100650014D01*
X179925000Y-100534095D01*
X179925000Y-100415905D01*
X179901942Y-100299986D01*
X179856713Y-100190793D01*
X179791050Y-100092522D01*
X179707478Y-100008950D01*
X179609207Y-99943287D01*
X179500014Y-99898058D01*
X179384095Y-99875000D01*
X179265905Y-99875000D01*
X179149986Y-99898058D01*
X179040793Y-99943287D01*
X179000000Y-99970544D01*
X178959207Y-99943287D01*
X178850014Y-99898058D01*
X178734095Y-99875000D01*
X178615905Y-99875000D01*
X178499986Y-99898058D01*
X178390793Y-99943287D01*
X178292522Y-100008950D01*
X178208950Y-100092522D01*
X178143287Y-100190793D01*
X178098058Y-100299986D01*
X178075000Y-100415905D01*
X163280000Y-100415905D01*
X163280000Y-99565905D01*
X184625000Y-99565905D01*
X184625000Y-99684095D01*
X184648058Y-99800014D01*
X184693287Y-99909207D01*
X184758950Y-100007478D01*
X184842522Y-100091050D01*
X184940793Y-100156713D01*
X185049986Y-100201942D01*
X185165905Y-100225000D01*
X185284095Y-100225000D01*
X185400014Y-100201942D01*
X185509207Y-100156713D01*
X185607478Y-100091050D01*
X185691050Y-100007478D01*
X185750000Y-99919254D01*
X185808950Y-100007478D01*
X185892522Y-100091050D01*
X185986315Y-100153721D01*
X185890793Y-100193287D01*
X185792522Y-100258950D01*
X185708950Y-100342522D01*
X185643287Y-100440793D01*
X185598058Y-100549986D01*
X185575000Y-100665905D01*
X185575000Y-100784095D01*
X185598058Y-100900014D01*
X185643287Y-101009207D01*
X185708950Y-101107478D01*
X185792522Y-101191050D01*
X185880746Y-101250000D01*
X185792522Y-101308950D01*
X185708950Y-101392522D01*
X185643287Y-101490793D01*
X185598058Y-101599986D01*
X185575000Y-101715905D01*
X185575000Y-101834095D01*
X185598058Y-101950014D01*
X185643287Y-102059207D01*
X185708950Y-102157478D01*
X185792522Y-102241050D01*
X185890793Y-102306713D01*
X185999986Y-102351942D01*
X186115905Y-102375000D01*
X186234095Y-102375000D01*
X186350014Y-102351942D01*
X186459207Y-102306713D01*
X186557478Y-102241050D01*
X186641050Y-102157478D01*
X186706713Y-102059207D01*
X186751942Y-101950014D01*
X186775000Y-101834095D01*
X186775000Y-101715905D01*
X186751942Y-101599986D01*
X186706713Y-101490793D01*
X186641050Y-101392522D01*
X186557478Y-101308950D01*
X186469254Y-101250000D01*
X186557478Y-101191050D01*
X186641050Y-101107478D01*
X186706713Y-101009207D01*
X186751942Y-100900014D01*
X186775000Y-100784095D01*
X186775000Y-100665905D01*
X186751942Y-100549986D01*
X186706713Y-100440793D01*
X186641050Y-100342522D01*
X186557478Y-100258950D01*
X186463685Y-100196279D01*
X186559207Y-100156713D01*
X186657478Y-100091050D01*
X186741050Y-100007478D01*
X186806713Y-99909207D01*
X186851942Y-99800014D01*
X186875000Y-99684095D01*
X186875000Y-99565905D01*
X186851942Y-99449986D01*
X186806713Y-99340793D01*
X186741050Y-99242522D01*
X186657478Y-99158950D01*
X186559207Y-99093287D01*
X186450014Y-99048058D01*
X186334095Y-99025000D01*
X186215905Y-99025000D01*
X186099986Y-99048058D01*
X185990793Y-99093287D01*
X185892522Y-99158950D01*
X185808950Y-99242522D01*
X185750000Y-99330746D01*
X185691050Y-99242522D01*
X185607478Y-99158950D01*
X185509207Y-99093287D01*
X185400014Y-99048058D01*
X185284095Y-99025000D01*
X185165905Y-99025000D01*
X185049986Y-99048058D01*
X184940793Y-99093287D01*
X184842522Y-99158950D01*
X184758950Y-99242522D01*
X184693287Y-99340793D01*
X184648058Y-99449986D01*
X184625000Y-99565905D01*
X163280000Y-99565905D01*
X163280000Y-96449818D01*
X176530530Y-96445009D01*
X176555000Y-96447419D01*
X176579651Y-96444991D01*
X176579741Y-96444991D01*
X176603479Y-96442644D01*
X176653017Y-96437765D01*
X176653107Y-96437738D01*
X176653195Y-96437729D01*
X176698987Y-96423820D01*
X176747267Y-96409175D01*
X176747349Y-96409131D01*
X176747435Y-96409105D01*
X176789283Y-96386717D01*
X176834129Y-96362746D01*
X176834203Y-96362685D01*
X176834280Y-96362644D01*
X176871313Y-96332230D01*
X176910264Y-96300264D01*
X176910322Y-96300193D01*
X176910393Y-96300135D01*
X176941214Y-96262551D01*
X176972746Y-96224129D01*
X176972790Y-96224046D01*
X176972847Y-96223977D01*
X176995154Y-96182207D01*
X177019175Y-96137267D01*
X177019203Y-96137175D01*
X177019244Y-96137098D01*
X177032919Y-96091957D01*
X177040821Y-96065905D01*
X180025000Y-96065905D01*
X180025000Y-96184095D01*
X180048058Y-96300014D01*
X180093287Y-96409207D01*
X180158950Y-96507478D01*
X180242522Y-96591050D01*
X180340793Y-96656713D01*
X180449986Y-96701942D01*
X180565905Y-96725000D01*
X180684095Y-96725000D01*
X180800014Y-96701942D01*
X180909207Y-96656713D01*
X181007478Y-96591050D01*
X181091050Y-96507478D01*
X181156713Y-96409207D01*
X181201942Y-96300014D01*
X181218672Y-96215905D01*
X183925000Y-96215905D01*
X183925000Y-96334095D01*
X183948058Y-96450014D01*
X183993287Y-96559207D01*
X184058950Y-96657478D01*
X184142522Y-96741050D01*
X184240793Y-96806713D01*
X184349986Y-96851942D01*
X184465905Y-96875000D01*
X184584095Y-96875000D01*
X184700014Y-96851942D01*
X184809207Y-96806713D01*
X184907478Y-96741050D01*
X184991050Y-96657478D01*
X185056713Y-96559207D01*
X185101942Y-96450014D01*
X185106212Y-96428550D01*
X185158950Y-96507478D01*
X185242522Y-96591050D01*
X185340793Y-96656713D01*
X185449986Y-96701942D01*
X185565905Y-96725000D01*
X185684095Y-96725000D01*
X185800014Y-96701942D01*
X185909207Y-96656713D01*
X186007478Y-96591050D01*
X186091050Y-96507478D01*
X186156713Y-96409207D01*
X186174649Y-96365905D01*
X194025000Y-96365905D01*
X194025000Y-96484095D01*
X194048058Y-96600014D01*
X194093287Y-96709207D01*
X194158950Y-96807478D01*
X194242522Y-96891050D01*
X194340793Y-96956713D01*
X194449986Y-97001942D01*
X194565905Y-97025000D01*
X194684095Y-97025000D01*
X194800014Y-97001942D01*
X194909207Y-96956713D01*
X195007478Y-96891050D01*
X195091050Y-96807478D01*
X195156713Y-96709207D01*
X195201942Y-96600014D01*
X195225000Y-96484095D01*
X195225000Y-96365905D01*
X195201942Y-96249986D01*
X195156713Y-96140793D01*
X195091050Y-96042522D01*
X195007478Y-95958950D01*
X194909207Y-95893287D01*
X194800014Y-95848058D01*
X194684095Y-95825000D01*
X194565905Y-95825000D01*
X194449986Y-95848058D01*
X194340793Y-95893287D01*
X194242522Y-95958950D01*
X194158950Y-96042522D01*
X194093287Y-96140793D01*
X194048058Y-96249986D01*
X194025000Y-96365905D01*
X186174649Y-96365905D01*
X186201942Y-96300014D01*
X186225000Y-96184095D01*
X186225000Y-96065905D01*
X186201942Y-95949986D01*
X186156713Y-95840793D01*
X186091050Y-95742522D01*
X186007478Y-95658950D01*
X185909207Y-95593287D01*
X185800014Y-95548058D01*
X185684095Y-95525000D01*
X185565905Y-95525000D01*
X185449986Y-95548058D01*
X185340793Y-95593287D01*
X185242522Y-95658950D01*
X185158950Y-95742522D01*
X185093287Y-95840793D01*
X185048058Y-95949986D01*
X185043788Y-95971450D01*
X184991050Y-95892522D01*
X184907478Y-95808950D01*
X184809207Y-95743287D01*
X184700014Y-95698058D01*
X184584095Y-95675000D01*
X184465905Y-95675000D01*
X184349986Y-95698058D01*
X184240793Y-95743287D01*
X184142522Y-95808950D01*
X184058950Y-95892522D01*
X183993287Y-95990793D01*
X183948058Y-96099986D01*
X183925000Y-96215905D01*
X181218672Y-96215905D01*
X181225000Y-96184095D01*
X181225000Y-96065905D01*
X181201942Y-95949986D01*
X181156713Y-95840793D01*
X181091050Y-95742522D01*
X181007478Y-95658950D01*
X180909207Y-95593287D01*
X180800014Y-95548058D01*
X180684095Y-95525000D01*
X180565905Y-95525000D01*
X180449986Y-95548058D01*
X180340793Y-95593287D01*
X180242522Y-95658950D01*
X180158950Y-95742522D01*
X180093287Y-95840793D01*
X180048058Y-95949986D01*
X180025000Y-96065905D01*
X177040821Y-96065905D01*
X177047765Y-96043017D01*
X177047774Y-96042923D01*
X177047800Y-96042838D01*
X177052535Y-95994584D01*
X177055000Y-95969560D01*
X177055000Y-95969468D01*
X177057419Y-95944818D01*
X177055000Y-95920350D01*
X177055000Y-94865905D01*
X179075000Y-94865905D01*
X179075000Y-94984095D01*
X179098058Y-95100014D01*
X179143287Y-95209207D01*
X179208950Y-95307478D01*
X179292522Y-95391050D01*
X179390793Y-95456713D01*
X179499986Y-95501942D01*
X179615905Y-95525000D01*
X179734095Y-95525000D01*
X179850014Y-95501942D01*
X179959207Y-95456713D01*
X180057478Y-95391050D01*
X180141050Y-95307478D01*
X180206713Y-95209207D01*
X180251942Y-95100014D01*
X180275000Y-94984095D01*
X180275000Y-94865905D01*
X180251942Y-94749986D01*
X180206713Y-94640793D01*
X180141050Y-94542522D01*
X180057478Y-94458950D01*
X179959207Y-94393287D01*
X179893101Y-94365905D01*
X183925000Y-94365905D01*
X183925000Y-94484095D01*
X183948058Y-94600014D01*
X183993287Y-94709207D01*
X184058950Y-94807478D01*
X184142522Y-94891050D01*
X184240793Y-94956713D01*
X184349986Y-95001942D01*
X184465905Y-95025000D01*
X184584095Y-95025000D01*
X184700014Y-95001942D01*
X184809207Y-94956713D01*
X184907478Y-94891050D01*
X184991050Y-94807478D01*
X185056713Y-94709207D01*
X185101942Y-94600014D01*
X185125000Y-94484095D01*
X185125000Y-94365905D01*
X185101942Y-94249986D01*
X185056713Y-94140793D01*
X184991050Y-94042522D01*
X184964433Y-94015905D01*
X187175000Y-94015905D01*
X187175000Y-94134095D01*
X187198058Y-94250014D01*
X187243287Y-94359207D01*
X187308950Y-94457478D01*
X187392522Y-94541050D01*
X187490793Y-94606713D01*
X187599986Y-94651942D01*
X187715905Y-94675000D01*
X187834095Y-94675000D01*
X187950014Y-94651942D01*
X188059207Y-94606713D01*
X188157478Y-94541050D01*
X188241050Y-94457478D01*
X188306713Y-94359207D01*
X188351942Y-94250014D01*
X188375000Y-94134095D01*
X188375000Y-94015905D01*
X188351942Y-93899986D01*
X188306713Y-93790793D01*
X188241050Y-93692522D01*
X188157478Y-93608950D01*
X188059207Y-93543287D01*
X187950014Y-93498058D01*
X187834095Y-93475000D01*
X187715905Y-93475000D01*
X187599986Y-93498058D01*
X187490793Y-93543287D01*
X187392522Y-93608950D01*
X187308950Y-93692522D01*
X187243287Y-93790793D01*
X187198058Y-93899986D01*
X187175000Y-94015905D01*
X184964433Y-94015905D01*
X184907478Y-93958950D01*
X184809207Y-93893287D01*
X184700014Y-93848058D01*
X184584095Y-93825000D01*
X184465905Y-93825000D01*
X184349986Y-93848058D01*
X184240793Y-93893287D01*
X184142522Y-93958950D01*
X184058950Y-94042522D01*
X183993287Y-94140793D01*
X183948058Y-94249986D01*
X183925000Y-94365905D01*
X179893101Y-94365905D01*
X179850014Y-94348058D01*
X179734095Y-94325000D01*
X179615905Y-94325000D01*
X179499986Y-94348058D01*
X179390793Y-94393287D01*
X179292522Y-94458950D01*
X179208950Y-94542522D01*
X179143287Y-94640793D01*
X179098058Y-94749986D01*
X179075000Y-94865905D01*
X177055000Y-94865905D01*
X177055000Y-92565905D01*
X179425000Y-92565905D01*
X179425000Y-92684095D01*
X179448058Y-92800014D01*
X179493287Y-92909207D01*
X179558950Y-93007478D01*
X179642522Y-93091050D01*
X179740793Y-93156713D01*
X179849986Y-93201942D01*
X179965905Y-93225000D01*
X180084095Y-93225000D01*
X180200014Y-93201942D01*
X180309207Y-93156713D01*
X180407478Y-93091050D01*
X180432623Y-93065905D01*
X183925000Y-93065905D01*
X183925000Y-93184095D01*
X183948058Y-93300014D01*
X183993287Y-93409207D01*
X184058950Y-93507478D01*
X184142522Y-93591050D01*
X184240793Y-93656713D01*
X184349986Y-93701942D01*
X184465905Y-93725000D01*
X184584095Y-93725000D01*
X184700014Y-93701942D01*
X184809207Y-93656713D01*
X184907478Y-93591050D01*
X184991050Y-93507478D01*
X185056713Y-93409207D01*
X185101942Y-93300014D01*
X185125000Y-93184095D01*
X185125000Y-93065905D01*
X185101942Y-92949986D01*
X185056713Y-92840793D01*
X184991050Y-92742522D01*
X184907478Y-92658950D01*
X184809207Y-92593287D01*
X184700014Y-92548058D01*
X184584095Y-92525000D01*
X184465905Y-92525000D01*
X184349986Y-92548058D01*
X184240793Y-92593287D01*
X184142522Y-92658950D01*
X184058950Y-92742522D01*
X183993287Y-92840793D01*
X183948058Y-92949986D01*
X183925000Y-93065905D01*
X180432623Y-93065905D01*
X180491050Y-93007478D01*
X180556713Y-92909207D01*
X180601942Y-92800014D01*
X180625000Y-92684095D01*
X180625000Y-92565905D01*
X180601942Y-92449986D01*
X180556713Y-92340793D01*
X180491050Y-92242522D01*
X180407478Y-92158950D01*
X180309207Y-92093287D01*
X180200014Y-92048058D01*
X180084095Y-92025000D01*
X179965905Y-92025000D01*
X179849986Y-92048058D01*
X179740793Y-92093287D01*
X179642522Y-92158950D01*
X179558950Y-92242522D01*
X179493287Y-92340793D01*
X179448058Y-92449986D01*
X179425000Y-92565905D01*
X177055000Y-92565905D01*
X177055000Y-91565905D01*
X180475000Y-91565905D01*
X180475000Y-91684095D01*
X180498058Y-91800014D01*
X180543287Y-91909207D01*
X180608950Y-92007478D01*
X180692522Y-92091050D01*
X180790793Y-92156713D01*
X180899986Y-92201942D01*
X181015905Y-92225000D01*
X181134095Y-92225000D01*
X181250014Y-92201942D01*
X181359207Y-92156713D01*
X181457478Y-92091050D01*
X181541050Y-92007478D01*
X181606713Y-91909207D01*
X181651942Y-91800014D01*
X181675000Y-91684095D01*
X181675000Y-91565905D01*
X181651942Y-91449986D01*
X181606713Y-91340793D01*
X181541050Y-91242522D01*
X181457478Y-91158950D01*
X181359207Y-91093287D01*
X181250014Y-91048058D01*
X181134095Y-91025000D01*
X181015905Y-91025000D01*
X180899986Y-91048058D01*
X180790793Y-91093287D01*
X180692522Y-91158950D01*
X180608950Y-91242522D01*
X180543287Y-91340793D01*
X180498058Y-91449986D01*
X180475000Y-91565905D01*
X177055000Y-91565905D01*
X177055000Y-90969468D01*
X177057419Y-90944818D01*
X177052645Y-90896526D01*
X177047765Y-90846983D01*
X177047738Y-90846893D01*
X177047729Y-90846805D01*
X177033820Y-90801013D01*
X177019175Y-90752733D01*
X177019131Y-90752651D01*
X177019105Y-90752565D01*
X176996717Y-90710717D01*
X176972746Y-90665871D01*
X176972685Y-90665797D01*
X176972644Y-90665720D01*
X176942774Y-90629350D01*
X176910264Y-90589736D01*
X176910191Y-90589676D01*
X176910135Y-90589608D01*
X176873064Y-90559207D01*
X176834129Y-90527254D01*
X176834046Y-90527210D01*
X176833977Y-90527153D01*
X176791654Y-90504551D01*
X176747266Y-90480825D01*
X176747176Y-90480798D01*
X176747098Y-90480756D01*
X176701185Y-90466847D01*
X176653016Y-90452235D01*
X176652923Y-90452226D01*
X176652838Y-90452200D01*
X176605969Y-90447601D01*
X176555000Y-90442581D01*
X176530340Y-90445010D01*
X163280000Y-90449819D01*
X163280000Y-90215905D01*
X185325000Y-90215905D01*
X185325000Y-90334095D01*
X185348058Y-90450014D01*
X185393287Y-90559207D01*
X185458950Y-90657478D01*
X185542522Y-90741050D01*
X185640793Y-90806713D01*
X185749986Y-90851942D01*
X185865905Y-90875000D01*
X185984095Y-90875000D01*
X186100014Y-90851942D01*
X186209207Y-90806713D01*
X186307478Y-90741050D01*
X186391050Y-90657478D01*
X186456713Y-90559207D01*
X186501942Y-90450014D01*
X186525000Y-90334095D01*
X186525000Y-90215905D01*
X186501942Y-90099986D01*
X186456713Y-89990793D01*
X186391050Y-89892522D01*
X186314433Y-89815905D01*
X193025000Y-89815905D01*
X193025000Y-89934095D01*
X193048058Y-90050014D01*
X193093287Y-90159207D01*
X193158950Y-90257478D01*
X193242522Y-90341050D01*
X193340793Y-90406713D01*
X193449986Y-90451942D01*
X193565905Y-90475000D01*
X193684095Y-90475000D01*
X193800014Y-90451942D01*
X193909207Y-90406713D01*
X194007478Y-90341050D01*
X194091050Y-90257478D01*
X194156713Y-90159207D01*
X194201942Y-90050014D01*
X194225000Y-89934095D01*
X194225000Y-89815905D01*
X194201942Y-89699986D01*
X194156713Y-89590793D01*
X194091050Y-89492522D01*
X194007478Y-89408950D01*
X193909207Y-89343287D01*
X193800014Y-89298058D01*
X193684095Y-89275000D01*
X193565905Y-89275000D01*
X193449986Y-89298058D01*
X193340793Y-89343287D01*
X193242522Y-89408950D01*
X193158950Y-89492522D01*
X193093287Y-89590793D01*
X193048058Y-89699986D01*
X193025000Y-89815905D01*
X186314433Y-89815905D01*
X186307478Y-89808950D01*
X186209207Y-89743287D01*
X186100014Y-89698058D01*
X185984095Y-89675000D01*
X185865905Y-89675000D01*
X185749986Y-89698058D01*
X185640793Y-89743287D01*
X185542522Y-89808950D01*
X185458950Y-89892522D01*
X185393287Y-89990793D01*
X185348058Y-90099986D01*
X185325000Y-90215905D01*
X163280000Y-90215905D01*
X163280000Y-88126358D01*
X165243000Y-88126358D01*
X165243000Y-88303642D01*
X165277586Y-88477520D01*
X165345430Y-88641310D01*
X165443924Y-88788717D01*
X165569283Y-88914076D01*
X165716690Y-89012570D01*
X165880480Y-89080414D01*
X166054358Y-89115000D01*
X166231642Y-89115000D01*
X166405520Y-89080414D01*
X166569310Y-89012570D01*
X166716717Y-88914076D01*
X166842076Y-88788717D01*
X166940570Y-88641310D01*
X167008414Y-88477520D01*
X167043000Y-88303642D01*
X167043000Y-88126358D01*
X167030976Y-88065905D01*
X179925000Y-88065905D01*
X179925000Y-88184095D01*
X179948058Y-88300014D01*
X179993287Y-88409207D01*
X180058950Y-88507478D01*
X180142522Y-88591050D01*
X180240793Y-88656713D01*
X180349986Y-88701942D01*
X180465905Y-88725000D01*
X180584095Y-88725000D01*
X180629818Y-88715905D01*
X185075000Y-88715905D01*
X185075000Y-88834095D01*
X185098058Y-88950014D01*
X185143287Y-89059207D01*
X185208950Y-89157478D01*
X185292522Y-89241050D01*
X185390793Y-89306713D01*
X185499986Y-89351942D01*
X185615905Y-89375000D01*
X185734095Y-89375000D01*
X185850014Y-89351942D01*
X185959207Y-89306713D01*
X186057478Y-89241050D01*
X186141050Y-89157478D01*
X186206713Y-89059207D01*
X186251942Y-88950014D01*
X186275000Y-88834095D01*
X186275000Y-88715905D01*
X186251942Y-88599986D01*
X186206713Y-88490793D01*
X186141050Y-88392522D01*
X186057478Y-88308950D01*
X185959207Y-88243287D01*
X185850014Y-88198058D01*
X185734095Y-88175000D01*
X185615905Y-88175000D01*
X185499986Y-88198058D01*
X185390793Y-88243287D01*
X185292522Y-88308950D01*
X185208950Y-88392522D01*
X185143287Y-88490793D01*
X185098058Y-88599986D01*
X185075000Y-88715905D01*
X180629818Y-88715905D01*
X180700014Y-88701942D01*
X180809207Y-88656713D01*
X180907478Y-88591050D01*
X180991050Y-88507478D01*
X181056713Y-88409207D01*
X181101942Y-88300014D01*
X181125000Y-88184095D01*
X181125000Y-88065905D01*
X187325000Y-88065905D01*
X187325000Y-88184095D01*
X187348058Y-88300014D01*
X187393287Y-88409207D01*
X187458950Y-88507478D01*
X187542522Y-88591050D01*
X187640793Y-88656713D01*
X187749986Y-88701942D01*
X187865905Y-88725000D01*
X187984095Y-88725000D01*
X188100014Y-88701942D01*
X188209207Y-88656713D01*
X188307478Y-88591050D01*
X188391050Y-88507478D01*
X188456713Y-88409207D01*
X188501942Y-88300014D01*
X188525000Y-88184095D01*
X188525000Y-88065905D01*
X188501942Y-87949986D01*
X188456713Y-87840793D01*
X188391050Y-87742522D01*
X188307478Y-87658950D01*
X188209207Y-87593287D01*
X188100014Y-87548058D01*
X187984095Y-87525000D01*
X187865905Y-87525000D01*
X187749986Y-87548058D01*
X187640793Y-87593287D01*
X187542522Y-87658950D01*
X187458950Y-87742522D01*
X187393287Y-87840793D01*
X187348058Y-87949986D01*
X187325000Y-88065905D01*
X181125000Y-88065905D01*
X181101942Y-87949986D01*
X181056713Y-87840793D01*
X180991050Y-87742522D01*
X180907478Y-87658950D01*
X180809207Y-87593287D01*
X180700014Y-87548058D01*
X180584095Y-87525000D01*
X180465905Y-87525000D01*
X180349986Y-87548058D01*
X180240793Y-87593287D01*
X180142522Y-87658950D01*
X180058950Y-87742522D01*
X179993287Y-87840793D01*
X179948058Y-87949986D01*
X179925000Y-88065905D01*
X167030976Y-88065905D01*
X167008414Y-87952480D01*
X166940570Y-87788690D01*
X166842076Y-87641283D01*
X166716717Y-87515924D01*
X166569310Y-87417430D01*
X166405520Y-87349586D01*
X166231642Y-87315000D01*
X166054358Y-87315000D01*
X165880480Y-87349586D01*
X165716690Y-87417430D01*
X165569283Y-87515924D01*
X165443924Y-87641283D01*
X165345430Y-87788690D01*
X165277586Y-87952480D01*
X165243000Y-88126358D01*
X163280000Y-88126358D01*
X163280000Y-86615905D01*
X185025000Y-86615905D01*
X185025000Y-86734095D01*
X185048058Y-86850014D01*
X185093287Y-86959207D01*
X185158950Y-87057478D01*
X185242522Y-87141050D01*
X185340793Y-87206713D01*
X185449986Y-87251942D01*
X185565905Y-87275000D01*
X185684095Y-87275000D01*
X185800014Y-87251942D01*
X185909207Y-87206713D01*
X186007478Y-87141050D01*
X186091050Y-87057478D01*
X186156713Y-86959207D01*
X186201942Y-86850014D01*
X186208726Y-86815905D01*
X192575000Y-86815905D01*
X192575000Y-86934095D01*
X192598058Y-87050014D01*
X192643287Y-87159207D01*
X192708950Y-87257478D01*
X192792522Y-87341050D01*
X192843331Y-87375000D01*
X192792522Y-87408950D01*
X192708950Y-87492522D01*
X192643287Y-87590793D01*
X192598058Y-87699986D01*
X192575000Y-87815905D01*
X192575000Y-87934095D01*
X192598058Y-88050014D01*
X192643287Y-88159207D01*
X192708950Y-88257478D01*
X192792522Y-88341050D01*
X192890793Y-88406713D01*
X192999986Y-88451942D01*
X193115905Y-88475000D01*
X193234095Y-88475000D01*
X193350014Y-88451942D01*
X193459207Y-88406713D01*
X193557478Y-88341050D01*
X193641050Y-88257478D01*
X193706713Y-88159207D01*
X193751942Y-88050014D01*
X193775000Y-87934095D01*
X193775000Y-87815905D01*
X193751942Y-87699986D01*
X193706713Y-87590793D01*
X193641050Y-87492522D01*
X193557478Y-87408950D01*
X193506669Y-87375000D01*
X193557478Y-87341050D01*
X193641050Y-87257478D01*
X193706713Y-87159207D01*
X193751942Y-87050014D01*
X193775000Y-86934095D01*
X193775000Y-86815905D01*
X193751942Y-86699986D01*
X193706713Y-86590793D01*
X193641050Y-86492522D01*
X193557478Y-86408950D01*
X193459207Y-86343287D01*
X193350014Y-86298058D01*
X193234095Y-86275000D01*
X193115905Y-86275000D01*
X192999986Y-86298058D01*
X192890793Y-86343287D01*
X192792522Y-86408950D01*
X192708950Y-86492522D01*
X192643287Y-86590793D01*
X192598058Y-86699986D01*
X192575000Y-86815905D01*
X186208726Y-86815905D01*
X186225000Y-86734095D01*
X186225000Y-86615905D01*
X186201942Y-86499986D01*
X186156713Y-86390793D01*
X186091050Y-86292522D01*
X186007478Y-86208950D01*
X185909207Y-86143287D01*
X185800014Y-86098058D01*
X185684095Y-86075000D01*
X185565905Y-86075000D01*
X185449986Y-86098058D01*
X185340793Y-86143287D01*
X185242522Y-86208950D01*
X185158950Y-86292522D01*
X185093287Y-86390793D01*
X185048058Y-86499986D01*
X185025000Y-86615905D01*
X163280000Y-86615905D01*
X163280000Y-85601131D01*
X166225000Y-85601131D01*
X166225000Y-85748869D01*
X166253822Y-85893767D01*
X166310359Y-86030258D01*
X166392437Y-86153097D01*
X166496903Y-86257563D01*
X166619742Y-86339641D01*
X166756233Y-86396178D01*
X166901131Y-86425000D01*
X167048869Y-86425000D01*
X167193767Y-86396178D01*
X167330258Y-86339641D01*
X167453097Y-86257563D01*
X167557563Y-86153097D01*
X167639641Y-86030258D01*
X167696178Y-85893767D01*
X167725000Y-85748869D01*
X167725000Y-85601131D01*
X167696178Y-85456233D01*
X167639641Y-85319742D01*
X167557563Y-85196903D01*
X167453097Y-85092437D01*
X167330258Y-85010359D01*
X167193767Y-84953822D01*
X167048869Y-84925000D01*
X166901131Y-84925000D01*
X166756233Y-84953822D01*
X166619742Y-85010359D01*
X166496903Y-85092437D01*
X166392437Y-85196903D01*
X166310359Y-85319742D01*
X166253822Y-85456233D01*
X166225000Y-85601131D01*
X163280000Y-85601131D01*
X163280000Y-82415905D01*
X164875000Y-82415905D01*
X164875000Y-82534095D01*
X164898058Y-82650014D01*
X164943287Y-82759207D01*
X164995544Y-82837415D01*
X164993287Y-82840793D01*
X164948058Y-82949986D01*
X164925000Y-83065905D01*
X164925000Y-83184095D01*
X164948058Y-83300014D01*
X164993287Y-83409207D01*
X165058950Y-83507478D01*
X165142522Y-83591050D01*
X165240793Y-83656713D01*
X165349986Y-83701942D01*
X165465905Y-83725000D01*
X165584095Y-83725000D01*
X165700014Y-83701942D01*
X165809207Y-83656713D01*
X165907478Y-83591050D01*
X165991050Y-83507478D01*
X166056713Y-83409207D01*
X166101942Y-83300014D01*
X166125000Y-83184095D01*
X166125000Y-83065905D01*
X166101942Y-82949986D01*
X166056713Y-82840793D01*
X166004456Y-82762585D01*
X166006713Y-82759207D01*
X166051942Y-82650014D01*
X166071611Y-82551131D01*
X172775000Y-82551131D01*
X172775000Y-82698869D01*
X172803822Y-82843767D01*
X172860359Y-82980258D01*
X172942437Y-83103097D01*
X173046903Y-83207563D01*
X173097999Y-83241704D01*
X173096903Y-83242437D01*
X172992437Y-83346903D01*
X172910359Y-83469742D01*
X172853822Y-83606233D01*
X172825000Y-83751131D01*
X172825000Y-83898869D01*
X172853822Y-84043767D01*
X172910359Y-84180258D01*
X172992437Y-84303097D01*
X173089340Y-84400000D01*
X172992437Y-84496903D01*
X172910359Y-84619742D01*
X172853822Y-84756233D01*
X172825000Y-84901131D01*
X172825000Y-85048869D01*
X172853822Y-85193767D01*
X172910359Y-85330258D01*
X172992437Y-85453097D01*
X173096903Y-85557563D01*
X173219742Y-85639641D01*
X173356233Y-85696178D01*
X173501131Y-85725000D01*
X173648869Y-85725000D01*
X173768866Y-85701131D01*
X174575000Y-85701131D01*
X174575000Y-85848869D01*
X174603822Y-85993767D01*
X174660359Y-86130258D01*
X174742437Y-86253097D01*
X174846903Y-86357563D01*
X174969742Y-86439641D01*
X175106233Y-86496178D01*
X175251131Y-86525000D01*
X175398869Y-86525000D01*
X175543767Y-86496178D01*
X175680258Y-86439641D01*
X175803097Y-86357563D01*
X175907563Y-86253097D01*
X175989641Y-86130258D01*
X176046178Y-85993767D01*
X176075000Y-85848869D01*
X176075000Y-85815905D01*
X178925000Y-85815905D01*
X178925000Y-85934095D01*
X178948058Y-86050014D01*
X178993287Y-86159207D01*
X179058950Y-86257478D01*
X179142522Y-86341050D01*
X179240793Y-86406713D01*
X179349986Y-86451942D01*
X179465905Y-86475000D01*
X179584095Y-86475000D01*
X179700014Y-86451942D01*
X179809207Y-86406713D01*
X179907478Y-86341050D01*
X179991050Y-86257478D01*
X180025000Y-86206669D01*
X180058950Y-86257478D01*
X180142522Y-86341050D01*
X180240793Y-86406713D01*
X180349986Y-86451942D01*
X180465905Y-86475000D01*
X180584095Y-86475000D01*
X180700014Y-86451942D01*
X180809207Y-86406713D01*
X180907478Y-86341050D01*
X180991050Y-86257478D01*
X181056713Y-86159207D01*
X181101942Y-86050014D01*
X181125000Y-85934095D01*
X181125000Y-85815905D01*
X181101942Y-85699986D01*
X181056713Y-85590793D01*
X180991050Y-85492522D01*
X180907478Y-85408950D01*
X180809207Y-85343287D01*
X180700014Y-85298058D01*
X180584095Y-85275000D01*
X180465905Y-85275000D01*
X180349986Y-85298058D01*
X180240793Y-85343287D01*
X180142522Y-85408950D01*
X180058950Y-85492522D01*
X180025000Y-85543331D01*
X179991050Y-85492522D01*
X179907478Y-85408950D01*
X179809207Y-85343287D01*
X179700014Y-85298058D01*
X179584095Y-85275000D01*
X179465905Y-85275000D01*
X179349986Y-85298058D01*
X179240793Y-85343287D01*
X179142522Y-85408950D01*
X179058950Y-85492522D01*
X178993287Y-85590793D01*
X178948058Y-85699986D01*
X178925000Y-85815905D01*
X176075000Y-85815905D01*
X176075000Y-85701131D01*
X176046178Y-85556233D01*
X175989641Y-85419742D01*
X175907563Y-85296903D01*
X175803097Y-85192437D01*
X175680258Y-85110359D01*
X175543767Y-85053822D01*
X175398869Y-85025000D01*
X175251131Y-85025000D01*
X175106233Y-85053822D01*
X174969742Y-85110359D01*
X174846903Y-85192437D01*
X174742437Y-85296903D01*
X174660359Y-85419742D01*
X174603822Y-85556233D01*
X174575000Y-85701131D01*
X173768866Y-85701131D01*
X173793767Y-85696178D01*
X173930258Y-85639641D01*
X174053097Y-85557563D01*
X174157563Y-85453097D01*
X174239641Y-85330258D01*
X174296178Y-85193767D01*
X174325000Y-85048869D01*
X174325000Y-84901131D01*
X174296178Y-84756233D01*
X174239641Y-84619742D01*
X174157563Y-84496903D01*
X174060660Y-84400000D01*
X174157563Y-84303097D01*
X174239641Y-84180258D01*
X174296178Y-84043767D01*
X174325000Y-83898869D01*
X174325000Y-83751131D01*
X174296178Y-83606233D01*
X174239641Y-83469742D01*
X174157563Y-83346903D01*
X174053097Y-83242437D01*
X174002001Y-83208296D01*
X174003097Y-83207563D01*
X174107563Y-83103097D01*
X174189641Y-82980258D01*
X174246178Y-82843767D01*
X174275000Y-82698869D01*
X174275000Y-82551131D01*
X174246178Y-82406233D01*
X174189641Y-82269742D01*
X174107563Y-82146903D01*
X174003097Y-82042437D01*
X173880258Y-81960359D01*
X173743767Y-81903822D01*
X173598869Y-81875000D01*
X173451131Y-81875000D01*
X173306233Y-81903822D01*
X173169742Y-81960359D01*
X173046903Y-82042437D01*
X172942437Y-82146903D01*
X172860359Y-82269742D01*
X172803822Y-82406233D01*
X172775000Y-82551131D01*
X166071611Y-82551131D01*
X166075000Y-82534095D01*
X166075000Y-82415905D01*
X166051942Y-82299986D01*
X166006713Y-82190793D01*
X165941050Y-82092522D01*
X165857478Y-82008950D01*
X165759207Y-81943287D01*
X165650014Y-81898058D01*
X165534095Y-81875000D01*
X165415905Y-81875000D01*
X165299986Y-81898058D01*
X165190793Y-81943287D01*
X165092522Y-82008950D01*
X165008950Y-82092522D01*
X164943287Y-82190793D01*
X164898058Y-82299986D01*
X164875000Y-82415905D01*
X163280000Y-82415905D01*
X163280000Y-80154458D01*
X163331914Y-79625000D01*
X166023065Y-79625000D01*
X166023065Y-80625000D01*
X166030788Y-80703414D01*
X166053660Y-80778814D01*
X166090803Y-80848303D01*
X166140789Y-80909211D01*
X166201697Y-80959197D01*
X166271186Y-80996340D01*
X166346586Y-81019212D01*
X166425000Y-81026935D01*
X167425000Y-81026935D01*
X167503414Y-81019212D01*
X167578814Y-80996340D01*
X167648303Y-80959197D01*
X167709211Y-80909211D01*
X167716112Y-80900802D01*
X167748690Y-80922570D01*
X167912480Y-80990414D01*
X168086358Y-81025000D01*
X168263642Y-81025000D01*
X168437520Y-80990414D01*
X168601310Y-80922570D01*
X168748717Y-80824076D01*
X168874076Y-80698717D01*
X168972570Y-80551310D01*
X169040414Y-80387520D01*
X169075000Y-80213642D01*
X169075000Y-80036358D01*
X169040414Y-79862480D01*
X168972570Y-79698690D01*
X168956741Y-79675000D01*
X171823065Y-79675000D01*
X171823065Y-80675000D01*
X171830788Y-80753414D01*
X171853660Y-80828814D01*
X171890803Y-80898303D01*
X171940789Y-80959211D01*
X172001697Y-81009197D01*
X172071186Y-81046340D01*
X172146586Y-81069212D01*
X172225000Y-81076935D01*
X173225000Y-81076935D01*
X173303414Y-81069212D01*
X173378814Y-81046340D01*
X173448303Y-81009197D01*
X173509211Y-80959211D01*
X173516112Y-80950802D01*
X173548690Y-80972570D01*
X173712480Y-81040414D01*
X173886358Y-81075000D01*
X174063642Y-81075000D01*
X174237520Y-81040414D01*
X174401310Y-80972570D01*
X174548717Y-80874076D01*
X174674076Y-80748717D01*
X174772570Y-80601310D01*
X174840414Y-80437520D01*
X174875000Y-80263642D01*
X174875000Y-80086358D01*
X174840414Y-79912480D01*
X174772570Y-79748690D01*
X174674076Y-79601283D01*
X174637187Y-79564394D01*
X182632000Y-79564394D01*
X182632000Y-79785606D01*
X182675156Y-80002567D01*
X182759810Y-80206940D01*
X182882709Y-80390871D01*
X183039129Y-80547291D01*
X183223060Y-80670190D01*
X183427433Y-80754844D01*
X183644394Y-80798000D01*
X183865606Y-80798000D01*
X184082567Y-80754844D01*
X184286940Y-80670190D01*
X184470871Y-80547291D01*
X184627291Y-80390871D01*
X184750190Y-80206940D01*
X184834844Y-80002567D01*
X184878000Y-79785606D01*
X184878000Y-79564394D01*
X190087000Y-79564394D01*
X190087000Y-79785606D01*
X190130156Y-80002567D01*
X190214810Y-80206940D01*
X190337709Y-80390871D01*
X190494129Y-80547291D01*
X190678060Y-80670190D01*
X190882433Y-80754844D01*
X191099394Y-80798000D01*
X191320606Y-80798000D01*
X191537567Y-80754844D01*
X191741940Y-80670190D01*
X191925871Y-80547291D01*
X192082291Y-80390871D01*
X192205190Y-80206940D01*
X192289844Y-80002567D01*
X192333000Y-79785606D01*
X192333000Y-79564394D01*
X192289844Y-79347433D01*
X192205190Y-79143060D01*
X192082291Y-78959129D01*
X191925871Y-78802709D01*
X191741940Y-78679810D01*
X191537567Y-78595156D01*
X191320606Y-78552000D01*
X191099394Y-78552000D01*
X190882433Y-78595156D01*
X190678060Y-78679810D01*
X190494129Y-78802709D01*
X190337709Y-78959129D01*
X190214810Y-79143060D01*
X190130156Y-79347433D01*
X190087000Y-79564394D01*
X184878000Y-79564394D01*
X184834844Y-79347433D01*
X184750190Y-79143060D01*
X184627291Y-78959129D01*
X184470871Y-78802709D01*
X184286940Y-78679810D01*
X184082567Y-78595156D01*
X183865606Y-78552000D01*
X183644394Y-78552000D01*
X183427433Y-78595156D01*
X183223060Y-78679810D01*
X183039129Y-78802709D01*
X182882709Y-78959129D01*
X182759810Y-79143060D01*
X182675156Y-79347433D01*
X182632000Y-79564394D01*
X174637187Y-79564394D01*
X174548717Y-79475924D01*
X174401310Y-79377430D01*
X174237520Y-79309586D01*
X174063642Y-79275000D01*
X173886358Y-79275000D01*
X173712480Y-79309586D01*
X173548690Y-79377430D01*
X173516112Y-79399198D01*
X173509211Y-79390789D01*
X173448303Y-79340803D01*
X173378814Y-79303660D01*
X173303414Y-79280788D01*
X173225000Y-79273065D01*
X172225000Y-79273065D01*
X172146586Y-79280788D01*
X172071186Y-79303660D01*
X172001697Y-79340803D01*
X171940789Y-79390789D01*
X171890803Y-79451697D01*
X171853660Y-79521186D01*
X171830788Y-79596586D01*
X171823065Y-79675000D01*
X168956741Y-79675000D01*
X168874076Y-79551283D01*
X168748717Y-79425924D01*
X168601310Y-79327430D01*
X168437520Y-79259586D01*
X168263642Y-79225000D01*
X168086358Y-79225000D01*
X167912480Y-79259586D01*
X167748690Y-79327430D01*
X167716112Y-79349198D01*
X167709211Y-79340789D01*
X167648303Y-79290803D01*
X167578814Y-79253660D01*
X167503414Y-79230788D01*
X167425000Y-79223065D01*
X166425000Y-79223065D01*
X166346586Y-79230788D01*
X166271186Y-79253660D01*
X166201697Y-79290803D01*
X166140789Y-79340789D01*
X166090803Y-79401697D01*
X166053660Y-79471186D01*
X166030788Y-79546586D01*
X166023065Y-79625000D01*
X163331914Y-79625000D01*
X163333393Y-79609918D01*
X163484434Y-79109644D01*
X163729767Y-78648238D01*
X164041590Y-78265905D01*
X177125000Y-78265905D01*
X177125000Y-78384095D01*
X177148058Y-78500014D01*
X177193287Y-78609207D01*
X177258950Y-78707478D01*
X177342522Y-78791050D01*
X177440793Y-78856713D01*
X177549986Y-78901942D01*
X177665905Y-78925000D01*
X177784095Y-78925000D01*
X177900014Y-78901942D01*
X178009207Y-78856713D01*
X178107478Y-78791050D01*
X178191050Y-78707478D01*
X178256713Y-78609207D01*
X178301942Y-78500014D01*
X178325000Y-78384095D01*
X178325000Y-78265905D01*
X178301942Y-78149986D01*
X178256713Y-78040793D01*
X178191050Y-77942522D01*
X178107478Y-77858950D01*
X178009207Y-77793287D01*
X177900014Y-77748058D01*
X177784095Y-77725000D01*
X177665905Y-77725000D01*
X177549986Y-77748058D01*
X177440793Y-77793287D01*
X177342522Y-77858950D01*
X177258950Y-77942522D01*
X177193287Y-78040793D01*
X177148058Y-78149986D01*
X177125000Y-78265905D01*
X164041590Y-78265905D01*
X164060053Y-78243268D01*
X164462702Y-77910169D01*
X164922389Y-77661616D01*
X165421590Y-77507088D01*
X165964738Y-77450000D01*
X192575542Y-77450000D01*
X193120082Y-77503393D01*
G04 #@! TA.AperFunction,Conductor*
D16*
G36*
X193120082Y-77503393D02*
G01*
X193620356Y-77654434D01*
X194081762Y-77899767D01*
X194486732Y-78230053D01*
X194819831Y-78632702D01*
X195068384Y-79092389D01*
X195222912Y-79591590D01*
X195280000Y-80134738D01*
X195280001Y-110745532D01*
X195226607Y-111290082D01*
X195075566Y-111790355D01*
X194830233Y-112251762D01*
X194499949Y-112656729D01*
X194097298Y-112989831D01*
X193637611Y-113238384D01*
X193138408Y-113392912D01*
X192595262Y-113450000D01*
X165984458Y-113450000D01*
X165439918Y-113396607D01*
X164939645Y-113245566D01*
X164478238Y-113000233D01*
X164073271Y-112669949D01*
X163740169Y-112267298D01*
X163507160Y-111836358D01*
X174325000Y-111836358D01*
X174325000Y-112013642D01*
X174359586Y-112187520D01*
X174427430Y-112351310D01*
X174525924Y-112498717D01*
X174651283Y-112624076D01*
X174798690Y-112722570D01*
X174962480Y-112790414D01*
X175136358Y-112825000D01*
X175313642Y-112825000D01*
X175487520Y-112790414D01*
X175651310Y-112722570D01*
X175798717Y-112624076D01*
X175924076Y-112498717D01*
X176022570Y-112351310D01*
X176090414Y-112187520D01*
X176125000Y-112013642D01*
X176125000Y-111836358D01*
X176825000Y-111836358D01*
X176825000Y-112013642D01*
X176859586Y-112187520D01*
X176927430Y-112351310D01*
X177025924Y-112498717D01*
X177151283Y-112624076D01*
X177298690Y-112722570D01*
X177462480Y-112790414D01*
X177636358Y-112825000D01*
X177813642Y-112825000D01*
X177987520Y-112790414D01*
X178151310Y-112722570D01*
X178298717Y-112624076D01*
X178350000Y-112572793D01*
X178401283Y-112624076D01*
X178548690Y-112722570D01*
X178712480Y-112790414D01*
X178886358Y-112825000D01*
X179063642Y-112825000D01*
X179237520Y-112790414D01*
X179401310Y-112722570D01*
X179548717Y-112624076D01*
X179674076Y-112498717D01*
X179772570Y-112351310D01*
X179840414Y-112187520D01*
X179875000Y-112013642D01*
X179875000Y-111836358D01*
X179840414Y-111662480D01*
X179772570Y-111498690D01*
X179674076Y-111351283D01*
X179548717Y-111225924D01*
X179401310Y-111127430D01*
X179237520Y-111059586D01*
X179063642Y-111025000D01*
X178886358Y-111025000D01*
X178712480Y-111059586D01*
X178548690Y-111127430D01*
X178401283Y-111225924D01*
X178350000Y-111277207D01*
X178298717Y-111225924D01*
X178151310Y-111127430D01*
X177987520Y-111059586D01*
X177813642Y-111025000D01*
X177636358Y-111025000D01*
X177462480Y-111059586D01*
X177298690Y-111127430D01*
X177151283Y-111225924D01*
X177025924Y-111351283D01*
X176927430Y-111498690D01*
X176859586Y-111662480D01*
X176825000Y-111836358D01*
X176125000Y-111836358D01*
X176090414Y-111662480D01*
X176022570Y-111498690D01*
X175924076Y-111351283D01*
X175798717Y-111225924D01*
X175651310Y-111127430D01*
X175487520Y-111059586D01*
X175313642Y-111025000D01*
X175136358Y-111025000D01*
X174962480Y-111059586D01*
X174798690Y-111127430D01*
X174651283Y-111225924D01*
X174525924Y-111351283D01*
X174427430Y-111498690D01*
X174359586Y-111662480D01*
X174325000Y-111836358D01*
X163507160Y-111836358D01*
X163491616Y-111807611D01*
X163337088Y-111308408D01*
X163295675Y-110914394D01*
X189232000Y-110914394D01*
X189232000Y-111135606D01*
X189275156Y-111352567D01*
X189359810Y-111556940D01*
X189482709Y-111740871D01*
X189639129Y-111897291D01*
X189823060Y-112020190D01*
X190027433Y-112104844D01*
X190244394Y-112148000D01*
X190465606Y-112148000D01*
X190682567Y-112104844D01*
X190886940Y-112020190D01*
X191070871Y-111897291D01*
X191227291Y-111740871D01*
X191350190Y-111556940D01*
X191434844Y-111352567D01*
X191478000Y-111135606D01*
X191478000Y-110914394D01*
X191434844Y-110697433D01*
X191350190Y-110493060D01*
X191227291Y-110309129D01*
X191070871Y-110152709D01*
X190886940Y-110029810D01*
X190682567Y-109945156D01*
X190465606Y-109902000D01*
X190244394Y-109902000D01*
X190027433Y-109945156D01*
X189823060Y-110029810D01*
X189639129Y-110152709D01*
X189482709Y-110309129D01*
X189359810Y-110493060D01*
X189275156Y-110697433D01*
X189232000Y-110914394D01*
X163295675Y-110914394D01*
X163280000Y-110765262D01*
X163280000Y-110165905D01*
X181525000Y-110165905D01*
X181525000Y-110284095D01*
X181548058Y-110400014D01*
X181593287Y-110509207D01*
X181658950Y-110607478D01*
X181742522Y-110691050D01*
X181840793Y-110756713D01*
X181949986Y-110801942D01*
X182065905Y-110825000D01*
X182184095Y-110825000D01*
X182300014Y-110801942D01*
X182409207Y-110756713D01*
X182507478Y-110691050D01*
X182591050Y-110607478D01*
X182656713Y-110509207D01*
X182701942Y-110400014D01*
X182725000Y-110284095D01*
X182725000Y-110215905D01*
X183375000Y-110215905D01*
X183375000Y-110334095D01*
X183398058Y-110450014D01*
X183443287Y-110559207D01*
X183508950Y-110657478D01*
X183592522Y-110741050D01*
X183690793Y-110806713D01*
X183799986Y-110851942D01*
X183915905Y-110875000D01*
X184034095Y-110875000D01*
X184150014Y-110851942D01*
X184259207Y-110806713D01*
X184357478Y-110741050D01*
X184441050Y-110657478D01*
X184506713Y-110559207D01*
X184551942Y-110450014D01*
X184575000Y-110334095D01*
X184575000Y-110215905D01*
X184551942Y-110099986D01*
X184506713Y-109990793D01*
X184441050Y-109892522D01*
X184357478Y-109808950D01*
X184290745Y-109764360D01*
X184309207Y-109756713D01*
X184407478Y-109691050D01*
X184491050Y-109607478D01*
X184556713Y-109509207D01*
X184601942Y-109400014D01*
X184625000Y-109284095D01*
X184625000Y-109165905D01*
X185275000Y-109165905D01*
X185275000Y-109284095D01*
X185298058Y-109400014D01*
X185343287Y-109509207D01*
X185408950Y-109607478D01*
X185492522Y-109691050D01*
X185580746Y-109750000D01*
X185492522Y-109808950D01*
X185408950Y-109892522D01*
X185343287Y-109990793D01*
X185298058Y-110099986D01*
X185275000Y-110215905D01*
X185275000Y-110334095D01*
X185298058Y-110450014D01*
X185343287Y-110559207D01*
X185408950Y-110657478D01*
X185492522Y-110741050D01*
X185590793Y-110806713D01*
X185699986Y-110851942D01*
X185815905Y-110875000D01*
X185934095Y-110875000D01*
X186050014Y-110851942D01*
X186159207Y-110806713D01*
X186257478Y-110741050D01*
X186341050Y-110657478D01*
X186406713Y-110559207D01*
X186451942Y-110450014D01*
X186475000Y-110334095D01*
X186475000Y-110215905D01*
X186451942Y-110099986D01*
X186406713Y-109990793D01*
X186341050Y-109892522D01*
X186257478Y-109808950D01*
X186169254Y-109750000D01*
X186257478Y-109691050D01*
X186341050Y-109607478D01*
X186406713Y-109509207D01*
X186451942Y-109400014D01*
X186475000Y-109284095D01*
X186475000Y-109165905D01*
X186451942Y-109049986D01*
X186406713Y-108940793D01*
X186341050Y-108842522D01*
X186257478Y-108758950D01*
X186159207Y-108693287D01*
X186050014Y-108648058D01*
X185934095Y-108625000D01*
X185815905Y-108625000D01*
X185699986Y-108648058D01*
X185590793Y-108693287D01*
X185492522Y-108758950D01*
X185408950Y-108842522D01*
X185343287Y-108940793D01*
X185298058Y-109049986D01*
X185275000Y-109165905D01*
X184625000Y-109165905D01*
X184601942Y-109049986D01*
X184556713Y-108940793D01*
X184491050Y-108842522D01*
X184407478Y-108758950D01*
X184309207Y-108693287D01*
X184200014Y-108648058D01*
X184084095Y-108625000D01*
X183965905Y-108625000D01*
X183849986Y-108648058D01*
X183740793Y-108693287D01*
X183642522Y-108758950D01*
X183558950Y-108842522D01*
X183493287Y-108940793D01*
X183448058Y-109049986D01*
X183425000Y-109165905D01*
X183425000Y-109284095D01*
X183448058Y-109400014D01*
X183493287Y-109509207D01*
X183558950Y-109607478D01*
X183642522Y-109691050D01*
X183709255Y-109735640D01*
X183690793Y-109743287D01*
X183592522Y-109808950D01*
X183508950Y-109892522D01*
X183443287Y-109990793D01*
X183398058Y-110099986D01*
X183375000Y-110215905D01*
X182725000Y-110215905D01*
X182725000Y-110165905D01*
X182701942Y-110049986D01*
X182656713Y-109940793D01*
X182591050Y-109842522D01*
X182507478Y-109758950D01*
X182409207Y-109693287D01*
X182300014Y-109648058D01*
X182184095Y-109625000D01*
X182065905Y-109625000D01*
X181949986Y-109648058D01*
X181840793Y-109693287D01*
X181742522Y-109758950D01*
X181658950Y-109842522D01*
X181593287Y-109940793D01*
X181548058Y-110049986D01*
X181525000Y-110165905D01*
X163280000Y-110165905D01*
X163280000Y-109001131D01*
X170925000Y-109001131D01*
X170925000Y-109148869D01*
X170953822Y-109293767D01*
X171010359Y-109430258D01*
X171092437Y-109553097D01*
X171196903Y-109657563D01*
X171319742Y-109739641D01*
X171456233Y-109796178D01*
X171601131Y-109825000D01*
X171748869Y-109825000D01*
X171893767Y-109796178D01*
X172030258Y-109739641D01*
X172153097Y-109657563D01*
X172257563Y-109553097D01*
X172339641Y-109430258D01*
X172396178Y-109293767D01*
X172425000Y-109148869D01*
X172425000Y-109115905D01*
X180525000Y-109115905D01*
X180525000Y-109234095D01*
X180548058Y-109350014D01*
X180593287Y-109459207D01*
X180658950Y-109557478D01*
X180742522Y-109641050D01*
X180840793Y-109706713D01*
X180949986Y-109751942D01*
X181065905Y-109775000D01*
X181184095Y-109775000D01*
X181300014Y-109751942D01*
X181409207Y-109706713D01*
X181507478Y-109641050D01*
X181591050Y-109557478D01*
X181656713Y-109459207D01*
X181701942Y-109350014D01*
X181725000Y-109234095D01*
X181725000Y-109115905D01*
X181701942Y-108999986D01*
X181656713Y-108890793D01*
X181591050Y-108792522D01*
X181507478Y-108708950D01*
X181409207Y-108643287D01*
X181300014Y-108598058D01*
X181184095Y-108575000D01*
X181065905Y-108575000D01*
X180949986Y-108598058D01*
X180840793Y-108643287D01*
X180742522Y-108708950D01*
X180658950Y-108792522D01*
X180593287Y-108890793D01*
X180548058Y-108999986D01*
X180525000Y-109115905D01*
X172425000Y-109115905D01*
X172425000Y-109001131D01*
X172396178Y-108856233D01*
X172339641Y-108719742D01*
X172257563Y-108596903D01*
X172153097Y-108492437D01*
X172030258Y-108410359D01*
X171893767Y-108353822D01*
X171748869Y-108325000D01*
X171601131Y-108325000D01*
X171456233Y-108353822D01*
X171319742Y-108410359D01*
X171196903Y-108492437D01*
X171092437Y-108596903D01*
X171010359Y-108719742D01*
X170953822Y-108856233D01*
X170925000Y-109001131D01*
X163280000Y-109001131D01*
X163280000Y-106315905D01*
X178725000Y-106315905D01*
X178725000Y-106434095D01*
X178748058Y-106550014D01*
X178793287Y-106659207D01*
X178858950Y-106757478D01*
X178942522Y-106841050D01*
X179040793Y-106906713D01*
X179149986Y-106951942D01*
X179265905Y-106975000D01*
X179384095Y-106975000D01*
X179500014Y-106951942D01*
X179609207Y-106906713D01*
X179650000Y-106879456D01*
X179690793Y-106906713D01*
X179799986Y-106951942D01*
X179915905Y-106975000D01*
X180034095Y-106975000D01*
X180150014Y-106951942D01*
X180259207Y-106906713D01*
X180357478Y-106841050D01*
X180441050Y-106757478D01*
X180506713Y-106659207D01*
X180551942Y-106550014D01*
X180575000Y-106434095D01*
X180575000Y-106315905D01*
X180551942Y-106199986D01*
X180506713Y-106090793D01*
X180441050Y-105992522D01*
X180357478Y-105908950D01*
X180259207Y-105843287D01*
X180150014Y-105798058D01*
X180034095Y-105775000D01*
X179915905Y-105775000D01*
X179799986Y-105798058D01*
X179690793Y-105843287D01*
X179650000Y-105870544D01*
X179609207Y-105843287D01*
X179500014Y-105798058D01*
X179384095Y-105775000D01*
X179265905Y-105775000D01*
X179149986Y-105798058D01*
X179040793Y-105843287D01*
X178942522Y-105908950D01*
X178858950Y-105992522D01*
X178793287Y-106090793D01*
X178748058Y-106199986D01*
X178725000Y-106315905D01*
X163280000Y-106315905D01*
X163280000Y-104565905D01*
X180025000Y-104565905D01*
X180025000Y-104684095D01*
X180048058Y-104800014D01*
X180093287Y-104909207D01*
X180158950Y-105007478D01*
X180242522Y-105091050D01*
X180340793Y-105156713D01*
X180449986Y-105201942D01*
X180565905Y-105225000D01*
X180684095Y-105225000D01*
X180800014Y-105201942D01*
X180909207Y-105156713D01*
X181007478Y-105091050D01*
X181091050Y-105007478D01*
X181156713Y-104909207D01*
X181201942Y-104800014D01*
X181225000Y-104684095D01*
X181225000Y-104565905D01*
X181201942Y-104449986D01*
X181156713Y-104340793D01*
X181140084Y-104315905D01*
X187875000Y-104315905D01*
X187875000Y-104434095D01*
X187898058Y-104550014D01*
X187943287Y-104659207D01*
X188008950Y-104757478D01*
X188092522Y-104841050D01*
X188190793Y-104906713D01*
X188299986Y-104951942D01*
X188415905Y-104975000D01*
X188534095Y-104975000D01*
X188650014Y-104951942D01*
X188759207Y-104906713D01*
X188857478Y-104841050D01*
X188941050Y-104757478D01*
X189006713Y-104659207D01*
X189051942Y-104550014D01*
X189075000Y-104434095D01*
X189075000Y-104315905D01*
X190775000Y-104315905D01*
X190775000Y-104434095D01*
X190798058Y-104550014D01*
X190843287Y-104659207D01*
X190908950Y-104757478D01*
X190992522Y-104841050D01*
X191090793Y-104906713D01*
X191199986Y-104951942D01*
X191315905Y-104975000D01*
X191434095Y-104975000D01*
X191550014Y-104951942D01*
X191659207Y-104906713D01*
X191757478Y-104841050D01*
X191841050Y-104757478D01*
X191906713Y-104659207D01*
X191951942Y-104550014D01*
X191975000Y-104434095D01*
X191975000Y-104315905D01*
X191951942Y-104199986D01*
X191906713Y-104090793D01*
X191841050Y-103992522D01*
X191757478Y-103908950D01*
X191659207Y-103843287D01*
X191550014Y-103798058D01*
X191434095Y-103775000D01*
X191315905Y-103775000D01*
X191199986Y-103798058D01*
X191090793Y-103843287D01*
X190992522Y-103908950D01*
X190908950Y-103992522D01*
X190843287Y-104090793D01*
X190798058Y-104199986D01*
X190775000Y-104315905D01*
X189075000Y-104315905D01*
X189051942Y-104199986D01*
X189006713Y-104090793D01*
X188941050Y-103992522D01*
X188857478Y-103908950D01*
X188759207Y-103843287D01*
X188650014Y-103798058D01*
X188534095Y-103775000D01*
X188415905Y-103775000D01*
X188299986Y-103798058D01*
X188190793Y-103843287D01*
X188092522Y-103908950D01*
X188008950Y-103992522D01*
X187943287Y-104090793D01*
X187898058Y-104199986D01*
X187875000Y-104315905D01*
X181140084Y-104315905D01*
X181091050Y-104242522D01*
X181007478Y-104158950D01*
X180909207Y-104093287D01*
X180800014Y-104048058D01*
X180684095Y-104025000D01*
X180565905Y-104025000D01*
X180449986Y-104048058D01*
X180340793Y-104093287D01*
X180242522Y-104158950D01*
X180158950Y-104242522D01*
X180093287Y-104340793D01*
X180048058Y-104449986D01*
X180025000Y-104565905D01*
X163280000Y-104565905D01*
X163280000Y-102215905D01*
X177425000Y-102215905D01*
X177425000Y-102334095D01*
X177448058Y-102450014D01*
X177493287Y-102559207D01*
X177558950Y-102657478D01*
X177642522Y-102741050D01*
X177740793Y-102806713D01*
X177849986Y-102851942D01*
X177965905Y-102875000D01*
X178084095Y-102875000D01*
X178200014Y-102851942D01*
X178309207Y-102806713D01*
X178407478Y-102741050D01*
X178491050Y-102657478D01*
X178556713Y-102559207D01*
X178601942Y-102450014D01*
X178625000Y-102334095D01*
X178625000Y-102215905D01*
X179375000Y-102215905D01*
X179375000Y-102334095D01*
X179398058Y-102450014D01*
X179443287Y-102559207D01*
X179508950Y-102657478D01*
X179592522Y-102741050D01*
X179690793Y-102806713D01*
X179799986Y-102851942D01*
X179915905Y-102875000D01*
X180034095Y-102875000D01*
X180150014Y-102851942D01*
X180259207Y-102806713D01*
X180357478Y-102741050D01*
X180441050Y-102657478D01*
X180506713Y-102559207D01*
X180524649Y-102515905D01*
X187775000Y-102515905D01*
X187775000Y-102634095D01*
X187798058Y-102750014D01*
X187843287Y-102859207D01*
X187908950Y-102957478D01*
X187992522Y-103041050D01*
X188090793Y-103106713D01*
X188199986Y-103151942D01*
X188315905Y-103175000D01*
X188434095Y-103175000D01*
X188550014Y-103151942D01*
X188659207Y-103106713D01*
X188757478Y-103041050D01*
X188841050Y-102957478D01*
X188906713Y-102859207D01*
X188951942Y-102750014D01*
X188975000Y-102634095D01*
X188975000Y-102515905D01*
X188951942Y-102399986D01*
X188906713Y-102290793D01*
X188841050Y-102192522D01*
X188757478Y-102108950D01*
X188659207Y-102043287D01*
X188550014Y-101998058D01*
X188434095Y-101975000D01*
X188315905Y-101975000D01*
X188199986Y-101998058D01*
X188090793Y-102043287D01*
X187992522Y-102108950D01*
X187908950Y-102192522D01*
X187843287Y-102290793D01*
X187798058Y-102399986D01*
X187775000Y-102515905D01*
X180524649Y-102515905D01*
X180551942Y-102450014D01*
X180575000Y-102334095D01*
X180575000Y-102215905D01*
X180551942Y-102099986D01*
X180506713Y-101990793D01*
X180441050Y-101892522D01*
X180357478Y-101808950D01*
X180259207Y-101743287D01*
X180150014Y-101698058D01*
X180034095Y-101675000D01*
X179915905Y-101675000D01*
X179799986Y-101698058D01*
X179690793Y-101743287D01*
X179592522Y-101808950D01*
X179508950Y-101892522D01*
X179443287Y-101990793D01*
X179398058Y-102099986D01*
X179375000Y-102215905D01*
X178625000Y-102215905D01*
X178601942Y-102099986D01*
X178556713Y-101990793D01*
X178491050Y-101892522D01*
X178407478Y-101808950D01*
X178309207Y-101743287D01*
X178200014Y-101698058D01*
X178084095Y-101675000D01*
X177965905Y-101675000D01*
X177849986Y-101698058D01*
X177740793Y-101743287D01*
X177642522Y-101808950D01*
X177558950Y-101892522D01*
X177493287Y-101990793D01*
X177448058Y-102099986D01*
X177425000Y-102215905D01*
X163280000Y-102215905D01*
X163280000Y-100415905D01*
X178075000Y-100415905D01*
X178075000Y-100534095D01*
X178098058Y-100650014D01*
X178143287Y-100759207D01*
X178208950Y-100857478D01*
X178292522Y-100941050D01*
X178390793Y-101006713D01*
X178499986Y-101051942D01*
X178615905Y-101075000D01*
X178734095Y-101075000D01*
X178850014Y-101051942D01*
X178959207Y-101006713D01*
X179000000Y-100979456D01*
X179040793Y-101006713D01*
X179149986Y-101051942D01*
X179265905Y-101075000D01*
X179384095Y-101075000D01*
X179500014Y-101051942D01*
X179609207Y-101006713D01*
X179707478Y-100941050D01*
X179791050Y-100857478D01*
X179856713Y-100759207D01*
X179901942Y-100650014D01*
X179925000Y-100534095D01*
X179925000Y-100415905D01*
X179901942Y-100299986D01*
X179856713Y-100190793D01*
X179791050Y-100092522D01*
X179707478Y-100008950D01*
X179609207Y-99943287D01*
X179500014Y-99898058D01*
X179384095Y-99875000D01*
X179265905Y-99875000D01*
X179149986Y-99898058D01*
X179040793Y-99943287D01*
X179000000Y-99970544D01*
X178959207Y-99943287D01*
X178850014Y-99898058D01*
X178734095Y-99875000D01*
X178615905Y-99875000D01*
X178499986Y-99898058D01*
X178390793Y-99943287D01*
X178292522Y-100008950D01*
X178208950Y-100092522D01*
X178143287Y-100190793D01*
X178098058Y-100299986D01*
X178075000Y-100415905D01*
X163280000Y-100415905D01*
X163280000Y-99565905D01*
X184625000Y-99565905D01*
X184625000Y-99684095D01*
X184648058Y-99800014D01*
X184693287Y-99909207D01*
X184758950Y-100007478D01*
X184842522Y-100091050D01*
X184940793Y-100156713D01*
X185049986Y-100201942D01*
X185165905Y-100225000D01*
X185284095Y-100225000D01*
X185400014Y-100201942D01*
X185509207Y-100156713D01*
X185607478Y-100091050D01*
X185691050Y-100007478D01*
X185750000Y-99919254D01*
X185808950Y-100007478D01*
X185892522Y-100091050D01*
X185986315Y-100153721D01*
X185890793Y-100193287D01*
X185792522Y-100258950D01*
X185708950Y-100342522D01*
X185643287Y-100440793D01*
X185598058Y-100549986D01*
X185575000Y-100665905D01*
X185575000Y-100784095D01*
X185598058Y-100900014D01*
X185643287Y-101009207D01*
X185708950Y-101107478D01*
X185792522Y-101191050D01*
X185880746Y-101250000D01*
X185792522Y-101308950D01*
X185708950Y-101392522D01*
X185643287Y-101490793D01*
X185598058Y-101599986D01*
X185575000Y-101715905D01*
X185575000Y-101834095D01*
X185598058Y-101950014D01*
X185643287Y-102059207D01*
X185708950Y-102157478D01*
X185792522Y-102241050D01*
X185890793Y-102306713D01*
X185999986Y-102351942D01*
X186115905Y-102375000D01*
X186234095Y-102375000D01*
X186350014Y-102351942D01*
X186459207Y-102306713D01*
X186557478Y-102241050D01*
X186641050Y-102157478D01*
X186706713Y-102059207D01*
X186751942Y-101950014D01*
X186775000Y-101834095D01*
X186775000Y-101715905D01*
X186751942Y-101599986D01*
X186706713Y-101490793D01*
X186641050Y-101392522D01*
X186557478Y-101308950D01*
X186469254Y-101250000D01*
X186557478Y-101191050D01*
X186641050Y-101107478D01*
X186706713Y-101009207D01*
X186751942Y-100900014D01*
X186775000Y-100784095D01*
X186775000Y-100665905D01*
X186751942Y-100549986D01*
X186706713Y-100440793D01*
X186641050Y-100342522D01*
X186557478Y-100258950D01*
X186463685Y-100196279D01*
X186559207Y-100156713D01*
X186657478Y-100091050D01*
X186741050Y-100007478D01*
X186806713Y-99909207D01*
X186851942Y-99800014D01*
X186875000Y-99684095D01*
X186875000Y-99565905D01*
X186851942Y-99449986D01*
X186806713Y-99340793D01*
X186741050Y-99242522D01*
X186657478Y-99158950D01*
X186559207Y-99093287D01*
X186450014Y-99048058D01*
X186334095Y-99025000D01*
X186215905Y-99025000D01*
X186099986Y-99048058D01*
X185990793Y-99093287D01*
X185892522Y-99158950D01*
X185808950Y-99242522D01*
X185750000Y-99330746D01*
X185691050Y-99242522D01*
X185607478Y-99158950D01*
X185509207Y-99093287D01*
X185400014Y-99048058D01*
X185284095Y-99025000D01*
X185165905Y-99025000D01*
X185049986Y-99048058D01*
X184940793Y-99093287D01*
X184842522Y-99158950D01*
X184758950Y-99242522D01*
X184693287Y-99340793D01*
X184648058Y-99449986D01*
X184625000Y-99565905D01*
X163280000Y-99565905D01*
X163280000Y-96449818D01*
X176530530Y-96445009D01*
X176555000Y-96447419D01*
X176579651Y-96444991D01*
X176579741Y-96444991D01*
X176603479Y-96442644D01*
X176653017Y-96437765D01*
X176653107Y-96437738D01*
X176653195Y-96437729D01*
X176698987Y-96423820D01*
X176747267Y-96409175D01*
X176747349Y-96409131D01*
X176747435Y-96409105D01*
X176789283Y-96386717D01*
X176834129Y-96362746D01*
X176834203Y-96362685D01*
X176834280Y-96362644D01*
X176871313Y-96332230D01*
X176910264Y-96300264D01*
X176910322Y-96300193D01*
X176910393Y-96300135D01*
X176941214Y-96262551D01*
X176972746Y-96224129D01*
X176972790Y-96224046D01*
X176972847Y-96223977D01*
X176995154Y-96182207D01*
X177019175Y-96137267D01*
X177019203Y-96137175D01*
X177019244Y-96137098D01*
X177032919Y-96091957D01*
X177040821Y-96065905D01*
X180025000Y-96065905D01*
X180025000Y-96184095D01*
X180048058Y-96300014D01*
X180093287Y-96409207D01*
X180158950Y-96507478D01*
X180242522Y-96591050D01*
X180340793Y-96656713D01*
X180449986Y-96701942D01*
X180565905Y-96725000D01*
X180684095Y-96725000D01*
X180800014Y-96701942D01*
X180909207Y-96656713D01*
X181007478Y-96591050D01*
X181091050Y-96507478D01*
X181156713Y-96409207D01*
X181201942Y-96300014D01*
X181218672Y-96215905D01*
X183925000Y-96215905D01*
X183925000Y-96334095D01*
X183948058Y-96450014D01*
X183993287Y-96559207D01*
X184058950Y-96657478D01*
X184142522Y-96741050D01*
X184240793Y-96806713D01*
X184349986Y-96851942D01*
X184465905Y-96875000D01*
X184584095Y-96875000D01*
X184700014Y-96851942D01*
X184809207Y-96806713D01*
X184907478Y-96741050D01*
X184991050Y-96657478D01*
X185056713Y-96559207D01*
X185101942Y-96450014D01*
X185106212Y-96428550D01*
X185158950Y-96507478D01*
X185242522Y-96591050D01*
X185340793Y-96656713D01*
X185449986Y-96701942D01*
X185565905Y-96725000D01*
X185684095Y-96725000D01*
X185800014Y-96701942D01*
X185909207Y-96656713D01*
X186007478Y-96591050D01*
X186091050Y-96507478D01*
X186156713Y-96409207D01*
X186174649Y-96365905D01*
X194025000Y-96365905D01*
X194025000Y-96484095D01*
X194048058Y-96600014D01*
X194093287Y-96709207D01*
X194158950Y-96807478D01*
X194242522Y-96891050D01*
X194340793Y-96956713D01*
X194449986Y-97001942D01*
X194565905Y-97025000D01*
X194684095Y-97025000D01*
X194800014Y-97001942D01*
X194909207Y-96956713D01*
X195007478Y-96891050D01*
X195091050Y-96807478D01*
X195156713Y-96709207D01*
X195201942Y-96600014D01*
X195225000Y-96484095D01*
X195225000Y-96365905D01*
X195201942Y-96249986D01*
X195156713Y-96140793D01*
X195091050Y-96042522D01*
X195007478Y-95958950D01*
X194909207Y-95893287D01*
X194800014Y-95848058D01*
X194684095Y-95825000D01*
X194565905Y-95825000D01*
X194449986Y-95848058D01*
X194340793Y-95893287D01*
X194242522Y-95958950D01*
X194158950Y-96042522D01*
X194093287Y-96140793D01*
X194048058Y-96249986D01*
X194025000Y-96365905D01*
X186174649Y-96365905D01*
X186201942Y-96300014D01*
X186225000Y-96184095D01*
X186225000Y-96065905D01*
X186201942Y-95949986D01*
X186156713Y-95840793D01*
X186091050Y-95742522D01*
X186007478Y-95658950D01*
X185909207Y-95593287D01*
X185800014Y-95548058D01*
X185684095Y-95525000D01*
X185565905Y-95525000D01*
X185449986Y-95548058D01*
X185340793Y-95593287D01*
X185242522Y-95658950D01*
X185158950Y-95742522D01*
X185093287Y-95840793D01*
X185048058Y-95949986D01*
X185043788Y-95971450D01*
X184991050Y-95892522D01*
X184907478Y-95808950D01*
X184809207Y-95743287D01*
X184700014Y-95698058D01*
X184584095Y-95675000D01*
X184465905Y-95675000D01*
X184349986Y-95698058D01*
X184240793Y-95743287D01*
X184142522Y-95808950D01*
X184058950Y-95892522D01*
X183993287Y-95990793D01*
X183948058Y-96099986D01*
X183925000Y-96215905D01*
X181218672Y-96215905D01*
X181225000Y-96184095D01*
X181225000Y-96065905D01*
X181201942Y-95949986D01*
X181156713Y-95840793D01*
X181091050Y-95742522D01*
X181007478Y-95658950D01*
X180909207Y-95593287D01*
X180800014Y-95548058D01*
X180684095Y-95525000D01*
X180565905Y-95525000D01*
X180449986Y-95548058D01*
X180340793Y-95593287D01*
X180242522Y-95658950D01*
X180158950Y-95742522D01*
X180093287Y-95840793D01*
X180048058Y-95949986D01*
X180025000Y-96065905D01*
X177040821Y-96065905D01*
X177047765Y-96043017D01*
X177047774Y-96042923D01*
X177047800Y-96042838D01*
X177052535Y-95994584D01*
X177055000Y-95969560D01*
X177055000Y-95969468D01*
X177057419Y-95944818D01*
X177055000Y-95920350D01*
X177055000Y-94865905D01*
X179075000Y-94865905D01*
X179075000Y-94984095D01*
X179098058Y-95100014D01*
X179143287Y-95209207D01*
X179208950Y-95307478D01*
X179292522Y-95391050D01*
X179390793Y-95456713D01*
X179499986Y-95501942D01*
X179615905Y-95525000D01*
X179734095Y-95525000D01*
X179850014Y-95501942D01*
X179959207Y-95456713D01*
X180057478Y-95391050D01*
X180141050Y-95307478D01*
X180206713Y-95209207D01*
X180251942Y-95100014D01*
X180275000Y-94984095D01*
X180275000Y-94865905D01*
X180251942Y-94749986D01*
X180206713Y-94640793D01*
X180141050Y-94542522D01*
X180057478Y-94458950D01*
X179959207Y-94393287D01*
X179893101Y-94365905D01*
X183925000Y-94365905D01*
X183925000Y-94484095D01*
X183948058Y-94600014D01*
X183993287Y-94709207D01*
X184058950Y-94807478D01*
X184142522Y-94891050D01*
X184240793Y-94956713D01*
X184349986Y-95001942D01*
X184465905Y-95025000D01*
X184584095Y-95025000D01*
X184700014Y-95001942D01*
X184809207Y-94956713D01*
X184907478Y-94891050D01*
X184991050Y-94807478D01*
X185056713Y-94709207D01*
X185101942Y-94600014D01*
X185125000Y-94484095D01*
X185125000Y-94365905D01*
X185101942Y-94249986D01*
X185056713Y-94140793D01*
X184991050Y-94042522D01*
X184964433Y-94015905D01*
X187175000Y-94015905D01*
X187175000Y-94134095D01*
X187198058Y-94250014D01*
X187243287Y-94359207D01*
X187308950Y-94457478D01*
X187392522Y-94541050D01*
X187490793Y-94606713D01*
X187599986Y-94651942D01*
X187715905Y-94675000D01*
X187834095Y-94675000D01*
X187950014Y-94651942D01*
X188059207Y-94606713D01*
X188157478Y-94541050D01*
X188241050Y-94457478D01*
X188306713Y-94359207D01*
X188351942Y-94250014D01*
X188375000Y-94134095D01*
X188375000Y-94015905D01*
X188351942Y-93899986D01*
X188306713Y-93790793D01*
X188241050Y-93692522D01*
X188157478Y-93608950D01*
X188059207Y-93543287D01*
X187950014Y-93498058D01*
X187834095Y-93475000D01*
X187715905Y-93475000D01*
X187599986Y-93498058D01*
X187490793Y-93543287D01*
X187392522Y-93608950D01*
X187308950Y-93692522D01*
X187243287Y-93790793D01*
X187198058Y-93899986D01*
X187175000Y-94015905D01*
X184964433Y-94015905D01*
X184907478Y-93958950D01*
X184809207Y-93893287D01*
X184700014Y-93848058D01*
X184584095Y-93825000D01*
X184465905Y-93825000D01*
X184349986Y-93848058D01*
X184240793Y-93893287D01*
X184142522Y-93958950D01*
X184058950Y-94042522D01*
X183993287Y-94140793D01*
X183948058Y-94249986D01*
X183925000Y-94365905D01*
X179893101Y-94365905D01*
X179850014Y-94348058D01*
X179734095Y-94325000D01*
X179615905Y-94325000D01*
X179499986Y-94348058D01*
X179390793Y-94393287D01*
X179292522Y-94458950D01*
X179208950Y-94542522D01*
X179143287Y-94640793D01*
X179098058Y-94749986D01*
X179075000Y-94865905D01*
X177055000Y-94865905D01*
X177055000Y-92565905D01*
X179425000Y-92565905D01*
X179425000Y-92684095D01*
X179448058Y-92800014D01*
X179493287Y-92909207D01*
X179558950Y-93007478D01*
X179642522Y-93091050D01*
X179740793Y-93156713D01*
X179849986Y-93201942D01*
X179965905Y-93225000D01*
X180084095Y-93225000D01*
X180200014Y-93201942D01*
X180309207Y-93156713D01*
X180407478Y-93091050D01*
X180432623Y-93065905D01*
X183925000Y-93065905D01*
X183925000Y-93184095D01*
X183948058Y-93300014D01*
X183993287Y-93409207D01*
X184058950Y-93507478D01*
X184142522Y-93591050D01*
X184240793Y-93656713D01*
X184349986Y-93701942D01*
X184465905Y-93725000D01*
X184584095Y-93725000D01*
X184700014Y-93701942D01*
X184809207Y-93656713D01*
X184907478Y-93591050D01*
X184991050Y-93507478D01*
X185056713Y-93409207D01*
X185101942Y-93300014D01*
X185125000Y-93184095D01*
X185125000Y-93065905D01*
X185101942Y-92949986D01*
X185056713Y-92840793D01*
X184991050Y-92742522D01*
X184907478Y-92658950D01*
X184809207Y-92593287D01*
X184700014Y-92548058D01*
X184584095Y-92525000D01*
X184465905Y-92525000D01*
X184349986Y-92548058D01*
X184240793Y-92593287D01*
X184142522Y-92658950D01*
X184058950Y-92742522D01*
X183993287Y-92840793D01*
X183948058Y-92949986D01*
X183925000Y-93065905D01*
X180432623Y-93065905D01*
X180491050Y-93007478D01*
X180556713Y-92909207D01*
X180601942Y-92800014D01*
X180625000Y-92684095D01*
X180625000Y-92565905D01*
X180601942Y-92449986D01*
X180556713Y-92340793D01*
X180491050Y-92242522D01*
X180407478Y-92158950D01*
X180309207Y-92093287D01*
X180200014Y-92048058D01*
X180084095Y-92025000D01*
X179965905Y-92025000D01*
X179849986Y-92048058D01*
X179740793Y-92093287D01*
X179642522Y-92158950D01*
X179558950Y-92242522D01*
X179493287Y-92340793D01*
X179448058Y-92449986D01*
X179425000Y-92565905D01*
X177055000Y-92565905D01*
X177055000Y-91565905D01*
X180475000Y-91565905D01*
X180475000Y-91684095D01*
X180498058Y-91800014D01*
X180543287Y-91909207D01*
X180608950Y-92007478D01*
X180692522Y-92091050D01*
X180790793Y-92156713D01*
X180899986Y-92201942D01*
X181015905Y-92225000D01*
X181134095Y-92225000D01*
X181250014Y-92201942D01*
X181359207Y-92156713D01*
X181457478Y-92091050D01*
X181541050Y-92007478D01*
X181606713Y-91909207D01*
X181651942Y-91800014D01*
X181675000Y-91684095D01*
X181675000Y-91565905D01*
X181651942Y-91449986D01*
X181606713Y-91340793D01*
X181541050Y-91242522D01*
X181457478Y-91158950D01*
X181359207Y-91093287D01*
X181250014Y-91048058D01*
X181134095Y-91025000D01*
X181015905Y-91025000D01*
X180899986Y-91048058D01*
X180790793Y-91093287D01*
X180692522Y-91158950D01*
X180608950Y-91242522D01*
X180543287Y-91340793D01*
X180498058Y-91449986D01*
X180475000Y-91565905D01*
X177055000Y-91565905D01*
X177055000Y-90969468D01*
X177057419Y-90944818D01*
X177052645Y-90896526D01*
X177047765Y-90846983D01*
X177047738Y-90846893D01*
X177047729Y-90846805D01*
X177033820Y-90801013D01*
X177019175Y-90752733D01*
X177019131Y-90752651D01*
X177019105Y-90752565D01*
X176996717Y-90710717D01*
X176972746Y-90665871D01*
X176972685Y-90665797D01*
X176972644Y-90665720D01*
X176942774Y-90629350D01*
X176910264Y-90589736D01*
X176910191Y-90589676D01*
X176910135Y-90589608D01*
X176873064Y-90559207D01*
X176834129Y-90527254D01*
X176834046Y-90527210D01*
X176833977Y-90527153D01*
X176791654Y-90504551D01*
X176747266Y-90480825D01*
X176747176Y-90480798D01*
X176747098Y-90480756D01*
X176701185Y-90466847D01*
X176653016Y-90452235D01*
X176652923Y-90452226D01*
X176652838Y-90452200D01*
X176605969Y-90447601D01*
X176555000Y-90442581D01*
X176530340Y-90445010D01*
X163280000Y-90449819D01*
X163280000Y-90215905D01*
X185325000Y-90215905D01*
X185325000Y-90334095D01*
X185348058Y-90450014D01*
X185393287Y-90559207D01*
X185458950Y-90657478D01*
X185542522Y-90741050D01*
X185640793Y-90806713D01*
X185749986Y-90851942D01*
X185865905Y-90875000D01*
X185984095Y-90875000D01*
X186100014Y-90851942D01*
X186209207Y-90806713D01*
X186307478Y-90741050D01*
X186391050Y-90657478D01*
X186456713Y-90559207D01*
X186501942Y-90450014D01*
X186525000Y-90334095D01*
X186525000Y-90215905D01*
X186501942Y-90099986D01*
X186456713Y-89990793D01*
X186391050Y-89892522D01*
X186314433Y-89815905D01*
X193025000Y-89815905D01*
X193025000Y-89934095D01*
X193048058Y-90050014D01*
X193093287Y-90159207D01*
X193158950Y-90257478D01*
X193242522Y-90341050D01*
X193340793Y-90406713D01*
X193449986Y-90451942D01*
X193565905Y-90475000D01*
X193684095Y-90475000D01*
X193800014Y-90451942D01*
X193909207Y-90406713D01*
X194007478Y-90341050D01*
X194091050Y-90257478D01*
X194156713Y-90159207D01*
X194201942Y-90050014D01*
X194225000Y-89934095D01*
X194225000Y-89815905D01*
X194201942Y-89699986D01*
X194156713Y-89590793D01*
X194091050Y-89492522D01*
X194007478Y-89408950D01*
X193909207Y-89343287D01*
X193800014Y-89298058D01*
X193684095Y-89275000D01*
X193565905Y-89275000D01*
X193449986Y-89298058D01*
X193340793Y-89343287D01*
X193242522Y-89408950D01*
X193158950Y-89492522D01*
X193093287Y-89590793D01*
X193048058Y-89699986D01*
X193025000Y-89815905D01*
X186314433Y-89815905D01*
X186307478Y-89808950D01*
X186209207Y-89743287D01*
X186100014Y-89698058D01*
X185984095Y-89675000D01*
X185865905Y-89675000D01*
X185749986Y-89698058D01*
X185640793Y-89743287D01*
X185542522Y-89808950D01*
X185458950Y-89892522D01*
X185393287Y-89990793D01*
X185348058Y-90099986D01*
X185325000Y-90215905D01*
X163280000Y-90215905D01*
X163280000Y-88126358D01*
X165243000Y-88126358D01*
X165243000Y-88303642D01*
X165277586Y-88477520D01*
X165345430Y-88641310D01*
X165443924Y-88788717D01*
X165569283Y-88914076D01*
X165716690Y-89012570D01*
X165880480Y-89080414D01*
X166054358Y-89115000D01*
X166231642Y-89115000D01*
X166405520Y-89080414D01*
X166569310Y-89012570D01*
X166716717Y-88914076D01*
X166842076Y-88788717D01*
X166940570Y-88641310D01*
X167008414Y-88477520D01*
X167043000Y-88303642D01*
X167043000Y-88126358D01*
X167030976Y-88065905D01*
X179925000Y-88065905D01*
X179925000Y-88184095D01*
X179948058Y-88300014D01*
X179993287Y-88409207D01*
X180058950Y-88507478D01*
X180142522Y-88591050D01*
X180240793Y-88656713D01*
X180349986Y-88701942D01*
X180465905Y-88725000D01*
X180584095Y-88725000D01*
X180629818Y-88715905D01*
X185075000Y-88715905D01*
X185075000Y-88834095D01*
X185098058Y-88950014D01*
X185143287Y-89059207D01*
X185208950Y-89157478D01*
X185292522Y-89241050D01*
X185390793Y-89306713D01*
X185499986Y-89351942D01*
X185615905Y-89375000D01*
X185734095Y-89375000D01*
X185850014Y-89351942D01*
X185959207Y-89306713D01*
X186057478Y-89241050D01*
X186141050Y-89157478D01*
X186206713Y-89059207D01*
X186251942Y-88950014D01*
X186275000Y-88834095D01*
X186275000Y-88715905D01*
X186251942Y-88599986D01*
X186206713Y-88490793D01*
X186141050Y-88392522D01*
X186057478Y-88308950D01*
X185959207Y-88243287D01*
X185850014Y-88198058D01*
X185734095Y-88175000D01*
X185615905Y-88175000D01*
X185499986Y-88198058D01*
X185390793Y-88243287D01*
X185292522Y-88308950D01*
X185208950Y-88392522D01*
X185143287Y-88490793D01*
X185098058Y-88599986D01*
X185075000Y-88715905D01*
X180629818Y-88715905D01*
X180700014Y-88701942D01*
X180809207Y-88656713D01*
X180907478Y-88591050D01*
X180991050Y-88507478D01*
X181056713Y-88409207D01*
X181101942Y-88300014D01*
X181125000Y-88184095D01*
X181125000Y-88065905D01*
X187325000Y-88065905D01*
X187325000Y-88184095D01*
X187348058Y-88300014D01*
X187393287Y-88409207D01*
X187458950Y-88507478D01*
X187542522Y-88591050D01*
X187640793Y-88656713D01*
X187749986Y-88701942D01*
X187865905Y-88725000D01*
X187984095Y-88725000D01*
X188100014Y-88701942D01*
X188209207Y-88656713D01*
X188307478Y-88591050D01*
X188391050Y-88507478D01*
X188456713Y-88409207D01*
X188501942Y-88300014D01*
X188525000Y-88184095D01*
X188525000Y-88065905D01*
X188501942Y-87949986D01*
X188456713Y-87840793D01*
X188391050Y-87742522D01*
X188307478Y-87658950D01*
X188209207Y-87593287D01*
X188100014Y-87548058D01*
X187984095Y-87525000D01*
X187865905Y-87525000D01*
X187749986Y-87548058D01*
X187640793Y-87593287D01*
X187542522Y-87658950D01*
X187458950Y-87742522D01*
X187393287Y-87840793D01*
X187348058Y-87949986D01*
X187325000Y-88065905D01*
X181125000Y-88065905D01*
X181101942Y-87949986D01*
X181056713Y-87840793D01*
X180991050Y-87742522D01*
X180907478Y-87658950D01*
X180809207Y-87593287D01*
X180700014Y-87548058D01*
X180584095Y-87525000D01*
X180465905Y-87525000D01*
X180349986Y-87548058D01*
X180240793Y-87593287D01*
X180142522Y-87658950D01*
X180058950Y-87742522D01*
X179993287Y-87840793D01*
X179948058Y-87949986D01*
X179925000Y-88065905D01*
X167030976Y-88065905D01*
X167008414Y-87952480D01*
X166940570Y-87788690D01*
X166842076Y-87641283D01*
X166716717Y-87515924D01*
X166569310Y-87417430D01*
X166405520Y-87349586D01*
X166231642Y-87315000D01*
X166054358Y-87315000D01*
X165880480Y-87349586D01*
X165716690Y-87417430D01*
X165569283Y-87515924D01*
X165443924Y-87641283D01*
X165345430Y-87788690D01*
X165277586Y-87952480D01*
X165243000Y-88126358D01*
X163280000Y-88126358D01*
X163280000Y-86615905D01*
X185025000Y-86615905D01*
X185025000Y-86734095D01*
X185048058Y-86850014D01*
X185093287Y-86959207D01*
X185158950Y-87057478D01*
X185242522Y-87141050D01*
X185340793Y-87206713D01*
X185449986Y-87251942D01*
X185565905Y-87275000D01*
X185684095Y-87275000D01*
X185800014Y-87251942D01*
X185909207Y-87206713D01*
X186007478Y-87141050D01*
X186091050Y-87057478D01*
X186156713Y-86959207D01*
X186201942Y-86850014D01*
X186208726Y-86815905D01*
X192575000Y-86815905D01*
X192575000Y-86934095D01*
X192598058Y-87050014D01*
X192643287Y-87159207D01*
X192708950Y-87257478D01*
X192792522Y-87341050D01*
X192843331Y-87375000D01*
X192792522Y-87408950D01*
X192708950Y-87492522D01*
X192643287Y-87590793D01*
X192598058Y-87699986D01*
X192575000Y-87815905D01*
X192575000Y-87934095D01*
X192598058Y-88050014D01*
X192643287Y-88159207D01*
X192708950Y-88257478D01*
X192792522Y-88341050D01*
X192890793Y-88406713D01*
X192999986Y-88451942D01*
X193115905Y-88475000D01*
X193234095Y-88475000D01*
X193350014Y-88451942D01*
X193459207Y-88406713D01*
X193557478Y-88341050D01*
X193641050Y-88257478D01*
X193706713Y-88159207D01*
X193751942Y-88050014D01*
X193775000Y-87934095D01*
X193775000Y-87815905D01*
X193751942Y-87699986D01*
X193706713Y-87590793D01*
X193641050Y-87492522D01*
X193557478Y-87408950D01*
X193506669Y-87375000D01*
X193557478Y-87341050D01*
X193641050Y-87257478D01*
X193706713Y-87159207D01*
X193751942Y-87050014D01*
X193775000Y-86934095D01*
X193775000Y-86815905D01*
X193751942Y-86699986D01*
X193706713Y-86590793D01*
X193641050Y-86492522D01*
X193557478Y-86408950D01*
X193459207Y-86343287D01*
X193350014Y-86298058D01*
X193234095Y-86275000D01*
X193115905Y-86275000D01*
X192999986Y-86298058D01*
X192890793Y-86343287D01*
X192792522Y-86408950D01*
X192708950Y-86492522D01*
X192643287Y-86590793D01*
X192598058Y-86699986D01*
X192575000Y-86815905D01*
X186208726Y-86815905D01*
X186225000Y-86734095D01*
X186225000Y-86615905D01*
X186201942Y-86499986D01*
X186156713Y-86390793D01*
X186091050Y-86292522D01*
X186007478Y-86208950D01*
X185909207Y-86143287D01*
X185800014Y-86098058D01*
X185684095Y-86075000D01*
X185565905Y-86075000D01*
X185449986Y-86098058D01*
X185340793Y-86143287D01*
X185242522Y-86208950D01*
X185158950Y-86292522D01*
X185093287Y-86390793D01*
X185048058Y-86499986D01*
X185025000Y-86615905D01*
X163280000Y-86615905D01*
X163280000Y-85601131D01*
X166225000Y-85601131D01*
X166225000Y-85748869D01*
X166253822Y-85893767D01*
X166310359Y-86030258D01*
X166392437Y-86153097D01*
X166496903Y-86257563D01*
X166619742Y-86339641D01*
X166756233Y-86396178D01*
X166901131Y-86425000D01*
X167048869Y-86425000D01*
X167193767Y-86396178D01*
X167330258Y-86339641D01*
X167453097Y-86257563D01*
X167557563Y-86153097D01*
X167639641Y-86030258D01*
X167696178Y-85893767D01*
X167725000Y-85748869D01*
X167725000Y-85601131D01*
X167696178Y-85456233D01*
X167639641Y-85319742D01*
X167557563Y-85196903D01*
X167453097Y-85092437D01*
X167330258Y-85010359D01*
X167193767Y-84953822D01*
X167048869Y-84925000D01*
X166901131Y-84925000D01*
X166756233Y-84953822D01*
X166619742Y-85010359D01*
X166496903Y-85092437D01*
X166392437Y-85196903D01*
X166310359Y-85319742D01*
X166253822Y-85456233D01*
X166225000Y-85601131D01*
X163280000Y-85601131D01*
X163280000Y-82415905D01*
X164875000Y-82415905D01*
X164875000Y-82534095D01*
X164898058Y-82650014D01*
X164943287Y-82759207D01*
X164995544Y-82837415D01*
X164993287Y-82840793D01*
X164948058Y-82949986D01*
X164925000Y-83065905D01*
X164925000Y-83184095D01*
X164948058Y-83300014D01*
X164993287Y-83409207D01*
X165058950Y-83507478D01*
X165142522Y-83591050D01*
X165240793Y-83656713D01*
X165349986Y-83701942D01*
X165465905Y-83725000D01*
X165584095Y-83725000D01*
X165700014Y-83701942D01*
X165809207Y-83656713D01*
X165907478Y-83591050D01*
X165991050Y-83507478D01*
X166056713Y-83409207D01*
X166101942Y-83300014D01*
X166125000Y-83184095D01*
X166125000Y-83065905D01*
X166101942Y-82949986D01*
X166056713Y-82840793D01*
X166004456Y-82762585D01*
X166006713Y-82759207D01*
X166051942Y-82650014D01*
X166071611Y-82551131D01*
X172775000Y-82551131D01*
X172775000Y-82698869D01*
X172803822Y-82843767D01*
X172860359Y-82980258D01*
X172942437Y-83103097D01*
X173046903Y-83207563D01*
X173097999Y-83241704D01*
X173096903Y-83242437D01*
X172992437Y-83346903D01*
X172910359Y-83469742D01*
X172853822Y-83606233D01*
X172825000Y-83751131D01*
X172825000Y-83898869D01*
X172853822Y-84043767D01*
X172910359Y-84180258D01*
X172992437Y-84303097D01*
X173089340Y-84400000D01*
X172992437Y-84496903D01*
X172910359Y-84619742D01*
X172853822Y-84756233D01*
X172825000Y-84901131D01*
X172825000Y-85048869D01*
X172853822Y-85193767D01*
X172910359Y-85330258D01*
X172992437Y-85453097D01*
X173096903Y-85557563D01*
X173219742Y-85639641D01*
X173356233Y-85696178D01*
X173501131Y-85725000D01*
X173648869Y-85725000D01*
X173768866Y-85701131D01*
X174575000Y-85701131D01*
X174575000Y-85848869D01*
X174603822Y-85993767D01*
X174660359Y-86130258D01*
X174742437Y-86253097D01*
X174846903Y-86357563D01*
X174969742Y-86439641D01*
X175106233Y-86496178D01*
X175251131Y-86525000D01*
X175398869Y-86525000D01*
X175543767Y-86496178D01*
X175680258Y-86439641D01*
X175803097Y-86357563D01*
X175907563Y-86253097D01*
X175989641Y-86130258D01*
X176046178Y-85993767D01*
X176075000Y-85848869D01*
X176075000Y-85815905D01*
X178925000Y-85815905D01*
X178925000Y-85934095D01*
X178948058Y-86050014D01*
X178993287Y-86159207D01*
X179058950Y-86257478D01*
X179142522Y-86341050D01*
X179240793Y-86406713D01*
X179349986Y-86451942D01*
X179465905Y-86475000D01*
X179584095Y-86475000D01*
X179700014Y-86451942D01*
X179809207Y-86406713D01*
X179907478Y-86341050D01*
X179991050Y-86257478D01*
X180025000Y-86206669D01*
X180058950Y-86257478D01*
X180142522Y-86341050D01*
X180240793Y-86406713D01*
X180349986Y-86451942D01*
X180465905Y-86475000D01*
X180584095Y-86475000D01*
X180700014Y-86451942D01*
X180809207Y-86406713D01*
X180907478Y-86341050D01*
X180991050Y-86257478D01*
X181056713Y-86159207D01*
X181101942Y-86050014D01*
X181125000Y-85934095D01*
X181125000Y-85815905D01*
X181101942Y-85699986D01*
X181056713Y-85590793D01*
X180991050Y-85492522D01*
X180907478Y-85408950D01*
X180809207Y-85343287D01*
X180700014Y-85298058D01*
X180584095Y-85275000D01*
X180465905Y-85275000D01*
X180349986Y-85298058D01*
X180240793Y-85343287D01*
X180142522Y-85408950D01*
X180058950Y-85492522D01*
X180025000Y-85543331D01*
X179991050Y-85492522D01*
X179907478Y-85408950D01*
X179809207Y-85343287D01*
X179700014Y-85298058D01*
X179584095Y-85275000D01*
X179465905Y-85275000D01*
X179349986Y-85298058D01*
X179240793Y-85343287D01*
X179142522Y-85408950D01*
X179058950Y-85492522D01*
X178993287Y-85590793D01*
X178948058Y-85699986D01*
X178925000Y-85815905D01*
X176075000Y-85815905D01*
X176075000Y-85701131D01*
X176046178Y-85556233D01*
X175989641Y-85419742D01*
X175907563Y-85296903D01*
X175803097Y-85192437D01*
X175680258Y-85110359D01*
X175543767Y-85053822D01*
X175398869Y-85025000D01*
X175251131Y-85025000D01*
X175106233Y-85053822D01*
X174969742Y-85110359D01*
X174846903Y-85192437D01*
X174742437Y-85296903D01*
X174660359Y-85419742D01*
X174603822Y-85556233D01*
X174575000Y-85701131D01*
X173768866Y-85701131D01*
X173793767Y-85696178D01*
X173930258Y-85639641D01*
X174053097Y-85557563D01*
X174157563Y-85453097D01*
X174239641Y-85330258D01*
X174296178Y-85193767D01*
X174325000Y-85048869D01*
X174325000Y-84901131D01*
X174296178Y-84756233D01*
X174239641Y-84619742D01*
X174157563Y-84496903D01*
X174060660Y-84400000D01*
X174157563Y-84303097D01*
X174239641Y-84180258D01*
X174296178Y-84043767D01*
X174325000Y-83898869D01*
X174325000Y-83751131D01*
X174296178Y-83606233D01*
X174239641Y-83469742D01*
X174157563Y-83346903D01*
X174053097Y-83242437D01*
X174002001Y-83208296D01*
X174003097Y-83207563D01*
X174107563Y-83103097D01*
X174189641Y-82980258D01*
X174246178Y-82843767D01*
X174275000Y-82698869D01*
X174275000Y-82551131D01*
X174246178Y-82406233D01*
X174189641Y-82269742D01*
X174107563Y-82146903D01*
X174003097Y-82042437D01*
X173880258Y-81960359D01*
X173743767Y-81903822D01*
X173598869Y-81875000D01*
X173451131Y-81875000D01*
X173306233Y-81903822D01*
X173169742Y-81960359D01*
X173046903Y-82042437D01*
X172942437Y-82146903D01*
X172860359Y-82269742D01*
X172803822Y-82406233D01*
X172775000Y-82551131D01*
X166071611Y-82551131D01*
X166075000Y-82534095D01*
X166075000Y-82415905D01*
X166051942Y-82299986D01*
X166006713Y-82190793D01*
X165941050Y-82092522D01*
X165857478Y-82008950D01*
X165759207Y-81943287D01*
X165650014Y-81898058D01*
X165534095Y-81875000D01*
X165415905Y-81875000D01*
X165299986Y-81898058D01*
X165190793Y-81943287D01*
X165092522Y-82008950D01*
X165008950Y-82092522D01*
X164943287Y-82190793D01*
X164898058Y-82299986D01*
X164875000Y-82415905D01*
X163280000Y-82415905D01*
X163280000Y-80154458D01*
X163331914Y-79625000D01*
X166023065Y-79625000D01*
X166023065Y-80625000D01*
X166030788Y-80703414D01*
X166053660Y-80778814D01*
X166090803Y-80848303D01*
X166140789Y-80909211D01*
X166201697Y-80959197D01*
X166271186Y-80996340D01*
X166346586Y-81019212D01*
X166425000Y-81026935D01*
X167425000Y-81026935D01*
X167503414Y-81019212D01*
X167578814Y-80996340D01*
X167648303Y-80959197D01*
X167709211Y-80909211D01*
X167716112Y-80900802D01*
X167748690Y-80922570D01*
X167912480Y-80990414D01*
X168086358Y-81025000D01*
X168263642Y-81025000D01*
X168437520Y-80990414D01*
X168601310Y-80922570D01*
X168748717Y-80824076D01*
X168874076Y-80698717D01*
X168972570Y-80551310D01*
X169040414Y-80387520D01*
X169075000Y-80213642D01*
X169075000Y-80036358D01*
X169040414Y-79862480D01*
X168972570Y-79698690D01*
X168956741Y-79675000D01*
X171823065Y-79675000D01*
X171823065Y-80675000D01*
X171830788Y-80753414D01*
X171853660Y-80828814D01*
X171890803Y-80898303D01*
X171940789Y-80959211D01*
X172001697Y-81009197D01*
X172071186Y-81046340D01*
X172146586Y-81069212D01*
X172225000Y-81076935D01*
X173225000Y-81076935D01*
X173303414Y-81069212D01*
X173378814Y-81046340D01*
X173448303Y-81009197D01*
X173509211Y-80959211D01*
X173516112Y-80950802D01*
X173548690Y-80972570D01*
X173712480Y-81040414D01*
X173886358Y-81075000D01*
X174063642Y-81075000D01*
X174237520Y-81040414D01*
X174401310Y-80972570D01*
X174548717Y-80874076D01*
X174674076Y-80748717D01*
X174772570Y-80601310D01*
X174840414Y-80437520D01*
X174875000Y-80263642D01*
X174875000Y-80086358D01*
X174840414Y-79912480D01*
X174772570Y-79748690D01*
X174674076Y-79601283D01*
X174637187Y-79564394D01*
X182632000Y-79564394D01*
X182632000Y-79785606D01*
X182675156Y-80002567D01*
X182759810Y-80206940D01*
X182882709Y-80390871D01*
X183039129Y-80547291D01*
X183223060Y-80670190D01*
X183427433Y-80754844D01*
X183644394Y-80798000D01*
X183865606Y-80798000D01*
X184082567Y-80754844D01*
X184286940Y-80670190D01*
X184470871Y-80547291D01*
X184627291Y-80390871D01*
X184750190Y-80206940D01*
X184834844Y-80002567D01*
X184878000Y-79785606D01*
X184878000Y-79564394D01*
X190087000Y-79564394D01*
X190087000Y-79785606D01*
X190130156Y-80002567D01*
X190214810Y-80206940D01*
X190337709Y-80390871D01*
X190494129Y-80547291D01*
X190678060Y-80670190D01*
X190882433Y-80754844D01*
X191099394Y-80798000D01*
X191320606Y-80798000D01*
X191537567Y-80754844D01*
X191741940Y-80670190D01*
X191925871Y-80547291D01*
X192082291Y-80390871D01*
X192205190Y-80206940D01*
X192289844Y-80002567D01*
X192333000Y-79785606D01*
X192333000Y-79564394D01*
X192289844Y-79347433D01*
X192205190Y-79143060D01*
X192082291Y-78959129D01*
X191925871Y-78802709D01*
X191741940Y-78679810D01*
X191537567Y-78595156D01*
X191320606Y-78552000D01*
X191099394Y-78552000D01*
X190882433Y-78595156D01*
X190678060Y-78679810D01*
X190494129Y-78802709D01*
X190337709Y-78959129D01*
X190214810Y-79143060D01*
X190130156Y-79347433D01*
X190087000Y-79564394D01*
X184878000Y-79564394D01*
X184834844Y-79347433D01*
X184750190Y-79143060D01*
X184627291Y-78959129D01*
X184470871Y-78802709D01*
X184286940Y-78679810D01*
X184082567Y-78595156D01*
X183865606Y-78552000D01*
X183644394Y-78552000D01*
X183427433Y-78595156D01*
X183223060Y-78679810D01*
X183039129Y-78802709D01*
X182882709Y-78959129D01*
X182759810Y-79143060D01*
X182675156Y-79347433D01*
X182632000Y-79564394D01*
X174637187Y-79564394D01*
X174548717Y-79475924D01*
X174401310Y-79377430D01*
X174237520Y-79309586D01*
X174063642Y-79275000D01*
X173886358Y-79275000D01*
X173712480Y-79309586D01*
X173548690Y-79377430D01*
X173516112Y-79399198D01*
X173509211Y-79390789D01*
X173448303Y-79340803D01*
X173378814Y-79303660D01*
X173303414Y-79280788D01*
X173225000Y-79273065D01*
X172225000Y-79273065D01*
X172146586Y-79280788D01*
X172071186Y-79303660D01*
X172001697Y-79340803D01*
X171940789Y-79390789D01*
X171890803Y-79451697D01*
X171853660Y-79521186D01*
X171830788Y-79596586D01*
X171823065Y-79675000D01*
X168956741Y-79675000D01*
X168874076Y-79551283D01*
X168748717Y-79425924D01*
X168601310Y-79327430D01*
X168437520Y-79259586D01*
X168263642Y-79225000D01*
X168086358Y-79225000D01*
X167912480Y-79259586D01*
X167748690Y-79327430D01*
X167716112Y-79349198D01*
X167709211Y-79340789D01*
X167648303Y-79290803D01*
X167578814Y-79253660D01*
X167503414Y-79230788D01*
X167425000Y-79223065D01*
X166425000Y-79223065D01*
X166346586Y-79230788D01*
X166271186Y-79253660D01*
X166201697Y-79290803D01*
X166140789Y-79340789D01*
X166090803Y-79401697D01*
X166053660Y-79471186D01*
X166030788Y-79546586D01*
X166023065Y-79625000D01*
X163331914Y-79625000D01*
X163333393Y-79609918D01*
X163484434Y-79109644D01*
X163729767Y-78648238D01*
X164041590Y-78265905D01*
X177125000Y-78265905D01*
X177125000Y-78384095D01*
X177148058Y-78500014D01*
X177193287Y-78609207D01*
X177258950Y-78707478D01*
X177342522Y-78791050D01*
X177440793Y-78856713D01*
X177549986Y-78901942D01*
X177665905Y-78925000D01*
X177784095Y-78925000D01*
X177900014Y-78901942D01*
X178009207Y-78856713D01*
X178107478Y-78791050D01*
X178191050Y-78707478D01*
X178256713Y-78609207D01*
X178301942Y-78500014D01*
X178325000Y-78384095D01*
X178325000Y-78265905D01*
X178301942Y-78149986D01*
X178256713Y-78040793D01*
X178191050Y-77942522D01*
X178107478Y-77858950D01*
X178009207Y-77793287D01*
X177900014Y-77748058D01*
X177784095Y-77725000D01*
X177665905Y-77725000D01*
X177549986Y-77748058D01*
X177440793Y-77793287D01*
X177342522Y-77858950D01*
X177258950Y-77942522D01*
X177193287Y-78040793D01*
X177148058Y-78149986D01*
X177125000Y-78265905D01*
X164041590Y-78265905D01*
X164060053Y-78243268D01*
X164462702Y-77910169D01*
X164922389Y-77661616D01*
X165421590Y-77507088D01*
X165964738Y-77450000D01*
X192575542Y-77450000D01*
X193120082Y-77503393D01*
G37*
G04 #@! TD.AperFunction*
M02*
