G04 #@! TF.GenerationSoftware,KiCad,Pcbnew,(5.1.12)-1*
G04 #@! TF.CreationDate,2026-04-14T09:03:33-06:00*
G04 #@! TF.ProjectId,Mux_SDI_BJT,4d75785f-5344-4495-9f42-4a542e6b6963,2.10*
G04 #@! TF.SameCoordinates,Original*
G04 #@! TF.FileFunction,Paste,Top*
G04 #@! TF.FilePolarity,Positive*
%FSLAX46Y46*%
G04 Gerber Fmt 4.6, Leading zero omitted, Abs format (unit mm)*
G04 Created by KiCad (PCBNEW (5.1.12)-1) date 2026-04-14 09:03:33*
%MOMM*%
%LPD*%
G01*
G04 APERTURE LIST*
%ADD10R,1.200000X1.200000*%
%ADD11R,1.600000X1.500000*%
%ADD12R,0.850000X2.650000*%
%ADD13R,0.850000X3.550000*%
%ADD14R,2.700000X2.700000*%
%ADD15R,0.850000X0.300000*%
%ADD16R,0.300000X0.850000*%
%ADD17R,0.850000X0.350000*%
%ADD18R,0.350000X0.850000*%
%ADD19R,0.950000X0.400000*%
%ADD20R,2.590800X2.590800*%
%ADD21R,0.609600X0.304800*%
%ADD22R,0.304800X0.609600*%
%ADD23R,0.914400X0.508000*%
%ADD24R,2.209800X2.997200*%
G04 APERTURE END LIST*
G36*
G01*
X172975000Y-87075001D02*
X172975000Y-82374999D01*
G75*
G02*
X173224999Y-82125000I249999J0D01*
G01*
X173875001Y-82125000D01*
G75*
G02*
X174125000Y-82374999I0J-249999D01*
G01*
X174125000Y-87075001D01*
G75*
G02*
X173875001Y-87325000I-249999J0D01*
G01*
X173224999Y-87325000D01*
G75*
G02*
X172975000Y-87075001I0J249999D01*
G01*
G37*
G36*
G01*
X170725000Y-87075001D02*
X170725000Y-82374999D01*
G75*
G02*
X170974999Y-82125000I249999J0D01*
G01*
X171625001Y-82125000D01*
G75*
G02*
X171875000Y-82374999I0J-249999D01*
G01*
X171875000Y-87075001D01*
G75*
G02*
X171625001Y-87325000I-249999J0D01*
G01*
X170974999Y-87325000D01*
G75*
G02*
X170725000Y-87075001I0J249999D01*
G01*
G37*
D10*
X176725000Y-80550000D03*
D11*
X177725000Y-83800000D03*
D10*
X178725000Y-80550000D03*
X194625000Y-93200000D03*
D11*
X193625000Y-89950000D03*
D10*
X192625000Y-93200000D03*
G36*
G01*
X180925000Y-104455000D02*
X180925000Y-104795000D01*
G75*
G02*
X180785000Y-104935000I-140000J0D01*
G01*
X180505000Y-104935000D01*
G75*
G02*
X180365000Y-104795000I0J140000D01*
G01*
X180365000Y-104455000D01*
G75*
G02*
X180505000Y-104315000I140000J0D01*
G01*
X180785000Y-104315000D01*
G75*
G02*
X180925000Y-104455000I0J-140000D01*
G01*
G37*
G36*
G01*
X181885000Y-104455000D02*
X181885000Y-104795000D01*
G75*
G02*
X181745000Y-104935000I-140000J0D01*
G01*
X181465000Y-104935000D01*
G75*
G02*
X181325000Y-104795000I0J140000D01*
G01*
X181325000Y-104455000D01*
G75*
G02*
X181465000Y-104315000I140000J0D01*
G01*
X181745000Y-104315000D01*
G75*
G02*
X181885000Y-104455000I0J-140000D01*
G01*
G37*
G36*
G01*
X177840000Y-103065000D02*
X178210000Y-103065000D01*
G75*
G02*
X178345000Y-103200000I0J-135000D01*
G01*
X178345000Y-103470000D01*
G75*
G02*
X178210000Y-103605000I-135000J0D01*
G01*
X177840000Y-103605000D01*
G75*
G02*
X177705000Y-103470000I0J135000D01*
G01*
X177705000Y-103200000D01*
G75*
G02*
X177840000Y-103065000I135000J0D01*
G01*
G37*
G36*
G01*
X177840000Y-102045000D02*
X178210000Y-102045000D01*
G75*
G02*
X178345000Y-102180000I0J-135000D01*
G01*
X178345000Y-102450000D01*
G75*
G02*
X178210000Y-102585000I-135000J0D01*
G01*
X177840000Y-102585000D01*
G75*
G02*
X177705000Y-102450000I0J135000D01*
G01*
X177705000Y-102180000D01*
G75*
G02*
X177840000Y-102045000I135000J0D01*
G01*
G37*
G36*
G01*
X176985000Y-78140000D02*
X176985000Y-78510000D01*
G75*
G02*
X176850000Y-78645000I-135000J0D01*
G01*
X176580000Y-78645000D01*
G75*
G02*
X176445000Y-78510000I0J135000D01*
G01*
X176445000Y-78140000D01*
G75*
G02*
X176580000Y-78005000I135000J0D01*
G01*
X176850000Y-78005000D01*
G75*
G02*
X176985000Y-78140000I0J-135000D01*
G01*
G37*
G36*
G01*
X178005000Y-78140000D02*
X178005000Y-78510000D01*
G75*
G02*
X177870000Y-78645000I-135000J0D01*
G01*
X177600000Y-78645000D01*
G75*
G02*
X177465000Y-78510000I0J135000D01*
G01*
X177465000Y-78140000D01*
G75*
G02*
X177600000Y-78005000I135000J0D01*
G01*
X177870000Y-78005000D01*
G75*
G02*
X178005000Y-78140000I0J-135000D01*
G01*
G37*
G36*
G01*
X194810000Y-95685000D02*
X194440000Y-95685000D01*
G75*
G02*
X194305000Y-95550000I0J135000D01*
G01*
X194305000Y-95280000D01*
G75*
G02*
X194440000Y-95145000I135000J0D01*
G01*
X194810000Y-95145000D01*
G75*
G02*
X194945000Y-95280000I0J-135000D01*
G01*
X194945000Y-95550000D01*
G75*
G02*
X194810000Y-95685000I-135000J0D01*
G01*
G37*
G36*
G01*
X194810000Y-96705000D02*
X194440000Y-96705000D01*
G75*
G02*
X194305000Y-96570000I0J135000D01*
G01*
X194305000Y-96300000D01*
G75*
G02*
X194440000Y-96165000I135000J0D01*
G01*
X194810000Y-96165000D01*
G75*
G02*
X194945000Y-96300000I0J-135000D01*
G01*
X194945000Y-96570000D01*
G75*
G02*
X194810000Y-96705000I-135000J0D01*
G01*
G37*
G36*
G01*
X187225000Y-104545000D02*
X187225000Y-104205000D01*
G75*
G02*
X187365000Y-104065000I140000J0D01*
G01*
X187645000Y-104065000D01*
G75*
G02*
X187785000Y-104205000I0J-140000D01*
G01*
X187785000Y-104545000D01*
G75*
G02*
X187645000Y-104685000I-140000J0D01*
G01*
X187365000Y-104685000D01*
G75*
G02*
X187225000Y-104545000I0J140000D01*
G01*
G37*
G36*
G01*
X186265000Y-104545000D02*
X186265000Y-104205000D01*
G75*
G02*
X186405000Y-104065000I140000J0D01*
G01*
X186685000Y-104065000D01*
G75*
G02*
X186825000Y-104205000I0J-140000D01*
G01*
X186825000Y-104545000D01*
G75*
G02*
X186685000Y-104685000I-140000J0D01*
G01*
X186405000Y-104685000D01*
G75*
G02*
X186265000Y-104545000I0J140000D01*
G01*
G37*
G36*
G01*
X169200000Y-84400000D02*
X169750000Y-84400000D01*
G75*
G02*
X169950000Y-84600000I0J-200000D01*
G01*
X169950000Y-85000000D01*
G75*
G02*
X169750000Y-85200000I-200000J0D01*
G01*
X169200000Y-85200000D01*
G75*
G02*
X169000000Y-85000000I0J200000D01*
G01*
X169000000Y-84600000D01*
G75*
G02*
X169200000Y-84400000I200000J0D01*
G01*
G37*
G36*
G01*
X169200000Y-82750000D02*
X169750000Y-82750000D01*
G75*
G02*
X169950000Y-82950000I0J-200000D01*
G01*
X169950000Y-83350000D01*
G75*
G02*
X169750000Y-83550000I-200000J0D01*
G01*
X169200000Y-83550000D01*
G75*
G02*
X169000000Y-83350000I0J200000D01*
G01*
X169000000Y-82950000D01*
G75*
G02*
X169200000Y-82750000I200000J0D01*
G01*
G37*
D12*
X167755000Y-104239000D03*
X166255000Y-104239000D03*
X164755000Y-104239000D03*
D13*
X167755000Y-100339000D03*
X166255000Y-100339000D03*
X164755000Y-100339000D03*
X171655000Y-100339000D03*
X173155000Y-100339000D03*
X174655000Y-100339000D03*
D12*
X171655000Y-104239000D03*
X173155000Y-104239000D03*
X174655000Y-104239000D03*
G36*
G01*
X180160000Y-102585000D02*
X179790000Y-102585000D01*
G75*
G02*
X179655000Y-102450000I0J135000D01*
G01*
X179655000Y-102180000D01*
G75*
G02*
X179790000Y-102045000I135000J0D01*
G01*
X180160000Y-102045000D01*
G75*
G02*
X180295000Y-102180000I0J-135000D01*
G01*
X180295000Y-102450000D01*
G75*
G02*
X180160000Y-102585000I-135000J0D01*
G01*
G37*
G36*
G01*
X180160000Y-103605000D02*
X179790000Y-103605000D01*
G75*
G02*
X179655000Y-103470000I0J135000D01*
G01*
X179655000Y-103200000D01*
G75*
G02*
X179790000Y-103065000I135000J0D01*
G01*
X180160000Y-103065000D01*
G75*
G02*
X180295000Y-103200000I0J-135000D01*
G01*
X180295000Y-103470000D01*
G75*
G02*
X180160000Y-103605000I-135000J0D01*
G01*
G37*
G36*
G01*
X175950000Y-87050000D02*
X176500000Y-87050000D01*
G75*
G02*
X176700000Y-87250000I0J-200000D01*
G01*
X176700000Y-87650000D01*
G75*
G02*
X176500000Y-87850000I-200000J0D01*
G01*
X175950000Y-87850000D01*
G75*
G02*
X175750000Y-87650000I0J200000D01*
G01*
X175750000Y-87250000D01*
G75*
G02*
X175950000Y-87050000I200000J0D01*
G01*
G37*
G36*
G01*
X175950000Y-85400000D02*
X176500000Y-85400000D01*
G75*
G02*
X176700000Y-85600000I0J-200000D01*
G01*
X176700000Y-86000000D01*
G75*
G02*
X176500000Y-86200000I-200000J0D01*
G01*
X175950000Y-86200000D01*
G75*
G02*
X175750000Y-86000000I0J200000D01*
G01*
X175750000Y-85600000D01*
G75*
G02*
X175950000Y-85400000I200000J0D01*
G01*
G37*
G36*
G01*
X184255250Y-110683000D02*
X183742750Y-110683000D01*
G75*
G02*
X183524000Y-110464250I0J218750D01*
G01*
X183524000Y-110026750D01*
G75*
G02*
X183742750Y-109808000I218750J0D01*
G01*
X184255250Y-109808000D01*
G75*
G02*
X184474000Y-110026750I0J-218750D01*
G01*
X184474000Y-110464250D01*
G75*
G02*
X184255250Y-110683000I-218750J0D01*
G01*
G37*
G36*
G01*
X184255250Y-112258000D02*
X183742750Y-112258000D01*
G75*
G02*
X183524000Y-112039250I0J218750D01*
G01*
X183524000Y-111601750D01*
G75*
G02*
X183742750Y-111383000I218750J0D01*
G01*
X184255250Y-111383000D01*
G75*
G02*
X184474000Y-111601750I0J-218750D01*
G01*
X184474000Y-112039250D01*
G75*
G02*
X184255250Y-112258000I-218750J0D01*
G01*
G37*
G36*
G01*
X186149250Y-110683000D02*
X185636750Y-110683000D01*
G75*
G02*
X185418000Y-110464250I0J218750D01*
G01*
X185418000Y-110026750D01*
G75*
G02*
X185636750Y-109808000I218750J0D01*
G01*
X186149250Y-109808000D01*
G75*
G02*
X186368000Y-110026750I0J-218750D01*
G01*
X186368000Y-110464250D01*
G75*
G02*
X186149250Y-110683000I-218750J0D01*
G01*
G37*
G36*
G01*
X186149250Y-112258000D02*
X185636750Y-112258000D01*
G75*
G02*
X185418000Y-112039250I0J218750D01*
G01*
X185418000Y-111601750D01*
G75*
G02*
X185636750Y-111383000I218750J0D01*
G01*
X186149250Y-111383000D01*
G75*
G02*
X186368000Y-111601750I0J-218750D01*
G01*
X186368000Y-112039250D01*
G75*
G02*
X186149250Y-112258000I-218750J0D01*
G01*
G37*
G36*
G01*
X182381250Y-110675000D02*
X181868750Y-110675000D01*
G75*
G02*
X181650000Y-110456250I0J218750D01*
G01*
X181650000Y-110018750D01*
G75*
G02*
X181868750Y-109800000I218750J0D01*
G01*
X182381250Y-109800000D01*
G75*
G02*
X182600000Y-110018750I0J-218750D01*
G01*
X182600000Y-110456250D01*
G75*
G02*
X182381250Y-110675000I-218750J0D01*
G01*
G37*
G36*
G01*
X182381250Y-112250000D02*
X181868750Y-112250000D01*
G75*
G02*
X181650000Y-112031250I0J218750D01*
G01*
X181650000Y-111593750D01*
G75*
G02*
X181868750Y-111375000I218750J0D01*
G01*
X182381250Y-111375000D01*
G75*
G02*
X182600000Y-111593750I0J-218750D01*
G01*
X182600000Y-112031250D01*
G75*
G02*
X182381250Y-112250000I-218750J0D01*
G01*
G37*
G36*
G01*
X184940000Y-102515000D02*
X185310000Y-102515000D01*
G75*
G02*
X185445000Y-102650000I0J-135000D01*
G01*
X185445000Y-102920000D01*
G75*
G02*
X185310000Y-103055000I-135000J0D01*
G01*
X184940000Y-103055000D01*
G75*
G02*
X184805000Y-102920000I0J135000D01*
G01*
X184805000Y-102650000D01*
G75*
G02*
X184940000Y-102515000I135000J0D01*
G01*
G37*
G36*
G01*
X184940000Y-101495000D02*
X185310000Y-101495000D01*
G75*
G02*
X185445000Y-101630000I0J-135000D01*
G01*
X185445000Y-101900000D01*
G75*
G02*
X185310000Y-102035000I-135000J0D01*
G01*
X184940000Y-102035000D01*
G75*
G02*
X184805000Y-101900000I0J135000D01*
G01*
X184805000Y-101630000D01*
G75*
G02*
X184940000Y-101495000I135000J0D01*
G01*
G37*
G36*
G01*
X185990000Y-102515000D02*
X186360000Y-102515000D01*
G75*
G02*
X186495000Y-102650000I0J-135000D01*
G01*
X186495000Y-102920000D01*
G75*
G02*
X186360000Y-103055000I-135000J0D01*
G01*
X185990000Y-103055000D01*
G75*
G02*
X185855000Y-102920000I0J135000D01*
G01*
X185855000Y-102650000D01*
G75*
G02*
X185990000Y-102515000I135000J0D01*
G01*
G37*
G36*
G01*
X185990000Y-101495000D02*
X186360000Y-101495000D01*
G75*
G02*
X186495000Y-101630000I0J-135000D01*
G01*
X186495000Y-101900000D01*
G75*
G02*
X186360000Y-102035000I-135000J0D01*
G01*
X185990000Y-102035000D01*
G75*
G02*
X185855000Y-101900000I0J135000D01*
G01*
X185855000Y-101630000D01*
G75*
G02*
X185990000Y-101495000I135000J0D01*
G01*
G37*
G36*
G01*
X185955000Y-88605000D02*
X185955000Y-88945000D01*
G75*
G02*
X185815000Y-89085000I-140000J0D01*
G01*
X185535000Y-89085000D01*
G75*
G02*
X185395000Y-88945000I0J140000D01*
G01*
X185395000Y-88605000D01*
G75*
G02*
X185535000Y-88465000I140000J0D01*
G01*
X185815000Y-88465000D01*
G75*
G02*
X185955000Y-88605000I0J-140000D01*
G01*
G37*
G36*
G01*
X186915000Y-88605000D02*
X186915000Y-88945000D01*
G75*
G02*
X186775000Y-89085000I-140000J0D01*
G01*
X186495000Y-89085000D01*
G75*
G02*
X186355000Y-88945000I0J140000D01*
G01*
X186355000Y-88605000D01*
G75*
G02*
X186495000Y-88465000I140000J0D01*
G01*
X186775000Y-88465000D01*
G75*
G02*
X186915000Y-88605000I0J-140000D01*
G01*
G37*
G36*
G01*
X185825000Y-86975000D02*
X185485000Y-86975000D01*
G75*
G02*
X185345000Y-86835000I0J140000D01*
G01*
X185345000Y-86555000D01*
G75*
G02*
X185485000Y-86415000I140000J0D01*
G01*
X185825000Y-86415000D01*
G75*
G02*
X185965000Y-86555000I0J-140000D01*
G01*
X185965000Y-86835000D01*
G75*
G02*
X185825000Y-86975000I-140000J0D01*
G01*
G37*
G36*
G01*
X185825000Y-87935000D02*
X185485000Y-87935000D01*
G75*
G02*
X185345000Y-87795000I0J140000D01*
G01*
X185345000Y-87515000D01*
G75*
G02*
X185485000Y-87375000I140000J0D01*
G01*
X185825000Y-87375000D01*
G75*
G02*
X185965000Y-87515000I0J-140000D01*
G01*
X185965000Y-87795000D01*
G75*
G02*
X185825000Y-87935000I-140000J0D01*
G01*
G37*
G36*
G01*
X193845000Y-88045000D02*
X193845000Y-87705000D01*
G75*
G02*
X193985000Y-87565000I140000J0D01*
G01*
X194265000Y-87565000D01*
G75*
G02*
X194405000Y-87705000I0J-140000D01*
G01*
X194405000Y-88045000D01*
G75*
G02*
X194265000Y-88185000I-140000J0D01*
G01*
X193985000Y-88185000D01*
G75*
G02*
X193845000Y-88045000I0J140000D01*
G01*
G37*
G36*
G01*
X192885000Y-88045000D02*
X192885000Y-87705000D01*
G75*
G02*
X193025000Y-87565000I140000J0D01*
G01*
X193305000Y-87565000D01*
G75*
G02*
X193445000Y-87705000I0J-140000D01*
G01*
X193445000Y-88045000D01*
G75*
G02*
X193305000Y-88185000I-140000J0D01*
G01*
X193025000Y-88185000D01*
G75*
G02*
X192885000Y-88045000I0J140000D01*
G01*
G37*
G36*
G01*
X193855000Y-87045000D02*
X193855000Y-86705000D01*
G75*
G02*
X193995000Y-86565000I140000J0D01*
G01*
X194275000Y-86565000D01*
G75*
G02*
X194415000Y-86705000I0J-140000D01*
G01*
X194415000Y-87045000D01*
G75*
G02*
X194275000Y-87185000I-140000J0D01*
G01*
X193995000Y-87185000D01*
G75*
G02*
X193855000Y-87045000I0J140000D01*
G01*
G37*
G36*
G01*
X192895000Y-87045000D02*
X192895000Y-86705000D01*
G75*
G02*
X193035000Y-86565000I140000J0D01*
G01*
X193315000Y-86565000D01*
G75*
G02*
X193455000Y-86705000I0J-140000D01*
G01*
X193455000Y-87045000D01*
G75*
G02*
X193315000Y-87185000I-140000J0D01*
G01*
X193035000Y-87185000D01*
G75*
G02*
X192895000Y-87045000I0J140000D01*
G01*
G37*
G36*
G01*
X186825000Y-86975000D02*
X186485000Y-86975000D01*
G75*
G02*
X186345000Y-86835000I0J140000D01*
G01*
X186345000Y-86555000D01*
G75*
G02*
X186485000Y-86415000I140000J0D01*
G01*
X186825000Y-86415000D01*
G75*
G02*
X186965000Y-86555000I0J-140000D01*
G01*
X186965000Y-86835000D01*
G75*
G02*
X186825000Y-86975000I-140000J0D01*
G01*
G37*
G36*
G01*
X186825000Y-87935000D02*
X186485000Y-87935000D01*
G75*
G02*
X186345000Y-87795000I0J140000D01*
G01*
X186345000Y-87515000D01*
G75*
G02*
X186485000Y-87375000I140000J0D01*
G01*
X186825000Y-87375000D01*
G75*
G02*
X186965000Y-87515000I0J-140000D01*
G01*
X186965000Y-87795000D01*
G75*
G02*
X186825000Y-87935000I-140000J0D01*
G01*
G37*
D14*
X182555000Y-94675000D03*
D15*
X184505000Y-93925000D03*
X184505000Y-94425000D03*
X184505000Y-94925000D03*
X184505000Y-95425000D03*
D16*
X183305000Y-96625000D03*
X182805000Y-96625000D03*
X182305000Y-96625000D03*
X181805000Y-96625000D03*
D15*
X180605000Y-95425000D03*
X180605000Y-94925000D03*
X180605000Y-94425000D03*
X180605000Y-93925000D03*
D16*
X181805000Y-92725000D03*
X182305000Y-92725000D03*
X182805000Y-92725000D03*
X183305000Y-92725000D03*
D14*
X189915000Y-87805000D03*
D17*
X191865000Y-86830000D03*
X191865000Y-87480000D03*
X191865000Y-88130000D03*
X191865000Y-88780000D03*
D18*
X190890000Y-89755000D03*
X190240000Y-89755000D03*
X189590000Y-89755000D03*
X188940000Y-89755000D03*
D17*
X187965000Y-88780000D03*
X187965000Y-88130000D03*
X187965000Y-87480000D03*
X187965000Y-86830000D03*
D18*
X188940000Y-85855000D03*
X189590000Y-85855000D03*
X190240000Y-85855000D03*
X190890000Y-85855000D03*
D19*
X165531000Y-83785000D03*
X165531000Y-83135000D03*
X165531000Y-82485000D03*
X167731000Y-82485000D03*
X167731000Y-83135000D03*
X167731000Y-83785000D03*
G36*
G01*
X190170000Y-106115000D02*
X190540000Y-106115000D01*
G75*
G02*
X190675000Y-106250000I0J-135000D01*
G01*
X190675000Y-106520000D01*
G75*
G02*
X190540000Y-106655000I-135000J0D01*
G01*
X190170000Y-106655000D01*
G75*
G02*
X190035000Y-106520000I0J135000D01*
G01*
X190035000Y-106250000D01*
G75*
G02*
X190170000Y-106115000I135000J0D01*
G01*
G37*
G36*
G01*
X190170000Y-105095000D02*
X190540000Y-105095000D01*
G75*
G02*
X190675000Y-105230000I0J-135000D01*
G01*
X190675000Y-105500000D01*
G75*
G02*
X190540000Y-105635000I-135000J0D01*
G01*
X190170000Y-105635000D01*
G75*
G02*
X190035000Y-105500000I0J135000D01*
G01*
X190035000Y-105230000D01*
G75*
G02*
X190170000Y-105095000I135000J0D01*
G01*
G37*
G36*
G01*
X190615000Y-104190000D02*
X190615000Y-104560000D01*
G75*
G02*
X190480000Y-104695000I-135000J0D01*
G01*
X190210000Y-104695000D01*
G75*
G02*
X190075000Y-104560000I0J135000D01*
G01*
X190075000Y-104190000D01*
G75*
G02*
X190210000Y-104055000I135000J0D01*
G01*
X190480000Y-104055000D01*
G75*
G02*
X190615000Y-104190000I0J-135000D01*
G01*
G37*
G36*
G01*
X191635000Y-104190000D02*
X191635000Y-104560000D01*
G75*
G02*
X191500000Y-104695000I-135000J0D01*
G01*
X191230000Y-104695000D01*
G75*
G02*
X191095000Y-104560000I0J135000D01*
G01*
X191095000Y-104190000D01*
G75*
G02*
X191230000Y-104055000I135000J0D01*
G01*
X191500000Y-104055000D01*
G75*
G02*
X191635000Y-104190000I0J-135000D01*
G01*
G37*
G36*
G01*
X188715000Y-106190000D02*
X188715000Y-106560000D01*
G75*
G02*
X188580000Y-106695000I-135000J0D01*
G01*
X188310000Y-106695000D01*
G75*
G02*
X188175000Y-106560000I0J135000D01*
G01*
X188175000Y-106190000D01*
G75*
G02*
X188310000Y-106055000I135000J0D01*
G01*
X188580000Y-106055000D01*
G75*
G02*
X188715000Y-106190000I0J-135000D01*
G01*
G37*
G36*
G01*
X189735000Y-106190000D02*
X189735000Y-106560000D01*
G75*
G02*
X189600000Y-106695000I-135000J0D01*
G01*
X189330000Y-106695000D01*
G75*
G02*
X189195000Y-106560000I0J135000D01*
G01*
X189195000Y-106190000D01*
G75*
G02*
X189330000Y-106055000I135000J0D01*
G01*
X189600000Y-106055000D01*
G75*
G02*
X189735000Y-106190000I0J-135000D01*
G01*
G37*
G36*
G01*
X188715000Y-104190000D02*
X188715000Y-104560000D01*
G75*
G02*
X188580000Y-104695000I-135000J0D01*
G01*
X188310000Y-104695000D01*
G75*
G02*
X188175000Y-104560000I0J135000D01*
G01*
X188175000Y-104190000D01*
G75*
G02*
X188310000Y-104055000I135000J0D01*
G01*
X188580000Y-104055000D01*
G75*
G02*
X188715000Y-104190000I0J-135000D01*
G01*
G37*
G36*
G01*
X189735000Y-104190000D02*
X189735000Y-104560000D01*
G75*
G02*
X189600000Y-104695000I-135000J0D01*
G01*
X189330000Y-104695000D01*
G75*
G02*
X189195000Y-104560000I0J135000D01*
G01*
X189195000Y-104190000D01*
G75*
G02*
X189330000Y-104055000I135000J0D01*
G01*
X189600000Y-104055000D01*
G75*
G02*
X189735000Y-104190000I0J-135000D01*
G01*
G37*
G36*
G01*
X188695000Y-96460000D02*
X188695000Y-96090000D01*
G75*
G02*
X188830000Y-95955000I135000J0D01*
G01*
X189100000Y-95955000D01*
G75*
G02*
X189235000Y-96090000I0J-135000D01*
G01*
X189235000Y-96460000D01*
G75*
G02*
X189100000Y-96595000I-135000J0D01*
G01*
X188830000Y-96595000D01*
G75*
G02*
X188695000Y-96460000I0J135000D01*
G01*
G37*
G36*
G01*
X187675000Y-96460000D02*
X187675000Y-96090000D01*
G75*
G02*
X187810000Y-95955000I135000J0D01*
G01*
X188080000Y-95955000D01*
G75*
G02*
X188215000Y-96090000I0J-135000D01*
G01*
X188215000Y-96460000D01*
G75*
G02*
X188080000Y-96595000I-135000J0D01*
G01*
X187810000Y-96595000D01*
G75*
G02*
X187675000Y-96460000I0J135000D01*
G01*
G37*
G36*
G01*
X191895000Y-96460000D02*
X191895000Y-96090000D01*
G75*
G02*
X192030000Y-95955000I135000J0D01*
G01*
X192300000Y-95955000D01*
G75*
G02*
X192435000Y-96090000I0J-135000D01*
G01*
X192435000Y-96460000D01*
G75*
G02*
X192300000Y-96595000I-135000J0D01*
G01*
X192030000Y-96595000D01*
G75*
G02*
X191895000Y-96460000I0J135000D01*
G01*
G37*
G36*
G01*
X190875000Y-96460000D02*
X190875000Y-96090000D01*
G75*
G02*
X191010000Y-95955000I135000J0D01*
G01*
X191280000Y-95955000D01*
G75*
G02*
X191415000Y-96090000I0J-135000D01*
G01*
X191415000Y-96460000D01*
G75*
G02*
X191280000Y-96595000I-135000J0D01*
G01*
X191010000Y-96595000D01*
G75*
G02*
X190875000Y-96460000I0J135000D01*
G01*
G37*
G36*
G01*
X180655000Y-83460000D02*
X180655000Y-83090000D01*
G75*
G02*
X180790000Y-82955000I135000J0D01*
G01*
X181060000Y-82955000D01*
G75*
G02*
X181195000Y-83090000I0J-135000D01*
G01*
X181195000Y-83460000D01*
G75*
G02*
X181060000Y-83595000I-135000J0D01*
G01*
X180790000Y-83595000D01*
G75*
G02*
X180655000Y-83460000I0J135000D01*
G01*
G37*
G36*
G01*
X179635000Y-83460000D02*
X179635000Y-83090000D01*
G75*
G02*
X179770000Y-82955000I135000J0D01*
G01*
X180040000Y-82955000D01*
G75*
G02*
X180175000Y-83090000I0J-135000D01*
G01*
X180175000Y-83460000D01*
G75*
G02*
X180040000Y-83595000I-135000J0D01*
G01*
X179770000Y-83595000D01*
G75*
G02*
X179635000Y-83460000I0J135000D01*
G01*
G37*
G36*
G01*
X188035000Y-83460000D02*
X188035000Y-83090000D01*
G75*
G02*
X188170000Y-82955000I135000J0D01*
G01*
X188440000Y-82955000D01*
G75*
G02*
X188575000Y-83090000I0J-135000D01*
G01*
X188575000Y-83460000D01*
G75*
G02*
X188440000Y-83595000I-135000J0D01*
G01*
X188170000Y-83595000D01*
G75*
G02*
X188035000Y-83460000I0J135000D01*
G01*
G37*
G36*
G01*
X187015000Y-83460000D02*
X187015000Y-83090000D01*
G75*
G02*
X187150000Y-82955000I135000J0D01*
G01*
X187420000Y-82955000D01*
G75*
G02*
X187555000Y-83090000I0J-135000D01*
G01*
X187555000Y-83460000D01*
G75*
G02*
X187420000Y-83595000I-135000J0D01*
G01*
X187150000Y-83595000D01*
G75*
G02*
X187015000Y-83460000I0J135000D01*
G01*
G37*
G36*
G01*
X185135000Y-84180000D02*
X185135000Y-84550000D01*
G75*
G02*
X185000000Y-84685000I-135000J0D01*
G01*
X184730000Y-84685000D01*
G75*
G02*
X184595000Y-84550000I0J135000D01*
G01*
X184595000Y-84180000D01*
G75*
G02*
X184730000Y-84045000I135000J0D01*
G01*
X185000000Y-84045000D01*
G75*
G02*
X185135000Y-84180000I0J-135000D01*
G01*
G37*
G36*
G01*
X186155000Y-84180000D02*
X186155000Y-84550000D01*
G75*
G02*
X186020000Y-84685000I-135000J0D01*
G01*
X185750000Y-84685000D01*
G75*
G02*
X185615000Y-84550000I0J135000D01*
G01*
X185615000Y-84180000D01*
G75*
G02*
X185750000Y-84045000I135000J0D01*
G01*
X186020000Y-84045000D01*
G75*
G02*
X186155000Y-84180000I0J-135000D01*
G01*
G37*
G36*
G01*
X192615000Y-84130000D02*
X192615000Y-84500000D01*
G75*
G02*
X192480000Y-84635000I-135000J0D01*
G01*
X192210000Y-84635000D01*
G75*
G02*
X192075000Y-84500000I0J135000D01*
G01*
X192075000Y-84130000D01*
G75*
G02*
X192210000Y-83995000I135000J0D01*
G01*
X192480000Y-83995000D01*
G75*
G02*
X192615000Y-84130000I0J-135000D01*
G01*
G37*
G36*
G01*
X193635000Y-84130000D02*
X193635000Y-84500000D01*
G75*
G02*
X193500000Y-84635000I-135000J0D01*
G01*
X193230000Y-84635000D01*
G75*
G02*
X193095000Y-84500000I0J135000D01*
G01*
X193095000Y-84130000D01*
G75*
G02*
X193230000Y-83995000I135000J0D01*
G01*
X193500000Y-83995000D01*
G75*
G02*
X193635000Y-84130000I0J-135000D01*
G01*
G37*
G36*
G01*
X183960000Y-82565000D02*
X183590000Y-82565000D01*
G75*
G02*
X183455000Y-82430000I0J135000D01*
G01*
X183455000Y-82160000D01*
G75*
G02*
X183590000Y-82025000I135000J0D01*
G01*
X183960000Y-82025000D01*
G75*
G02*
X184095000Y-82160000I0J-135000D01*
G01*
X184095000Y-82430000D01*
G75*
G02*
X183960000Y-82565000I-135000J0D01*
G01*
G37*
G36*
G01*
X183960000Y-83585000D02*
X183590000Y-83585000D01*
G75*
G02*
X183455000Y-83450000I0J135000D01*
G01*
X183455000Y-83180000D01*
G75*
G02*
X183590000Y-83045000I135000J0D01*
G01*
X183960000Y-83045000D01*
G75*
G02*
X184095000Y-83180000I0J-135000D01*
G01*
X184095000Y-83450000D01*
G75*
G02*
X183960000Y-83585000I-135000J0D01*
G01*
G37*
G36*
G01*
X191400000Y-82535000D02*
X191030000Y-82535000D01*
G75*
G02*
X190895000Y-82400000I0J135000D01*
G01*
X190895000Y-82130000D01*
G75*
G02*
X191030000Y-81995000I135000J0D01*
G01*
X191400000Y-81995000D01*
G75*
G02*
X191535000Y-82130000I0J-135000D01*
G01*
X191535000Y-82400000D01*
G75*
G02*
X191400000Y-82535000I-135000J0D01*
G01*
G37*
G36*
G01*
X191400000Y-83555000D02*
X191030000Y-83555000D01*
G75*
G02*
X190895000Y-83420000I0J135000D01*
G01*
X190895000Y-83150000D01*
G75*
G02*
X191030000Y-83015000I135000J0D01*
G01*
X191400000Y-83015000D01*
G75*
G02*
X191535000Y-83150000I0J-135000D01*
G01*
X191535000Y-83420000D01*
G75*
G02*
X191400000Y-83555000I-135000J0D01*
G01*
G37*
G36*
G01*
X191282500Y-106065000D02*
X191627500Y-106065000D01*
G75*
G02*
X191775000Y-106212500I0J-147500D01*
G01*
X191775000Y-106507500D01*
G75*
G02*
X191627500Y-106655000I-147500J0D01*
G01*
X191282500Y-106655000D01*
G75*
G02*
X191135000Y-106507500I0J147500D01*
G01*
X191135000Y-106212500D01*
G75*
G02*
X191282500Y-106065000I147500J0D01*
G01*
G37*
G36*
G01*
X191282500Y-105095000D02*
X191627500Y-105095000D01*
G75*
G02*
X191775000Y-105242500I0J-147500D01*
G01*
X191775000Y-105537500D01*
G75*
G02*
X191627500Y-105685000I-147500J0D01*
G01*
X191282500Y-105685000D01*
G75*
G02*
X191135000Y-105537500I0J147500D01*
G01*
X191135000Y-105242500D01*
G75*
G02*
X191282500Y-105095000I147500J0D01*
G01*
G37*
G36*
G01*
X184682500Y-82995000D02*
X185027500Y-82995000D01*
G75*
G02*
X185175000Y-83142500I0J-147500D01*
G01*
X185175000Y-83437500D01*
G75*
G02*
X185027500Y-83585000I-147500J0D01*
G01*
X184682500Y-83585000D01*
G75*
G02*
X184535000Y-83437500I0J147500D01*
G01*
X184535000Y-83142500D01*
G75*
G02*
X184682500Y-82995000I147500J0D01*
G01*
G37*
G36*
G01*
X184682500Y-82025000D02*
X185027500Y-82025000D01*
G75*
G02*
X185175000Y-82172500I0J-147500D01*
G01*
X185175000Y-82467500D01*
G75*
G02*
X185027500Y-82615000I-147500J0D01*
G01*
X184682500Y-82615000D01*
G75*
G02*
X184535000Y-82467500I0J147500D01*
G01*
X184535000Y-82172500D01*
G75*
G02*
X184682500Y-82025000I147500J0D01*
G01*
G37*
G36*
G01*
X192182500Y-82965000D02*
X192527500Y-82965000D01*
G75*
G02*
X192675000Y-83112500I0J-147500D01*
G01*
X192675000Y-83407500D01*
G75*
G02*
X192527500Y-83555000I-147500J0D01*
G01*
X192182500Y-83555000D01*
G75*
G02*
X192035000Y-83407500I0J147500D01*
G01*
X192035000Y-83112500D01*
G75*
G02*
X192182500Y-82965000I147500J0D01*
G01*
G37*
G36*
G01*
X192182500Y-81995000D02*
X192527500Y-81995000D01*
G75*
G02*
X192675000Y-82142500I0J-147500D01*
G01*
X192675000Y-82437500D01*
G75*
G02*
X192527500Y-82585000I-147500J0D01*
G01*
X192182500Y-82585000D01*
G75*
G02*
X192035000Y-82437500I0J147500D01*
G01*
X192035000Y-82142500D01*
G75*
G02*
X192182500Y-81995000I147500J0D01*
G01*
G37*
D20*
X189355000Y-100675000D03*
D21*
X191260000Y-99700001D03*
X191260000Y-100349999D03*
X191260000Y-101000001D03*
X191260000Y-101649999D03*
D22*
X190329999Y-102580000D03*
X189680001Y-102580000D03*
X189029999Y-102580000D03*
X188380001Y-102580000D03*
D21*
X187450000Y-101649999D03*
X187450000Y-101000001D03*
X187450000Y-100349999D03*
X187450000Y-99700001D03*
D22*
X188380001Y-98770000D03*
X189029999Y-98770000D03*
X189680001Y-98770000D03*
X190329999Y-98770000D03*
D14*
X182495000Y-87805000D03*
D17*
X184445000Y-86830000D03*
X184445000Y-87480000D03*
X184445000Y-88130000D03*
X184445000Y-88780000D03*
D18*
X183470000Y-89755000D03*
X182820000Y-89755000D03*
X182170000Y-89755000D03*
X181520000Y-89755000D03*
D17*
X180545000Y-88780000D03*
X180545000Y-88130000D03*
X180545000Y-87480000D03*
X180545000Y-86830000D03*
D18*
X181520000Y-85855000D03*
X182170000Y-85855000D03*
X182820000Y-85855000D03*
X183470000Y-85855000D03*
G36*
G01*
X190525000Y-107575000D02*
X190185000Y-107575000D01*
G75*
G02*
X190045000Y-107435000I0J140000D01*
G01*
X190045000Y-107155000D01*
G75*
G02*
X190185000Y-107015000I140000J0D01*
G01*
X190525000Y-107015000D01*
G75*
G02*
X190665000Y-107155000I0J-140000D01*
G01*
X190665000Y-107435000D01*
G75*
G02*
X190525000Y-107575000I-140000J0D01*
G01*
G37*
G36*
G01*
X190525000Y-108535000D02*
X190185000Y-108535000D01*
G75*
G02*
X190045000Y-108395000I0J140000D01*
G01*
X190045000Y-108115000D01*
G75*
G02*
X190185000Y-107975000I140000J0D01*
G01*
X190525000Y-107975000D01*
G75*
G02*
X190665000Y-108115000I0J-140000D01*
G01*
X190665000Y-108395000D01*
G75*
G02*
X190525000Y-108535000I-140000J0D01*
G01*
G37*
G36*
G01*
X189155000Y-105545000D02*
X189155000Y-105205000D01*
G75*
G02*
X189295000Y-105065000I140000J0D01*
G01*
X189575000Y-105065000D01*
G75*
G02*
X189715000Y-105205000I0J-140000D01*
G01*
X189715000Y-105545000D01*
G75*
G02*
X189575000Y-105685000I-140000J0D01*
G01*
X189295000Y-105685000D01*
G75*
G02*
X189155000Y-105545000I0J140000D01*
G01*
G37*
G36*
G01*
X188195000Y-105545000D02*
X188195000Y-105205000D01*
G75*
G02*
X188335000Y-105065000I140000J0D01*
G01*
X188615000Y-105065000D01*
G75*
G02*
X188755000Y-105205000I0J-140000D01*
G01*
X188755000Y-105545000D01*
G75*
G02*
X188615000Y-105685000I-140000J0D01*
G01*
X188335000Y-105685000D01*
G75*
G02*
X188195000Y-105545000I0J140000D01*
G01*
G37*
G36*
G01*
X189885000Y-95975000D02*
X190225000Y-95975000D01*
G75*
G02*
X190365000Y-96115000I0J-140000D01*
G01*
X190365000Y-96395000D01*
G75*
G02*
X190225000Y-96535000I-140000J0D01*
G01*
X189885000Y-96535000D01*
G75*
G02*
X189745000Y-96395000I0J140000D01*
G01*
X189745000Y-96115000D01*
G75*
G02*
X189885000Y-95975000I140000J0D01*
G01*
G37*
G36*
G01*
X189885000Y-95015000D02*
X190225000Y-95015000D01*
G75*
G02*
X190365000Y-95155000I0J-140000D01*
G01*
X190365000Y-95435000D01*
G75*
G02*
X190225000Y-95575000I-140000J0D01*
G01*
X189885000Y-95575000D01*
G75*
G02*
X189745000Y-95435000I0J140000D01*
G01*
X189745000Y-95155000D01*
G75*
G02*
X189885000Y-95015000I140000J0D01*
G01*
G37*
G36*
G01*
X189125000Y-94555000D02*
X188785000Y-94555000D01*
G75*
G02*
X188645000Y-94415000I0J140000D01*
G01*
X188645000Y-94135000D01*
G75*
G02*
X188785000Y-93995000I140000J0D01*
G01*
X189125000Y-93995000D01*
G75*
G02*
X189265000Y-94135000I0J-140000D01*
G01*
X189265000Y-94415000D01*
G75*
G02*
X189125000Y-94555000I-140000J0D01*
G01*
G37*
G36*
G01*
X189125000Y-95515000D02*
X188785000Y-95515000D01*
G75*
G02*
X188645000Y-95375000I0J140000D01*
G01*
X188645000Y-95095000D01*
G75*
G02*
X188785000Y-94955000I140000J0D01*
G01*
X189125000Y-94955000D01*
G75*
G02*
X189265000Y-95095000I0J-140000D01*
G01*
X189265000Y-95375000D01*
G75*
G02*
X189125000Y-95515000I-140000J0D01*
G01*
G37*
G36*
G01*
X191325000Y-94575000D02*
X190985000Y-94575000D01*
G75*
G02*
X190845000Y-94435000I0J140000D01*
G01*
X190845000Y-94155000D01*
G75*
G02*
X190985000Y-94015000I140000J0D01*
G01*
X191325000Y-94015000D01*
G75*
G02*
X191465000Y-94155000I0J-140000D01*
G01*
X191465000Y-94435000D01*
G75*
G02*
X191325000Y-94575000I-140000J0D01*
G01*
G37*
G36*
G01*
X191325000Y-95535000D02*
X190985000Y-95535000D01*
G75*
G02*
X190845000Y-95395000I0J140000D01*
G01*
X190845000Y-95115000D01*
G75*
G02*
X190985000Y-94975000I140000J0D01*
G01*
X191325000Y-94975000D01*
G75*
G02*
X191465000Y-95115000I0J-140000D01*
G01*
X191465000Y-95395000D01*
G75*
G02*
X191325000Y-95535000I-140000J0D01*
G01*
G37*
G36*
G01*
X181205000Y-84185000D02*
X181205000Y-84525000D01*
G75*
G02*
X181065000Y-84665000I-140000J0D01*
G01*
X180785000Y-84665000D01*
G75*
G02*
X180645000Y-84525000I0J140000D01*
G01*
X180645000Y-84185000D01*
G75*
G02*
X180785000Y-84045000I140000J0D01*
G01*
X181065000Y-84045000D01*
G75*
G02*
X181205000Y-84185000I0J-140000D01*
G01*
G37*
G36*
G01*
X182165000Y-84185000D02*
X182165000Y-84525000D01*
G75*
G02*
X182025000Y-84665000I-140000J0D01*
G01*
X181745000Y-84665000D01*
G75*
G02*
X181605000Y-84525000I0J140000D01*
G01*
X181605000Y-84185000D01*
G75*
G02*
X181745000Y-84045000I140000J0D01*
G01*
X182025000Y-84045000D01*
G75*
G02*
X182165000Y-84185000I0J-140000D01*
G01*
G37*
G36*
G01*
X188585000Y-84145000D02*
X188585000Y-84485000D01*
G75*
G02*
X188445000Y-84625000I-140000J0D01*
G01*
X188165000Y-84625000D01*
G75*
G02*
X188025000Y-84485000I0J140000D01*
G01*
X188025000Y-84145000D01*
G75*
G02*
X188165000Y-84005000I140000J0D01*
G01*
X188445000Y-84005000D01*
G75*
G02*
X188585000Y-84145000I0J-140000D01*
G01*
G37*
G36*
G01*
X189545000Y-84145000D02*
X189545000Y-84485000D01*
G75*
G02*
X189405000Y-84625000I-140000J0D01*
G01*
X189125000Y-84625000D01*
G75*
G02*
X188985000Y-84485000I0J140000D01*
G01*
X188985000Y-84145000D01*
G75*
G02*
X189125000Y-84005000I140000J0D01*
G01*
X189405000Y-84005000D01*
G75*
G02*
X189545000Y-84145000I0J-140000D01*
G01*
G37*
G36*
G01*
X183495000Y-84525000D02*
X183495000Y-84185000D01*
G75*
G02*
X183635000Y-84045000I140000J0D01*
G01*
X183915000Y-84045000D01*
G75*
G02*
X184055000Y-84185000I0J-140000D01*
G01*
X184055000Y-84525000D01*
G75*
G02*
X183915000Y-84665000I-140000J0D01*
G01*
X183635000Y-84665000D01*
G75*
G02*
X183495000Y-84525000I0J140000D01*
G01*
G37*
G36*
G01*
X182535000Y-84525000D02*
X182535000Y-84185000D01*
G75*
G02*
X182675000Y-84045000I140000J0D01*
G01*
X182955000Y-84045000D01*
G75*
G02*
X183095000Y-84185000I0J-140000D01*
G01*
X183095000Y-84525000D01*
G75*
G02*
X182955000Y-84665000I-140000J0D01*
G01*
X182675000Y-84665000D01*
G75*
G02*
X182535000Y-84525000I0J140000D01*
G01*
G37*
G36*
G01*
X190935000Y-84485000D02*
X190935000Y-84145000D01*
G75*
G02*
X191075000Y-84005000I140000J0D01*
G01*
X191355000Y-84005000D01*
G75*
G02*
X191495000Y-84145000I0J-140000D01*
G01*
X191495000Y-84485000D01*
G75*
G02*
X191355000Y-84625000I-140000J0D01*
G01*
X191075000Y-84625000D01*
G75*
G02*
X190935000Y-84485000I0J140000D01*
G01*
G37*
G36*
G01*
X189975000Y-84485000D02*
X189975000Y-84145000D01*
G75*
G02*
X190115000Y-84005000I140000J0D01*
G01*
X190395000Y-84005000D01*
G75*
G02*
X190535000Y-84145000I0J-140000D01*
G01*
X190535000Y-84485000D01*
G75*
G02*
X190395000Y-84625000I-140000J0D01*
G01*
X190115000Y-84625000D01*
G75*
G02*
X189975000Y-84485000I0J140000D01*
G01*
G37*
G36*
G01*
X165698000Y-85400000D02*
X165698000Y-85950000D01*
G75*
G02*
X165498000Y-86150000I-200000J0D01*
G01*
X165098000Y-86150000D01*
G75*
G02*
X164898000Y-85950000I0J200000D01*
G01*
X164898000Y-85400000D01*
G75*
G02*
X165098000Y-85200000I200000J0D01*
G01*
X165498000Y-85200000D01*
G75*
G02*
X165698000Y-85400000I0J-200000D01*
G01*
G37*
G36*
G01*
X167348000Y-85400000D02*
X167348000Y-85950000D01*
G75*
G02*
X167148000Y-86150000I-200000J0D01*
G01*
X166748000Y-86150000D01*
G75*
G02*
X166548000Y-85950000I0J200000D01*
G01*
X166548000Y-85400000D01*
G75*
G02*
X166748000Y-85200000I200000J0D01*
G01*
X167148000Y-85200000D01*
G75*
G02*
X167348000Y-85400000I0J-200000D01*
G01*
G37*
G36*
G01*
X171318750Y-108650000D02*
X172231250Y-108650000D01*
G75*
G02*
X172475000Y-108893750I0J-243750D01*
G01*
X172475000Y-109381250D01*
G75*
G02*
X172231250Y-109625000I-243750J0D01*
G01*
X171318750Y-109625000D01*
G75*
G02*
X171075000Y-109381250I0J243750D01*
G01*
X171075000Y-108893750D01*
G75*
G02*
X171318750Y-108650000I243750J0D01*
G01*
G37*
G36*
G01*
X171318750Y-110525000D02*
X172231250Y-110525000D01*
G75*
G02*
X172475000Y-110768750I0J-243750D01*
G01*
X172475000Y-111256250D01*
G75*
G02*
X172231250Y-111500000I-243750J0D01*
G01*
X171318750Y-111500000D01*
G75*
G02*
X171075000Y-111256250I0J243750D01*
G01*
X171075000Y-110768750D01*
G75*
G02*
X171318750Y-110525000I243750J0D01*
G01*
G37*
G36*
G01*
X166650000Y-107721250D02*
X166650000Y-106808750D01*
G75*
G02*
X166893750Y-106565000I243750J0D01*
G01*
X167381250Y-106565000D01*
G75*
G02*
X167625000Y-106808750I0J-243750D01*
G01*
X167625000Y-107721250D01*
G75*
G02*
X167381250Y-107965000I-243750J0D01*
G01*
X166893750Y-107965000D01*
G75*
G02*
X166650000Y-107721250I0J243750D01*
G01*
G37*
G36*
G01*
X168525000Y-107721250D02*
X168525000Y-106808750D01*
G75*
G02*
X168768750Y-106565000I243750J0D01*
G01*
X169256250Y-106565000D01*
G75*
G02*
X169500000Y-106808750I0J-243750D01*
G01*
X169500000Y-107721250D01*
G75*
G02*
X169256250Y-107965000I-243750J0D01*
G01*
X168768750Y-107965000D01*
G75*
G02*
X168525000Y-107721250I0J243750D01*
G01*
G37*
D23*
X165462400Y-109151200D03*
X165462400Y-109938600D03*
X165462400Y-110751400D03*
X165462400Y-111538800D03*
X168967600Y-111538800D03*
X168967600Y-110751400D03*
X168967600Y-109938600D03*
X168967600Y-109151200D03*
D24*
X167215000Y-110345000D03*
M02*
