G04 #@! TF.GenerationSoftware,KiCad,Pcbnew,(5.1.12)-1*
G04 #@! TF.CreationDate,2026-04-14T09:03:33-06:00*
G04 #@! TF.ProjectId,Mux_SDI_BJT,4d75785f-5344-4495-9f42-4a542e6b6963,2.10*
G04 #@! TF.SameCoordinates,Original*
G04 #@! TF.FileFunction,Legend,Top*
G04 #@! TF.FilePolarity,Positive*
%FSLAX46Y46*%
G04 Gerber Fmt 4.6, Leading zero omitted, Abs format (unit mm)*
G04 Created by KiCad (PCBNEW (5.1.12)-1) date 2026-04-14 09:03:33*
%MOMM*%
%LPD*%
G01*
G04 APERTURE LIST*
%ADD10C,0.150000*%
%ADD11C,0.120000*%
%ADD12C,0.100000*%
%ADD13C,0.200000*%
%ADD14C,0.061000*%
%ADD15C,0.250000*%
%ADD16C,0.325000*%
%ADD17C,0.254000*%
%ADD18C,0.152400*%
%ADD19C,1.102000*%
%ADD20C,1.548000*%
G04 APERTURE END LIST*
D10*
X185982142Y-113167857D02*
X186096428Y-113205952D01*
X186134523Y-113244047D01*
X186172619Y-113320238D01*
X186172619Y-113434523D01*
X186134523Y-113510714D01*
X186096428Y-113548809D01*
X186020238Y-113586904D01*
X185715476Y-113586904D01*
X185715476Y-112786904D01*
X185982142Y-112786904D01*
X186058333Y-112825000D01*
X186096428Y-112863095D01*
X186134523Y-112939285D01*
X186134523Y-113015476D01*
X186096428Y-113091666D01*
X186058333Y-113129761D01*
X185982142Y-113167857D01*
X185715476Y-113167857D01*
X184139285Y-113167857D02*
X183872619Y-113167857D01*
X183872619Y-113586904D02*
X183872619Y-112786904D01*
X184253571Y-112786904D01*
X182015476Y-113536904D02*
X182015476Y-112736904D01*
X182320238Y-112736904D01*
X182396428Y-112775000D01*
X182434523Y-112813095D01*
X182472619Y-112889285D01*
X182472619Y-113003571D01*
X182434523Y-113079761D01*
X182396428Y-113117857D01*
X182320238Y-113155952D01*
X182015476Y-113155952D01*
X170755000Y-97116904D02*
X170755000Y-96316904D01*
X171059761Y-96316904D01*
X171135952Y-96355000D01*
X171174047Y-96393095D01*
X171212142Y-96469285D01*
X171212142Y-96583571D01*
X171174047Y-96659761D01*
X171135952Y-96697857D01*
X171059761Y-96735952D01*
X170755000Y-96735952D01*
X171478809Y-96316904D02*
X171669285Y-97116904D01*
X171821666Y-96545476D01*
X171974047Y-97116904D01*
X172164523Y-96316904D01*
X172926428Y-97116904D02*
X172659761Y-96735952D01*
X172469285Y-97116904D02*
X172469285Y-96316904D01*
X172774047Y-96316904D01*
X172850238Y-96355000D01*
X172888333Y-96393095D01*
X172926428Y-96469285D01*
X172926428Y-96583571D01*
X172888333Y-96659761D01*
X172850238Y-96697857D01*
X172774047Y-96735952D01*
X172469285Y-96735952D01*
X173269285Y-97040714D02*
X173307380Y-97078809D01*
X173269285Y-97116904D01*
X173231190Y-97078809D01*
X173269285Y-97040714D01*
X173269285Y-97116904D01*
X173802619Y-96316904D02*
X173955000Y-96316904D01*
X174031190Y-96355000D01*
X174107380Y-96431190D01*
X174145476Y-96583571D01*
X174145476Y-96850238D01*
X174107380Y-97002619D01*
X174031190Y-97078809D01*
X173955000Y-97116904D01*
X173802619Y-97116904D01*
X173726428Y-97078809D01*
X173650238Y-97002619D01*
X173612142Y-96850238D01*
X173612142Y-96583571D01*
X173650238Y-96431190D01*
X173726428Y-96355000D01*
X173802619Y-96316904D01*
X174488333Y-96316904D02*
X174488333Y-96964523D01*
X174526428Y-97040714D01*
X174564523Y-97078809D01*
X174640714Y-97116904D01*
X174793095Y-97116904D01*
X174869285Y-97078809D01*
X174907380Y-97040714D01*
X174945476Y-96964523D01*
X174945476Y-96316904D01*
X175212142Y-96316904D02*
X175669285Y-96316904D01*
X175440714Y-97116904D02*
X175440714Y-96316904D01*
X164388333Y-97196904D02*
X164388333Y-96396904D01*
X164693095Y-96396904D01*
X164769285Y-96435000D01*
X164807380Y-96473095D01*
X164845476Y-96549285D01*
X164845476Y-96663571D01*
X164807380Y-96739761D01*
X164769285Y-96777857D01*
X164693095Y-96815952D01*
X164388333Y-96815952D01*
X165112142Y-96396904D02*
X165302619Y-97196904D01*
X165455000Y-96625476D01*
X165607380Y-97196904D01*
X165797857Y-96396904D01*
X166559761Y-97196904D02*
X166293095Y-96815952D01*
X166102619Y-97196904D02*
X166102619Y-96396904D01*
X166407380Y-96396904D01*
X166483571Y-96435000D01*
X166521666Y-96473095D01*
X166559761Y-96549285D01*
X166559761Y-96663571D01*
X166521666Y-96739761D01*
X166483571Y-96777857D01*
X166407380Y-96815952D01*
X166102619Y-96815952D01*
X166902619Y-97120714D02*
X166940714Y-97158809D01*
X166902619Y-97196904D01*
X166864523Y-97158809D01*
X166902619Y-97120714D01*
X166902619Y-97196904D01*
X167283571Y-97196904D02*
X167283571Y-96396904D01*
X167664523Y-97196904D02*
X167664523Y-96396904D01*
X168121666Y-97196904D01*
X168121666Y-96396904D01*
X165086904Y-80620238D02*
X165086904Y-81001190D01*
X164286904Y-81001190D01*
X164667857Y-80353571D02*
X164667857Y-80086904D01*
X165086904Y-79972619D02*
X165086904Y-80353571D01*
X164286904Y-80353571D01*
X164286904Y-79972619D01*
X165086904Y-79629761D02*
X164286904Y-79629761D01*
X164286904Y-79439285D01*
X164325000Y-79325000D01*
X164401190Y-79248809D01*
X164477380Y-79210714D01*
X164629761Y-79172619D01*
X164744047Y-79172619D01*
X164896428Y-79210714D01*
X164972619Y-79248809D01*
X165048809Y-79325000D01*
X165086904Y-79439285D01*
X165086904Y-79629761D01*
X165048809Y-78867857D02*
X165086904Y-78753571D01*
X165086904Y-78563095D01*
X165048809Y-78486904D01*
X165010714Y-78448809D01*
X164934523Y-78410714D01*
X164858333Y-78410714D01*
X164782142Y-78448809D01*
X164744047Y-78486904D01*
X164705952Y-78563095D01*
X164667857Y-78715476D01*
X164629761Y-78791666D01*
X164591666Y-78829761D01*
X164515476Y-78867857D01*
X164439285Y-78867857D01*
X164363095Y-78829761D01*
X164325000Y-78791666D01*
X164286904Y-78715476D01*
X164286904Y-78525000D01*
X164325000Y-78410714D01*
X170235714Y-89127380D02*
X170273809Y-89165476D01*
X170311904Y-89279761D01*
X170311904Y-89355952D01*
X170273809Y-89470238D01*
X170197619Y-89546428D01*
X170121428Y-89584523D01*
X169969047Y-89622619D01*
X169854761Y-89622619D01*
X169702380Y-89584523D01*
X169626190Y-89546428D01*
X169550000Y-89470238D01*
X169511904Y-89355952D01*
X169511904Y-89279761D01*
X169550000Y-89165476D01*
X169588095Y-89127380D01*
X170083333Y-88822619D02*
X170083333Y-88441666D01*
X170311904Y-88898809D02*
X169511904Y-88632142D01*
X170311904Y-88365476D01*
X170311904Y-88098809D02*
X169511904Y-88098809D01*
X170083333Y-87832142D01*
X169511904Y-87565476D01*
X170311904Y-87565476D01*
D11*
X172063748Y-87335000D02*
X172786252Y-87335000D01*
X172063748Y-82115000D02*
X172786252Y-82115000D01*
D12*
X164643000Y-90265000D02*
X164643000Y-87065000D01*
X168893000Y-90265000D02*
X164643000Y-90265000D01*
X168893000Y-87065000D02*
X168893000Y-90265000D01*
X164643000Y-87065000D02*
X168893000Y-87065000D01*
D13*
X178625000Y-79575000D02*
X178625000Y-79575000D01*
X178825000Y-79575000D02*
X178825000Y-79575000D01*
D12*
X179225000Y-83675000D02*
X178725000Y-83675000D01*
X179225000Y-81375000D02*
X179225000Y-83675000D01*
X176225000Y-83675000D02*
X176725000Y-83675000D01*
X176225000Y-81375000D02*
X176225000Y-83675000D01*
X177925000Y-80675000D02*
X177525000Y-80675000D01*
D13*
X178825000Y-79575000D02*
G75*
G03*
X178625000Y-79575000I-100000J0D01*
G01*
X178625000Y-79575000D02*
G75*
G03*
X178825000Y-79575000I100000J0D01*
G01*
X192725000Y-94175000D02*
X192725000Y-94175000D01*
X192525000Y-94175000D02*
X192525000Y-94175000D01*
D12*
X192125000Y-90075000D02*
X192625000Y-90075000D01*
X192125000Y-92375000D02*
X192125000Y-90075000D01*
X195125000Y-90075000D02*
X194625000Y-90075000D01*
X195125000Y-92375000D02*
X195125000Y-90075000D01*
X193425000Y-93075000D02*
X193825000Y-93075000D01*
D13*
X192525000Y-94175000D02*
G75*
G03*
X192725000Y-94175000I100000J0D01*
G01*
X192725000Y-94175000D02*
G75*
G03*
X192525000Y-94175000I-100000J0D01*
G01*
D11*
X181232836Y-104265000D02*
X181017164Y-104265000D01*
X181232836Y-104985000D02*
X181017164Y-104985000D01*
X177645000Y-102671359D02*
X177645000Y-102978641D01*
X178405000Y-102671359D02*
X178405000Y-102978641D01*
X177378641Y-77945000D02*
X177071359Y-77945000D01*
X177378641Y-78705000D02*
X177071359Y-78705000D01*
X195005000Y-96078641D02*
X195005000Y-95771359D01*
X194245000Y-96078641D02*
X194245000Y-95771359D01*
X186917164Y-104735000D02*
X187132836Y-104735000D01*
X186917164Y-104015000D02*
X187132836Y-104015000D01*
X168952500Y-83737742D02*
X168952500Y-84212258D01*
X169997500Y-83737742D02*
X169997500Y-84212258D01*
D13*
X169155000Y-103389000D02*
X169155000Y-97639000D01*
X169155000Y-97639000D02*
X163355000Y-97639000D01*
X163355000Y-97639000D02*
X163355000Y-103389000D01*
D14*
X167782000Y-106250000D02*
X167782000Y-106250000D01*
X167782000Y-106311000D02*
X167782000Y-106311000D01*
X167781000Y-106311000D02*
G75*
G03*
X167782000Y-106250000I500J30500D01*
G01*
X167781000Y-106250000D02*
G75*
G03*
X167782000Y-106311000I500J-30500D01*
G01*
X174682000Y-106311000D02*
X174682000Y-106311000D01*
X174682000Y-106250000D02*
X174682000Y-106250000D01*
D13*
X170255000Y-97639000D02*
X170255000Y-103389000D01*
X176055000Y-97639000D02*
X170255000Y-97639000D01*
X176055000Y-103389000D02*
X176055000Y-97639000D01*
D14*
X174681000Y-106250000D02*
G75*
G03*
X174682000Y-106311000I500J-30500D01*
G01*
X174681000Y-106311000D02*
G75*
G03*
X174682000Y-106250000I500J30500D01*
G01*
D12*
X180475000Y-113075000D02*
X173725000Y-113075000D01*
X173725000Y-113075000D02*
X173725000Y-109875000D01*
X173725000Y-109875000D02*
X180475000Y-109875000D01*
X180475000Y-109875000D02*
X180475000Y-113075000D01*
D11*
X179595000Y-102978641D02*
X179595000Y-102671359D01*
X180355000Y-102978641D02*
X180355000Y-102671359D01*
X176747500Y-86387742D02*
X176747500Y-86862258D01*
X175702500Y-86387742D02*
X175702500Y-86862258D01*
X183264000Y-110233000D02*
X183264000Y-112518000D01*
X183264000Y-112518000D02*
X184734000Y-112518000D01*
X184734000Y-112518000D02*
X184734000Y-110233000D01*
X185158000Y-110233000D02*
X185158000Y-112518000D01*
X185158000Y-112518000D02*
X186628000Y-112518000D01*
X186628000Y-112518000D02*
X186628000Y-110233000D01*
X181390000Y-110225000D02*
X181390000Y-112510000D01*
X181390000Y-112510000D02*
X182860000Y-112510000D01*
X182860000Y-112510000D02*
X182860000Y-110225000D01*
X185505000Y-102121359D02*
X185505000Y-102428641D01*
X184745000Y-102121359D02*
X184745000Y-102428641D01*
X186555000Y-102121359D02*
X186555000Y-102428641D01*
X185795000Y-102121359D02*
X185795000Y-102428641D01*
X186262836Y-89135000D02*
X186047164Y-89135000D01*
X186262836Y-88415000D02*
X186047164Y-88415000D01*
X185295000Y-87282836D02*
X185295000Y-87067164D01*
X186015000Y-87282836D02*
X186015000Y-87067164D01*
X193537164Y-87515000D02*
X193752836Y-87515000D01*
X193537164Y-88235000D02*
X193752836Y-88235000D01*
X193547164Y-86515000D02*
X193762836Y-86515000D01*
X193547164Y-87235000D02*
X193762836Y-87235000D01*
X186295000Y-87282836D02*
X186295000Y-87067164D01*
X187015000Y-87282836D02*
X187015000Y-87067164D01*
D15*
X184180000Y-92300000D02*
G75*
G03*
X184180000Y-92300000I-125000J0D01*
G01*
D16*
X192027500Y-85430500D02*
G75*
G03*
X192027500Y-85430500I-162500J0D01*
G01*
D17*
X168056000Y-84485000D02*
G75*
G03*
X168056000Y-84485000I-125000J0D01*
G01*
D13*
X166931000Y-84135000D02*
X166931000Y-82135000D01*
X166331000Y-84135000D02*
X166931000Y-84135000D01*
X166331000Y-82135000D02*
X166331000Y-84135000D01*
X166931000Y-82135000D02*
X166331000Y-82135000D01*
D11*
X190735000Y-105721359D02*
X190735000Y-106028641D01*
X189975000Y-105721359D02*
X189975000Y-106028641D01*
X191008641Y-104755000D02*
X190701359Y-104755000D01*
X191008641Y-103995000D02*
X190701359Y-103995000D01*
X189108641Y-106755000D02*
X188801359Y-106755000D01*
X189108641Y-105995000D02*
X188801359Y-105995000D01*
X189108641Y-104755000D02*
X188801359Y-104755000D01*
X189108641Y-103995000D02*
X188801359Y-103995000D01*
X188301359Y-95895000D02*
X188608641Y-95895000D01*
X188301359Y-96655000D02*
X188608641Y-96655000D01*
X191501359Y-95895000D02*
X191808641Y-95895000D01*
X191501359Y-96655000D02*
X191808641Y-96655000D01*
X180261359Y-82895000D02*
X180568641Y-82895000D01*
X180261359Y-83655000D02*
X180568641Y-83655000D01*
X187641359Y-82895000D02*
X187948641Y-82895000D01*
X187641359Y-83655000D02*
X187948641Y-83655000D01*
X185528641Y-84745000D02*
X185221359Y-84745000D01*
X185528641Y-83985000D02*
X185221359Y-83985000D01*
X193008641Y-84695000D02*
X192701359Y-84695000D01*
X193008641Y-83935000D02*
X192701359Y-83935000D01*
X183395000Y-82958641D02*
X183395000Y-82651359D01*
X184155000Y-82958641D02*
X184155000Y-82651359D01*
X190835000Y-82928641D02*
X190835000Y-82621359D01*
X191595000Y-82928641D02*
X191595000Y-82621359D01*
D18*
X187056300Y-98376300D02*
X187056300Y-99226956D01*
X187056300Y-102973700D02*
X187906956Y-102973700D01*
X191653700Y-102973700D02*
X191653700Y-102123044D01*
X191653700Y-98376300D02*
X190803044Y-98376300D01*
X187906956Y-98376300D02*
X187056300Y-98376300D01*
X187056300Y-102123044D02*
X187056300Y-102973700D01*
X190803044Y-102973700D02*
X191653700Y-102973700D01*
X191653700Y-99226956D02*
X191653700Y-98376300D01*
D16*
X184607500Y-85430500D02*
G75*
G03*
X184607500Y-85430500I-162500J0D01*
G01*
D11*
X189995000Y-107882836D02*
X189995000Y-107667164D01*
X190715000Y-107882836D02*
X190715000Y-107667164D01*
X188847164Y-105015000D02*
X189062836Y-105015000D01*
X188847164Y-105735000D02*
X189062836Y-105735000D01*
X190415000Y-95667164D02*
X190415000Y-95882836D01*
X189695000Y-95667164D02*
X189695000Y-95882836D01*
X188595000Y-94862836D02*
X188595000Y-94647164D01*
X189315000Y-94862836D02*
X189315000Y-94647164D01*
X190795000Y-94882836D02*
X190795000Y-94667164D01*
X191515000Y-94882836D02*
X191515000Y-94667164D01*
X181512836Y-84715000D02*
X181297164Y-84715000D01*
X181512836Y-83995000D02*
X181297164Y-83995000D01*
X188892836Y-84675000D02*
X188677164Y-84675000D01*
X188892836Y-83955000D02*
X188677164Y-83955000D01*
X183187164Y-83995000D02*
X183402836Y-83995000D01*
X183187164Y-84715000D02*
X183402836Y-84715000D01*
X190627164Y-83955000D02*
X190842836Y-83955000D01*
X190627164Y-84675000D02*
X190842836Y-84675000D01*
X166360258Y-85152500D02*
X165885742Y-85152500D01*
X166360258Y-86197500D02*
X165885742Y-86197500D01*
X172485000Y-109816422D02*
X172485000Y-110333578D01*
X171065000Y-109816422D02*
X171065000Y-110333578D01*
X167816422Y-106555000D02*
X168333578Y-106555000D01*
X167816422Y-107975000D02*
X168333578Y-107975000D01*
D12*
X175475000Y-81325000D02*
X171225000Y-81325000D01*
X171225000Y-81325000D02*
X171225000Y-78125000D01*
X171225000Y-78125000D02*
X175475000Y-78125000D01*
X175475000Y-78125000D02*
X175475000Y-81325000D01*
X169675000Y-78075000D02*
X169675000Y-81275000D01*
X165425000Y-78075000D02*
X169675000Y-78075000D01*
X165425000Y-81275000D02*
X165425000Y-78075000D01*
X169675000Y-81275000D02*
X165425000Y-81275000D01*
X184255000Y-77920000D02*
X183255000Y-77920000D01*
X182000000Y-79175000D02*
X182000000Y-80175000D01*
X184255000Y-81430000D02*
X183255000Y-81430000D01*
X185510000Y-79175000D02*
X185510000Y-80175000D01*
X191710000Y-81430000D02*
X190710000Y-81430000D01*
X189455000Y-80175000D02*
X189455000Y-79175000D01*
X191710000Y-77920000D02*
X190710000Y-77920000D01*
X192965000Y-80175000D02*
X192965000Y-79175000D01*
X188600000Y-111525000D02*
X188600000Y-110525000D01*
X189855000Y-109270000D02*
X190855000Y-109270000D01*
X192110000Y-111525000D02*
X192110000Y-110525000D01*
X189855000Y-112780000D02*
X190855000Y-112780000D01*
D18*
X169221600Y-108567000D02*
X169221600Y-108338400D01*
X165208400Y-112123000D02*
X165208400Y-112351600D01*
X165208400Y-112351600D02*
X169221600Y-112351600D01*
X169221600Y-112351600D02*
X169221600Y-112123000D01*
X169221600Y-108338400D02*
X165208400Y-108338400D01*
X165208400Y-108338400D02*
X165208400Y-108567000D01*
D12*
X164674998Y-109252803D02*
G75*
G02*
X164675000Y-109024200I-169458J114303D01*
G01*
D17*
X183129523Y-95914761D02*
X181859523Y-95914761D01*
X183008571Y-94584285D02*
X183069047Y-94644761D01*
X183129523Y-94826190D01*
X183129523Y-94947142D01*
X183069047Y-95128571D01*
X182948095Y-95249523D01*
X182827142Y-95310000D01*
X182585238Y-95370476D01*
X182403809Y-95370476D01*
X182161904Y-95310000D01*
X182040952Y-95249523D01*
X181920000Y-95128571D01*
X181859523Y-94947142D01*
X181859523Y-94826190D01*
X181920000Y-94644761D01*
X181980476Y-94584285D01*
X181859523Y-94160952D02*
X181859523Y-93314285D01*
X183129523Y-93858571D01*
X190489523Y-89044761D02*
X189219523Y-89044761D01*
X190368571Y-87714285D02*
X190429047Y-87774761D01*
X190489523Y-87956190D01*
X190489523Y-88077142D01*
X190429047Y-88258571D01*
X190308095Y-88379523D01*
X190187142Y-88440000D01*
X189945238Y-88500476D01*
X189763809Y-88500476D01*
X189521904Y-88440000D01*
X189400952Y-88379523D01*
X189280000Y-88258571D01*
X189219523Y-88077142D01*
X189219523Y-87956190D01*
X189280000Y-87774761D01*
X189340476Y-87714285D01*
X189219523Y-86565238D02*
X189219523Y-87170000D01*
X189824285Y-87230476D01*
X189763809Y-87170000D01*
X189703333Y-87049047D01*
X189703333Y-86746666D01*
X189763809Y-86625714D01*
X189824285Y-86565238D01*
X189945238Y-86504761D01*
X190247619Y-86504761D01*
X190368571Y-86565238D01*
X190429047Y-86625714D01*
X190489523Y-86746666D01*
X190489523Y-87049047D01*
X190429047Y-87170000D01*
X190368571Y-87230476D01*
D10*
X189807380Y-101651190D02*
X188807380Y-101651190D01*
X189712142Y-100603571D02*
X189759761Y-100651190D01*
X189807380Y-100794047D01*
X189807380Y-100889285D01*
X189759761Y-101032142D01*
X189664523Y-101127380D01*
X189569285Y-101175000D01*
X189378809Y-101222619D01*
X189235952Y-101222619D01*
X189045476Y-101175000D01*
X188950238Y-101127380D01*
X188855000Y-101032142D01*
X188807380Y-100889285D01*
X188807380Y-100794047D01*
X188855000Y-100651190D01*
X188902619Y-100603571D01*
X189235952Y-100032142D02*
X189188333Y-100127380D01*
X189140714Y-100175000D01*
X189045476Y-100222619D01*
X188997857Y-100222619D01*
X188902619Y-100175000D01*
X188855000Y-100127380D01*
X188807380Y-100032142D01*
X188807380Y-99841666D01*
X188855000Y-99746428D01*
X188902619Y-99698809D01*
X188997857Y-99651190D01*
X189045476Y-99651190D01*
X189140714Y-99698809D01*
X189188333Y-99746428D01*
X189235952Y-99841666D01*
X189235952Y-100032142D01*
X189283571Y-100127380D01*
X189331190Y-100175000D01*
X189426428Y-100222619D01*
X189616904Y-100222619D01*
X189712142Y-100175000D01*
X189759761Y-100127380D01*
X189807380Y-100032142D01*
X189807380Y-99841666D01*
X189759761Y-99746428D01*
X189712142Y-99698809D01*
X189616904Y-99651190D01*
X189426428Y-99651190D01*
X189331190Y-99698809D01*
X189283571Y-99746428D01*
X189235952Y-99841666D01*
D17*
X183069523Y-89044761D02*
X181799523Y-89044761D01*
X182948571Y-87714285D02*
X183009047Y-87774761D01*
X183069523Y-87956190D01*
X183069523Y-88077142D01*
X183009047Y-88258571D01*
X182888095Y-88379523D01*
X182767142Y-88440000D01*
X182525238Y-88500476D01*
X182343809Y-88500476D01*
X182101904Y-88440000D01*
X181980952Y-88379523D01*
X181860000Y-88258571D01*
X181799523Y-88077142D01*
X181799523Y-87956190D01*
X181860000Y-87774761D01*
X181920476Y-87714285D01*
X181799523Y-86625714D02*
X181799523Y-86867619D01*
X181860000Y-86988571D01*
X181920476Y-87049047D01*
X182101904Y-87170000D01*
X182343809Y-87230476D01*
X182827619Y-87230476D01*
X182948571Y-87170000D01*
X183009047Y-87109523D01*
X183069523Y-86988571D01*
X183069523Y-86746666D01*
X183009047Y-86625714D01*
X182948571Y-86565238D01*
X182827619Y-86504761D01*
X182525238Y-86504761D01*
X182404285Y-86565238D01*
X182343809Y-86625714D01*
X182283333Y-86746666D01*
X182283333Y-86988571D01*
X182343809Y-87109523D01*
X182404285Y-87170000D01*
X182525238Y-87230476D01*
D10*
X170936904Y-80791666D02*
X170136904Y-80791666D01*
X170708333Y-80525000D01*
X170136904Y-80258333D01*
X170936904Y-80258333D01*
X170136904Y-79877380D02*
X170784523Y-79877380D01*
X170860714Y-79839285D01*
X170898809Y-79801190D01*
X170936904Y-79725000D01*
X170936904Y-79572619D01*
X170898809Y-79496428D01*
X170860714Y-79458333D01*
X170784523Y-79420238D01*
X170136904Y-79420238D01*
X170136904Y-79115476D02*
X170936904Y-78582142D01*
X170136904Y-78582142D02*
X170936904Y-79115476D01*
X180167857Y-81102071D02*
X180167857Y-81368738D01*
X180586904Y-81368738D02*
X179786904Y-81368738D01*
X179786904Y-80987785D01*
X180586904Y-80225880D02*
X180205952Y-80492547D01*
X180586904Y-80683023D02*
X179786904Y-80683023D01*
X179786904Y-80378261D01*
X179825000Y-80302071D01*
X179863095Y-80263976D01*
X179939285Y-80225880D01*
X180053571Y-80225880D01*
X180129761Y-80263976D01*
X180167857Y-80302071D01*
X180205952Y-80378261D01*
X180205952Y-80683023D01*
X179786904Y-79730642D02*
X179786904Y-79578261D01*
X179825000Y-79502071D01*
X179901190Y-79425880D01*
X180053571Y-79387785D01*
X180320238Y-79387785D01*
X180472619Y-79425880D01*
X180548809Y-79502071D01*
X180586904Y-79578261D01*
X180586904Y-79730642D01*
X180548809Y-79806833D01*
X180472619Y-79883023D01*
X180320238Y-79921119D01*
X180053571Y-79921119D01*
X179901190Y-79883023D01*
X179825000Y-79806833D01*
X179786904Y-79730642D01*
X180586904Y-79044928D02*
X179786904Y-79044928D01*
X180586904Y-78587785D01*
X179786904Y-78587785D01*
X179786904Y-78321119D02*
X179786904Y-77863976D01*
X180586904Y-78092547D02*
X179786904Y-78092547D01*
X187591357Y-80760714D02*
X187629452Y-80646428D01*
X187667547Y-80608333D01*
X187743738Y-80570238D01*
X187858023Y-80570238D01*
X187934214Y-80608333D01*
X187972309Y-80646428D01*
X188010404Y-80722619D01*
X188010404Y-81027380D01*
X187210404Y-81027380D01*
X187210404Y-80760714D01*
X187248500Y-80684523D01*
X187286595Y-80646428D01*
X187362785Y-80608333D01*
X187438976Y-80608333D01*
X187515166Y-80646428D01*
X187553261Y-80684523D01*
X187591357Y-80760714D01*
X187591357Y-81027380D01*
X187781833Y-80265476D02*
X187781833Y-79884523D01*
X188010404Y-80341666D02*
X187210404Y-80075000D01*
X188010404Y-79808333D01*
X187934214Y-79084523D02*
X187972309Y-79122619D01*
X188010404Y-79236904D01*
X188010404Y-79313095D01*
X187972309Y-79427380D01*
X187896119Y-79503571D01*
X187819928Y-79541666D01*
X187667547Y-79579761D01*
X187553261Y-79579761D01*
X187400880Y-79541666D01*
X187324690Y-79503571D01*
X187248500Y-79427380D01*
X187210404Y-79313095D01*
X187210404Y-79236904D01*
X187248500Y-79122619D01*
X187286595Y-79084523D01*
X188010404Y-78741666D02*
X187210404Y-78741666D01*
X188010404Y-78284523D02*
X187553261Y-78627380D01*
X187210404Y-78284523D02*
X187667547Y-78741666D01*
X193536904Y-111875000D02*
X193536904Y-111722619D01*
X193575000Y-111646428D01*
X193651190Y-111570238D01*
X193803571Y-111532142D01*
X194070238Y-111532142D01*
X194222619Y-111570238D01*
X194298809Y-111646428D01*
X194336904Y-111722619D01*
X194336904Y-111875000D01*
X194298809Y-111951190D01*
X194222619Y-112027380D01*
X194070238Y-112065476D01*
X193803571Y-112065476D01*
X193651190Y-112027380D01*
X193575000Y-111951190D01*
X193536904Y-111875000D01*
X193536904Y-111189285D02*
X194184523Y-111189285D01*
X194260714Y-111151190D01*
X194298809Y-111113095D01*
X194336904Y-111036904D01*
X194336904Y-110884523D01*
X194298809Y-110808333D01*
X194260714Y-110770238D01*
X194184523Y-110732142D01*
X193536904Y-110732142D01*
X193536904Y-110465476D02*
X193536904Y-110008333D01*
X194336904Y-110236904D02*
X193536904Y-110236904D01*
%LPC*%
G36*
G01*
X172924000Y-87103828D02*
X172924000Y-82346172D01*
G75*
G02*
X173196172Y-82074000I272172J0D01*
G01*
X173903828Y-82074000D01*
G75*
G02*
X174176000Y-82346172I0J-272172D01*
G01*
X174176000Y-87103828D01*
G75*
G02*
X173903828Y-87376000I-272172J0D01*
G01*
X173196172Y-87376000D01*
G75*
G02*
X172924000Y-87103828I0J272172D01*
G01*
G37*
G36*
G01*
X170674000Y-87103828D02*
X170674000Y-82346172D01*
G75*
G02*
X170946172Y-82074000I272172J0D01*
G01*
X171653828Y-82074000D01*
G75*
G02*
X171926000Y-82346172I0J-272172D01*
G01*
X171926000Y-87103828D01*
G75*
G02*
X171653828Y-87376000I-272172J0D01*
G01*
X170946172Y-87376000D01*
G75*
G02*
X170674000Y-87103828I0J272172D01*
G01*
G37*
D19*
X166143000Y-88215000D03*
G36*
G01*
X167893000Y-88766000D02*
X166893000Y-88766000D01*
G75*
G02*
X166842000Y-88715000I0J51000D01*
G01*
X166842000Y-87715000D01*
G75*
G02*
X166893000Y-87664000I51000J0D01*
G01*
X167893000Y-87664000D01*
G75*
G02*
X167944000Y-87715000I0J-51000D01*
G01*
X167944000Y-88715000D01*
G75*
G02*
X167893000Y-88766000I-51000J0D01*
G01*
G37*
G36*
G01*
X176074000Y-81150001D02*
X176074000Y-79949999D01*
G75*
G02*
X176124999Y-79899000I50999J0D01*
G01*
X177325001Y-79899000D01*
G75*
G02*
X177376000Y-79949999I0J-50999D01*
G01*
X177376000Y-81150001D01*
G75*
G02*
X177325001Y-81201000I-50999J0D01*
G01*
X176124999Y-81201000D01*
G75*
G02*
X176074000Y-81150001I0J50999D01*
G01*
G37*
G36*
G01*
X176925000Y-82999000D02*
X178525000Y-82999000D01*
G75*
G02*
X178576000Y-83050000I0J-51000D01*
G01*
X178576000Y-84550000D01*
G75*
G02*
X178525000Y-84601000I-51000J0D01*
G01*
X176925000Y-84601000D01*
G75*
G02*
X176874000Y-84550000I0J51000D01*
G01*
X176874000Y-83050000D01*
G75*
G02*
X176925000Y-82999000I51000J0D01*
G01*
G37*
G36*
G01*
X178074000Y-81150001D02*
X178074000Y-79949999D01*
G75*
G02*
X178124999Y-79899000I50999J0D01*
G01*
X179325001Y-79899000D01*
G75*
G02*
X179376000Y-79949999I0J-50999D01*
G01*
X179376000Y-81150001D01*
G75*
G02*
X179325001Y-81201000I-50999J0D01*
G01*
X178124999Y-81201000D01*
G75*
G02*
X178074000Y-81150001I0J50999D01*
G01*
G37*
G36*
G01*
X195276000Y-92599999D02*
X195276000Y-93800001D01*
G75*
G02*
X195225001Y-93851000I-50999J0D01*
G01*
X194024999Y-93851000D01*
G75*
G02*
X193974000Y-93800001I0J50999D01*
G01*
X193974000Y-92599999D01*
G75*
G02*
X194024999Y-92549000I50999J0D01*
G01*
X195225001Y-92549000D01*
G75*
G02*
X195276000Y-92599999I0J-50999D01*
G01*
G37*
G36*
G01*
X194425000Y-90751000D02*
X192825000Y-90751000D01*
G75*
G02*
X192774000Y-90700000I0J51000D01*
G01*
X192774000Y-89200000D01*
G75*
G02*
X192825000Y-89149000I51000J0D01*
G01*
X194425000Y-89149000D01*
G75*
G02*
X194476000Y-89200000I0J-51000D01*
G01*
X194476000Y-90700000D01*
G75*
G02*
X194425000Y-90751000I-51000J0D01*
G01*
G37*
G36*
G01*
X193276000Y-92599999D02*
X193276000Y-93800001D01*
G75*
G02*
X193225001Y-93851000I-50999J0D01*
G01*
X192024999Y-93851000D01*
G75*
G02*
X191974000Y-93800001I0J50999D01*
G01*
X191974000Y-92599999D01*
G75*
G02*
X192024999Y-92549000I50999J0D01*
G01*
X193225001Y-92549000D01*
G75*
G02*
X193276000Y-92599999I0J-50999D01*
G01*
G37*
G36*
G01*
X180976000Y-104429500D02*
X180976000Y-104820500D01*
G75*
G02*
X180810500Y-104986000I-165500J0D01*
G01*
X180479500Y-104986000D01*
G75*
G02*
X180314000Y-104820500I0J165500D01*
G01*
X180314000Y-104429500D01*
G75*
G02*
X180479500Y-104264000I165500J0D01*
G01*
X180810500Y-104264000D01*
G75*
G02*
X180976000Y-104429500I0J-165500D01*
G01*
G37*
G36*
G01*
X181936000Y-104429500D02*
X181936000Y-104820500D01*
G75*
G02*
X181770500Y-104986000I-165500J0D01*
G01*
X181439500Y-104986000D01*
G75*
G02*
X181274000Y-104820500I0J165500D01*
G01*
X181274000Y-104429500D01*
G75*
G02*
X181439500Y-104264000I165500J0D01*
G01*
X181770500Y-104264000D01*
G75*
G02*
X181936000Y-104429500I0J-165500D01*
G01*
G37*
G36*
G01*
X177814500Y-103014000D02*
X178235500Y-103014000D01*
G75*
G02*
X178396000Y-103174500I0J-160500D01*
G01*
X178396000Y-103495500D01*
G75*
G02*
X178235500Y-103656000I-160500J0D01*
G01*
X177814500Y-103656000D01*
G75*
G02*
X177654000Y-103495500I0J160500D01*
G01*
X177654000Y-103174500D01*
G75*
G02*
X177814500Y-103014000I160500J0D01*
G01*
G37*
G36*
G01*
X177814500Y-101994000D02*
X178235500Y-101994000D01*
G75*
G02*
X178396000Y-102154500I0J-160500D01*
G01*
X178396000Y-102475500D01*
G75*
G02*
X178235500Y-102636000I-160500J0D01*
G01*
X177814500Y-102636000D01*
G75*
G02*
X177654000Y-102475500I0J160500D01*
G01*
X177654000Y-102154500D01*
G75*
G02*
X177814500Y-101994000I160500J0D01*
G01*
G37*
G36*
G01*
X177036000Y-78114500D02*
X177036000Y-78535500D01*
G75*
G02*
X176875500Y-78696000I-160500J0D01*
G01*
X176554500Y-78696000D01*
G75*
G02*
X176394000Y-78535500I0J160500D01*
G01*
X176394000Y-78114500D01*
G75*
G02*
X176554500Y-77954000I160500J0D01*
G01*
X176875500Y-77954000D01*
G75*
G02*
X177036000Y-78114500I0J-160500D01*
G01*
G37*
G36*
G01*
X178056000Y-78114500D02*
X178056000Y-78535500D01*
G75*
G02*
X177895500Y-78696000I-160500J0D01*
G01*
X177574500Y-78696000D01*
G75*
G02*
X177414000Y-78535500I0J160500D01*
G01*
X177414000Y-78114500D01*
G75*
G02*
X177574500Y-77954000I160500J0D01*
G01*
X177895500Y-77954000D01*
G75*
G02*
X178056000Y-78114500I0J-160500D01*
G01*
G37*
G36*
G01*
X194835500Y-95736000D02*
X194414500Y-95736000D01*
G75*
G02*
X194254000Y-95575500I0J160500D01*
G01*
X194254000Y-95254500D01*
G75*
G02*
X194414500Y-95094000I160500J0D01*
G01*
X194835500Y-95094000D01*
G75*
G02*
X194996000Y-95254500I0J-160500D01*
G01*
X194996000Y-95575500D01*
G75*
G02*
X194835500Y-95736000I-160500J0D01*
G01*
G37*
G36*
G01*
X194835500Y-96756000D02*
X194414500Y-96756000D01*
G75*
G02*
X194254000Y-96595500I0J160500D01*
G01*
X194254000Y-96274500D01*
G75*
G02*
X194414500Y-96114000I160500J0D01*
G01*
X194835500Y-96114000D01*
G75*
G02*
X194996000Y-96274500I0J-160500D01*
G01*
X194996000Y-96595500D01*
G75*
G02*
X194835500Y-96756000I-160500J0D01*
G01*
G37*
G36*
G01*
X187174000Y-104570500D02*
X187174000Y-104179500D01*
G75*
G02*
X187339500Y-104014000I165500J0D01*
G01*
X187670500Y-104014000D01*
G75*
G02*
X187836000Y-104179500I0J-165500D01*
G01*
X187836000Y-104570500D01*
G75*
G02*
X187670500Y-104736000I-165500J0D01*
G01*
X187339500Y-104736000D01*
G75*
G02*
X187174000Y-104570500I0J165500D01*
G01*
G37*
G36*
G01*
X186214000Y-104570500D02*
X186214000Y-104179500D01*
G75*
G02*
X186379500Y-104014000I165500J0D01*
G01*
X186710500Y-104014000D01*
G75*
G02*
X186876000Y-104179500I0J-165500D01*
G01*
X186876000Y-104570500D01*
G75*
G02*
X186710500Y-104736000I-165500J0D01*
G01*
X186379500Y-104736000D01*
G75*
G02*
X186214000Y-104570500I0J165500D01*
G01*
G37*
G36*
G01*
X169174500Y-84349000D02*
X169775500Y-84349000D01*
G75*
G02*
X170001000Y-84574500I0J-225500D01*
G01*
X170001000Y-85025500D01*
G75*
G02*
X169775500Y-85251000I-225500J0D01*
G01*
X169174500Y-85251000D01*
G75*
G02*
X168949000Y-85025500I0J225500D01*
G01*
X168949000Y-84574500D01*
G75*
G02*
X169174500Y-84349000I225500J0D01*
G01*
G37*
G36*
G01*
X169174500Y-82699000D02*
X169775500Y-82699000D01*
G75*
G02*
X170001000Y-82924500I0J-225500D01*
G01*
X170001000Y-83375500D01*
G75*
G02*
X169775500Y-83601000I-225500J0D01*
G01*
X169174500Y-83601000D01*
G75*
G02*
X168949000Y-83375500I0J225500D01*
G01*
X168949000Y-82924500D01*
G75*
G02*
X169174500Y-82699000I225500J0D01*
G01*
G37*
G36*
G01*
X167279000Y-105564000D02*
X167279000Y-102914000D01*
G75*
G02*
X167330000Y-102863000I51000J0D01*
G01*
X168180000Y-102863000D01*
G75*
G02*
X168231000Y-102914000I0J-51000D01*
G01*
X168231000Y-105564000D01*
G75*
G02*
X168180000Y-105615000I-51000J0D01*
G01*
X167330000Y-105615000D01*
G75*
G02*
X167279000Y-105564000I0J51000D01*
G01*
G37*
G36*
G01*
X165779000Y-105564000D02*
X165779000Y-102914000D01*
G75*
G02*
X165830000Y-102863000I51000J0D01*
G01*
X166680000Y-102863000D01*
G75*
G02*
X166731000Y-102914000I0J-51000D01*
G01*
X166731000Y-105564000D01*
G75*
G02*
X166680000Y-105615000I-51000J0D01*
G01*
X165830000Y-105615000D01*
G75*
G02*
X165779000Y-105564000I0J51000D01*
G01*
G37*
G36*
G01*
X164279000Y-105564000D02*
X164279000Y-102914000D01*
G75*
G02*
X164330000Y-102863000I51000J0D01*
G01*
X165180000Y-102863000D01*
G75*
G02*
X165231000Y-102914000I0J-51000D01*
G01*
X165231000Y-105564000D01*
G75*
G02*
X165180000Y-105615000I-51000J0D01*
G01*
X164330000Y-105615000D01*
G75*
G02*
X164279000Y-105564000I0J51000D01*
G01*
G37*
G36*
G01*
X167279000Y-102114000D02*
X167279000Y-98564000D01*
G75*
G02*
X167330000Y-98513000I51000J0D01*
G01*
X168180000Y-98513000D01*
G75*
G02*
X168231000Y-98564000I0J-51000D01*
G01*
X168231000Y-102114000D01*
G75*
G02*
X168180000Y-102165000I-51000J0D01*
G01*
X167330000Y-102165000D01*
G75*
G02*
X167279000Y-102114000I0J51000D01*
G01*
G37*
G36*
G01*
X165779000Y-102114000D02*
X165779000Y-98564000D01*
G75*
G02*
X165830000Y-98513000I51000J0D01*
G01*
X166680000Y-98513000D01*
G75*
G02*
X166731000Y-98564000I0J-51000D01*
G01*
X166731000Y-102114000D01*
G75*
G02*
X166680000Y-102165000I-51000J0D01*
G01*
X165830000Y-102165000D01*
G75*
G02*
X165779000Y-102114000I0J51000D01*
G01*
G37*
G36*
G01*
X164279000Y-102114000D02*
X164279000Y-98564000D01*
G75*
G02*
X164330000Y-98513000I51000J0D01*
G01*
X165180000Y-98513000D01*
G75*
G02*
X165231000Y-98564000I0J-51000D01*
G01*
X165231000Y-102114000D01*
G75*
G02*
X165180000Y-102165000I-51000J0D01*
G01*
X164330000Y-102165000D01*
G75*
G02*
X164279000Y-102114000I0J51000D01*
G01*
G37*
G36*
G01*
X171179000Y-102114000D02*
X171179000Y-98564000D01*
G75*
G02*
X171230000Y-98513000I51000J0D01*
G01*
X172080000Y-98513000D01*
G75*
G02*
X172131000Y-98564000I0J-51000D01*
G01*
X172131000Y-102114000D01*
G75*
G02*
X172080000Y-102165000I-51000J0D01*
G01*
X171230000Y-102165000D01*
G75*
G02*
X171179000Y-102114000I0J51000D01*
G01*
G37*
G36*
G01*
X172679000Y-102114000D02*
X172679000Y-98564000D01*
G75*
G02*
X172730000Y-98513000I51000J0D01*
G01*
X173580000Y-98513000D01*
G75*
G02*
X173631000Y-98564000I0J-51000D01*
G01*
X173631000Y-102114000D01*
G75*
G02*
X173580000Y-102165000I-51000J0D01*
G01*
X172730000Y-102165000D01*
G75*
G02*
X172679000Y-102114000I0J51000D01*
G01*
G37*
G36*
G01*
X174179000Y-102114000D02*
X174179000Y-98564000D01*
G75*
G02*
X174230000Y-98513000I51000J0D01*
G01*
X175080000Y-98513000D01*
G75*
G02*
X175131000Y-98564000I0J-51000D01*
G01*
X175131000Y-102114000D01*
G75*
G02*
X175080000Y-102165000I-51000J0D01*
G01*
X174230000Y-102165000D01*
G75*
G02*
X174179000Y-102114000I0J51000D01*
G01*
G37*
G36*
G01*
X171179000Y-105564000D02*
X171179000Y-102914000D01*
G75*
G02*
X171230000Y-102863000I51000J0D01*
G01*
X172080000Y-102863000D01*
G75*
G02*
X172131000Y-102914000I0J-51000D01*
G01*
X172131000Y-105564000D01*
G75*
G02*
X172080000Y-105615000I-51000J0D01*
G01*
X171230000Y-105615000D01*
G75*
G02*
X171179000Y-105564000I0J51000D01*
G01*
G37*
G36*
G01*
X172679000Y-105564000D02*
X172679000Y-102914000D01*
G75*
G02*
X172730000Y-102863000I51000J0D01*
G01*
X173580000Y-102863000D01*
G75*
G02*
X173631000Y-102914000I0J-51000D01*
G01*
X173631000Y-105564000D01*
G75*
G02*
X173580000Y-105615000I-51000J0D01*
G01*
X172730000Y-105615000D01*
G75*
G02*
X172679000Y-105564000I0J51000D01*
G01*
G37*
G36*
G01*
X174179000Y-105564000D02*
X174179000Y-102914000D01*
G75*
G02*
X174230000Y-102863000I51000J0D01*
G01*
X175080000Y-102863000D01*
G75*
G02*
X175131000Y-102914000I0J-51000D01*
G01*
X175131000Y-105564000D01*
G75*
G02*
X175080000Y-105615000I-51000J0D01*
G01*
X174230000Y-105615000D01*
G75*
G02*
X174179000Y-105564000I0J51000D01*
G01*
G37*
X175225000Y-111925000D03*
X176475000Y-111925000D03*
X177725000Y-111925000D03*
X178975000Y-111925000D03*
G36*
G01*
X180185500Y-102636000D02*
X179764500Y-102636000D01*
G75*
G02*
X179604000Y-102475500I0J160500D01*
G01*
X179604000Y-102154500D01*
G75*
G02*
X179764500Y-101994000I160500J0D01*
G01*
X180185500Y-101994000D01*
G75*
G02*
X180346000Y-102154500I0J-160500D01*
G01*
X180346000Y-102475500D01*
G75*
G02*
X180185500Y-102636000I-160500J0D01*
G01*
G37*
G36*
G01*
X180185500Y-103656000D02*
X179764500Y-103656000D01*
G75*
G02*
X179604000Y-103495500I0J160500D01*
G01*
X179604000Y-103174500D01*
G75*
G02*
X179764500Y-103014000I160500J0D01*
G01*
X180185500Y-103014000D01*
G75*
G02*
X180346000Y-103174500I0J-160500D01*
G01*
X180346000Y-103495500D01*
G75*
G02*
X180185500Y-103656000I-160500J0D01*
G01*
G37*
G36*
G01*
X175924500Y-86999000D02*
X176525500Y-86999000D01*
G75*
G02*
X176751000Y-87224500I0J-225500D01*
G01*
X176751000Y-87675500D01*
G75*
G02*
X176525500Y-87901000I-225500J0D01*
G01*
X175924500Y-87901000D01*
G75*
G02*
X175699000Y-87675500I0J225500D01*
G01*
X175699000Y-87224500D01*
G75*
G02*
X175924500Y-86999000I225500J0D01*
G01*
G37*
G36*
G01*
X175924500Y-85349000D02*
X176525500Y-85349000D01*
G75*
G02*
X176751000Y-85574500I0J-225500D01*
G01*
X176751000Y-86025500D01*
G75*
G02*
X176525500Y-86251000I-225500J0D01*
G01*
X175924500Y-86251000D01*
G75*
G02*
X175699000Y-86025500I0J225500D01*
G01*
X175699000Y-85574500D01*
G75*
G02*
X175924500Y-85349000I225500J0D01*
G01*
G37*
G36*
G01*
X184280750Y-110734000D02*
X183717250Y-110734000D01*
G75*
G02*
X183473000Y-110489750I0J244250D01*
G01*
X183473000Y-110001250D01*
G75*
G02*
X183717250Y-109757000I244250J0D01*
G01*
X184280750Y-109757000D01*
G75*
G02*
X184525000Y-110001250I0J-244250D01*
G01*
X184525000Y-110489750D01*
G75*
G02*
X184280750Y-110734000I-244250J0D01*
G01*
G37*
G36*
G01*
X184280750Y-112309000D02*
X183717250Y-112309000D01*
G75*
G02*
X183473000Y-112064750I0J244250D01*
G01*
X183473000Y-111576250D01*
G75*
G02*
X183717250Y-111332000I244250J0D01*
G01*
X184280750Y-111332000D01*
G75*
G02*
X184525000Y-111576250I0J-244250D01*
G01*
X184525000Y-112064750D01*
G75*
G02*
X184280750Y-112309000I-244250J0D01*
G01*
G37*
G36*
G01*
X186174750Y-110734000D02*
X185611250Y-110734000D01*
G75*
G02*
X185367000Y-110489750I0J244250D01*
G01*
X185367000Y-110001250D01*
G75*
G02*
X185611250Y-109757000I244250J0D01*
G01*
X186174750Y-109757000D01*
G75*
G02*
X186419000Y-110001250I0J-244250D01*
G01*
X186419000Y-110489750D01*
G75*
G02*
X186174750Y-110734000I-244250J0D01*
G01*
G37*
G36*
G01*
X186174750Y-112309000D02*
X185611250Y-112309000D01*
G75*
G02*
X185367000Y-112064750I0J244250D01*
G01*
X185367000Y-111576250D01*
G75*
G02*
X185611250Y-111332000I244250J0D01*
G01*
X186174750Y-111332000D01*
G75*
G02*
X186419000Y-111576250I0J-244250D01*
G01*
X186419000Y-112064750D01*
G75*
G02*
X186174750Y-112309000I-244250J0D01*
G01*
G37*
G36*
G01*
X182406750Y-110726000D02*
X181843250Y-110726000D01*
G75*
G02*
X181599000Y-110481750I0J244250D01*
G01*
X181599000Y-109993250D01*
G75*
G02*
X181843250Y-109749000I244250J0D01*
G01*
X182406750Y-109749000D01*
G75*
G02*
X182651000Y-109993250I0J-244250D01*
G01*
X182651000Y-110481750D01*
G75*
G02*
X182406750Y-110726000I-244250J0D01*
G01*
G37*
G36*
G01*
X182406750Y-112301000D02*
X181843250Y-112301000D01*
G75*
G02*
X181599000Y-112056750I0J244250D01*
G01*
X181599000Y-111568250D01*
G75*
G02*
X181843250Y-111324000I244250J0D01*
G01*
X182406750Y-111324000D01*
G75*
G02*
X182651000Y-111568250I0J-244250D01*
G01*
X182651000Y-112056750D01*
G75*
G02*
X182406750Y-112301000I-244250J0D01*
G01*
G37*
G36*
G01*
X184914500Y-102464000D02*
X185335500Y-102464000D01*
G75*
G02*
X185496000Y-102624500I0J-160500D01*
G01*
X185496000Y-102945500D01*
G75*
G02*
X185335500Y-103106000I-160500J0D01*
G01*
X184914500Y-103106000D01*
G75*
G02*
X184754000Y-102945500I0J160500D01*
G01*
X184754000Y-102624500D01*
G75*
G02*
X184914500Y-102464000I160500J0D01*
G01*
G37*
G36*
G01*
X184914500Y-101444000D02*
X185335500Y-101444000D01*
G75*
G02*
X185496000Y-101604500I0J-160500D01*
G01*
X185496000Y-101925500D01*
G75*
G02*
X185335500Y-102086000I-160500J0D01*
G01*
X184914500Y-102086000D01*
G75*
G02*
X184754000Y-101925500I0J160500D01*
G01*
X184754000Y-101604500D01*
G75*
G02*
X184914500Y-101444000I160500J0D01*
G01*
G37*
G36*
G01*
X185964500Y-102464000D02*
X186385500Y-102464000D01*
G75*
G02*
X186546000Y-102624500I0J-160500D01*
G01*
X186546000Y-102945500D01*
G75*
G02*
X186385500Y-103106000I-160500J0D01*
G01*
X185964500Y-103106000D01*
G75*
G02*
X185804000Y-102945500I0J160500D01*
G01*
X185804000Y-102624500D01*
G75*
G02*
X185964500Y-102464000I160500J0D01*
G01*
G37*
G36*
G01*
X185964500Y-101444000D02*
X186385500Y-101444000D01*
G75*
G02*
X186546000Y-101604500I0J-160500D01*
G01*
X186546000Y-101925500D01*
G75*
G02*
X186385500Y-102086000I-160500J0D01*
G01*
X185964500Y-102086000D01*
G75*
G02*
X185804000Y-101925500I0J160500D01*
G01*
X185804000Y-101604500D01*
G75*
G02*
X185964500Y-101444000I160500J0D01*
G01*
G37*
G36*
G01*
X186006000Y-88579500D02*
X186006000Y-88970500D01*
G75*
G02*
X185840500Y-89136000I-165500J0D01*
G01*
X185509500Y-89136000D01*
G75*
G02*
X185344000Y-88970500I0J165500D01*
G01*
X185344000Y-88579500D01*
G75*
G02*
X185509500Y-88414000I165500J0D01*
G01*
X185840500Y-88414000D01*
G75*
G02*
X186006000Y-88579500I0J-165500D01*
G01*
G37*
G36*
G01*
X186966000Y-88579500D02*
X186966000Y-88970500D01*
G75*
G02*
X186800500Y-89136000I-165500J0D01*
G01*
X186469500Y-89136000D01*
G75*
G02*
X186304000Y-88970500I0J165500D01*
G01*
X186304000Y-88579500D01*
G75*
G02*
X186469500Y-88414000I165500J0D01*
G01*
X186800500Y-88414000D01*
G75*
G02*
X186966000Y-88579500I0J-165500D01*
G01*
G37*
G36*
G01*
X185850500Y-87026000D02*
X185459500Y-87026000D01*
G75*
G02*
X185294000Y-86860500I0J165500D01*
G01*
X185294000Y-86529500D01*
G75*
G02*
X185459500Y-86364000I165500J0D01*
G01*
X185850500Y-86364000D01*
G75*
G02*
X186016000Y-86529500I0J-165500D01*
G01*
X186016000Y-86860500D01*
G75*
G02*
X185850500Y-87026000I-165500J0D01*
G01*
G37*
G36*
G01*
X185850500Y-87986000D02*
X185459500Y-87986000D01*
G75*
G02*
X185294000Y-87820500I0J165500D01*
G01*
X185294000Y-87489500D01*
G75*
G02*
X185459500Y-87324000I165500J0D01*
G01*
X185850500Y-87324000D01*
G75*
G02*
X186016000Y-87489500I0J-165500D01*
G01*
X186016000Y-87820500D01*
G75*
G02*
X185850500Y-87986000I-165500J0D01*
G01*
G37*
G36*
G01*
X193794000Y-88070500D02*
X193794000Y-87679500D01*
G75*
G02*
X193959500Y-87514000I165500J0D01*
G01*
X194290500Y-87514000D01*
G75*
G02*
X194456000Y-87679500I0J-165500D01*
G01*
X194456000Y-88070500D01*
G75*
G02*
X194290500Y-88236000I-165500J0D01*
G01*
X193959500Y-88236000D01*
G75*
G02*
X193794000Y-88070500I0J165500D01*
G01*
G37*
G36*
G01*
X192834000Y-88070500D02*
X192834000Y-87679500D01*
G75*
G02*
X192999500Y-87514000I165500J0D01*
G01*
X193330500Y-87514000D01*
G75*
G02*
X193496000Y-87679500I0J-165500D01*
G01*
X193496000Y-88070500D01*
G75*
G02*
X193330500Y-88236000I-165500J0D01*
G01*
X192999500Y-88236000D01*
G75*
G02*
X192834000Y-88070500I0J165500D01*
G01*
G37*
G36*
G01*
X193804000Y-87070500D02*
X193804000Y-86679500D01*
G75*
G02*
X193969500Y-86514000I165500J0D01*
G01*
X194300500Y-86514000D01*
G75*
G02*
X194466000Y-86679500I0J-165500D01*
G01*
X194466000Y-87070500D01*
G75*
G02*
X194300500Y-87236000I-165500J0D01*
G01*
X193969500Y-87236000D01*
G75*
G02*
X193804000Y-87070500I0J165500D01*
G01*
G37*
G36*
G01*
X192844000Y-87070500D02*
X192844000Y-86679500D01*
G75*
G02*
X193009500Y-86514000I165500J0D01*
G01*
X193340500Y-86514000D01*
G75*
G02*
X193506000Y-86679500I0J-165500D01*
G01*
X193506000Y-87070500D01*
G75*
G02*
X193340500Y-87236000I-165500J0D01*
G01*
X193009500Y-87236000D01*
G75*
G02*
X192844000Y-87070500I0J165500D01*
G01*
G37*
G36*
G01*
X186850500Y-87026000D02*
X186459500Y-87026000D01*
G75*
G02*
X186294000Y-86860500I0J165500D01*
G01*
X186294000Y-86529500D01*
G75*
G02*
X186459500Y-86364000I165500J0D01*
G01*
X186850500Y-86364000D01*
G75*
G02*
X187016000Y-86529500I0J-165500D01*
G01*
X187016000Y-86860500D01*
G75*
G02*
X186850500Y-87026000I-165500J0D01*
G01*
G37*
G36*
G01*
X186850500Y-87986000D02*
X186459500Y-87986000D01*
G75*
G02*
X186294000Y-87820500I0J165500D01*
G01*
X186294000Y-87489500D01*
G75*
G02*
X186459500Y-87324000I165500J0D01*
G01*
X186850500Y-87324000D01*
G75*
G02*
X187016000Y-87489500I0J-165500D01*
G01*
X187016000Y-87820500D01*
G75*
G02*
X186850500Y-87986000I-165500J0D01*
G01*
G37*
G36*
G01*
X181204999Y-93274000D02*
X183905001Y-93274000D01*
G75*
G02*
X183956000Y-93324999I0J-50999D01*
G01*
X183956000Y-96025001D01*
G75*
G02*
X183905001Y-96076000I-50999J0D01*
G01*
X181204999Y-96076000D01*
G75*
G02*
X181154000Y-96025001I0J50999D01*
G01*
X181154000Y-93324999D01*
G75*
G02*
X181204999Y-93274000I50999J0D01*
G01*
G37*
G36*
G01*
X184080000Y-93724000D02*
X184930000Y-93724000D01*
G75*
G02*
X184981000Y-93775000I0J-51000D01*
G01*
X184981000Y-94075000D01*
G75*
G02*
X184930000Y-94126000I-51000J0D01*
G01*
X184080000Y-94126000D01*
G75*
G02*
X184029000Y-94075000I0J51000D01*
G01*
X184029000Y-93775000D01*
G75*
G02*
X184080000Y-93724000I51000J0D01*
G01*
G37*
G36*
G01*
X184080000Y-94224000D02*
X184930000Y-94224000D01*
G75*
G02*
X184981000Y-94275000I0J-51000D01*
G01*
X184981000Y-94575000D01*
G75*
G02*
X184930000Y-94626000I-51000J0D01*
G01*
X184080000Y-94626000D01*
G75*
G02*
X184029000Y-94575000I0J51000D01*
G01*
X184029000Y-94275000D01*
G75*
G02*
X184080000Y-94224000I51000J0D01*
G01*
G37*
G36*
G01*
X184080000Y-94724000D02*
X184930000Y-94724000D01*
G75*
G02*
X184981000Y-94775000I0J-51000D01*
G01*
X184981000Y-95075000D01*
G75*
G02*
X184930000Y-95126000I-51000J0D01*
G01*
X184080000Y-95126000D01*
G75*
G02*
X184029000Y-95075000I0J51000D01*
G01*
X184029000Y-94775000D01*
G75*
G02*
X184080000Y-94724000I51000J0D01*
G01*
G37*
G36*
G01*
X184080000Y-95224000D02*
X184930000Y-95224000D01*
G75*
G02*
X184981000Y-95275000I0J-51000D01*
G01*
X184981000Y-95575000D01*
G75*
G02*
X184930000Y-95626000I-51000J0D01*
G01*
X184080000Y-95626000D01*
G75*
G02*
X184029000Y-95575000I0J51000D01*
G01*
X184029000Y-95275000D01*
G75*
G02*
X184080000Y-95224000I51000J0D01*
G01*
G37*
G36*
G01*
X183104000Y-97050000D02*
X183104000Y-96200000D01*
G75*
G02*
X183155000Y-96149000I51000J0D01*
G01*
X183455000Y-96149000D01*
G75*
G02*
X183506000Y-96200000I0J-51000D01*
G01*
X183506000Y-97050000D01*
G75*
G02*
X183455000Y-97101000I-51000J0D01*
G01*
X183155000Y-97101000D01*
G75*
G02*
X183104000Y-97050000I0J51000D01*
G01*
G37*
G36*
G01*
X182604000Y-97050000D02*
X182604000Y-96200000D01*
G75*
G02*
X182655000Y-96149000I51000J0D01*
G01*
X182955000Y-96149000D01*
G75*
G02*
X183006000Y-96200000I0J-51000D01*
G01*
X183006000Y-97050000D01*
G75*
G02*
X182955000Y-97101000I-51000J0D01*
G01*
X182655000Y-97101000D01*
G75*
G02*
X182604000Y-97050000I0J51000D01*
G01*
G37*
G36*
G01*
X182104000Y-97050000D02*
X182104000Y-96200000D01*
G75*
G02*
X182155000Y-96149000I51000J0D01*
G01*
X182455000Y-96149000D01*
G75*
G02*
X182506000Y-96200000I0J-51000D01*
G01*
X182506000Y-97050000D01*
G75*
G02*
X182455000Y-97101000I-51000J0D01*
G01*
X182155000Y-97101000D01*
G75*
G02*
X182104000Y-97050000I0J51000D01*
G01*
G37*
G36*
G01*
X181604000Y-97050000D02*
X181604000Y-96200000D01*
G75*
G02*
X181655000Y-96149000I51000J0D01*
G01*
X181955000Y-96149000D01*
G75*
G02*
X182006000Y-96200000I0J-51000D01*
G01*
X182006000Y-97050000D01*
G75*
G02*
X181955000Y-97101000I-51000J0D01*
G01*
X181655000Y-97101000D01*
G75*
G02*
X181604000Y-97050000I0J51000D01*
G01*
G37*
G36*
G01*
X180180000Y-95224000D02*
X181030000Y-95224000D01*
G75*
G02*
X181081000Y-95275000I0J-51000D01*
G01*
X181081000Y-95575000D01*
G75*
G02*
X181030000Y-95626000I-51000J0D01*
G01*
X180180000Y-95626000D01*
G75*
G02*
X180129000Y-95575000I0J51000D01*
G01*
X180129000Y-95275000D01*
G75*
G02*
X180180000Y-95224000I51000J0D01*
G01*
G37*
G36*
G01*
X180180000Y-94724000D02*
X181030000Y-94724000D01*
G75*
G02*
X181081000Y-94775000I0J-51000D01*
G01*
X181081000Y-95075000D01*
G75*
G02*
X181030000Y-95126000I-51000J0D01*
G01*
X180180000Y-95126000D01*
G75*
G02*
X180129000Y-95075000I0J51000D01*
G01*
X180129000Y-94775000D01*
G75*
G02*
X180180000Y-94724000I51000J0D01*
G01*
G37*
G36*
G01*
X180180000Y-94224000D02*
X181030000Y-94224000D01*
G75*
G02*
X181081000Y-94275000I0J-51000D01*
G01*
X181081000Y-94575000D01*
G75*
G02*
X181030000Y-94626000I-51000J0D01*
G01*
X180180000Y-94626000D01*
G75*
G02*
X180129000Y-94575000I0J51000D01*
G01*
X180129000Y-94275000D01*
G75*
G02*
X180180000Y-94224000I51000J0D01*
G01*
G37*
G36*
G01*
X180180000Y-93724000D02*
X181030000Y-93724000D01*
G75*
G02*
X181081000Y-93775000I0J-51000D01*
G01*
X181081000Y-94075000D01*
G75*
G02*
X181030000Y-94126000I-51000J0D01*
G01*
X180180000Y-94126000D01*
G75*
G02*
X180129000Y-94075000I0J51000D01*
G01*
X180129000Y-93775000D01*
G75*
G02*
X180180000Y-93724000I51000J0D01*
G01*
G37*
G36*
G01*
X181604000Y-93150000D02*
X181604000Y-92300000D01*
G75*
G02*
X181655000Y-92249000I51000J0D01*
G01*
X181955000Y-92249000D01*
G75*
G02*
X182006000Y-92300000I0J-51000D01*
G01*
X182006000Y-93150000D01*
G75*
G02*
X181955000Y-93201000I-51000J0D01*
G01*
X181655000Y-93201000D01*
G75*
G02*
X181604000Y-93150000I0J51000D01*
G01*
G37*
G36*
G01*
X182104000Y-93150000D02*
X182104000Y-92300000D01*
G75*
G02*
X182155000Y-92249000I51000J0D01*
G01*
X182455000Y-92249000D01*
G75*
G02*
X182506000Y-92300000I0J-51000D01*
G01*
X182506000Y-93150000D01*
G75*
G02*
X182455000Y-93201000I-51000J0D01*
G01*
X182155000Y-93201000D01*
G75*
G02*
X182104000Y-93150000I0J51000D01*
G01*
G37*
G36*
G01*
X182604000Y-93150000D02*
X182604000Y-92300000D01*
G75*
G02*
X182655000Y-92249000I51000J0D01*
G01*
X182955000Y-92249000D01*
G75*
G02*
X183006000Y-92300000I0J-51000D01*
G01*
X183006000Y-93150000D01*
G75*
G02*
X182955000Y-93201000I-51000J0D01*
G01*
X182655000Y-93201000D01*
G75*
G02*
X182604000Y-93150000I0J51000D01*
G01*
G37*
G36*
G01*
X183104000Y-93150000D02*
X183104000Y-92300000D01*
G75*
G02*
X183155000Y-92249000I51000J0D01*
G01*
X183455000Y-92249000D01*
G75*
G02*
X183506000Y-92300000I0J-51000D01*
G01*
X183506000Y-93150000D01*
G75*
G02*
X183455000Y-93201000I-51000J0D01*
G01*
X183155000Y-93201000D01*
G75*
G02*
X183104000Y-93150000I0J51000D01*
G01*
G37*
G36*
G01*
X188564999Y-86404000D02*
X191265001Y-86404000D01*
G75*
G02*
X191316000Y-86454999I0J-50999D01*
G01*
X191316000Y-89155001D01*
G75*
G02*
X191265001Y-89206000I-50999J0D01*
G01*
X188564999Y-89206000D01*
G75*
G02*
X188514000Y-89155001I0J50999D01*
G01*
X188514000Y-86454999D01*
G75*
G02*
X188564999Y-86404000I50999J0D01*
G01*
G37*
G36*
G01*
X191440000Y-86604000D02*
X192290000Y-86604000D01*
G75*
G02*
X192341000Y-86655000I0J-51000D01*
G01*
X192341000Y-87005000D01*
G75*
G02*
X192290000Y-87056000I-51000J0D01*
G01*
X191440000Y-87056000D01*
G75*
G02*
X191389000Y-87005000I0J51000D01*
G01*
X191389000Y-86655000D01*
G75*
G02*
X191440000Y-86604000I51000J0D01*
G01*
G37*
G36*
G01*
X191440000Y-87254000D02*
X192290000Y-87254000D01*
G75*
G02*
X192341000Y-87305000I0J-51000D01*
G01*
X192341000Y-87655000D01*
G75*
G02*
X192290000Y-87706000I-51000J0D01*
G01*
X191440000Y-87706000D01*
G75*
G02*
X191389000Y-87655000I0J51000D01*
G01*
X191389000Y-87305000D01*
G75*
G02*
X191440000Y-87254000I51000J0D01*
G01*
G37*
G36*
G01*
X191440000Y-87904000D02*
X192290000Y-87904000D01*
G75*
G02*
X192341000Y-87955000I0J-51000D01*
G01*
X192341000Y-88305000D01*
G75*
G02*
X192290000Y-88356000I-51000J0D01*
G01*
X191440000Y-88356000D01*
G75*
G02*
X191389000Y-88305000I0J51000D01*
G01*
X191389000Y-87955000D01*
G75*
G02*
X191440000Y-87904000I51000J0D01*
G01*
G37*
G36*
G01*
X191440000Y-88554000D02*
X192290000Y-88554000D01*
G75*
G02*
X192341000Y-88605000I0J-51000D01*
G01*
X192341000Y-88955000D01*
G75*
G02*
X192290000Y-89006000I-51000J0D01*
G01*
X191440000Y-89006000D01*
G75*
G02*
X191389000Y-88955000I0J51000D01*
G01*
X191389000Y-88605000D01*
G75*
G02*
X191440000Y-88554000I51000J0D01*
G01*
G37*
G36*
G01*
X190664000Y-90180000D02*
X190664000Y-89330000D01*
G75*
G02*
X190715000Y-89279000I51000J0D01*
G01*
X191065000Y-89279000D01*
G75*
G02*
X191116000Y-89330000I0J-51000D01*
G01*
X191116000Y-90180000D01*
G75*
G02*
X191065000Y-90231000I-51000J0D01*
G01*
X190715000Y-90231000D01*
G75*
G02*
X190664000Y-90180000I0J51000D01*
G01*
G37*
G36*
G01*
X190014000Y-90180000D02*
X190014000Y-89330000D01*
G75*
G02*
X190065000Y-89279000I51000J0D01*
G01*
X190415000Y-89279000D01*
G75*
G02*
X190466000Y-89330000I0J-51000D01*
G01*
X190466000Y-90180000D01*
G75*
G02*
X190415000Y-90231000I-51000J0D01*
G01*
X190065000Y-90231000D01*
G75*
G02*
X190014000Y-90180000I0J51000D01*
G01*
G37*
G36*
G01*
X189364000Y-90180000D02*
X189364000Y-89330000D01*
G75*
G02*
X189415000Y-89279000I51000J0D01*
G01*
X189765000Y-89279000D01*
G75*
G02*
X189816000Y-89330000I0J-51000D01*
G01*
X189816000Y-90180000D01*
G75*
G02*
X189765000Y-90231000I-51000J0D01*
G01*
X189415000Y-90231000D01*
G75*
G02*
X189364000Y-90180000I0J51000D01*
G01*
G37*
G36*
G01*
X188714000Y-90180000D02*
X188714000Y-89330000D01*
G75*
G02*
X188765000Y-89279000I51000J0D01*
G01*
X189115000Y-89279000D01*
G75*
G02*
X189166000Y-89330000I0J-51000D01*
G01*
X189166000Y-90180000D01*
G75*
G02*
X189115000Y-90231000I-51000J0D01*
G01*
X188765000Y-90231000D01*
G75*
G02*
X188714000Y-90180000I0J51000D01*
G01*
G37*
G36*
G01*
X187540000Y-88554000D02*
X188390000Y-88554000D01*
G75*
G02*
X188441000Y-88605000I0J-51000D01*
G01*
X188441000Y-88955000D01*
G75*
G02*
X188390000Y-89006000I-51000J0D01*
G01*
X187540000Y-89006000D01*
G75*
G02*
X187489000Y-88955000I0J51000D01*
G01*
X187489000Y-88605000D01*
G75*
G02*
X187540000Y-88554000I51000J0D01*
G01*
G37*
G36*
G01*
X187540000Y-87904000D02*
X188390000Y-87904000D01*
G75*
G02*
X188441000Y-87955000I0J-51000D01*
G01*
X188441000Y-88305000D01*
G75*
G02*
X188390000Y-88356000I-51000J0D01*
G01*
X187540000Y-88356000D01*
G75*
G02*
X187489000Y-88305000I0J51000D01*
G01*
X187489000Y-87955000D01*
G75*
G02*
X187540000Y-87904000I51000J0D01*
G01*
G37*
G36*
G01*
X187540000Y-87254000D02*
X188390000Y-87254000D01*
G75*
G02*
X188441000Y-87305000I0J-51000D01*
G01*
X188441000Y-87655000D01*
G75*
G02*
X188390000Y-87706000I-51000J0D01*
G01*
X187540000Y-87706000D01*
G75*
G02*
X187489000Y-87655000I0J51000D01*
G01*
X187489000Y-87305000D01*
G75*
G02*
X187540000Y-87254000I51000J0D01*
G01*
G37*
G36*
G01*
X187540000Y-86604000D02*
X188390000Y-86604000D01*
G75*
G02*
X188441000Y-86655000I0J-51000D01*
G01*
X188441000Y-87005000D01*
G75*
G02*
X188390000Y-87056000I-51000J0D01*
G01*
X187540000Y-87056000D01*
G75*
G02*
X187489000Y-87005000I0J51000D01*
G01*
X187489000Y-86655000D01*
G75*
G02*
X187540000Y-86604000I51000J0D01*
G01*
G37*
G36*
G01*
X188714000Y-86280000D02*
X188714000Y-85430000D01*
G75*
G02*
X188765000Y-85379000I51000J0D01*
G01*
X189115000Y-85379000D01*
G75*
G02*
X189166000Y-85430000I0J-51000D01*
G01*
X189166000Y-86280000D01*
G75*
G02*
X189115000Y-86331000I-51000J0D01*
G01*
X188765000Y-86331000D01*
G75*
G02*
X188714000Y-86280000I0J51000D01*
G01*
G37*
G36*
G01*
X189364000Y-86280000D02*
X189364000Y-85430000D01*
G75*
G02*
X189415000Y-85379000I51000J0D01*
G01*
X189765000Y-85379000D01*
G75*
G02*
X189816000Y-85430000I0J-51000D01*
G01*
X189816000Y-86280000D01*
G75*
G02*
X189765000Y-86331000I-51000J0D01*
G01*
X189415000Y-86331000D01*
G75*
G02*
X189364000Y-86280000I0J51000D01*
G01*
G37*
G36*
G01*
X190014000Y-86280000D02*
X190014000Y-85430000D01*
G75*
G02*
X190065000Y-85379000I51000J0D01*
G01*
X190415000Y-85379000D01*
G75*
G02*
X190466000Y-85430000I0J-51000D01*
G01*
X190466000Y-86280000D01*
G75*
G02*
X190415000Y-86331000I-51000J0D01*
G01*
X190065000Y-86331000D01*
G75*
G02*
X190014000Y-86280000I0J51000D01*
G01*
G37*
G36*
G01*
X190664000Y-86280000D02*
X190664000Y-85430000D01*
G75*
G02*
X190715000Y-85379000I51000J0D01*
G01*
X191065000Y-85379000D01*
G75*
G02*
X191116000Y-85430000I0J-51000D01*
G01*
X191116000Y-86280000D01*
G75*
G02*
X191065000Y-86331000I-51000J0D01*
G01*
X190715000Y-86331000D01*
G75*
G02*
X190664000Y-86280000I0J51000D01*
G01*
G37*
G36*
G01*
X165056000Y-83534000D02*
X166006000Y-83534000D01*
G75*
G02*
X166057000Y-83585000I0J-51000D01*
G01*
X166057000Y-83985000D01*
G75*
G02*
X166006000Y-84036000I-51000J0D01*
G01*
X165056000Y-84036000D01*
G75*
G02*
X165005000Y-83985000I0J51000D01*
G01*
X165005000Y-83585000D01*
G75*
G02*
X165056000Y-83534000I51000J0D01*
G01*
G37*
G36*
G01*
X165056000Y-82884000D02*
X166006000Y-82884000D01*
G75*
G02*
X166057000Y-82935000I0J-51000D01*
G01*
X166057000Y-83335000D01*
G75*
G02*
X166006000Y-83386000I-51000J0D01*
G01*
X165056000Y-83386000D01*
G75*
G02*
X165005000Y-83335000I0J51000D01*
G01*
X165005000Y-82935000D01*
G75*
G02*
X165056000Y-82884000I51000J0D01*
G01*
G37*
G36*
G01*
X165056000Y-82234000D02*
X166006000Y-82234000D01*
G75*
G02*
X166057000Y-82285000I0J-51000D01*
G01*
X166057000Y-82685000D01*
G75*
G02*
X166006000Y-82736000I-51000J0D01*
G01*
X165056000Y-82736000D01*
G75*
G02*
X165005000Y-82685000I0J51000D01*
G01*
X165005000Y-82285000D01*
G75*
G02*
X165056000Y-82234000I51000J0D01*
G01*
G37*
G36*
G01*
X167256000Y-82234000D02*
X168206000Y-82234000D01*
G75*
G02*
X168257000Y-82285000I0J-51000D01*
G01*
X168257000Y-82685000D01*
G75*
G02*
X168206000Y-82736000I-51000J0D01*
G01*
X167256000Y-82736000D01*
G75*
G02*
X167205000Y-82685000I0J51000D01*
G01*
X167205000Y-82285000D01*
G75*
G02*
X167256000Y-82234000I51000J0D01*
G01*
G37*
G36*
G01*
X167256000Y-82884000D02*
X168206000Y-82884000D01*
G75*
G02*
X168257000Y-82935000I0J-51000D01*
G01*
X168257000Y-83335000D01*
G75*
G02*
X168206000Y-83386000I-51000J0D01*
G01*
X167256000Y-83386000D01*
G75*
G02*
X167205000Y-83335000I0J51000D01*
G01*
X167205000Y-82935000D01*
G75*
G02*
X167256000Y-82884000I51000J0D01*
G01*
G37*
G36*
G01*
X167256000Y-83534000D02*
X168206000Y-83534000D01*
G75*
G02*
X168257000Y-83585000I0J-51000D01*
G01*
X168257000Y-83985000D01*
G75*
G02*
X168206000Y-84036000I-51000J0D01*
G01*
X167256000Y-84036000D01*
G75*
G02*
X167205000Y-83985000I0J51000D01*
G01*
X167205000Y-83585000D01*
G75*
G02*
X167256000Y-83534000I51000J0D01*
G01*
G37*
G36*
G01*
X190144500Y-106064000D02*
X190565500Y-106064000D01*
G75*
G02*
X190726000Y-106224500I0J-160500D01*
G01*
X190726000Y-106545500D01*
G75*
G02*
X190565500Y-106706000I-160500J0D01*
G01*
X190144500Y-106706000D01*
G75*
G02*
X189984000Y-106545500I0J160500D01*
G01*
X189984000Y-106224500D01*
G75*
G02*
X190144500Y-106064000I160500J0D01*
G01*
G37*
G36*
G01*
X190144500Y-105044000D02*
X190565500Y-105044000D01*
G75*
G02*
X190726000Y-105204500I0J-160500D01*
G01*
X190726000Y-105525500D01*
G75*
G02*
X190565500Y-105686000I-160500J0D01*
G01*
X190144500Y-105686000D01*
G75*
G02*
X189984000Y-105525500I0J160500D01*
G01*
X189984000Y-105204500D01*
G75*
G02*
X190144500Y-105044000I160500J0D01*
G01*
G37*
G36*
G01*
X190666000Y-104164500D02*
X190666000Y-104585500D01*
G75*
G02*
X190505500Y-104746000I-160500J0D01*
G01*
X190184500Y-104746000D01*
G75*
G02*
X190024000Y-104585500I0J160500D01*
G01*
X190024000Y-104164500D01*
G75*
G02*
X190184500Y-104004000I160500J0D01*
G01*
X190505500Y-104004000D01*
G75*
G02*
X190666000Y-104164500I0J-160500D01*
G01*
G37*
G36*
G01*
X191686000Y-104164500D02*
X191686000Y-104585500D01*
G75*
G02*
X191525500Y-104746000I-160500J0D01*
G01*
X191204500Y-104746000D01*
G75*
G02*
X191044000Y-104585500I0J160500D01*
G01*
X191044000Y-104164500D01*
G75*
G02*
X191204500Y-104004000I160500J0D01*
G01*
X191525500Y-104004000D01*
G75*
G02*
X191686000Y-104164500I0J-160500D01*
G01*
G37*
G36*
G01*
X188766000Y-106164500D02*
X188766000Y-106585500D01*
G75*
G02*
X188605500Y-106746000I-160500J0D01*
G01*
X188284500Y-106746000D01*
G75*
G02*
X188124000Y-106585500I0J160500D01*
G01*
X188124000Y-106164500D01*
G75*
G02*
X188284500Y-106004000I160500J0D01*
G01*
X188605500Y-106004000D01*
G75*
G02*
X188766000Y-106164500I0J-160500D01*
G01*
G37*
G36*
G01*
X189786000Y-106164500D02*
X189786000Y-106585500D01*
G75*
G02*
X189625500Y-106746000I-160500J0D01*
G01*
X189304500Y-106746000D01*
G75*
G02*
X189144000Y-106585500I0J160500D01*
G01*
X189144000Y-106164500D01*
G75*
G02*
X189304500Y-106004000I160500J0D01*
G01*
X189625500Y-106004000D01*
G75*
G02*
X189786000Y-106164500I0J-160500D01*
G01*
G37*
G36*
G01*
X188766000Y-104164500D02*
X188766000Y-104585500D01*
G75*
G02*
X188605500Y-104746000I-160500J0D01*
G01*
X188284500Y-104746000D01*
G75*
G02*
X188124000Y-104585500I0J160500D01*
G01*
X188124000Y-104164500D01*
G75*
G02*
X188284500Y-104004000I160500J0D01*
G01*
X188605500Y-104004000D01*
G75*
G02*
X188766000Y-104164500I0J-160500D01*
G01*
G37*
G36*
G01*
X189786000Y-104164500D02*
X189786000Y-104585500D01*
G75*
G02*
X189625500Y-104746000I-160500J0D01*
G01*
X189304500Y-104746000D01*
G75*
G02*
X189144000Y-104585500I0J160500D01*
G01*
X189144000Y-104164500D01*
G75*
G02*
X189304500Y-104004000I160500J0D01*
G01*
X189625500Y-104004000D01*
G75*
G02*
X189786000Y-104164500I0J-160500D01*
G01*
G37*
G36*
G01*
X188644000Y-96485500D02*
X188644000Y-96064500D01*
G75*
G02*
X188804500Y-95904000I160500J0D01*
G01*
X189125500Y-95904000D01*
G75*
G02*
X189286000Y-96064500I0J-160500D01*
G01*
X189286000Y-96485500D01*
G75*
G02*
X189125500Y-96646000I-160500J0D01*
G01*
X188804500Y-96646000D01*
G75*
G02*
X188644000Y-96485500I0J160500D01*
G01*
G37*
G36*
G01*
X187624000Y-96485500D02*
X187624000Y-96064500D01*
G75*
G02*
X187784500Y-95904000I160500J0D01*
G01*
X188105500Y-95904000D01*
G75*
G02*
X188266000Y-96064500I0J-160500D01*
G01*
X188266000Y-96485500D01*
G75*
G02*
X188105500Y-96646000I-160500J0D01*
G01*
X187784500Y-96646000D01*
G75*
G02*
X187624000Y-96485500I0J160500D01*
G01*
G37*
G36*
G01*
X191844000Y-96485500D02*
X191844000Y-96064500D01*
G75*
G02*
X192004500Y-95904000I160500J0D01*
G01*
X192325500Y-95904000D01*
G75*
G02*
X192486000Y-96064500I0J-160500D01*
G01*
X192486000Y-96485500D01*
G75*
G02*
X192325500Y-96646000I-160500J0D01*
G01*
X192004500Y-96646000D01*
G75*
G02*
X191844000Y-96485500I0J160500D01*
G01*
G37*
G36*
G01*
X190824000Y-96485500D02*
X190824000Y-96064500D01*
G75*
G02*
X190984500Y-95904000I160500J0D01*
G01*
X191305500Y-95904000D01*
G75*
G02*
X191466000Y-96064500I0J-160500D01*
G01*
X191466000Y-96485500D01*
G75*
G02*
X191305500Y-96646000I-160500J0D01*
G01*
X190984500Y-96646000D01*
G75*
G02*
X190824000Y-96485500I0J160500D01*
G01*
G37*
G36*
G01*
X180604000Y-83485500D02*
X180604000Y-83064500D01*
G75*
G02*
X180764500Y-82904000I160500J0D01*
G01*
X181085500Y-82904000D01*
G75*
G02*
X181246000Y-83064500I0J-160500D01*
G01*
X181246000Y-83485500D01*
G75*
G02*
X181085500Y-83646000I-160500J0D01*
G01*
X180764500Y-83646000D01*
G75*
G02*
X180604000Y-83485500I0J160500D01*
G01*
G37*
G36*
G01*
X179584000Y-83485500D02*
X179584000Y-83064500D01*
G75*
G02*
X179744500Y-82904000I160500J0D01*
G01*
X180065500Y-82904000D01*
G75*
G02*
X180226000Y-83064500I0J-160500D01*
G01*
X180226000Y-83485500D01*
G75*
G02*
X180065500Y-83646000I-160500J0D01*
G01*
X179744500Y-83646000D01*
G75*
G02*
X179584000Y-83485500I0J160500D01*
G01*
G37*
G36*
G01*
X187984000Y-83485500D02*
X187984000Y-83064500D01*
G75*
G02*
X188144500Y-82904000I160500J0D01*
G01*
X188465500Y-82904000D01*
G75*
G02*
X188626000Y-83064500I0J-160500D01*
G01*
X188626000Y-83485500D01*
G75*
G02*
X188465500Y-83646000I-160500J0D01*
G01*
X188144500Y-83646000D01*
G75*
G02*
X187984000Y-83485500I0J160500D01*
G01*
G37*
G36*
G01*
X186964000Y-83485500D02*
X186964000Y-83064500D01*
G75*
G02*
X187124500Y-82904000I160500J0D01*
G01*
X187445500Y-82904000D01*
G75*
G02*
X187606000Y-83064500I0J-160500D01*
G01*
X187606000Y-83485500D01*
G75*
G02*
X187445500Y-83646000I-160500J0D01*
G01*
X187124500Y-83646000D01*
G75*
G02*
X186964000Y-83485500I0J160500D01*
G01*
G37*
G36*
G01*
X185186000Y-84154500D02*
X185186000Y-84575500D01*
G75*
G02*
X185025500Y-84736000I-160500J0D01*
G01*
X184704500Y-84736000D01*
G75*
G02*
X184544000Y-84575500I0J160500D01*
G01*
X184544000Y-84154500D01*
G75*
G02*
X184704500Y-83994000I160500J0D01*
G01*
X185025500Y-83994000D01*
G75*
G02*
X185186000Y-84154500I0J-160500D01*
G01*
G37*
G36*
G01*
X186206000Y-84154500D02*
X186206000Y-84575500D01*
G75*
G02*
X186045500Y-84736000I-160500J0D01*
G01*
X185724500Y-84736000D01*
G75*
G02*
X185564000Y-84575500I0J160500D01*
G01*
X185564000Y-84154500D01*
G75*
G02*
X185724500Y-83994000I160500J0D01*
G01*
X186045500Y-83994000D01*
G75*
G02*
X186206000Y-84154500I0J-160500D01*
G01*
G37*
G36*
G01*
X192666000Y-84104500D02*
X192666000Y-84525500D01*
G75*
G02*
X192505500Y-84686000I-160500J0D01*
G01*
X192184500Y-84686000D01*
G75*
G02*
X192024000Y-84525500I0J160500D01*
G01*
X192024000Y-84104500D01*
G75*
G02*
X192184500Y-83944000I160500J0D01*
G01*
X192505500Y-83944000D01*
G75*
G02*
X192666000Y-84104500I0J-160500D01*
G01*
G37*
G36*
G01*
X193686000Y-84104500D02*
X193686000Y-84525500D01*
G75*
G02*
X193525500Y-84686000I-160500J0D01*
G01*
X193204500Y-84686000D01*
G75*
G02*
X193044000Y-84525500I0J160500D01*
G01*
X193044000Y-84104500D01*
G75*
G02*
X193204500Y-83944000I160500J0D01*
G01*
X193525500Y-83944000D01*
G75*
G02*
X193686000Y-84104500I0J-160500D01*
G01*
G37*
G36*
G01*
X183985500Y-82616000D02*
X183564500Y-82616000D01*
G75*
G02*
X183404000Y-82455500I0J160500D01*
G01*
X183404000Y-82134500D01*
G75*
G02*
X183564500Y-81974000I160500J0D01*
G01*
X183985500Y-81974000D01*
G75*
G02*
X184146000Y-82134500I0J-160500D01*
G01*
X184146000Y-82455500D01*
G75*
G02*
X183985500Y-82616000I-160500J0D01*
G01*
G37*
G36*
G01*
X183985500Y-83636000D02*
X183564500Y-83636000D01*
G75*
G02*
X183404000Y-83475500I0J160500D01*
G01*
X183404000Y-83154500D01*
G75*
G02*
X183564500Y-82994000I160500J0D01*
G01*
X183985500Y-82994000D01*
G75*
G02*
X184146000Y-83154500I0J-160500D01*
G01*
X184146000Y-83475500D01*
G75*
G02*
X183985500Y-83636000I-160500J0D01*
G01*
G37*
G36*
G01*
X191425500Y-82586000D02*
X191004500Y-82586000D01*
G75*
G02*
X190844000Y-82425500I0J160500D01*
G01*
X190844000Y-82104500D01*
G75*
G02*
X191004500Y-81944000I160500J0D01*
G01*
X191425500Y-81944000D01*
G75*
G02*
X191586000Y-82104500I0J-160500D01*
G01*
X191586000Y-82425500D01*
G75*
G02*
X191425500Y-82586000I-160500J0D01*
G01*
G37*
G36*
G01*
X191425500Y-83606000D02*
X191004500Y-83606000D01*
G75*
G02*
X190844000Y-83445500I0J160500D01*
G01*
X190844000Y-83124500D01*
G75*
G02*
X191004500Y-82964000I160500J0D01*
G01*
X191425500Y-82964000D01*
G75*
G02*
X191586000Y-83124500I0J-160500D01*
G01*
X191586000Y-83445500D01*
G75*
G02*
X191425500Y-83606000I-160500J0D01*
G01*
G37*
G36*
G01*
X191257000Y-106014000D02*
X191653000Y-106014000D01*
G75*
G02*
X191826000Y-106187000I0J-173000D01*
G01*
X191826000Y-106533000D01*
G75*
G02*
X191653000Y-106706000I-173000J0D01*
G01*
X191257000Y-106706000D01*
G75*
G02*
X191084000Y-106533000I0J173000D01*
G01*
X191084000Y-106187000D01*
G75*
G02*
X191257000Y-106014000I173000J0D01*
G01*
G37*
G36*
G01*
X191257000Y-105044000D02*
X191653000Y-105044000D01*
G75*
G02*
X191826000Y-105217000I0J-173000D01*
G01*
X191826000Y-105563000D01*
G75*
G02*
X191653000Y-105736000I-173000J0D01*
G01*
X191257000Y-105736000D01*
G75*
G02*
X191084000Y-105563000I0J173000D01*
G01*
X191084000Y-105217000D01*
G75*
G02*
X191257000Y-105044000I173000J0D01*
G01*
G37*
G36*
G01*
X184657000Y-82944000D02*
X185053000Y-82944000D01*
G75*
G02*
X185226000Y-83117000I0J-173000D01*
G01*
X185226000Y-83463000D01*
G75*
G02*
X185053000Y-83636000I-173000J0D01*
G01*
X184657000Y-83636000D01*
G75*
G02*
X184484000Y-83463000I0J173000D01*
G01*
X184484000Y-83117000D01*
G75*
G02*
X184657000Y-82944000I173000J0D01*
G01*
G37*
G36*
G01*
X184657000Y-81974000D02*
X185053000Y-81974000D01*
G75*
G02*
X185226000Y-82147000I0J-173000D01*
G01*
X185226000Y-82493000D01*
G75*
G02*
X185053000Y-82666000I-173000J0D01*
G01*
X184657000Y-82666000D01*
G75*
G02*
X184484000Y-82493000I0J173000D01*
G01*
X184484000Y-82147000D01*
G75*
G02*
X184657000Y-81974000I173000J0D01*
G01*
G37*
G36*
G01*
X192157000Y-82914000D02*
X192553000Y-82914000D01*
G75*
G02*
X192726000Y-83087000I0J-173000D01*
G01*
X192726000Y-83433000D01*
G75*
G02*
X192553000Y-83606000I-173000J0D01*
G01*
X192157000Y-83606000D01*
G75*
G02*
X191984000Y-83433000I0J173000D01*
G01*
X191984000Y-83087000D01*
G75*
G02*
X192157000Y-82914000I173000J0D01*
G01*
G37*
G36*
G01*
X192157000Y-81944000D02*
X192553000Y-81944000D01*
G75*
G02*
X192726000Y-82117000I0J-173000D01*
G01*
X192726000Y-82463000D01*
G75*
G02*
X192553000Y-82636000I-173000J0D01*
G01*
X192157000Y-82636000D01*
G75*
G02*
X191984000Y-82463000I0J173000D01*
G01*
X191984000Y-82117000D01*
G75*
G02*
X192157000Y-81944000I173000J0D01*
G01*
G37*
G36*
G01*
X188059600Y-99328600D02*
X190650400Y-99328600D01*
G75*
G02*
X190701400Y-99379600I0J-51000D01*
G01*
X190701400Y-101970400D01*
G75*
G02*
X190650400Y-102021400I-51000J0D01*
G01*
X188059600Y-102021400D01*
G75*
G02*
X188008600Y-101970400I0J51000D01*
G01*
X188008600Y-99379600D01*
G75*
G02*
X188059600Y-99328600I51000J0D01*
G01*
G37*
G36*
G01*
X190955200Y-99496601D02*
X191564800Y-99496601D01*
G75*
G02*
X191615800Y-99547601I0J-51000D01*
G01*
X191615800Y-99852401D01*
G75*
G02*
X191564800Y-99903401I-51000J0D01*
G01*
X190955200Y-99903401D01*
G75*
G02*
X190904200Y-99852401I0J51000D01*
G01*
X190904200Y-99547601D01*
G75*
G02*
X190955200Y-99496601I51000J0D01*
G01*
G37*
G36*
G01*
X190955200Y-100146599D02*
X191564800Y-100146599D01*
G75*
G02*
X191615800Y-100197599I0J-51000D01*
G01*
X191615800Y-100502399D01*
G75*
G02*
X191564800Y-100553399I-51000J0D01*
G01*
X190955200Y-100553399D01*
G75*
G02*
X190904200Y-100502399I0J51000D01*
G01*
X190904200Y-100197599D01*
G75*
G02*
X190955200Y-100146599I51000J0D01*
G01*
G37*
G36*
G01*
X190955200Y-100796601D02*
X191564800Y-100796601D01*
G75*
G02*
X191615800Y-100847601I0J-51000D01*
G01*
X191615800Y-101152401D01*
G75*
G02*
X191564800Y-101203401I-51000J0D01*
G01*
X190955200Y-101203401D01*
G75*
G02*
X190904200Y-101152401I0J51000D01*
G01*
X190904200Y-100847601D01*
G75*
G02*
X190955200Y-100796601I51000J0D01*
G01*
G37*
G36*
G01*
X190955200Y-101446599D02*
X191564800Y-101446599D01*
G75*
G02*
X191615800Y-101497599I0J-51000D01*
G01*
X191615800Y-101802399D01*
G75*
G02*
X191564800Y-101853399I-51000J0D01*
G01*
X190955200Y-101853399D01*
G75*
G02*
X190904200Y-101802399I0J51000D01*
G01*
X190904200Y-101497599D01*
G75*
G02*
X190955200Y-101446599I51000J0D01*
G01*
G37*
G36*
G01*
X190126599Y-102884800D02*
X190126599Y-102275200D01*
G75*
G02*
X190177599Y-102224200I51000J0D01*
G01*
X190482399Y-102224200D01*
G75*
G02*
X190533399Y-102275200I0J-51000D01*
G01*
X190533399Y-102884800D01*
G75*
G02*
X190482399Y-102935800I-51000J0D01*
G01*
X190177599Y-102935800D01*
G75*
G02*
X190126599Y-102884800I0J51000D01*
G01*
G37*
G36*
G01*
X189476601Y-102884800D02*
X189476601Y-102275200D01*
G75*
G02*
X189527601Y-102224200I51000J0D01*
G01*
X189832401Y-102224200D01*
G75*
G02*
X189883401Y-102275200I0J-51000D01*
G01*
X189883401Y-102884800D01*
G75*
G02*
X189832401Y-102935800I-51000J0D01*
G01*
X189527601Y-102935800D01*
G75*
G02*
X189476601Y-102884800I0J51000D01*
G01*
G37*
G36*
G01*
X188826599Y-102884800D02*
X188826599Y-102275200D01*
G75*
G02*
X188877599Y-102224200I51000J0D01*
G01*
X189182399Y-102224200D01*
G75*
G02*
X189233399Y-102275200I0J-51000D01*
G01*
X189233399Y-102884800D01*
G75*
G02*
X189182399Y-102935800I-51000J0D01*
G01*
X188877599Y-102935800D01*
G75*
G02*
X188826599Y-102884800I0J51000D01*
G01*
G37*
G36*
G01*
X188176601Y-102884800D02*
X188176601Y-102275200D01*
G75*
G02*
X188227601Y-102224200I51000J0D01*
G01*
X188532401Y-102224200D01*
G75*
G02*
X188583401Y-102275200I0J-51000D01*
G01*
X188583401Y-102884800D01*
G75*
G02*
X188532401Y-102935800I-51000J0D01*
G01*
X188227601Y-102935800D01*
G75*
G02*
X188176601Y-102884800I0J51000D01*
G01*
G37*
G36*
G01*
X187145200Y-101446599D02*
X187754800Y-101446599D01*
G75*
G02*
X187805800Y-101497599I0J-51000D01*
G01*
X187805800Y-101802399D01*
G75*
G02*
X187754800Y-101853399I-51000J0D01*
G01*
X187145200Y-101853399D01*
G75*
G02*
X187094200Y-101802399I0J51000D01*
G01*
X187094200Y-101497599D01*
G75*
G02*
X187145200Y-101446599I51000J0D01*
G01*
G37*
G36*
G01*
X187145200Y-100796601D02*
X187754800Y-100796601D01*
G75*
G02*
X187805800Y-100847601I0J-51000D01*
G01*
X187805800Y-101152401D01*
G75*
G02*
X187754800Y-101203401I-51000J0D01*
G01*
X187145200Y-101203401D01*
G75*
G02*
X187094200Y-101152401I0J51000D01*
G01*
X187094200Y-100847601D01*
G75*
G02*
X187145200Y-100796601I51000J0D01*
G01*
G37*
G36*
G01*
X187145200Y-100146599D02*
X187754800Y-100146599D01*
G75*
G02*
X187805800Y-100197599I0J-51000D01*
G01*
X187805800Y-100502399D01*
G75*
G02*
X187754800Y-100553399I-51000J0D01*
G01*
X187145200Y-100553399D01*
G75*
G02*
X187094200Y-100502399I0J51000D01*
G01*
X187094200Y-100197599D01*
G75*
G02*
X187145200Y-100146599I51000J0D01*
G01*
G37*
G36*
G01*
X187145200Y-99496601D02*
X187754800Y-99496601D01*
G75*
G02*
X187805800Y-99547601I0J-51000D01*
G01*
X187805800Y-99852401D01*
G75*
G02*
X187754800Y-99903401I-51000J0D01*
G01*
X187145200Y-99903401D01*
G75*
G02*
X187094200Y-99852401I0J51000D01*
G01*
X187094200Y-99547601D01*
G75*
G02*
X187145200Y-99496601I51000J0D01*
G01*
G37*
G36*
G01*
X188176601Y-99074800D02*
X188176601Y-98465200D01*
G75*
G02*
X188227601Y-98414200I51000J0D01*
G01*
X188532401Y-98414200D01*
G75*
G02*
X188583401Y-98465200I0J-51000D01*
G01*
X188583401Y-99074800D01*
G75*
G02*
X188532401Y-99125800I-51000J0D01*
G01*
X188227601Y-99125800D01*
G75*
G02*
X188176601Y-99074800I0J51000D01*
G01*
G37*
G36*
G01*
X188826599Y-99074800D02*
X188826599Y-98465200D01*
G75*
G02*
X188877599Y-98414200I51000J0D01*
G01*
X189182399Y-98414200D01*
G75*
G02*
X189233399Y-98465200I0J-51000D01*
G01*
X189233399Y-99074800D01*
G75*
G02*
X189182399Y-99125800I-51000J0D01*
G01*
X188877599Y-99125800D01*
G75*
G02*
X188826599Y-99074800I0J51000D01*
G01*
G37*
G36*
G01*
X189476601Y-99074800D02*
X189476601Y-98465200D01*
G75*
G02*
X189527601Y-98414200I51000J0D01*
G01*
X189832401Y-98414200D01*
G75*
G02*
X189883401Y-98465200I0J-51000D01*
G01*
X189883401Y-99074800D01*
G75*
G02*
X189832401Y-99125800I-51000J0D01*
G01*
X189527601Y-99125800D01*
G75*
G02*
X189476601Y-99074800I0J51000D01*
G01*
G37*
G36*
G01*
X190126599Y-99074800D02*
X190126599Y-98465200D01*
G75*
G02*
X190177599Y-98414200I51000J0D01*
G01*
X190482399Y-98414200D01*
G75*
G02*
X190533399Y-98465200I0J-51000D01*
G01*
X190533399Y-99074800D01*
G75*
G02*
X190482399Y-99125800I-51000J0D01*
G01*
X190177599Y-99125800D01*
G75*
G02*
X190126599Y-99074800I0J51000D01*
G01*
G37*
G36*
G01*
X181144999Y-86404000D02*
X183845001Y-86404000D01*
G75*
G02*
X183896000Y-86454999I0J-50999D01*
G01*
X183896000Y-89155001D01*
G75*
G02*
X183845001Y-89206000I-50999J0D01*
G01*
X181144999Y-89206000D01*
G75*
G02*
X181094000Y-89155001I0J50999D01*
G01*
X181094000Y-86454999D01*
G75*
G02*
X181144999Y-86404000I50999J0D01*
G01*
G37*
G36*
G01*
X184020000Y-86604000D02*
X184870000Y-86604000D01*
G75*
G02*
X184921000Y-86655000I0J-51000D01*
G01*
X184921000Y-87005000D01*
G75*
G02*
X184870000Y-87056000I-51000J0D01*
G01*
X184020000Y-87056000D01*
G75*
G02*
X183969000Y-87005000I0J51000D01*
G01*
X183969000Y-86655000D01*
G75*
G02*
X184020000Y-86604000I51000J0D01*
G01*
G37*
G36*
G01*
X184020000Y-87254000D02*
X184870000Y-87254000D01*
G75*
G02*
X184921000Y-87305000I0J-51000D01*
G01*
X184921000Y-87655000D01*
G75*
G02*
X184870000Y-87706000I-51000J0D01*
G01*
X184020000Y-87706000D01*
G75*
G02*
X183969000Y-87655000I0J51000D01*
G01*
X183969000Y-87305000D01*
G75*
G02*
X184020000Y-87254000I51000J0D01*
G01*
G37*
G36*
G01*
X184020000Y-87904000D02*
X184870000Y-87904000D01*
G75*
G02*
X184921000Y-87955000I0J-51000D01*
G01*
X184921000Y-88305000D01*
G75*
G02*
X184870000Y-88356000I-51000J0D01*
G01*
X184020000Y-88356000D01*
G75*
G02*
X183969000Y-88305000I0J51000D01*
G01*
X183969000Y-87955000D01*
G75*
G02*
X184020000Y-87904000I51000J0D01*
G01*
G37*
G36*
G01*
X184020000Y-88554000D02*
X184870000Y-88554000D01*
G75*
G02*
X184921000Y-88605000I0J-51000D01*
G01*
X184921000Y-88955000D01*
G75*
G02*
X184870000Y-89006000I-51000J0D01*
G01*
X184020000Y-89006000D01*
G75*
G02*
X183969000Y-88955000I0J51000D01*
G01*
X183969000Y-88605000D01*
G75*
G02*
X184020000Y-88554000I51000J0D01*
G01*
G37*
G36*
G01*
X183244000Y-90180000D02*
X183244000Y-89330000D01*
G75*
G02*
X183295000Y-89279000I51000J0D01*
G01*
X183645000Y-89279000D01*
G75*
G02*
X183696000Y-89330000I0J-51000D01*
G01*
X183696000Y-90180000D01*
G75*
G02*
X183645000Y-90231000I-51000J0D01*
G01*
X183295000Y-90231000D01*
G75*
G02*
X183244000Y-90180000I0J51000D01*
G01*
G37*
G36*
G01*
X182594000Y-90180000D02*
X182594000Y-89330000D01*
G75*
G02*
X182645000Y-89279000I51000J0D01*
G01*
X182995000Y-89279000D01*
G75*
G02*
X183046000Y-89330000I0J-51000D01*
G01*
X183046000Y-90180000D01*
G75*
G02*
X182995000Y-90231000I-51000J0D01*
G01*
X182645000Y-90231000D01*
G75*
G02*
X182594000Y-90180000I0J51000D01*
G01*
G37*
G36*
G01*
X181944000Y-90180000D02*
X181944000Y-89330000D01*
G75*
G02*
X181995000Y-89279000I51000J0D01*
G01*
X182345000Y-89279000D01*
G75*
G02*
X182396000Y-89330000I0J-51000D01*
G01*
X182396000Y-90180000D01*
G75*
G02*
X182345000Y-90231000I-51000J0D01*
G01*
X181995000Y-90231000D01*
G75*
G02*
X181944000Y-90180000I0J51000D01*
G01*
G37*
G36*
G01*
X181294000Y-90180000D02*
X181294000Y-89330000D01*
G75*
G02*
X181345000Y-89279000I51000J0D01*
G01*
X181695000Y-89279000D01*
G75*
G02*
X181746000Y-89330000I0J-51000D01*
G01*
X181746000Y-90180000D01*
G75*
G02*
X181695000Y-90231000I-51000J0D01*
G01*
X181345000Y-90231000D01*
G75*
G02*
X181294000Y-90180000I0J51000D01*
G01*
G37*
G36*
G01*
X180120000Y-88554000D02*
X180970000Y-88554000D01*
G75*
G02*
X181021000Y-88605000I0J-51000D01*
G01*
X181021000Y-88955000D01*
G75*
G02*
X180970000Y-89006000I-51000J0D01*
G01*
X180120000Y-89006000D01*
G75*
G02*
X180069000Y-88955000I0J51000D01*
G01*
X180069000Y-88605000D01*
G75*
G02*
X180120000Y-88554000I51000J0D01*
G01*
G37*
G36*
G01*
X180120000Y-87904000D02*
X180970000Y-87904000D01*
G75*
G02*
X181021000Y-87955000I0J-51000D01*
G01*
X181021000Y-88305000D01*
G75*
G02*
X180970000Y-88356000I-51000J0D01*
G01*
X180120000Y-88356000D01*
G75*
G02*
X180069000Y-88305000I0J51000D01*
G01*
X180069000Y-87955000D01*
G75*
G02*
X180120000Y-87904000I51000J0D01*
G01*
G37*
G36*
G01*
X180120000Y-87254000D02*
X180970000Y-87254000D01*
G75*
G02*
X181021000Y-87305000I0J-51000D01*
G01*
X181021000Y-87655000D01*
G75*
G02*
X180970000Y-87706000I-51000J0D01*
G01*
X180120000Y-87706000D01*
G75*
G02*
X180069000Y-87655000I0J51000D01*
G01*
X180069000Y-87305000D01*
G75*
G02*
X180120000Y-87254000I51000J0D01*
G01*
G37*
G36*
G01*
X180120000Y-86604000D02*
X180970000Y-86604000D01*
G75*
G02*
X181021000Y-86655000I0J-51000D01*
G01*
X181021000Y-87005000D01*
G75*
G02*
X180970000Y-87056000I-51000J0D01*
G01*
X180120000Y-87056000D01*
G75*
G02*
X180069000Y-87005000I0J51000D01*
G01*
X180069000Y-86655000D01*
G75*
G02*
X180120000Y-86604000I51000J0D01*
G01*
G37*
G36*
G01*
X181294000Y-86280000D02*
X181294000Y-85430000D01*
G75*
G02*
X181345000Y-85379000I51000J0D01*
G01*
X181695000Y-85379000D01*
G75*
G02*
X181746000Y-85430000I0J-51000D01*
G01*
X181746000Y-86280000D01*
G75*
G02*
X181695000Y-86331000I-51000J0D01*
G01*
X181345000Y-86331000D01*
G75*
G02*
X181294000Y-86280000I0J51000D01*
G01*
G37*
G36*
G01*
X181944000Y-86280000D02*
X181944000Y-85430000D01*
G75*
G02*
X181995000Y-85379000I51000J0D01*
G01*
X182345000Y-85379000D01*
G75*
G02*
X182396000Y-85430000I0J-51000D01*
G01*
X182396000Y-86280000D01*
G75*
G02*
X182345000Y-86331000I-51000J0D01*
G01*
X181995000Y-86331000D01*
G75*
G02*
X181944000Y-86280000I0J51000D01*
G01*
G37*
G36*
G01*
X182594000Y-86280000D02*
X182594000Y-85430000D01*
G75*
G02*
X182645000Y-85379000I51000J0D01*
G01*
X182995000Y-85379000D01*
G75*
G02*
X183046000Y-85430000I0J-51000D01*
G01*
X183046000Y-86280000D01*
G75*
G02*
X182995000Y-86331000I-51000J0D01*
G01*
X182645000Y-86331000D01*
G75*
G02*
X182594000Y-86280000I0J51000D01*
G01*
G37*
G36*
G01*
X183244000Y-86280000D02*
X183244000Y-85430000D01*
G75*
G02*
X183295000Y-85379000I51000J0D01*
G01*
X183645000Y-85379000D01*
G75*
G02*
X183696000Y-85430000I0J-51000D01*
G01*
X183696000Y-86280000D01*
G75*
G02*
X183645000Y-86331000I-51000J0D01*
G01*
X183295000Y-86331000D01*
G75*
G02*
X183244000Y-86280000I0J51000D01*
G01*
G37*
G36*
G01*
X190550500Y-107626000D02*
X190159500Y-107626000D01*
G75*
G02*
X189994000Y-107460500I0J165500D01*
G01*
X189994000Y-107129500D01*
G75*
G02*
X190159500Y-106964000I165500J0D01*
G01*
X190550500Y-106964000D01*
G75*
G02*
X190716000Y-107129500I0J-165500D01*
G01*
X190716000Y-107460500D01*
G75*
G02*
X190550500Y-107626000I-165500J0D01*
G01*
G37*
G36*
G01*
X190550500Y-108586000D02*
X190159500Y-108586000D01*
G75*
G02*
X189994000Y-108420500I0J165500D01*
G01*
X189994000Y-108089500D01*
G75*
G02*
X190159500Y-107924000I165500J0D01*
G01*
X190550500Y-107924000D01*
G75*
G02*
X190716000Y-108089500I0J-165500D01*
G01*
X190716000Y-108420500D01*
G75*
G02*
X190550500Y-108586000I-165500J0D01*
G01*
G37*
G36*
G01*
X189104000Y-105570500D02*
X189104000Y-105179500D01*
G75*
G02*
X189269500Y-105014000I165500J0D01*
G01*
X189600500Y-105014000D01*
G75*
G02*
X189766000Y-105179500I0J-165500D01*
G01*
X189766000Y-105570500D01*
G75*
G02*
X189600500Y-105736000I-165500J0D01*
G01*
X189269500Y-105736000D01*
G75*
G02*
X189104000Y-105570500I0J165500D01*
G01*
G37*
G36*
G01*
X188144000Y-105570500D02*
X188144000Y-105179500D01*
G75*
G02*
X188309500Y-105014000I165500J0D01*
G01*
X188640500Y-105014000D01*
G75*
G02*
X188806000Y-105179500I0J-165500D01*
G01*
X188806000Y-105570500D01*
G75*
G02*
X188640500Y-105736000I-165500J0D01*
G01*
X188309500Y-105736000D01*
G75*
G02*
X188144000Y-105570500I0J165500D01*
G01*
G37*
G36*
G01*
X189859500Y-95924000D02*
X190250500Y-95924000D01*
G75*
G02*
X190416000Y-96089500I0J-165500D01*
G01*
X190416000Y-96420500D01*
G75*
G02*
X190250500Y-96586000I-165500J0D01*
G01*
X189859500Y-96586000D01*
G75*
G02*
X189694000Y-96420500I0J165500D01*
G01*
X189694000Y-96089500D01*
G75*
G02*
X189859500Y-95924000I165500J0D01*
G01*
G37*
G36*
G01*
X189859500Y-94964000D02*
X190250500Y-94964000D01*
G75*
G02*
X190416000Y-95129500I0J-165500D01*
G01*
X190416000Y-95460500D01*
G75*
G02*
X190250500Y-95626000I-165500J0D01*
G01*
X189859500Y-95626000D01*
G75*
G02*
X189694000Y-95460500I0J165500D01*
G01*
X189694000Y-95129500D01*
G75*
G02*
X189859500Y-94964000I165500J0D01*
G01*
G37*
G36*
G01*
X189150500Y-94606000D02*
X188759500Y-94606000D01*
G75*
G02*
X188594000Y-94440500I0J165500D01*
G01*
X188594000Y-94109500D01*
G75*
G02*
X188759500Y-93944000I165500J0D01*
G01*
X189150500Y-93944000D01*
G75*
G02*
X189316000Y-94109500I0J-165500D01*
G01*
X189316000Y-94440500D01*
G75*
G02*
X189150500Y-94606000I-165500J0D01*
G01*
G37*
G36*
G01*
X189150500Y-95566000D02*
X188759500Y-95566000D01*
G75*
G02*
X188594000Y-95400500I0J165500D01*
G01*
X188594000Y-95069500D01*
G75*
G02*
X188759500Y-94904000I165500J0D01*
G01*
X189150500Y-94904000D01*
G75*
G02*
X189316000Y-95069500I0J-165500D01*
G01*
X189316000Y-95400500D01*
G75*
G02*
X189150500Y-95566000I-165500J0D01*
G01*
G37*
G36*
G01*
X191350500Y-94626000D02*
X190959500Y-94626000D01*
G75*
G02*
X190794000Y-94460500I0J165500D01*
G01*
X190794000Y-94129500D01*
G75*
G02*
X190959500Y-93964000I165500J0D01*
G01*
X191350500Y-93964000D01*
G75*
G02*
X191516000Y-94129500I0J-165500D01*
G01*
X191516000Y-94460500D01*
G75*
G02*
X191350500Y-94626000I-165500J0D01*
G01*
G37*
G36*
G01*
X191350500Y-95586000D02*
X190959500Y-95586000D01*
G75*
G02*
X190794000Y-95420500I0J165500D01*
G01*
X190794000Y-95089500D01*
G75*
G02*
X190959500Y-94924000I165500J0D01*
G01*
X191350500Y-94924000D01*
G75*
G02*
X191516000Y-95089500I0J-165500D01*
G01*
X191516000Y-95420500D01*
G75*
G02*
X191350500Y-95586000I-165500J0D01*
G01*
G37*
G36*
G01*
X181256000Y-84159500D02*
X181256000Y-84550500D01*
G75*
G02*
X181090500Y-84716000I-165500J0D01*
G01*
X180759500Y-84716000D01*
G75*
G02*
X180594000Y-84550500I0J165500D01*
G01*
X180594000Y-84159500D01*
G75*
G02*
X180759500Y-83994000I165500J0D01*
G01*
X181090500Y-83994000D01*
G75*
G02*
X181256000Y-84159500I0J-165500D01*
G01*
G37*
G36*
G01*
X182216000Y-84159500D02*
X182216000Y-84550500D01*
G75*
G02*
X182050500Y-84716000I-165500J0D01*
G01*
X181719500Y-84716000D01*
G75*
G02*
X181554000Y-84550500I0J165500D01*
G01*
X181554000Y-84159500D01*
G75*
G02*
X181719500Y-83994000I165500J0D01*
G01*
X182050500Y-83994000D01*
G75*
G02*
X182216000Y-84159500I0J-165500D01*
G01*
G37*
G36*
G01*
X188636000Y-84119500D02*
X188636000Y-84510500D01*
G75*
G02*
X188470500Y-84676000I-165500J0D01*
G01*
X188139500Y-84676000D01*
G75*
G02*
X187974000Y-84510500I0J165500D01*
G01*
X187974000Y-84119500D01*
G75*
G02*
X188139500Y-83954000I165500J0D01*
G01*
X188470500Y-83954000D01*
G75*
G02*
X188636000Y-84119500I0J-165500D01*
G01*
G37*
G36*
G01*
X189596000Y-84119500D02*
X189596000Y-84510500D01*
G75*
G02*
X189430500Y-84676000I-165500J0D01*
G01*
X189099500Y-84676000D01*
G75*
G02*
X188934000Y-84510500I0J165500D01*
G01*
X188934000Y-84119500D01*
G75*
G02*
X189099500Y-83954000I165500J0D01*
G01*
X189430500Y-83954000D01*
G75*
G02*
X189596000Y-84119500I0J-165500D01*
G01*
G37*
G36*
G01*
X183444000Y-84550500D02*
X183444000Y-84159500D01*
G75*
G02*
X183609500Y-83994000I165500J0D01*
G01*
X183940500Y-83994000D01*
G75*
G02*
X184106000Y-84159500I0J-165500D01*
G01*
X184106000Y-84550500D01*
G75*
G02*
X183940500Y-84716000I-165500J0D01*
G01*
X183609500Y-84716000D01*
G75*
G02*
X183444000Y-84550500I0J165500D01*
G01*
G37*
G36*
G01*
X182484000Y-84550500D02*
X182484000Y-84159500D01*
G75*
G02*
X182649500Y-83994000I165500J0D01*
G01*
X182980500Y-83994000D01*
G75*
G02*
X183146000Y-84159500I0J-165500D01*
G01*
X183146000Y-84550500D01*
G75*
G02*
X182980500Y-84716000I-165500J0D01*
G01*
X182649500Y-84716000D01*
G75*
G02*
X182484000Y-84550500I0J165500D01*
G01*
G37*
G36*
G01*
X190884000Y-84510500D02*
X190884000Y-84119500D01*
G75*
G02*
X191049500Y-83954000I165500J0D01*
G01*
X191380500Y-83954000D01*
G75*
G02*
X191546000Y-84119500I0J-165500D01*
G01*
X191546000Y-84510500D01*
G75*
G02*
X191380500Y-84676000I-165500J0D01*
G01*
X191049500Y-84676000D01*
G75*
G02*
X190884000Y-84510500I0J165500D01*
G01*
G37*
G36*
G01*
X189924000Y-84510500D02*
X189924000Y-84119500D01*
G75*
G02*
X190089500Y-83954000I165500J0D01*
G01*
X190420500Y-83954000D01*
G75*
G02*
X190586000Y-84119500I0J-165500D01*
G01*
X190586000Y-84510500D01*
G75*
G02*
X190420500Y-84676000I-165500J0D01*
G01*
X190089500Y-84676000D01*
G75*
G02*
X189924000Y-84510500I0J165500D01*
G01*
G37*
G36*
G01*
X165749000Y-85374500D02*
X165749000Y-85975500D01*
G75*
G02*
X165523500Y-86201000I-225500J0D01*
G01*
X165072500Y-86201000D01*
G75*
G02*
X164847000Y-85975500I0J225500D01*
G01*
X164847000Y-85374500D01*
G75*
G02*
X165072500Y-85149000I225500J0D01*
G01*
X165523500Y-85149000D01*
G75*
G02*
X165749000Y-85374500I0J-225500D01*
G01*
G37*
G36*
G01*
X167399000Y-85374500D02*
X167399000Y-85975500D01*
G75*
G02*
X167173500Y-86201000I-225500J0D01*
G01*
X166722500Y-86201000D01*
G75*
G02*
X166497000Y-85975500I0J225500D01*
G01*
X166497000Y-85374500D01*
G75*
G02*
X166722500Y-85149000I225500J0D01*
G01*
X167173500Y-85149000D01*
G75*
G02*
X167399000Y-85374500I0J-225500D01*
G01*
G37*
G36*
G01*
X171293250Y-108599000D02*
X172256750Y-108599000D01*
G75*
G02*
X172526000Y-108868250I0J-269250D01*
G01*
X172526000Y-109406750D01*
G75*
G02*
X172256750Y-109676000I-269250J0D01*
G01*
X171293250Y-109676000D01*
G75*
G02*
X171024000Y-109406750I0J269250D01*
G01*
X171024000Y-108868250D01*
G75*
G02*
X171293250Y-108599000I269250J0D01*
G01*
G37*
G36*
G01*
X171293250Y-110474000D02*
X172256750Y-110474000D01*
G75*
G02*
X172526000Y-110743250I0J-269250D01*
G01*
X172526000Y-111281750D01*
G75*
G02*
X172256750Y-111551000I-269250J0D01*
G01*
X171293250Y-111551000D01*
G75*
G02*
X171024000Y-111281750I0J269250D01*
G01*
X171024000Y-110743250D01*
G75*
G02*
X171293250Y-110474000I269250J0D01*
G01*
G37*
G36*
G01*
X166599000Y-107746750D02*
X166599000Y-106783250D01*
G75*
G02*
X166868250Y-106514000I269250J0D01*
G01*
X167406750Y-106514000D01*
G75*
G02*
X167676000Y-106783250I0J-269250D01*
G01*
X167676000Y-107746750D01*
G75*
G02*
X167406750Y-108016000I-269250J0D01*
G01*
X166868250Y-108016000D01*
G75*
G02*
X166599000Y-107746750I0J269250D01*
G01*
G37*
G36*
G01*
X168474000Y-107746750D02*
X168474000Y-106783250D01*
G75*
G02*
X168743250Y-106514000I269250J0D01*
G01*
X169281750Y-106514000D01*
G75*
G02*
X169551000Y-106783250I0J-269250D01*
G01*
X169551000Y-107746750D01*
G75*
G02*
X169281750Y-108016000I-269250J0D01*
G01*
X168743250Y-108016000D01*
G75*
G02*
X168474000Y-107746750I0J269250D01*
G01*
G37*
G36*
G01*
X172225000Y-79624000D02*
X173225000Y-79624000D01*
G75*
G02*
X173276000Y-79675000I0J-51000D01*
G01*
X173276000Y-80675000D01*
G75*
G02*
X173225000Y-80726000I-51000J0D01*
G01*
X172225000Y-80726000D01*
G75*
G02*
X172174000Y-80675000I0J51000D01*
G01*
X172174000Y-79675000D01*
G75*
G02*
X172225000Y-79624000I51000J0D01*
G01*
G37*
X173975000Y-80175000D03*
X168175000Y-80125000D03*
G36*
G01*
X166425000Y-79574000D02*
X167425000Y-79574000D01*
G75*
G02*
X167476000Y-79625000I0J-51000D01*
G01*
X167476000Y-80625000D01*
G75*
G02*
X167425000Y-80676000I-51000J0D01*
G01*
X166425000Y-80676000D01*
G75*
G02*
X166374000Y-80625000I0J51000D01*
G01*
X166374000Y-79625000D01*
G75*
G02*
X166425000Y-79574000I51000J0D01*
G01*
G37*
D20*
X183755000Y-79675000D03*
X185025000Y-78405000D03*
X182485000Y-78405000D03*
X182485000Y-80945000D03*
X185025000Y-80945000D03*
X189940000Y-80945000D03*
X189940000Y-78405000D03*
X192480000Y-78405000D03*
X192480000Y-80945000D03*
X191210000Y-79675000D03*
X189085000Y-109755000D03*
X191625000Y-109755000D03*
X191625000Y-112295000D03*
X189085000Y-112295000D03*
X190355000Y-111025000D03*
G36*
G01*
X164954200Y-109405200D02*
X164954200Y-108897200D01*
G75*
G02*
X165005200Y-108846200I51000J0D01*
G01*
X165919600Y-108846200D01*
G75*
G02*
X165970600Y-108897200I0J-51000D01*
G01*
X165970600Y-109405200D01*
G75*
G02*
X165919600Y-109456200I-51000J0D01*
G01*
X165005200Y-109456200D01*
G75*
G02*
X164954200Y-109405200I0J51000D01*
G01*
G37*
G36*
G01*
X164954200Y-110192600D02*
X164954200Y-109684600D01*
G75*
G02*
X165005200Y-109633600I51000J0D01*
G01*
X165919600Y-109633600D01*
G75*
G02*
X165970600Y-109684600I0J-51000D01*
G01*
X165970600Y-110192600D01*
G75*
G02*
X165919600Y-110243600I-51000J0D01*
G01*
X165005200Y-110243600D01*
G75*
G02*
X164954200Y-110192600I0J51000D01*
G01*
G37*
G36*
G01*
X164954200Y-111005400D02*
X164954200Y-110497400D01*
G75*
G02*
X165005200Y-110446400I51000J0D01*
G01*
X165919600Y-110446400D01*
G75*
G02*
X165970600Y-110497400I0J-51000D01*
G01*
X165970600Y-111005400D01*
G75*
G02*
X165919600Y-111056400I-51000J0D01*
G01*
X165005200Y-111056400D01*
G75*
G02*
X164954200Y-111005400I0J51000D01*
G01*
G37*
G36*
G01*
X164954200Y-111792800D02*
X164954200Y-111284800D01*
G75*
G02*
X165005200Y-111233800I51000J0D01*
G01*
X165919600Y-111233800D01*
G75*
G02*
X165970600Y-111284800I0J-51000D01*
G01*
X165970600Y-111792800D01*
G75*
G02*
X165919600Y-111843800I-51000J0D01*
G01*
X165005200Y-111843800D01*
G75*
G02*
X164954200Y-111792800I0J51000D01*
G01*
G37*
G36*
G01*
X169475800Y-111284800D02*
X169475800Y-111792800D01*
G75*
G02*
X169424800Y-111843800I-51000J0D01*
G01*
X168510400Y-111843800D01*
G75*
G02*
X168459400Y-111792800I0J51000D01*
G01*
X168459400Y-111284800D01*
G75*
G02*
X168510400Y-111233800I51000J0D01*
G01*
X169424800Y-111233800D01*
G75*
G02*
X169475800Y-111284800I0J-51000D01*
G01*
G37*
G36*
G01*
X169475800Y-110497400D02*
X169475800Y-111005400D01*
G75*
G02*
X169424800Y-111056400I-51000J0D01*
G01*
X168510400Y-111056400D01*
G75*
G02*
X168459400Y-111005400I0J51000D01*
G01*
X168459400Y-110497400D01*
G75*
G02*
X168510400Y-110446400I51000J0D01*
G01*
X169424800Y-110446400D01*
G75*
G02*
X169475800Y-110497400I0J-51000D01*
G01*
G37*
G36*
G01*
X169475800Y-109684600D02*
X169475800Y-110192600D01*
G75*
G02*
X169424800Y-110243600I-51000J0D01*
G01*
X168510400Y-110243600D01*
G75*
G02*
X168459400Y-110192600I0J51000D01*
G01*
X168459400Y-109684600D01*
G75*
G02*
X168510400Y-109633600I51000J0D01*
G01*
X169424800Y-109633600D01*
G75*
G02*
X169475800Y-109684600I0J-51000D01*
G01*
G37*
G36*
G01*
X169475800Y-108897200D02*
X169475800Y-109405200D01*
G75*
G02*
X169424800Y-109456200I-51000J0D01*
G01*
X168510400Y-109456200D01*
G75*
G02*
X168459400Y-109405200I0J51000D01*
G01*
X168459400Y-108897200D01*
G75*
G02*
X168510400Y-108846200I51000J0D01*
G01*
X169424800Y-108846200D01*
G75*
G02*
X169475800Y-108897200I0J-51000D01*
G01*
G37*
G36*
G01*
X166059100Y-111843600D02*
X166059100Y-108846400D01*
G75*
G02*
X166110100Y-108795400I51000J0D01*
G01*
X168319900Y-108795400D01*
G75*
G02*
X168370900Y-108846400I0J-51000D01*
G01*
X168370900Y-111843600D01*
G75*
G02*
X168319900Y-111894600I-51000J0D01*
G01*
X166110100Y-111894600D01*
G75*
G02*
X166059100Y-111843600I0J51000D01*
G01*
G37*
M02*
