G04 #@! TF.GenerationSoftware,KiCad,Pcbnew,(5.1.12)-1*
G04 #@! TF.CreationDate,2026-04-14T09:03:33-06:00*
G04 #@! TF.ProjectId,Mux_SDI_BJT,4d75785f-5344-4495-9f42-4a542e6b6963,2.10*
G04 #@! TF.SameCoordinates,Original*
G04 #@! TF.FileFunction,Soldermask,Bot*
G04 #@! TF.FilePolarity,Negative*
%FSLAX46Y46*%
G04 Gerber Fmt 4.6, Leading zero omitted, Abs format (unit mm)*
G04 Created by KiCad (PCBNEW (5.1.12)-1) date 2026-04-14 09:03:33*
%MOMM*%
%LPD*%
G01*
G04 APERTURE LIST*
%ADD10C,1.102000*%
%ADD11C,1.548000*%
%ADD12C,0.254000*%
%ADD13C,0.100000*%
G04 APERTURE END LIST*
D10*
X166143000Y-88215000D03*
G36*
G01*
X167893000Y-88766000D02*
X166893000Y-88766000D01*
G75*
G02*
X166842000Y-88715000I0J51000D01*
G01*
X166842000Y-87715000D01*
G75*
G02*
X166893000Y-87664000I51000J0D01*
G01*
X167893000Y-87664000D01*
G75*
G02*
X167944000Y-87715000I0J-51000D01*
G01*
X167944000Y-88715000D01*
G75*
G02*
X167893000Y-88766000I-51000J0D01*
G01*
G37*
G36*
G01*
X186086000Y-94964500D02*
X186086000Y-95385500D01*
G75*
G02*
X185925500Y-95546000I-160500J0D01*
G01*
X185604500Y-95546000D01*
G75*
G02*
X185444000Y-95385500I0J160500D01*
G01*
X185444000Y-94964500D01*
G75*
G02*
X185604500Y-94804000I160500J0D01*
G01*
X185925500Y-94804000D01*
G75*
G02*
X186086000Y-94964500I0J-160500D01*
G01*
G37*
G36*
G01*
X187106000Y-94964500D02*
X187106000Y-95385500D01*
G75*
G02*
X186945500Y-95546000I-160500J0D01*
G01*
X186624500Y-95546000D01*
G75*
G02*
X186464000Y-95385500I0J160500D01*
G01*
X186464000Y-94964500D01*
G75*
G02*
X186624500Y-94804000I160500J0D01*
G01*
X186945500Y-94804000D01*
G75*
G02*
X187106000Y-94964500I0J-160500D01*
G01*
G37*
G36*
G01*
X185964500Y-101414000D02*
X186385500Y-101414000D01*
G75*
G02*
X186546000Y-101574500I0J-160500D01*
G01*
X186546000Y-101895500D01*
G75*
G02*
X186385500Y-102056000I-160500J0D01*
G01*
X185964500Y-102056000D01*
G75*
G02*
X185804000Y-101895500I0J160500D01*
G01*
X185804000Y-101574500D01*
G75*
G02*
X185964500Y-101414000I160500J0D01*
G01*
G37*
G36*
G01*
X185964500Y-100394000D02*
X186385500Y-100394000D01*
G75*
G02*
X186546000Y-100554500I0J-160500D01*
G01*
X186546000Y-100875500D01*
G75*
G02*
X186385500Y-101036000I-160500J0D01*
G01*
X185964500Y-101036000D01*
G75*
G02*
X185804000Y-100875500I0J160500D01*
G01*
X185804000Y-100554500D01*
G75*
G02*
X185964500Y-100394000I160500J0D01*
G01*
G37*
G36*
G01*
X185536000Y-99414500D02*
X185536000Y-99835500D01*
G75*
G02*
X185375500Y-99996000I-160500J0D01*
G01*
X185054500Y-99996000D01*
G75*
G02*
X184894000Y-99835500I0J160500D01*
G01*
X184894000Y-99414500D01*
G75*
G02*
X185054500Y-99254000I160500J0D01*
G01*
X185375500Y-99254000D01*
G75*
G02*
X185536000Y-99414500I0J-160500D01*
G01*
G37*
G36*
G01*
X186556000Y-99414500D02*
X186556000Y-99835500D01*
G75*
G02*
X186395500Y-99996000I-160500J0D01*
G01*
X186074500Y-99996000D01*
G75*
G02*
X185914000Y-99835500I0J160500D01*
G01*
X185914000Y-99414500D01*
G75*
G02*
X186074500Y-99254000I160500J0D01*
G01*
X186395500Y-99254000D01*
G75*
G02*
X186556000Y-99414500I0J-160500D01*
G01*
G37*
G36*
G01*
X180364000Y-89985500D02*
X180364000Y-89564500D01*
G75*
G02*
X180524500Y-89404000I160500J0D01*
G01*
X180845500Y-89404000D01*
G75*
G02*
X181006000Y-89564500I0J-160500D01*
G01*
X181006000Y-89985500D01*
G75*
G02*
X180845500Y-90146000I-160500J0D01*
G01*
X180524500Y-90146000D01*
G75*
G02*
X180364000Y-89985500I0J160500D01*
G01*
G37*
G36*
G01*
X179344000Y-89985500D02*
X179344000Y-89564500D01*
G75*
G02*
X179504500Y-89404000I160500J0D01*
G01*
X179825500Y-89404000D01*
G75*
G02*
X179986000Y-89564500I0J-160500D01*
G01*
X179986000Y-89985500D01*
G75*
G02*
X179825500Y-90146000I-160500J0D01*
G01*
X179504500Y-90146000D01*
G75*
G02*
X179344000Y-89985500I0J160500D01*
G01*
G37*
G36*
G01*
X187764000Y-89985500D02*
X187764000Y-89564500D01*
G75*
G02*
X187924500Y-89404000I160500J0D01*
G01*
X188245500Y-89404000D01*
G75*
G02*
X188406000Y-89564500I0J-160500D01*
G01*
X188406000Y-89985500D01*
G75*
G02*
X188245500Y-90146000I-160500J0D01*
G01*
X187924500Y-90146000D01*
G75*
G02*
X187764000Y-89985500I0J160500D01*
G01*
G37*
G36*
G01*
X186744000Y-89985500D02*
X186744000Y-89564500D01*
G75*
G02*
X186904500Y-89404000I160500J0D01*
G01*
X187225500Y-89404000D01*
G75*
G02*
X187386000Y-89564500I0J-160500D01*
G01*
X187386000Y-89985500D01*
G75*
G02*
X187225500Y-90146000I-160500J0D01*
G01*
X186904500Y-90146000D01*
G75*
G02*
X186744000Y-89985500I0J160500D01*
G01*
G37*
G36*
G01*
X184720500Y-92476000D02*
X184329500Y-92476000D01*
G75*
G02*
X184164000Y-92310500I0J165500D01*
G01*
X184164000Y-91979500D01*
G75*
G02*
X184329500Y-91814000I165500J0D01*
G01*
X184720500Y-91814000D01*
G75*
G02*
X184886000Y-91979500I0J-165500D01*
G01*
X184886000Y-92310500D01*
G75*
G02*
X184720500Y-92476000I-165500J0D01*
G01*
G37*
G36*
G01*
X184720500Y-93436000D02*
X184329500Y-93436000D01*
G75*
G02*
X184164000Y-93270500I0J165500D01*
G01*
X184164000Y-92939500D01*
G75*
G02*
X184329500Y-92774000I165500J0D01*
G01*
X184720500Y-92774000D01*
G75*
G02*
X184886000Y-92939500I0J-165500D01*
G01*
X184886000Y-93270500D01*
G75*
G02*
X184720500Y-93436000I-165500J0D01*
G01*
G37*
G36*
G01*
X173199500Y-110199000D02*
X173750500Y-110199000D01*
G75*
G02*
X174001000Y-110449500I0J-250500D01*
G01*
X174001000Y-110950500D01*
G75*
G02*
X173750500Y-111201000I-250500J0D01*
G01*
X173199500Y-111201000D01*
G75*
G02*
X172949000Y-110950500I0J250500D01*
G01*
X172949000Y-110449500D01*
G75*
G02*
X173199500Y-110199000I250500J0D01*
G01*
G37*
G36*
G01*
X173199500Y-108649000D02*
X173750500Y-108649000D01*
G75*
G02*
X174001000Y-108899500I0J-250500D01*
G01*
X174001000Y-109400500D01*
G75*
G02*
X173750500Y-109651000I-250500J0D01*
G01*
X173199500Y-109651000D01*
G75*
G02*
X172949000Y-109400500I0J250500D01*
G01*
X172949000Y-108899500D01*
G75*
G02*
X173199500Y-108649000I250500J0D01*
G01*
G37*
G36*
G01*
X166801000Y-97549500D02*
X166801000Y-98100500D01*
G75*
G02*
X166550500Y-98351000I-250500J0D01*
G01*
X166049500Y-98351000D01*
G75*
G02*
X165799000Y-98100500I0J250500D01*
G01*
X165799000Y-97549500D01*
G75*
G02*
X166049500Y-97299000I250500J0D01*
G01*
X166550500Y-97299000D01*
G75*
G02*
X166801000Y-97549500I0J-250500D01*
G01*
G37*
G36*
G01*
X168351000Y-97549500D02*
X168351000Y-98100500D01*
G75*
G02*
X168100500Y-98351000I-250500J0D01*
G01*
X167599500Y-98351000D01*
G75*
G02*
X167349000Y-98100500I0J250500D01*
G01*
X167349000Y-97549500D01*
G75*
G02*
X167599500Y-97299000I250500J0D01*
G01*
X168100500Y-97299000D01*
G75*
G02*
X168351000Y-97549500I0J-250500D01*
G01*
G37*
G36*
G01*
X165050500Y-106051000D02*
X164499500Y-106051000D01*
G75*
G02*
X164249000Y-105800500I0J250500D01*
G01*
X164249000Y-105299500D01*
G75*
G02*
X164499500Y-105049000I250500J0D01*
G01*
X165050500Y-105049000D01*
G75*
G02*
X165301000Y-105299500I0J-250500D01*
G01*
X165301000Y-105800500D01*
G75*
G02*
X165050500Y-106051000I-250500J0D01*
G01*
G37*
G36*
G01*
X165050500Y-107601000D02*
X164499500Y-107601000D01*
G75*
G02*
X164249000Y-107350500I0J250500D01*
G01*
X164249000Y-106849500D01*
G75*
G02*
X164499500Y-106599000I250500J0D01*
G01*
X165050500Y-106599000D01*
G75*
G02*
X165301000Y-106849500I0J-250500D01*
G01*
X165301000Y-107350500D01*
G75*
G02*
X165050500Y-107601000I-250500J0D01*
G01*
G37*
G36*
G01*
X171075000Y-101701000D02*
X167875000Y-101701000D01*
G75*
G02*
X167824000Y-101650000I0J51000D01*
G01*
X167824000Y-99900000D01*
G75*
G02*
X167875000Y-99849000I51000J0D01*
G01*
X171075000Y-99849000D01*
G75*
G02*
X171126000Y-99900000I0J-51000D01*
G01*
X171126000Y-101650000D01*
G75*
G02*
X171075000Y-101701000I-51000J0D01*
G01*
G37*
G36*
G01*
X166649000Y-107950000D02*
X166649000Y-106200000D01*
G75*
G02*
X166700000Y-106149000I51000J0D01*
G01*
X167650000Y-106149000D01*
G75*
G02*
X167701000Y-106200000I0J-51000D01*
G01*
X167701000Y-107950000D01*
G75*
G02*
X167650000Y-108001000I-51000J0D01*
G01*
X166700000Y-108001000D01*
G75*
G02*
X166649000Y-107950000I0J51000D01*
G01*
G37*
G36*
G01*
X168949000Y-107950000D02*
X168949000Y-106200000D01*
G75*
G02*
X169000000Y-106149000I51000J0D01*
G01*
X169950000Y-106149000D01*
G75*
G02*
X170001000Y-106200000I0J-51000D01*
G01*
X170001000Y-107950000D01*
G75*
G02*
X169950000Y-108001000I-51000J0D01*
G01*
X169000000Y-108001000D01*
G75*
G02*
X168949000Y-107950000I0J51000D01*
G01*
G37*
G36*
G01*
X171249000Y-107950000D02*
X171249000Y-106200000D01*
G75*
G02*
X171300000Y-106149000I51000J0D01*
G01*
X172250000Y-106149000D01*
G75*
G02*
X172301000Y-106200000I0J-51000D01*
G01*
X172301000Y-107950000D01*
G75*
G02*
X172250000Y-108001000I-51000J0D01*
G01*
X171300000Y-108001000D01*
G75*
G02*
X171249000Y-107950000I0J51000D01*
G01*
G37*
G36*
G01*
X170574000Y-98106750D02*
X170574000Y-97543250D01*
G75*
G02*
X170818250Y-97299000I244250J0D01*
G01*
X171306750Y-97299000D01*
G75*
G02*
X171551000Y-97543250I0J-244250D01*
G01*
X171551000Y-98106750D01*
G75*
G02*
X171306750Y-98351000I-244250J0D01*
G01*
X170818250Y-98351000D01*
G75*
G02*
X170574000Y-98106750I0J244250D01*
G01*
G37*
G36*
G01*
X168999000Y-98106750D02*
X168999000Y-97543250D01*
G75*
G02*
X169243250Y-97299000I244250J0D01*
G01*
X169731750Y-97299000D01*
G75*
G02*
X169976000Y-97543250I0J-244250D01*
G01*
X169976000Y-98106750D01*
G75*
G02*
X169731750Y-98351000I-244250J0D01*
G01*
X169243250Y-98351000D01*
G75*
G02*
X168999000Y-98106750I0J244250D01*
G01*
G37*
G36*
G01*
X171399500Y-110199000D02*
X171950500Y-110199000D01*
G75*
G02*
X172201000Y-110449500I0J-250500D01*
G01*
X172201000Y-110950500D01*
G75*
G02*
X171950500Y-111201000I-250500J0D01*
G01*
X171399500Y-111201000D01*
G75*
G02*
X171149000Y-110950500I0J250500D01*
G01*
X171149000Y-110449500D01*
G75*
G02*
X171399500Y-110199000I250500J0D01*
G01*
G37*
G36*
G01*
X171399500Y-108649000D02*
X171950500Y-108649000D01*
G75*
G02*
X172201000Y-108899500I0J-250500D01*
G01*
X172201000Y-109400500D01*
G75*
G02*
X171950500Y-109651000I-250500J0D01*
G01*
X171399500Y-109651000D01*
G75*
G02*
X171149000Y-109400500I0J250500D01*
G01*
X171149000Y-108899500D01*
G75*
G02*
X171399500Y-108649000I250500J0D01*
G01*
G37*
X175225000Y-111925000D03*
X176475000Y-111925000D03*
X177725000Y-111925000D03*
X178975000Y-111925000D03*
G36*
G01*
X174725001Y-83276000D02*
X171424999Y-83276000D01*
G75*
G02*
X171374000Y-83225001I0J50999D01*
G01*
X171374000Y-82024999D01*
G75*
G02*
X171424999Y-81974000I50999J0D01*
G01*
X174725001Y-81974000D01*
G75*
G02*
X174776000Y-82024999I0J-50999D01*
G01*
X174776000Y-83225001D01*
G75*
G02*
X174725001Y-83276000I-50999J0D01*
G01*
G37*
G36*
G01*
X170224000Y-90025000D02*
X170224000Y-88825000D01*
G75*
G02*
X170275000Y-88774000I51000J0D01*
G01*
X171275000Y-88774000D01*
G75*
G02*
X171326000Y-88825000I0J-51000D01*
G01*
X171326000Y-90025000D01*
G75*
G02*
X171275000Y-90076000I-51000J0D01*
G01*
X170275000Y-90076000D01*
G75*
G02*
X170224000Y-90025000I0J51000D01*
G01*
G37*
G36*
G01*
X172524000Y-90025000D02*
X172524000Y-88825000D01*
G75*
G02*
X172575000Y-88774000I51000J0D01*
G01*
X173575000Y-88774000D01*
G75*
G02*
X173626000Y-88825000I0J-51000D01*
G01*
X173626000Y-90025000D01*
G75*
G02*
X173575000Y-90076000I-51000J0D01*
G01*
X172575000Y-90076000D01*
G75*
G02*
X172524000Y-90025000I0J51000D01*
G01*
G37*
G36*
G01*
X174824000Y-90025000D02*
X174824000Y-88825000D01*
G75*
G02*
X174875000Y-88774000I51000J0D01*
G01*
X175875000Y-88774000D01*
G75*
G02*
X175926000Y-88825000I0J-51000D01*
G01*
X175926000Y-90025000D01*
G75*
G02*
X175875000Y-90076000I-51000J0D01*
G01*
X174875000Y-90076000D01*
G75*
G02*
X174824000Y-90025000I0J51000D01*
G01*
G37*
G36*
G01*
X178301000Y-105625500D02*
X178301000Y-107100500D01*
G75*
G02*
X178250000Y-107151500I-51000J0D01*
G01*
X177800000Y-107151500D01*
G75*
G02*
X177749000Y-107100500I0J51000D01*
G01*
X177749000Y-105625500D01*
G75*
G02*
X177800000Y-105574500I51000J0D01*
G01*
X178250000Y-105574500D01*
G75*
G02*
X178301000Y-105625500I0J-51000D01*
G01*
G37*
G36*
G01*
X178951000Y-105625500D02*
X178951000Y-107100500D01*
G75*
G02*
X178900000Y-107151500I-51000J0D01*
G01*
X178450000Y-107151500D01*
G75*
G02*
X178399000Y-107100500I0J51000D01*
G01*
X178399000Y-105625500D01*
G75*
G02*
X178450000Y-105574500I51000J0D01*
G01*
X178900000Y-105574500D01*
G75*
G02*
X178951000Y-105625500I0J-51000D01*
G01*
G37*
G36*
G01*
X179601000Y-105625500D02*
X179601000Y-107100500D01*
G75*
G02*
X179550000Y-107151500I-51000J0D01*
G01*
X179100000Y-107151500D01*
G75*
G02*
X179049000Y-107100500I0J51000D01*
G01*
X179049000Y-105625500D01*
G75*
G02*
X179100000Y-105574500I51000J0D01*
G01*
X179550000Y-105574500D01*
G75*
G02*
X179601000Y-105625500I0J-51000D01*
G01*
G37*
G36*
G01*
X180251000Y-105625500D02*
X180251000Y-107100500D01*
G75*
G02*
X180200000Y-107151500I-51000J0D01*
G01*
X179750000Y-107151500D01*
G75*
G02*
X179699000Y-107100500I0J51000D01*
G01*
X179699000Y-105625500D01*
G75*
G02*
X179750000Y-105574500I51000J0D01*
G01*
X180200000Y-105574500D01*
G75*
G02*
X180251000Y-105625500I0J-51000D01*
G01*
G37*
G36*
G01*
X180901000Y-105625500D02*
X180901000Y-107100500D01*
G75*
G02*
X180850000Y-107151500I-51000J0D01*
G01*
X180400000Y-107151500D01*
G75*
G02*
X180349000Y-107100500I0J51000D01*
G01*
X180349000Y-105625500D01*
G75*
G02*
X180400000Y-105574500I51000J0D01*
G01*
X180850000Y-105574500D01*
G75*
G02*
X180901000Y-105625500I0J-51000D01*
G01*
G37*
G36*
G01*
X181551000Y-105625500D02*
X181551000Y-107100500D01*
G75*
G02*
X181500000Y-107151500I-51000J0D01*
G01*
X181050000Y-107151500D01*
G75*
G02*
X180999000Y-107100500I0J51000D01*
G01*
X180999000Y-105625500D01*
G75*
G02*
X181050000Y-105574500I51000J0D01*
G01*
X181500000Y-105574500D01*
G75*
G02*
X181551000Y-105625500I0J-51000D01*
G01*
G37*
G36*
G01*
X182201000Y-105625500D02*
X182201000Y-107100500D01*
G75*
G02*
X182150000Y-107151500I-51000J0D01*
G01*
X181700000Y-107151500D01*
G75*
G02*
X181649000Y-107100500I0J51000D01*
G01*
X181649000Y-105625500D01*
G75*
G02*
X181700000Y-105574500I51000J0D01*
G01*
X182150000Y-105574500D01*
G75*
G02*
X182201000Y-105625500I0J-51000D01*
G01*
G37*
G36*
G01*
X182201000Y-99749500D02*
X182201000Y-101224500D01*
G75*
G02*
X182150000Y-101275500I-51000J0D01*
G01*
X181700000Y-101275500D01*
G75*
G02*
X181649000Y-101224500I0J51000D01*
G01*
X181649000Y-99749500D01*
G75*
G02*
X181700000Y-99698500I51000J0D01*
G01*
X182150000Y-99698500D01*
G75*
G02*
X182201000Y-99749500I0J-51000D01*
G01*
G37*
G36*
G01*
X181551000Y-99749500D02*
X181551000Y-101224500D01*
G75*
G02*
X181500000Y-101275500I-51000J0D01*
G01*
X181050000Y-101275500D01*
G75*
G02*
X180999000Y-101224500I0J51000D01*
G01*
X180999000Y-99749500D01*
G75*
G02*
X181050000Y-99698500I51000J0D01*
G01*
X181500000Y-99698500D01*
G75*
G02*
X181551000Y-99749500I0J-51000D01*
G01*
G37*
G36*
G01*
X180901000Y-99749500D02*
X180901000Y-101224500D01*
G75*
G02*
X180850000Y-101275500I-51000J0D01*
G01*
X180400000Y-101275500D01*
G75*
G02*
X180349000Y-101224500I0J51000D01*
G01*
X180349000Y-99749500D01*
G75*
G02*
X180400000Y-99698500I51000J0D01*
G01*
X180850000Y-99698500D01*
G75*
G02*
X180901000Y-99749500I0J-51000D01*
G01*
G37*
G36*
G01*
X180251000Y-99749500D02*
X180251000Y-101224500D01*
G75*
G02*
X180200000Y-101275500I-51000J0D01*
G01*
X179750000Y-101275500D01*
G75*
G02*
X179699000Y-101224500I0J51000D01*
G01*
X179699000Y-99749500D01*
G75*
G02*
X179750000Y-99698500I51000J0D01*
G01*
X180200000Y-99698500D01*
G75*
G02*
X180251000Y-99749500I0J-51000D01*
G01*
G37*
G36*
G01*
X179601000Y-99749500D02*
X179601000Y-101224500D01*
G75*
G02*
X179550000Y-101275500I-51000J0D01*
G01*
X179100000Y-101275500D01*
G75*
G02*
X179049000Y-101224500I0J51000D01*
G01*
X179049000Y-99749500D01*
G75*
G02*
X179100000Y-99698500I51000J0D01*
G01*
X179550000Y-99698500D01*
G75*
G02*
X179601000Y-99749500I0J-51000D01*
G01*
G37*
G36*
G01*
X178951000Y-99749500D02*
X178951000Y-101224500D01*
G75*
G02*
X178900000Y-101275500I-51000J0D01*
G01*
X178450000Y-101275500D01*
G75*
G02*
X178399000Y-101224500I0J51000D01*
G01*
X178399000Y-99749500D01*
G75*
G02*
X178450000Y-99698500I51000J0D01*
G01*
X178900000Y-99698500D01*
G75*
G02*
X178951000Y-99749500I0J-51000D01*
G01*
G37*
G36*
G01*
X178301000Y-99749500D02*
X178301000Y-101224500D01*
G75*
G02*
X178250000Y-101275500I-51000J0D01*
G01*
X177800000Y-101275500D01*
G75*
G02*
X177749000Y-101224500I0J51000D01*
G01*
X177749000Y-99749500D01*
G75*
G02*
X177800000Y-99698500I51000J0D01*
G01*
X178250000Y-99698500D01*
G75*
G02*
X178301000Y-99749500I0J-51000D01*
G01*
G37*
G36*
G01*
X181442000Y-108912500D02*
X181442000Y-109333500D01*
G75*
G02*
X181281500Y-109494000I-160500J0D01*
G01*
X180960500Y-109494000D01*
G75*
G02*
X180800000Y-109333500I0J160500D01*
G01*
X180800000Y-108912500D01*
G75*
G02*
X180960500Y-108752000I160500J0D01*
G01*
X181281500Y-108752000D01*
G75*
G02*
X181442000Y-108912500I0J-160500D01*
G01*
G37*
G36*
G01*
X182462000Y-108912500D02*
X182462000Y-109333500D01*
G75*
G02*
X182301500Y-109494000I-160500J0D01*
G01*
X181980500Y-109494000D01*
G75*
G02*
X181820000Y-109333500I0J160500D01*
G01*
X181820000Y-108912500D01*
G75*
G02*
X181980500Y-108752000I160500J0D01*
G01*
X182301500Y-108752000D01*
G75*
G02*
X182462000Y-108912500I0J-160500D01*
G01*
G37*
G36*
G01*
X183788500Y-109952000D02*
X184209500Y-109952000D01*
G75*
G02*
X184370000Y-110112500I0J-160500D01*
G01*
X184370000Y-110433500D01*
G75*
G02*
X184209500Y-110594000I-160500J0D01*
G01*
X183788500Y-110594000D01*
G75*
G02*
X183628000Y-110433500I0J160500D01*
G01*
X183628000Y-110112500D01*
G75*
G02*
X183788500Y-109952000I160500J0D01*
G01*
G37*
G36*
G01*
X183788500Y-108932000D02*
X184209500Y-108932000D01*
G75*
G02*
X184370000Y-109092500I0J-160500D01*
G01*
X184370000Y-109413500D01*
G75*
G02*
X184209500Y-109574000I-160500J0D01*
G01*
X183788500Y-109574000D01*
G75*
G02*
X183628000Y-109413500I0J160500D01*
G01*
X183628000Y-109092500D01*
G75*
G02*
X183788500Y-108932000I160500J0D01*
G01*
G37*
G36*
G01*
X186103500Y-109574000D02*
X185682500Y-109574000D01*
G75*
G02*
X185522000Y-109413500I0J160500D01*
G01*
X185522000Y-109092500D01*
G75*
G02*
X185682500Y-108932000I160500J0D01*
G01*
X186103500Y-108932000D01*
G75*
G02*
X186264000Y-109092500I0J-160500D01*
G01*
X186264000Y-109413500D01*
G75*
G02*
X186103500Y-109574000I-160500J0D01*
G01*
G37*
G36*
G01*
X186103500Y-110594000D02*
X185682500Y-110594000D01*
G75*
G02*
X185522000Y-110433500I0J160500D01*
G01*
X185522000Y-110112500D01*
G75*
G02*
X185682500Y-109952000I160500J0D01*
G01*
X186103500Y-109952000D01*
G75*
G02*
X186264000Y-110112500I0J-160500D01*
G01*
X186264000Y-110433500D01*
G75*
G02*
X186103500Y-110594000I-160500J0D01*
G01*
G37*
G36*
G01*
X173036000Y-78464500D02*
X173036000Y-78885500D01*
G75*
G02*
X172875500Y-79046000I-160500J0D01*
G01*
X172554500Y-79046000D01*
G75*
G02*
X172394000Y-78885500I0J160500D01*
G01*
X172394000Y-78464500D01*
G75*
G02*
X172554500Y-78304000I160500J0D01*
G01*
X172875500Y-78304000D01*
G75*
G02*
X173036000Y-78464500I0J-160500D01*
G01*
G37*
G36*
G01*
X174056000Y-78464500D02*
X174056000Y-78885500D01*
G75*
G02*
X173895500Y-79046000I-160500J0D01*
G01*
X173574500Y-79046000D01*
G75*
G02*
X173414000Y-78885500I0J160500D01*
G01*
X173414000Y-78464500D01*
G75*
G02*
X173574500Y-78304000I160500J0D01*
G01*
X173895500Y-78304000D01*
G75*
G02*
X174056000Y-78464500I0J-160500D01*
G01*
G37*
G36*
G01*
X184735500Y-96586000D02*
X184314500Y-96586000D01*
G75*
G02*
X184154000Y-96425500I0J160500D01*
G01*
X184154000Y-96104500D01*
G75*
G02*
X184314500Y-95944000I160500J0D01*
G01*
X184735500Y-95944000D01*
G75*
G02*
X184896000Y-96104500I0J-160500D01*
G01*
X184896000Y-96425500D01*
G75*
G02*
X184735500Y-96586000I-160500J0D01*
G01*
G37*
G36*
G01*
X184735500Y-97606000D02*
X184314500Y-97606000D01*
G75*
G02*
X184154000Y-97445500I0J160500D01*
G01*
X184154000Y-97124500D01*
G75*
G02*
X184314500Y-96964000I160500J0D01*
G01*
X184735500Y-96964000D01*
G75*
G02*
X184896000Y-97124500I0J-160500D01*
G01*
X184896000Y-97445500D01*
G75*
G02*
X184735500Y-97606000I-160500J0D01*
G01*
G37*
G36*
G01*
X186086000Y-92764500D02*
X186086000Y-93185500D01*
G75*
G02*
X185925500Y-93346000I-160500J0D01*
G01*
X185604500Y-93346000D01*
G75*
G02*
X185444000Y-93185500I0J160500D01*
G01*
X185444000Y-92764500D01*
G75*
G02*
X185604500Y-92604000I160500J0D01*
G01*
X185925500Y-92604000D01*
G75*
G02*
X186086000Y-92764500I0J-160500D01*
G01*
G37*
G36*
G01*
X187106000Y-92764500D02*
X187106000Y-93185500D01*
G75*
G02*
X186945500Y-93346000I-160500J0D01*
G01*
X186624500Y-93346000D01*
G75*
G02*
X186464000Y-93185500I0J160500D01*
G01*
X186464000Y-92764500D01*
G75*
G02*
X186624500Y-92604000I160500J0D01*
G01*
X186945500Y-92604000D01*
G75*
G02*
X187106000Y-92764500I0J-160500D01*
G01*
G37*
G36*
G01*
X186086000Y-93864500D02*
X186086000Y-94285500D01*
G75*
G02*
X185925500Y-94446000I-160500J0D01*
G01*
X185604500Y-94446000D01*
G75*
G02*
X185444000Y-94285500I0J160500D01*
G01*
X185444000Y-93864500D01*
G75*
G02*
X185604500Y-93704000I160500J0D01*
G01*
X185925500Y-93704000D01*
G75*
G02*
X186086000Y-93864500I0J-160500D01*
G01*
G37*
G36*
G01*
X187106000Y-93864500D02*
X187106000Y-94285500D01*
G75*
G02*
X186945500Y-94446000I-160500J0D01*
G01*
X186624500Y-94446000D01*
G75*
G02*
X186464000Y-94285500I0J160500D01*
G01*
X186464000Y-93864500D01*
G75*
G02*
X186624500Y-93704000I160500J0D01*
G01*
X186945500Y-93704000D01*
G75*
G02*
X187106000Y-93864500I0J-160500D01*
G01*
G37*
G36*
G01*
X180336000Y-92414500D02*
X180336000Y-92835500D01*
G75*
G02*
X180175500Y-92996000I-160500J0D01*
G01*
X179854500Y-92996000D01*
G75*
G02*
X179694000Y-92835500I0J160500D01*
G01*
X179694000Y-92414500D01*
G75*
G02*
X179854500Y-92254000I160500J0D01*
G01*
X180175500Y-92254000D01*
G75*
G02*
X180336000Y-92414500I0J-160500D01*
G01*
G37*
G36*
G01*
X181356000Y-92414500D02*
X181356000Y-92835500D01*
G75*
G02*
X181195500Y-92996000I-160500J0D01*
G01*
X180874500Y-92996000D01*
G75*
G02*
X180714000Y-92835500I0J160500D01*
G01*
X180714000Y-92414500D01*
G75*
G02*
X180874500Y-92254000I160500J0D01*
G01*
X181195500Y-92254000D01*
G75*
G02*
X181356000Y-92414500I0J-160500D01*
G01*
G37*
G36*
G01*
X180336000Y-91414500D02*
X180336000Y-91835500D01*
G75*
G02*
X180175500Y-91996000I-160500J0D01*
G01*
X179854500Y-91996000D01*
G75*
G02*
X179694000Y-91835500I0J160500D01*
G01*
X179694000Y-91414500D01*
G75*
G02*
X179854500Y-91254000I160500J0D01*
G01*
X180175500Y-91254000D01*
G75*
G02*
X180336000Y-91414500I0J-160500D01*
G01*
G37*
G36*
G01*
X181356000Y-91414500D02*
X181356000Y-91835500D01*
G75*
G02*
X181195500Y-91996000I-160500J0D01*
G01*
X180874500Y-91996000D01*
G75*
G02*
X180714000Y-91835500I0J160500D01*
G01*
X180714000Y-91414500D01*
G75*
G02*
X180874500Y-91254000I160500J0D01*
G01*
X181195500Y-91254000D01*
G75*
G02*
X181356000Y-91414500I0J-160500D01*
G01*
G37*
G36*
G01*
X180174000Y-86070500D02*
X180174000Y-85679500D01*
G75*
G02*
X180339500Y-85514000I165500J0D01*
G01*
X180670500Y-85514000D01*
G75*
G02*
X180836000Y-85679500I0J-165500D01*
G01*
X180836000Y-86070500D01*
G75*
G02*
X180670500Y-86236000I-165500J0D01*
G01*
X180339500Y-86236000D01*
G75*
G02*
X180174000Y-86070500I0J165500D01*
G01*
G37*
G36*
G01*
X179214000Y-86070500D02*
X179214000Y-85679500D01*
G75*
G02*
X179379500Y-85514000I165500J0D01*
G01*
X179710500Y-85514000D01*
G75*
G02*
X179876000Y-85679500I0J-165500D01*
G01*
X179876000Y-86070500D01*
G75*
G02*
X179710500Y-86236000I-165500J0D01*
G01*
X179379500Y-86236000D01*
G75*
G02*
X179214000Y-86070500I0J165500D01*
G01*
G37*
G36*
G01*
X166449000Y-85975500D02*
X166449000Y-85374500D01*
G75*
G02*
X166674500Y-85149000I225500J0D01*
G01*
X167125500Y-85149000D01*
G75*
G02*
X167351000Y-85374500I0J-225500D01*
G01*
X167351000Y-85975500D01*
G75*
G02*
X167125500Y-86201000I-225500J0D01*
G01*
X166674500Y-86201000D01*
G75*
G02*
X166449000Y-85975500I0J225500D01*
G01*
G37*
G36*
G01*
X164799000Y-85975500D02*
X164799000Y-85374500D01*
G75*
G02*
X165024500Y-85149000I225500J0D01*
G01*
X165475500Y-85149000D01*
G75*
G02*
X165701000Y-85374500I0J-225500D01*
G01*
X165701000Y-85975500D01*
G75*
G02*
X165475500Y-86201000I-225500J0D01*
G01*
X165024500Y-86201000D01*
G75*
G02*
X164799000Y-85975500I0J225500D01*
G01*
G37*
G36*
G01*
X172225000Y-79624000D02*
X173225000Y-79624000D01*
G75*
G02*
X173276000Y-79675000I0J-51000D01*
G01*
X173276000Y-80675000D01*
G75*
G02*
X173225000Y-80726000I-51000J0D01*
G01*
X172225000Y-80726000D01*
G75*
G02*
X172174000Y-80675000I0J51000D01*
G01*
X172174000Y-79675000D01*
G75*
G02*
X172225000Y-79624000I51000J0D01*
G01*
G37*
X173975000Y-80175000D03*
X168175000Y-80125000D03*
G36*
G01*
X166425000Y-79574000D02*
X167425000Y-79574000D01*
G75*
G02*
X167476000Y-79625000I0J-51000D01*
G01*
X167476000Y-80625000D01*
G75*
G02*
X167425000Y-80676000I-51000J0D01*
G01*
X166425000Y-80676000D01*
G75*
G02*
X166374000Y-80625000I0J51000D01*
G01*
X166374000Y-79625000D01*
G75*
G02*
X166425000Y-79574000I51000J0D01*
G01*
G37*
D11*
X183755000Y-79675000D03*
X185025000Y-78405000D03*
X182485000Y-78405000D03*
X182485000Y-80945000D03*
X185025000Y-80945000D03*
X189940000Y-80945000D03*
X189940000Y-78405000D03*
X192480000Y-78405000D03*
X192480000Y-80945000D03*
X191210000Y-79675000D03*
X189085000Y-109755000D03*
X191625000Y-109755000D03*
X191625000Y-112295000D03*
X189085000Y-112295000D03*
X190355000Y-111025000D03*
D12*
X168148000Y-111798000D02*
X166302000Y-111798000D01*
X166302000Y-108952000D01*
X168148000Y-108952000D01*
X168148000Y-111798000D01*
D13*
G36*
X168148000Y-111798000D02*
G01*
X166302000Y-111798000D01*
X166302000Y-108952000D01*
X168148000Y-108952000D01*
X168148000Y-111798000D01*
G37*
G36*
X178464289Y-111728110D02*
G01*
X178464439Y-111729931D01*
X178449650Y-111765635D01*
X178428653Y-111871192D01*
X178428653Y-111978808D01*
X178449650Y-112084365D01*
X178464438Y-112120068D01*
X178464177Y-112122051D01*
X178462329Y-112122816D01*
X178460826Y-112121776D01*
X178452262Y-112105752D01*
X178436966Y-112087115D01*
X178418329Y-112071820D01*
X178397066Y-112060455D01*
X178373991Y-112053455D01*
X178350000Y-112051092D01*
X178326009Y-112053455D01*
X178302934Y-112060455D01*
X178281670Y-112071820D01*
X178263033Y-112087116D01*
X178247738Y-112105753D01*
X178239173Y-112121777D01*
X178237474Y-112122833D01*
X178235711Y-112121890D01*
X178235561Y-112120069D01*
X178250350Y-112084365D01*
X178271347Y-111978808D01*
X178271347Y-111871192D01*
X178250350Y-111765635D01*
X178235562Y-111729932D01*
X178235823Y-111727949D01*
X178237671Y-111727184D01*
X178239174Y-111728224D01*
X178247738Y-111744248D01*
X178263034Y-111762885D01*
X178281671Y-111778180D01*
X178302934Y-111789545D01*
X178326009Y-111796545D01*
X178350000Y-111798908D01*
X178373991Y-111796545D01*
X178397066Y-111789545D01*
X178418330Y-111778180D01*
X178436967Y-111762884D01*
X178452262Y-111744247D01*
X178460827Y-111728223D01*
X178462526Y-111727167D01*
X178464289Y-111728110D01*
G37*
G36*
X175964289Y-111728110D02*
G01*
X175964439Y-111729931D01*
X175949650Y-111765635D01*
X175928653Y-111871192D01*
X175928653Y-111978808D01*
X175949650Y-112084365D01*
X175964438Y-112120068D01*
X175964177Y-112122051D01*
X175962329Y-112122816D01*
X175960826Y-112121776D01*
X175952262Y-112105752D01*
X175936966Y-112087115D01*
X175918329Y-112071820D01*
X175897066Y-112060455D01*
X175873991Y-112053455D01*
X175850000Y-112051092D01*
X175826009Y-112053455D01*
X175802934Y-112060455D01*
X175781670Y-112071820D01*
X175763033Y-112087116D01*
X175747738Y-112105753D01*
X175739173Y-112121777D01*
X175737474Y-112122833D01*
X175735711Y-112121890D01*
X175735561Y-112120069D01*
X175750350Y-112084365D01*
X175771347Y-111978808D01*
X175771347Y-111871192D01*
X175750350Y-111765635D01*
X175735562Y-111729932D01*
X175735823Y-111727949D01*
X175737671Y-111727184D01*
X175739174Y-111728224D01*
X175747738Y-111744248D01*
X175763034Y-111762885D01*
X175781671Y-111778180D01*
X175802934Y-111789545D01*
X175826009Y-111796545D01*
X175850000Y-111798908D01*
X175873991Y-111796545D01*
X175897066Y-111789545D01*
X175918330Y-111778180D01*
X175936967Y-111762884D01*
X175952262Y-111744247D01*
X175960827Y-111728223D01*
X175962526Y-111727167D01*
X175964289Y-111728110D01*
G37*
G36*
X177214289Y-111728110D02*
G01*
X177214439Y-111729931D01*
X177199650Y-111765635D01*
X177178653Y-111871192D01*
X177178653Y-111978808D01*
X177199650Y-112084365D01*
X177214438Y-112120068D01*
X177214177Y-112122051D01*
X177212329Y-112122816D01*
X177210826Y-112121776D01*
X177202262Y-112105752D01*
X177186966Y-112087115D01*
X177168329Y-112071820D01*
X177147066Y-112060455D01*
X177123991Y-112053455D01*
X177100000Y-112051092D01*
X177076009Y-112053455D01*
X177052934Y-112060455D01*
X177031670Y-112071820D01*
X177013033Y-112087116D01*
X176997738Y-112105753D01*
X176989173Y-112121777D01*
X176987474Y-112122833D01*
X176985711Y-112121890D01*
X176985561Y-112120069D01*
X177000350Y-112084365D01*
X177021347Y-111978808D01*
X177021347Y-111871192D01*
X177000350Y-111765635D01*
X176985562Y-111729932D01*
X176985823Y-111727949D01*
X176987671Y-111727184D01*
X176989174Y-111728224D01*
X176997738Y-111744248D01*
X177013034Y-111762885D01*
X177031671Y-111778180D01*
X177052934Y-111789545D01*
X177076009Y-111796545D01*
X177100000Y-111798908D01*
X177123991Y-111796545D01*
X177147066Y-111789545D01*
X177168330Y-111778180D01*
X177186967Y-111762884D01*
X177202262Y-111744247D01*
X177210827Y-111728223D01*
X177212526Y-111727167D01*
X177214289Y-111728110D01*
G37*
G36*
X181650732Y-105573500D02*
G01*
X181651000Y-105574500D01*
X181651000Y-107151500D01*
X181650000Y-107153232D01*
X181649000Y-107153500D01*
X181551000Y-107153500D01*
X181549268Y-107152500D01*
X181549000Y-107151500D01*
X181549000Y-105574500D01*
X181550000Y-105572768D01*
X181551000Y-105572500D01*
X181649000Y-105572500D01*
X181650732Y-105573500D01*
G37*
G36*
X178400732Y-105573500D02*
G01*
X178401000Y-105574500D01*
X178401000Y-107151500D01*
X178400000Y-107153232D01*
X178399000Y-107153500D01*
X178301000Y-107153500D01*
X178299268Y-107152500D01*
X178299000Y-107151500D01*
X178299000Y-105574500D01*
X178300000Y-105572768D01*
X178301000Y-105572500D01*
X178399000Y-105572500D01*
X178400732Y-105573500D01*
G37*
G36*
X179050732Y-105573500D02*
G01*
X179051000Y-105574500D01*
X179051000Y-107151500D01*
X179050000Y-107153232D01*
X179049000Y-107153500D01*
X178951000Y-107153500D01*
X178949268Y-107152500D01*
X178949000Y-107151500D01*
X178949000Y-105574500D01*
X178950000Y-105572768D01*
X178951000Y-105572500D01*
X179049000Y-105572500D01*
X179050732Y-105573500D01*
G37*
G36*
X180350732Y-105573500D02*
G01*
X180351000Y-105574500D01*
X180351000Y-107151500D01*
X180350000Y-107153232D01*
X180349000Y-107153500D01*
X180251000Y-107153500D01*
X180249268Y-107152500D01*
X180249000Y-107151500D01*
X180249000Y-105574500D01*
X180250000Y-105572768D01*
X180251000Y-105572500D01*
X180349000Y-105572500D01*
X180350732Y-105573500D01*
G37*
G36*
X179700732Y-105573500D02*
G01*
X179701000Y-105574500D01*
X179701000Y-107151500D01*
X179700000Y-107153232D01*
X179699000Y-107153500D01*
X179601000Y-107153500D01*
X179599268Y-107152500D01*
X179599000Y-107151500D01*
X179599000Y-105574500D01*
X179600000Y-105572768D01*
X179601000Y-105572500D01*
X179699000Y-105572500D01*
X179700732Y-105573500D01*
G37*
G36*
X181000732Y-105573500D02*
G01*
X181001000Y-105574500D01*
X181001000Y-107151500D01*
X181000000Y-107153232D01*
X180999000Y-107153500D01*
X180901000Y-107153500D01*
X180899268Y-107152500D01*
X180899000Y-107151500D01*
X180899000Y-105574500D01*
X180900000Y-105572768D01*
X180901000Y-105572500D01*
X180999000Y-105572500D01*
X181000732Y-105573500D01*
G37*
G36*
X178400732Y-99697500D02*
G01*
X178401000Y-99698500D01*
X178401000Y-101275500D01*
X178400000Y-101277232D01*
X178399000Y-101277500D01*
X178301000Y-101277500D01*
X178299268Y-101276500D01*
X178299000Y-101275500D01*
X178299000Y-99698500D01*
X178300000Y-99696768D01*
X178301000Y-99696500D01*
X178399000Y-99696500D01*
X178400732Y-99697500D01*
G37*
G36*
X181650732Y-99697500D02*
G01*
X181651000Y-99698500D01*
X181651000Y-101275500D01*
X181650000Y-101277232D01*
X181649000Y-101277500D01*
X181551000Y-101277500D01*
X181549268Y-101276500D01*
X181549000Y-101275500D01*
X181549000Y-99698500D01*
X181550000Y-99696768D01*
X181551000Y-99696500D01*
X181649000Y-99696500D01*
X181650732Y-99697500D01*
G37*
G36*
X181000732Y-99697500D02*
G01*
X181001000Y-99698500D01*
X181001000Y-101275500D01*
X181000000Y-101277232D01*
X180999000Y-101277500D01*
X180901000Y-101277500D01*
X180899268Y-101276500D01*
X180899000Y-101275500D01*
X180899000Y-99698500D01*
X180900000Y-99696768D01*
X180901000Y-99696500D01*
X180999000Y-99696500D01*
X181000732Y-99697500D01*
G37*
G36*
X180350732Y-99697500D02*
G01*
X180351000Y-99698500D01*
X180351000Y-101275500D01*
X180350000Y-101277232D01*
X180349000Y-101277500D01*
X180251000Y-101277500D01*
X180249268Y-101276500D01*
X180249000Y-101275500D01*
X180249000Y-99698500D01*
X180250000Y-99696768D01*
X180251000Y-99696500D01*
X180349000Y-99696500D01*
X180350732Y-99697500D01*
G37*
G36*
X179700732Y-99697500D02*
G01*
X179701000Y-99698500D01*
X179701000Y-101275500D01*
X179700000Y-101277232D01*
X179699000Y-101277500D01*
X179601000Y-101277500D01*
X179599268Y-101276500D01*
X179599000Y-101275500D01*
X179599000Y-99698500D01*
X179600000Y-99696768D01*
X179601000Y-99696500D01*
X179699000Y-99696500D01*
X179700732Y-99697500D01*
G37*
G36*
X179050732Y-99697500D02*
G01*
X179051000Y-99698500D01*
X179051000Y-101275500D01*
X179050000Y-101277232D01*
X179049000Y-101277500D01*
X178951000Y-101277500D01*
X178949268Y-101276500D01*
X178949000Y-101275500D01*
X178949000Y-99698500D01*
X178950000Y-99696768D01*
X178951000Y-99696500D01*
X179049000Y-99696500D01*
X179050732Y-99697500D01*
G37*
G36*
X166843165Y-87861520D02*
G01*
X166844000Y-87863146D01*
X166844000Y-88566854D01*
X166843000Y-88568586D01*
X166841000Y-88568586D01*
X166840010Y-88567050D01*
X166837628Y-88542863D01*
X166830628Y-88519788D01*
X166819263Y-88498524D01*
X166803968Y-88479887D01*
X166785331Y-88464592D01*
X166764067Y-88453227D01*
X166740992Y-88446227D01*
X166717001Y-88443864D01*
X166693010Y-88446227D01*
X166669935Y-88453227D01*
X166648671Y-88464592D01*
X166630034Y-88479887D01*
X166618514Y-88493924D01*
X166616642Y-88494628D01*
X166615096Y-88493359D01*
X166615305Y-88491544D01*
X166627166Y-88473793D01*
X166668350Y-88374365D01*
X166689347Y-88268808D01*
X166689347Y-88161192D01*
X166668350Y-88055635D01*
X166627166Y-87956207D01*
X166615304Y-87938454D01*
X166615173Y-87936458D01*
X166616836Y-87935347D01*
X166618513Y-87936074D01*
X166630035Y-87950113D01*
X166648672Y-87965408D01*
X166669936Y-87976773D01*
X166693011Y-87983773D01*
X166717002Y-87986136D01*
X166740993Y-87983773D01*
X166764068Y-87976773D01*
X166785331Y-87965408D01*
X166803968Y-87950112D01*
X166819263Y-87931475D01*
X166830628Y-87910211D01*
X166837628Y-87887136D01*
X166840010Y-87862950D01*
X166841175Y-87861324D01*
X166843165Y-87861520D01*
G37*
G36*
X173277990Y-79822950D02*
G01*
X173280372Y-79847137D01*
X173287372Y-79870212D01*
X173298737Y-79891476D01*
X173314032Y-79910113D01*
X173332669Y-79925408D01*
X173353933Y-79936773D01*
X173377008Y-79943773D01*
X173400999Y-79946136D01*
X173424990Y-79943773D01*
X173448065Y-79936773D01*
X173469329Y-79925408D01*
X173487966Y-79910113D01*
X173499486Y-79896076D01*
X173501358Y-79895372D01*
X173502904Y-79896641D01*
X173502695Y-79898456D01*
X173490834Y-79916207D01*
X173449650Y-80015635D01*
X173428653Y-80121192D01*
X173428653Y-80228808D01*
X173449650Y-80334365D01*
X173490834Y-80433793D01*
X173502696Y-80451546D01*
X173502827Y-80453542D01*
X173501164Y-80454653D01*
X173499487Y-80453926D01*
X173487965Y-80439887D01*
X173469328Y-80424592D01*
X173448064Y-80413227D01*
X173424989Y-80406227D01*
X173400998Y-80403864D01*
X173377007Y-80406227D01*
X173353932Y-80413227D01*
X173332669Y-80424592D01*
X173314032Y-80439888D01*
X173298737Y-80458525D01*
X173287372Y-80479789D01*
X173280372Y-80502864D01*
X173277990Y-80527050D01*
X173276825Y-80528676D01*
X173274835Y-80528480D01*
X173274000Y-80526854D01*
X173274000Y-79823146D01*
X173275000Y-79821414D01*
X173277000Y-79821414D01*
X173277990Y-79822950D01*
G37*
G36*
X167477990Y-79772950D02*
G01*
X167480372Y-79797137D01*
X167487372Y-79820212D01*
X167498737Y-79841476D01*
X167514032Y-79860113D01*
X167532669Y-79875408D01*
X167553933Y-79886773D01*
X167577008Y-79893773D01*
X167600999Y-79896136D01*
X167624990Y-79893773D01*
X167648065Y-79886773D01*
X167669329Y-79875408D01*
X167687966Y-79860113D01*
X167699486Y-79846076D01*
X167701358Y-79845372D01*
X167702904Y-79846641D01*
X167702695Y-79848456D01*
X167690834Y-79866207D01*
X167649650Y-79965635D01*
X167628653Y-80071192D01*
X167628653Y-80178808D01*
X167649650Y-80284365D01*
X167690834Y-80383793D01*
X167702696Y-80401546D01*
X167702827Y-80403542D01*
X167701164Y-80404653D01*
X167699487Y-80403926D01*
X167687965Y-80389887D01*
X167669328Y-80374592D01*
X167648064Y-80363227D01*
X167624989Y-80356227D01*
X167600998Y-80353864D01*
X167577007Y-80356227D01*
X167553932Y-80363227D01*
X167532669Y-80374592D01*
X167514032Y-80389888D01*
X167498737Y-80408525D01*
X167487372Y-80429789D01*
X167480372Y-80452864D01*
X167477990Y-80477050D01*
X167476825Y-80478676D01*
X167474835Y-80478480D01*
X167474000Y-80476854D01*
X167474000Y-79773146D01*
X167475000Y-79771414D01*
X167477000Y-79771414D01*
X167477990Y-79772950D01*
G37*
M02*
