G04 #@! TF.GenerationSoftware,KiCad,Pcbnew,(5.1.12)-1*
G04 #@! TF.CreationDate,2026-04-14T09:03:33-06:00*
G04 #@! TF.ProjectId,Mux_SDI_BJT,4d75785f-5344-4495-9f42-4a542e6b6963,2.10*
G04 #@! TF.SameCoordinates,Original*
G04 #@! TF.FileFunction,Paste,Bot*
G04 #@! TF.FilePolarity,Positive*
%FSLAX46Y46*%
G04 Gerber Fmt 4.6, Leading zero omitted, Abs format (unit mm)*
G04 Created by KiCad (PCBNEW (5.1.12)-1) date 2026-04-14 09:03:33*
%MOMM*%
%LPD*%
G01*
G04 APERTURE LIST*
%ADD10R,3.200000X1.750000*%
%ADD11R,0.950000X1.750000*%
%ADD12R,3.300000X1.200000*%
%ADD13R,1.000000X1.200000*%
%ADD14R,0.450000X1.475000*%
G04 APERTURE END LIST*
G36*
G01*
X186035000Y-94990000D02*
X186035000Y-95360000D01*
G75*
G02*
X185900000Y-95495000I-135000J0D01*
G01*
X185630000Y-95495000D01*
G75*
G02*
X185495000Y-95360000I0J135000D01*
G01*
X185495000Y-94990000D01*
G75*
G02*
X185630000Y-94855000I135000J0D01*
G01*
X185900000Y-94855000D01*
G75*
G02*
X186035000Y-94990000I0J-135000D01*
G01*
G37*
G36*
G01*
X187055000Y-94990000D02*
X187055000Y-95360000D01*
G75*
G02*
X186920000Y-95495000I-135000J0D01*
G01*
X186650000Y-95495000D01*
G75*
G02*
X186515000Y-95360000I0J135000D01*
G01*
X186515000Y-94990000D01*
G75*
G02*
X186650000Y-94855000I135000J0D01*
G01*
X186920000Y-94855000D01*
G75*
G02*
X187055000Y-94990000I0J-135000D01*
G01*
G37*
G36*
G01*
X185990000Y-101465000D02*
X186360000Y-101465000D01*
G75*
G02*
X186495000Y-101600000I0J-135000D01*
G01*
X186495000Y-101870000D01*
G75*
G02*
X186360000Y-102005000I-135000J0D01*
G01*
X185990000Y-102005000D01*
G75*
G02*
X185855000Y-101870000I0J135000D01*
G01*
X185855000Y-101600000D01*
G75*
G02*
X185990000Y-101465000I135000J0D01*
G01*
G37*
G36*
G01*
X185990000Y-100445000D02*
X186360000Y-100445000D01*
G75*
G02*
X186495000Y-100580000I0J-135000D01*
G01*
X186495000Y-100850000D01*
G75*
G02*
X186360000Y-100985000I-135000J0D01*
G01*
X185990000Y-100985000D01*
G75*
G02*
X185855000Y-100850000I0J135000D01*
G01*
X185855000Y-100580000D01*
G75*
G02*
X185990000Y-100445000I135000J0D01*
G01*
G37*
G36*
G01*
X185485000Y-99440000D02*
X185485000Y-99810000D01*
G75*
G02*
X185350000Y-99945000I-135000J0D01*
G01*
X185080000Y-99945000D01*
G75*
G02*
X184945000Y-99810000I0J135000D01*
G01*
X184945000Y-99440000D01*
G75*
G02*
X185080000Y-99305000I135000J0D01*
G01*
X185350000Y-99305000D01*
G75*
G02*
X185485000Y-99440000I0J-135000D01*
G01*
G37*
G36*
G01*
X186505000Y-99440000D02*
X186505000Y-99810000D01*
G75*
G02*
X186370000Y-99945000I-135000J0D01*
G01*
X186100000Y-99945000D01*
G75*
G02*
X185965000Y-99810000I0J135000D01*
G01*
X185965000Y-99440000D01*
G75*
G02*
X186100000Y-99305000I135000J0D01*
G01*
X186370000Y-99305000D01*
G75*
G02*
X186505000Y-99440000I0J-135000D01*
G01*
G37*
G36*
G01*
X180415000Y-89960000D02*
X180415000Y-89590000D01*
G75*
G02*
X180550000Y-89455000I135000J0D01*
G01*
X180820000Y-89455000D01*
G75*
G02*
X180955000Y-89590000I0J-135000D01*
G01*
X180955000Y-89960000D01*
G75*
G02*
X180820000Y-90095000I-135000J0D01*
G01*
X180550000Y-90095000D01*
G75*
G02*
X180415000Y-89960000I0J135000D01*
G01*
G37*
G36*
G01*
X179395000Y-89960000D02*
X179395000Y-89590000D01*
G75*
G02*
X179530000Y-89455000I135000J0D01*
G01*
X179800000Y-89455000D01*
G75*
G02*
X179935000Y-89590000I0J-135000D01*
G01*
X179935000Y-89960000D01*
G75*
G02*
X179800000Y-90095000I-135000J0D01*
G01*
X179530000Y-90095000D01*
G75*
G02*
X179395000Y-89960000I0J135000D01*
G01*
G37*
G36*
G01*
X187815000Y-89960000D02*
X187815000Y-89590000D01*
G75*
G02*
X187950000Y-89455000I135000J0D01*
G01*
X188220000Y-89455000D01*
G75*
G02*
X188355000Y-89590000I0J-135000D01*
G01*
X188355000Y-89960000D01*
G75*
G02*
X188220000Y-90095000I-135000J0D01*
G01*
X187950000Y-90095000D01*
G75*
G02*
X187815000Y-89960000I0J135000D01*
G01*
G37*
G36*
G01*
X186795000Y-89960000D02*
X186795000Y-89590000D01*
G75*
G02*
X186930000Y-89455000I135000J0D01*
G01*
X187200000Y-89455000D01*
G75*
G02*
X187335000Y-89590000I0J-135000D01*
G01*
X187335000Y-89960000D01*
G75*
G02*
X187200000Y-90095000I-135000J0D01*
G01*
X186930000Y-90095000D01*
G75*
G02*
X186795000Y-89960000I0J135000D01*
G01*
G37*
G36*
G01*
X184695000Y-92425000D02*
X184355000Y-92425000D01*
G75*
G02*
X184215000Y-92285000I0J140000D01*
G01*
X184215000Y-92005000D01*
G75*
G02*
X184355000Y-91865000I140000J0D01*
G01*
X184695000Y-91865000D01*
G75*
G02*
X184835000Y-92005000I0J-140000D01*
G01*
X184835000Y-92285000D01*
G75*
G02*
X184695000Y-92425000I-140000J0D01*
G01*
G37*
G36*
G01*
X184695000Y-93385000D02*
X184355000Y-93385000D01*
G75*
G02*
X184215000Y-93245000I0J140000D01*
G01*
X184215000Y-92965000D01*
G75*
G02*
X184355000Y-92825000I140000J0D01*
G01*
X184695000Y-92825000D01*
G75*
G02*
X184835000Y-92965000I0J-140000D01*
G01*
X184835000Y-93245000D01*
G75*
G02*
X184695000Y-93385000I-140000J0D01*
G01*
G37*
G36*
G01*
X173225000Y-110250000D02*
X173725000Y-110250000D01*
G75*
G02*
X173950000Y-110475000I0J-225000D01*
G01*
X173950000Y-110925000D01*
G75*
G02*
X173725000Y-111150000I-225000J0D01*
G01*
X173225000Y-111150000D01*
G75*
G02*
X173000000Y-110925000I0J225000D01*
G01*
X173000000Y-110475000D01*
G75*
G02*
X173225000Y-110250000I225000J0D01*
G01*
G37*
G36*
G01*
X173225000Y-108700000D02*
X173725000Y-108700000D01*
G75*
G02*
X173950000Y-108925000I0J-225000D01*
G01*
X173950000Y-109375000D01*
G75*
G02*
X173725000Y-109600000I-225000J0D01*
G01*
X173225000Y-109600000D01*
G75*
G02*
X173000000Y-109375000I0J225000D01*
G01*
X173000000Y-108925000D01*
G75*
G02*
X173225000Y-108700000I225000J0D01*
G01*
G37*
G36*
G01*
X166750000Y-97575000D02*
X166750000Y-98075000D01*
G75*
G02*
X166525000Y-98300000I-225000J0D01*
G01*
X166075000Y-98300000D01*
G75*
G02*
X165850000Y-98075000I0J225000D01*
G01*
X165850000Y-97575000D01*
G75*
G02*
X166075000Y-97350000I225000J0D01*
G01*
X166525000Y-97350000D01*
G75*
G02*
X166750000Y-97575000I0J-225000D01*
G01*
G37*
G36*
G01*
X168300000Y-97575000D02*
X168300000Y-98075000D01*
G75*
G02*
X168075000Y-98300000I-225000J0D01*
G01*
X167625000Y-98300000D01*
G75*
G02*
X167400000Y-98075000I0J225000D01*
G01*
X167400000Y-97575000D01*
G75*
G02*
X167625000Y-97350000I225000J0D01*
G01*
X168075000Y-97350000D01*
G75*
G02*
X168300000Y-97575000I0J-225000D01*
G01*
G37*
G36*
G01*
X165025000Y-106000000D02*
X164525000Y-106000000D01*
G75*
G02*
X164300000Y-105775000I0J225000D01*
G01*
X164300000Y-105325000D01*
G75*
G02*
X164525000Y-105100000I225000J0D01*
G01*
X165025000Y-105100000D01*
G75*
G02*
X165250000Y-105325000I0J-225000D01*
G01*
X165250000Y-105775000D01*
G75*
G02*
X165025000Y-106000000I-225000J0D01*
G01*
G37*
G36*
G01*
X165025000Y-107550000D02*
X164525000Y-107550000D01*
G75*
G02*
X164300000Y-107325000I0J225000D01*
G01*
X164300000Y-106875000D01*
G75*
G02*
X164525000Y-106650000I225000J0D01*
G01*
X165025000Y-106650000D01*
G75*
G02*
X165250000Y-106875000I0J-225000D01*
G01*
X165250000Y-107325000D01*
G75*
G02*
X165025000Y-107550000I-225000J0D01*
G01*
G37*
D10*
X169475000Y-100775000D03*
D11*
X167175000Y-107075000D03*
X169475000Y-107075000D03*
X171775000Y-107075000D03*
G36*
G01*
X170625000Y-98081250D02*
X170625000Y-97568750D01*
G75*
G02*
X170843750Y-97350000I218750J0D01*
G01*
X171281250Y-97350000D01*
G75*
G02*
X171500000Y-97568750I0J-218750D01*
G01*
X171500000Y-98081250D01*
G75*
G02*
X171281250Y-98300000I-218750J0D01*
G01*
X170843750Y-98300000D01*
G75*
G02*
X170625000Y-98081250I0J218750D01*
G01*
G37*
G36*
G01*
X169050000Y-98081250D02*
X169050000Y-97568750D01*
G75*
G02*
X169268750Y-97350000I218750J0D01*
G01*
X169706250Y-97350000D01*
G75*
G02*
X169925000Y-97568750I0J-218750D01*
G01*
X169925000Y-98081250D01*
G75*
G02*
X169706250Y-98300000I-218750J0D01*
G01*
X169268750Y-98300000D01*
G75*
G02*
X169050000Y-98081250I0J218750D01*
G01*
G37*
G36*
G01*
X171425000Y-110250000D02*
X171925000Y-110250000D01*
G75*
G02*
X172150000Y-110475000I0J-225000D01*
G01*
X172150000Y-110925000D01*
G75*
G02*
X171925000Y-111150000I-225000J0D01*
G01*
X171425000Y-111150000D01*
G75*
G02*
X171200000Y-110925000I0J225000D01*
G01*
X171200000Y-110475000D01*
G75*
G02*
X171425000Y-110250000I225000J0D01*
G01*
G37*
G36*
G01*
X171425000Y-108700000D02*
X171925000Y-108700000D01*
G75*
G02*
X172150000Y-108925000I0J-225000D01*
G01*
X172150000Y-109375000D01*
G75*
G02*
X171925000Y-109600000I-225000J0D01*
G01*
X171425000Y-109600000D01*
G75*
G02*
X171200000Y-109375000I0J225000D01*
G01*
X171200000Y-108925000D01*
G75*
G02*
X171425000Y-108700000I225000J0D01*
G01*
G37*
D12*
X173075000Y-82625000D03*
D13*
X170775000Y-89425000D03*
X173075000Y-89425000D03*
X175375000Y-89425000D03*
D14*
X178025000Y-106363000D03*
X178675000Y-106363000D03*
X179325000Y-106363000D03*
X179975000Y-106363000D03*
X180625000Y-106363000D03*
X181275000Y-106363000D03*
X181925000Y-106363000D03*
X181925000Y-100487000D03*
X181275000Y-100487000D03*
X180625000Y-100487000D03*
X179975000Y-100487000D03*
X179325000Y-100487000D03*
X178675000Y-100487000D03*
X178025000Y-100487000D03*
G36*
G01*
X181391000Y-108938000D02*
X181391000Y-109308000D01*
G75*
G02*
X181256000Y-109443000I-135000J0D01*
G01*
X180986000Y-109443000D01*
G75*
G02*
X180851000Y-109308000I0J135000D01*
G01*
X180851000Y-108938000D01*
G75*
G02*
X180986000Y-108803000I135000J0D01*
G01*
X181256000Y-108803000D01*
G75*
G02*
X181391000Y-108938000I0J-135000D01*
G01*
G37*
G36*
G01*
X182411000Y-108938000D02*
X182411000Y-109308000D01*
G75*
G02*
X182276000Y-109443000I-135000J0D01*
G01*
X182006000Y-109443000D01*
G75*
G02*
X181871000Y-109308000I0J135000D01*
G01*
X181871000Y-108938000D01*
G75*
G02*
X182006000Y-108803000I135000J0D01*
G01*
X182276000Y-108803000D01*
G75*
G02*
X182411000Y-108938000I0J-135000D01*
G01*
G37*
G36*
G01*
X183814000Y-110003000D02*
X184184000Y-110003000D01*
G75*
G02*
X184319000Y-110138000I0J-135000D01*
G01*
X184319000Y-110408000D01*
G75*
G02*
X184184000Y-110543000I-135000J0D01*
G01*
X183814000Y-110543000D01*
G75*
G02*
X183679000Y-110408000I0J135000D01*
G01*
X183679000Y-110138000D01*
G75*
G02*
X183814000Y-110003000I135000J0D01*
G01*
G37*
G36*
G01*
X183814000Y-108983000D02*
X184184000Y-108983000D01*
G75*
G02*
X184319000Y-109118000I0J-135000D01*
G01*
X184319000Y-109388000D01*
G75*
G02*
X184184000Y-109523000I-135000J0D01*
G01*
X183814000Y-109523000D01*
G75*
G02*
X183679000Y-109388000I0J135000D01*
G01*
X183679000Y-109118000D01*
G75*
G02*
X183814000Y-108983000I135000J0D01*
G01*
G37*
G36*
G01*
X186078000Y-109523000D02*
X185708000Y-109523000D01*
G75*
G02*
X185573000Y-109388000I0J135000D01*
G01*
X185573000Y-109118000D01*
G75*
G02*
X185708000Y-108983000I135000J0D01*
G01*
X186078000Y-108983000D01*
G75*
G02*
X186213000Y-109118000I0J-135000D01*
G01*
X186213000Y-109388000D01*
G75*
G02*
X186078000Y-109523000I-135000J0D01*
G01*
G37*
G36*
G01*
X186078000Y-110543000D02*
X185708000Y-110543000D01*
G75*
G02*
X185573000Y-110408000I0J135000D01*
G01*
X185573000Y-110138000D01*
G75*
G02*
X185708000Y-110003000I135000J0D01*
G01*
X186078000Y-110003000D01*
G75*
G02*
X186213000Y-110138000I0J-135000D01*
G01*
X186213000Y-110408000D01*
G75*
G02*
X186078000Y-110543000I-135000J0D01*
G01*
G37*
G36*
G01*
X172985000Y-78490000D02*
X172985000Y-78860000D01*
G75*
G02*
X172850000Y-78995000I-135000J0D01*
G01*
X172580000Y-78995000D01*
G75*
G02*
X172445000Y-78860000I0J135000D01*
G01*
X172445000Y-78490000D01*
G75*
G02*
X172580000Y-78355000I135000J0D01*
G01*
X172850000Y-78355000D01*
G75*
G02*
X172985000Y-78490000I0J-135000D01*
G01*
G37*
G36*
G01*
X174005000Y-78490000D02*
X174005000Y-78860000D01*
G75*
G02*
X173870000Y-78995000I-135000J0D01*
G01*
X173600000Y-78995000D01*
G75*
G02*
X173465000Y-78860000I0J135000D01*
G01*
X173465000Y-78490000D01*
G75*
G02*
X173600000Y-78355000I135000J0D01*
G01*
X173870000Y-78355000D01*
G75*
G02*
X174005000Y-78490000I0J-135000D01*
G01*
G37*
G36*
G01*
X184710000Y-96535000D02*
X184340000Y-96535000D01*
G75*
G02*
X184205000Y-96400000I0J135000D01*
G01*
X184205000Y-96130000D01*
G75*
G02*
X184340000Y-95995000I135000J0D01*
G01*
X184710000Y-95995000D01*
G75*
G02*
X184845000Y-96130000I0J-135000D01*
G01*
X184845000Y-96400000D01*
G75*
G02*
X184710000Y-96535000I-135000J0D01*
G01*
G37*
G36*
G01*
X184710000Y-97555000D02*
X184340000Y-97555000D01*
G75*
G02*
X184205000Y-97420000I0J135000D01*
G01*
X184205000Y-97150000D01*
G75*
G02*
X184340000Y-97015000I135000J0D01*
G01*
X184710000Y-97015000D01*
G75*
G02*
X184845000Y-97150000I0J-135000D01*
G01*
X184845000Y-97420000D01*
G75*
G02*
X184710000Y-97555000I-135000J0D01*
G01*
G37*
G36*
G01*
X186035000Y-92790000D02*
X186035000Y-93160000D01*
G75*
G02*
X185900000Y-93295000I-135000J0D01*
G01*
X185630000Y-93295000D01*
G75*
G02*
X185495000Y-93160000I0J135000D01*
G01*
X185495000Y-92790000D01*
G75*
G02*
X185630000Y-92655000I135000J0D01*
G01*
X185900000Y-92655000D01*
G75*
G02*
X186035000Y-92790000I0J-135000D01*
G01*
G37*
G36*
G01*
X187055000Y-92790000D02*
X187055000Y-93160000D01*
G75*
G02*
X186920000Y-93295000I-135000J0D01*
G01*
X186650000Y-93295000D01*
G75*
G02*
X186515000Y-93160000I0J135000D01*
G01*
X186515000Y-92790000D01*
G75*
G02*
X186650000Y-92655000I135000J0D01*
G01*
X186920000Y-92655000D01*
G75*
G02*
X187055000Y-92790000I0J-135000D01*
G01*
G37*
G36*
G01*
X186035000Y-93890000D02*
X186035000Y-94260000D01*
G75*
G02*
X185900000Y-94395000I-135000J0D01*
G01*
X185630000Y-94395000D01*
G75*
G02*
X185495000Y-94260000I0J135000D01*
G01*
X185495000Y-93890000D01*
G75*
G02*
X185630000Y-93755000I135000J0D01*
G01*
X185900000Y-93755000D01*
G75*
G02*
X186035000Y-93890000I0J-135000D01*
G01*
G37*
G36*
G01*
X187055000Y-93890000D02*
X187055000Y-94260000D01*
G75*
G02*
X186920000Y-94395000I-135000J0D01*
G01*
X186650000Y-94395000D01*
G75*
G02*
X186515000Y-94260000I0J135000D01*
G01*
X186515000Y-93890000D01*
G75*
G02*
X186650000Y-93755000I135000J0D01*
G01*
X186920000Y-93755000D01*
G75*
G02*
X187055000Y-93890000I0J-135000D01*
G01*
G37*
G36*
G01*
X180285000Y-92440000D02*
X180285000Y-92810000D01*
G75*
G02*
X180150000Y-92945000I-135000J0D01*
G01*
X179880000Y-92945000D01*
G75*
G02*
X179745000Y-92810000I0J135000D01*
G01*
X179745000Y-92440000D01*
G75*
G02*
X179880000Y-92305000I135000J0D01*
G01*
X180150000Y-92305000D01*
G75*
G02*
X180285000Y-92440000I0J-135000D01*
G01*
G37*
G36*
G01*
X181305000Y-92440000D02*
X181305000Y-92810000D01*
G75*
G02*
X181170000Y-92945000I-135000J0D01*
G01*
X180900000Y-92945000D01*
G75*
G02*
X180765000Y-92810000I0J135000D01*
G01*
X180765000Y-92440000D01*
G75*
G02*
X180900000Y-92305000I135000J0D01*
G01*
X181170000Y-92305000D01*
G75*
G02*
X181305000Y-92440000I0J-135000D01*
G01*
G37*
G36*
G01*
X180285000Y-91440000D02*
X180285000Y-91810000D01*
G75*
G02*
X180150000Y-91945000I-135000J0D01*
G01*
X179880000Y-91945000D01*
G75*
G02*
X179745000Y-91810000I0J135000D01*
G01*
X179745000Y-91440000D01*
G75*
G02*
X179880000Y-91305000I135000J0D01*
G01*
X180150000Y-91305000D01*
G75*
G02*
X180285000Y-91440000I0J-135000D01*
G01*
G37*
G36*
G01*
X181305000Y-91440000D02*
X181305000Y-91810000D01*
G75*
G02*
X181170000Y-91945000I-135000J0D01*
G01*
X180900000Y-91945000D01*
G75*
G02*
X180765000Y-91810000I0J135000D01*
G01*
X180765000Y-91440000D01*
G75*
G02*
X180900000Y-91305000I135000J0D01*
G01*
X181170000Y-91305000D01*
G75*
G02*
X181305000Y-91440000I0J-135000D01*
G01*
G37*
G36*
G01*
X180225000Y-86045000D02*
X180225000Y-85705000D01*
G75*
G02*
X180365000Y-85565000I140000J0D01*
G01*
X180645000Y-85565000D01*
G75*
G02*
X180785000Y-85705000I0J-140000D01*
G01*
X180785000Y-86045000D01*
G75*
G02*
X180645000Y-86185000I-140000J0D01*
G01*
X180365000Y-86185000D01*
G75*
G02*
X180225000Y-86045000I0J140000D01*
G01*
G37*
G36*
G01*
X179265000Y-86045000D02*
X179265000Y-85705000D01*
G75*
G02*
X179405000Y-85565000I140000J0D01*
G01*
X179685000Y-85565000D01*
G75*
G02*
X179825000Y-85705000I0J-140000D01*
G01*
X179825000Y-86045000D01*
G75*
G02*
X179685000Y-86185000I-140000J0D01*
G01*
X179405000Y-86185000D01*
G75*
G02*
X179265000Y-86045000I0J140000D01*
G01*
G37*
G36*
G01*
X166500000Y-85950000D02*
X166500000Y-85400000D01*
G75*
G02*
X166700000Y-85200000I200000J0D01*
G01*
X167100000Y-85200000D01*
G75*
G02*
X167300000Y-85400000I0J-200000D01*
G01*
X167300000Y-85950000D01*
G75*
G02*
X167100000Y-86150000I-200000J0D01*
G01*
X166700000Y-86150000D01*
G75*
G02*
X166500000Y-85950000I0J200000D01*
G01*
G37*
G36*
G01*
X164850000Y-85950000D02*
X164850000Y-85400000D01*
G75*
G02*
X165050000Y-85200000I200000J0D01*
G01*
X165450000Y-85200000D01*
G75*
G02*
X165650000Y-85400000I0J-200000D01*
G01*
X165650000Y-85950000D01*
G75*
G02*
X165450000Y-86150000I-200000J0D01*
G01*
X165050000Y-86150000D01*
G75*
G02*
X164850000Y-85950000I0J200000D01*
G01*
G37*
M02*
