G04 #@! TF.GenerationSoftware,KiCad,Pcbnew,(5.1.12)-1*
G04 #@! TF.CreationDate,2026-01-05T15:48:36-06:00*
G04 #@! TF.ProjectId,Amplificador HD-SDI,416d706c-6966-4696-9361-646f72204844,rev?*
G04 #@! TF.SameCoordinates,Original*
G04 #@! TF.FileFunction,Copper,L3,Inr*
G04 #@! TF.FilePolarity,Positive*
%FSLAX46Y46*%
G04 Gerber Fmt 4.6, Leading zero omitted, Abs format (unit mm)*
G04 Created by KiCad (PCBNEW (5.1.12)-1) date 2026-01-05 15:48:36*
%MOMM*%
%LPD*%
G01*
G04 APERTURE LIST*
G04 #@! TA.AperFunction,ComponentPad*
%ADD10C,2.475000*%
G04 #@! TD*
G04 #@! TA.AperFunction,ComponentPad*
%ADD11C,1.349000*%
G04 #@! TD*
G04 #@! TA.AperFunction,ComponentPad*
%ADD12C,1.000000*%
G04 #@! TD*
G04 #@! TA.AperFunction,ViaPad*
%ADD13C,0.400000*%
G04 #@! TD*
G04 #@! TA.AperFunction,ViaPad*
%ADD14C,0.800000*%
G04 #@! TD*
G04 #@! TA.AperFunction,ViaPad*
%ADD15C,0.600000*%
G04 #@! TD*
G04 #@! TA.AperFunction,Conductor*
%ADD16C,0.254000*%
G04 #@! TD*
G04 #@! TA.AperFunction,Conductor*
%ADD17C,0.100000*%
G04 #@! TD*
G04 APERTURE END LIST*
D10*
X111460000Y-46195000D03*
X111460000Y-52745000D03*
X118010000Y-52745000D03*
X118010000Y-46195000D03*
D11*
X114730000Y-49475000D03*
D10*
X67200000Y-36230000D03*
X67200000Y-29680000D03*
X60650000Y-29680000D03*
X60650000Y-36230000D03*
D11*
X63930000Y-32950000D03*
D12*
X117520000Y-29220000D03*
X117520000Y-30470000D03*
D13*
X73830000Y-32950000D03*
X72530000Y-32950000D03*
D14*
X107780000Y-29890000D03*
X106130000Y-29910000D03*
X100740000Y-55580000D03*
D13*
X76530000Y-34225000D03*
D15*
X73850000Y-29950000D03*
X76620000Y-29040000D03*
X78480000Y-29010000D03*
D14*
X72480000Y-37990000D03*
D13*
X78700000Y-34220000D03*
X77580000Y-33100000D03*
X77580000Y-35300000D03*
X77580000Y-34220000D03*
X98820000Y-49430000D03*
X99920000Y-50430000D03*
X98820000Y-51530000D03*
X97820000Y-50430000D03*
X98820000Y-50430000D03*
X86260000Y-38210000D03*
D14*
X78655000Y-40525000D03*
X77610000Y-46590000D03*
X79730000Y-49360000D03*
X79700000Y-55150000D03*
X87050000Y-50040000D03*
X93330000Y-46310000D03*
X82460000Y-40420000D03*
D13*
X87040000Y-43080000D03*
X87040000Y-44870000D03*
X85640000Y-43930000D03*
X88400000Y-43930000D03*
X87040000Y-43930000D03*
D14*
X69530000Y-41780000D03*
D13*
X93360000Y-50340000D03*
X104230000Y-51820000D03*
D14*
X60830000Y-43020000D03*
X111160000Y-31460000D03*
X98440000Y-33970000D03*
X95480000Y-31870000D03*
D15*
X81770000Y-26550000D03*
D14*
X63470000Y-43520000D03*
X103045000Y-52530000D03*
X102720000Y-47230000D03*
X100745000Y-54005000D03*
X96920000Y-55625000D03*
D13*
X78480000Y-30600000D03*
X76605000Y-30625000D03*
D14*
X82100000Y-57500000D03*
X87020000Y-48480000D03*
X91750000Y-46320000D03*
X83990000Y-40400000D03*
X80510000Y-42460000D03*
X97650000Y-58460000D03*
D15*
X83270000Y-26550000D03*
X84770000Y-26550000D03*
X86270000Y-26550000D03*
X87770000Y-26550000D03*
X89270000Y-26550000D03*
X81770000Y-28050000D03*
X83270000Y-28050000D03*
X84770000Y-28050000D03*
X86270000Y-28050000D03*
X87770000Y-28050000D03*
X89270000Y-28050000D03*
X87760000Y-29350000D03*
X89260000Y-29350000D03*
X87760000Y-30850000D03*
X89260000Y-30850000D03*
X87760000Y-32350000D03*
X89260000Y-32350000D03*
D14*
X91730000Y-44520000D03*
X102860000Y-53900000D03*
D16*
X90073000Y-39199813D02*
X90075404Y-39224593D01*
X90082596Y-39248428D01*
X90094300Y-39270402D01*
X90110065Y-39289670D01*
X90129287Y-39305493D01*
X90151227Y-39317261D01*
X90175040Y-39324523D01*
X90200000Y-39327000D01*
X120419945Y-39327000D01*
X120420001Y-57929125D01*
X120350554Y-58686077D01*
X120152585Y-59388399D01*
X119829945Y-60042877D01*
X119393437Y-60627603D01*
X118857684Y-61122986D01*
X118240621Y-61512446D01*
X117562920Y-61782931D01*
X116833631Y-61928101D01*
X116436733Y-61950000D01*
X62760866Y-61950000D01*
X62003923Y-61880554D01*
X61301601Y-61682585D01*
X60647123Y-61359945D01*
X60062397Y-60923437D01*
X59567014Y-60387684D01*
X59177554Y-59770621D01*
X58907069Y-59092920D01*
X58761899Y-58363631D01*
X58740000Y-57966733D01*
X58739999Y-55048061D01*
X78665000Y-55048061D01*
X78665000Y-55251939D01*
X78704774Y-55451898D01*
X78782795Y-55640256D01*
X78896063Y-55809774D01*
X79040226Y-55953937D01*
X79209744Y-56067205D01*
X79398102Y-56145226D01*
X79598061Y-56185000D01*
X79801939Y-56185000D01*
X80001898Y-56145226D01*
X80190256Y-56067205D01*
X80359774Y-55953937D01*
X80503937Y-55809774D01*
X80617205Y-55640256D01*
X80684388Y-55478061D01*
X99705000Y-55478061D01*
X99705000Y-55681939D01*
X99744774Y-55881898D01*
X99822795Y-56070256D01*
X99936063Y-56239774D01*
X100080226Y-56383937D01*
X100249744Y-56497205D01*
X100438102Y-56575226D01*
X100638061Y-56615000D01*
X100841939Y-56615000D01*
X101041898Y-56575226D01*
X101230256Y-56497205D01*
X101399774Y-56383937D01*
X101543937Y-56239774D01*
X101657205Y-56070256D01*
X101735226Y-55881898D01*
X101775000Y-55681939D01*
X101775000Y-55478061D01*
X101735226Y-55278102D01*
X101657205Y-55089744D01*
X101543937Y-54920226D01*
X101399774Y-54776063D01*
X101230256Y-54662795D01*
X101041898Y-54584774D01*
X100841939Y-54545000D01*
X100638061Y-54545000D01*
X100438102Y-54584774D01*
X100249744Y-54662795D01*
X100080226Y-54776063D01*
X99936063Y-54920226D01*
X99822795Y-55089744D01*
X99744774Y-55278102D01*
X99705000Y-55478061D01*
X80684388Y-55478061D01*
X80695226Y-55451898D01*
X80735000Y-55251939D01*
X80735000Y-55048061D01*
X80695226Y-54848102D01*
X80617205Y-54659744D01*
X80503937Y-54490226D01*
X80359774Y-54346063D01*
X80190256Y-54232795D01*
X80001898Y-54154774D01*
X79801939Y-54115000D01*
X79598061Y-54115000D01*
X79398102Y-54154774D01*
X79209744Y-54232795D01*
X79040226Y-54346063D01*
X78896063Y-54490226D01*
X78782795Y-54659744D01*
X78704774Y-54848102D01*
X78665000Y-55048061D01*
X58739999Y-55048061D01*
X58739999Y-53798061D01*
X101825000Y-53798061D01*
X101825000Y-54001939D01*
X101864774Y-54201898D01*
X101942795Y-54390256D01*
X102056063Y-54559774D01*
X102200226Y-54703937D01*
X102369744Y-54817205D01*
X102558102Y-54895226D01*
X102758061Y-54935000D01*
X102961939Y-54935000D01*
X103161898Y-54895226D01*
X103350256Y-54817205D01*
X103519774Y-54703937D01*
X103663937Y-54559774D01*
X103777205Y-54390256D01*
X103855226Y-54201898D01*
X103895000Y-54001939D01*
X103895000Y-53798061D01*
X103855226Y-53598102D01*
X103777205Y-53409744D01*
X103663937Y-53240226D01*
X103519774Y-53096063D01*
X103350256Y-52982795D01*
X103161898Y-52904774D01*
X102961939Y-52865000D01*
X102758061Y-52865000D01*
X102558102Y-52904774D01*
X102369744Y-52982795D01*
X102200226Y-53096063D01*
X102056063Y-53240226D01*
X101942795Y-53409744D01*
X101864774Y-53598102D01*
X101825000Y-53798061D01*
X58739999Y-53798061D01*
X58739996Y-49258061D01*
X78695000Y-49258061D01*
X78695000Y-49461939D01*
X78734774Y-49661898D01*
X78812795Y-49850256D01*
X78926063Y-50019774D01*
X79070226Y-50163937D01*
X79239744Y-50277205D01*
X79428102Y-50355226D01*
X79628061Y-50395000D01*
X79831939Y-50395000D01*
X80031898Y-50355226D01*
X80220256Y-50277205D01*
X80389774Y-50163937D01*
X80533937Y-50019774D01*
X80588535Y-49938061D01*
X86015000Y-49938061D01*
X86015000Y-50141939D01*
X86054774Y-50341898D01*
X86132795Y-50530256D01*
X86246063Y-50699774D01*
X86390226Y-50843937D01*
X86559744Y-50957205D01*
X86748102Y-51035226D01*
X86948061Y-51075000D01*
X87151939Y-51075000D01*
X87351898Y-51035226D01*
X87540256Y-50957205D01*
X87709774Y-50843937D01*
X87853937Y-50699774D01*
X87967205Y-50530256D01*
X88045226Y-50341898D01*
X88061961Y-50257760D01*
X92525000Y-50257760D01*
X92525000Y-50422240D01*
X92557089Y-50583560D01*
X92620033Y-50735521D01*
X92711413Y-50872281D01*
X92827719Y-50988587D01*
X92964479Y-51079967D01*
X93116440Y-51142911D01*
X93277760Y-51175000D01*
X93442240Y-51175000D01*
X93603560Y-51142911D01*
X93755521Y-51079967D01*
X93892281Y-50988587D01*
X94008587Y-50872281D01*
X94099967Y-50735521D01*
X94162911Y-50583560D01*
X94195000Y-50422240D01*
X94195000Y-50347760D01*
X96985000Y-50347760D01*
X96985000Y-50512240D01*
X97017089Y-50673560D01*
X97080033Y-50825521D01*
X97171413Y-50962281D01*
X97287719Y-51078587D01*
X97424479Y-51169967D01*
X97576440Y-51232911D01*
X97737760Y-51265000D01*
X97902240Y-51265000D01*
X98037080Y-51238178D01*
X98017089Y-51286440D01*
X97985000Y-51447760D01*
X97985000Y-51612240D01*
X98017089Y-51773560D01*
X98080033Y-51925521D01*
X98171413Y-52062281D01*
X98287719Y-52178587D01*
X98424479Y-52269967D01*
X98576440Y-52332911D01*
X98737760Y-52365000D01*
X98902240Y-52365000D01*
X99063560Y-52332911D01*
X99215521Y-52269967D01*
X99352281Y-52178587D01*
X99468587Y-52062281D01*
X99559967Y-51925521D01*
X99622911Y-51773560D01*
X99630032Y-51737760D01*
X103395000Y-51737760D01*
X103395000Y-51902240D01*
X103427089Y-52063560D01*
X103490033Y-52215521D01*
X103581413Y-52352281D01*
X103697719Y-52468587D01*
X103834479Y-52559967D01*
X103986440Y-52622911D01*
X104147760Y-52655000D01*
X104312240Y-52655000D01*
X104473560Y-52622911D01*
X104624053Y-52560575D01*
X109587500Y-52560575D01*
X109587500Y-52929425D01*
X109659459Y-53291188D01*
X109800612Y-53631961D01*
X110005534Y-53938649D01*
X110266351Y-54199466D01*
X110573039Y-54404388D01*
X110913812Y-54545541D01*
X111275575Y-54617500D01*
X111644425Y-54617500D01*
X112006188Y-54545541D01*
X112346961Y-54404388D01*
X112653649Y-54199466D01*
X112914466Y-53938649D01*
X113119388Y-53631961D01*
X113260541Y-53291188D01*
X113332500Y-52929425D01*
X113332500Y-52560575D01*
X116137500Y-52560575D01*
X116137500Y-52929425D01*
X116209459Y-53291188D01*
X116350612Y-53631961D01*
X116555534Y-53938649D01*
X116816351Y-54199466D01*
X117123039Y-54404388D01*
X117463812Y-54545541D01*
X117825575Y-54617500D01*
X118194425Y-54617500D01*
X118556188Y-54545541D01*
X118896961Y-54404388D01*
X119203649Y-54199466D01*
X119464466Y-53938649D01*
X119669388Y-53631961D01*
X119810541Y-53291188D01*
X119882500Y-52929425D01*
X119882500Y-52560575D01*
X119810541Y-52198812D01*
X119669388Y-51858039D01*
X119464466Y-51551351D01*
X119203649Y-51290534D01*
X118896961Y-51085612D01*
X118556188Y-50944459D01*
X118194425Y-50872500D01*
X117825575Y-50872500D01*
X117463812Y-50944459D01*
X117123039Y-51085612D01*
X116816351Y-51290534D01*
X116555534Y-51551351D01*
X116350612Y-51858039D01*
X116209459Y-52198812D01*
X116137500Y-52560575D01*
X113332500Y-52560575D01*
X113260541Y-52198812D01*
X113119388Y-51858039D01*
X112914466Y-51551351D01*
X112653649Y-51290534D01*
X112346961Y-51085612D01*
X112006188Y-50944459D01*
X111644425Y-50872500D01*
X111275575Y-50872500D01*
X110913812Y-50944459D01*
X110573039Y-51085612D01*
X110266351Y-51290534D01*
X110005534Y-51551351D01*
X109800612Y-51858039D01*
X109659459Y-52198812D01*
X109587500Y-52560575D01*
X104624053Y-52560575D01*
X104625521Y-52559967D01*
X104762281Y-52468587D01*
X104878587Y-52352281D01*
X104969967Y-52215521D01*
X105032911Y-52063560D01*
X105065000Y-51902240D01*
X105065000Y-51737760D01*
X105032911Y-51576440D01*
X104969967Y-51424479D01*
X104878587Y-51287719D01*
X104762281Y-51171413D01*
X104625521Y-51080033D01*
X104473560Y-51017089D01*
X104312240Y-50985000D01*
X104147760Y-50985000D01*
X103986440Y-51017089D01*
X103834479Y-51080033D01*
X103697719Y-51171413D01*
X103581413Y-51287719D01*
X103490033Y-51424479D01*
X103427089Y-51576440D01*
X103395000Y-51737760D01*
X99630032Y-51737760D01*
X99655000Y-51612240D01*
X99655000Y-51447760D01*
X99622911Y-51286440D01*
X99585061Y-51195061D01*
X99676440Y-51232911D01*
X99837760Y-51265000D01*
X100002240Y-51265000D01*
X100163560Y-51232911D01*
X100315521Y-51169967D01*
X100452281Y-51078587D01*
X100568587Y-50962281D01*
X100659967Y-50825521D01*
X100722911Y-50673560D01*
X100755000Y-50512240D01*
X100755000Y-50347760D01*
X100722911Y-50186440D01*
X100659967Y-50034479D01*
X100568587Y-49897719D01*
X100452281Y-49781413D01*
X100315521Y-49690033D01*
X100163560Y-49627089D01*
X100002240Y-49595000D01*
X99837760Y-49595000D01*
X99676440Y-49627089D01*
X99628178Y-49647080D01*
X99655000Y-49512240D01*
X99655000Y-49347760D01*
X99654656Y-49346026D01*
X113420500Y-49346026D01*
X113420500Y-49603974D01*
X113470823Y-49856967D01*
X113569536Y-50095281D01*
X113712845Y-50309758D01*
X113895242Y-50492155D01*
X114109719Y-50635464D01*
X114348033Y-50734177D01*
X114601026Y-50784500D01*
X114858974Y-50784500D01*
X115111967Y-50734177D01*
X115350281Y-50635464D01*
X115564758Y-50492155D01*
X115747155Y-50309758D01*
X115890464Y-50095281D01*
X115989177Y-49856967D01*
X116039500Y-49603974D01*
X116039500Y-49346026D01*
X115989177Y-49093033D01*
X115890464Y-48854719D01*
X115747155Y-48640242D01*
X115564758Y-48457845D01*
X115350281Y-48314536D01*
X115111967Y-48215823D01*
X114858974Y-48165500D01*
X114601026Y-48165500D01*
X114348033Y-48215823D01*
X114109719Y-48314536D01*
X113895242Y-48457845D01*
X113712845Y-48640242D01*
X113569536Y-48854719D01*
X113470823Y-49093033D01*
X113420500Y-49346026D01*
X99654656Y-49346026D01*
X99622911Y-49186440D01*
X99559967Y-49034479D01*
X99468587Y-48897719D01*
X99352281Y-48781413D01*
X99215521Y-48690033D01*
X99063560Y-48627089D01*
X98902240Y-48595000D01*
X98737760Y-48595000D01*
X98576440Y-48627089D01*
X98424479Y-48690033D01*
X98287719Y-48781413D01*
X98171413Y-48897719D01*
X98080033Y-49034479D01*
X98017089Y-49186440D01*
X97985000Y-49347760D01*
X97985000Y-49512240D01*
X98005550Y-49615550D01*
X97902240Y-49595000D01*
X97737760Y-49595000D01*
X97576440Y-49627089D01*
X97424479Y-49690033D01*
X97287719Y-49781413D01*
X97171413Y-49897719D01*
X97080033Y-50034479D01*
X97017089Y-50186440D01*
X96985000Y-50347760D01*
X94195000Y-50347760D01*
X94195000Y-50257760D01*
X94162911Y-50096440D01*
X94099967Y-49944479D01*
X94008587Y-49807719D01*
X93892281Y-49691413D01*
X93755521Y-49600033D01*
X93603560Y-49537089D01*
X93442240Y-49505000D01*
X93277760Y-49505000D01*
X93116440Y-49537089D01*
X92964479Y-49600033D01*
X92827719Y-49691413D01*
X92711413Y-49807719D01*
X92620033Y-49944479D01*
X92557089Y-50096440D01*
X92525000Y-50257760D01*
X88061961Y-50257760D01*
X88085000Y-50141939D01*
X88085000Y-49938061D01*
X88045226Y-49738102D01*
X87967205Y-49549744D01*
X87853937Y-49380226D01*
X87709774Y-49236063D01*
X87540256Y-49122795D01*
X87351898Y-49044774D01*
X87151939Y-49005000D01*
X86948061Y-49005000D01*
X86748102Y-49044774D01*
X86559744Y-49122795D01*
X86390226Y-49236063D01*
X86246063Y-49380226D01*
X86132795Y-49549744D01*
X86054774Y-49738102D01*
X86015000Y-49938061D01*
X80588535Y-49938061D01*
X80647205Y-49850256D01*
X80725226Y-49661898D01*
X80765000Y-49461939D01*
X80765000Y-49258061D01*
X80725226Y-49058102D01*
X80647205Y-48869744D01*
X80533937Y-48700226D01*
X80389774Y-48556063D01*
X80220256Y-48442795D01*
X80031898Y-48364774D01*
X79831939Y-48325000D01*
X79628061Y-48325000D01*
X79428102Y-48364774D01*
X79239744Y-48442795D01*
X79070226Y-48556063D01*
X78926063Y-48700226D01*
X78812795Y-48869744D01*
X78734774Y-49058102D01*
X78695000Y-49258061D01*
X58739996Y-49258061D01*
X58739994Y-46488061D01*
X76575000Y-46488061D01*
X76575000Y-46691939D01*
X76614774Y-46891898D01*
X76692795Y-47080256D01*
X76806063Y-47249774D01*
X76950226Y-47393937D01*
X77119744Y-47507205D01*
X77308102Y-47585226D01*
X77508061Y-47625000D01*
X77711939Y-47625000D01*
X77911898Y-47585226D01*
X78100256Y-47507205D01*
X78269774Y-47393937D01*
X78413937Y-47249774D01*
X78527205Y-47080256D01*
X78605226Y-46891898D01*
X78645000Y-46691939D01*
X78645000Y-46488061D01*
X78605226Y-46288102D01*
X78572072Y-46208061D01*
X92295000Y-46208061D01*
X92295000Y-46411939D01*
X92334774Y-46611898D01*
X92412795Y-46800256D01*
X92526063Y-46969774D01*
X92670226Y-47113937D01*
X92839744Y-47227205D01*
X93028102Y-47305226D01*
X93228061Y-47345000D01*
X93431939Y-47345000D01*
X93631898Y-47305226D01*
X93820256Y-47227205D01*
X93989774Y-47113937D01*
X94133937Y-46969774D01*
X94247205Y-46800256D01*
X94325226Y-46611898D01*
X94365000Y-46411939D01*
X94365000Y-46208061D01*
X94325718Y-46010575D01*
X109587500Y-46010575D01*
X109587500Y-46379425D01*
X109659459Y-46741188D01*
X109800612Y-47081961D01*
X110005534Y-47388649D01*
X110266351Y-47649466D01*
X110573039Y-47854388D01*
X110913812Y-47995541D01*
X111275575Y-48067500D01*
X111644425Y-48067500D01*
X112006188Y-47995541D01*
X112346961Y-47854388D01*
X112653649Y-47649466D01*
X112914466Y-47388649D01*
X113119388Y-47081961D01*
X113260541Y-46741188D01*
X113332500Y-46379425D01*
X113332500Y-46010575D01*
X116137500Y-46010575D01*
X116137500Y-46379425D01*
X116209459Y-46741188D01*
X116350612Y-47081961D01*
X116555534Y-47388649D01*
X116816351Y-47649466D01*
X117123039Y-47854388D01*
X117463812Y-47995541D01*
X117825575Y-48067500D01*
X118194425Y-48067500D01*
X118556188Y-47995541D01*
X118896961Y-47854388D01*
X119203649Y-47649466D01*
X119464466Y-47388649D01*
X119669388Y-47081961D01*
X119810541Y-46741188D01*
X119882500Y-46379425D01*
X119882500Y-46010575D01*
X119810541Y-45648812D01*
X119669388Y-45308039D01*
X119464466Y-45001351D01*
X119203649Y-44740534D01*
X118896961Y-44535612D01*
X118556188Y-44394459D01*
X118194425Y-44322500D01*
X117825575Y-44322500D01*
X117463812Y-44394459D01*
X117123039Y-44535612D01*
X116816351Y-44740534D01*
X116555534Y-45001351D01*
X116350612Y-45308039D01*
X116209459Y-45648812D01*
X116137500Y-46010575D01*
X113332500Y-46010575D01*
X113260541Y-45648812D01*
X113119388Y-45308039D01*
X112914466Y-45001351D01*
X112653649Y-44740534D01*
X112346961Y-44535612D01*
X112006188Y-44394459D01*
X111644425Y-44322500D01*
X111275575Y-44322500D01*
X110913812Y-44394459D01*
X110573039Y-44535612D01*
X110266351Y-44740534D01*
X110005534Y-45001351D01*
X109800612Y-45308039D01*
X109659459Y-45648812D01*
X109587500Y-46010575D01*
X94325718Y-46010575D01*
X94325226Y-46008102D01*
X94247205Y-45819744D01*
X94133937Y-45650226D01*
X93989774Y-45506063D01*
X93820256Y-45392795D01*
X93631898Y-45314774D01*
X93431939Y-45275000D01*
X93228061Y-45275000D01*
X93028102Y-45314774D01*
X92839744Y-45392795D01*
X92670226Y-45506063D01*
X92526063Y-45650226D01*
X92412795Y-45819744D01*
X92334774Y-46008102D01*
X92295000Y-46208061D01*
X78572072Y-46208061D01*
X78527205Y-46099744D01*
X78413937Y-45930226D01*
X78269774Y-45786063D01*
X78100256Y-45672795D01*
X77911898Y-45594774D01*
X77711939Y-45555000D01*
X77508061Y-45555000D01*
X77308102Y-45594774D01*
X77119744Y-45672795D01*
X76950226Y-45786063D01*
X76806063Y-45930226D01*
X76692795Y-46099744D01*
X76614774Y-46288102D01*
X76575000Y-46488061D01*
X58739994Y-46488061D01*
X58739992Y-42918061D01*
X59795000Y-42918061D01*
X59795000Y-43121939D01*
X59834774Y-43321898D01*
X59912795Y-43510256D01*
X60026063Y-43679774D01*
X60170226Y-43823937D01*
X60339744Y-43937205D01*
X60528102Y-44015226D01*
X60728061Y-44055000D01*
X60931939Y-44055000D01*
X61131898Y-44015226D01*
X61320256Y-43937205D01*
X61454120Y-43847760D01*
X84805000Y-43847760D01*
X84805000Y-44012240D01*
X84837089Y-44173560D01*
X84900033Y-44325521D01*
X84991413Y-44462281D01*
X85107719Y-44578587D01*
X85244479Y-44669967D01*
X85396440Y-44732911D01*
X85557760Y-44765000D01*
X85722240Y-44765000D01*
X85883560Y-44732911D01*
X86035521Y-44669967D01*
X86172281Y-44578587D01*
X86288587Y-44462281D01*
X86340000Y-44385336D01*
X86349798Y-44400000D01*
X86300033Y-44474479D01*
X86237089Y-44626440D01*
X86205000Y-44787760D01*
X86205000Y-44952240D01*
X86237089Y-45113560D01*
X86300033Y-45265521D01*
X86391413Y-45402281D01*
X86507719Y-45518587D01*
X86644479Y-45609967D01*
X86796440Y-45672911D01*
X86957760Y-45705000D01*
X87122240Y-45705000D01*
X87283560Y-45672911D01*
X87435521Y-45609967D01*
X87572281Y-45518587D01*
X87688587Y-45402281D01*
X87779967Y-45265521D01*
X87842911Y-45113560D01*
X87875000Y-44952240D01*
X87875000Y-44787760D01*
X87842911Y-44626440D01*
X87791532Y-44502400D01*
X87867719Y-44578587D01*
X88004479Y-44669967D01*
X88156440Y-44732911D01*
X88317760Y-44765000D01*
X88482240Y-44765000D01*
X88643560Y-44732911D01*
X88795521Y-44669967D01*
X88932281Y-44578587D01*
X89048587Y-44462281D01*
X89078133Y-44418061D01*
X90695000Y-44418061D01*
X90695000Y-44621939D01*
X90734774Y-44821898D01*
X90812795Y-45010256D01*
X90926063Y-45179774D01*
X91070226Y-45323937D01*
X91239744Y-45437205D01*
X91428102Y-45515226D01*
X91628061Y-45555000D01*
X91831939Y-45555000D01*
X92031898Y-45515226D01*
X92220256Y-45437205D01*
X92389774Y-45323937D01*
X92533937Y-45179774D01*
X92647205Y-45010256D01*
X92725226Y-44821898D01*
X92765000Y-44621939D01*
X92765000Y-44418061D01*
X92725226Y-44218102D01*
X92647205Y-44029744D01*
X92533937Y-43860226D01*
X92389774Y-43716063D01*
X92220256Y-43602795D01*
X92031898Y-43524774D01*
X91831939Y-43485000D01*
X91628061Y-43485000D01*
X91428102Y-43524774D01*
X91239744Y-43602795D01*
X91070226Y-43716063D01*
X90926063Y-43860226D01*
X90812795Y-44029744D01*
X90734774Y-44218102D01*
X90695000Y-44418061D01*
X89078133Y-44418061D01*
X89139967Y-44325521D01*
X89202911Y-44173560D01*
X89235000Y-44012240D01*
X89235000Y-43847760D01*
X89202911Y-43686440D01*
X89139967Y-43534479D01*
X89048587Y-43397719D01*
X88932281Y-43281413D01*
X88795521Y-43190033D01*
X88643560Y-43127089D01*
X88482240Y-43095000D01*
X88317760Y-43095000D01*
X88156440Y-43127089D01*
X88004479Y-43190033D01*
X87867719Y-43281413D01*
X87847216Y-43301916D01*
X87875000Y-43162240D01*
X87875000Y-42997760D01*
X87842911Y-42836440D01*
X87779967Y-42684479D01*
X87688587Y-42547719D01*
X87572281Y-42431413D01*
X87435521Y-42340033D01*
X87283560Y-42277089D01*
X87122240Y-42245000D01*
X86957760Y-42245000D01*
X86796440Y-42277089D01*
X86644479Y-42340033D01*
X86507719Y-42431413D01*
X86391413Y-42547719D01*
X86300033Y-42684479D01*
X86237089Y-42836440D01*
X86205000Y-42997760D01*
X86205000Y-43162240D01*
X86237089Y-43323560D01*
X86253113Y-43362245D01*
X86172281Y-43281413D01*
X86035521Y-43190033D01*
X85883560Y-43127089D01*
X85722240Y-43095000D01*
X85557760Y-43095000D01*
X85396440Y-43127089D01*
X85244479Y-43190033D01*
X85107719Y-43281413D01*
X84991413Y-43397719D01*
X84900033Y-43534479D01*
X84837089Y-43686440D01*
X84805000Y-43847760D01*
X61454120Y-43847760D01*
X61489774Y-43823937D01*
X61633937Y-43679774D01*
X61747205Y-43510256D01*
X61825226Y-43321898D01*
X61865000Y-43121939D01*
X61865000Y-42918061D01*
X61825226Y-42718102D01*
X61747205Y-42529744D01*
X61633937Y-42360226D01*
X61489774Y-42216063D01*
X61320256Y-42102795D01*
X61131898Y-42024774D01*
X60931939Y-41985000D01*
X60728061Y-41985000D01*
X60528102Y-42024774D01*
X60339744Y-42102795D01*
X60170226Y-42216063D01*
X60026063Y-42360226D01*
X59912795Y-42529744D01*
X59834774Y-42718102D01*
X59795000Y-42918061D01*
X58739992Y-42918061D01*
X58739992Y-41678061D01*
X68495000Y-41678061D01*
X68495000Y-41881939D01*
X68534774Y-42081898D01*
X68612795Y-42270256D01*
X68726063Y-42439774D01*
X68870226Y-42583937D01*
X69039744Y-42697205D01*
X69228102Y-42775226D01*
X69428061Y-42815000D01*
X69631939Y-42815000D01*
X69831898Y-42775226D01*
X70020256Y-42697205D01*
X70189774Y-42583937D01*
X70333937Y-42439774D01*
X70447205Y-42270256D01*
X70525226Y-42081898D01*
X70565000Y-41881939D01*
X70565000Y-41678061D01*
X70525226Y-41478102D01*
X70447205Y-41289744D01*
X70333937Y-41120226D01*
X70189774Y-40976063D01*
X70020256Y-40862795D01*
X69831898Y-40784774D01*
X69631939Y-40745000D01*
X69428061Y-40745000D01*
X69228102Y-40784774D01*
X69039744Y-40862795D01*
X68870226Y-40976063D01*
X68726063Y-41120226D01*
X68612795Y-41289744D01*
X68534774Y-41478102D01*
X68495000Y-41678061D01*
X58739992Y-41678061D01*
X58739991Y-40423061D01*
X77620000Y-40423061D01*
X77620000Y-40626939D01*
X77659774Y-40826898D01*
X77737795Y-41015256D01*
X77851063Y-41184774D01*
X77995226Y-41328937D01*
X78164744Y-41442205D01*
X78353102Y-41520226D01*
X78553061Y-41560000D01*
X78756939Y-41560000D01*
X78956898Y-41520226D01*
X79145256Y-41442205D01*
X79314774Y-41328937D01*
X79458937Y-41184774D01*
X79572205Y-41015256D01*
X79650226Y-40826898D01*
X79690000Y-40626939D01*
X79690000Y-40423061D01*
X79669115Y-40318061D01*
X81425000Y-40318061D01*
X81425000Y-40521939D01*
X81464774Y-40721898D01*
X81542795Y-40910256D01*
X81656063Y-41079774D01*
X81800226Y-41223937D01*
X81969744Y-41337205D01*
X82158102Y-41415226D01*
X82358061Y-41455000D01*
X82561939Y-41455000D01*
X82761898Y-41415226D01*
X82950256Y-41337205D01*
X83119774Y-41223937D01*
X83263937Y-41079774D01*
X83377205Y-40910256D01*
X83455226Y-40721898D01*
X83495000Y-40521939D01*
X83495000Y-40318061D01*
X83455226Y-40118102D01*
X83377205Y-39929744D01*
X83263937Y-39760226D01*
X83119774Y-39616063D01*
X82950256Y-39502795D01*
X82761898Y-39424774D01*
X82561939Y-39385000D01*
X82358061Y-39385000D01*
X82158102Y-39424774D01*
X81969744Y-39502795D01*
X81800226Y-39616063D01*
X81656063Y-39760226D01*
X81542795Y-39929744D01*
X81464774Y-40118102D01*
X81425000Y-40318061D01*
X79669115Y-40318061D01*
X79650226Y-40223102D01*
X79572205Y-40034744D01*
X79458937Y-39865226D01*
X79314774Y-39721063D01*
X79145256Y-39607795D01*
X78956898Y-39529774D01*
X78756939Y-39490000D01*
X78553061Y-39490000D01*
X78353102Y-39529774D01*
X78164744Y-39607795D01*
X77995226Y-39721063D01*
X77851063Y-39865226D01*
X77737795Y-40034744D01*
X77659774Y-40223102D01*
X77620000Y-40423061D01*
X58739991Y-40423061D01*
X58739987Y-36045575D01*
X58777500Y-36045575D01*
X58777500Y-36414425D01*
X58849459Y-36776188D01*
X58990612Y-37116961D01*
X59195534Y-37423649D01*
X59456351Y-37684466D01*
X59763039Y-37889388D01*
X60103812Y-38030541D01*
X60465575Y-38102500D01*
X60834425Y-38102500D01*
X61196188Y-38030541D01*
X61536961Y-37889388D01*
X61843649Y-37684466D01*
X62104466Y-37423649D01*
X62309388Y-37116961D01*
X62450541Y-36776188D01*
X62522500Y-36414425D01*
X62522500Y-36045575D01*
X65327500Y-36045575D01*
X65327500Y-36414425D01*
X65399459Y-36776188D01*
X65540612Y-37116961D01*
X65745534Y-37423649D01*
X66006351Y-37684466D01*
X66313039Y-37889388D01*
X66653812Y-38030541D01*
X67015575Y-38102500D01*
X67384425Y-38102500D01*
X67746188Y-38030541D01*
X68086961Y-37889388D01*
X68088946Y-37888061D01*
X71445000Y-37888061D01*
X71445000Y-38091939D01*
X71484774Y-38291898D01*
X71562795Y-38480256D01*
X71676063Y-38649774D01*
X71820226Y-38793937D01*
X71989744Y-38907205D01*
X72178102Y-38985226D01*
X72378061Y-39025000D01*
X72581939Y-39025000D01*
X72781898Y-38985226D01*
X72970256Y-38907205D01*
X73139774Y-38793937D01*
X73283937Y-38649774D01*
X73397205Y-38480256D01*
X73475226Y-38291898D01*
X73507874Y-38127760D01*
X85425000Y-38127760D01*
X85425000Y-38292240D01*
X85457089Y-38453560D01*
X85520033Y-38605521D01*
X85611413Y-38742281D01*
X85727719Y-38858587D01*
X85864479Y-38949967D01*
X86016440Y-39012911D01*
X86177760Y-39045000D01*
X86342240Y-39045000D01*
X86503560Y-39012911D01*
X86655521Y-38949967D01*
X86792281Y-38858587D01*
X86908587Y-38742281D01*
X86999967Y-38605521D01*
X87062911Y-38453560D01*
X87095000Y-38292240D01*
X87095000Y-38127760D01*
X87062911Y-37966440D01*
X86999967Y-37814479D01*
X86908587Y-37677719D01*
X86792281Y-37561413D01*
X86655521Y-37470033D01*
X86503560Y-37407089D01*
X86342240Y-37375000D01*
X86177760Y-37375000D01*
X86016440Y-37407089D01*
X85864479Y-37470033D01*
X85727719Y-37561413D01*
X85611413Y-37677719D01*
X85520033Y-37814479D01*
X85457089Y-37966440D01*
X85425000Y-38127760D01*
X73507874Y-38127760D01*
X73515000Y-38091939D01*
X73515000Y-37888061D01*
X73475226Y-37688102D01*
X73397205Y-37499744D01*
X73283937Y-37330226D01*
X73139774Y-37186063D01*
X72970256Y-37072795D01*
X72781898Y-36994774D01*
X72581939Y-36955000D01*
X72378061Y-36955000D01*
X72178102Y-36994774D01*
X71989744Y-37072795D01*
X71820226Y-37186063D01*
X71676063Y-37330226D01*
X71562795Y-37499744D01*
X71484774Y-37688102D01*
X71445000Y-37888061D01*
X68088946Y-37888061D01*
X68393649Y-37684466D01*
X68654466Y-37423649D01*
X68859388Y-37116961D01*
X69000541Y-36776188D01*
X69072500Y-36414425D01*
X69072500Y-36045575D01*
X69000541Y-35683812D01*
X68859388Y-35343039D01*
X68654466Y-35036351D01*
X68393649Y-34775534D01*
X68086961Y-34570612D01*
X67746188Y-34429459D01*
X67384425Y-34357500D01*
X67015575Y-34357500D01*
X66653812Y-34429459D01*
X66313039Y-34570612D01*
X66006351Y-34775534D01*
X65745534Y-35036351D01*
X65540612Y-35343039D01*
X65399459Y-35683812D01*
X65327500Y-36045575D01*
X62522500Y-36045575D01*
X62450541Y-35683812D01*
X62309388Y-35343039D01*
X62104466Y-35036351D01*
X61843649Y-34775534D01*
X61536961Y-34570612D01*
X61196188Y-34429459D01*
X60834425Y-34357500D01*
X60465575Y-34357500D01*
X60103812Y-34429459D01*
X59763039Y-34570612D01*
X59456351Y-34775534D01*
X59195534Y-35036351D01*
X58990612Y-35343039D01*
X58849459Y-35683812D01*
X58777500Y-36045575D01*
X58739987Y-36045575D01*
X58739986Y-32821026D01*
X62620500Y-32821026D01*
X62620500Y-33078974D01*
X62670823Y-33331967D01*
X62769536Y-33570281D01*
X62912845Y-33784758D01*
X63095242Y-33967155D01*
X63309719Y-34110464D01*
X63548033Y-34209177D01*
X63801026Y-34259500D01*
X64058974Y-34259500D01*
X64311967Y-34209177D01*
X64472311Y-34142760D01*
X75695000Y-34142760D01*
X75695000Y-34307240D01*
X75727089Y-34468560D01*
X75790033Y-34620521D01*
X75881413Y-34757281D01*
X75997719Y-34873587D01*
X76134479Y-34964967D01*
X76286440Y-35027911D01*
X76447760Y-35060000D01*
X76612240Y-35060000D01*
X76773560Y-35027911D01*
X76792084Y-35020238D01*
X76777089Y-35056440D01*
X76745000Y-35217760D01*
X76745000Y-35382240D01*
X76777089Y-35543560D01*
X76840033Y-35695521D01*
X76931413Y-35832281D01*
X77047719Y-35948587D01*
X77184479Y-36039967D01*
X77336440Y-36102911D01*
X77497760Y-36135000D01*
X77662240Y-36135000D01*
X77823560Y-36102911D01*
X77975521Y-36039967D01*
X78112281Y-35948587D01*
X78228587Y-35832281D01*
X78319967Y-35695521D01*
X78382911Y-35543560D01*
X78415000Y-35382240D01*
X78415000Y-35217760D01*
X78382911Y-35056440D01*
X78350918Y-34979203D01*
X78456440Y-35022911D01*
X78617760Y-35055000D01*
X78782240Y-35055000D01*
X78943560Y-35022911D01*
X79095521Y-34959967D01*
X79232281Y-34868587D01*
X79348587Y-34752281D01*
X79439967Y-34615521D01*
X79502911Y-34463560D01*
X79535000Y-34302240D01*
X79535000Y-34137760D01*
X79502911Y-33976440D01*
X79439967Y-33824479D01*
X79348587Y-33687719D01*
X79232281Y-33571413D01*
X79095521Y-33480033D01*
X78943560Y-33417089D01*
X78782240Y-33385000D01*
X78617760Y-33385000D01*
X78456440Y-33417089D01*
X78330919Y-33469081D01*
X78382911Y-33343560D01*
X78415000Y-33182240D01*
X78415000Y-33017760D01*
X78382911Y-32856440D01*
X78319967Y-32704479D01*
X78228587Y-32567719D01*
X78112281Y-32451413D01*
X77975521Y-32360033D01*
X77823560Y-32297089D01*
X77662240Y-32265000D01*
X77497760Y-32265000D01*
X77336440Y-32297089D01*
X77184479Y-32360033D01*
X77047719Y-32451413D01*
X76931413Y-32567719D01*
X76840033Y-32704479D01*
X76777089Y-32856440D01*
X76745000Y-33017760D01*
X76745000Y-33182240D01*
X76777089Y-33343560D01*
X76817084Y-33440117D01*
X76773560Y-33422089D01*
X76612240Y-33390000D01*
X76447760Y-33390000D01*
X76286440Y-33422089D01*
X76134479Y-33485033D01*
X75997719Y-33576413D01*
X75881413Y-33692719D01*
X75790033Y-33829479D01*
X75727089Y-33981440D01*
X75695000Y-34142760D01*
X64472311Y-34142760D01*
X64550281Y-34110464D01*
X64764758Y-33967155D01*
X64947155Y-33784758D01*
X65090464Y-33570281D01*
X65189177Y-33331967D01*
X65239500Y-33078974D01*
X65239500Y-32867760D01*
X71695000Y-32867760D01*
X71695000Y-33032240D01*
X71727089Y-33193560D01*
X71790033Y-33345521D01*
X71881413Y-33482281D01*
X71997719Y-33598587D01*
X72134479Y-33689967D01*
X72286440Y-33752911D01*
X72447760Y-33785000D01*
X72612240Y-33785000D01*
X72773560Y-33752911D01*
X72925521Y-33689967D01*
X73062281Y-33598587D01*
X73178587Y-33482281D01*
X73180000Y-33480166D01*
X73181413Y-33482281D01*
X73297719Y-33598587D01*
X73434479Y-33689967D01*
X73586440Y-33752911D01*
X73747760Y-33785000D01*
X73912240Y-33785000D01*
X74073560Y-33752911D01*
X74225521Y-33689967D01*
X74362281Y-33598587D01*
X74478587Y-33482281D01*
X74569967Y-33345521D01*
X74632911Y-33193560D01*
X74665000Y-33032240D01*
X74665000Y-32867760D01*
X74632911Y-32706440D01*
X74569967Y-32554479D01*
X74478587Y-32417719D01*
X74362281Y-32301413D01*
X74225521Y-32210033D01*
X74073560Y-32147089D01*
X73912240Y-32115000D01*
X73747760Y-32115000D01*
X73586440Y-32147089D01*
X73434479Y-32210033D01*
X73297719Y-32301413D01*
X73181413Y-32417719D01*
X73180000Y-32419834D01*
X73178587Y-32417719D01*
X73062281Y-32301413D01*
X72925521Y-32210033D01*
X72773560Y-32147089D01*
X72612240Y-32115000D01*
X72447760Y-32115000D01*
X72286440Y-32147089D01*
X72134479Y-32210033D01*
X71997719Y-32301413D01*
X71881413Y-32417719D01*
X71790033Y-32554479D01*
X71727089Y-32706440D01*
X71695000Y-32867760D01*
X65239500Y-32867760D01*
X65239500Y-32821026D01*
X65189177Y-32568033D01*
X65090464Y-32329719D01*
X64947155Y-32115242D01*
X64764758Y-31932845D01*
X64550281Y-31789536D01*
X64311967Y-31690823D01*
X64058974Y-31640500D01*
X63801026Y-31640500D01*
X63548033Y-31690823D01*
X63309719Y-31789536D01*
X63095242Y-31932845D01*
X62912845Y-32115242D01*
X62769536Y-32329719D01*
X62670823Y-32568033D01*
X62620500Y-32821026D01*
X58739986Y-32821026D01*
X58739983Y-29495575D01*
X58777500Y-29495575D01*
X58777500Y-29864425D01*
X58849459Y-30226188D01*
X58990612Y-30566961D01*
X59195534Y-30873649D01*
X59456351Y-31134466D01*
X59763039Y-31339388D01*
X60103812Y-31480541D01*
X60465575Y-31552500D01*
X60834425Y-31552500D01*
X61196188Y-31480541D01*
X61536961Y-31339388D01*
X61843649Y-31134466D01*
X62104466Y-30873649D01*
X62309388Y-30566961D01*
X62450541Y-30226188D01*
X62522500Y-29864425D01*
X62522500Y-29495575D01*
X65327500Y-29495575D01*
X65327500Y-29864425D01*
X65399459Y-30226188D01*
X65540612Y-30566961D01*
X65745534Y-30873649D01*
X66006351Y-31134466D01*
X66313039Y-31339388D01*
X66653812Y-31480541D01*
X67015575Y-31552500D01*
X67384425Y-31552500D01*
X67746188Y-31480541D01*
X68086961Y-31339388D01*
X68393649Y-31134466D01*
X68654466Y-30873649D01*
X68859388Y-30566961D01*
X69000541Y-30226188D01*
X69072500Y-29864425D01*
X69072500Y-29857911D01*
X72915000Y-29857911D01*
X72915000Y-30042089D01*
X72950932Y-30222729D01*
X73021414Y-30392889D01*
X73123738Y-30546028D01*
X73253972Y-30676262D01*
X73407111Y-30778586D01*
X73577271Y-30849068D01*
X73757911Y-30885000D01*
X73942089Y-30885000D01*
X74122729Y-30849068D01*
X74292889Y-30778586D01*
X74446028Y-30676262D01*
X74576262Y-30546028D01*
X74678586Y-30392889D01*
X74749068Y-30222729D01*
X74785000Y-30042089D01*
X74785000Y-29857911D01*
X74749068Y-29677271D01*
X74678586Y-29507111D01*
X74576262Y-29353972D01*
X74446028Y-29223738D01*
X74292889Y-29121414D01*
X74122729Y-29050932D01*
X73942089Y-29015000D01*
X73757911Y-29015000D01*
X73577271Y-29050932D01*
X73407111Y-29121414D01*
X73253972Y-29223738D01*
X73123738Y-29353972D01*
X73021414Y-29507111D01*
X72950932Y-29677271D01*
X72915000Y-29857911D01*
X69072500Y-29857911D01*
X69072500Y-29495575D01*
X69000541Y-29133812D01*
X68923539Y-28947911D01*
X75685000Y-28947911D01*
X75685000Y-29132089D01*
X75720932Y-29312729D01*
X75791414Y-29482889D01*
X75893738Y-29636028D01*
X76023972Y-29766262D01*
X76177111Y-29868586D01*
X76347271Y-29939068D01*
X76527911Y-29975000D01*
X76712089Y-29975000D01*
X76892729Y-29939068D01*
X77062889Y-29868586D01*
X77216028Y-29766262D01*
X77346262Y-29636028D01*
X77448586Y-29482889D01*
X77519068Y-29312729D01*
X77552984Y-29142225D01*
X77580932Y-29282729D01*
X77651414Y-29452889D01*
X77753738Y-29606028D01*
X77883972Y-29736262D01*
X78037111Y-29838586D01*
X78207271Y-29909068D01*
X78387911Y-29945000D01*
X78572089Y-29945000D01*
X78752729Y-29909068D01*
X78922889Y-29838586D01*
X79076028Y-29736262D01*
X79206262Y-29606028D01*
X79308586Y-29452889D01*
X79379068Y-29282729D01*
X79415000Y-29102089D01*
X79415000Y-28917911D01*
X79379068Y-28737271D01*
X79308586Y-28567111D01*
X79206262Y-28413972D01*
X79076028Y-28283738D01*
X78922889Y-28181414D01*
X78752729Y-28110932D01*
X78572089Y-28075000D01*
X78387911Y-28075000D01*
X78207271Y-28110932D01*
X78037111Y-28181414D01*
X77883972Y-28283738D01*
X77753738Y-28413972D01*
X77651414Y-28567111D01*
X77580932Y-28737271D01*
X77547016Y-28907775D01*
X77519068Y-28767271D01*
X77448586Y-28597111D01*
X77346262Y-28443972D01*
X77216028Y-28313738D01*
X77062889Y-28211414D01*
X76892729Y-28140932D01*
X76712089Y-28105000D01*
X76527911Y-28105000D01*
X76347271Y-28140932D01*
X76177111Y-28211414D01*
X76023972Y-28313738D01*
X75893738Y-28443972D01*
X75791414Y-28597111D01*
X75720932Y-28767271D01*
X75685000Y-28947911D01*
X68923539Y-28947911D01*
X68859388Y-28793039D01*
X68654466Y-28486351D01*
X68393649Y-28225534D01*
X68086961Y-28020612D01*
X67746188Y-27879459D01*
X67384425Y-27807500D01*
X67015575Y-27807500D01*
X66653812Y-27879459D01*
X66313039Y-28020612D01*
X66006351Y-28225534D01*
X65745534Y-28486351D01*
X65540612Y-28793039D01*
X65399459Y-29133812D01*
X65327500Y-29495575D01*
X62522500Y-29495575D01*
X62450541Y-29133812D01*
X62309388Y-28793039D01*
X62104466Y-28486351D01*
X61843649Y-28225534D01*
X61536961Y-28020612D01*
X61196188Y-27879459D01*
X60834425Y-27807500D01*
X60465575Y-27807500D01*
X60103812Y-27879459D01*
X59763039Y-28020612D01*
X59456351Y-28225534D01*
X59195534Y-28486351D01*
X58990612Y-28793039D01*
X58849459Y-29133812D01*
X58777500Y-29495575D01*
X58739983Y-29495575D01*
X58739982Y-28532210D01*
X58785571Y-28067404D01*
X58911199Y-27651350D01*
X59115246Y-27267621D01*
X59389937Y-26930837D01*
X59724816Y-26653819D01*
X60107122Y-26447122D01*
X60522296Y-26318618D01*
X60984999Y-26270000D01*
X90092029Y-26270000D01*
X90073000Y-39199813D01*
G04 #@! TA.AperFunction,Conductor*
D17*
G36*
X90073000Y-39199813D02*
G01*
X90075404Y-39224593D01*
X90082596Y-39248428D01*
X90094300Y-39270402D01*
X90110065Y-39289670D01*
X90129287Y-39305493D01*
X90151227Y-39317261D01*
X90175040Y-39324523D01*
X90200000Y-39327000D01*
X120419945Y-39327000D01*
X120420001Y-57929125D01*
X120350554Y-58686077D01*
X120152585Y-59388399D01*
X119829945Y-60042877D01*
X119393437Y-60627603D01*
X118857684Y-61122986D01*
X118240621Y-61512446D01*
X117562920Y-61782931D01*
X116833631Y-61928101D01*
X116436733Y-61950000D01*
X62760866Y-61950000D01*
X62003923Y-61880554D01*
X61301601Y-61682585D01*
X60647123Y-61359945D01*
X60062397Y-60923437D01*
X59567014Y-60387684D01*
X59177554Y-59770621D01*
X58907069Y-59092920D01*
X58761899Y-58363631D01*
X58740000Y-57966733D01*
X58739999Y-55048061D01*
X78665000Y-55048061D01*
X78665000Y-55251939D01*
X78704774Y-55451898D01*
X78782795Y-55640256D01*
X78896063Y-55809774D01*
X79040226Y-55953937D01*
X79209744Y-56067205D01*
X79398102Y-56145226D01*
X79598061Y-56185000D01*
X79801939Y-56185000D01*
X80001898Y-56145226D01*
X80190256Y-56067205D01*
X80359774Y-55953937D01*
X80503937Y-55809774D01*
X80617205Y-55640256D01*
X80684388Y-55478061D01*
X99705000Y-55478061D01*
X99705000Y-55681939D01*
X99744774Y-55881898D01*
X99822795Y-56070256D01*
X99936063Y-56239774D01*
X100080226Y-56383937D01*
X100249744Y-56497205D01*
X100438102Y-56575226D01*
X100638061Y-56615000D01*
X100841939Y-56615000D01*
X101041898Y-56575226D01*
X101230256Y-56497205D01*
X101399774Y-56383937D01*
X101543937Y-56239774D01*
X101657205Y-56070256D01*
X101735226Y-55881898D01*
X101775000Y-55681939D01*
X101775000Y-55478061D01*
X101735226Y-55278102D01*
X101657205Y-55089744D01*
X101543937Y-54920226D01*
X101399774Y-54776063D01*
X101230256Y-54662795D01*
X101041898Y-54584774D01*
X100841939Y-54545000D01*
X100638061Y-54545000D01*
X100438102Y-54584774D01*
X100249744Y-54662795D01*
X100080226Y-54776063D01*
X99936063Y-54920226D01*
X99822795Y-55089744D01*
X99744774Y-55278102D01*
X99705000Y-55478061D01*
X80684388Y-55478061D01*
X80695226Y-55451898D01*
X80735000Y-55251939D01*
X80735000Y-55048061D01*
X80695226Y-54848102D01*
X80617205Y-54659744D01*
X80503937Y-54490226D01*
X80359774Y-54346063D01*
X80190256Y-54232795D01*
X80001898Y-54154774D01*
X79801939Y-54115000D01*
X79598061Y-54115000D01*
X79398102Y-54154774D01*
X79209744Y-54232795D01*
X79040226Y-54346063D01*
X78896063Y-54490226D01*
X78782795Y-54659744D01*
X78704774Y-54848102D01*
X78665000Y-55048061D01*
X58739999Y-55048061D01*
X58739999Y-53798061D01*
X101825000Y-53798061D01*
X101825000Y-54001939D01*
X101864774Y-54201898D01*
X101942795Y-54390256D01*
X102056063Y-54559774D01*
X102200226Y-54703937D01*
X102369744Y-54817205D01*
X102558102Y-54895226D01*
X102758061Y-54935000D01*
X102961939Y-54935000D01*
X103161898Y-54895226D01*
X103350256Y-54817205D01*
X103519774Y-54703937D01*
X103663937Y-54559774D01*
X103777205Y-54390256D01*
X103855226Y-54201898D01*
X103895000Y-54001939D01*
X103895000Y-53798061D01*
X103855226Y-53598102D01*
X103777205Y-53409744D01*
X103663937Y-53240226D01*
X103519774Y-53096063D01*
X103350256Y-52982795D01*
X103161898Y-52904774D01*
X102961939Y-52865000D01*
X102758061Y-52865000D01*
X102558102Y-52904774D01*
X102369744Y-52982795D01*
X102200226Y-53096063D01*
X102056063Y-53240226D01*
X101942795Y-53409744D01*
X101864774Y-53598102D01*
X101825000Y-53798061D01*
X58739999Y-53798061D01*
X58739996Y-49258061D01*
X78695000Y-49258061D01*
X78695000Y-49461939D01*
X78734774Y-49661898D01*
X78812795Y-49850256D01*
X78926063Y-50019774D01*
X79070226Y-50163937D01*
X79239744Y-50277205D01*
X79428102Y-50355226D01*
X79628061Y-50395000D01*
X79831939Y-50395000D01*
X80031898Y-50355226D01*
X80220256Y-50277205D01*
X80389774Y-50163937D01*
X80533937Y-50019774D01*
X80588535Y-49938061D01*
X86015000Y-49938061D01*
X86015000Y-50141939D01*
X86054774Y-50341898D01*
X86132795Y-50530256D01*
X86246063Y-50699774D01*
X86390226Y-50843937D01*
X86559744Y-50957205D01*
X86748102Y-51035226D01*
X86948061Y-51075000D01*
X87151939Y-51075000D01*
X87351898Y-51035226D01*
X87540256Y-50957205D01*
X87709774Y-50843937D01*
X87853937Y-50699774D01*
X87967205Y-50530256D01*
X88045226Y-50341898D01*
X88061961Y-50257760D01*
X92525000Y-50257760D01*
X92525000Y-50422240D01*
X92557089Y-50583560D01*
X92620033Y-50735521D01*
X92711413Y-50872281D01*
X92827719Y-50988587D01*
X92964479Y-51079967D01*
X93116440Y-51142911D01*
X93277760Y-51175000D01*
X93442240Y-51175000D01*
X93603560Y-51142911D01*
X93755521Y-51079967D01*
X93892281Y-50988587D01*
X94008587Y-50872281D01*
X94099967Y-50735521D01*
X94162911Y-50583560D01*
X94195000Y-50422240D01*
X94195000Y-50347760D01*
X96985000Y-50347760D01*
X96985000Y-50512240D01*
X97017089Y-50673560D01*
X97080033Y-50825521D01*
X97171413Y-50962281D01*
X97287719Y-51078587D01*
X97424479Y-51169967D01*
X97576440Y-51232911D01*
X97737760Y-51265000D01*
X97902240Y-51265000D01*
X98037080Y-51238178D01*
X98017089Y-51286440D01*
X97985000Y-51447760D01*
X97985000Y-51612240D01*
X98017089Y-51773560D01*
X98080033Y-51925521D01*
X98171413Y-52062281D01*
X98287719Y-52178587D01*
X98424479Y-52269967D01*
X98576440Y-52332911D01*
X98737760Y-52365000D01*
X98902240Y-52365000D01*
X99063560Y-52332911D01*
X99215521Y-52269967D01*
X99352281Y-52178587D01*
X99468587Y-52062281D01*
X99559967Y-51925521D01*
X99622911Y-51773560D01*
X99630032Y-51737760D01*
X103395000Y-51737760D01*
X103395000Y-51902240D01*
X103427089Y-52063560D01*
X103490033Y-52215521D01*
X103581413Y-52352281D01*
X103697719Y-52468587D01*
X103834479Y-52559967D01*
X103986440Y-52622911D01*
X104147760Y-52655000D01*
X104312240Y-52655000D01*
X104473560Y-52622911D01*
X104624053Y-52560575D01*
X109587500Y-52560575D01*
X109587500Y-52929425D01*
X109659459Y-53291188D01*
X109800612Y-53631961D01*
X110005534Y-53938649D01*
X110266351Y-54199466D01*
X110573039Y-54404388D01*
X110913812Y-54545541D01*
X111275575Y-54617500D01*
X111644425Y-54617500D01*
X112006188Y-54545541D01*
X112346961Y-54404388D01*
X112653649Y-54199466D01*
X112914466Y-53938649D01*
X113119388Y-53631961D01*
X113260541Y-53291188D01*
X113332500Y-52929425D01*
X113332500Y-52560575D01*
X116137500Y-52560575D01*
X116137500Y-52929425D01*
X116209459Y-53291188D01*
X116350612Y-53631961D01*
X116555534Y-53938649D01*
X116816351Y-54199466D01*
X117123039Y-54404388D01*
X117463812Y-54545541D01*
X117825575Y-54617500D01*
X118194425Y-54617500D01*
X118556188Y-54545541D01*
X118896961Y-54404388D01*
X119203649Y-54199466D01*
X119464466Y-53938649D01*
X119669388Y-53631961D01*
X119810541Y-53291188D01*
X119882500Y-52929425D01*
X119882500Y-52560575D01*
X119810541Y-52198812D01*
X119669388Y-51858039D01*
X119464466Y-51551351D01*
X119203649Y-51290534D01*
X118896961Y-51085612D01*
X118556188Y-50944459D01*
X118194425Y-50872500D01*
X117825575Y-50872500D01*
X117463812Y-50944459D01*
X117123039Y-51085612D01*
X116816351Y-51290534D01*
X116555534Y-51551351D01*
X116350612Y-51858039D01*
X116209459Y-52198812D01*
X116137500Y-52560575D01*
X113332500Y-52560575D01*
X113260541Y-52198812D01*
X113119388Y-51858039D01*
X112914466Y-51551351D01*
X112653649Y-51290534D01*
X112346961Y-51085612D01*
X112006188Y-50944459D01*
X111644425Y-50872500D01*
X111275575Y-50872500D01*
X110913812Y-50944459D01*
X110573039Y-51085612D01*
X110266351Y-51290534D01*
X110005534Y-51551351D01*
X109800612Y-51858039D01*
X109659459Y-52198812D01*
X109587500Y-52560575D01*
X104624053Y-52560575D01*
X104625521Y-52559967D01*
X104762281Y-52468587D01*
X104878587Y-52352281D01*
X104969967Y-52215521D01*
X105032911Y-52063560D01*
X105065000Y-51902240D01*
X105065000Y-51737760D01*
X105032911Y-51576440D01*
X104969967Y-51424479D01*
X104878587Y-51287719D01*
X104762281Y-51171413D01*
X104625521Y-51080033D01*
X104473560Y-51017089D01*
X104312240Y-50985000D01*
X104147760Y-50985000D01*
X103986440Y-51017089D01*
X103834479Y-51080033D01*
X103697719Y-51171413D01*
X103581413Y-51287719D01*
X103490033Y-51424479D01*
X103427089Y-51576440D01*
X103395000Y-51737760D01*
X99630032Y-51737760D01*
X99655000Y-51612240D01*
X99655000Y-51447760D01*
X99622911Y-51286440D01*
X99585061Y-51195061D01*
X99676440Y-51232911D01*
X99837760Y-51265000D01*
X100002240Y-51265000D01*
X100163560Y-51232911D01*
X100315521Y-51169967D01*
X100452281Y-51078587D01*
X100568587Y-50962281D01*
X100659967Y-50825521D01*
X100722911Y-50673560D01*
X100755000Y-50512240D01*
X100755000Y-50347760D01*
X100722911Y-50186440D01*
X100659967Y-50034479D01*
X100568587Y-49897719D01*
X100452281Y-49781413D01*
X100315521Y-49690033D01*
X100163560Y-49627089D01*
X100002240Y-49595000D01*
X99837760Y-49595000D01*
X99676440Y-49627089D01*
X99628178Y-49647080D01*
X99655000Y-49512240D01*
X99655000Y-49347760D01*
X99654656Y-49346026D01*
X113420500Y-49346026D01*
X113420500Y-49603974D01*
X113470823Y-49856967D01*
X113569536Y-50095281D01*
X113712845Y-50309758D01*
X113895242Y-50492155D01*
X114109719Y-50635464D01*
X114348033Y-50734177D01*
X114601026Y-50784500D01*
X114858974Y-50784500D01*
X115111967Y-50734177D01*
X115350281Y-50635464D01*
X115564758Y-50492155D01*
X115747155Y-50309758D01*
X115890464Y-50095281D01*
X115989177Y-49856967D01*
X116039500Y-49603974D01*
X116039500Y-49346026D01*
X115989177Y-49093033D01*
X115890464Y-48854719D01*
X115747155Y-48640242D01*
X115564758Y-48457845D01*
X115350281Y-48314536D01*
X115111967Y-48215823D01*
X114858974Y-48165500D01*
X114601026Y-48165500D01*
X114348033Y-48215823D01*
X114109719Y-48314536D01*
X113895242Y-48457845D01*
X113712845Y-48640242D01*
X113569536Y-48854719D01*
X113470823Y-49093033D01*
X113420500Y-49346026D01*
X99654656Y-49346026D01*
X99622911Y-49186440D01*
X99559967Y-49034479D01*
X99468587Y-48897719D01*
X99352281Y-48781413D01*
X99215521Y-48690033D01*
X99063560Y-48627089D01*
X98902240Y-48595000D01*
X98737760Y-48595000D01*
X98576440Y-48627089D01*
X98424479Y-48690033D01*
X98287719Y-48781413D01*
X98171413Y-48897719D01*
X98080033Y-49034479D01*
X98017089Y-49186440D01*
X97985000Y-49347760D01*
X97985000Y-49512240D01*
X98005550Y-49615550D01*
X97902240Y-49595000D01*
X97737760Y-49595000D01*
X97576440Y-49627089D01*
X97424479Y-49690033D01*
X97287719Y-49781413D01*
X97171413Y-49897719D01*
X97080033Y-50034479D01*
X97017089Y-50186440D01*
X96985000Y-50347760D01*
X94195000Y-50347760D01*
X94195000Y-50257760D01*
X94162911Y-50096440D01*
X94099967Y-49944479D01*
X94008587Y-49807719D01*
X93892281Y-49691413D01*
X93755521Y-49600033D01*
X93603560Y-49537089D01*
X93442240Y-49505000D01*
X93277760Y-49505000D01*
X93116440Y-49537089D01*
X92964479Y-49600033D01*
X92827719Y-49691413D01*
X92711413Y-49807719D01*
X92620033Y-49944479D01*
X92557089Y-50096440D01*
X92525000Y-50257760D01*
X88061961Y-50257760D01*
X88085000Y-50141939D01*
X88085000Y-49938061D01*
X88045226Y-49738102D01*
X87967205Y-49549744D01*
X87853937Y-49380226D01*
X87709774Y-49236063D01*
X87540256Y-49122795D01*
X87351898Y-49044774D01*
X87151939Y-49005000D01*
X86948061Y-49005000D01*
X86748102Y-49044774D01*
X86559744Y-49122795D01*
X86390226Y-49236063D01*
X86246063Y-49380226D01*
X86132795Y-49549744D01*
X86054774Y-49738102D01*
X86015000Y-49938061D01*
X80588535Y-49938061D01*
X80647205Y-49850256D01*
X80725226Y-49661898D01*
X80765000Y-49461939D01*
X80765000Y-49258061D01*
X80725226Y-49058102D01*
X80647205Y-48869744D01*
X80533937Y-48700226D01*
X80389774Y-48556063D01*
X80220256Y-48442795D01*
X80031898Y-48364774D01*
X79831939Y-48325000D01*
X79628061Y-48325000D01*
X79428102Y-48364774D01*
X79239744Y-48442795D01*
X79070226Y-48556063D01*
X78926063Y-48700226D01*
X78812795Y-48869744D01*
X78734774Y-49058102D01*
X78695000Y-49258061D01*
X58739996Y-49258061D01*
X58739994Y-46488061D01*
X76575000Y-46488061D01*
X76575000Y-46691939D01*
X76614774Y-46891898D01*
X76692795Y-47080256D01*
X76806063Y-47249774D01*
X76950226Y-47393937D01*
X77119744Y-47507205D01*
X77308102Y-47585226D01*
X77508061Y-47625000D01*
X77711939Y-47625000D01*
X77911898Y-47585226D01*
X78100256Y-47507205D01*
X78269774Y-47393937D01*
X78413937Y-47249774D01*
X78527205Y-47080256D01*
X78605226Y-46891898D01*
X78645000Y-46691939D01*
X78645000Y-46488061D01*
X78605226Y-46288102D01*
X78572072Y-46208061D01*
X92295000Y-46208061D01*
X92295000Y-46411939D01*
X92334774Y-46611898D01*
X92412795Y-46800256D01*
X92526063Y-46969774D01*
X92670226Y-47113937D01*
X92839744Y-47227205D01*
X93028102Y-47305226D01*
X93228061Y-47345000D01*
X93431939Y-47345000D01*
X93631898Y-47305226D01*
X93820256Y-47227205D01*
X93989774Y-47113937D01*
X94133937Y-46969774D01*
X94247205Y-46800256D01*
X94325226Y-46611898D01*
X94365000Y-46411939D01*
X94365000Y-46208061D01*
X94325718Y-46010575D01*
X109587500Y-46010575D01*
X109587500Y-46379425D01*
X109659459Y-46741188D01*
X109800612Y-47081961D01*
X110005534Y-47388649D01*
X110266351Y-47649466D01*
X110573039Y-47854388D01*
X110913812Y-47995541D01*
X111275575Y-48067500D01*
X111644425Y-48067500D01*
X112006188Y-47995541D01*
X112346961Y-47854388D01*
X112653649Y-47649466D01*
X112914466Y-47388649D01*
X113119388Y-47081961D01*
X113260541Y-46741188D01*
X113332500Y-46379425D01*
X113332500Y-46010575D01*
X116137500Y-46010575D01*
X116137500Y-46379425D01*
X116209459Y-46741188D01*
X116350612Y-47081961D01*
X116555534Y-47388649D01*
X116816351Y-47649466D01*
X117123039Y-47854388D01*
X117463812Y-47995541D01*
X117825575Y-48067500D01*
X118194425Y-48067500D01*
X118556188Y-47995541D01*
X118896961Y-47854388D01*
X119203649Y-47649466D01*
X119464466Y-47388649D01*
X119669388Y-47081961D01*
X119810541Y-46741188D01*
X119882500Y-46379425D01*
X119882500Y-46010575D01*
X119810541Y-45648812D01*
X119669388Y-45308039D01*
X119464466Y-45001351D01*
X119203649Y-44740534D01*
X118896961Y-44535612D01*
X118556188Y-44394459D01*
X118194425Y-44322500D01*
X117825575Y-44322500D01*
X117463812Y-44394459D01*
X117123039Y-44535612D01*
X116816351Y-44740534D01*
X116555534Y-45001351D01*
X116350612Y-45308039D01*
X116209459Y-45648812D01*
X116137500Y-46010575D01*
X113332500Y-46010575D01*
X113260541Y-45648812D01*
X113119388Y-45308039D01*
X112914466Y-45001351D01*
X112653649Y-44740534D01*
X112346961Y-44535612D01*
X112006188Y-44394459D01*
X111644425Y-44322500D01*
X111275575Y-44322500D01*
X110913812Y-44394459D01*
X110573039Y-44535612D01*
X110266351Y-44740534D01*
X110005534Y-45001351D01*
X109800612Y-45308039D01*
X109659459Y-45648812D01*
X109587500Y-46010575D01*
X94325718Y-46010575D01*
X94325226Y-46008102D01*
X94247205Y-45819744D01*
X94133937Y-45650226D01*
X93989774Y-45506063D01*
X93820256Y-45392795D01*
X93631898Y-45314774D01*
X93431939Y-45275000D01*
X93228061Y-45275000D01*
X93028102Y-45314774D01*
X92839744Y-45392795D01*
X92670226Y-45506063D01*
X92526063Y-45650226D01*
X92412795Y-45819744D01*
X92334774Y-46008102D01*
X92295000Y-46208061D01*
X78572072Y-46208061D01*
X78527205Y-46099744D01*
X78413937Y-45930226D01*
X78269774Y-45786063D01*
X78100256Y-45672795D01*
X77911898Y-45594774D01*
X77711939Y-45555000D01*
X77508061Y-45555000D01*
X77308102Y-45594774D01*
X77119744Y-45672795D01*
X76950226Y-45786063D01*
X76806063Y-45930226D01*
X76692795Y-46099744D01*
X76614774Y-46288102D01*
X76575000Y-46488061D01*
X58739994Y-46488061D01*
X58739992Y-42918061D01*
X59795000Y-42918061D01*
X59795000Y-43121939D01*
X59834774Y-43321898D01*
X59912795Y-43510256D01*
X60026063Y-43679774D01*
X60170226Y-43823937D01*
X60339744Y-43937205D01*
X60528102Y-44015226D01*
X60728061Y-44055000D01*
X60931939Y-44055000D01*
X61131898Y-44015226D01*
X61320256Y-43937205D01*
X61454120Y-43847760D01*
X84805000Y-43847760D01*
X84805000Y-44012240D01*
X84837089Y-44173560D01*
X84900033Y-44325521D01*
X84991413Y-44462281D01*
X85107719Y-44578587D01*
X85244479Y-44669967D01*
X85396440Y-44732911D01*
X85557760Y-44765000D01*
X85722240Y-44765000D01*
X85883560Y-44732911D01*
X86035521Y-44669967D01*
X86172281Y-44578587D01*
X86288587Y-44462281D01*
X86340000Y-44385336D01*
X86349798Y-44400000D01*
X86300033Y-44474479D01*
X86237089Y-44626440D01*
X86205000Y-44787760D01*
X86205000Y-44952240D01*
X86237089Y-45113560D01*
X86300033Y-45265521D01*
X86391413Y-45402281D01*
X86507719Y-45518587D01*
X86644479Y-45609967D01*
X86796440Y-45672911D01*
X86957760Y-45705000D01*
X87122240Y-45705000D01*
X87283560Y-45672911D01*
X87435521Y-45609967D01*
X87572281Y-45518587D01*
X87688587Y-45402281D01*
X87779967Y-45265521D01*
X87842911Y-45113560D01*
X87875000Y-44952240D01*
X87875000Y-44787760D01*
X87842911Y-44626440D01*
X87791532Y-44502400D01*
X87867719Y-44578587D01*
X88004479Y-44669967D01*
X88156440Y-44732911D01*
X88317760Y-44765000D01*
X88482240Y-44765000D01*
X88643560Y-44732911D01*
X88795521Y-44669967D01*
X88932281Y-44578587D01*
X89048587Y-44462281D01*
X89078133Y-44418061D01*
X90695000Y-44418061D01*
X90695000Y-44621939D01*
X90734774Y-44821898D01*
X90812795Y-45010256D01*
X90926063Y-45179774D01*
X91070226Y-45323937D01*
X91239744Y-45437205D01*
X91428102Y-45515226D01*
X91628061Y-45555000D01*
X91831939Y-45555000D01*
X92031898Y-45515226D01*
X92220256Y-45437205D01*
X92389774Y-45323937D01*
X92533937Y-45179774D01*
X92647205Y-45010256D01*
X92725226Y-44821898D01*
X92765000Y-44621939D01*
X92765000Y-44418061D01*
X92725226Y-44218102D01*
X92647205Y-44029744D01*
X92533937Y-43860226D01*
X92389774Y-43716063D01*
X92220256Y-43602795D01*
X92031898Y-43524774D01*
X91831939Y-43485000D01*
X91628061Y-43485000D01*
X91428102Y-43524774D01*
X91239744Y-43602795D01*
X91070226Y-43716063D01*
X90926063Y-43860226D01*
X90812795Y-44029744D01*
X90734774Y-44218102D01*
X90695000Y-44418061D01*
X89078133Y-44418061D01*
X89139967Y-44325521D01*
X89202911Y-44173560D01*
X89235000Y-44012240D01*
X89235000Y-43847760D01*
X89202911Y-43686440D01*
X89139967Y-43534479D01*
X89048587Y-43397719D01*
X88932281Y-43281413D01*
X88795521Y-43190033D01*
X88643560Y-43127089D01*
X88482240Y-43095000D01*
X88317760Y-43095000D01*
X88156440Y-43127089D01*
X88004479Y-43190033D01*
X87867719Y-43281413D01*
X87847216Y-43301916D01*
X87875000Y-43162240D01*
X87875000Y-42997760D01*
X87842911Y-42836440D01*
X87779967Y-42684479D01*
X87688587Y-42547719D01*
X87572281Y-42431413D01*
X87435521Y-42340033D01*
X87283560Y-42277089D01*
X87122240Y-42245000D01*
X86957760Y-42245000D01*
X86796440Y-42277089D01*
X86644479Y-42340033D01*
X86507719Y-42431413D01*
X86391413Y-42547719D01*
X86300033Y-42684479D01*
X86237089Y-42836440D01*
X86205000Y-42997760D01*
X86205000Y-43162240D01*
X86237089Y-43323560D01*
X86253113Y-43362245D01*
X86172281Y-43281413D01*
X86035521Y-43190033D01*
X85883560Y-43127089D01*
X85722240Y-43095000D01*
X85557760Y-43095000D01*
X85396440Y-43127089D01*
X85244479Y-43190033D01*
X85107719Y-43281413D01*
X84991413Y-43397719D01*
X84900033Y-43534479D01*
X84837089Y-43686440D01*
X84805000Y-43847760D01*
X61454120Y-43847760D01*
X61489774Y-43823937D01*
X61633937Y-43679774D01*
X61747205Y-43510256D01*
X61825226Y-43321898D01*
X61865000Y-43121939D01*
X61865000Y-42918061D01*
X61825226Y-42718102D01*
X61747205Y-42529744D01*
X61633937Y-42360226D01*
X61489774Y-42216063D01*
X61320256Y-42102795D01*
X61131898Y-42024774D01*
X60931939Y-41985000D01*
X60728061Y-41985000D01*
X60528102Y-42024774D01*
X60339744Y-42102795D01*
X60170226Y-42216063D01*
X60026063Y-42360226D01*
X59912795Y-42529744D01*
X59834774Y-42718102D01*
X59795000Y-42918061D01*
X58739992Y-42918061D01*
X58739992Y-41678061D01*
X68495000Y-41678061D01*
X68495000Y-41881939D01*
X68534774Y-42081898D01*
X68612795Y-42270256D01*
X68726063Y-42439774D01*
X68870226Y-42583937D01*
X69039744Y-42697205D01*
X69228102Y-42775226D01*
X69428061Y-42815000D01*
X69631939Y-42815000D01*
X69831898Y-42775226D01*
X70020256Y-42697205D01*
X70189774Y-42583937D01*
X70333937Y-42439774D01*
X70447205Y-42270256D01*
X70525226Y-42081898D01*
X70565000Y-41881939D01*
X70565000Y-41678061D01*
X70525226Y-41478102D01*
X70447205Y-41289744D01*
X70333937Y-41120226D01*
X70189774Y-40976063D01*
X70020256Y-40862795D01*
X69831898Y-40784774D01*
X69631939Y-40745000D01*
X69428061Y-40745000D01*
X69228102Y-40784774D01*
X69039744Y-40862795D01*
X68870226Y-40976063D01*
X68726063Y-41120226D01*
X68612795Y-41289744D01*
X68534774Y-41478102D01*
X68495000Y-41678061D01*
X58739992Y-41678061D01*
X58739991Y-40423061D01*
X77620000Y-40423061D01*
X77620000Y-40626939D01*
X77659774Y-40826898D01*
X77737795Y-41015256D01*
X77851063Y-41184774D01*
X77995226Y-41328937D01*
X78164744Y-41442205D01*
X78353102Y-41520226D01*
X78553061Y-41560000D01*
X78756939Y-41560000D01*
X78956898Y-41520226D01*
X79145256Y-41442205D01*
X79314774Y-41328937D01*
X79458937Y-41184774D01*
X79572205Y-41015256D01*
X79650226Y-40826898D01*
X79690000Y-40626939D01*
X79690000Y-40423061D01*
X79669115Y-40318061D01*
X81425000Y-40318061D01*
X81425000Y-40521939D01*
X81464774Y-40721898D01*
X81542795Y-40910256D01*
X81656063Y-41079774D01*
X81800226Y-41223937D01*
X81969744Y-41337205D01*
X82158102Y-41415226D01*
X82358061Y-41455000D01*
X82561939Y-41455000D01*
X82761898Y-41415226D01*
X82950256Y-41337205D01*
X83119774Y-41223937D01*
X83263937Y-41079774D01*
X83377205Y-40910256D01*
X83455226Y-40721898D01*
X83495000Y-40521939D01*
X83495000Y-40318061D01*
X83455226Y-40118102D01*
X83377205Y-39929744D01*
X83263937Y-39760226D01*
X83119774Y-39616063D01*
X82950256Y-39502795D01*
X82761898Y-39424774D01*
X82561939Y-39385000D01*
X82358061Y-39385000D01*
X82158102Y-39424774D01*
X81969744Y-39502795D01*
X81800226Y-39616063D01*
X81656063Y-39760226D01*
X81542795Y-39929744D01*
X81464774Y-40118102D01*
X81425000Y-40318061D01*
X79669115Y-40318061D01*
X79650226Y-40223102D01*
X79572205Y-40034744D01*
X79458937Y-39865226D01*
X79314774Y-39721063D01*
X79145256Y-39607795D01*
X78956898Y-39529774D01*
X78756939Y-39490000D01*
X78553061Y-39490000D01*
X78353102Y-39529774D01*
X78164744Y-39607795D01*
X77995226Y-39721063D01*
X77851063Y-39865226D01*
X77737795Y-40034744D01*
X77659774Y-40223102D01*
X77620000Y-40423061D01*
X58739991Y-40423061D01*
X58739987Y-36045575D01*
X58777500Y-36045575D01*
X58777500Y-36414425D01*
X58849459Y-36776188D01*
X58990612Y-37116961D01*
X59195534Y-37423649D01*
X59456351Y-37684466D01*
X59763039Y-37889388D01*
X60103812Y-38030541D01*
X60465575Y-38102500D01*
X60834425Y-38102500D01*
X61196188Y-38030541D01*
X61536961Y-37889388D01*
X61843649Y-37684466D01*
X62104466Y-37423649D01*
X62309388Y-37116961D01*
X62450541Y-36776188D01*
X62522500Y-36414425D01*
X62522500Y-36045575D01*
X65327500Y-36045575D01*
X65327500Y-36414425D01*
X65399459Y-36776188D01*
X65540612Y-37116961D01*
X65745534Y-37423649D01*
X66006351Y-37684466D01*
X66313039Y-37889388D01*
X66653812Y-38030541D01*
X67015575Y-38102500D01*
X67384425Y-38102500D01*
X67746188Y-38030541D01*
X68086961Y-37889388D01*
X68088946Y-37888061D01*
X71445000Y-37888061D01*
X71445000Y-38091939D01*
X71484774Y-38291898D01*
X71562795Y-38480256D01*
X71676063Y-38649774D01*
X71820226Y-38793937D01*
X71989744Y-38907205D01*
X72178102Y-38985226D01*
X72378061Y-39025000D01*
X72581939Y-39025000D01*
X72781898Y-38985226D01*
X72970256Y-38907205D01*
X73139774Y-38793937D01*
X73283937Y-38649774D01*
X73397205Y-38480256D01*
X73475226Y-38291898D01*
X73507874Y-38127760D01*
X85425000Y-38127760D01*
X85425000Y-38292240D01*
X85457089Y-38453560D01*
X85520033Y-38605521D01*
X85611413Y-38742281D01*
X85727719Y-38858587D01*
X85864479Y-38949967D01*
X86016440Y-39012911D01*
X86177760Y-39045000D01*
X86342240Y-39045000D01*
X86503560Y-39012911D01*
X86655521Y-38949967D01*
X86792281Y-38858587D01*
X86908587Y-38742281D01*
X86999967Y-38605521D01*
X87062911Y-38453560D01*
X87095000Y-38292240D01*
X87095000Y-38127760D01*
X87062911Y-37966440D01*
X86999967Y-37814479D01*
X86908587Y-37677719D01*
X86792281Y-37561413D01*
X86655521Y-37470033D01*
X86503560Y-37407089D01*
X86342240Y-37375000D01*
X86177760Y-37375000D01*
X86016440Y-37407089D01*
X85864479Y-37470033D01*
X85727719Y-37561413D01*
X85611413Y-37677719D01*
X85520033Y-37814479D01*
X85457089Y-37966440D01*
X85425000Y-38127760D01*
X73507874Y-38127760D01*
X73515000Y-38091939D01*
X73515000Y-37888061D01*
X73475226Y-37688102D01*
X73397205Y-37499744D01*
X73283937Y-37330226D01*
X73139774Y-37186063D01*
X72970256Y-37072795D01*
X72781898Y-36994774D01*
X72581939Y-36955000D01*
X72378061Y-36955000D01*
X72178102Y-36994774D01*
X71989744Y-37072795D01*
X71820226Y-37186063D01*
X71676063Y-37330226D01*
X71562795Y-37499744D01*
X71484774Y-37688102D01*
X71445000Y-37888061D01*
X68088946Y-37888061D01*
X68393649Y-37684466D01*
X68654466Y-37423649D01*
X68859388Y-37116961D01*
X69000541Y-36776188D01*
X69072500Y-36414425D01*
X69072500Y-36045575D01*
X69000541Y-35683812D01*
X68859388Y-35343039D01*
X68654466Y-35036351D01*
X68393649Y-34775534D01*
X68086961Y-34570612D01*
X67746188Y-34429459D01*
X67384425Y-34357500D01*
X67015575Y-34357500D01*
X66653812Y-34429459D01*
X66313039Y-34570612D01*
X66006351Y-34775534D01*
X65745534Y-35036351D01*
X65540612Y-35343039D01*
X65399459Y-35683812D01*
X65327500Y-36045575D01*
X62522500Y-36045575D01*
X62450541Y-35683812D01*
X62309388Y-35343039D01*
X62104466Y-35036351D01*
X61843649Y-34775534D01*
X61536961Y-34570612D01*
X61196188Y-34429459D01*
X60834425Y-34357500D01*
X60465575Y-34357500D01*
X60103812Y-34429459D01*
X59763039Y-34570612D01*
X59456351Y-34775534D01*
X59195534Y-35036351D01*
X58990612Y-35343039D01*
X58849459Y-35683812D01*
X58777500Y-36045575D01*
X58739987Y-36045575D01*
X58739986Y-32821026D01*
X62620500Y-32821026D01*
X62620500Y-33078974D01*
X62670823Y-33331967D01*
X62769536Y-33570281D01*
X62912845Y-33784758D01*
X63095242Y-33967155D01*
X63309719Y-34110464D01*
X63548033Y-34209177D01*
X63801026Y-34259500D01*
X64058974Y-34259500D01*
X64311967Y-34209177D01*
X64472311Y-34142760D01*
X75695000Y-34142760D01*
X75695000Y-34307240D01*
X75727089Y-34468560D01*
X75790033Y-34620521D01*
X75881413Y-34757281D01*
X75997719Y-34873587D01*
X76134479Y-34964967D01*
X76286440Y-35027911D01*
X76447760Y-35060000D01*
X76612240Y-35060000D01*
X76773560Y-35027911D01*
X76792084Y-35020238D01*
X76777089Y-35056440D01*
X76745000Y-35217760D01*
X76745000Y-35382240D01*
X76777089Y-35543560D01*
X76840033Y-35695521D01*
X76931413Y-35832281D01*
X77047719Y-35948587D01*
X77184479Y-36039967D01*
X77336440Y-36102911D01*
X77497760Y-36135000D01*
X77662240Y-36135000D01*
X77823560Y-36102911D01*
X77975521Y-36039967D01*
X78112281Y-35948587D01*
X78228587Y-35832281D01*
X78319967Y-35695521D01*
X78382911Y-35543560D01*
X78415000Y-35382240D01*
X78415000Y-35217760D01*
X78382911Y-35056440D01*
X78350918Y-34979203D01*
X78456440Y-35022911D01*
X78617760Y-35055000D01*
X78782240Y-35055000D01*
X78943560Y-35022911D01*
X79095521Y-34959967D01*
X79232281Y-34868587D01*
X79348587Y-34752281D01*
X79439967Y-34615521D01*
X79502911Y-34463560D01*
X79535000Y-34302240D01*
X79535000Y-34137760D01*
X79502911Y-33976440D01*
X79439967Y-33824479D01*
X79348587Y-33687719D01*
X79232281Y-33571413D01*
X79095521Y-33480033D01*
X78943560Y-33417089D01*
X78782240Y-33385000D01*
X78617760Y-33385000D01*
X78456440Y-33417089D01*
X78330919Y-33469081D01*
X78382911Y-33343560D01*
X78415000Y-33182240D01*
X78415000Y-33017760D01*
X78382911Y-32856440D01*
X78319967Y-32704479D01*
X78228587Y-32567719D01*
X78112281Y-32451413D01*
X77975521Y-32360033D01*
X77823560Y-32297089D01*
X77662240Y-32265000D01*
X77497760Y-32265000D01*
X77336440Y-32297089D01*
X77184479Y-32360033D01*
X77047719Y-32451413D01*
X76931413Y-32567719D01*
X76840033Y-32704479D01*
X76777089Y-32856440D01*
X76745000Y-33017760D01*
X76745000Y-33182240D01*
X76777089Y-33343560D01*
X76817084Y-33440117D01*
X76773560Y-33422089D01*
X76612240Y-33390000D01*
X76447760Y-33390000D01*
X76286440Y-33422089D01*
X76134479Y-33485033D01*
X75997719Y-33576413D01*
X75881413Y-33692719D01*
X75790033Y-33829479D01*
X75727089Y-33981440D01*
X75695000Y-34142760D01*
X64472311Y-34142760D01*
X64550281Y-34110464D01*
X64764758Y-33967155D01*
X64947155Y-33784758D01*
X65090464Y-33570281D01*
X65189177Y-33331967D01*
X65239500Y-33078974D01*
X65239500Y-32867760D01*
X71695000Y-32867760D01*
X71695000Y-33032240D01*
X71727089Y-33193560D01*
X71790033Y-33345521D01*
X71881413Y-33482281D01*
X71997719Y-33598587D01*
X72134479Y-33689967D01*
X72286440Y-33752911D01*
X72447760Y-33785000D01*
X72612240Y-33785000D01*
X72773560Y-33752911D01*
X72925521Y-33689967D01*
X73062281Y-33598587D01*
X73178587Y-33482281D01*
X73180000Y-33480166D01*
X73181413Y-33482281D01*
X73297719Y-33598587D01*
X73434479Y-33689967D01*
X73586440Y-33752911D01*
X73747760Y-33785000D01*
X73912240Y-33785000D01*
X74073560Y-33752911D01*
X74225521Y-33689967D01*
X74362281Y-33598587D01*
X74478587Y-33482281D01*
X74569967Y-33345521D01*
X74632911Y-33193560D01*
X74665000Y-33032240D01*
X74665000Y-32867760D01*
X74632911Y-32706440D01*
X74569967Y-32554479D01*
X74478587Y-32417719D01*
X74362281Y-32301413D01*
X74225521Y-32210033D01*
X74073560Y-32147089D01*
X73912240Y-32115000D01*
X73747760Y-32115000D01*
X73586440Y-32147089D01*
X73434479Y-32210033D01*
X73297719Y-32301413D01*
X73181413Y-32417719D01*
X73180000Y-32419834D01*
X73178587Y-32417719D01*
X73062281Y-32301413D01*
X72925521Y-32210033D01*
X72773560Y-32147089D01*
X72612240Y-32115000D01*
X72447760Y-32115000D01*
X72286440Y-32147089D01*
X72134479Y-32210033D01*
X71997719Y-32301413D01*
X71881413Y-32417719D01*
X71790033Y-32554479D01*
X71727089Y-32706440D01*
X71695000Y-32867760D01*
X65239500Y-32867760D01*
X65239500Y-32821026D01*
X65189177Y-32568033D01*
X65090464Y-32329719D01*
X64947155Y-32115242D01*
X64764758Y-31932845D01*
X64550281Y-31789536D01*
X64311967Y-31690823D01*
X64058974Y-31640500D01*
X63801026Y-31640500D01*
X63548033Y-31690823D01*
X63309719Y-31789536D01*
X63095242Y-31932845D01*
X62912845Y-32115242D01*
X62769536Y-32329719D01*
X62670823Y-32568033D01*
X62620500Y-32821026D01*
X58739986Y-32821026D01*
X58739983Y-29495575D01*
X58777500Y-29495575D01*
X58777500Y-29864425D01*
X58849459Y-30226188D01*
X58990612Y-30566961D01*
X59195534Y-30873649D01*
X59456351Y-31134466D01*
X59763039Y-31339388D01*
X60103812Y-31480541D01*
X60465575Y-31552500D01*
X60834425Y-31552500D01*
X61196188Y-31480541D01*
X61536961Y-31339388D01*
X61843649Y-31134466D01*
X62104466Y-30873649D01*
X62309388Y-30566961D01*
X62450541Y-30226188D01*
X62522500Y-29864425D01*
X62522500Y-29495575D01*
X65327500Y-29495575D01*
X65327500Y-29864425D01*
X65399459Y-30226188D01*
X65540612Y-30566961D01*
X65745534Y-30873649D01*
X66006351Y-31134466D01*
X66313039Y-31339388D01*
X66653812Y-31480541D01*
X67015575Y-31552500D01*
X67384425Y-31552500D01*
X67746188Y-31480541D01*
X68086961Y-31339388D01*
X68393649Y-31134466D01*
X68654466Y-30873649D01*
X68859388Y-30566961D01*
X69000541Y-30226188D01*
X69072500Y-29864425D01*
X69072500Y-29857911D01*
X72915000Y-29857911D01*
X72915000Y-30042089D01*
X72950932Y-30222729D01*
X73021414Y-30392889D01*
X73123738Y-30546028D01*
X73253972Y-30676262D01*
X73407111Y-30778586D01*
X73577271Y-30849068D01*
X73757911Y-30885000D01*
X73942089Y-30885000D01*
X74122729Y-30849068D01*
X74292889Y-30778586D01*
X74446028Y-30676262D01*
X74576262Y-30546028D01*
X74678586Y-30392889D01*
X74749068Y-30222729D01*
X74785000Y-30042089D01*
X74785000Y-29857911D01*
X74749068Y-29677271D01*
X74678586Y-29507111D01*
X74576262Y-29353972D01*
X74446028Y-29223738D01*
X74292889Y-29121414D01*
X74122729Y-29050932D01*
X73942089Y-29015000D01*
X73757911Y-29015000D01*
X73577271Y-29050932D01*
X73407111Y-29121414D01*
X73253972Y-29223738D01*
X73123738Y-29353972D01*
X73021414Y-29507111D01*
X72950932Y-29677271D01*
X72915000Y-29857911D01*
X69072500Y-29857911D01*
X69072500Y-29495575D01*
X69000541Y-29133812D01*
X68923539Y-28947911D01*
X75685000Y-28947911D01*
X75685000Y-29132089D01*
X75720932Y-29312729D01*
X75791414Y-29482889D01*
X75893738Y-29636028D01*
X76023972Y-29766262D01*
X76177111Y-29868586D01*
X76347271Y-29939068D01*
X76527911Y-29975000D01*
X76712089Y-29975000D01*
X76892729Y-29939068D01*
X77062889Y-29868586D01*
X77216028Y-29766262D01*
X77346262Y-29636028D01*
X77448586Y-29482889D01*
X77519068Y-29312729D01*
X77552984Y-29142225D01*
X77580932Y-29282729D01*
X77651414Y-29452889D01*
X77753738Y-29606028D01*
X77883972Y-29736262D01*
X78037111Y-29838586D01*
X78207271Y-29909068D01*
X78387911Y-29945000D01*
X78572089Y-29945000D01*
X78752729Y-29909068D01*
X78922889Y-29838586D01*
X79076028Y-29736262D01*
X79206262Y-29606028D01*
X79308586Y-29452889D01*
X79379068Y-29282729D01*
X79415000Y-29102089D01*
X79415000Y-28917911D01*
X79379068Y-28737271D01*
X79308586Y-28567111D01*
X79206262Y-28413972D01*
X79076028Y-28283738D01*
X78922889Y-28181414D01*
X78752729Y-28110932D01*
X78572089Y-28075000D01*
X78387911Y-28075000D01*
X78207271Y-28110932D01*
X78037111Y-28181414D01*
X77883972Y-28283738D01*
X77753738Y-28413972D01*
X77651414Y-28567111D01*
X77580932Y-28737271D01*
X77547016Y-28907775D01*
X77519068Y-28767271D01*
X77448586Y-28597111D01*
X77346262Y-28443972D01*
X77216028Y-28313738D01*
X77062889Y-28211414D01*
X76892729Y-28140932D01*
X76712089Y-28105000D01*
X76527911Y-28105000D01*
X76347271Y-28140932D01*
X76177111Y-28211414D01*
X76023972Y-28313738D01*
X75893738Y-28443972D01*
X75791414Y-28597111D01*
X75720932Y-28767271D01*
X75685000Y-28947911D01*
X68923539Y-28947911D01*
X68859388Y-28793039D01*
X68654466Y-28486351D01*
X68393649Y-28225534D01*
X68086961Y-28020612D01*
X67746188Y-27879459D01*
X67384425Y-27807500D01*
X67015575Y-27807500D01*
X66653812Y-27879459D01*
X66313039Y-28020612D01*
X66006351Y-28225534D01*
X65745534Y-28486351D01*
X65540612Y-28793039D01*
X65399459Y-29133812D01*
X65327500Y-29495575D01*
X62522500Y-29495575D01*
X62450541Y-29133812D01*
X62309388Y-28793039D01*
X62104466Y-28486351D01*
X61843649Y-28225534D01*
X61536961Y-28020612D01*
X61196188Y-27879459D01*
X60834425Y-27807500D01*
X60465575Y-27807500D01*
X60103812Y-27879459D01*
X59763039Y-28020612D01*
X59456351Y-28225534D01*
X59195534Y-28486351D01*
X58990612Y-28793039D01*
X58849459Y-29133812D01*
X58777500Y-29495575D01*
X58739983Y-29495575D01*
X58739982Y-28532210D01*
X58785571Y-28067404D01*
X58911199Y-27651350D01*
X59115246Y-27267621D01*
X59389937Y-26930837D01*
X59724816Y-26653819D01*
X60107122Y-26447122D01*
X60522296Y-26318618D01*
X60984999Y-26270000D01*
X90092029Y-26270000D01*
X90073000Y-39199813D01*
G37*
G04 #@! TD.AperFunction*
M02*
