G04 #@! TF.GenerationSoftware,KiCad,Pcbnew,(5.1.12)-1*
G04 #@! TF.CreationDate,2026-01-05T15:48:36-06:00*
G04 #@! TF.ProjectId,Amplificador HD-SDI,416d706c-6966-4696-9361-646f72204844,rev?*
G04 #@! TF.SameCoordinates,Original*
G04 #@! TF.FileFunction,Copper,L2,Inr*
G04 #@! TF.FilePolarity,Positive*
%FSLAX46Y46*%
G04 Gerber Fmt 4.6, Leading zero omitted, Abs format (unit mm)*
G04 Created by KiCad (PCBNEW (5.1.12)-1) date 2026-01-05 15:48:36*
%MOMM*%
%LPD*%
G01*
G04 APERTURE LIST*
G04 #@! TA.AperFunction,ComponentPad*
%ADD10C,2.475000*%
G04 #@! TD*
G04 #@! TA.AperFunction,ComponentPad*
%ADD11C,1.349000*%
G04 #@! TD*
G04 #@! TA.AperFunction,ComponentPad*
%ADD12C,1.000000*%
G04 #@! TD*
G04 #@! TA.AperFunction,ViaPad*
%ADD13C,0.400000*%
G04 #@! TD*
G04 #@! TA.AperFunction,ViaPad*
%ADD14C,0.800000*%
G04 #@! TD*
G04 #@! TA.AperFunction,ViaPad*
%ADD15C,0.600000*%
G04 #@! TD*
G04 #@! TA.AperFunction,Conductor*
%ADD16C,0.254000*%
G04 #@! TD*
G04 #@! TA.AperFunction,Conductor*
%ADD17C,0.100000*%
G04 #@! TD*
G04 APERTURE END LIST*
D10*
X111460000Y-46195000D03*
X111460000Y-52745000D03*
X118010000Y-52745000D03*
X118010000Y-46195000D03*
D11*
X114730000Y-49475000D03*
D10*
X67200000Y-36230000D03*
X67200000Y-29680000D03*
X60650000Y-29680000D03*
X60650000Y-36230000D03*
D11*
X63930000Y-32950000D03*
D12*
X117520000Y-29220000D03*
X117520000Y-30470000D03*
D13*
X73830000Y-32950000D03*
X72530000Y-32950000D03*
D14*
X107780000Y-29890000D03*
X106130000Y-29910000D03*
X100740000Y-55580000D03*
D13*
X76530000Y-34225000D03*
D15*
X73850000Y-29950000D03*
X76620000Y-29040000D03*
X78480000Y-29010000D03*
D14*
X72480000Y-37990000D03*
D13*
X78700000Y-34220000D03*
X77580000Y-33100000D03*
X77580000Y-35300000D03*
X77580000Y-34220000D03*
X98820000Y-49430000D03*
X99920000Y-50430000D03*
X98820000Y-51530000D03*
X97820000Y-50430000D03*
X98820000Y-50430000D03*
X86260000Y-38210000D03*
D14*
X78655000Y-40525000D03*
X77610000Y-46590000D03*
X79730000Y-49360000D03*
X79700000Y-55150000D03*
X87050000Y-50040000D03*
X93330000Y-46310000D03*
X82460000Y-40420000D03*
D13*
X87040000Y-43080000D03*
X87040000Y-44870000D03*
X85640000Y-43930000D03*
X88400000Y-43930000D03*
X87040000Y-43930000D03*
D14*
X69530000Y-41780000D03*
D13*
X93360000Y-50340000D03*
X104230000Y-51820000D03*
D14*
X60830000Y-43020000D03*
X111160000Y-31460000D03*
X98440000Y-33970000D03*
X95480000Y-31870000D03*
D15*
X81770000Y-26550000D03*
D14*
X63470000Y-43520000D03*
X103045000Y-52530000D03*
X102720000Y-47230000D03*
X100745000Y-54005000D03*
X96920000Y-55625000D03*
D13*
X78480000Y-30600000D03*
X76605000Y-30625000D03*
D14*
X82100000Y-57500000D03*
X87020000Y-48480000D03*
X91750000Y-46320000D03*
X83990000Y-40400000D03*
X80510000Y-42460000D03*
X97650000Y-58460000D03*
D15*
X83270000Y-26550000D03*
X84770000Y-26550000D03*
X86270000Y-26550000D03*
X87770000Y-26550000D03*
X89270000Y-26550000D03*
X81770000Y-28050000D03*
X83270000Y-28050000D03*
X84770000Y-28050000D03*
X86270000Y-28050000D03*
X87770000Y-28050000D03*
X89270000Y-28050000D03*
X87760000Y-29350000D03*
X89260000Y-29350000D03*
X87760000Y-30850000D03*
X89260000Y-30850000D03*
X87760000Y-32350000D03*
X89260000Y-32350000D03*
D14*
X91730000Y-44520000D03*
X102860000Y-53900000D03*
D16*
X80870932Y-26277271D02*
X80835000Y-26457911D01*
X80835000Y-26642089D01*
X80870932Y-26822729D01*
X80941414Y-26992889D01*
X81043738Y-27146028D01*
X81173972Y-27276262D01*
X81209498Y-27300000D01*
X81173972Y-27323738D01*
X81043738Y-27453972D01*
X80941414Y-27607111D01*
X80870932Y-27777271D01*
X80835000Y-27957911D01*
X80835000Y-28142089D01*
X80870932Y-28322729D01*
X80941414Y-28492889D01*
X81043738Y-28646028D01*
X81173972Y-28776262D01*
X81327111Y-28878586D01*
X81497271Y-28949068D01*
X81677911Y-28985000D01*
X81862089Y-28985000D01*
X82042729Y-28949068D01*
X82212889Y-28878586D01*
X82366028Y-28776262D01*
X82496262Y-28646028D01*
X82520000Y-28610502D01*
X82543738Y-28646028D01*
X82673972Y-28776262D01*
X82827111Y-28878586D01*
X82997271Y-28949068D01*
X83177911Y-28985000D01*
X83362089Y-28985000D01*
X83542729Y-28949068D01*
X83712889Y-28878586D01*
X83866028Y-28776262D01*
X83996262Y-28646028D01*
X84020000Y-28610502D01*
X84043738Y-28646028D01*
X84173972Y-28776262D01*
X84327111Y-28878586D01*
X84497271Y-28949068D01*
X84677911Y-28985000D01*
X84862089Y-28985000D01*
X85042729Y-28949068D01*
X85212889Y-28878586D01*
X85366028Y-28776262D01*
X85496262Y-28646028D01*
X85520000Y-28610502D01*
X85543738Y-28646028D01*
X85673972Y-28776262D01*
X85827111Y-28878586D01*
X85997271Y-28949068D01*
X86177911Y-28985000D01*
X86362089Y-28985000D01*
X86542729Y-28949068D01*
X86712889Y-28878586D01*
X86866028Y-28776262D01*
X86996262Y-28646028D01*
X87020000Y-28610502D01*
X87043738Y-28646028D01*
X87092710Y-28695000D01*
X87033738Y-28753972D01*
X86931414Y-28907111D01*
X86860932Y-29077271D01*
X86825000Y-29257911D01*
X86825000Y-29442089D01*
X86860932Y-29622729D01*
X86931414Y-29792889D01*
X87033738Y-29946028D01*
X87163972Y-30076262D01*
X87199498Y-30100000D01*
X87163972Y-30123738D01*
X87033738Y-30253972D01*
X86931414Y-30407111D01*
X86860932Y-30577271D01*
X86825000Y-30757911D01*
X86825000Y-30942089D01*
X86860932Y-31122729D01*
X86931414Y-31292889D01*
X87033738Y-31446028D01*
X87163972Y-31576262D01*
X87199498Y-31600000D01*
X87163972Y-31623738D01*
X87033738Y-31753972D01*
X86931414Y-31907111D01*
X86860932Y-32077271D01*
X86825000Y-32257911D01*
X86825000Y-32442089D01*
X86860932Y-32622729D01*
X86931414Y-32792889D01*
X87033738Y-32946028D01*
X87163972Y-33076262D01*
X87317111Y-33178586D01*
X87487271Y-33249068D01*
X87667911Y-33285000D01*
X87852089Y-33285000D01*
X88032729Y-33249068D01*
X88202889Y-33178586D01*
X88356028Y-33076262D01*
X88486262Y-32946028D01*
X88510000Y-32910502D01*
X88533738Y-32946028D01*
X88663972Y-33076262D01*
X88817111Y-33178586D01*
X88987271Y-33249068D01*
X89167911Y-33285000D01*
X89352089Y-33285000D01*
X89532729Y-33249068D01*
X89702889Y-33178586D01*
X89856028Y-33076262D01*
X89986262Y-32946028D01*
X90088586Y-32792889D01*
X90159068Y-32622729D01*
X90195000Y-32442089D01*
X90195000Y-32257911D01*
X90159068Y-32077271D01*
X90088586Y-31907111D01*
X89986262Y-31753972D01*
X89856028Y-31623738D01*
X89820502Y-31600000D01*
X89856028Y-31576262D01*
X89986262Y-31446028D01*
X90088586Y-31292889D01*
X90159068Y-31122729D01*
X90195000Y-30942089D01*
X90195000Y-30757911D01*
X90159068Y-30577271D01*
X90088586Y-30407111D01*
X89986262Y-30253972D01*
X89856028Y-30123738D01*
X89820502Y-30100000D01*
X89856028Y-30076262D01*
X89986262Y-29946028D01*
X90088586Y-29792889D01*
X90159068Y-29622729D01*
X90195000Y-29442089D01*
X90195000Y-29257911D01*
X90165223Y-29108212D01*
X116385000Y-29108212D01*
X116385000Y-29331788D01*
X116428617Y-29551067D01*
X116514176Y-29757624D01*
X116638388Y-29943520D01*
X116796480Y-30101612D01*
X116982376Y-30225824D01*
X117188933Y-30311383D01*
X117408212Y-30355000D01*
X117631788Y-30355000D01*
X117851067Y-30311383D01*
X118057624Y-30225824D01*
X118243520Y-30101612D01*
X118401612Y-29943520D01*
X118525824Y-29757624D01*
X118611383Y-29551067D01*
X118655000Y-29331788D01*
X118655000Y-29108212D01*
X118611383Y-28888933D01*
X118525824Y-28682376D01*
X118401612Y-28496480D01*
X118243520Y-28338388D01*
X118057624Y-28214176D01*
X117851067Y-28128617D01*
X117631788Y-28085000D01*
X117408212Y-28085000D01*
X117188933Y-28128617D01*
X116982376Y-28214176D01*
X116796480Y-28338388D01*
X116638388Y-28496480D01*
X116514176Y-28682376D01*
X116428617Y-28888933D01*
X116385000Y-29108212D01*
X90165223Y-29108212D01*
X90159068Y-29077271D01*
X90088586Y-28907111D01*
X89986262Y-28753972D01*
X89937290Y-28705000D01*
X89996262Y-28646028D01*
X90098586Y-28492889D01*
X90169068Y-28322729D01*
X90205000Y-28142089D01*
X90205000Y-27957911D01*
X90169068Y-27777271D01*
X90098586Y-27607111D01*
X89996262Y-27453972D01*
X89866028Y-27323738D01*
X89830502Y-27300000D01*
X89866028Y-27276262D01*
X89996262Y-27146028D01*
X90098586Y-26992889D01*
X90169068Y-26822729D01*
X90205000Y-26642089D01*
X90205000Y-26457911D01*
X90169068Y-26277271D01*
X90166056Y-26270000D01*
X118157712Y-26270000D01*
X118622508Y-26315588D01*
X119038562Y-26441216D01*
X119422291Y-26645263D01*
X119759075Y-26919954D01*
X120036093Y-27254833D01*
X120242790Y-27637139D01*
X120371294Y-28052313D01*
X120419912Y-28515017D01*
X120420001Y-57929125D01*
X120350554Y-58686077D01*
X120152585Y-59388399D01*
X119829945Y-60042877D01*
X119393437Y-60627603D01*
X118857684Y-61122986D01*
X118240621Y-61512446D01*
X117562920Y-61782931D01*
X116833631Y-61928101D01*
X116436733Y-61950000D01*
X62760866Y-61950000D01*
X62003923Y-61880554D01*
X61301601Y-61682585D01*
X60647123Y-61359945D01*
X60062397Y-60923437D01*
X59567014Y-60387684D01*
X59177554Y-59770621D01*
X58907069Y-59092920D01*
X58761899Y-58363631D01*
X58740000Y-57966733D01*
X58740000Y-57398061D01*
X81065000Y-57398061D01*
X81065000Y-57601939D01*
X81104774Y-57801898D01*
X81182795Y-57990256D01*
X81296063Y-58159774D01*
X81440226Y-58303937D01*
X81609744Y-58417205D01*
X81798102Y-58495226D01*
X81998061Y-58535000D01*
X82201939Y-58535000D01*
X82401898Y-58495226D01*
X82590256Y-58417205D01*
X82678771Y-58358061D01*
X96615000Y-58358061D01*
X96615000Y-58561939D01*
X96654774Y-58761898D01*
X96732795Y-58950256D01*
X96846063Y-59119774D01*
X96990226Y-59263937D01*
X97159744Y-59377205D01*
X97348102Y-59455226D01*
X97548061Y-59495000D01*
X97751939Y-59495000D01*
X97951898Y-59455226D01*
X98140256Y-59377205D01*
X98309774Y-59263937D01*
X98453937Y-59119774D01*
X98567205Y-58950256D01*
X98645226Y-58761898D01*
X98685000Y-58561939D01*
X98685000Y-58358061D01*
X98645226Y-58158102D01*
X98567205Y-57969744D01*
X98453937Y-57800226D01*
X98309774Y-57656063D01*
X98140256Y-57542795D01*
X97951898Y-57464774D01*
X97751939Y-57425000D01*
X97548061Y-57425000D01*
X97348102Y-57464774D01*
X97159744Y-57542795D01*
X96990226Y-57656063D01*
X96846063Y-57800226D01*
X96732795Y-57969744D01*
X96654774Y-58158102D01*
X96615000Y-58358061D01*
X82678771Y-58358061D01*
X82759774Y-58303937D01*
X82903937Y-58159774D01*
X83017205Y-57990256D01*
X83095226Y-57801898D01*
X83135000Y-57601939D01*
X83135000Y-57398061D01*
X83095226Y-57198102D01*
X83017205Y-57009744D01*
X82903937Y-56840226D01*
X82759774Y-56696063D01*
X82590256Y-56582795D01*
X82401898Y-56504774D01*
X82201939Y-56465000D01*
X81998061Y-56465000D01*
X81798102Y-56504774D01*
X81609744Y-56582795D01*
X81440226Y-56696063D01*
X81296063Y-56840226D01*
X81182795Y-57009744D01*
X81104774Y-57198102D01*
X81065000Y-57398061D01*
X58740000Y-57398061D01*
X58739999Y-55523061D01*
X95885000Y-55523061D01*
X95885000Y-55726939D01*
X95924774Y-55926898D01*
X96002795Y-56115256D01*
X96116063Y-56284774D01*
X96260226Y-56428937D01*
X96429744Y-56542205D01*
X96618102Y-56620226D01*
X96818061Y-56660000D01*
X97021939Y-56660000D01*
X97221898Y-56620226D01*
X97410256Y-56542205D01*
X97579774Y-56428937D01*
X97723937Y-56284774D01*
X97837205Y-56115256D01*
X97915226Y-55926898D01*
X97955000Y-55726939D01*
X97955000Y-55523061D01*
X97915226Y-55323102D01*
X97837205Y-55134744D01*
X97723937Y-54965226D01*
X97579774Y-54821063D01*
X97410256Y-54707795D01*
X97221898Y-54629774D01*
X97021939Y-54590000D01*
X96818061Y-54590000D01*
X96618102Y-54629774D01*
X96429744Y-54707795D01*
X96260226Y-54821063D01*
X96116063Y-54965226D01*
X96002795Y-55134744D01*
X95924774Y-55323102D01*
X95885000Y-55523061D01*
X58739999Y-55523061D01*
X58739999Y-53903061D01*
X99710000Y-53903061D01*
X99710000Y-54106939D01*
X99749774Y-54306898D01*
X99827795Y-54495256D01*
X99941063Y-54664774D01*
X100085226Y-54808937D01*
X100254744Y-54922205D01*
X100443102Y-55000226D01*
X100643061Y-55040000D01*
X100846939Y-55040000D01*
X101046898Y-55000226D01*
X101235256Y-54922205D01*
X101404774Y-54808937D01*
X101548937Y-54664774D01*
X101662205Y-54495256D01*
X101740226Y-54306898D01*
X101780000Y-54106939D01*
X101780000Y-53903061D01*
X101759115Y-53798061D01*
X101825000Y-53798061D01*
X101825000Y-54001939D01*
X101864774Y-54201898D01*
X101942795Y-54390256D01*
X102056063Y-54559774D01*
X102200226Y-54703937D01*
X102369744Y-54817205D01*
X102558102Y-54895226D01*
X102758061Y-54935000D01*
X102961939Y-54935000D01*
X103161898Y-54895226D01*
X103350256Y-54817205D01*
X103519774Y-54703937D01*
X103663937Y-54559774D01*
X103777205Y-54390256D01*
X103855226Y-54201898D01*
X103895000Y-54001939D01*
X103895000Y-53798061D01*
X103855226Y-53598102D01*
X103777205Y-53409744D01*
X103717829Y-53320882D01*
X103848937Y-53189774D01*
X103962205Y-53020256D01*
X104040226Y-52831898D01*
X104080000Y-52631939D01*
X104080000Y-52428061D01*
X104040226Y-52228102D01*
X103962205Y-52039744D01*
X103848937Y-51870226D01*
X103704774Y-51726063D01*
X103535256Y-51612795D01*
X103346898Y-51534774D01*
X103146939Y-51495000D01*
X102943061Y-51495000D01*
X102743102Y-51534774D01*
X102554744Y-51612795D01*
X102385226Y-51726063D01*
X102241063Y-51870226D01*
X102127795Y-52039744D01*
X102049774Y-52228102D01*
X102010000Y-52428061D01*
X102010000Y-52631939D01*
X102049774Y-52831898D01*
X102127795Y-53020256D01*
X102187171Y-53109118D01*
X102056063Y-53240226D01*
X101942795Y-53409744D01*
X101864774Y-53598102D01*
X101825000Y-53798061D01*
X101759115Y-53798061D01*
X101740226Y-53703102D01*
X101662205Y-53514744D01*
X101548937Y-53345226D01*
X101404774Y-53201063D01*
X101235256Y-53087795D01*
X101046898Y-53009774D01*
X100846939Y-52970000D01*
X100643061Y-52970000D01*
X100443102Y-53009774D01*
X100254744Y-53087795D01*
X100085226Y-53201063D01*
X99941063Y-53345226D01*
X99827795Y-53514744D01*
X99749774Y-53703102D01*
X99710000Y-53903061D01*
X58739999Y-53903061D01*
X58739995Y-48378061D01*
X85985000Y-48378061D01*
X85985000Y-48581939D01*
X86024774Y-48781898D01*
X86102795Y-48970256D01*
X86216063Y-49139774D01*
X86360226Y-49283937D01*
X86529744Y-49397205D01*
X86718102Y-49475226D01*
X86918061Y-49515000D01*
X87121939Y-49515000D01*
X87321898Y-49475226D01*
X87510256Y-49397205D01*
X87586850Y-49346026D01*
X113420500Y-49346026D01*
X113420500Y-49603974D01*
X113470823Y-49856967D01*
X113569536Y-50095281D01*
X113712845Y-50309758D01*
X113895242Y-50492155D01*
X114109719Y-50635464D01*
X114348033Y-50734177D01*
X114601026Y-50784500D01*
X114858974Y-50784500D01*
X115111967Y-50734177D01*
X115350281Y-50635464D01*
X115564758Y-50492155D01*
X115747155Y-50309758D01*
X115890464Y-50095281D01*
X115989177Y-49856967D01*
X116039500Y-49603974D01*
X116039500Y-49346026D01*
X115989177Y-49093033D01*
X115890464Y-48854719D01*
X115747155Y-48640242D01*
X115564758Y-48457845D01*
X115350281Y-48314536D01*
X115111967Y-48215823D01*
X114858974Y-48165500D01*
X114601026Y-48165500D01*
X114348033Y-48215823D01*
X114109719Y-48314536D01*
X113895242Y-48457845D01*
X113712845Y-48640242D01*
X113569536Y-48854719D01*
X113470823Y-49093033D01*
X113420500Y-49346026D01*
X87586850Y-49346026D01*
X87679774Y-49283937D01*
X87823937Y-49139774D01*
X87937205Y-48970256D01*
X88015226Y-48781898D01*
X88055000Y-48581939D01*
X88055000Y-48378061D01*
X88015226Y-48178102D01*
X87937205Y-47989744D01*
X87823937Y-47820226D01*
X87679774Y-47676063D01*
X87510256Y-47562795D01*
X87321898Y-47484774D01*
X87121939Y-47445000D01*
X86918061Y-47445000D01*
X86718102Y-47484774D01*
X86529744Y-47562795D01*
X86360226Y-47676063D01*
X86216063Y-47820226D01*
X86102795Y-47989744D01*
X86024774Y-48178102D01*
X85985000Y-48378061D01*
X58739995Y-48378061D01*
X58739992Y-43418061D01*
X62435000Y-43418061D01*
X62435000Y-43621939D01*
X62474774Y-43821898D01*
X62552795Y-44010256D01*
X62666063Y-44179774D01*
X62810226Y-44323937D01*
X62979744Y-44437205D01*
X63168102Y-44515226D01*
X63368061Y-44555000D01*
X63571939Y-44555000D01*
X63771898Y-44515226D01*
X63960256Y-44437205D01*
X63988907Y-44418061D01*
X90695000Y-44418061D01*
X90695000Y-44621939D01*
X90734774Y-44821898D01*
X90812795Y-45010256D01*
X90926063Y-45179774D01*
X91070226Y-45323937D01*
X91223995Y-45426682D01*
X91090226Y-45516063D01*
X90946063Y-45660226D01*
X90832795Y-45829744D01*
X90754774Y-46018102D01*
X90715000Y-46218061D01*
X90715000Y-46421939D01*
X90754774Y-46621898D01*
X90832795Y-46810256D01*
X90946063Y-46979774D01*
X91090226Y-47123937D01*
X91259744Y-47237205D01*
X91448102Y-47315226D01*
X91648061Y-47355000D01*
X91851939Y-47355000D01*
X92051898Y-47315226D01*
X92240256Y-47237205D01*
X92403601Y-47128061D01*
X101685000Y-47128061D01*
X101685000Y-47331939D01*
X101724774Y-47531898D01*
X101802795Y-47720256D01*
X101916063Y-47889774D01*
X102060226Y-48033937D01*
X102229744Y-48147205D01*
X102418102Y-48225226D01*
X102618061Y-48265000D01*
X102821939Y-48265000D01*
X103021898Y-48225226D01*
X103210256Y-48147205D01*
X103379774Y-48033937D01*
X103523937Y-47889774D01*
X103637205Y-47720256D01*
X103715226Y-47531898D01*
X103755000Y-47331939D01*
X103755000Y-47128061D01*
X103715226Y-46928102D01*
X103637205Y-46739744D01*
X103523937Y-46570226D01*
X103379774Y-46426063D01*
X103210256Y-46312795D01*
X103021898Y-46234774D01*
X102821939Y-46195000D01*
X102618061Y-46195000D01*
X102418102Y-46234774D01*
X102229744Y-46312795D01*
X102060226Y-46426063D01*
X101916063Y-46570226D01*
X101802795Y-46739744D01*
X101724774Y-46928102D01*
X101685000Y-47128061D01*
X92403601Y-47128061D01*
X92409774Y-47123937D01*
X92553937Y-46979774D01*
X92667205Y-46810256D01*
X92745226Y-46621898D01*
X92785000Y-46421939D01*
X92785000Y-46218061D01*
X92745226Y-46018102D01*
X92667205Y-45829744D01*
X92553937Y-45660226D01*
X92409774Y-45516063D01*
X92256005Y-45413318D01*
X92389774Y-45323937D01*
X92533937Y-45179774D01*
X92647205Y-45010256D01*
X92725226Y-44821898D01*
X92765000Y-44621939D01*
X92765000Y-44418061D01*
X92725226Y-44218102D01*
X92647205Y-44029744D01*
X92533937Y-43860226D01*
X92389774Y-43716063D01*
X92220256Y-43602795D01*
X92031898Y-43524774D01*
X91831939Y-43485000D01*
X91628061Y-43485000D01*
X91428102Y-43524774D01*
X91239744Y-43602795D01*
X91070226Y-43716063D01*
X90926063Y-43860226D01*
X90812795Y-44029744D01*
X90734774Y-44218102D01*
X90695000Y-44418061D01*
X63988907Y-44418061D01*
X64129774Y-44323937D01*
X64273937Y-44179774D01*
X64387205Y-44010256D01*
X64465226Y-43821898D01*
X64505000Y-43621939D01*
X64505000Y-43418061D01*
X64465226Y-43218102D01*
X64387205Y-43029744D01*
X64273937Y-42860226D01*
X64129774Y-42716063D01*
X63960256Y-42602795D01*
X63771898Y-42524774D01*
X63571939Y-42485000D01*
X63368061Y-42485000D01*
X63168102Y-42524774D01*
X62979744Y-42602795D01*
X62810226Y-42716063D01*
X62666063Y-42860226D01*
X62552795Y-43029744D01*
X62474774Y-43218102D01*
X62435000Y-43418061D01*
X58739992Y-43418061D01*
X58739992Y-42358061D01*
X79475000Y-42358061D01*
X79475000Y-42561939D01*
X79514774Y-42761898D01*
X79592795Y-42950256D01*
X79706063Y-43119774D01*
X79850226Y-43263937D01*
X80019744Y-43377205D01*
X80208102Y-43455226D01*
X80408061Y-43495000D01*
X80611939Y-43495000D01*
X80811898Y-43455226D01*
X81000256Y-43377205D01*
X81169774Y-43263937D01*
X81313937Y-43119774D01*
X81427205Y-42950256D01*
X81505226Y-42761898D01*
X81545000Y-42561939D01*
X81545000Y-42358061D01*
X81505226Y-42158102D01*
X81427205Y-41969744D01*
X81313937Y-41800226D01*
X81169774Y-41656063D01*
X81000256Y-41542795D01*
X80811898Y-41464774D01*
X80611939Y-41425000D01*
X80408061Y-41425000D01*
X80208102Y-41464774D01*
X80019744Y-41542795D01*
X79850226Y-41656063D01*
X79706063Y-41800226D01*
X79592795Y-41969744D01*
X79514774Y-42158102D01*
X79475000Y-42358061D01*
X58739992Y-42358061D01*
X58739991Y-40298061D01*
X82955000Y-40298061D01*
X82955000Y-40501939D01*
X82994774Y-40701898D01*
X83072795Y-40890256D01*
X83186063Y-41059774D01*
X83330226Y-41203937D01*
X83499744Y-41317205D01*
X83688102Y-41395226D01*
X83888061Y-41435000D01*
X84091939Y-41435000D01*
X84291898Y-41395226D01*
X84480256Y-41317205D01*
X84649774Y-41203937D01*
X84793937Y-41059774D01*
X84907205Y-40890256D01*
X84985226Y-40701898D01*
X85025000Y-40501939D01*
X85025000Y-40298061D01*
X84985226Y-40098102D01*
X84907205Y-39909744D01*
X84793937Y-39740226D01*
X84649774Y-39596063D01*
X84480256Y-39482795D01*
X84291898Y-39404774D01*
X84091939Y-39365000D01*
X83888061Y-39365000D01*
X83688102Y-39404774D01*
X83499744Y-39482795D01*
X83330226Y-39596063D01*
X83186063Y-39740226D01*
X83072795Y-39909744D01*
X82994774Y-40098102D01*
X82955000Y-40298061D01*
X58739991Y-40298061D01*
X58739985Y-32821026D01*
X62620500Y-32821026D01*
X62620500Y-33078974D01*
X62670823Y-33331967D01*
X62769536Y-33570281D01*
X62912845Y-33784758D01*
X63095242Y-33967155D01*
X63309719Y-34110464D01*
X63548033Y-34209177D01*
X63801026Y-34259500D01*
X64058974Y-34259500D01*
X64311967Y-34209177D01*
X64550281Y-34110464D01*
X64764758Y-33967155D01*
X64947155Y-33784758D01*
X65090464Y-33570281D01*
X65189177Y-33331967D01*
X65239500Y-33078974D01*
X65239500Y-32867760D01*
X71695000Y-32867760D01*
X71695000Y-33032240D01*
X71727089Y-33193560D01*
X71790033Y-33345521D01*
X71881413Y-33482281D01*
X71997719Y-33598587D01*
X72134479Y-33689967D01*
X72286440Y-33752911D01*
X72447760Y-33785000D01*
X72612240Y-33785000D01*
X72773560Y-33752911D01*
X72925521Y-33689967D01*
X73062281Y-33598587D01*
X73178587Y-33482281D01*
X73180000Y-33480166D01*
X73181413Y-33482281D01*
X73297719Y-33598587D01*
X73434479Y-33689967D01*
X73586440Y-33752911D01*
X73747760Y-33785000D01*
X73912240Y-33785000D01*
X74073560Y-33752911D01*
X74225521Y-33689967D01*
X74362281Y-33598587D01*
X74478587Y-33482281D01*
X74569967Y-33345521D01*
X74632911Y-33193560D01*
X74665000Y-33032240D01*
X74665000Y-32867760D01*
X74632911Y-32706440D01*
X74569967Y-32554479D01*
X74478587Y-32417719D01*
X74362281Y-32301413D01*
X74225521Y-32210033D01*
X74073560Y-32147089D01*
X73912240Y-32115000D01*
X73747760Y-32115000D01*
X73586440Y-32147089D01*
X73434479Y-32210033D01*
X73297719Y-32301413D01*
X73181413Y-32417719D01*
X73180000Y-32419834D01*
X73178587Y-32417719D01*
X73062281Y-32301413D01*
X72925521Y-32210033D01*
X72773560Y-32147089D01*
X72612240Y-32115000D01*
X72447760Y-32115000D01*
X72286440Y-32147089D01*
X72134479Y-32210033D01*
X71997719Y-32301413D01*
X71881413Y-32417719D01*
X71790033Y-32554479D01*
X71727089Y-32706440D01*
X71695000Y-32867760D01*
X65239500Y-32867760D01*
X65239500Y-32821026D01*
X65189177Y-32568033D01*
X65090464Y-32329719D01*
X64947155Y-32115242D01*
X64764758Y-31932845D01*
X64550281Y-31789536D01*
X64311967Y-31690823D01*
X64058974Y-31640500D01*
X63801026Y-31640500D01*
X63548033Y-31690823D01*
X63309719Y-31789536D01*
X63095242Y-31932845D01*
X62912845Y-32115242D01*
X62769536Y-32329719D01*
X62670823Y-32568033D01*
X62620500Y-32821026D01*
X58739985Y-32821026D01*
X58739984Y-30542760D01*
X75770000Y-30542760D01*
X75770000Y-30707240D01*
X75802089Y-30868560D01*
X75865033Y-31020521D01*
X75956413Y-31157281D01*
X76072719Y-31273587D01*
X76209479Y-31364967D01*
X76361440Y-31427911D01*
X76522760Y-31460000D01*
X76687240Y-31460000D01*
X76848560Y-31427911D01*
X77000521Y-31364967D01*
X77137281Y-31273587D01*
X77253587Y-31157281D01*
X77344967Y-31020521D01*
X77407911Y-30868560D01*
X77440000Y-30707240D01*
X77440000Y-30542760D01*
X77435028Y-30517760D01*
X77645000Y-30517760D01*
X77645000Y-30682240D01*
X77677089Y-30843560D01*
X77740033Y-30995521D01*
X77831413Y-31132281D01*
X77947719Y-31248587D01*
X78084479Y-31339967D01*
X78236440Y-31402911D01*
X78397760Y-31435000D01*
X78562240Y-31435000D01*
X78723560Y-31402911D01*
X78875521Y-31339967D01*
X79012281Y-31248587D01*
X79128587Y-31132281D01*
X79219967Y-30995521D01*
X79282911Y-30843560D01*
X79315000Y-30682240D01*
X79315000Y-30517760D01*
X79282911Y-30356440D01*
X79219967Y-30204479D01*
X79128587Y-30067719D01*
X79012281Y-29951413D01*
X78875521Y-29860033D01*
X78723560Y-29797089D01*
X78562240Y-29765000D01*
X78397760Y-29765000D01*
X78236440Y-29797089D01*
X78084479Y-29860033D01*
X77947719Y-29951413D01*
X77831413Y-30067719D01*
X77740033Y-30204479D01*
X77677089Y-30356440D01*
X77645000Y-30517760D01*
X77435028Y-30517760D01*
X77407911Y-30381440D01*
X77344967Y-30229479D01*
X77253587Y-30092719D01*
X77137281Y-29976413D01*
X77000521Y-29885033D01*
X76848560Y-29822089D01*
X76687240Y-29790000D01*
X76522760Y-29790000D01*
X76361440Y-29822089D01*
X76209479Y-29885033D01*
X76072719Y-29976413D01*
X75956413Y-30092719D01*
X75865033Y-30229479D01*
X75802089Y-30381440D01*
X75770000Y-30542760D01*
X58739984Y-30542760D01*
X58739982Y-28532210D01*
X58785571Y-28067404D01*
X58911199Y-27651350D01*
X59115246Y-27267621D01*
X59389937Y-26930837D01*
X59724816Y-26653819D01*
X60107122Y-26447122D01*
X60522296Y-26318618D01*
X60984999Y-26270000D01*
X80873944Y-26270000D01*
X80870932Y-26277271D01*
G04 #@! TA.AperFunction,Conductor*
D17*
G36*
X80870932Y-26277271D02*
G01*
X80835000Y-26457911D01*
X80835000Y-26642089D01*
X80870932Y-26822729D01*
X80941414Y-26992889D01*
X81043738Y-27146028D01*
X81173972Y-27276262D01*
X81209498Y-27300000D01*
X81173972Y-27323738D01*
X81043738Y-27453972D01*
X80941414Y-27607111D01*
X80870932Y-27777271D01*
X80835000Y-27957911D01*
X80835000Y-28142089D01*
X80870932Y-28322729D01*
X80941414Y-28492889D01*
X81043738Y-28646028D01*
X81173972Y-28776262D01*
X81327111Y-28878586D01*
X81497271Y-28949068D01*
X81677911Y-28985000D01*
X81862089Y-28985000D01*
X82042729Y-28949068D01*
X82212889Y-28878586D01*
X82366028Y-28776262D01*
X82496262Y-28646028D01*
X82520000Y-28610502D01*
X82543738Y-28646028D01*
X82673972Y-28776262D01*
X82827111Y-28878586D01*
X82997271Y-28949068D01*
X83177911Y-28985000D01*
X83362089Y-28985000D01*
X83542729Y-28949068D01*
X83712889Y-28878586D01*
X83866028Y-28776262D01*
X83996262Y-28646028D01*
X84020000Y-28610502D01*
X84043738Y-28646028D01*
X84173972Y-28776262D01*
X84327111Y-28878586D01*
X84497271Y-28949068D01*
X84677911Y-28985000D01*
X84862089Y-28985000D01*
X85042729Y-28949068D01*
X85212889Y-28878586D01*
X85366028Y-28776262D01*
X85496262Y-28646028D01*
X85520000Y-28610502D01*
X85543738Y-28646028D01*
X85673972Y-28776262D01*
X85827111Y-28878586D01*
X85997271Y-28949068D01*
X86177911Y-28985000D01*
X86362089Y-28985000D01*
X86542729Y-28949068D01*
X86712889Y-28878586D01*
X86866028Y-28776262D01*
X86996262Y-28646028D01*
X87020000Y-28610502D01*
X87043738Y-28646028D01*
X87092710Y-28695000D01*
X87033738Y-28753972D01*
X86931414Y-28907111D01*
X86860932Y-29077271D01*
X86825000Y-29257911D01*
X86825000Y-29442089D01*
X86860932Y-29622729D01*
X86931414Y-29792889D01*
X87033738Y-29946028D01*
X87163972Y-30076262D01*
X87199498Y-30100000D01*
X87163972Y-30123738D01*
X87033738Y-30253972D01*
X86931414Y-30407111D01*
X86860932Y-30577271D01*
X86825000Y-30757911D01*
X86825000Y-30942089D01*
X86860932Y-31122729D01*
X86931414Y-31292889D01*
X87033738Y-31446028D01*
X87163972Y-31576262D01*
X87199498Y-31600000D01*
X87163972Y-31623738D01*
X87033738Y-31753972D01*
X86931414Y-31907111D01*
X86860932Y-32077271D01*
X86825000Y-32257911D01*
X86825000Y-32442089D01*
X86860932Y-32622729D01*
X86931414Y-32792889D01*
X87033738Y-32946028D01*
X87163972Y-33076262D01*
X87317111Y-33178586D01*
X87487271Y-33249068D01*
X87667911Y-33285000D01*
X87852089Y-33285000D01*
X88032729Y-33249068D01*
X88202889Y-33178586D01*
X88356028Y-33076262D01*
X88486262Y-32946028D01*
X88510000Y-32910502D01*
X88533738Y-32946028D01*
X88663972Y-33076262D01*
X88817111Y-33178586D01*
X88987271Y-33249068D01*
X89167911Y-33285000D01*
X89352089Y-33285000D01*
X89532729Y-33249068D01*
X89702889Y-33178586D01*
X89856028Y-33076262D01*
X89986262Y-32946028D01*
X90088586Y-32792889D01*
X90159068Y-32622729D01*
X90195000Y-32442089D01*
X90195000Y-32257911D01*
X90159068Y-32077271D01*
X90088586Y-31907111D01*
X89986262Y-31753972D01*
X89856028Y-31623738D01*
X89820502Y-31600000D01*
X89856028Y-31576262D01*
X89986262Y-31446028D01*
X90088586Y-31292889D01*
X90159068Y-31122729D01*
X90195000Y-30942089D01*
X90195000Y-30757911D01*
X90159068Y-30577271D01*
X90088586Y-30407111D01*
X89986262Y-30253972D01*
X89856028Y-30123738D01*
X89820502Y-30100000D01*
X89856028Y-30076262D01*
X89986262Y-29946028D01*
X90088586Y-29792889D01*
X90159068Y-29622729D01*
X90195000Y-29442089D01*
X90195000Y-29257911D01*
X90165223Y-29108212D01*
X116385000Y-29108212D01*
X116385000Y-29331788D01*
X116428617Y-29551067D01*
X116514176Y-29757624D01*
X116638388Y-29943520D01*
X116796480Y-30101612D01*
X116982376Y-30225824D01*
X117188933Y-30311383D01*
X117408212Y-30355000D01*
X117631788Y-30355000D01*
X117851067Y-30311383D01*
X118057624Y-30225824D01*
X118243520Y-30101612D01*
X118401612Y-29943520D01*
X118525824Y-29757624D01*
X118611383Y-29551067D01*
X118655000Y-29331788D01*
X118655000Y-29108212D01*
X118611383Y-28888933D01*
X118525824Y-28682376D01*
X118401612Y-28496480D01*
X118243520Y-28338388D01*
X118057624Y-28214176D01*
X117851067Y-28128617D01*
X117631788Y-28085000D01*
X117408212Y-28085000D01*
X117188933Y-28128617D01*
X116982376Y-28214176D01*
X116796480Y-28338388D01*
X116638388Y-28496480D01*
X116514176Y-28682376D01*
X116428617Y-28888933D01*
X116385000Y-29108212D01*
X90165223Y-29108212D01*
X90159068Y-29077271D01*
X90088586Y-28907111D01*
X89986262Y-28753972D01*
X89937290Y-28705000D01*
X89996262Y-28646028D01*
X90098586Y-28492889D01*
X90169068Y-28322729D01*
X90205000Y-28142089D01*
X90205000Y-27957911D01*
X90169068Y-27777271D01*
X90098586Y-27607111D01*
X89996262Y-27453972D01*
X89866028Y-27323738D01*
X89830502Y-27300000D01*
X89866028Y-27276262D01*
X89996262Y-27146028D01*
X90098586Y-26992889D01*
X90169068Y-26822729D01*
X90205000Y-26642089D01*
X90205000Y-26457911D01*
X90169068Y-26277271D01*
X90166056Y-26270000D01*
X118157712Y-26270000D01*
X118622508Y-26315588D01*
X119038562Y-26441216D01*
X119422291Y-26645263D01*
X119759075Y-26919954D01*
X120036093Y-27254833D01*
X120242790Y-27637139D01*
X120371294Y-28052313D01*
X120419912Y-28515017D01*
X120420001Y-57929125D01*
X120350554Y-58686077D01*
X120152585Y-59388399D01*
X119829945Y-60042877D01*
X119393437Y-60627603D01*
X118857684Y-61122986D01*
X118240621Y-61512446D01*
X117562920Y-61782931D01*
X116833631Y-61928101D01*
X116436733Y-61950000D01*
X62760866Y-61950000D01*
X62003923Y-61880554D01*
X61301601Y-61682585D01*
X60647123Y-61359945D01*
X60062397Y-60923437D01*
X59567014Y-60387684D01*
X59177554Y-59770621D01*
X58907069Y-59092920D01*
X58761899Y-58363631D01*
X58740000Y-57966733D01*
X58740000Y-57398061D01*
X81065000Y-57398061D01*
X81065000Y-57601939D01*
X81104774Y-57801898D01*
X81182795Y-57990256D01*
X81296063Y-58159774D01*
X81440226Y-58303937D01*
X81609744Y-58417205D01*
X81798102Y-58495226D01*
X81998061Y-58535000D01*
X82201939Y-58535000D01*
X82401898Y-58495226D01*
X82590256Y-58417205D01*
X82678771Y-58358061D01*
X96615000Y-58358061D01*
X96615000Y-58561939D01*
X96654774Y-58761898D01*
X96732795Y-58950256D01*
X96846063Y-59119774D01*
X96990226Y-59263937D01*
X97159744Y-59377205D01*
X97348102Y-59455226D01*
X97548061Y-59495000D01*
X97751939Y-59495000D01*
X97951898Y-59455226D01*
X98140256Y-59377205D01*
X98309774Y-59263937D01*
X98453937Y-59119774D01*
X98567205Y-58950256D01*
X98645226Y-58761898D01*
X98685000Y-58561939D01*
X98685000Y-58358061D01*
X98645226Y-58158102D01*
X98567205Y-57969744D01*
X98453937Y-57800226D01*
X98309774Y-57656063D01*
X98140256Y-57542795D01*
X97951898Y-57464774D01*
X97751939Y-57425000D01*
X97548061Y-57425000D01*
X97348102Y-57464774D01*
X97159744Y-57542795D01*
X96990226Y-57656063D01*
X96846063Y-57800226D01*
X96732795Y-57969744D01*
X96654774Y-58158102D01*
X96615000Y-58358061D01*
X82678771Y-58358061D01*
X82759774Y-58303937D01*
X82903937Y-58159774D01*
X83017205Y-57990256D01*
X83095226Y-57801898D01*
X83135000Y-57601939D01*
X83135000Y-57398061D01*
X83095226Y-57198102D01*
X83017205Y-57009744D01*
X82903937Y-56840226D01*
X82759774Y-56696063D01*
X82590256Y-56582795D01*
X82401898Y-56504774D01*
X82201939Y-56465000D01*
X81998061Y-56465000D01*
X81798102Y-56504774D01*
X81609744Y-56582795D01*
X81440226Y-56696063D01*
X81296063Y-56840226D01*
X81182795Y-57009744D01*
X81104774Y-57198102D01*
X81065000Y-57398061D01*
X58740000Y-57398061D01*
X58739999Y-55523061D01*
X95885000Y-55523061D01*
X95885000Y-55726939D01*
X95924774Y-55926898D01*
X96002795Y-56115256D01*
X96116063Y-56284774D01*
X96260226Y-56428937D01*
X96429744Y-56542205D01*
X96618102Y-56620226D01*
X96818061Y-56660000D01*
X97021939Y-56660000D01*
X97221898Y-56620226D01*
X97410256Y-56542205D01*
X97579774Y-56428937D01*
X97723937Y-56284774D01*
X97837205Y-56115256D01*
X97915226Y-55926898D01*
X97955000Y-55726939D01*
X97955000Y-55523061D01*
X97915226Y-55323102D01*
X97837205Y-55134744D01*
X97723937Y-54965226D01*
X97579774Y-54821063D01*
X97410256Y-54707795D01*
X97221898Y-54629774D01*
X97021939Y-54590000D01*
X96818061Y-54590000D01*
X96618102Y-54629774D01*
X96429744Y-54707795D01*
X96260226Y-54821063D01*
X96116063Y-54965226D01*
X96002795Y-55134744D01*
X95924774Y-55323102D01*
X95885000Y-55523061D01*
X58739999Y-55523061D01*
X58739999Y-53903061D01*
X99710000Y-53903061D01*
X99710000Y-54106939D01*
X99749774Y-54306898D01*
X99827795Y-54495256D01*
X99941063Y-54664774D01*
X100085226Y-54808937D01*
X100254744Y-54922205D01*
X100443102Y-55000226D01*
X100643061Y-55040000D01*
X100846939Y-55040000D01*
X101046898Y-55000226D01*
X101235256Y-54922205D01*
X101404774Y-54808937D01*
X101548937Y-54664774D01*
X101662205Y-54495256D01*
X101740226Y-54306898D01*
X101780000Y-54106939D01*
X101780000Y-53903061D01*
X101759115Y-53798061D01*
X101825000Y-53798061D01*
X101825000Y-54001939D01*
X101864774Y-54201898D01*
X101942795Y-54390256D01*
X102056063Y-54559774D01*
X102200226Y-54703937D01*
X102369744Y-54817205D01*
X102558102Y-54895226D01*
X102758061Y-54935000D01*
X102961939Y-54935000D01*
X103161898Y-54895226D01*
X103350256Y-54817205D01*
X103519774Y-54703937D01*
X103663937Y-54559774D01*
X103777205Y-54390256D01*
X103855226Y-54201898D01*
X103895000Y-54001939D01*
X103895000Y-53798061D01*
X103855226Y-53598102D01*
X103777205Y-53409744D01*
X103717829Y-53320882D01*
X103848937Y-53189774D01*
X103962205Y-53020256D01*
X104040226Y-52831898D01*
X104080000Y-52631939D01*
X104080000Y-52428061D01*
X104040226Y-52228102D01*
X103962205Y-52039744D01*
X103848937Y-51870226D01*
X103704774Y-51726063D01*
X103535256Y-51612795D01*
X103346898Y-51534774D01*
X103146939Y-51495000D01*
X102943061Y-51495000D01*
X102743102Y-51534774D01*
X102554744Y-51612795D01*
X102385226Y-51726063D01*
X102241063Y-51870226D01*
X102127795Y-52039744D01*
X102049774Y-52228102D01*
X102010000Y-52428061D01*
X102010000Y-52631939D01*
X102049774Y-52831898D01*
X102127795Y-53020256D01*
X102187171Y-53109118D01*
X102056063Y-53240226D01*
X101942795Y-53409744D01*
X101864774Y-53598102D01*
X101825000Y-53798061D01*
X101759115Y-53798061D01*
X101740226Y-53703102D01*
X101662205Y-53514744D01*
X101548937Y-53345226D01*
X101404774Y-53201063D01*
X101235256Y-53087795D01*
X101046898Y-53009774D01*
X100846939Y-52970000D01*
X100643061Y-52970000D01*
X100443102Y-53009774D01*
X100254744Y-53087795D01*
X100085226Y-53201063D01*
X99941063Y-53345226D01*
X99827795Y-53514744D01*
X99749774Y-53703102D01*
X99710000Y-53903061D01*
X58739999Y-53903061D01*
X58739995Y-48378061D01*
X85985000Y-48378061D01*
X85985000Y-48581939D01*
X86024774Y-48781898D01*
X86102795Y-48970256D01*
X86216063Y-49139774D01*
X86360226Y-49283937D01*
X86529744Y-49397205D01*
X86718102Y-49475226D01*
X86918061Y-49515000D01*
X87121939Y-49515000D01*
X87321898Y-49475226D01*
X87510256Y-49397205D01*
X87586850Y-49346026D01*
X113420500Y-49346026D01*
X113420500Y-49603974D01*
X113470823Y-49856967D01*
X113569536Y-50095281D01*
X113712845Y-50309758D01*
X113895242Y-50492155D01*
X114109719Y-50635464D01*
X114348033Y-50734177D01*
X114601026Y-50784500D01*
X114858974Y-50784500D01*
X115111967Y-50734177D01*
X115350281Y-50635464D01*
X115564758Y-50492155D01*
X115747155Y-50309758D01*
X115890464Y-50095281D01*
X115989177Y-49856967D01*
X116039500Y-49603974D01*
X116039500Y-49346026D01*
X115989177Y-49093033D01*
X115890464Y-48854719D01*
X115747155Y-48640242D01*
X115564758Y-48457845D01*
X115350281Y-48314536D01*
X115111967Y-48215823D01*
X114858974Y-48165500D01*
X114601026Y-48165500D01*
X114348033Y-48215823D01*
X114109719Y-48314536D01*
X113895242Y-48457845D01*
X113712845Y-48640242D01*
X113569536Y-48854719D01*
X113470823Y-49093033D01*
X113420500Y-49346026D01*
X87586850Y-49346026D01*
X87679774Y-49283937D01*
X87823937Y-49139774D01*
X87937205Y-48970256D01*
X88015226Y-48781898D01*
X88055000Y-48581939D01*
X88055000Y-48378061D01*
X88015226Y-48178102D01*
X87937205Y-47989744D01*
X87823937Y-47820226D01*
X87679774Y-47676063D01*
X87510256Y-47562795D01*
X87321898Y-47484774D01*
X87121939Y-47445000D01*
X86918061Y-47445000D01*
X86718102Y-47484774D01*
X86529744Y-47562795D01*
X86360226Y-47676063D01*
X86216063Y-47820226D01*
X86102795Y-47989744D01*
X86024774Y-48178102D01*
X85985000Y-48378061D01*
X58739995Y-48378061D01*
X58739992Y-43418061D01*
X62435000Y-43418061D01*
X62435000Y-43621939D01*
X62474774Y-43821898D01*
X62552795Y-44010256D01*
X62666063Y-44179774D01*
X62810226Y-44323937D01*
X62979744Y-44437205D01*
X63168102Y-44515226D01*
X63368061Y-44555000D01*
X63571939Y-44555000D01*
X63771898Y-44515226D01*
X63960256Y-44437205D01*
X63988907Y-44418061D01*
X90695000Y-44418061D01*
X90695000Y-44621939D01*
X90734774Y-44821898D01*
X90812795Y-45010256D01*
X90926063Y-45179774D01*
X91070226Y-45323937D01*
X91223995Y-45426682D01*
X91090226Y-45516063D01*
X90946063Y-45660226D01*
X90832795Y-45829744D01*
X90754774Y-46018102D01*
X90715000Y-46218061D01*
X90715000Y-46421939D01*
X90754774Y-46621898D01*
X90832795Y-46810256D01*
X90946063Y-46979774D01*
X91090226Y-47123937D01*
X91259744Y-47237205D01*
X91448102Y-47315226D01*
X91648061Y-47355000D01*
X91851939Y-47355000D01*
X92051898Y-47315226D01*
X92240256Y-47237205D01*
X92403601Y-47128061D01*
X101685000Y-47128061D01*
X101685000Y-47331939D01*
X101724774Y-47531898D01*
X101802795Y-47720256D01*
X101916063Y-47889774D01*
X102060226Y-48033937D01*
X102229744Y-48147205D01*
X102418102Y-48225226D01*
X102618061Y-48265000D01*
X102821939Y-48265000D01*
X103021898Y-48225226D01*
X103210256Y-48147205D01*
X103379774Y-48033937D01*
X103523937Y-47889774D01*
X103637205Y-47720256D01*
X103715226Y-47531898D01*
X103755000Y-47331939D01*
X103755000Y-47128061D01*
X103715226Y-46928102D01*
X103637205Y-46739744D01*
X103523937Y-46570226D01*
X103379774Y-46426063D01*
X103210256Y-46312795D01*
X103021898Y-46234774D01*
X102821939Y-46195000D01*
X102618061Y-46195000D01*
X102418102Y-46234774D01*
X102229744Y-46312795D01*
X102060226Y-46426063D01*
X101916063Y-46570226D01*
X101802795Y-46739744D01*
X101724774Y-46928102D01*
X101685000Y-47128061D01*
X92403601Y-47128061D01*
X92409774Y-47123937D01*
X92553937Y-46979774D01*
X92667205Y-46810256D01*
X92745226Y-46621898D01*
X92785000Y-46421939D01*
X92785000Y-46218061D01*
X92745226Y-46018102D01*
X92667205Y-45829744D01*
X92553937Y-45660226D01*
X92409774Y-45516063D01*
X92256005Y-45413318D01*
X92389774Y-45323937D01*
X92533937Y-45179774D01*
X92647205Y-45010256D01*
X92725226Y-44821898D01*
X92765000Y-44621939D01*
X92765000Y-44418061D01*
X92725226Y-44218102D01*
X92647205Y-44029744D01*
X92533937Y-43860226D01*
X92389774Y-43716063D01*
X92220256Y-43602795D01*
X92031898Y-43524774D01*
X91831939Y-43485000D01*
X91628061Y-43485000D01*
X91428102Y-43524774D01*
X91239744Y-43602795D01*
X91070226Y-43716063D01*
X90926063Y-43860226D01*
X90812795Y-44029744D01*
X90734774Y-44218102D01*
X90695000Y-44418061D01*
X63988907Y-44418061D01*
X64129774Y-44323937D01*
X64273937Y-44179774D01*
X64387205Y-44010256D01*
X64465226Y-43821898D01*
X64505000Y-43621939D01*
X64505000Y-43418061D01*
X64465226Y-43218102D01*
X64387205Y-43029744D01*
X64273937Y-42860226D01*
X64129774Y-42716063D01*
X63960256Y-42602795D01*
X63771898Y-42524774D01*
X63571939Y-42485000D01*
X63368061Y-42485000D01*
X63168102Y-42524774D01*
X62979744Y-42602795D01*
X62810226Y-42716063D01*
X62666063Y-42860226D01*
X62552795Y-43029744D01*
X62474774Y-43218102D01*
X62435000Y-43418061D01*
X58739992Y-43418061D01*
X58739992Y-42358061D01*
X79475000Y-42358061D01*
X79475000Y-42561939D01*
X79514774Y-42761898D01*
X79592795Y-42950256D01*
X79706063Y-43119774D01*
X79850226Y-43263937D01*
X80019744Y-43377205D01*
X80208102Y-43455226D01*
X80408061Y-43495000D01*
X80611939Y-43495000D01*
X80811898Y-43455226D01*
X81000256Y-43377205D01*
X81169774Y-43263937D01*
X81313937Y-43119774D01*
X81427205Y-42950256D01*
X81505226Y-42761898D01*
X81545000Y-42561939D01*
X81545000Y-42358061D01*
X81505226Y-42158102D01*
X81427205Y-41969744D01*
X81313937Y-41800226D01*
X81169774Y-41656063D01*
X81000256Y-41542795D01*
X80811898Y-41464774D01*
X80611939Y-41425000D01*
X80408061Y-41425000D01*
X80208102Y-41464774D01*
X80019744Y-41542795D01*
X79850226Y-41656063D01*
X79706063Y-41800226D01*
X79592795Y-41969744D01*
X79514774Y-42158102D01*
X79475000Y-42358061D01*
X58739992Y-42358061D01*
X58739991Y-40298061D01*
X82955000Y-40298061D01*
X82955000Y-40501939D01*
X82994774Y-40701898D01*
X83072795Y-40890256D01*
X83186063Y-41059774D01*
X83330226Y-41203937D01*
X83499744Y-41317205D01*
X83688102Y-41395226D01*
X83888061Y-41435000D01*
X84091939Y-41435000D01*
X84291898Y-41395226D01*
X84480256Y-41317205D01*
X84649774Y-41203937D01*
X84793937Y-41059774D01*
X84907205Y-40890256D01*
X84985226Y-40701898D01*
X85025000Y-40501939D01*
X85025000Y-40298061D01*
X84985226Y-40098102D01*
X84907205Y-39909744D01*
X84793937Y-39740226D01*
X84649774Y-39596063D01*
X84480256Y-39482795D01*
X84291898Y-39404774D01*
X84091939Y-39365000D01*
X83888061Y-39365000D01*
X83688102Y-39404774D01*
X83499744Y-39482795D01*
X83330226Y-39596063D01*
X83186063Y-39740226D01*
X83072795Y-39909744D01*
X82994774Y-40098102D01*
X82955000Y-40298061D01*
X58739991Y-40298061D01*
X58739985Y-32821026D01*
X62620500Y-32821026D01*
X62620500Y-33078974D01*
X62670823Y-33331967D01*
X62769536Y-33570281D01*
X62912845Y-33784758D01*
X63095242Y-33967155D01*
X63309719Y-34110464D01*
X63548033Y-34209177D01*
X63801026Y-34259500D01*
X64058974Y-34259500D01*
X64311967Y-34209177D01*
X64550281Y-34110464D01*
X64764758Y-33967155D01*
X64947155Y-33784758D01*
X65090464Y-33570281D01*
X65189177Y-33331967D01*
X65239500Y-33078974D01*
X65239500Y-32867760D01*
X71695000Y-32867760D01*
X71695000Y-33032240D01*
X71727089Y-33193560D01*
X71790033Y-33345521D01*
X71881413Y-33482281D01*
X71997719Y-33598587D01*
X72134479Y-33689967D01*
X72286440Y-33752911D01*
X72447760Y-33785000D01*
X72612240Y-33785000D01*
X72773560Y-33752911D01*
X72925521Y-33689967D01*
X73062281Y-33598587D01*
X73178587Y-33482281D01*
X73180000Y-33480166D01*
X73181413Y-33482281D01*
X73297719Y-33598587D01*
X73434479Y-33689967D01*
X73586440Y-33752911D01*
X73747760Y-33785000D01*
X73912240Y-33785000D01*
X74073560Y-33752911D01*
X74225521Y-33689967D01*
X74362281Y-33598587D01*
X74478587Y-33482281D01*
X74569967Y-33345521D01*
X74632911Y-33193560D01*
X74665000Y-33032240D01*
X74665000Y-32867760D01*
X74632911Y-32706440D01*
X74569967Y-32554479D01*
X74478587Y-32417719D01*
X74362281Y-32301413D01*
X74225521Y-32210033D01*
X74073560Y-32147089D01*
X73912240Y-32115000D01*
X73747760Y-32115000D01*
X73586440Y-32147089D01*
X73434479Y-32210033D01*
X73297719Y-32301413D01*
X73181413Y-32417719D01*
X73180000Y-32419834D01*
X73178587Y-32417719D01*
X73062281Y-32301413D01*
X72925521Y-32210033D01*
X72773560Y-32147089D01*
X72612240Y-32115000D01*
X72447760Y-32115000D01*
X72286440Y-32147089D01*
X72134479Y-32210033D01*
X71997719Y-32301413D01*
X71881413Y-32417719D01*
X71790033Y-32554479D01*
X71727089Y-32706440D01*
X71695000Y-32867760D01*
X65239500Y-32867760D01*
X65239500Y-32821026D01*
X65189177Y-32568033D01*
X65090464Y-32329719D01*
X64947155Y-32115242D01*
X64764758Y-31932845D01*
X64550281Y-31789536D01*
X64311967Y-31690823D01*
X64058974Y-31640500D01*
X63801026Y-31640500D01*
X63548033Y-31690823D01*
X63309719Y-31789536D01*
X63095242Y-31932845D01*
X62912845Y-32115242D01*
X62769536Y-32329719D01*
X62670823Y-32568033D01*
X62620500Y-32821026D01*
X58739985Y-32821026D01*
X58739984Y-30542760D01*
X75770000Y-30542760D01*
X75770000Y-30707240D01*
X75802089Y-30868560D01*
X75865033Y-31020521D01*
X75956413Y-31157281D01*
X76072719Y-31273587D01*
X76209479Y-31364967D01*
X76361440Y-31427911D01*
X76522760Y-31460000D01*
X76687240Y-31460000D01*
X76848560Y-31427911D01*
X77000521Y-31364967D01*
X77137281Y-31273587D01*
X77253587Y-31157281D01*
X77344967Y-31020521D01*
X77407911Y-30868560D01*
X77440000Y-30707240D01*
X77440000Y-30542760D01*
X77435028Y-30517760D01*
X77645000Y-30517760D01*
X77645000Y-30682240D01*
X77677089Y-30843560D01*
X77740033Y-30995521D01*
X77831413Y-31132281D01*
X77947719Y-31248587D01*
X78084479Y-31339967D01*
X78236440Y-31402911D01*
X78397760Y-31435000D01*
X78562240Y-31435000D01*
X78723560Y-31402911D01*
X78875521Y-31339967D01*
X79012281Y-31248587D01*
X79128587Y-31132281D01*
X79219967Y-30995521D01*
X79282911Y-30843560D01*
X79315000Y-30682240D01*
X79315000Y-30517760D01*
X79282911Y-30356440D01*
X79219967Y-30204479D01*
X79128587Y-30067719D01*
X79012281Y-29951413D01*
X78875521Y-29860033D01*
X78723560Y-29797089D01*
X78562240Y-29765000D01*
X78397760Y-29765000D01*
X78236440Y-29797089D01*
X78084479Y-29860033D01*
X77947719Y-29951413D01*
X77831413Y-30067719D01*
X77740033Y-30204479D01*
X77677089Y-30356440D01*
X77645000Y-30517760D01*
X77435028Y-30517760D01*
X77407911Y-30381440D01*
X77344967Y-30229479D01*
X77253587Y-30092719D01*
X77137281Y-29976413D01*
X77000521Y-29885033D01*
X76848560Y-29822089D01*
X76687240Y-29790000D01*
X76522760Y-29790000D01*
X76361440Y-29822089D01*
X76209479Y-29885033D01*
X76072719Y-29976413D01*
X75956413Y-30092719D01*
X75865033Y-30229479D01*
X75802089Y-30381440D01*
X75770000Y-30542760D01*
X58739984Y-30542760D01*
X58739982Y-28532210D01*
X58785571Y-28067404D01*
X58911199Y-27651350D01*
X59115246Y-27267621D01*
X59389937Y-26930837D01*
X59724816Y-26653819D01*
X60107122Y-26447122D01*
X60522296Y-26318618D01*
X60984999Y-26270000D01*
X80873944Y-26270000D01*
X80870932Y-26277271D01*
G37*
G04 #@! TD.AperFunction*
M02*
