M48
; DRILL file {KiCad (5.1.12)-1} date 01/05/26 15:48:51
; FORMAT={-:-/ absolute / metric / decimal}
; #@! TF.CreationDate,2026-01-05T15:48:51-06:00
; #@! TF.GenerationSoftware,Kicad,Pcbnew,(5.1.12)-1
; #@! TF.FileFunction,Plated,1,4,PTH
FMAT,2
METRIC
T1C0.300
T2C0.400
T3C0.550
T4C0.830
T5C1.650
%
G90
G05
T1
X72.53Y-32.95
X73.83Y-32.95
X73.85Y-29.95
X76.53Y-34.225
X76.605Y-30.625
X76.62Y-29.04
X77.58Y-33.1
X77.58Y-34.22
X77.58Y-35.3
X78.48Y-29.01
X78.48Y-30.6
X78.7Y-34.22
X81.77Y-26.55
X81.77Y-28.05
X83.27Y-26.55
X83.27Y-28.05
X84.77Y-26.55
X84.77Y-28.05
X85.64Y-43.93
X86.26Y-38.21
X86.27Y-26.55
X86.27Y-28.05
X87.04Y-43.08
X87.04Y-43.93
X87.04Y-44.87
X87.76Y-29.35
X87.76Y-30.85
X87.76Y-32.35
X87.77Y-26.55
X87.77Y-28.05
X88.4Y-43.93
X89.26Y-29.35
X89.26Y-30.85
X89.26Y-32.35
X89.27Y-26.55
X89.27Y-28.05
X93.36Y-50.34
X97.82Y-50.43
X98.82Y-49.43
X98.82Y-50.43
X98.82Y-51.53
X99.92Y-50.43
X104.23Y-51.82
T2
X60.83Y-43.02
X63.47Y-43.52
X69.53Y-41.78
X72.48Y-37.99
X77.61Y-46.59
X78.655Y-40.525
X79.7Y-55.15
X79.73Y-49.36
X80.51Y-42.46
X82.1Y-57.5
X82.46Y-40.42
X83.99Y-40.4
X87.02Y-48.48
X87.05Y-50.04
X91.73Y-44.52
X91.75Y-46.32
X93.33Y-46.31
X95.48Y-31.87
X96.92Y-55.625
X97.65Y-58.46
X98.44Y-33.97
X100.74Y-55.58
X100.745Y-54.005
X102.72Y-47.23
X102.86Y-53.9
X103.045Y-52.53
X106.13Y-29.91
X107.78Y-29.89
X111.16Y-31.46
T3
X117.52Y-29.22
X117.52Y-30.47
T4
X63.93Y-32.95
X114.73Y-49.475
T5
X60.65Y-29.68
X60.65Y-36.23
X67.2Y-29.68
X67.2Y-36.23
X111.46Y-46.195
X111.46Y-52.745
X118.01Y-46.195
X118.01Y-52.745
T0
M30
