G04 #@! TF.GenerationSoftware,KiCad,Pcbnew,(5.1.12)-1*
G04 #@! TF.CreationDate,2026-01-05T15:48:36-06:00*
G04 #@! TF.ProjectId,Amplificador HD-SDI,416d706c-6966-4696-9361-646f72204844,rev?*
G04 #@! TF.SameCoordinates,Original*
G04 #@! TF.FileFunction,Copper,L1,Top*
G04 #@! TF.FilePolarity,Positive*
%FSLAX46Y46*%
G04 Gerber Fmt 4.6, Leading zero omitted, Abs format (unit mm)*
G04 Created by KiCad (PCBNEW (5.1.12)-1) date 2026-01-05 15:48:36*
%MOMM*%
%LPD*%
G01*
G04 APERTURE LIST*
G04 #@! TA.AperFunction,SMDPad,CuDef*
%ADD10R,0.900000X0.800000*%
G04 #@! TD*
G04 #@! TA.AperFunction,SMDPad,CuDef*
%ADD11R,0.800000X0.900000*%
G04 #@! TD*
G04 #@! TA.AperFunction,SMDPad,CuDef*
%ADD12R,1.200000X1.400000*%
G04 #@! TD*
G04 #@! TA.AperFunction,SMDPad,CuDef*
%ADD13R,3.606800X2.590800*%
G04 #@! TD*
G04 #@! TA.AperFunction,SMDPad,CuDef*
%ADD14R,0.609600X0.254000*%
G04 #@! TD*
G04 #@! TA.AperFunction,SMDPad,CuDef*
%ADD15R,0.254000X0.609600*%
G04 #@! TD*
G04 #@! TA.AperFunction,SMDPad,CuDef*
%ADD16R,1.300000X1.300000*%
G04 #@! TD*
G04 #@! TA.AperFunction,SMDPad,CuDef*
%ADD17R,1.300000X2.000000*%
G04 #@! TD*
G04 #@! TA.AperFunction,SMDPad,CuDef*
%ADD18R,2.700000X2.700000*%
G04 #@! TD*
G04 #@! TA.AperFunction,SMDPad,CuDef*
%ADD19R,0.350000X0.850000*%
G04 #@! TD*
G04 #@! TA.AperFunction,SMDPad,CuDef*
%ADD20R,0.850000X0.350000*%
G04 #@! TD*
G04 #@! TA.AperFunction,ComponentPad*
%ADD21C,2.475000*%
G04 #@! TD*
G04 #@! TA.AperFunction,ComponentPad*
%ADD22C,1.349000*%
G04 #@! TD*
G04 #@! TA.AperFunction,SMDPad,CuDef*
%ADD23R,3.200000X1.750000*%
G04 #@! TD*
G04 #@! TA.AperFunction,SMDPad,CuDef*
%ADD24R,0.950000X1.750000*%
G04 #@! TD*
G04 #@! TA.AperFunction,ComponentPad*
%ADD25C,1.000000*%
G04 #@! TD*
G04 #@! TA.AperFunction,SMDPad,CuDef*
%ADD26R,2.590800X2.590800*%
G04 #@! TD*
G04 #@! TA.AperFunction,SMDPad,CuDef*
%ADD27R,0.304800X0.609600*%
G04 #@! TD*
G04 #@! TA.AperFunction,SMDPad,CuDef*
%ADD28R,0.609600X0.304800*%
G04 #@! TD*
G04 #@! TA.AperFunction,ViaPad*
%ADD29C,0.400000*%
G04 #@! TD*
G04 #@! TA.AperFunction,ViaPad*
%ADD30C,0.800000*%
G04 #@! TD*
G04 #@! TA.AperFunction,ViaPad*
%ADD31C,0.600000*%
G04 #@! TD*
G04 #@! TA.AperFunction,Conductor*
%ADD32C,0.400000*%
G04 #@! TD*
G04 #@! TA.AperFunction,Conductor*
%ADD33C,0.160000*%
G04 #@! TD*
G04 #@! TA.AperFunction,Conductor*
%ADD34C,0.250000*%
G04 #@! TD*
G04 #@! TA.AperFunction,Conductor*
%ADD35C,0.350000*%
G04 #@! TD*
G04 #@! TA.AperFunction,Conductor*
%ADD36C,0.200000*%
G04 #@! TD*
G04 #@! TA.AperFunction,Conductor*
%ADD37C,0.300000*%
G04 #@! TD*
G04 #@! TA.AperFunction,Conductor*
%ADD38C,0.800000*%
G04 #@! TD*
G04 #@! TA.AperFunction,Conductor*
%ADD39C,0.254000*%
G04 #@! TD*
G04 #@! TA.AperFunction,Conductor*
%ADD40C,0.100000*%
G04 #@! TD*
G04 APERTURE END LIST*
D10*
X81700000Y-54200000D03*
X79700000Y-55150000D03*
X79700000Y-53250000D03*
D11*
X103670000Y-57660000D03*
X102720000Y-55660000D03*
X104620000Y-55660000D03*
G04 #@! TA.AperFunction,SMDPad,CuDef*
G36*
G01*
X80085000Y-50935000D02*
X80085000Y-51485000D01*
G75*
G02*
X79885000Y-51685000I-200000J0D01*
G01*
X79485000Y-51685000D01*
G75*
G02*
X79285000Y-51485000I0J200000D01*
G01*
X79285000Y-50935000D01*
G75*
G02*
X79485000Y-50735000I200000J0D01*
G01*
X79885000Y-50735000D01*
G75*
G02*
X80085000Y-50935000I0J-200000D01*
G01*
G37*
G04 #@! TD.AperFunction*
G04 #@! TA.AperFunction,SMDPad,CuDef*
G36*
G01*
X81735000Y-50935000D02*
X81735000Y-51485000D01*
G75*
G02*
X81535000Y-51685000I-200000J0D01*
G01*
X81135000Y-51685000D01*
G75*
G02*
X80935000Y-51485000I0J200000D01*
G01*
X80935000Y-50935000D01*
G75*
G02*
X81135000Y-50735000I200000J0D01*
G01*
X81535000Y-50735000D01*
G75*
G02*
X81735000Y-50935000I0J-200000D01*
G01*
G37*
G04 #@! TD.AperFunction*
D12*
X81290000Y-45020000D03*
X81290000Y-47220000D03*
X79590000Y-47220000D03*
X79590000Y-45020000D03*
G04 #@! TA.AperFunction,SMDPad,CuDef*
G36*
G01*
X87445000Y-56885000D02*
X88695000Y-56885000D01*
G75*
G02*
X88945000Y-57135000I0J-250000D01*
G01*
X88945000Y-57885000D01*
G75*
G02*
X88695000Y-58135000I-250000J0D01*
G01*
X87445000Y-58135000D01*
G75*
G02*
X87195000Y-57885000I0J250000D01*
G01*
X87195000Y-57135000D01*
G75*
G02*
X87445000Y-56885000I250000J0D01*
G01*
G37*
G04 #@! TD.AperFunction*
G04 #@! TA.AperFunction,SMDPad,CuDef*
G36*
G01*
X87445000Y-54085000D02*
X88695000Y-54085000D01*
G75*
G02*
X88945000Y-54335000I0J-250000D01*
G01*
X88945000Y-55085000D01*
G75*
G02*
X88695000Y-55335000I-250000J0D01*
G01*
X87445000Y-55335000D01*
G75*
G02*
X87195000Y-55085000I0J250000D01*
G01*
X87195000Y-54335000D01*
G75*
G02*
X87445000Y-54085000I250000J0D01*
G01*
G37*
G04 #@! TD.AperFunction*
G04 #@! TA.AperFunction,SMDPad,CuDef*
G36*
G01*
X91495000Y-56885000D02*
X92745000Y-56885000D01*
G75*
G02*
X92995000Y-57135000I0J-250000D01*
G01*
X92995000Y-57885000D01*
G75*
G02*
X92745000Y-58135000I-250000J0D01*
G01*
X91495000Y-58135000D01*
G75*
G02*
X91245000Y-57885000I0J250000D01*
G01*
X91245000Y-57135000D01*
G75*
G02*
X91495000Y-56885000I250000J0D01*
G01*
G37*
G04 #@! TD.AperFunction*
G04 #@! TA.AperFunction,SMDPad,CuDef*
G36*
G01*
X91495000Y-54085000D02*
X92745000Y-54085000D01*
G75*
G02*
X92995000Y-54335000I0J-250000D01*
G01*
X92995000Y-55085000D01*
G75*
G02*
X92745000Y-55335000I-250000J0D01*
G01*
X91495000Y-55335000D01*
G75*
G02*
X91245000Y-55085000I0J250000D01*
G01*
X91245000Y-54335000D01*
G75*
G02*
X91495000Y-54085000I250000J0D01*
G01*
G37*
G04 #@! TD.AperFunction*
G04 #@! TA.AperFunction,SMDPad,CuDef*
G36*
G01*
X60185000Y-42405000D02*
X61435000Y-42405000D01*
G75*
G02*
X61685000Y-42655000I0J-250000D01*
G01*
X61685000Y-43405000D01*
G75*
G02*
X61435000Y-43655000I-250000J0D01*
G01*
X60185000Y-43655000D01*
G75*
G02*
X59935000Y-43405000I0J250000D01*
G01*
X59935000Y-42655000D01*
G75*
G02*
X60185000Y-42405000I250000J0D01*
G01*
G37*
G04 #@! TD.AperFunction*
G04 #@! TA.AperFunction,SMDPad,CuDef*
G36*
G01*
X60185000Y-45205000D02*
X61435000Y-45205000D01*
G75*
G02*
X61685000Y-45455000I0J-250000D01*
G01*
X61685000Y-46205000D01*
G75*
G02*
X61435000Y-46455000I-250000J0D01*
G01*
X60185000Y-46455000D01*
G75*
G02*
X59935000Y-46205000I0J250000D01*
G01*
X59935000Y-45455000D01*
G75*
G02*
X60185000Y-45205000I250000J0D01*
G01*
G37*
G04 #@! TD.AperFunction*
G04 #@! TA.AperFunction,SMDPad,CuDef*
G36*
G01*
X94865000Y-50610000D02*
X94495000Y-50610000D01*
G75*
G02*
X94360000Y-50475000I0J135000D01*
G01*
X94360000Y-50205000D01*
G75*
G02*
X94495000Y-50070000I135000J0D01*
G01*
X94865000Y-50070000D01*
G75*
G02*
X95000000Y-50205000I0J-135000D01*
G01*
X95000000Y-50475000D01*
G75*
G02*
X94865000Y-50610000I-135000J0D01*
G01*
G37*
G04 #@! TD.AperFunction*
G04 #@! TA.AperFunction,SMDPad,CuDef*
G36*
G01*
X94865000Y-51630000D02*
X94495000Y-51630000D01*
G75*
G02*
X94360000Y-51495000I0J135000D01*
G01*
X94360000Y-51225000D01*
G75*
G02*
X94495000Y-51090000I135000J0D01*
G01*
X94865000Y-51090000D01*
G75*
G02*
X95000000Y-51225000I0J-135000D01*
G01*
X95000000Y-51495000D01*
G75*
G02*
X94865000Y-51630000I-135000J0D01*
G01*
G37*
G04 #@! TD.AperFunction*
G04 #@! TA.AperFunction,SMDPad,CuDef*
G36*
G01*
X94865000Y-48610000D02*
X94495000Y-48610000D01*
G75*
G02*
X94360000Y-48475000I0J135000D01*
G01*
X94360000Y-48205000D01*
G75*
G02*
X94495000Y-48070000I135000J0D01*
G01*
X94865000Y-48070000D01*
G75*
G02*
X95000000Y-48205000I0J-135000D01*
G01*
X95000000Y-48475000D01*
G75*
G02*
X94865000Y-48610000I-135000J0D01*
G01*
G37*
G04 #@! TD.AperFunction*
G04 #@! TA.AperFunction,SMDPad,CuDef*
G36*
G01*
X94865000Y-49630000D02*
X94495000Y-49630000D01*
G75*
G02*
X94360000Y-49495000I0J135000D01*
G01*
X94360000Y-49225000D01*
G75*
G02*
X94495000Y-49090000I135000J0D01*
G01*
X94865000Y-49090000D01*
G75*
G02*
X95000000Y-49225000I0J-135000D01*
G01*
X95000000Y-49495000D01*
G75*
G02*
X94865000Y-49630000I-135000J0D01*
G01*
G37*
G04 #@! TD.AperFunction*
G04 #@! TA.AperFunction,SMDPad,CuDef*
G36*
G01*
X84940000Y-54565000D02*
X84940000Y-54195000D01*
G75*
G02*
X85075000Y-54060000I135000J0D01*
G01*
X85345000Y-54060000D01*
G75*
G02*
X85480000Y-54195000I0J-135000D01*
G01*
X85480000Y-54565000D01*
G75*
G02*
X85345000Y-54700000I-135000J0D01*
G01*
X85075000Y-54700000D01*
G75*
G02*
X84940000Y-54565000I0J135000D01*
G01*
G37*
G04 #@! TD.AperFunction*
G04 #@! TA.AperFunction,SMDPad,CuDef*
G36*
G01*
X83920000Y-54565000D02*
X83920000Y-54195000D01*
G75*
G02*
X84055000Y-54060000I135000J0D01*
G01*
X84325000Y-54060000D01*
G75*
G02*
X84460000Y-54195000I0J-135000D01*
G01*
X84460000Y-54565000D01*
G75*
G02*
X84325000Y-54700000I-135000J0D01*
G01*
X84055000Y-54700000D01*
G75*
G02*
X83920000Y-54565000I0J135000D01*
G01*
G37*
G04 #@! TD.AperFunction*
G04 #@! TA.AperFunction,SMDPad,CuDef*
G36*
G01*
X83365000Y-57785000D02*
X83365000Y-57235000D01*
G75*
G02*
X83565000Y-57035000I200000J0D01*
G01*
X83965000Y-57035000D01*
G75*
G02*
X84165000Y-57235000I0J-200000D01*
G01*
X84165000Y-57785000D01*
G75*
G02*
X83965000Y-57985000I-200000J0D01*
G01*
X83565000Y-57985000D01*
G75*
G02*
X83365000Y-57785000I0J200000D01*
G01*
G37*
G04 #@! TD.AperFunction*
G04 #@! TA.AperFunction,SMDPad,CuDef*
G36*
G01*
X81715000Y-57785000D02*
X81715000Y-57235000D01*
G75*
G02*
X81915000Y-57035000I200000J0D01*
G01*
X82315000Y-57035000D01*
G75*
G02*
X82515000Y-57235000I0J-200000D01*
G01*
X82515000Y-57785000D01*
G75*
G02*
X82315000Y-57985000I-200000J0D01*
G01*
X81915000Y-57985000D01*
G75*
G02*
X81715000Y-57785000I0J200000D01*
G01*
G37*
G04 #@! TD.AperFunction*
G04 #@! TA.AperFunction,SMDPad,CuDef*
G36*
G01*
X96395000Y-58195000D02*
X96395000Y-58745000D01*
G75*
G02*
X96195000Y-58945000I-200000J0D01*
G01*
X95795000Y-58945000D01*
G75*
G02*
X95595000Y-58745000I0J200000D01*
G01*
X95595000Y-58195000D01*
G75*
G02*
X95795000Y-57995000I200000J0D01*
G01*
X96195000Y-57995000D01*
G75*
G02*
X96395000Y-58195000I0J-200000D01*
G01*
G37*
G04 #@! TD.AperFunction*
G04 #@! TA.AperFunction,SMDPad,CuDef*
G36*
G01*
X98045000Y-58195000D02*
X98045000Y-58745000D01*
G75*
G02*
X97845000Y-58945000I-200000J0D01*
G01*
X97445000Y-58945000D01*
G75*
G02*
X97245000Y-58745000I0J200000D01*
G01*
X97245000Y-58195000D01*
G75*
G02*
X97445000Y-57995000I200000J0D01*
G01*
X97845000Y-57995000D01*
G75*
G02*
X98045000Y-58195000I0J-200000D01*
G01*
G37*
G04 #@! TD.AperFunction*
G04 #@! TA.AperFunction,SMDPad,CuDef*
G36*
G01*
X104125000Y-54185000D02*
X104125000Y-53635000D01*
G75*
G02*
X104325000Y-53435000I200000J0D01*
G01*
X104725000Y-53435000D01*
G75*
G02*
X104925000Y-53635000I0J-200000D01*
G01*
X104925000Y-54185000D01*
G75*
G02*
X104725000Y-54385000I-200000J0D01*
G01*
X104325000Y-54385000D01*
G75*
G02*
X104125000Y-54185000I0J200000D01*
G01*
G37*
G04 #@! TD.AperFunction*
G04 #@! TA.AperFunction,SMDPad,CuDef*
G36*
G01*
X102475000Y-54185000D02*
X102475000Y-53635000D01*
G75*
G02*
X102675000Y-53435000I200000J0D01*
G01*
X103075000Y-53435000D01*
G75*
G02*
X103275000Y-53635000I0J-200000D01*
G01*
X103275000Y-54185000D01*
G75*
G02*
X103075000Y-54385000I-200000J0D01*
G01*
X102675000Y-54385000D01*
G75*
G02*
X102475000Y-54185000I0J200000D01*
G01*
G37*
G04 #@! TD.AperFunction*
G04 #@! TA.AperFunction,SMDPad,CuDef*
G36*
G01*
X63175000Y-43125000D02*
X63725000Y-43125000D01*
G75*
G02*
X63925000Y-43325000I0J-200000D01*
G01*
X63925000Y-43725000D01*
G75*
G02*
X63725000Y-43925000I-200000J0D01*
G01*
X63175000Y-43925000D01*
G75*
G02*
X62975000Y-43725000I0J200000D01*
G01*
X62975000Y-43325000D01*
G75*
G02*
X63175000Y-43125000I200000J0D01*
G01*
G37*
G04 #@! TD.AperFunction*
G04 #@! TA.AperFunction,SMDPad,CuDef*
G36*
G01*
X63175000Y-44775000D02*
X63725000Y-44775000D01*
G75*
G02*
X63925000Y-44975000I0J-200000D01*
G01*
X63925000Y-45375000D01*
G75*
G02*
X63725000Y-45575000I-200000J0D01*
G01*
X63175000Y-45575000D01*
G75*
G02*
X62975000Y-45375000I0J200000D01*
G01*
X62975000Y-44975000D01*
G75*
G02*
X63175000Y-44775000I200000J0D01*
G01*
G37*
G04 #@! TD.AperFunction*
G04 #@! TA.AperFunction,SMDPad,CuDef*
G36*
G01*
X81765000Y-42755000D02*
X81765000Y-42205000D01*
G75*
G02*
X81965000Y-42005000I200000J0D01*
G01*
X82365000Y-42005000D01*
G75*
G02*
X82565000Y-42205000I0J-200000D01*
G01*
X82565000Y-42755000D01*
G75*
G02*
X82365000Y-42955000I-200000J0D01*
G01*
X81965000Y-42955000D01*
G75*
G02*
X81765000Y-42755000I0J200000D01*
G01*
G37*
G04 #@! TD.AperFunction*
G04 #@! TA.AperFunction,SMDPad,CuDef*
G36*
G01*
X80115000Y-42755000D02*
X80115000Y-42205000D01*
G75*
G02*
X80315000Y-42005000I200000J0D01*
G01*
X80715000Y-42005000D01*
G75*
G02*
X80915000Y-42205000I0J-200000D01*
G01*
X80915000Y-42755000D01*
G75*
G02*
X80715000Y-42955000I-200000J0D01*
G01*
X80315000Y-42955000D01*
G75*
G02*
X80115000Y-42755000I0J200000D01*
G01*
G37*
G04 #@! TD.AperFunction*
D13*
X87040000Y-43970000D03*
D14*
X89440300Y-42969999D03*
X89440300Y-43470001D03*
X89440300Y-43970000D03*
X89440300Y-44469999D03*
X89440300Y-44970001D03*
D15*
X88540000Y-45875000D03*
X88040001Y-45875000D03*
X87539999Y-45875000D03*
X87040000Y-45875000D03*
X86540001Y-45875000D03*
X86039999Y-45875000D03*
X85540000Y-45875000D03*
D14*
X84639700Y-44970001D03*
X84639700Y-44469999D03*
X84639700Y-43970000D03*
X84639700Y-43470001D03*
X84639700Y-42969999D03*
D15*
X85540000Y-42065000D03*
X86039999Y-42065000D03*
X86540001Y-42065000D03*
X87040000Y-42065000D03*
X87539999Y-42065000D03*
X88040001Y-42065000D03*
X88540000Y-42065000D03*
G04 #@! TA.AperFunction,SMDPad,CuDef*
G36*
G01*
X93530000Y-49640000D02*
X93190000Y-49640000D01*
G75*
G02*
X93050000Y-49500000I0J140000D01*
G01*
X93050000Y-49220000D01*
G75*
G02*
X93190000Y-49080000I140000J0D01*
G01*
X93530000Y-49080000D01*
G75*
G02*
X93670000Y-49220000I0J-140000D01*
G01*
X93670000Y-49500000D01*
G75*
G02*
X93530000Y-49640000I-140000J0D01*
G01*
G37*
G04 #@! TD.AperFunction*
G04 #@! TA.AperFunction,SMDPad,CuDef*
G36*
G01*
X93530000Y-50600000D02*
X93190000Y-50600000D01*
G75*
G02*
X93050000Y-50460000I0J140000D01*
G01*
X93050000Y-50180000D01*
G75*
G02*
X93190000Y-50040000I140000J0D01*
G01*
X93530000Y-50040000D01*
G75*
G02*
X93670000Y-50180000I0J-140000D01*
G01*
X93670000Y-50460000D01*
G75*
G02*
X93530000Y-50600000I-140000J0D01*
G01*
G37*
G04 #@! TD.AperFunction*
G04 #@! TA.AperFunction,SMDPad,CuDef*
G36*
G01*
X91470000Y-50720000D02*
X91470000Y-51060000D01*
G75*
G02*
X91330000Y-51200000I-140000J0D01*
G01*
X91050000Y-51200000D01*
G75*
G02*
X90910000Y-51060000I0J140000D01*
G01*
X90910000Y-50720000D01*
G75*
G02*
X91050000Y-50580000I140000J0D01*
G01*
X91330000Y-50580000D01*
G75*
G02*
X91470000Y-50720000I0J-140000D01*
G01*
G37*
G04 #@! TD.AperFunction*
G04 #@! TA.AperFunction,SMDPad,CuDef*
G36*
G01*
X92430000Y-50720000D02*
X92430000Y-51060000D01*
G75*
G02*
X92290000Y-51200000I-140000J0D01*
G01*
X92010000Y-51200000D01*
G75*
G02*
X91870000Y-51060000I0J140000D01*
G01*
X91870000Y-50720000D01*
G75*
G02*
X92010000Y-50580000I140000J0D01*
G01*
X92290000Y-50580000D01*
G75*
G02*
X92430000Y-50720000I0J-140000D01*
G01*
G37*
G04 #@! TD.AperFunction*
G04 #@! TA.AperFunction,SMDPad,CuDef*
G36*
G01*
X91470000Y-48580000D02*
X91470000Y-48920000D01*
G75*
G02*
X91330000Y-49060000I-140000J0D01*
G01*
X91050000Y-49060000D01*
G75*
G02*
X90910000Y-48920000I0J140000D01*
G01*
X90910000Y-48580000D01*
G75*
G02*
X91050000Y-48440000I140000J0D01*
G01*
X91330000Y-48440000D01*
G75*
G02*
X91470000Y-48580000I0J-140000D01*
G01*
G37*
G04 #@! TD.AperFunction*
G04 #@! TA.AperFunction,SMDPad,CuDef*
G36*
G01*
X92430000Y-48580000D02*
X92430000Y-48920000D01*
G75*
G02*
X92290000Y-49060000I-140000J0D01*
G01*
X92010000Y-49060000D01*
G75*
G02*
X91870000Y-48920000I0J140000D01*
G01*
X91870000Y-48580000D01*
G75*
G02*
X92010000Y-48440000I140000J0D01*
G01*
X92290000Y-48440000D01*
G75*
G02*
X92430000Y-48580000I0J-140000D01*
G01*
G37*
G04 #@! TD.AperFunction*
G04 #@! TA.AperFunction,SMDPad,CuDef*
G36*
G01*
X84220000Y-52320000D02*
X83880000Y-52320000D01*
G75*
G02*
X83740000Y-52180000I0J140000D01*
G01*
X83740000Y-51900000D01*
G75*
G02*
X83880000Y-51760000I140000J0D01*
G01*
X84220000Y-51760000D01*
G75*
G02*
X84360000Y-51900000I0J-140000D01*
G01*
X84360000Y-52180000D01*
G75*
G02*
X84220000Y-52320000I-140000J0D01*
G01*
G37*
G04 #@! TD.AperFunction*
G04 #@! TA.AperFunction,SMDPad,CuDef*
G36*
G01*
X84220000Y-53280000D02*
X83880000Y-53280000D01*
G75*
G02*
X83740000Y-53140000I0J140000D01*
G01*
X83740000Y-52860000D01*
G75*
G02*
X83880000Y-52720000I140000J0D01*
G01*
X84220000Y-52720000D01*
G75*
G02*
X84360000Y-52860000I0J-140000D01*
G01*
X84360000Y-53140000D01*
G75*
G02*
X84220000Y-53280000I-140000J0D01*
G01*
G37*
G04 #@! TD.AperFunction*
G04 #@! TA.AperFunction,SMDPad,CuDef*
G36*
G01*
X85720000Y-52310000D02*
X85380000Y-52310000D01*
G75*
G02*
X85240000Y-52170000I0J140000D01*
G01*
X85240000Y-51890000D01*
G75*
G02*
X85380000Y-51750000I140000J0D01*
G01*
X85720000Y-51750000D01*
G75*
G02*
X85860000Y-51890000I0J-140000D01*
G01*
X85860000Y-52170000D01*
G75*
G02*
X85720000Y-52310000I-140000J0D01*
G01*
G37*
G04 #@! TD.AperFunction*
G04 #@! TA.AperFunction,SMDPad,CuDef*
G36*
G01*
X85720000Y-53270000D02*
X85380000Y-53270000D01*
G75*
G02*
X85240000Y-53130000I0J140000D01*
G01*
X85240000Y-52850000D01*
G75*
G02*
X85380000Y-52710000I140000J0D01*
G01*
X85720000Y-52710000D01*
G75*
G02*
X85860000Y-52850000I0J-140000D01*
G01*
X85860000Y-53130000D01*
G75*
G02*
X85720000Y-53270000I-140000J0D01*
G01*
G37*
G04 #@! TD.AperFunction*
G04 #@! TA.AperFunction,SMDPad,CuDef*
G36*
G01*
X80835000Y-49570000D02*
X80835000Y-49070000D01*
G75*
G02*
X81060000Y-48845000I225000J0D01*
G01*
X81510000Y-48845000D01*
G75*
G02*
X81735000Y-49070000I0J-225000D01*
G01*
X81735000Y-49570000D01*
G75*
G02*
X81510000Y-49795000I-225000J0D01*
G01*
X81060000Y-49795000D01*
G75*
G02*
X80835000Y-49570000I0J225000D01*
G01*
G37*
G04 #@! TD.AperFunction*
G04 #@! TA.AperFunction,SMDPad,CuDef*
G36*
G01*
X79285000Y-49570000D02*
X79285000Y-49070000D01*
G75*
G02*
X79510000Y-48845000I225000J0D01*
G01*
X79960000Y-48845000D01*
G75*
G02*
X80185000Y-49070000I0J-225000D01*
G01*
X80185000Y-49570000D01*
G75*
G02*
X79960000Y-49795000I-225000J0D01*
G01*
X79510000Y-49795000D01*
G75*
G02*
X79285000Y-49570000I0J225000D01*
G01*
G37*
G04 #@! TD.AperFunction*
G04 #@! TA.AperFunction,SMDPad,CuDef*
G36*
G01*
X92225000Y-46070000D02*
X92225000Y-46570000D01*
G75*
G02*
X92000000Y-46795000I-225000J0D01*
G01*
X91550000Y-46795000D01*
G75*
G02*
X91325000Y-46570000I0J225000D01*
G01*
X91325000Y-46070000D01*
G75*
G02*
X91550000Y-45845000I225000J0D01*
G01*
X92000000Y-45845000D01*
G75*
G02*
X92225000Y-46070000I0J-225000D01*
G01*
G37*
G04 #@! TD.AperFunction*
G04 #@! TA.AperFunction,SMDPad,CuDef*
G36*
G01*
X93775000Y-46070000D02*
X93775000Y-46570000D01*
G75*
G02*
X93550000Y-46795000I-225000J0D01*
G01*
X93100000Y-46795000D01*
G75*
G02*
X92875000Y-46570000I0J225000D01*
G01*
X92875000Y-46070000D01*
G75*
G02*
X93100000Y-45845000I225000J0D01*
G01*
X93550000Y-45845000D01*
G75*
G02*
X93775000Y-46070000I0J-225000D01*
G01*
G37*
G04 #@! TD.AperFunction*
G04 #@! TA.AperFunction,SMDPad,CuDef*
G36*
G01*
X77870000Y-45475000D02*
X77370000Y-45475000D01*
G75*
G02*
X77145000Y-45250000I0J225000D01*
G01*
X77145000Y-44800000D01*
G75*
G02*
X77370000Y-44575000I225000J0D01*
G01*
X77870000Y-44575000D01*
G75*
G02*
X78095000Y-44800000I0J-225000D01*
G01*
X78095000Y-45250000D01*
G75*
G02*
X77870000Y-45475000I-225000J0D01*
G01*
G37*
G04 #@! TD.AperFunction*
G04 #@! TA.AperFunction,SMDPad,CuDef*
G36*
G01*
X77870000Y-47025000D02*
X77370000Y-47025000D01*
G75*
G02*
X77145000Y-46800000I0J225000D01*
G01*
X77145000Y-46350000D01*
G75*
G02*
X77370000Y-46125000I225000J0D01*
G01*
X77870000Y-46125000D01*
G75*
G02*
X78095000Y-46350000I0J-225000D01*
G01*
X78095000Y-46800000D01*
G75*
G02*
X77870000Y-47025000I-225000J0D01*
G01*
G37*
G04 #@! TD.AperFunction*
G04 #@! TA.AperFunction,SMDPad,CuDef*
G36*
G01*
X83545000Y-40670000D02*
X83545000Y-40170000D01*
G75*
G02*
X83770000Y-39945000I225000J0D01*
G01*
X84220000Y-39945000D01*
G75*
G02*
X84445000Y-40170000I0J-225000D01*
G01*
X84445000Y-40670000D01*
G75*
G02*
X84220000Y-40895000I-225000J0D01*
G01*
X83770000Y-40895000D01*
G75*
G02*
X83545000Y-40670000I0J225000D01*
G01*
G37*
G04 #@! TD.AperFunction*
G04 #@! TA.AperFunction,SMDPad,CuDef*
G36*
G01*
X81995000Y-40670000D02*
X81995000Y-40170000D01*
G75*
G02*
X82220000Y-39945000I225000J0D01*
G01*
X82670000Y-39945000D01*
G75*
G02*
X82895000Y-40170000I0J-225000D01*
G01*
X82895000Y-40670000D01*
G75*
G02*
X82670000Y-40895000I-225000J0D01*
G01*
X82220000Y-40895000D01*
G75*
G02*
X81995000Y-40670000I0J225000D01*
G01*
G37*
G04 #@! TD.AperFunction*
G04 #@! TA.AperFunction,SMDPad,CuDef*
G36*
G01*
X87290000Y-48935000D02*
X86790000Y-48935000D01*
G75*
G02*
X86565000Y-48710000I0J225000D01*
G01*
X86565000Y-48260000D01*
G75*
G02*
X86790000Y-48035000I225000J0D01*
G01*
X87290000Y-48035000D01*
G75*
G02*
X87515000Y-48260000I0J-225000D01*
G01*
X87515000Y-48710000D01*
G75*
G02*
X87290000Y-48935000I-225000J0D01*
G01*
G37*
G04 #@! TD.AperFunction*
G04 #@! TA.AperFunction,SMDPad,CuDef*
G36*
G01*
X87290000Y-50485000D02*
X86790000Y-50485000D01*
G75*
G02*
X86565000Y-50260000I0J225000D01*
G01*
X86565000Y-49810000D01*
G75*
G02*
X86790000Y-49585000I225000J0D01*
G01*
X87290000Y-49585000D01*
G75*
G02*
X87515000Y-49810000I0J-225000D01*
G01*
X87515000Y-50260000D01*
G75*
G02*
X87290000Y-50485000I-225000J0D01*
G01*
G37*
G04 #@! TD.AperFunction*
G04 #@! TA.AperFunction,SMDPad,CuDef*
G36*
G01*
X91380000Y-42700000D02*
X91720000Y-42700000D01*
G75*
G02*
X91860000Y-42840000I0J-140000D01*
G01*
X91860000Y-43120000D01*
G75*
G02*
X91720000Y-43260000I-140000J0D01*
G01*
X91380000Y-43260000D01*
G75*
G02*
X91240000Y-43120000I0J140000D01*
G01*
X91240000Y-42840000D01*
G75*
G02*
X91380000Y-42700000I140000J0D01*
G01*
G37*
G04 #@! TD.AperFunction*
G04 #@! TA.AperFunction,SMDPad,CuDef*
G36*
G01*
X91380000Y-41740000D02*
X91720000Y-41740000D01*
G75*
G02*
X91860000Y-41880000I0J-140000D01*
G01*
X91860000Y-42160000D01*
G75*
G02*
X91720000Y-42300000I-140000J0D01*
G01*
X91380000Y-42300000D01*
G75*
G02*
X91240000Y-42160000I0J140000D01*
G01*
X91240000Y-41880000D01*
G75*
G02*
X91380000Y-41740000I140000J0D01*
G01*
G37*
G04 #@! TD.AperFunction*
D16*
X69510000Y-44080000D03*
D17*
X75010000Y-42930000D03*
D16*
X69510000Y-41780000D03*
G04 #@! TA.AperFunction,SMDPad,CuDef*
G36*
G01*
X66525000Y-45585000D02*
X65975000Y-45585000D01*
G75*
G02*
X65775000Y-45385000I0J200000D01*
G01*
X65775000Y-44985000D01*
G75*
G02*
X65975000Y-44785000I200000J0D01*
G01*
X66525000Y-44785000D01*
G75*
G02*
X66725000Y-44985000I0J-200000D01*
G01*
X66725000Y-45385000D01*
G75*
G02*
X66525000Y-45585000I-200000J0D01*
G01*
G37*
G04 #@! TD.AperFunction*
G04 #@! TA.AperFunction,SMDPad,CuDef*
G36*
G01*
X66525000Y-43935000D02*
X65975000Y-43935000D01*
G75*
G02*
X65775000Y-43735000I0J200000D01*
G01*
X65775000Y-43335000D01*
G75*
G02*
X65975000Y-43135000I200000J0D01*
G01*
X66525000Y-43135000D01*
G75*
G02*
X66725000Y-43335000I0J-200000D01*
G01*
X66725000Y-43735000D01*
G75*
G02*
X66525000Y-43935000I-200000J0D01*
G01*
G37*
G04 #@! TD.AperFunction*
G04 #@! TA.AperFunction,SMDPad,CuDef*
G36*
G01*
X78470000Y-39240000D02*
X78840000Y-39240000D01*
G75*
G02*
X78975000Y-39375000I0J-135000D01*
G01*
X78975000Y-39645000D01*
G75*
G02*
X78840000Y-39780000I-135000J0D01*
G01*
X78470000Y-39780000D01*
G75*
G02*
X78335000Y-39645000I0J135000D01*
G01*
X78335000Y-39375000D01*
G75*
G02*
X78470000Y-39240000I135000J0D01*
G01*
G37*
G04 #@! TD.AperFunction*
G04 #@! TA.AperFunction,SMDPad,CuDef*
G36*
G01*
X78470000Y-38220000D02*
X78840000Y-38220000D01*
G75*
G02*
X78975000Y-38355000I0J-135000D01*
G01*
X78975000Y-38625000D01*
G75*
G02*
X78840000Y-38760000I-135000J0D01*
G01*
X78470000Y-38760000D01*
G75*
G02*
X78335000Y-38625000I0J135000D01*
G01*
X78335000Y-38355000D01*
G75*
G02*
X78470000Y-38220000I135000J0D01*
G01*
G37*
G04 #@! TD.AperFunction*
G04 #@! TA.AperFunction,SMDPad,CuDef*
G36*
G01*
X109666250Y-30330000D02*
X109153750Y-30330000D01*
G75*
G02*
X108935000Y-30111250I0J218750D01*
G01*
X108935000Y-29673750D01*
G75*
G02*
X109153750Y-29455000I218750J0D01*
G01*
X109666250Y-29455000D01*
G75*
G02*
X109885000Y-29673750I0J-218750D01*
G01*
X109885000Y-30111250D01*
G75*
G02*
X109666250Y-30330000I-218750J0D01*
G01*
G37*
G04 #@! TD.AperFunction*
G04 #@! TA.AperFunction,SMDPad,CuDef*
G36*
G01*
X109666250Y-31905000D02*
X109153750Y-31905000D01*
G75*
G02*
X108935000Y-31686250I0J218750D01*
G01*
X108935000Y-31248750D01*
G75*
G02*
X109153750Y-31030000I218750J0D01*
G01*
X109666250Y-31030000D01*
G75*
G02*
X109885000Y-31248750I0J-218750D01*
G01*
X109885000Y-31686250D01*
G75*
G02*
X109666250Y-31905000I-218750J0D01*
G01*
G37*
G04 #@! TD.AperFunction*
G04 #@! TA.AperFunction,SMDPad,CuDef*
G36*
G01*
X107530000Y-31015000D02*
X108030000Y-31015000D01*
G75*
G02*
X108255000Y-31240000I0J-225000D01*
G01*
X108255000Y-31690000D01*
G75*
G02*
X108030000Y-31915000I-225000J0D01*
G01*
X107530000Y-31915000D01*
G75*
G02*
X107305000Y-31690000I0J225000D01*
G01*
X107305000Y-31240000D01*
G75*
G02*
X107530000Y-31015000I225000J0D01*
G01*
G37*
G04 #@! TD.AperFunction*
G04 #@! TA.AperFunction,SMDPad,CuDef*
G36*
G01*
X107530000Y-29465000D02*
X108030000Y-29465000D01*
G75*
G02*
X108255000Y-29690000I0J-225000D01*
G01*
X108255000Y-30140000D01*
G75*
G02*
X108030000Y-30365000I-225000J0D01*
G01*
X107530000Y-30365000D01*
G75*
G02*
X107305000Y-30140000I0J225000D01*
G01*
X107305000Y-29690000D01*
G75*
G02*
X107530000Y-29465000I225000J0D01*
G01*
G37*
G04 #@! TD.AperFunction*
G04 #@! TA.AperFunction,SMDPad,CuDef*
G36*
G01*
X111410000Y-30355000D02*
X110910000Y-30355000D01*
G75*
G02*
X110685000Y-30130000I0J225000D01*
G01*
X110685000Y-29680000D01*
G75*
G02*
X110910000Y-29455000I225000J0D01*
G01*
X111410000Y-29455000D01*
G75*
G02*
X111635000Y-29680000I0J-225000D01*
G01*
X111635000Y-30130000D01*
G75*
G02*
X111410000Y-30355000I-225000J0D01*
G01*
G37*
G04 #@! TD.AperFunction*
G04 #@! TA.AperFunction,SMDPad,CuDef*
G36*
G01*
X111410000Y-31905000D02*
X110910000Y-31905000D01*
G75*
G02*
X110685000Y-31680000I0J225000D01*
G01*
X110685000Y-31230000D01*
G75*
G02*
X110910000Y-31005000I225000J0D01*
G01*
X111410000Y-31005000D01*
G75*
G02*
X111635000Y-31230000I0J-225000D01*
G01*
X111635000Y-31680000D01*
G75*
G02*
X111410000Y-31905000I-225000J0D01*
G01*
G37*
G04 #@! TD.AperFunction*
D18*
X77630000Y-34200000D03*
D19*
X76655000Y-32250000D03*
X77305000Y-32250000D03*
X77955000Y-32250000D03*
X78605000Y-32250000D03*
D20*
X79580000Y-33225000D03*
X79580000Y-33875000D03*
X79580000Y-34525000D03*
X79580000Y-35175000D03*
D19*
X78605000Y-36150000D03*
X77955000Y-36150000D03*
X77305000Y-36150000D03*
X76655000Y-36150000D03*
D20*
X75680000Y-35175000D03*
X75680000Y-34525000D03*
X75680000Y-33875000D03*
X75680000Y-33225000D03*
G04 #@! TA.AperFunction,SMDPad,CuDef*
G36*
G01*
X87730000Y-36310000D02*
X87390000Y-36310000D01*
G75*
G02*
X87250000Y-36170000I0J140000D01*
G01*
X87250000Y-35890000D01*
G75*
G02*
X87390000Y-35750000I140000J0D01*
G01*
X87730000Y-35750000D01*
G75*
G02*
X87870000Y-35890000I0J-140000D01*
G01*
X87870000Y-36170000D01*
G75*
G02*
X87730000Y-36310000I-140000J0D01*
G01*
G37*
G04 #@! TD.AperFunction*
G04 #@! TA.AperFunction,SMDPad,CuDef*
G36*
G01*
X87730000Y-37270000D02*
X87390000Y-37270000D01*
G75*
G02*
X87250000Y-37130000I0J140000D01*
G01*
X87250000Y-36850000D01*
G75*
G02*
X87390000Y-36710000I140000J0D01*
G01*
X87730000Y-36710000D01*
G75*
G02*
X87870000Y-36850000I0J-140000D01*
G01*
X87870000Y-37130000D01*
G75*
G02*
X87730000Y-37270000I-140000J0D01*
G01*
G37*
G04 #@! TD.AperFunction*
G04 #@! TA.AperFunction,SMDPad,CuDef*
G36*
G01*
X104300000Y-49295000D02*
X104300000Y-49665000D01*
G75*
G02*
X104165000Y-49800000I-135000J0D01*
G01*
X103895000Y-49800000D01*
G75*
G02*
X103760000Y-49665000I0J135000D01*
G01*
X103760000Y-49295000D01*
G75*
G02*
X103895000Y-49160000I135000J0D01*
G01*
X104165000Y-49160000D01*
G75*
G02*
X104300000Y-49295000I0J-135000D01*
G01*
G37*
G04 #@! TD.AperFunction*
G04 #@! TA.AperFunction,SMDPad,CuDef*
G36*
G01*
X105320000Y-49295000D02*
X105320000Y-49665000D01*
G75*
G02*
X105185000Y-49800000I-135000J0D01*
G01*
X104915000Y-49800000D01*
G75*
G02*
X104780000Y-49665000I0J135000D01*
G01*
X104780000Y-49295000D01*
G75*
G02*
X104915000Y-49160000I135000J0D01*
G01*
X105185000Y-49160000D01*
G75*
G02*
X105320000Y-49295000I0J-135000D01*
G01*
G37*
G04 #@! TD.AperFunction*
G04 #@! TA.AperFunction,SMDPad,CuDef*
G36*
G01*
X102885000Y-48730000D02*
X102515000Y-48730000D01*
G75*
G02*
X102380000Y-48595000I0J135000D01*
G01*
X102380000Y-48325000D01*
G75*
G02*
X102515000Y-48190000I135000J0D01*
G01*
X102885000Y-48190000D01*
G75*
G02*
X103020000Y-48325000I0J-135000D01*
G01*
X103020000Y-48595000D01*
G75*
G02*
X102885000Y-48730000I-135000J0D01*
G01*
G37*
G04 #@! TD.AperFunction*
G04 #@! TA.AperFunction,SMDPad,CuDef*
G36*
G01*
X102885000Y-49750000D02*
X102515000Y-49750000D01*
G75*
G02*
X102380000Y-49615000I0J135000D01*
G01*
X102380000Y-49345000D01*
G75*
G02*
X102515000Y-49210000I135000J0D01*
G01*
X102885000Y-49210000D01*
G75*
G02*
X103020000Y-49345000I0J-135000D01*
G01*
X103020000Y-49615000D01*
G75*
G02*
X102885000Y-49750000I-135000J0D01*
G01*
G37*
G04 #@! TD.AperFunction*
G04 #@! TA.AperFunction,SMDPad,CuDef*
G36*
G01*
X104980000Y-52005000D02*
X104980000Y-51635000D01*
G75*
G02*
X105115000Y-51500000I135000J0D01*
G01*
X105385000Y-51500000D01*
G75*
G02*
X105520000Y-51635000I0J-135000D01*
G01*
X105520000Y-52005000D01*
G75*
G02*
X105385000Y-52140000I-135000J0D01*
G01*
X105115000Y-52140000D01*
G75*
G02*
X104980000Y-52005000I0J135000D01*
G01*
G37*
G04 #@! TD.AperFunction*
G04 #@! TA.AperFunction,SMDPad,CuDef*
G36*
G01*
X103960000Y-52005000D02*
X103960000Y-51635000D01*
G75*
G02*
X104095000Y-51500000I135000J0D01*
G01*
X104365000Y-51500000D01*
G75*
G02*
X104500000Y-51635000I0J-135000D01*
G01*
X104500000Y-52005000D01*
G75*
G02*
X104365000Y-52140000I-135000J0D01*
G01*
X104095000Y-52140000D01*
G75*
G02*
X103960000Y-52005000I0J135000D01*
G01*
G37*
G04 #@! TD.AperFunction*
G04 #@! TA.AperFunction,SMDPad,CuDef*
G36*
G01*
X102515000Y-51350000D02*
X102885000Y-51350000D01*
G75*
G02*
X103020000Y-51485000I0J-135000D01*
G01*
X103020000Y-51755000D01*
G75*
G02*
X102885000Y-51890000I-135000J0D01*
G01*
X102515000Y-51890000D01*
G75*
G02*
X102380000Y-51755000I0J135000D01*
G01*
X102380000Y-51485000D01*
G75*
G02*
X102515000Y-51350000I135000J0D01*
G01*
G37*
G04 #@! TD.AperFunction*
G04 #@! TA.AperFunction,SMDPad,CuDef*
G36*
G01*
X102515000Y-50330000D02*
X102885000Y-50330000D01*
G75*
G02*
X103020000Y-50465000I0J-135000D01*
G01*
X103020000Y-50735000D01*
G75*
G02*
X102885000Y-50870000I-135000J0D01*
G01*
X102515000Y-50870000D01*
G75*
G02*
X102380000Y-50735000I0J135000D01*
G01*
X102380000Y-50465000D01*
G75*
G02*
X102515000Y-50330000I135000J0D01*
G01*
G37*
G04 #@! TD.AperFunction*
G04 #@! TA.AperFunction,SMDPad,CuDef*
G36*
G01*
X104730000Y-48542500D02*
X104730000Y-48197500D01*
G75*
G02*
X104877500Y-48050000I147500J0D01*
G01*
X105172500Y-48050000D01*
G75*
G02*
X105320000Y-48197500I0J-147500D01*
G01*
X105320000Y-48542500D01*
G75*
G02*
X105172500Y-48690000I-147500J0D01*
G01*
X104877500Y-48690000D01*
G75*
G02*
X104730000Y-48542500I0J147500D01*
G01*
G37*
G04 #@! TD.AperFunction*
G04 #@! TA.AperFunction,SMDPad,CuDef*
G36*
G01*
X103760000Y-48542500D02*
X103760000Y-48197500D01*
G75*
G02*
X103907500Y-48050000I147500J0D01*
G01*
X104202500Y-48050000D01*
G75*
G02*
X104350000Y-48197500I0J-147500D01*
G01*
X104350000Y-48542500D01*
G75*
G02*
X104202500Y-48690000I-147500J0D01*
G01*
X103907500Y-48690000D01*
G75*
G02*
X103760000Y-48542500I0J147500D01*
G01*
G37*
G04 #@! TD.AperFunction*
G04 #@! TA.AperFunction,SMDPad,CuDef*
G36*
G01*
X104980000Y-50820000D02*
X104980000Y-50480000D01*
G75*
G02*
X105120000Y-50340000I140000J0D01*
G01*
X105400000Y-50340000D01*
G75*
G02*
X105540000Y-50480000I0J-140000D01*
G01*
X105540000Y-50820000D01*
G75*
G02*
X105400000Y-50960000I-140000J0D01*
G01*
X105120000Y-50960000D01*
G75*
G02*
X104980000Y-50820000I0J140000D01*
G01*
G37*
G04 #@! TD.AperFunction*
G04 #@! TA.AperFunction,SMDPad,CuDef*
G36*
G01*
X104020000Y-50820000D02*
X104020000Y-50480000D01*
G75*
G02*
X104160000Y-50340000I140000J0D01*
G01*
X104440000Y-50340000D01*
G75*
G02*
X104580000Y-50480000I0J-140000D01*
G01*
X104580000Y-50820000D01*
G75*
G02*
X104440000Y-50960000I-140000J0D01*
G01*
X104160000Y-50960000D01*
G75*
G02*
X104020000Y-50820000I0J140000D01*
G01*
G37*
G04 #@! TD.AperFunction*
G04 #@! TA.AperFunction,SMDPad,CuDef*
G36*
G01*
X106930000Y-49650000D02*
X106930000Y-49310000D01*
G75*
G02*
X107070000Y-49170000I140000J0D01*
G01*
X107350000Y-49170000D01*
G75*
G02*
X107490000Y-49310000I0J-140000D01*
G01*
X107490000Y-49650000D01*
G75*
G02*
X107350000Y-49790000I-140000J0D01*
G01*
X107070000Y-49790000D01*
G75*
G02*
X106930000Y-49650000I0J140000D01*
G01*
G37*
G04 #@! TD.AperFunction*
G04 #@! TA.AperFunction,SMDPad,CuDef*
G36*
G01*
X105970000Y-49650000D02*
X105970000Y-49310000D01*
G75*
G02*
X106110000Y-49170000I140000J0D01*
G01*
X106390000Y-49170000D01*
G75*
G02*
X106530000Y-49310000I0J-140000D01*
G01*
X106530000Y-49650000D01*
G75*
G02*
X106390000Y-49790000I-140000J0D01*
G01*
X106110000Y-49790000D01*
G75*
G02*
X105970000Y-49650000I0J140000D01*
G01*
G37*
G04 #@! TD.AperFunction*
G04 #@! TA.AperFunction,SMDPad,CuDef*
G36*
G01*
X86020000Y-39505000D02*
X86020000Y-39135000D01*
G75*
G02*
X86155000Y-39000000I135000J0D01*
G01*
X86425000Y-39000000D01*
G75*
G02*
X86560000Y-39135000I0J-135000D01*
G01*
X86560000Y-39505000D01*
G75*
G02*
X86425000Y-39640000I-135000J0D01*
G01*
X86155000Y-39640000D01*
G75*
G02*
X86020000Y-39505000I0J135000D01*
G01*
G37*
G04 #@! TD.AperFunction*
G04 #@! TA.AperFunction,SMDPad,CuDef*
G36*
G01*
X85000000Y-39505000D02*
X85000000Y-39135000D01*
G75*
G02*
X85135000Y-39000000I135000J0D01*
G01*
X85405000Y-39000000D01*
G75*
G02*
X85540000Y-39135000I0J-135000D01*
G01*
X85540000Y-39505000D01*
G75*
G02*
X85405000Y-39640000I-135000J0D01*
G01*
X85135000Y-39640000D01*
G75*
G02*
X85000000Y-39505000I0J135000D01*
G01*
G37*
G04 #@! TD.AperFunction*
G04 #@! TA.AperFunction,SMDPad,CuDef*
G36*
G01*
X88010000Y-39505000D02*
X88010000Y-39135000D01*
G75*
G02*
X88145000Y-39000000I135000J0D01*
G01*
X88415000Y-39000000D01*
G75*
G02*
X88550000Y-39135000I0J-135000D01*
G01*
X88550000Y-39505000D01*
G75*
G02*
X88415000Y-39640000I-135000J0D01*
G01*
X88145000Y-39640000D01*
G75*
G02*
X88010000Y-39505000I0J135000D01*
G01*
G37*
G04 #@! TD.AperFunction*
G04 #@! TA.AperFunction,SMDPad,CuDef*
G36*
G01*
X86990000Y-39505000D02*
X86990000Y-39135000D01*
G75*
G02*
X87125000Y-39000000I135000J0D01*
G01*
X87395000Y-39000000D01*
G75*
G02*
X87530000Y-39135000I0J-135000D01*
G01*
X87530000Y-39505000D01*
G75*
G02*
X87395000Y-39640000I-135000J0D01*
G01*
X87125000Y-39640000D01*
G75*
G02*
X86990000Y-39505000I0J135000D01*
G01*
G37*
G04 #@! TD.AperFunction*
G04 #@! TA.AperFunction,SMDPad,CuDef*
G36*
G01*
X72665000Y-36310000D02*
X72295000Y-36310000D01*
G75*
G02*
X72160000Y-36175000I0J135000D01*
G01*
X72160000Y-35905000D01*
G75*
G02*
X72295000Y-35770000I135000J0D01*
G01*
X72665000Y-35770000D01*
G75*
G02*
X72800000Y-35905000I0J-135000D01*
G01*
X72800000Y-36175000D01*
G75*
G02*
X72665000Y-36310000I-135000J0D01*
G01*
G37*
G04 #@! TD.AperFunction*
G04 #@! TA.AperFunction,SMDPad,CuDef*
G36*
G01*
X72665000Y-37330000D02*
X72295000Y-37330000D01*
G75*
G02*
X72160000Y-37195000I0J135000D01*
G01*
X72160000Y-36925000D01*
G75*
G02*
X72295000Y-36790000I135000J0D01*
G01*
X72665000Y-36790000D01*
G75*
G02*
X72800000Y-36925000I0J-135000D01*
G01*
X72800000Y-37195000D01*
G75*
G02*
X72665000Y-37330000I-135000J0D01*
G01*
G37*
G04 #@! TD.AperFunction*
G04 #@! TA.AperFunction,SMDPad,CuDef*
G36*
G01*
X73655000Y-31620000D02*
X74025000Y-31620000D01*
G75*
G02*
X74160000Y-31755000I0J-135000D01*
G01*
X74160000Y-32025000D01*
G75*
G02*
X74025000Y-32160000I-135000J0D01*
G01*
X73655000Y-32160000D01*
G75*
G02*
X73520000Y-32025000I0J135000D01*
G01*
X73520000Y-31755000D01*
G75*
G02*
X73655000Y-31620000I135000J0D01*
G01*
G37*
G04 #@! TD.AperFunction*
G04 #@! TA.AperFunction,SMDPad,CuDef*
G36*
G01*
X73655000Y-30600000D02*
X74025000Y-30600000D01*
G75*
G02*
X74160000Y-30735000I0J-135000D01*
G01*
X74160000Y-31005000D01*
G75*
G02*
X74025000Y-31140000I-135000J0D01*
G01*
X73655000Y-31140000D01*
G75*
G02*
X73520000Y-31005000I0J135000D01*
G01*
X73520000Y-30735000D01*
G75*
G02*
X73655000Y-30600000I135000J0D01*
G01*
G37*
G04 #@! TD.AperFunction*
G04 #@! TA.AperFunction,SMDPad,CuDef*
G36*
G01*
X71760000Y-32765000D02*
X71760000Y-33135000D01*
G75*
G02*
X71625000Y-33270000I-135000J0D01*
G01*
X71355000Y-33270000D01*
G75*
G02*
X71220000Y-33135000I0J135000D01*
G01*
X71220000Y-32765000D01*
G75*
G02*
X71355000Y-32630000I135000J0D01*
G01*
X71625000Y-32630000D01*
G75*
G02*
X71760000Y-32765000I0J-135000D01*
G01*
G37*
G04 #@! TD.AperFunction*
G04 #@! TA.AperFunction,SMDPad,CuDef*
G36*
G01*
X72780000Y-32765000D02*
X72780000Y-33135000D01*
G75*
G02*
X72645000Y-33270000I-135000J0D01*
G01*
X72375000Y-33270000D01*
G75*
G02*
X72240000Y-33135000I0J135000D01*
G01*
X72240000Y-32765000D01*
G75*
G02*
X72375000Y-32630000I135000J0D01*
G01*
X72645000Y-32630000D01*
G75*
G02*
X72780000Y-32765000I0J-135000D01*
G01*
G37*
G04 #@! TD.AperFunction*
G04 #@! TA.AperFunction,SMDPad,CuDef*
G36*
G01*
X86980000Y-38430000D02*
X86980000Y-38090000D01*
G75*
G02*
X87120000Y-37950000I140000J0D01*
G01*
X87400000Y-37950000D01*
G75*
G02*
X87540000Y-38090000I0J-140000D01*
G01*
X87540000Y-38430000D01*
G75*
G02*
X87400000Y-38570000I-140000J0D01*
G01*
X87120000Y-38570000D01*
G75*
G02*
X86980000Y-38430000I0J140000D01*
G01*
G37*
G04 #@! TD.AperFunction*
G04 #@! TA.AperFunction,SMDPad,CuDef*
G36*
G01*
X86020000Y-38430000D02*
X86020000Y-38090000D01*
G75*
G02*
X86160000Y-37950000I140000J0D01*
G01*
X86440000Y-37950000D01*
G75*
G02*
X86580000Y-38090000I0J-140000D01*
G01*
X86580000Y-38430000D01*
G75*
G02*
X86440000Y-38570000I-140000J0D01*
G01*
X86160000Y-38570000D01*
G75*
G02*
X86020000Y-38430000I0J140000D01*
G01*
G37*
G04 #@! TD.AperFunction*
D21*
X111460000Y-46195000D03*
X111460000Y-52745000D03*
X118010000Y-52745000D03*
X118010000Y-46195000D03*
D22*
X114730000Y-49475000D03*
D21*
X67200000Y-36230000D03*
X67200000Y-29680000D03*
X60650000Y-29680000D03*
X60650000Y-36230000D03*
D22*
X63930000Y-32950000D03*
D23*
X100720000Y-27700000D03*
D24*
X103020000Y-34000000D03*
X100720000Y-34000000D03*
X98420000Y-34000000D03*
G04 #@! TA.AperFunction,SMDPad,CuDef*
G36*
G01*
X98925000Y-54385000D02*
X98375000Y-54385000D01*
G75*
G02*
X98175000Y-54185000I0J200000D01*
G01*
X98175000Y-53785000D01*
G75*
G02*
X98375000Y-53585000I200000J0D01*
G01*
X98925000Y-53585000D01*
G75*
G02*
X99125000Y-53785000I0J-200000D01*
G01*
X99125000Y-54185000D01*
G75*
G02*
X98925000Y-54385000I-200000J0D01*
G01*
G37*
G04 #@! TD.AperFunction*
G04 #@! TA.AperFunction,SMDPad,CuDef*
G36*
G01*
X98925000Y-56035000D02*
X98375000Y-56035000D01*
G75*
G02*
X98175000Y-55835000I0J200000D01*
G01*
X98175000Y-55435000D01*
G75*
G02*
X98375000Y-55235000I200000J0D01*
G01*
X98925000Y-55235000D01*
G75*
G02*
X99125000Y-55435000I0J-200000D01*
G01*
X99125000Y-55835000D01*
G75*
G02*
X98925000Y-56035000I-200000J0D01*
G01*
G37*
G04 #@! TD.AperFunction*
G04 #@! TA.AperFunction,SMDPad,CuDef*
G36*
G01*
X97155000Y-54375000D02*
X96605000Y-54375000D01*
G75*
G02*
X96405000Y-54175000I0J200000D01*
G01*
X96405000Y-53775000D01*
G75*
G02*
X96605000Y-53575000I200000J0D01*
G01*
X97155000Y-53575000D01*
G75*
G02*
X97355000Y-53775000I0J-200000D01*
G01*
X97355000Y-54175000D01*
G75*
G02*
X97155000Y-54375000I-200000J0D01*
G01*
G37*
G04 #@! TD.AperFunction*
G04 #@! TA.AperFunction,SMDPad,CuDef*
G36*
G01*
X97155000Y-56025000D02*
X96605000Y-56025000D01*
G75*
G02*
X96405000Y-55825000I0J200000D01*
G01*
X96405000Y-55425000D01*
G75*
G02*
X96605000Y-55225000I200000J0D01*
G01*
X97155000Y-55225000D01*
G75*
G02*
X97355000Y-55425000I0J-200000D01*
G01*
X97355000Y-55825000D01*
G75*
G02*
X97155000Y-56025000I-200000J0D01*
G01*
G37*
G04 #@! TD.AperFunction*
G04 #@! TA.AperFunction,SMDPad,CuDef*
G36*
G01*
X72200000Y-34202500D02*
X72200000Y-33857500D01*
G75*
G02*
X72347500Y-33710000I147500J0D01*
G01*
X72642500Y-33710000D01*
G75*
G02*
X72790000Y-33857500I0J-147500D01*
G01*
X72790000Y-34202500D01*
G75*
G02*
X72642500Y-34350000I-147500J0D01*
G01*
X72347500Y-34350000D01*
G75*
G02*
X72200000Y-34202500I0J147500D01*
G01*
G37*
G04 #@! TD.AperFunction*
G04 #@! TA.AperFunction,SMDPad,CuDef*
G36*
G01*
X71230000Y-34202500D02*
X71230000Y-33857500D01*
G75*
G02*
X71377500Y-33710000I147500J0D01*
G01*
X71672500Y-33710000D01*
G75*
G02*
X71820000Y-33857500I0J-147500D01*
G01*
X71820000Y-34202500D01*
G75*
G02*
X71672500Y-34350000I-147500J0D01*
G01*
X71377500Y-34350000D01*
G75*
G02*
X71230000Y-34202500I0J147500D01*
G01*
G37*
G04 #@! TD.AperFunction*
D25*
X117520000Y-29220000D03*
X117520000Y-30470000D03*
D26*
X98860000Y-50450000D03*
D27*
X97885001Y-48545000D03*
X98534999Y-48545000D03*
X99185001Y-48545000D03*
X99834999Y-48545000D03*
D28*
X100765000Y-49475001D03*
X100765000Y-50124999D03*
X100765000Y-50775001D03*
X100765000Y-51424999D03*
D27*
X99834999Y-52355000D03*
X99185001Y-52355000D03*
X98534999Y-52355000D03*
X97885001Y-52355000D03*
D28*
X96955000Y-51424999D03*
X96955000Y-50775001D03*
X96955000Y-50124999D03*
X96955000Y-49475001D03*
G04 #@! TA.AperFunction,SMDPad,CuDef*
G36*
G01*
X93495000Y-31535000D02*
X94045000Y-31535000D01*
G75*
G02*
X94245000Y-31735000I0J-200000D01*
G01*
X94245000Y-32135000D01*
G75*
G02*
X94045000Y-32335000I-200000J0D01*
G01*
X93495000Y-32335000D01*
G75*
G02*
X93295000Y-32135000I0J200000D01*
G01*
X93295000Y-31735000D01*
G75*
G02*
X93495000Y-31535000I200000J0D01*
G01*
G37*
G04 #@! TD.AperFunction*
G04 #@! TA.AperFunction,SMDPad,CuDef*
G36*
G01*
X93495000Y-29885000D02*
X94045000Y-29885000D01*
G75*
G02*
X94245000Y-30085000I0J-200000D01*
G01*
X94245000Y-30485000D01*
G75*
G02*
X94045000Y-30685000I-200000J0D01*
G01*
X93495000Y-30685000D01*
G75*
G02*
X93295000Y-30485000I0J200000D01*
G01*
X93295000Y-30085000D01*
G75*
G02*
X93495000Y-29885000I200000J0D01*
G01*
G37*
G04 #@! TD.AperFunction*
G04 #@! TA.AperFunction,SMDPad,CuDef*
G36*
G01*
X100995000Y-54480000D02*
X100495000Y-54480000D01*
G75*
G02*
X100270000Y-54255000I0J225000D01*
G01*
X100270000Y-53805000D01*
G75*
G02*
X100495000Y-53580000I225000J0D01*
G01*
X100995000Y-53580000D01*
G75*
G02*
X101220000Y-53805000I0J-225000D01*
G01*
X101220000Y-54255000D01*
G75*
G02*
X100995000Y-54480000I-225000J0D01*
G01*
G37*
G04 #@! TD.AperFunction*
G04 #@! TA.AperFunction,SMDPad,CuDef*
G36*
G01*
X100995000Y-56030000D02*
X100495000Y-56030000D01*
G75*
G02*
X100270000Y-55805000I0J225000D01*
G01*
X100270000Y-55355000D01*
G75*
G02*
X100495000Y-55130000I225000J0D01*
G01*
X100995000Y-55130000D01*
G75*
G02*
X101220000Y-55355000I0J-225000D01*
G01*
X101220000Y-55805000D01*
G75*
G02*
X100995000Y-56030000I-225000J0D01*
G01*
G37*
G04 #@! TD.AperFunction*
G04 #@! TA.AperFunction,SMDPad,CuDef*
G36*
G01*
X86230000Y-36310000D02*
X85890000Y-36310000D01*
G75*
G02*
X85750000Y-36170000I0J140000D01*
G01*
X85750000Y-35890000D01*
G75*
G02*
X85890000Y-35750000I140000J0D01*
G01*
X86230000Y-35750000D01*
G75*
G02*
X86370000Y-35890000I0J-140000D01*
G01*
X86370000Y-36170000D01*
G75*
G02*
X86230000Y-36310000I-140000J0D01*
G01*
G37*
G04 #@! TD.AperFunction*
G04 #@! TA.AperFunction,SMDPad,CuDef*
G36*
G01*
X86230000Y-37270000D02*
X85890000Y-37270000D01*
G75*
G02*
X85750000Y-37130000I0J140000D01*
G01*
X85750000Y-36850000D01*
G75*
G02*
X85890000Y-36710000I140000J0D01*
G01*
X86230000Y-36710000D01*
G75*
G02*
X86370000Y-36850000I0J-140000D01*
G01*
X86370000Y-37130000D01*
G75*
G02*
X86230000Y-37270000I-140000J0D01*
G01*
G37*
G04 #@! TD.AperFunction*
G04 #@! TA.AperFunction,SMDPad,CuDef*
G36*
G01*
X95730000Y-30775000D02*
X95230000Y-30775000D01*
G75*
G02*
X95005000Y-30550000I0J225000D01*
G01*
X95005000Y-30100000D01*
G75*
G02*
X95230000Y-29875000I225000J0D01*
G01*
X95730000Y-29875000D01*
G75*
G02*
X95955000Y-30100000I0J-225000D01*
G01*
X95955000Y-30550000D01*
G75*
G02*
X95730000Y-30775000I-225000J0D01*
G01*
G37*
G04 #@! TD.AperFunction*
G04 #@! TA.AperFunction,SMDPad,CuDef*
G36*
G01*
X95730000Y-32325000D02*
X95230000Y-32325000D01*
G75*
G02*
X95005000Y-32100000I0J225000D01*
G01*
X95005000Y-31650000D01*
G75*
G02*
X95230000Y-31425000I225000J0D01*
G01*
X95730000Y-31425000D01*
G75*
G02*
X95955000Y-31650000I0J-225000D01*
G01*
X95955000Y-32100000D01*
G75*
G02*
X95730000Y-32325000I-225000J0D01*
G01*
G37*
G04 #@! TD.AperFunction*
G04 #@! TA.AperFunction,SMDPad,CuDef*
G36*
G01*
X76360000Y-30145000D02*
X76860000Y-30145000D01*
G75*
G02*
X77085000Y-30370000I0J-225000D01*
G01*
X77085000Y-30820000D01*
G75*
G02*
X76860000Y-31045000I-225000J0D01*
G01*
X76360000Y-31045000D01*
G75*
G02*
X76135000Y-30820000I0J225000D01*
G01*
X76135000Y-30370000D01*
G75*
G02*
X76360000Y-30145000I225000J0D01*
G01*
G37*
G04 #@! TD.AperFunction*
G04 #@! TA.AperFunction,SMDPad,CuDef*
G36*
G01*
X76360000Y-28595000D02*
X76860000Y-28595000D01*
G75*
G02*
X77085000Y-28820000I0J-225000D01*
G01*
X77085000Y-29270000D01*
G75*
G02*
X76860000Y-29495000I-225000J0D01*
G01*
X76360000Y-29495000D01*
G75*
G02*
X76135000Y-29270000I0J225000D01*
G01*
X76135000Y-28820000D01*
G75*
G02*
X76360000Y-28595000I225000J0D01*
G01*
G37*
G04 #@! TD.AperFunction*
G04 #@! TA.AperFunction,SMDPad,CuDef*
G36*
G01*
X76155000Y-37790000D02*
X76155000Y-38290000D01*
G75*
G02*
X75930000Y-38515000I-225000J0D01*
G01*
X75480000Y-38515000D01*
G75*
G02*
X75255000Y-38290000I0J225000D01*
G01*
X75255000Y-37790000D01*
G75*
G02*
X75480000Y-37565000I225000J0D01*
G01*
X75930000Y-37565000D01*
G75*
G02*
X76155000Y-37790000I0J-225000D01*
G01*
G37*
G04 #@! TD.AperFunction*
G04 #@! TA.AperFunction,SMDPad,CuDef*
G36*
G01*
X77705000Y-37790000D02*
X77705000Y-38290000D01*
G75*
G02*
X77480000Y-38515000I-225000J0D01*
G01*
X77030000Y-38515000D01*
G75*
G02*
X76805000Y-38290000I0J225000D01*
G01*
X76805000Y-37790000D01*
G75*
G02*
X77030000Y-37565000I225000J0D01*
G01*
X77480000Y-37565000D01*
G75*
G02*
X77705000Y-37790000I0J-225000D01*
G01*
G37*
G04 #@! TD.AperFunction*
G04 #@! TA.AperFunction,SMDPad,CuDef*
G36*
G01*
X78710000Y-29465000D02*
X78210000Y-29465000D01*
G75*
G02*
X77985000Y-29240000I0J225000D01*
G01*
X77985000Y-28790000D01*
G75*
G02*
X78210000Y-28565000I225000J0D01*
G01*
X78710000Y-28565000D01*
G75*
G02*
X78935000Y-28790000I0J-225000D01*
G01*
X78935000Y-29240000D01*
G75*
G02*
X78710000Y-29465000I-225000J0D01*
G01*
G37*
G04 #@! TD.AperFunction*
G04 #@! TA.AperFunction,SMDPad,CuDef*
G36*
G01*
X78710000Y-31015000D02*
X78210000Y-31015000D01*
G75*
G02*
X77985000Y-30790000I0J225000D01*
G01*
X77985000Y-30340000D01*
G75*
G02*
X78210000Y-30115000I225000J0D01*
G01*
X78710000Y-30115000D01*
G75*
G02*
X78935000Y-30340000I0J-225000D01*
G01*
X78935000Y-30790000D01*
G75*
G02*
X78710000Y-31015000I-225000J0D01*
G01*
G37*
G04 #@! TD.AperFunction*
G04 #@! TA.AperFunction,SMDPad,CuDef*
G36*
G01*
X105860000Y-31005000D02*
X106360000Y-31005000D01*
G75*
G02*
X106585000Y-31230000I0J-225000D01*
G01*
X106585000Y-31680000D01*
G75*
G02*
X106360000Y-31905000I-225000J0D01*
G01*
X105860000Y-31905000D01*
G75*
G02*
X105635000Y-31680000I0J225000D01*
G01*
X105635000Y-31230000D01*
G75*
G02*
X105860000Y-31005000I225000J0D01*
G01*
G37*
G04 #@! TD.AperFunction*
G04 #@! TA.AperFunction,SMDPad,CuDef*
G36*
G01*
X105860000Y-29455000D02*
X106360000Y-29455000D01*
G75*
G02*
X106585000Y-29680000I0J-225000D01*
G01*
X106585000Y-30130000D01*
G75*
G02*
X106360000Y-30355000I-225000J0D01*
G01*
X105860000Y-30355000D01*
G75*
G02*
X105635000Y-30130000I0J225000D01*
G01*
X105635000Y-29680000D01*
G75*
G02*
X105860000Y-29455000I225000J0D01*
G01*
G37*
G04 #@! TD.AperFunction*
G04 #@! TA.AperFunction,SMDPad,CuDef*
G36*
G01*
X73700000Y-35760000D02*
X74040000Y-35760000D01*
G75*
G02*
X74180000Y-35900000I0J-140000D01*
G01*
X74180000Y-36180000D01*
G75*
G02*
X74040000Y-36320000I-140000J0D01*
G01*
X73700000Y-36320000D01*
G75*
G02*
X73560000Y-36180000I0J140000D01*
G01*
X73560000Y-35900000D01*
G75*
G02*
X73700000Y-35760000I140000J0D01*
G01*
G37*
G04 #@! TD.AperFunction*
G04 #@! TA.AperFunction,SMDPad,CuDef*
G36*
G01*
X73700000Y-34800000D02*
X74040000Y-34800000D01*
G75*
G02*
X74180000Y-34940000I0J-140000D01*
G01*
X74180000Y-35220000D01*
G75*
G02*
X74040000Y-35360000I-140000J0D01*
G01*
X73700000Y-35360000D01*
G75*
G02*
X73560000Y-35220000I0J140000D01*
G01*
X73560000Y-34940000D01*
G75*
G02*
X73700000Y-34800000I140000J0D01*
G01*
G37*
G04 #@! TD.AperFunction*
G04 #@! TA.AperFunction,SMDPad,CuDef*
G36*
G01*
X74020000Y-33210000D02*
X73680000Y-33210000D01*
G75*
G02*
X73540000Y-33070000I0J140000D01*
G01*
X73540000Y-32790000D01*
G75*
G02*
X73680000Y-32650000I140000J0D01*
G01*
X74020000Y-32650000D01*
G75*
G02*
X74160000Y-32790000I0J-140000D01*
G01*
X74160000Y-33070000D01*
G75*
G02*
X74020000Y-33210000I-140000J0D01*
G01*
G37*
G04 #@! TD.AperFunction*
G04 #@! TA.AperFunction,SMDPad,CuDef*
G36*
G01*
X74020000Y-34170000D02*
X73680000Y-34170000D01*
G75*
G02*
X73540000Y-34030000I0J140000D01*
G01*
X73540000Y-33750000D01*
G75*
G02*
X73680000Y-33610000I140000J0D01*
G01*
X74020000Y-33610000D01*
G75*
G02*
X74160000Y-33750000I0J-140000D01*
G01*
X74160000Y-34030000D01*
G75*
G02*
X74020000Y-34170000I-140000J0D01*
G01*
G37*
G04 #@! TD.AperFunction*
D29*
X73830000Y-32950000D03*
X72530000Y-32950000D03*
D30*
X107780000Y-29890000D03*
X106130000Y-29910000D03*
X100740000Y-55580000D03*
D29*
X76530000Y-34225000D03*
D31*
X73850000Y-29950000D03*
X76620000Y-29040000D03*
X78480000Y-29010000D03*
D30*
X72480000Y-37990000D03*
D29*
X78700000Y-34220000D03*
X77580000Y-33100000D03*
X77580000Y-35300000D03*
X77580000Y-34220000D03*
X98820000Y-49430000D03*
X99920000Y-50430000D03*
X98820000Y-51530000D03*
X97820000Y-50430000D03*
X98820000Y-50430000D03*
X86260000Y-38210000D03*
D30*
X78655000Y-40525000D03*
X77610000Y-46590000D03*
X79730000Y-49360000D03*
X79700000Y-55150000D03*
X87050000Y-50040000D03*
X93330000Y-46310000D03*
X82460000Y-40420000D03*
D29*
X87040000Y-43080000D03*
X87040000Y-44870000D03*
X85640000Y-43930000D03*
X88400000Y-43930000D03*
X87040000Y-43930000D03*
D30*
X69530000Y-41780000D03*
D29*
X93360000Y-50340000D03*
X104230000Y-51820000D03*
D30*
X60830000Y-43020000D03*
X111160000Y-31460000D03*
X98440000Y-33970000D03*
X95480000Y-31870000D03*
D31*
X81770000Y-26550000D03*
D30*
X63470000Y-43520000D03*
X103045000Y-52530000D03*
X102720000Y-47230000D03*
X100745000Y-54005000D03*
X96920000Y-55625000D03*
D29*
X78480000Y-30600000D03*
X76605000Y-30625000D03*
D30*
X82100000Y-57500000D03*
X87020000Y-48480000D03*
X91750000Y-46320000D03*
X83990000Y-40400000D03*
X80510000Y-42460000D03*
X97650000Y-58460000D03*
D31*
X83270000Y-26550000D03*
X84770000Y-26550000D03*
X86270000Y-26550000D03*
X87770000Y-26550000D03*
X89270000Y-26550000D03*
X81770000Y-28050000D03*
X83270000Y-28050000D03*
X84770000Y-28050000D03*
X86270000Y-28050000D03*
X87770000Y-28050000D03*
X89270000Y-28050000D03*
X87760000Y-29350000D03*
X89260000Y-29350000D03*
X87760000Y-30850000D03*
X89260000Y-30850000D03*
X87760000Y-32350000D03*
X89260000Y-32350000D03*
D30*
X91730000Y-44520000D03*
X102860000Y-53900000D03*
D32*
X73850000Y-31900000D02*
X73840000Y-31890000D01*
D33*
X73850000Y-32930000D02*
X73850000Y-31900000D01*
X72495000Y-34030000D02*
X72495000Y-32965000D01*
X72510000Y-32950000D02*
X73830000Y-32950000D01*
X73850000Y-33890000D02*
X75625000Y-33890000D01*
X72480000Y-36040000D02*
X73870000Y-36040000D01*
X74415000Y-34535000D02*
X75630000Y-34535000D01*
X73870000Y-35080000D02*
X74415000Y-34535000D01*
D32*
X73850000Y-30860000D02*
X73840000Y-30870000D01*
X72480000Y-37060000D02*
X72480000Y-37990000D01*
X78690000Y-34210000D02*
X78700000Y-34220000D01*
D34*
X77255000Y-33885000D02*
X77580000Y-34210000D01*
X76605000Y-33235000D02*
X77580000Y-34210000D01*
X75630000Y-33235000D02*
X76605000Y-33235000D01*
X76605000Y-35185000D02*
X77580000Y-34210000D01*
X75630000Y-35185000D02*
X76605000Y-35185000D01*
X78555000Y-33235000D02*
X77580000Y-34210000D01*
X79530000Y-33235000D02*
X78555000Y-33235000D01*
X78555000Y-35185000D02*
X77580000Y-34210000D01*
X79530000Y-35185000D02*
X78555000Y-35185000D01*
D32*
X98860000Y-49470000D02*
X98820000Y-49430000D01*
X97840000Y-50450000D02*
X97820000Y-50430000D01*
X98860000Y-51490000D02*
X98820000Y-51530000D01*
X99185001Y-50775001D02*
X98860000Y-50450000D01*
X73850000Y-29950000D02*
X73850000Y-30860000D01*
D35*
X78655000Y-39510000D02*
X78655000Y-40525000D01*
D32*
X77580000Y-34150000D02*
X77630000Y-34200000D01*
D36*
X84639700Y-44469999D02*
X84639700Y-43970000D01*
X85600000Y-43970000D02*
X85640000Y-43930000D01*
X84639700Y-43970000D02*
X85600000Y-43970000D01*
X87539999Y-44469999D02*
X87040000Y-43970000D01*
X89440300Y-44469999D02*
X87539999Y-44469999D01*
X87499999Y-43470001D02*
X87040000Y-43930000D01*
X89440300Y-43470001D02*
X87499999Y-43470001D01*
X87539999Y-43470001D02*
X87040000Y-43970000D01*
X87539999Y-42065000D02*
X87539999Y-43470001D01*
X88040001Y-42969999D02*
X87040000Y-43970000D01*
X88040001Y-42065000D02*
X88040001Y-42969999D01*
X85540000Y-42065000D02*
X85540000Y-42470000D01*
X85540000Y-42470000D02*
X87040000Y-43970000D01*
X98534999Y-50775001D02*
X98860000Y-50450000D01*
X96955000Y-50775001D02*
X98534999Y-50775001D01*
D37*
X100820000Y-55660000D02*
X100740000Y-55580000D01*
X102720000Y-55660000D02*
X100820000Y-55660000D01*
D36*
X76655000Y-36150000D02*
X76300000Y-36150000D01*
D37*
X75705000Y-38040000D02*
X75705000Y-36545000D01*
X76100000Y-36150000D02*
X76300000Y-36150000D01*
X75705000Y-36545000D02*
X76100000Y-36150000D01*
D36*
X77305000Y-36150000D02*
X77305000Y-36755000D01*
D37*
X77305000Y-37990000D02*
X77255000Y-38040000D01*
X77305000Y-36755000D02*
X77305000Y-37990000D01*
D36*
X79530000Y-33885000D02*
X79543603Y-33885000D01*
X79593603Y-33875000D02*
X79580000Y-33875000D01*
D33*
X80317501Y-33975000D02*
X80217501Y-33875000D01*
X80638840Y-33990355D02*
X80502559Y-33975000D01*
X81120014Y-35044504D02*
X81115000Y-35000000D01*
X81158633Y-35124697D02*
X81134806Y-35086776D01*
X81190302Y-35156366D02*
X81158633Y-35124697D01*
X81228223Y-35180193D02*
X81190302Y-35156366D01*
X81270495Y-35194985D02*
X81228223Y-35180193D01*
X80768287Y-34035650D02*
X80638840Y-33990355D01*
X81315000Y-35200000D02*
X81270495Y-35194985D01*
X80217501Y-33875000D02*
X79580000Y-33875000D01*
X81359504Y-35194985D02*
X81315000Y-35200000D01*
X81401776Y-35180193D02*
X81359504Y-35194985D01*
X81439697Y-35156366D02*
X81401776Y-35180193D01*
X82754349Y-33096713D02*
X82681384Y-32980591D01*
X82799644Y-33226160D02*
X82754349Y-33096713D01*
X80502559Y-33975000D02*
X80317501Y-33975000D01*
X82815000Y-33362441D02*
X82799644Y-33226160D01*
X81099644Y-34451159D02*
X81054349Y-34321712D01*
X82338840Y-32765356D02*
X82202559Y-32750000D01*
X81134806Y-35086776D02*
X81120014Y-35044504D01*
X82820014Y-33819505D02*
X82815000Y-33775000D01*
X82815000Y-33775000D02*
X82815000Y-33362441D01*
X80884409Y-34108615D02*
X80768287Y-34035650D01*
X81054349Y-34321712D02*
X80981384Y-34205590D01*
X82858633Y-33899698D02*
X82834806Y-33861777D01*
X82890302Y-33931367D02*
X82858633Y-33899698D01*
X81115000Y-35000000D02*
X81115000Y-34587440D01*
X82834806Y-33861777D02*
X82820014Y-33819505D01*
X81745590Y-32883616D02*
X81648615Y-32980591D01*
X81471366Y-35124697D02*
X81439697Y-35156366D01*
X82928223Y-33955194D02*
X82890302Y-33931367D01*
X82970495Y-33969986D02*
X82928223Y-33955194D01*
X80981384Y-34205590D02*
X80884409Y-34108615D01*
X83015000Y-33975000D02*
X82970495Y-33969986D01*
X85505000Y-33975000D02*
X83015000Y-33975000D01*
X81515000Y-35000000D02*
X81509985Y-35044504D01*
X87560000Y-36030000D02*
X85505000Y-33975000D01*
X82681384Y-32980591D02*
X82584409Y-32883616D01*
X82127440Y-32750000D02*
X81991159Y-32765356D01*
X82584409Y-32883616D02*
X82468287Y-32810651D01*
X82468287Y-32810651D02*
X82338840Y-32765356D01*
X81115000Y-34587440D02*
X81099644Y-34451159D01*
X81575650Y-33096713D02*
X81530355Y-33226160D01*
X82202559Y-32750000D02*
X82127440Y-32750000D01*
X81991159Y-32765356D02*
X81861712Y-32810651D01*
X81530355Y-33226160D02*
X81515000Y-33362441D01*
X81861712Y-32810651D02*
X81745590Y-32883616D01*
X81648615Y-32980591D02*
X81575650Y-33096713D01*
X81515000Y-33362441D02*
X81515000Y-35000000D01*
X81509985Y-35044504D02*
X81495193Y-35086776D01*
X81495193Y-35086776D02*
X81471366Y-35124697D01*
X87560000Y-36990000D02*
X87560000Y-37310000D01*
X88280000Y-38030000D02*
X88280000Y-39320000D01*
X87560000Y-37310000D02*
X88280000Y-38030000D01*
X88280000Y-39980000D02*
X88280000Y-39320000D01*
X87040000Y-41220000D02*
X88280000Y-39980000D01*
X87040000Y-42065000D02*
X87040000Y-41220000D01*
D36*
X79530000Y-34535000D02*
X79543603Y-34535000D01*
X79580000Y-34525000D02*
X79593603Y-34525000D01*
D33*
X86060000Y-35166397D02*
X86060000Y-36030000D01*
X85318603Y-34425000D02*
X86060000Y-35166397D01*
X85251846Y-34432522D02*
X85318603Y-34425000D01*
X85188437Y-34454710D02*
X85251846Y-34432522D01*
X85131556Y-34490451D02*
X85188437Y-34454710D01*
X85084053Y-34537954D02*
X85131556Y-34490451D01*
X85048312Y-34594835D02*
X85084053Y-34537954D01*
X85026124Y-34658244D02*
X85048312Y-34594835D01*
X85018603Y-34725000D02*
X85026124Y-34658244D01*
X85018603Y-34974763D02*
X85018603Y-34725000D01*
X85011081Y-35041520D02*
X85018603Y-34974763D01*
X84988893Y-35104929D02*
X85011081Y-35041520D01*
X84953152Y-35161810D02*
X84988893Y-35104929D01*
X84905649Y-35209313D02*
X84953152Y-35161810D01*
X84848768Y-35245054D02*
X84905649Y-35209313D01*
X84785359Y-35267242D02*
X84848768Y-35245054D01*
X84718603Y-35274763D02*
X84785359Y-35267242D01*
X84651846Y-35267242D02*
X84718603Y-35274763D01*
X84588437Y-35245054D02*
X84651846Y-35267242D01*
X84531556Y-35209313D02*
X84588437Y-35245054D01*
X84484053Y-35161810D02*
X84531556Y-35209313D01*
X84448312Y-35104929D02*
X84484053Y-35161810D01*
X84426124Y-35041520D02*
X84448312Y-35104929D01*
X81970014Y-33355496D02*
X81984806Y-33313224D01*
X81965000Y-33400000D02*
X81970014Y-33355496D01*
X81965000Y-35037559D02*
X81965000Y-33400000D01*
X81831384Y-35419409D02*
X81904349Y-35303287D01*
X81734409Y-35516384D02*
X81831384Y-35419409D01*
X81488840Y-35634644D02*
X81618287Y-35589349D01*
X81277440Y-35650000D02*
X81352559Y-35650000D01*
X81141159Y-35634644D02*
X81277440Y-35650000D01*
X82977440Y-34425000D02*
X84118603Y-34425000D01*
X81011712Y-35589349D02*
X81141159Y-35634644D01*
X80895590Y-35516384D02*
X81011712Y-35589349D01*
X81949644Y-35173840D02*
X81965000Y-35037559D01*
X80725650Y-35303287D02*
X80798615Y-35419409D01*
X81618287Y-35589349D02*
X81734409Y-35516384D01*
X80798615Y-35419409D02*
X80895590Y-35516384D01*
X84248768Y-34454710D02*
X84305649Y-34490451D01*
X79580000Y-34525000D02*
X80217501Y-34525000D01*
X80217501Y-34525000D02*
X80317501Y-34425000D01*
X80665000Y-35037559D02*
X80680355Y-35173840D01*
X80317501Y-34425000D02*
X80465000Y-34425000D01*
X80465000Y-34425000D02*
X80509504Y-34430014D01*
X84418603Y-34725000D02*
X84418603Y-34974763D01*
X80645193Y-34538223D02*
X80659985Y-34580495D01*
X84388893Y-34594835D02*
X84411081Y-34658244D01*
X80621366Y-34500302D02*
X80645193Y-34538223D01*
X80551776Y-34444806D02*
X80589697Y-34468633D01*
X80589697Y-34468633D02*
X80621366Y-34500302D01*
X81904349Y-35303287D02*
X81949644Y-35173840D01*
X80659985Y-34580495D02*
X80665000Y-34625000D01*
X80509504Y-34430014D02*
X80551776Y-34444806D01*
X81352559Y-35650000D02*
X81488840Y-35634644D01*
X84118603Y-34425000D02*
X84185359Y-34432522D01*
X80665000Y-34625000D02*
X80665000Y-35037559D01*
X80680355Y-35173840D02*
X80725650Y-35303287D01*
X81984806Y-33313224D02*
X82008633Y-33275303D01*
X82008633Y-33275303D02*
X82040302Y-33243634D01*
X82040302Y-33243634D02*
X82078223Y-33219807D01*
X82841159Y-34409645D02*
X82977440Y-34425000D01*
X82078223Y-33219807D02*
X82120495Y-33205015D01*
X82120495Y-33205015D02*
X82165000Y-33200000D01*
X82165000Y-33200000D02*
X82209504Y-33205015D01*
X82209504Y-33205015D02*
X82251776Y-33219807D01*
X82251776Y-33219807D02*
X82289697Y-33243634D01*
X82289697Y-33243634D02*
X82321366Y-33275303D01*
X82321366Y-33275303D02*
X82345193Y-33313224D01*
X82345193Y-33313224D02*
X82359985Y-33355496D01*
X82359985Y-33355496D02*
X82365000Y-33400000D01*
X82365000Y-33400000D02*
X82365000Y-33812560D01*
X82365000Y-33812560D02*
X82380355Y-33948841D01*
X82380355Y-33948841D02*
X82425650Y-34078288D01*
X84185359Y-34432522D02*
X84248768Y-34454710D01*
X82425650Y-34078288D02*
X82498615Y-34194410D01*
X82498615Y-34194410D02*
X82595590Y-34291385D01*
X82595590Y-34291385D02*
X82711712Y-34364350D01*
X82711712Y-34364350D02*
X82841159Y-34409645D01*
X84305649Y-34490451D02*
X84353152Y-34537954D01*
X84353152Y-34537954D02*
X84388893Y-34594835D01*
X84411081Y-34658244D02*
X84418603Y-34725000D01*
X84418603Y-34974763D02*
X84426124Y-35041520D01*
X85270000Y-39320000D02*
X85270000Y-39945199D01*
X86060000Y-36990000D02*
X86060000Y-37210000D01*
X85270000Y-38000000D02*
X85270000Y-39320000D01*
X86060000Y-37210000D02*
X85270000Y-38000000D01*
X86540001Y-41215200D02*
X85270000Y-39945199D01*
X86540001Y-42065000D02*
X86540001Y-41215200D01*
X86290000Y-39320000D02*
X87260000Y-39320000D01*
X87260000Y-38260000D02*
X87260000Y-39320000D01*
D32*
X78555000Y-30660000D02*
X78460000Y-30565000D01*
X76605000Y-30850000D02*
X76350000Y-30595000D01*
D34*
X78430000Y-30595000D02*
X78430000Y-30595000D01*
X76610000Y-30595000D02*
X76635000Y-30595000D01*
X76635000Y-30595000D02*
X78430000Y-30595000D01*
X78430000Y-30595000D02*
X78460000Y-30565000D01*
D32*
X98640000Y-55625000D02*
X98640000Y-55625000D01*
X96880000Y-55625000D02*
X98640000Y-55625000D01*
X102700000Y-47250000D02*
X102720000Y-47230000D01*
X102700000Y-48460000D02*
X102700000Y-47250000D01*
X98640000Y-55625000D02*
X98650000Y-55635000D01*
D35*
X102700000Y-52185000D02*
X103045000Y-52530000D01*
X102700000Y-51620000D02*
X102700000Y-52185000D01*
D34*
X89705000Y-45875000D02*
X90375000Y-45875000D01*
X90820000Y-46320000D02*
X91775000Y-46320000D01*
X90375000Y-45875000D02*
X90820000Y-46320000D01*
X89705000Y-45875000D02*
X88540000Y-45875000D01*
D35*
X78605000Y-30710000D02*
X78460000Y-30565000D01*
D36*
X86039999Y-41449999D02*
X86039999Y-42065000D01*
X85010000Y-40420000D02*
X86039999Y-41449999D01*
X83995000Y-40420000D02*
X85010000Y-40420000D01*
X87040000Y-45875000D02*
X87040000Y-48485000D01*
D37*
X100745000Y-54005000D02*
X100745000Y-51805000D01*
D36*
X100745000Y-51444999D02*
X100765000Y-51424999D01*
X100745000Y-51805000D02*
X100745000Y-51444999D01*
X76655000Y-32250000D02*
X76655000Y-31545000D01*
D37*
X76655000Y-30640000D02*
X76610000Y-30595000D01*
X76655000Y-31545000D02*
X76655000Y-30640000D01*
D36*
X78600000Y-32295000D02*
X78600000Y-31590000D01*
D37*
X78600000Y-30705000D02*
X78460000Y-30565000D01*
X78600000Y-31590000D02*
X78600000Y-30705000D01*
X63485000Y-43535000D02*
X63470000Y-43520000D01*
X66250000Y-43535000D02*
X63485000Y-43535000D01*
D32*
X107215000Y-49485000D02*
X107210000Y-49480000D01*
X114725000Y-49480000D02*
X114730000Y-49475000D01*
D33*
X107210000Y-49480000D02*
X114725000Y-49480000D01*
X105050000Y-49480000D02*
X106250000Y-49480000D01*
X105025000Y-48370000D02*
X105025000Y-49455000D01*
X102224999Y-50124999D02*
X102700000Y-50600000D01*
X100765000Y-50124999D02*
X102224999Y-50124999D01*
X102700000Y-50600000D02*
X104250000Y-50600000D01*
D36*
X98534999Y-52355000D02*
X98534999Y-52964999D01*
D37*
X98534999Y-53869999D02*
X98650000Y-53985000D01*
X98534999Y-52964999D02*
X98534999Y-53869999D01*
D36*
X96955000Y-51424999D02*
X96955000Y-51725000D01*
D37*
X96955000Y-53900000D02*
X96880000Y-53975000D01*
X96955000Y-51725000D02*
X96955000Y-53900000D01*
D32*
X71490000Y-33995000D02*
X71525000Y-34030000D01*
D33*
X71490000Y-32950000D02*
X71490000Y-33995000D01*
X63930000Y-32950000D02*
X71490000Y-32950000D01*
D32*
X105260000Y-51810000D02*
X105250000Y-51820000D01*
D33*
X105260000Y-50650000D02*
X105260000Y-51810000D01*
X104030000Y-49480000D02*
X104030000Y-48395000D01*
D36*
X100769999Y-49480000D02*
X100765000Y-49475001D01*
X102695001Y-49475001D02*
X102700000Y-49480000D01*
D33*
X100765000Y-49475001D02*
X102695001Y-49475001D01*
X102700000Y-49480000D02*
X104030000Y-49480000D01*
D34*
X111147500Y-29892500D02*
X111160000Y-29905000D01*
D38*
X117520000Y-29220000D02*
X113940000Y-29220000D01*
X113255000Y-29905000D02*
X111160000Y-29905000D01*
X113940000Y-29220000D02*
X113255000Y-29905000D01*
X109422500Y-29905000D02*
X109410000Y-29892500D01*
X111160000Y-29905000D02*
X109422500Y-29905000D01*
D35*
X77305000Y-32250000D02*
X77955000Y-32250000D01*
X75020000Y-42940000D02*
X75010000Y-42930000D01*
D36*
X78605000Y-36150000D02*
X78990000Y-36150000D01*
D37*
X77830000Y-42930000D02*
X75010000Y-42930000D01*
X80480000Y-40280000D02*
X77830000Y-42930000D01*
X80480000Y-37100000D02*
X80480000Y-40280000D01*
X79530000Y-36150000D02*
X80480000Y-37100000D01*
X78990000Y-36150000D02*
X79530000Y-36150000D01*
D36*
X77955000Y-36150000D02*
X77955000Y-36725000D01*
D37*
X77955000Y-36975000D02*
X78655000Y-37675000D01*
X77955000Y-36725000D02*
X77955000Y-36975000D01*
X78655000Y-37675000D02*
X78655000Y-38490000D01*
X66250000Y-45185000D02*
X67405000Y-45185000D01*
X68510000Y-44080000D02*
X69510000Y-44080000D01*
X67405000Y-45185000D02*
X68510000Y-44080000D01*
D36*
X89450301Y-42980000D02*
X89440300Y-42969999D01*
X91550000Y-42980000D02*
X89450301Y-42980000D01*
X91505000Y-42065000D02*
X91550000Y-42020000D01*
X88540000Y-42065000D02*
X91505000Y-42065000D01*
D35*
X79585000Y-45025000D02*
X79590000Y-45020000D01*
X77620000Y-45025000D02*
X79585000Y-45025000D01*
D36*
X79590000Y-44280000D02*
X79590000Y-45020000D01*
X80399999Y-43470001D02*
X79590000Y-44280000D01*
X84639700Y-43470001D02*
X80399999Y-43470001D01*
X83529999Y-44970001D02*
X84639700Y-44970001D01*
X82890000Y-45610000D02*
X83529999Y-44970001D01*
X82890000Y-46820000D02*
X82890000Y-45610000D01*
X82490000Y-47220000D02*
X82890000Y-46820000D01*
X81290000Y-47220000D02*
X82490000Y-47220000D01*
D35*
X81285000Y-49320000D02*
X81285000Y-47225000D01*
D36*
X85030000Y-51510000D02*
X85550000Y-52030000D01*
X85030000Y-48798200D02*
X85030000Y-51510000D01*
X86515000Y-47313200D02*
X85030000Y-48798200D01*
X86540001Y-45875000D02*
X86540001Y-46332201D01*
X86540001Y-46332201D02*
X86515000Y-46357202D01*
X86515000Y-46357202D02*
X86515000Y-47313200D01*
X85550000Y-54040000D02*
X85210000Y-54380000D01*
X85550000Y-52990000D02*
X85550000Y-54040000D01*
X84580000Y-51510000D02*
X84050000Y-52040000D01*
X84580000Y-48611800D02*
X84580000Y-51510000D01*
X86065000Y-47126800D02*
X84580000Y-48611800D01*
X86039999Y-45875000D02*
X86039999Y-46332201D01*
X86039999Y-46332201D02*
X86065000Y-46357202D01*
X86065000Y-46357202D02*
X86065000Y-47126800D01*
X84050000Y-54240000D02*
X84190000Y-54380000D01*
X84050000Y-53000000D02*
X84050000Y-54240000D01*
X88040001Y-46332201D02*
X88040001Y-45875000D01*
X88015000Y-47078603D02*
X88015000Y-46357202D01*
X88067521Y-47120487D02*
X88015000Y-47078603D01*
X88128048Y-47149635D02*
X88067521Y-47120487D01*
X88193541Y-47164583D02*
X88128048Y-47149635D01*
X88260721Y-47164584D02*
X88193541Y-47164583D01*
X89175745Y-47180009D02*
X89204893Y-47119484D01*
X88863527Y-47502866D02*
X89133860Y-47232532D01*
X89133860Y-47232532D02*
X89175745Y-47180009D01*
X88821641Y-47555387D02*
X88863527Y-47502866D01*
X88792493Y-47615913D02*
X88821641Y-47555387D01*
X89204893Y-47119484D02*
X89219841Y-47053989D01*
X88792493Y-47814081D02*
X88777546Y-47748587D01*
X88821642Y-47874607D02*
X88792493Y-47814081D01*
X88863528Y-47927131D02*
X88821642Y-47874607D01*
X88777545Y-47681407D02*
X88792493Y-47615913D01*
X88777546Y-47748587D02*
X88777545Y-47681407D01*
X88386741Y-47120488D02*
X88326214Y-47149634D01*
X88326214Y-47149634D02*
X88260721Y-47164584D01*
X89686397Y-48750000D02*
X88863528Y-47927131D01*
X88709596Y-46808268D02*
X88532821Y-46985043D01*
X91190000Y-48750000D02*
X89686397Y-48750000D01*
X89219841Y-47053989D02*
X89219842Y-46986811D01*
X89219842Y-46986811D02*
X89204892Y-46921316D01*
X89204892Y-46921316D02*
X89175746Y-46860791D01*
X88762119Y-46766384D02*
X88709596Y-46808268D01*
X89175746Y-46860791D02*
X89133860Y-46808268D01*
X89081337Y-46766383D02*
X89020813Y-46737236D01*
X89133860Y-46808268D02*
X89081337Y-46766383D01*
X89020813Y-46737236D02*
X88955317Y-46722287D01*
X88955317Y-46722287D02*
X88888139Y-46722288D01*
X88015000Y-46357202D02*
X88040001Y-46332201D01*
X88888139Y-46722288D02*
X88822645Y-46737236D01*
X88532821Y-46985043D02*
X88439264Y-47078603D01*
X88822645Y-46737236D02*
X88762119Y-46766384D01*
X88439264Y-47078603D02*
X88386741Y-47120488D01*
X96345001Y-49475001D02*
X96955000Y-49475001D01*
X95210000Y-48340000D02*
X96345001Y-49475001D01*
X94680000Y-48340000D02*
X95210000Y-48340000D01*
X93300000Y-48340000D02*
X94680000Y-48340000D01*
X92890000Y-48750000D02*
X93300000Y-48340000D01*
X92150000Y-48750000D02*
X92890000Y-48750000D01*
X87539999Y-45875000D02*
X87539999Y-46332201D01*
X87539999Y-46332201D02*
X87565000Y-46357202D01*
X87565000Y-46357202D02*
X87565000Y-47265000D01*
X87565000Y-47265000D02*
X89368198Y-49068198D01*
X89368198Y-49068198D02*
X91190000Y-50890000D01*
X96095001Y-50124999D02*
X96955000Y-50124999D01*
X95760000Y-50980000D02*
X95760000Y-50460000D01*
X95380000Y-51360000D02*
X95760000Y-50980000D01*
X95760000Y-50460000D02*
X96095001Y-50124999D01*
X94680000Y-51360000D02*
X95380000Y-51360000D01*
X93390000Y-51360000D02*
X94680000Y-51360000D01*
X92920000Y-50890000D02*
X93390000Y-51360000D01*
X92150000Y-50890000D02*
X92920000Y-50890000D01*
X93360000Y-49360000D02*
X94680000Y-49360000D01*
X94680000Y-50340000D02*
X94680000Y-49360000D01*
D34*
X89440300Y-44970001D02*
X90329999Y-44970001D01*
X90760000Y-44540000D02*
X91725000Y-44540000D01*
X90329999Y-44970001D02*
X90760000Y-44540000D01*
D36*
X102280000Y-53900000D02*
X102860000Y-53900000D01*
X101790000Y-53410000D02*
X102280000Y-53900000D01*
X101790000Y-51160000D02*
X101790000Y-53410000D01*
X101405001Y-50775001D02*
X101790000Y-51160000D01*
X100765000Y-50775001D02*
X101405001Y-50775001D01*
D34*
X84495000Y-45875000D02*
X85540000Y-45875000D01*
X83730000Y-46640000D02*
X84495000Y-45875000D01*
X83730000Y-49930000D02*
X83730000Y-46640000D01*
X82450000Y-51210000D02*
X83730000Y-49930000D01*
X81335000Y-51210000D02*
X82450000Y-51210000D01*
D36*
X83820001Y-42969999D02*
X84639700Y-42969999D01*
X83470001Y-42969999D02*
X83820001Y-42969999D01*
X82980002Y-42480000D02*
X83470001Y-42969999D01*
X82165000Y-42480000D02*
X82980002Y-42480000D01*
D37*
X104620000Y-54005000D02*
X104525000Y-53910000D01*
X104620000Y-55660000D02*
X104620000Y-54005000D01*
D34*
X79685000Y-53235000D02*
X79700000Y-53250000D01*
X79685000Y-51210000D02*
X79685000Y-53235000D01*
D37*
X62795000Y-45830000D02*
X63450000Y-45175000D01*
X60810000Y-45830000D02*
X62795000Y-45830000D01*
X93810000Y-57510000D02*
X92120000Y-57510000D01*
X94770000Y-58470000D02*
X93810000Y-57510000D01*
X95995000Y-58470000D02*
X94770000Y-58470000D01*
X88060000Y-57510000D02*
X88070000Y-57520000D01*
X83765000Y-57510000D02*
X88060000Y-57510000D01*
X102870000Y-56860000D02*
X103670000Y-57660000D01*
X96060000Y-56860000D02*
X102870000Y-56860000D01*
X93910000Y-54710000D02*
X96060000Y-56860000D01*
X92120000Y-54710000D02*
X93910000Y-54710000D01*
D34*
X81700000Y-54960000D02*
X82480000Y-55740000D01*
X81700000Y-54200000D02*
X81700000Y-54960000D01*
X82480000Y-55740000D02*
X85850000Y-55740000D01*
X86800000Y-54790000D02*
X88070000Y-54790000D01*
X85850000Y-55740000D02*
X86800000Y-54790000D01*
D39*
X67902845Y-28986845D02*
X67898879Y-32235000D01*
X65027175Y-32235000D01*
X64947155Y-32115242D01*
X64764758Y-31932845D01*
X64550281Y-31789536D01*
X64311967Y-31690823D01*
X64058974Y-31640500D01*
X63801026Y-31640500D01*
X63548033Y-31690823D01*
X63309719Y-31789536D01*
X63095242Y-31932845D01*
X62912845Y-32115242D01*
X62769536Y-32329719D01*
X62670823Y-32568033D01*
X62620500Y-32821026D01*
X62620500Y-33078974D01*
X62670823Y-33331967D01*
X62769536Y-33570281D01*
X62912845Y-33784758D01*
X63095242Y-33967155D01*
X63309719Y-34110464D01*
X63548033Y-34209177D01*
X63801026Y-34259500D01*
X64058974Y-34259500D01*
X64311967Y-34209177D01*
X64550281Y-34110464D01*
X64764758Y-33967155D01*
X64947155Y-33784758D01*
X65027175Y-33665000D01*
X67897133Y-33665000D01*
X67893155Y-36923000D01*
X59947155Y-36923000D01*
X59956845Y-28977155D01*
X67902845Y-28986845D01*
G04 #@! TA.AperFunction,Conductor*
D40*
G36*
X67902845Y-28986845D02*
G01*
X67898879Y-32235000D01*
X65027175Y-32235000D01*
X64947155Y-32115242D01*
X64764758Y-31932845D01*
X64550281Y-31789536D01*
X64311967Y-31690823D01*
X64058974Y-31640500D01*
X63801026Y-31640500D01*
X63548033Y-31690823D01*
X63309719Y-31789536D01*
X63095242Y-31932845D01*
X62912845Y-32115242D01*
X62769536Y-32329719D01*
X62670823Y-32568033D01*
X62620500Y-32821026D01*
X62620500Y-33078974D01*
X62670823Y-33331967D01*
X62769536Y-33570281D01*
X62912845Y-33784758D01*
X63095242Y-33967155D01*
X63309719Y-34110464D01*
X63548033Y-34209177D01*
X63801026Y-34259500D01*
X64058974Y-34259500D01*
X64311967Y-34209177D01*
X64550281Y-34110464D01*
X64764758Y-33967155D01*
X64947155Y-33784758D01*
X65027175Y-33665000D01*
X67897133Y-33665000D01*
X67893155Y-36923000D01*
X59947155Y-36923000D01*
X59956845Y-28977155D01*
X67902845Y-28986845D01*
G37*
G04 #@! TD.AperFunction*
D39*
X118700405Y-45492159D02*
X118702959Y-53432845D01*
X110756959Y-53423155D01*
X110755921Y-50195000D01*
X113636166Y-50195000D01*
X113712845Y-50309758D01*
X113895242Y-50492155D01*
X114109719Y-50635464D01*
X114348033Y-50734177D01*
X114601026Y-50784500D01*
X114858974Y-50784500D01*
X115111967Y-50734177D01*
X115350281Y-50635464D01*
X115564758Y-50492155D01*
X115747155Y-50309758D01*
X115890464Y-50095281D01*
X115989177Y-49856967D01*
X116039500Y-49603974D01*
X116039500Y-49346026D01*
X115989177Y-49093033D01*
X115890464Y-48854719D01*
X115747155Y-48640242D01*
X115564758Y-48457845D01*
X115350281Y-48314536D01*
X115111967Y-48215823D01*
X114858974Y-48165500D01*
X114601026Y-48165500D01*
X114348033Y-48215823D01*
X114109719Y-48314536D01*
X113895242Y-48457845D01*
X113712845Y-48640242D01*
X113629484Y-48765000D01*
X110755461Y-48765000D01*
X110754405Y-45482469D01*
X118700405Y-45492159D01*
G04 #@! TA.AperFunction,Conductor*
D40*
G36*
X118700405Y-45492159D02*
G01*
X118702959Y-53432845D01*
X110756959Y-53423155D01*
X110755921Y-50195000D01*
X113636166Y-50195000D01*
X113712845Y-50309758D01*
X113895242Y-50492155D01*
X114109719Y-50635464D01*
X114348033Y-50734177D01*
X114601026Y-50784500D01*
X114858974Y-50784500D01*
X115111967Y-50734177D01*
X115350281Y-50635464D01*
X115564758Y-50492155D01*
X115747155Y-50309758D01*
X115890464Y-50095281D01*
X115989177Y-49856967D01*
X116039500Y-49603974D01*
X116039500Y-49346026D01*
X115989177Y-49093033D01*
X115890464Y-48854719D01*
X115747155Y-48640242D01*
X115564758Y-48457845D01*
X115350281Y-48314536D01*
X115111967Y-48215823D01*
X114858974Y-48165500D01*
X114601026Y-48165500D01*
X114348033Y-48215823D01*
X114109719Y-48314536D01*
X113895242Y-48457845D01*
X113712845Y-48640242D01*
X113629484Y-48765000D01*
X110755461Y-48765000D01*
X110754405Y-45482469D01*
X118700405Y-45492159D01*
G37*
G04 #@! TD.AperFunction*
D39*
X108986592Y-30951608D02*
X109153750Y-30968072D01*
X109666250Y-30968072D01*
X109833408Y-30951608D01*
X109871675Y-30940000D01*
X110100405Y-30940000D01*
X110063512Y-31061623D01*
X110046928Y-31230000D01*
X110046928Y-31680000D01*
X110063512Y-31848377D01*
X110112625Y-32010283D01*
X110133000Y-32048402D01*
X110133000Y-32723000D01*
X105620000Y-32723000D01*
X105595224Y-32725440D01*
X105571399Y-32732667D01*
X105549443Y-32744403D01*
X105530197Y-32760197D01*
X105514403Y-32779443D01*
X105502667Y-32801399D01*
X105495440Y-32825224D01*
X105493000Y-32850000D01*
X105493000Y-35913713D01*
X102197000Y-35932282D01*
X102197000Y-30946845D01*
X105580283Y-30942714D01*
X105691623Y-30976488D01*
X105860000Y-30993072D01*
X106360000Y-30993072D01*
X106528377Y-30976488D01*
X106643998Y-30941415D01*
X107210754Y-30940723D01*
X107361623Y-30986488D01*
X107530000Y-31003072D01*
X108030000Y-31003072D01*
X108198377Y-30986488D01*
X108353847Y-30939327D01*
X108943734Y-30938607D01*
X108986592Y-30951608D01*
G04 #@! TA.AperFunction,Conductor*
D40*
G36*
X108986592Y-30951608D02*
G01*
X109153750Y-30968072D01*
X109666250Y-30968072D01*
X109833408Y-30951608D01*
X109871675Y-30940000D01*
X110100405Y-30940000D01*
X110063512Y-31061623D01*
X110046928Y-31230000D01*
X110046928Y-31680000D01*
X110063512Y-31848377D01*
X110112625Y-32010283D01*
X110133000Y-32048402D01*
X110133000Y-32723000D01*
X105620000Y-32723000D01*
X105595224Y-32725440D01*
X105571399Y-32732667D01*
X105549443Y-32744403D01*
X105530197Y-32760197D01*
X105514403Y-32779443D01*
X105502667Y-32801399D01*
X105495440Y-32825224D01*
X105493000Y-32850000D01*
X105493000Y-35913713D01*
X102197000Y-35932282D01*
X102197000Y-30946845D01*
X105580283Y-30942714D01*
X105691623Y-30976488D01*
X105860000Y-30993072D01*
X106360000Y-30993072D01*
X106528377Y-30976488D01*
X106643998Y-30941415D01*
X107210754Y-30940723D01*
X107361623Y-30986488D01*
X107530000Y-31003072D01*
X108030000Y-31003072D01*
X108198377Y-30986488D01*
X108353847Y-30939327D01*
X108943734Y-30938607D01*
X108986592Y-30951608D01*
G37*
G04 #@! TD.AperFunction*
D39*
X103002590Y-29283000D02*
X101435000Y-29283000D01*
X101410224Y-29285440D01*
X101386399Y-29292667D01*
X101364443Y-29304403D01*
X101345197Y-29320197D01*
X101329403Y-29339443D01*
X101317667Y-29361399D01*
X101310440Y-29385224D01*
X101308000Y-29410195D01*
X101317804Y-35783000D01*
X99487000Y-35783000D01*
X99487000Y-35110945D01*
X99520812Y-34999482D01*
X99533072Y-34875000D01*
X99533072Y-33125000D01*
X99520812Y-33000518D01*
X99487000Y-32889055D01*
X99487000Y-30860000D01*
X99484560Y-30835224D01*
X99477333Y-30811399D01*
X99465597Y-30789443D01*
X99449803Y-30770197D01*
X99430557Y-30754403D01*
X99408601Y-30742667D01*
X99384776Y-30735440D01*
X99360000Y-30733000D01*
X93027000Y-30733000D01*
X93027000Y-26446876D01*
X102993410Y-26437124D01*
X103002590Y-29283000D01*
G04 #@! TA.AperFunction,Conductor*
D40*
G36*
X103002590Y-29283000D02*
G01*
X101435000Y-29283000D01*
X101410224Y-29285440D01*
X101386399Y-29292667D01*
X101364443Y-29304403D01*
X101345197Y-29320197D01*
X101329403Y-29339443D01*
X101317667Y-29361399D01*
X101310440Y-29385224D01*
X101308000Y-29410195D01*
X101317804Y-35783000D01*
X99487000Y-35783000D01*
X99487000Y-35110945D01*
X99520812Y-34999482D01*
X99533072Y-34875000D01*
X99533072Y-33125000D01*
X99520812Y-33000518D01*
X99487000Y-32889055D01*
X99487000Y-30860000D01*
X99484560Y-30835224D01*
X99477333Y-30811399D01*
X99465597Y-30789443D01*
X99449803Y-30770197D01*
X99430557Y-30754403D01*
X99408601Y-30742667D01*
X99384776Y-30735440D01*
X99360000Y-30733000D01*
X93027000Y-30733000D01*
X93027000Y-26446876D01*
X102993410Y-26437124D01*
X103002590Y-29283000D01*
G37*
G04 #@! TD.AperFunction*
D39*
X92123000Y-31369770D02*
X92125396Y-31394551D01*
X92132579Y-31418388D01*
X92144276Y-31440366D01*
X92160035Y-31459640D01*
X92179251Y-31475469D01*
X92201187Y-31487244D01*
X92224998Y-31494515D01*
X92250000Y-31497000D01*
X94364351Y-31497000D01*
X94366928Y-31737957D01*
X94366928Y-32100000D01*
X94371272Y-32144101D01*
X94381632Y-33112827D01*
X87227000Y-33103171D01*
X87227000Y-28840000D01*
X87224560Y-28815224D01*
X87217333Y-28791399D01*
X87205597Y-28769443D01*
X87189803Y-28750197D01*
X87170557Y-28734403D01*
X87148601Y-28722667D01*
X87124776Y-28715440D01*
X87100000Y-28713000D01*
X80847431Y-28713000D01*
X80855712Y-26270000D01*
X92132239Y-26270000D01*
X92123000Y-31369770D01*
G04 #@! TA.AperFunction,Conductor*
D40*
G36*
X92123000Y-31369770D02*
G01*
X92125396Y-31394551D01*
X92132579Y-31418388D01*
X92144276Y-31440366D01*
X92160035Y-31459640D01*
X92179251Y-31475469D01*
X92201187Y-31487244D01*
X92224998Y-31494515D01*
X92250000Y-31497000D01*
X94364351Y-31497000D01*
X94366928Y-31737957D01*
X94366928Y-32100000D01*
X94371272Y-32144101D01*
X94381632Y-33112827D01*
X87227000Y-33103171D01*
X87227000Y-28840000D01*
X87224560Y-28815224D01*
X87217333Y-28791399D01*
X87205597Y-28769443D01*
X87189803Y-28750197D01*
X87170557Y-28734403D01*
X87148601Y-28722667D01*
X87124776Y-28715440D01*
X87100000Y-28713000D01*
X80847431Y-28713000D01*
X80855712Y-26270000D01*
X92132239Y-26270000D01*
X92123000Y-31369770D01*
G37*
G04 #@! TD.AperFunction*
M02*
