G04 #@! TF.GenerationSoftware,KiCad,Pcbnew,(5.1.12)-1*
G04 #@! TF.CreationDate,2025-12-17T12:17:42-06:00*
G04 #@! TF.ProjectId,Fuente_40Vdc_Opcion2,4675656e-7465-45f3-9430-5664635f4f70,rev?*
G04 #@! TF.SameCoordinates,Original*
G04 #@! TF.FileFunction,Copper,L1,Top*
G04 #@! TF.FilePolarity,Positive*
%FSLAX46Y46*%
G04 Gerber Fmt 4.6, Leading zero omitted, Abs format (unit mm)*
G04 Created by KiCad (PCBNEW (5.1.12)-1) date 2025-12-17 12:17:42*
%MOMM*%
%LPD*%
G01*
G04 APERTURE LIST*
G04 #@! TA.AperFunction,SMDPad,CuDef*
%ADD10R,3.550000X4.900000*%
G04 #@! TD*
G04 #@! TA.AperFunction,ComponentPad*
%ADD11C,3.000000*%
G04 #@! TD*
G04 #@! TA.AperFunction,ComponentPad*
%ADD12R,3.000000X3.000000*%
G04 #@! TD*
G04 #@! TA.AperFunction,SMDPad,CuDef*
%ADD13R,2.150000X4.100000*%
G04 #@! TD*
G04 #@! TA.AperFunction,ComponentPad*
%ADD14C,1.600000*%
G04 #@! TD*
G04 #@! TA.AperFunction,ComponentPad*
%ADD15R,1.600000X1.600000*%
G04 #@! TD*
G04 #@! TA.AperFunction,SMDPad,CuDef*
%ADD16R,2.400000X3.200000*%
G04 #@! TD*
G04 #@! TA.AperFunction,SMDPad,CuDef*
%ADD17R,1.525000X0.700000*%
G04 #@! TD*
G04 #@! TA.AperFunction,SMDPad,CuDef*
%ADD18R,3.150000X2.200000*%
G04 #@! TD*
G04 #@! TA.AperFunction,ViaPad*
%ADD19C,0.800000*%
G04 #@! TD*
G04 #@! TA.AperFunction,ViaPad*
%ADD20C,0.600000*%
G04 #@! TD*
G04 #@! TA.AperFunction,Conductor*
%ADD21C,0.400000*%
G04 #@! TD*
G04 #@! TA.AperFunction,Conductor*
%ADD22C,0.254000*%
G04 #@! TD*
G04 #@! TA.AperFunction,Conductor*
%ADD23C,0.100000*%
G04 #@! TD*
G04 APERTURE END LIST*
G04 #@! TA.AperFunction,SMDPad,CuDef*
G36*
G01*
X159115000Y-85445000D02*
X159665000Y-85445000D01*
G75*
G02*
X159865000Y-85645000I0J-200000D01*
G01*
X159865000Y-86045000D01*
G75*
G02*
X159665000Y-86245000I-200000J0D01*
G01*
X159115000Y-86245000D01*
G75*
G02*
X158915000Y-86045000I0J200000D01*
G01*
X158915000Y-85645000D01*
G75*
G02*
X159115000Y-85445000I200000J0D01*
G01*
G37*
G04 #@! TD.AperFunction*
G04 #@! TA.AperFunction,SMDPad,CuDef*
G36*
G01*
X159115000Y-83795000D02*
X159665000Y-83795000D01*
G75*
G02*
X159865000Y-83995000I0J-200000D01*
G01*
X159865000Y-84395000D01*
G75*
G02*
X159665000Y-84595000I-200000J0D01*
G01*
X159115000Y-84595000D01*
G75*
G02*
X158915000Y-84395000I0J200000D01*
G01*
X158915000Y-83995000D01*
G75*
G02*
X159115000Y-83795000I200000J0D01*
G01*
G37*
G04 #@! TD.AperFunction*
G04 #@! TA.AperFunction,SMDPad,CuDef*
G36*
G01*
X158765000Y-90645000D02*
X158765000Y-89395000D01*
G75*
G02*
X159015000Y-89145000I250000J0D01*
G01*
X159765000Y-89145000D01*
G75*
G02*
X160015000Y-89395000I0J-250000D01*
G01*
X160015000Y-90645000D01*
G75*
G02*
X159765000Y-90895000I-250000J0D01*
G01*
X159015000Y-90895000D01*
G75*
G02*
X158765000Y-90645000I0J250000D01*
G01*
G37*
G04 #@! TD.AperFunction*
G04 #@! TA.AperFunction,SMDPad,CuDef*
G36*
G01*
X155965000Y-90645000D02*
X155965000Y-89395000D01*
G75*
G02*
X156215000Y-89145000I250000J0D01*
G01*
X156965000Y-89145000D01*
G75*
G02*
X157215000Y-89395000I0J-250000D01*
G01*
X157215000Y-90645000D01*
G75*
G02*
X156965000Y-90895000I-250000J0D01*
G01*
X156215000Y-90895000D01*
G75*
G02*
X155965000Y-90645000I0J250000D01*
G01*
G37*
G04 #@! TD.AperFunction*
D10*
X125150000Y-82360000D03*
X136650000Y-82360000D03*
D11*
X96770000Y-83960000D03*
D12*
X96770000Y-89040000D03*
D11*
X174330000Y-72040000D03*
D12*
X174330000Y-77120000D03*
D11*
X96860000Y-72040000D03*
D12*
X96860000Y-77120000D03*
D11*
X174360000Y-83960000D03*
D12*
X174360000Y-89040000D03*
G04 #@! TA.AperFunction,SMDPad,CuDef*
G36*
G01*
X144875000Y-88900000D02*
X144875000Y-88400000D01*
G75*
G02*
X145100000Y-88175000I225000J0D01*
G01*
X145550000Y-88175000D01*
G75*
G02*
X145775000Y-88400000I0J-225000D01*
G01*
X145775000Y-88900000D01*
G75*
G02*
X145550000Y-89125000I-225000J0D01*
G01*
X145100000Y-89125000D01*
G75*
G02*
X144875000Y-88900000I0J225000D01*
G01*
G37*
G04 #@! TD.AperFunction*
G04 #@! TA.AperFunction,SMDPad,CuDef*
G36*
G01*
X143325000Y-88900000D02*
X143325000Y-88400000D01*
G75*
G02*
X143550000Y-88175000I225000J0D01*
G01*
X144000000Y-88175000D01*
G75*
G02*
X144225000Y-88400000I0J-225000D01*
G01*
X144225000Y-88900000D01*
G75*
G02*
X144000000Y-89125000I-225000J0D01*
G01*
X143550000Y-89125000D01*
G75*
G02*
X143325000Y-88900000I0J225000D01*
G01*
G37*
G04 #@! TD.AperFunction*
G04 #@! TA.AperFunction,SMDPad,CuDef*
G36*
G01*
X144875000Y-87270000D02*
X144875000Y-86770000D01*
G75*
G02*
X145100000Y-86545000I225000J0D01*
G01*
X145550000Y-86545000D01*
G75*
G02*
X145775000Y-86770000I0J-225000D01*
G01*
X145775000Y-87270000D01*
G75*
G02*
X145550000Y-87495000I-225000J0D01*
G01*
X145100000Y-87495000D01*
G75*
G02*
X144875000Y-87270000I0J225000D01*
G01*
G37*
G04 #@! TD.AperFunction*
G04 #@! TA.AperFunction,SMDPad,CuDef*
G36*
G01*
X143325000Y-87270000D02*
X143325000Y-86770000D01*
G75*
G02*
X143550000Y-86545000I225000J0D01*
G01*
X144000000Y-86545000D01*
G75*
G02*
X144225000Y-86770000I0J-225000D01*
G01*
X144225000Y-87270000D01*
G75*
G02*
X144000000Y-87495000I-225000J0D01*
G01*
X143550000Y-87495000D01*
G75*
G02*
X143325000Y-87270000I0J225000D01*
G01*
G37*
G04 #@! TD.AperFunction*
G04 #@! TA.AperFunction,SMDPad,CuDef*
G36*
G01*
X147140000Y-80895000D02*
X147640000Y-80895000D01*
G75*
G02*
X147865000Y-81120000I0J-225000D01*
G01*
X147865000Y-81570000D01*
G75*
G02*
X147640000Y-81795000I-225000J0D01*
G01*
X147140000Y-81795000D01*
G75*
G02*
X146915000Y-81570000I0J225000D01*
G01*
X146915000Y-81120000D01*
G75*
G02*
X147140000Y-80895000I225000J0D01*
G01*
G37*
G04 #@! TD.AperFunction*
G04 #@! TA.AperFunction,SMDPad,CuDef*
G36*
G01*
X147140000Y-79345000D02*
X147640000Y-79345000D01*
G75*
G02*
X147865000Y-79570000I0J-225000D01*
G01*
X147865000Y-80020000D01*
G75*
G02*
X147640000Y-80245000I-225000J0D01*
G01*
X147140000Y-80245000D01*
G75*
G02*
X146915000Y-80020000I0J225000D01*
G01*
X146915000Y-79570000D01*
G75*
G02*
X147140000Y-79345000I225000J0D01*
G01*
G37*
G04 #@! TD.AperFunction*
G04 #@! TA.AperFunction,SMDPad,CuDef*
G36*
G01*
X148150000Y-90029999D02*
X148150000Y-90930001D01*
G75*
G02*
X147900001Y-91180000I-249999J0D01*
G01*
X147374999Y-91180000D01*
G75*
G02*
X147125000Y-90930001I0J249999D01*
G01*
X147125000Y-90029999D01*
G75*
G02*
X147374999Y-89780000I249999J0D01*
G01*
X147900001Y-89780000D01*
G75*
G02*
X148150000Y-90029999I0J-249999D01*
G01*
G37*
G04 #@! TD.AperFunction*
G04 #@! TA.AperFunction,SMDPad,CuDef*
G36*
G01*
X149975000Y-90030100D02*
X149975000Y-90929900D01*
G75*
G02*
X149724900Y-91180000I-250100J0D01*
G01*
X149200100Y-91180000D01*
G75*
G02*
X148950000Y-90929900I0J250100D01*
G01*
X148950000Y-90030100D01*
G75*
G02*
X149200100Y-89780000I250100J0D01*
G01*
X149724900Y-89780000D01*
G75*
G02*
X149975000Y-90030100I0J-250100D01*
G01*
G37*
G04 #@! TD.AperFunction*
G04 #@! TA.AperFunction,SMDPad,CuDef*
G36*
G01*
X144225000Y-90039999D02*
X144225000Y-90940001D01*
G75*
G02*
X143975001Y-91190000I-249999J0D01*
G01*
X143449999Y-91190000D01*
G75*
G02*
X143200000Y-90940001I0J249999D01*
G01*
X143200000Y-90039999D01*
G75*
G02*
X143449999Y-89790000I249999J0D01*
G01*
X143975001Y-89790000D01*
G75*
G02*
X144225000Y-90039999I0J-249999D01*
G01*
G37*
G04 #@! TD.AperFunction*
G04 #@! TA.AperFunction,SMDPad,CuDef*
G36*
G01*
X146050000Y-90039999D02*
X146050000Y-90940001D01*
G75*
G02*
X145800001Y-91190000I-249999J0D01*
G01*
X145274999Y-91190000D01*
G75*
G02*
X145025000Y-90940001I0J249999D01*
G01*
X145025000Y-90039999D01*
G75*
G02*
X145274999Y-89790000I249999J0D01*
G01*
X145800001Y-89790000D01*
G75*
G02*
X146050000Y-90039999I0J-249999D01*
G01*
G37*
G04 #@! TD.AperFunction*
G04 #@! TA.AperFunction,SMDPad,CuDef*
G36*
G01*
X140600000Y-90039999D02*
X140600000Y-90940001D01*
G75*
G02*
X140350001Y-91190000I-249999J0D01*
G01*
X139824999Y-91190000D01*
G75*
G02*
X139575000Y-90940001I0J249999D01*
G01*
X139575000Y-90039999D01*
G75*
G02*
X139824999Y-89790000I249999J0D01*
G01*
X140350001Y-89790000D01*
G75*
G02*
X140600000Y-90039999I0J-249999D01*
G01*
G37*
G04 #@! TD.AperFunction*
G04 #@! TA.AperFunction,SMDPad,CuDef*
G36*
G01*
X142425000Y-90039999D02*
X142425000Y-90940001D01*
G75*
G02*
X142175001Y-91190000I-249999J0D01*
G01*
X141649999Y-91190000D01*
G75*
G02*
X141400000Y-90940001I0J249999D01*
G01*
X141400000Y-90039999D01*
G75*
G02*
X141649999Y-89790000I249999J0D01*
G01*
X142175001Y-89790000D01*
G75*
G02*
X142425000Y-90039999I0J-249999D01*
G01*
G37*
G04 #@! TD.AperFunction*
G04 #@! TA.AperFunction,SMDPad,CuDef*
G36*
G01*
X142120001Y-87340000D02*
X141219999Y-87340000D01*
G75*
G02*
X140970000Y-87090001I0J249999D01*
G01*
X140970000Y-86564999D01*
G75*
G02*
X141219999Y-86315000I249999J0D01*
G01*
X142120001Y-86315000D01*
G75*
G02*
X142370000Y-86564999I0J-249999D01*
G01*
X142370000Y-87090001D01*
G75*
G02*
X142120001Y-87340000I-249999J0D01*
G01*
G37*
G04 #@! TD.AperFunction*
G04 #@! TA.AperFunction,SMDPad,CuDef*
G36*
G01*
X142120001Y-89165000D02*
X141219999Y-89165000D01*
G75*
G02*
X140970000Y-88915001I0J249999D01*
G01*
X140970000Y-88389999D01*
G75*
G02*
X141219999Y-88140000I249999J0D01*
G01*
X142120001Y-88140000D01*
G75*
G02*
X142370000Y-88389999I0J-249999D01*
G01*
X142370000Y-88915001D01*
G75*
G02*
X142120001Y-89165000I-249999J0D01*
G01*
G37*
G04 #@! TD.AperFunction*
G04 #@! TA.AperFunction,SMDPad,CuDef*
G36*
G01*
X153260001Y-90650000D02*
X152359999Y-90650000D01*
G75*
G02*
X152110000Y-90400001I0J249999D01*
G01*
X152110000Y-89874999D01*
G75*
G02*
X152359999Y-89625000I249999J0D01*
G01*
X153260001Y-89625000D01*
G75*
G02*
X153510000Y-89874999I0J-249999D01*
G01*
X153510000Y-90400001D01*
G75*
G02*
X153260001Y-90650000I-249999J0D01*
G01*
G37*
G04 #@! TD.AperFunction*
G04 #@! TA.AperFunction,SMDPad,CuDef*
G36*
G01*
X153259900Y-92475000D02*
X152360100Y-92475000D01*
G75*
G02*
X152110000Y-92224900I0J250100D01*
G01*
X152110000Y-91700100D01*
G75*
G02*
X152360100Y-91450000I250100J0D01*
G01*
X153259900Y-91450000D01*
G75*
G02*
X153510000Y-91700100I0J-250100D01*
G01*
X153510000Y-92224900D01*
G75*
G02*
X153259900Y-92475000I-250100J0D01*
G01*
G37*
G04 #@! TD.AperFunction*
G04 #@! TA.AperFunction,SMDPad,CuDef*
G36*
G01*
X156649999Y-85610000D02*
X157550001Y-85610000D01*
G75*
G02*
X157800000Y-85859999I0J-249999D01*
G01*
X157800000Y-86385001D01*
G75*
G02*
X157550001Y-86635000I-249999J0D01*
G01*
X156649999Y-86635000D01*
G75*
G02*
X156400000Y-86385001I0J249999D01*
G01*
X156400000Y-85859999D01*
G75*
G02*
X156649999Y-85610000I249999J0D01*
G01*
G37*
G04 #@! TD.AperFunction*
G04 #@! TA.AperFunction,SMDPad,CuDef*
G36*
G01*
X156650100Y-83785000D02*
X157549900Y-83785000D01*
G75*
G02*
X157800000Y-84035100I0J-250100D01*
G01*
X157800000Y-84559900D01*
G75*
G02*
X157549900Y-84810000I-250100J0D01*
G01*
X156650100Y-84810000D01*
G75*
G02*
X156400000Y-84559900I0J250100D01*
G01*
X156400000Y-84035100D01*
G75*
G02*
X156650100Y-83785000I250100J0D01*
G01*
G37*
G04 #@! TD.AperFunction*
G04 #@! TA.AperFunction,SMDPad,CuDef*
G36*
G01*
X121185450Y-78255000D02*
X119884550Y-78255000D01*
G75*
G02*
X119635000Y-78005450I0J249550D01*
G01*
X119635000Y-77354550D01*
G75*
G02*
X119884550Y-77105000I249550J0D01*
G01*
X121185450Y-77105000D01*
G75*
G02*
X121435000Y-77354550I0J-249550D01*
G01*
X121435000Y-78005450D01*
G75*
G02*
X121185450Y-78255000I-249550J0D01*
G01*
G37*
G04 #@! TD.AperFunction*
G04 #@! TA.AperFunction,SMDPad,CuDef*
G36*
G01*
X121185450Y-81205000D02*
X119884550Y-81205000D01*
G75*
G02*
X119635000Y-80955450I0J249550D01*
G01*
X119635000Y-80304550D01*
G75*
G02*
X119884550Y-80055000I249550J0D01*
G01*
X121185450Y-80055000D01*
G75*
G02*
X121435000Y-80304550I0J-249550D01*
G01*
X121435000Y-80955450D01*
G75*
G02*
X121185450Y-81205000I-249550J0D01*
G01*
G37*
G04 #@! TD.AperFunction*
D13*
X109950000Y-73850000D03*
X109950000Y-82350000D03*
G04 #@! TA.AperFunction,SMDPad,CuDef*
G36*
G01*
X118410450Y-78255000D02*
X117109550Y-78255000D01*
G75*
G02*
X116860000Y-78005450I0J249550D01*
G01*
X116860000Y-77354550D01*
G75*
G02*
X117109550Y-77105000I249550J0D01*
G01*
X118410450Y-77105000D01*
G75*
G02*
X118660000Y-77354550I0J-249550D01*
G01*
X118660000Y-78005450D01*
G75*
G02*
X118410450Y-78255000I-249550J0D01*
G01*
G37*
G04 #@! TD.AperFunction*
G04 #@! TA.AperFunction,SMDPad,CuDef*
G36*
G01*
X118410450Y-81205000D02*
X117109550Y-81205000D01*
G75*
G02*
X116860000Y-80955450I0J249550D01*
G01*
X116860000Y-80304550D01*
G75*
G02*
X117109550Y-80055000I249550J0D01*
G01*
X118410450Y-80055000D01*
G75*
G02*
X118660000Y-80304550I0J-249550D01*
G01*
X118660000Y-80955450D01*
G75*
G02*
X118410450Y-81205000I-249550J0D01*
G01*
G37*
G04 #@! TD.AperFunction*
G04 #@! TA.AperFunction,SMDPad,CuDef*
G36*
G01*
X151395000Y-82590000D02*
X151395000Y-83090000D01*
G75*
G02*
X151170000Y-83315000I-225000J0D01*
G01*
X150720000Y-83315000D01*
G75*
G02*
X150495000Y-83090000I0J225000D01*
G01*
X150495000Y-82590000D01*
G75*
G02*
X150720000Y-82365000I225000J0D01*
G01*
X151170000Y-82365000D01*
G75*
G02*
X151395000Y-82590000I0J-225000D01*
G01*
G37*
G04 #@! TD.AperFunction*
G04 #@! TA.AperFunction,SMDPad,CuDef*
G36*
G01*
X152945000Y-82590000D02*
X152945000Y-83090000D01*
G75*
G02*
X152720000Y-83315000I-225000J0D01*
G01*
X152270000Y-83315000D01*
G75*
G02*
X152045000Y-83090000I0J225000D01*
G01*
X152045000Y-82590000D01*
G75*
G02*
X152270000Y-82365000I225000J0D01*
G01*
X152720000Y-82365000D01*
G75*
G02*
X152945000Y-82590000I0J-225000D01*
G01*
G37*
G04 #@! TD.AperFunction*
G04 #@! TA.AperFunction,SMDPad,CuDef*
G36*
G01*
X156805450Y-79295000D02*
X154604550Y-79295000D01*
G75*
G02*
X154355000Y-79045450I0J249550D01*
G01*
X154355000Y-78394550D01*
G75*
G02*
X154604550Y-78145000I249550J0D01*
G01*
X156805450Y-78145000D01*
G75*
G02*
X157055000Y-78394550I0J-249550D01*
G01*
X157055000Y-79045450D01*
G75*
G02*
X156805450Y-79295000I-249550J0D01*
G01*
G37*
G04 #@! TD.AperFunction*
G04 #@! TA.AperFunction,SMDPad,CuDef*
G36*
G01*
X156805450Y-82245000D02*
X154604550Y-82245000D01*
G75*
G02*
X154355000Y-81995450I0J249550D01*
G01*
X154355000Y-81344550D01*
G75*
G02*
X154604550Y-81095000I249550J0D01*
G01*
X156805450Y-81095000D01*
G75*
G02*
X157055000Y-81344550I0J-249550D01*
G01*
X157055000Y-81995450D01*
G75*
G02*
X156805450Y-82245000I-249550J0D01*
G01*
G37*
G04 #@! TD.AperFunction*
G04 #@! TA.AperFunction,SMDPad,CuDef*
G36*
G01*
X160505450Y-79295000D02*
X158304550Y-79295000D01*
G75*
G02*
X158055000Y-79045450I0J249550D01*
G01*
X158055000Y-78394550D01*
G75*
G02*
X158304550Y-78145000I249550J0D01*
G01*
X160505450Y-78145000D01*
G75*
G02*
X160755000Y-78394550I0J-249550D01*
G01*
X160755000Y-79045450D01*
G75*
G02*
X160505450Y-79295000I-249550J0D01*
G01*
G37*
G04 #@! TD.AperFunction*
G04 #@! TA.AperFunction,SMDPad,CuDef*
G36*
G01*
X160505450Y-82245000D02*
X158304550Y-82245000D01*
G75*
G02*
X158055000Y-81995450I0J249550D01*
G01*
X158055000Y-81344550D01*
G75*
G02*
X158304550Y-81095000I249550J0D01*
G01*
X160505450Y-81095000D01*
G75*
G02*
X160755000Y-81344550I0J-249550D01*
G01*
X160755000Y-81995450D01*
G75*
G02*
X160505450Y-82245000I-249550J0D01*
G01*
G37*
G04 #@! TD.AperFunction*
D14*
X165070000Y-79140000D03*
D15*
X165070000Y-81640000D03*
D16*
X150100000Y-86390000D03*
D17*
X152812000Y-84485000D03*
X152812000Y-85755000D03*
X152812000Y-87025000D03*
X152812000Y-88295000D03*
X147388000Y-88295000D03*
X147388000Y-87025000D03*
X147388000Y-85755000D03*
X147388000Y-84485000D03*
D18*
X142800000Y-74340000D03*
X142800000Y-81340000D03*
D19*
X101550000Y-63780000D03*
X104050000Y-63780000D03*
X106550000Y-63780000D03*
X109050000Y-63780000D03*
X111550000Y-63780000D03*
X114050000Y-63780000D03*
X116550000Y-63780000D03*
X119050000Y-63780000D03*
X121550000Y-63780000D03*
X124050000Y-63780000D03*
X126550000Y-63780000D03*
X129050000Y-63780000D03*
X131550000Y-63780000D03*
X134050000Y-63780000D03*
X136550000Y-63780000D03*
X101550000Y-66280000D03*
X104050000Y-66280000D03*
X106550000Y-66280000D03*
X109050000Y-66280000D03*
X111550000Y-66280000D03*
X114050000Y-66280000D03*
X116550000Y-66280000D03*
X119050000Y-66280000D03*
X121550000Y-66280000D03*
X124050000Y-66280000D03*
X126550000Y-66280000D03*
X129050000Y-66280000D03*
X131550000Y-66280000D03*
X134050000Y-66280000D03*
X136550000Y-66280000D03*
X101550000Y-68780000D03*
X104050000Y-68780000D03*
X106550000Y-68780000D03*
X109050000Y-68780000D03*
X111550000Y-68780000D03*
X114050000Y-68780000D03*
X116550000Y-68780000D03*
X119050000Y-68780000D03*
X121550000Y-68780000D03*
X124050000Y-68780000D03*
X126550000Y-68780000D03*
X129050000Y-68780000D03*
X131550000Y-68780000D03*
X134050000Y-68780000D03*
X136550000Y-68780000D03*
X101550000Y-71280000D03*
X104050000Y-71280000D03*
X106550000Y-71280000D03*
X109050000Y-71280000D03*
X111550000Y-71280000D03*
X114050000Y-71280000D03*
X116550000Y-71280000D03*
X119050000Y-71280000D03*
X121550000Y-71280000D03*
X124050000Y-71280000D03*
X126550000Y-71280000D03*
X129050000Y-71280000D03*
X131550000Y-71280000D03*
X134050000Y-71280000D03*
X136550000Y-71280000D03*
X101550000Y-73780000D03*
X104050000Y-73780000D03*
X106550000Y-73780000D03*
X109050000Y-73780000D03*
X111550000Y-73780000D03*
X114050000Y-73780000D03*
X116550000Y-73780000D03*
X119050000Y-73780000D03*
X121550000Y-73780000D03*
X124050000Y-73780000D03*
X126550000Y-73780000D03*
X129050000Y-73780000D03*
X131550000Y-73780000D03*
X134050000Y-73780000D03*
X136550000Y-73780000D03*
X101550000Y-76280000D03*
X104050000Y-76280000D03*
X106550000Y-76280000D03*
X109050000Y-76280000D03*
X111550000Y-76280000D03*
X114050000Y-76280000D03*
X116550000Y-76280000D03*
X119050000Y-76280000D03*
X102940000Y-87350000D03*
X105440000Y-87350000D03*
X107940000Y-87350000D03*
X110440000Y-87350000D03*
X112940000Y-87350000D03*
X115440000Y-87350000D03*
X117940000Y-87350000D03*
X120440000Y-87350000D03*
X102940000Y-89850000D03*
X105440000Y-89850000D03*
X107940000Y-89850000D03*
X110440000Y-89850000D03*
X112940000Y-89850000D03*
X115440000Y-89850000D03*
X117940000Y-89850000D03*
X120440000Y-89850000D03*
X102940000Y-92350000D03*
X105440000Y-92350000D03*
X107940000Y-92350000D03*
X110440000Y-92350000D03*
X112940000Y-92350000D03*
X115440000Y-92350000D03*
X117940000Y-92350000D03*
X120440000Y-92350000D03*
X122940000Y-92350000D03*
X125440000Y-92350000D03*
X102940000Y-94850000D03*
X105440000Y-94850000D03*
X107940000Y-94850000D03*
X110440000Y-94850000D03*
X112940000Y-94850000D03*
X115440000Y-94850000D03*
X117940000Y-94850000D03*
X120440000Y-94850000D03*
X122940000Y-94850000D03*
X125440000Y-94850000D03*
X102940000Y-97350000D03*
X105440000Y-97350000D03*
X107940000Y-97350000D03*
X110440000Y-97350000D03*
X112940000Y-97350000D03*
X115440000Y-97350000D03*
X117940000Y-97350000D03*
X120440000Y-97350000D03*
X122940000Y-97350000D03*
X125440000Y-97350000D03*
X145690000Y-93080000D03*
X148190000Y-93080000D03*
X150690000Y-93080000D03*
X153190000Y-93080000D03*
X155690000Y-93080000D03*
X158190000Y-93080000D03*
X160690000Y-93080000D03*
X163190000Y-93080000D03*
X165690000Y-93080000D03*
X168190000Y-93080000D03*
X145690000Y-95580000D03*
X148190000Y-95580000D03*
X150690000Y-95580000D03*
X153190000Y-95580000D03*
X155690000Y-95580000D03*
X158190000Y-95580000D03*
X160690000Y-95580000D03*
X163190000Y-95580000D03*
X165690000Y-95580000D03*
X168190000Y-95580000D03*
X145690000Y-98080000D03*
X148190000Y-98080000D03*
X150690000Y-98080000D03*
X153190000Y-98080000D03*
X155690000Y-98080000D03*
X158190000Y-98080000D03*
X160690000Y-98080000D03*
X163190000Y-98080000D03*
X165690000Y-98080000D03*
X168190000Y-98080000D03*
X155680000Y-88080000D03*
X158180000Y-88080000D03*
X160680000Y-88080000D03*
X163180000Y-88080000D03*
X165680000Y-88080000D03*
X168180000Y-88080000D03*
X156560000Y-89980000D03*
X160950000Y-90580000D03*
X163180000Y-90580000D03*
X165680000Y-90580000D03*
X168180000Y-90580000D03*
D20*
X149330000Y-85150000D03*
X150130000Y-85150000D03*
X150930000Y-85150000D03*
X149330000Y-85950000D03*
X150130000Y-85950000D03*
X150930000Y-85950000D03*
X149330000Y-86750000D03*
X150130000Y-86750000D03*
X150930000Y-86750000D03*
X149330000Y-87550000D03*
X150130000Y-87550000D03*
X150930000Y-87550000D03*
D19*
X147240000Y-72620000D03*
X149740000Y-72620000D03*
X152240000Y-72620000D03*
X154740000Y-72620000D03*
X157240000Y-72620000D03*
X159740000Y-72620000D03*
X162240000Y-72620000D03*
X164740000Y-72620000D03*
X167240000Y-72620000D03*
X169740000Y-72620000D03*
X147240000Y-75120000D03*
X149740000Y-75120000D03*
X152240000Y-75120000D03*
X154740000Y-75120000D03*
X157240000Y-75120000D03*
X159740000Y-75120000D03*
X162240000Y-75120000D03*
X164740000Y-75120000D03*
X167240000Y-75120000D03*
X169740000Y-75120000D03*
X147240000Y-77620000D03*
X149740000Y-77620000D03*
X152240000Y-77620000D03*
X154740000Y-77620000D03*
X157240000Y-77620000D03*
X159740000Y-77620000D03*
X169740000Y-77620000D03*
X146380000Y-79790000D03*
X154420000Y-85750000D03*
D21*
X147388000Y-85755000D02*
X142742500Y-85755000D01*
X141670000Y-86827500D02*
X141670000Y-86360000D01*
X142275000Y-85755000D02*
X142742500Y-85755000D01*
X141670000Y-86360000D02*
X142275000Y-85755000D01*
X141862500Y-87020000D02*
X141670000Y-86827500D01*
X143775000Y-87020000D02*
X141862500Y-87020000D01*
X149465000Y-85755000D02*
X150100000Y-86390000D01*
X147388000Y-85755000D02*
X149465000Y-85755000D01*
X152817000Y-85750000D02*
X152812000Y-85755000D01*
X154420000Y-85750000D02*
X152817000Y-85750000D01*
X147385000Y-79790000D02*
X147390000Y-79795000D01*
X146380000Y-79790000D02*
X147385000Y-79790000D01*
X154895000Y-87025000D02*
X152812000Y-87025000D01*
X155797500Y-86122500D02*
X154895000Y-87025000D01*
X157100000Y-86122500D02*
X155797500Y-86122500D01*
X152812000Y-90135500D02*
X152810000Y-90137500D01*
X152812000Y-88295000D02*
X152812000Y-90135500D01*
X147388000Y-90489500D02*
X147387500Y-90490000D01*
X147388000Y-88295000D02*
X147388000Y-89118000D01*
X147637500Y-89367500D02*
X147637500Y-90480000D01*
X147388000Y-89118000D02*
X147637500Y-89367500D01*
X147627500Y-90490000D02*
X147637500Y-90480000D01*
X145537500Y-90490000D02*
X147627500Y-90490000D01*
X145330000Y-87025000D02*
X145325000Y-87020000D01*
X147388000Y-87025000D02*
X145330000Y-87025000D01*
X145325000Y-88650000D02*
X145325000Y-87020000D01*
X140087500Y-90490000D02*
X128490000Y-90490000D01*
X125150000Y-87150000D02*
X125150000Y-82360000D01*
X128490000Y-90490000D02*
X125150000Y-87150000D01*
X141672500Y-88650000D02*
X141670000Y-88652500D01*
X143775000Y-88650000D02*
X141672500Y-88650000D01*
X141912500Y-90490000D02*
X143712500Y-90490000D01*
X159390000Y-85845000D02*
X159390000Y-90020000D01*
D22*
X177933167Y-81055536D02*
X177962885Y-90912062D01*
X177711629Y-91293000D01*
X170666359Y-91293000D01*
X170406929Y-90920070D01*
X170397000Y-85329774D01*
X170394516Y-85305002D01*
X170387246Y-85281191D01*
X170377463Y-85262319D01*
X170049963Y-84742319D01*
X170034694Y-84722655D01*
X170015882Y-84706347D01*
X169994251Y-84694022D01*
X169970630Y-84686155D01*
X169942642Y-84683000D01*
X152074774Y-84663083D01*
X151976905Y-84486920D01*
X151973779Y-83399171D01*
X152016488Y-83258377D01*
X152033072Y-83090000D01*
X152033072Y-82590000D01*
X152016488Y-82421623D01*
X151970535Y-82270134D01*
X151967135Y-81087028D01*
X152148213Y-80876977D01*
X177730149Y-80867019D01*
X177933167Y-81055536D01*
G04 #@! TA.AperFunction,Conductor*
D23*
G36*
X177933167Y-81055536D02*
G01*
X177962885Y-90912062D01*
X177711629Y-91293000D01*
X170666359Y-91293000D01*
X170406929Y-90920070D01*
X170397000Y-85329774D01*
X170394516Y-85305002D01*
X170387246Y-85281191D01*
X170377463Y-85262319D01*
X170049963Y-84742319D01*
X170034694Y-84722655D01*
X170015882Y-84706347D01*
X169994251Y-84694022D01*
X169970630Y-84686155D01*
X169942642Y-84683000D01*
X152074774Y-84663083D01*
X151976905Y-84486920D01*
X151973779Y-83399171D01*
X152016488Y-83258377D01*
X152033072Y-83090000D01*
X152033072Y-82590000D01*
X152016488Y-82421623D01*
X151970535Y-82270134D01*
X151967135Y-81087028D01*
X152148213Y-80876977D01*
X177730149Y-80867019D01*
X177933167Y-81055536D01*
G37*
G04 #@! TD.AperFunction*
D22*
X138723032Y-80268460D02*
X138738443Y-80288013D01*
X138757372Y-80304184D01*
X138779093Y-80316351D01*
X138802770Y-80324047D01*
X138830000Y-80327000D01*
X141020000Y-80327000D01*
X141044776Y-80324560D01*
X141068601Y-80317333D01*
X141090557Y-80305597D01*
X141109803Y-80289803D01*
X141131493Y-80260814D01*
X141155392Y-80217000D01*
X144584608Y-80217000D01*
X144593000Y-80232385D01*
X144593000Y-80690000D01*
X144595440Y-80714776D01*
X144602667Y-80738601D01*
X144617291Y-80764698D01*
X144697291Y-80874698D01*
X144713837Y-80893300D01*
X144733694Y-80908317D01*
X144756100Y-80919171D01*
X144780193Y-80925446D01*
X144800000Y-80927000D01*
X148112008Y-80927000D01*
X148173000Y-80997376D01*
X148173000Y-84642895D01*
X148115433Y-84733000D01*
X134910868Y-84733000D01*
X134817000Y-84630599D01*
X134817000Y-79899444D01*
X134866805Y-79827000D01*
X138440498Y-79827000D01*
X138723032Y-80268460D01*
G04 #@! TA.AperFunction,Conductor*
D23*
G36*
X138723032Y-80268460D02*
G01*
X138738443Y-80288013D01*
X138757372Y-80304184D01*
X138779093Y-80316351D01*
X138802770Y-80324047D01*
X138830000Y-80327000D01*
X141020000Y-80327000D01*
X141044776Y-80324560D01*
X141068601Y-80317333D01*
X141090557Y-80305597D01*
X141109803Y-80289803D01*
X141131493Y-80260814D01*
X141155392Y-80217000D01*
X144584608Y-80217000D01*
X144593000Y-80232385D01*
X144593000Y-80690000D01*
X144595440Y-80714776D01*
X144602667Y-80738601D01*
X144617291Y-80764698D01*
X144697291Y-80874698D01*
X144713837Y-80893300D01*
X144733694Y-80908317D01*
X144756100Y-80919171D01*
X144780193Y-80925446D01*
X144800000Y-80927000D01*
X148112008Y-80927000D01*
X148173000Y-80997376D01*
X148173000Y-84642895D01*
X148115433Y-84733000D01*
X134910868Y-84733000D01*
X134817000Y-84630599D01*
X134817000Y-79899444D01*
X134866805Y-79827000D01*
X138440498Y-79827000D01*
X138723032Y-80268460D01*
G37*
G04 #@! TD.AperFunction*
D22*
X127223000Y-80046981D02*
X127223000Y-84973941D01*
X127069153Y-85223026D01*
X100299953Y-85233000D01*
X100275177Y-85235450D01*
X100251355Y-85242685D01*
X100229403Y-85254430D01*
X100210164Y-85270231D01*
X100200138Y-85281537D01*
X99760138Y-85841537D01*
X99746749Y-85862527D01*
X99737713Y-85885725D01*
X99733000Y-85919755D01*
X99723084Y-91066199D01*
X99468019Y-91393000D01*
X95114109Y-91393000D01*
X94867000Y-91058207D01*
X94867000Y-80678903D01*
X95176566Y-80416962D01*
X107320104Y-80407000D01*
X107344879Y-80404539D01*
X107368697Y-80397293D01*
X107390644Y-80385539D01*
X107412744Y-80366761D01*
X107955128Y-79786971D01*
X126991614Y-79777031D01*
X127223000Y-80046981D01*
G04 #@! TA.AperFunction,Conductor*
D23*
G36*
X127223000Y-80046981D02*
G01*
X127223000Y-84973941D01*
X127069153Y-85223026D01*
X100299953Y-85233000D01*
X100275177Y-85235450D01*
X100251355Y-85242685D01*
X100229403Y-85254430D01*
X100210164Y-85270231D01*
X100200138Y-85281537D01*
X99760138Y-85841537D01*
X99746749Y-85862527D01*
X99737713Y-85885725D01*
X99733000Y-85919755D01*
X99723084Y-91066199D01*
X99468019Y-91393000D01*
X95114109Y-91393000D01*
X94867000Y-91058207D01*
X94867000Y-80678903D01*
X95176566Y-80416962D01*
X107320104Y-80407000D01*
X107344879Y-80404539D01*
X107368697Y-80397293D01*
X107390644Y-80385539D01*
X107412744Y-80366761D01*
X107955128Y-79786971D01*
X126991614Y-79777031D01*
X127223000Y-80046981D01*
G37*
G04 #@! TD.AperFunction*
D22*
X176035271Y-63433962D02*
X175723962Y-63745271D01*
X175479369Y-64111331D01*
X175310890Y-64518075D01*
X175225000Y-64949872D01*
X175225000Y-65390128D01*
X175310890Y-65821925D01*
X175479369Y-66228669D01*
X175723962Y-66594729D01*
X176035271Y-66906038D01*
X176401331Y-67150631D01*
X176808075Y-67319110D01*
X177239872Y-67405000D01*
X177680128Y-67405000D01*
X178111925Y-67319110D01*
X178260167Y-67257706D01*
X178233108Y-79411403D01*
X177883403Y-79802739D01*
X151730581Y-79683001D01*
X151705794Y-79685328D01*
X151681937Y-79692446D01*
X151652346Y-79709507D01*
X151212346Y-80049507D01*
X151194233Y-80066587D01*
X151179800Y-80086873D01*
X151169602Y-80109585D01*
X151164031Y-80133850D01*
X151163000Y-80150237D01*
X151183000Y-90850237D01*
X151185487Y-90875009D01*
X151192758Y-90898820D01*
X151204330Y-90920447D01*
X151424330Y-91250447D01*
X151440104Y-91269709D01*
X151459332Y-91285523D01*
X151481276Y-91297282D01*
X151505093Y-91304534D01*
X151530000Y-91307000D01*
X154680000Y-91307000D01*
X154704776Y-91304560D01*
X154728601Y-91297333D01*
X154750557Y-91285597D01*
X154763580Y-91275621D01*
X155101080Y-90980621D01*
X155118129Y-90962478D01*
X155131310Y-90941358D01*
X155140118Y-90918072D01*
X155144500Y-90885211D01*
X155149417Y-87925371D01*
X155318269Y-87745554D01*
X155361146Y-87722636D01*
X155488291Y-87618291D01*
X155514445Y-87586422D01*
X155714036Y-87386831D01*
X158555000Y-87382612D01*
X158555001Y-88638749D01*
X158521614Y-88656595D01*
X158387038Y-88767038D01*
X158276595Y-88901614D01*
X158194528Y-89055150D01*
X158143992Y-89221746D01*
X158126928Y-89395000D01*
X158126928Y-90645000D01*
X158143992Y-90818254D01*
X158194528Y-90984850D01*
X158276595Y-91138386D01*
X158387038Y-91272962D01*
X158521614Y-91383405D01*
X158675150Y-91465472D01*
X158841746Y-91516008D01*
X159015000Y-91533072D01*
X159765000Y-91533072D01*
X159938254Y-91516008D01*
X160104850Y-91465472D01*
X160258386Y-91383405D01*
X160392962Y-91272962D01*
X160503405Y-91138386D01*
X160585472Y-90984850D01*
X160636008Y-90818254D01*
X160653072Y-90645000D01*
X160653072Y-89395000D01*
X160636008Y-89221746D01*
X160585472Y-89055150D01*
X160503405Y-88901614D01*
X160392962Y-88767038D01*
X160258386Y-88656595D01*
X160225000Y-88638750D01*
X160225000Y-87380131D01*
X169020183Y-87367067D01*
X169433058Y-87700703D01*
X169442960Y-98038651D01*
X168345544Y-99542868D01*
X95477036Y-99393731D01*
X95586038Y-99284729D01*
X95830631Y-98918669D01*
X95999110Y-98511925D01*
X96085000Y-98080128D01*
X96085000Y-97639872D01*
X95999110Y-97208075D01*
X95830631Y-96801331D01*
X95586038Y-96435271D01*
X95274729Y-96123962D01*
X94917000Y-95884936D01*
X94917000Y-92883708D01*
X95356510Y-92457000D01*
X101310000Y-92457000D01*
X101334776Y-92454560D01*
X101358601Y-92447333D01*
X101380557Y-92435597D01*
X101399803Y-92419803D01*
X101416698Y-92398881D01*
X101926698Y-91608881D01*
X101938086Y-91586742D01*
X101944936Y-91562806D01*
X101946997Y-91540830D01*
X101976718Y-86993469D01*
X102472593Y-86347062D01*
X122736456Y-86366948D01*
X123493000Y-87141721D01*
X123493000Y-91060000D01*
X123495440Y-91084776D01*
X123502667Y-91108601D01*
X123513282Y-91128850D01*
X123913282Y-91748850D01*
X123928765Y-91768347D01*
X123947754Y-91784448D01*
X123969519Y-91796536D01*
X123993224Y-91804145D01*
X124019948Y-91807000D01*
X139675641Y-91813362D01*
X139824999Y-91828072D01*
X140350001Y-91828072D01*
X140495975Y-91813695D01*
X141508201Y-91814106D01*
X141649999Y-91828072D01*
X142175001Y-91828072D01*
X142313477Y-91814433D01*
X143315658Y-91814841D01*
X143449999Y-91828072D01*
X143975001Y-91828072D01*
X144106081Y-91815162D01*
X145148219Y-91815585D01*
X145274999Y-91828072D01*
X145800001Y-91828072D01*
X145923583Y-91815900D01*
X147358871Y-91816484D01*
X147374999Y-91818072D01*
X147900001Y-91818072D01*
X147913840Y-91816709D01*
X148629948Y-91817000D01*
X148654726Y-91814570D01*
X148678553Y-91807352D01*
X148700515Y-91795625D01*
X148726649Y-91772389D01*
X148986649Y-91467389D01*
X149000865Y-91446951D01*
X149010821Y-91424132D01*
X149016134Y-91399809D01*
X149017000Y-91385000D01*
X149017000Y-78775000D01*
X149014560Y-78750224D01*
X149007333Y-78726399D01*
X148995597Y-78704443D01*
X148972546Y-78678485D01*
X148592546Y-78353485D01*
X148572131Y-78339235D01*
X148549328Y-78329243D01*
X148525013Y-78323891D01*
X148510429Y-78323001D01*
X101095429Y-78163001D01*
X101070644Y-78165357D01*
X101046795Y-78172504D01*
X101024799Y-78184166D01*
X101000515Y-78205138D01*
X100553178Y-78703204D01*
X95134003Y-78722768D01*
X94916971Y-78428225D01*
X94909243Y-67200247D01*
X95274729Y-66956038D01*
X95586038Y-66644729D01*
X95830631Y-66278669D01*
X95999110Y-65871925D01*
X96085000Y-65440128D01*
X96085000Y-64999872D01*
X95999110Y-64568075D01*
X95830631Y-64161331D01*
X95586038Y-63795271D01*
X95299601Y-63508834D01*
X95399982Y-63386942D01*
X176222844Y-63308630D01*
X176035271Y-63433962D01*
G04 #@! TA.AperFunction,Conductor*
D23*
G36*
X176035271Y-63433962D02*
G01*
X175723962Y-63745271D01*
X175479369Y-64111331D01*
X175310890Y-64518075D01*
X175225000Y-64949872D01*
X175225000Y-65390128D01*
X175310890Y-65821925D01*
X175479369Y-66228669D01*
X175723962Y-66594729D01*
X176035271Y-66906038D01*
X176401331Y-67150631D01*
X176808075Y-67319110D01*
X177239872Y-67405000D01*
X177680128Y-67405000D01*
X178111925Y-67319110D01*
X178260167Y-67257706D01*
X178233108Y-79411403D01*
X177883403Y-79802739D01*
X151730581Y-79683001D01*
X151705794Y-79685328D01*
X151681937Y-79692446D01*
X151652346Y-79709507D01*
X151212346Y-80049507D01*
X151194233Y-80066587D01*
X151179800Y-80086873D01*
X151169602Y-80109585D01*
X151164031Y-80133850D01*
X151163000Y-80150237D01*
X151183000Y-90850237D01*
X151185487Y-90875009D01*
X151192758Y-90898820D01*
X151204330Y-90920447D01*
X151424330Y-91250447D01*
X151440104Y-91269709D01*
X151459332Y-91285523D01*
X151481276Y-91297282D01*
X151505093Y-91304534D01*
X151530000Y-91307000D01*
X154680000Y-91307000D01*
X154704776Y-91304560D01*
X154728601Y-91297333D01*
X154750557Y-91285597D01*
X154763580Y-91275621D01*
X155101080Y-90980621D01*
X155118129Y-90962478D01*
X155131310Y-90941358D01*
X155140118Y-90918072D01*
X155144500Y-90885211D01*
X155149417Y-87925371D01*
X155318269Y-87745554D01*
X155361146Y-87722636D01*
X155488291Y-87618291D01*
X155514445Y-87586422D01*
X155714036Y-87386831D01*
X158555000Y-87382612D01*
X158555001Y-88638749D01*
X158521614Y-88656595D01*
X158387038Y-88767038D01*
X158276595Y-88901614D01*
X158194528Y-89055150D01*
X158143992Y-89221746D01*
X158126928Y-89395000D01*
X158126928Y-90645000D01*
X158143992Y-90818254D01*
X158194528Y-90984850D01*
X158276595Y-91138386D01*
X158387038Y-91272962D01*
X158521614Y-91383405D01*
X158675150Y-91465472D01*
X158841746Y-91516008D01*
X159015000Y-91533072D01*
X159765000Y-91533072D01*
X159938254Y-91516008D01*
X160104850Y-91465472D01*
X160258386Y-91383405D01*
X160392962Y-91272962D01*
X160503405Y-91138386D01*
X160585472Y-90984850D01*
X160636008Y-90818254D01*
X160653072Y-90645000D01*
X160653072Y-89395000D01*
X160636008Y-89221746D01*
X160585472Y-89055150D01*
X160503405Y-88901614D01*
X160392962Y-88767038D01*
X160258386Y-88656595D01*
X160225000Y-88638750D01*
X160225000Y-87380131D01*
X169020183Y-87367067D01*
X169433058Y-87700703D01*
X169442960Y-98038651D01*
X168345544Y-99542868D01*
X95477036Y-99393731D01*
X95586038Y-99284729D01*
X95830631Y-98918669D01*
X95999110Y-98511925D01*
X96085000Y-98080128D01*
X96085000Y-97639872D01*
X95999110Y-97208075D01*
X95830631Y-96801331D01*
X95586038Y-96435271D01*
X95274729Y-96123962D01*
X94917000Y-95884936D01*
X94917000Y-92883708D01*
X95356510Y-92457000D01*
X101310000Y-92457000D01*
X101334776Y-92454560D01*
X101358601Y-92447333D01*
X101380557Y-92435597D01*
X101399803Y-92419803D01*
X101416698Y-92398881D01*
X101926698Y-91608881D01*
X101938086Y-91586742D01*
X101944936Y-91562806D01*
X101946997Y-91540830D01*
X101976718Y-86993469D01*
X102472593Y-86347062D01*
X122736456Y-86366948D01*
X123493000Y-87141721D01*
X123493000Y-91060000D01*
X123495440Y-91084776D01*
X123502667Y-91108601D01*
X123513282Y-91128850D01*
X123913282Y-91748850D01*
X123928765Y-91768347D01*
X123947754Y-91784448D01*
X123969519Y-91796536D01*
X123993224Y-91804145D01*
X124019948Y-91807000D01*
X139675641Y-91813362D01*
X139824999Y-91828072D01*
X140350001Y-91828072D01*
X140495975Y-91813695D01*
X141508201Y-91814106D01*
X141649999Y-91828072D01*
X142175001Y-91828072D01*
X142313477Y-91814433D01*
X143315658Y-91814841D01*
X143449999Y-91828072D01*
X143975001Y-91828072D01*
X144106081Y-91815162D01*
X145148219Y-91815585D01*
X145274999Y-91828072D01*
X145800001Y-91828072D01*
X145923583Y-91815900D01*
X147358871Y-91816484D01*
X147374999Y-91818072D01*
X147900001Y-91818072D01*
X147913840Y-91816709D01*
X148629948Y-91817000D01*
X148654726Y-91814570D01*
X148678553Y-91807352D01*
X148700515Y-91795625D01*
X148726649Y-91772389D01*
X148986649Y-91467389D01*
X149000865Y-91446951D01*
X149010821Y-91424132D01*
X149016134Y-91399809D01*
X149017000Y-91385000D01*
X149017000Y-78775000D01*
X149014560Y-78750224D01*
X149007333Y-78726399D01*
X148995597Y-78704443D01*
X148972546Y-78678485D01*
X148592546Y-78353485D01*
X148572131Y-78339235D01*
X148549328Y-78329243D01*
X148525013Y-78323891D01*
X148510429Y-78323001D01*
X101095429Y-78163001D01*
X101070644Y-78165357D01*
X101046795Y-78172504D01*
X101024799Y-78184166D01*
X101000515Y-78205138D01*
X100553178Y-78703204D01*
X95134003Y-78722768D01*
X94916971Y-78428225D01*
X94909243Y-67200247D01*
X95274729Y-66956038D01*
X95586038Y-66644729D01*
X95830631Y-66278669D01*
X95999110Y-65871925D01*
X96085000Y-65440128D01*
X96085000Y-64999872D01*
X95999110Y-64568075D01*
X95830631Y-64161331D01*
X95586038Y-63795271D01*
X95299601Y-63508834D01*
X95399982Y-63386942D01*
X176222844Y-63308630D01*
X176035271Y-63433962D01*
G37*
G04 #@! TD.AperFunction*
M02*
