G04 #@! TF.GenerationSoftware,KiCad,Pcbnew,(5.1.12)-1*
G04 #@! TF.CreationDate,2025-12-17T12:17:42-06:00*
G04 #@! TF.ProjectId,Fuente_40Vdc_Opcion2,4675656e-7465-45f3-9430-5664635f4f70,rev?*
G04 #@! TF.SameCoordinates,Original*
G04 #@! TF.FileFunction,Soldermask,Bot*
G04 #@! TF.FilePolarity,Negative*
%FSLAX46Y46*%
G04 Gerber Fmt 4.6, Leading zero omitted, Abs format (unit mm)*
G04 Created by KiCad (PCBNEW (5.1.12)-1) date 2025-12-17 12:17:42*
%MOMM*%
%LPD*%
G01*
G04 APERTURE LIST*
%ADD10C,3.200000*%
%ADD11C,3.000000*%
%ADD12R,3.000000X3.000000*%
%ADD13C,1.600000*%
%ADD14R,1.600000X1.600000*%
%ADD15C,0.254000*%
%ADD16C,0.100000*%
G04 APERTURE END LIST*
D10*
X177460000Y-97860000D03*
X177460000Y-65170000D03*
X93850000Y-97860000D03*
X93850000Y-65220000D03*
D11*
X96770000Y-83960000D03*
D12*
X96770000Y-89040000D03*
D11*
X174330000Y-72040000D03*
D12*
X174330000Y-77120000D03*
D11*
X96860000Y-72040000D03*
D12*
X96860000Y-77120000D03*
D11*
X174360000Y-83960000D03*
D12*
X174360000Y-89040000D03*
D13*
X165070000Y-79140000D03*
D14*
X165070000Y-81640000D03*
D15*
X138692745Y-74693000D02*
X122150000Y-74693000D01*
X122125224Y-74695440D01*
X122101399Y-74702667D01*
X122079443Y-74714403D01*
X122060197Y-74730197D01*
X122044403Y-74749443D01*
X122032667Y-74771399D01*
X122025440Y-74795224D01*
X122023000Y-74819671D01*
X121983000Y-90279671D01*
X121985377Y-90304454D01*
X121992542Y-90328297D01*
X122004221Y-90350284D01*
X122019965Y-90369570D01*
X122039170Y-90385414D01*
X122061096Y-90397207D01*
X122084901Y-90404495D01*
X122109291Y-90406998D01*
X138103000Y-90496293D01*
X138103000Y-98443000D01*
X102326662Y-98443000D01*
X102237340Y-64966936D01*
X138673254Y-64947069D01*
X138692745Y-74693000D01*
D16*
G36*
X138692745Y-74693000D02*
G01*
X122150000Y-74693000D01*
X122125224Y-74695440D01*
X122101399Y-74702667D01*
X122079443Y-74714403D01*
X122060197Y-74730197D01*
X122044403Y-74749443D01*
X122032667Y-74771399D01*
X122025440Y-74795224D01*
X122023000Y-74819671D01*
X121983000Y-90279671D01*
X121985377Y-90304454D01*
X121992542Y-90328297D01*
X122004221Y-90350284D01*
X122019965Y-90369570D01*
X122039170Y-90385414D01*
X122061096Y-90397207D01*
X122084901Y-90404495D01*
X122109291Y-90406998D01*
X138103000Y-90496293D01*
X138103000Y-98443000D01*
X102326662Y-98443000D01*
X102237340Y-64966936D01*
X138673254Y-64947069D01*
X138692745Y-74693000D01*
G37*
M02*
