M48
; DRILL file {KiCad (5.1.12)-1} date 12/17/25 12:18:13
; FORMAT={-:-/ absolute / metric / decimal}
; #@! TF.CreationDate,2025-12-17T12:18:13-06:00
; #@! TF.GenerationSoftware,Kicad,Pcbnew,(5.1.12)-1
; #@! TF.FileFunction,Plated,1,2,PTH
FMAT,2
METRIC
T1C0.300
T2C0.400
T3C0.800
T4C1.520
%
G90
G05
T1
X149.33Y-85.15
X149.33Y-85.95
X149.33Y-86.75
X149.33Y-87.55
X150.13Y-85.15
X150.13Y-85.95
X150.13Y-86.75
X150.13Y-87.55
X150.93Y-85.15
X150.93Y-85.95
X150.93Y-86.75
X150.93Y-87.55
T2
X101.55Y-63.78
X101.55Y-66.28
X101.55Y-68.78
X101.55Y-71.28
X101.55Y-73.78
X101.55Y-76.28
X102.94Y-87.35
X102.94Y-89.85
X102.94Y-92.35
X102.94Y-94.85
X102.94Y-97.35
X104.05Y-63.78
X104.05Y-66.28
X104.05Y-68.78
X104.05Y-71.28
X104.05Y-73.78
X104.05Y-76.28
X105.44Y-87.35
X105.44Y-89.85
X105.44Y-92.35
X105.44Y-94.85
X105.44Y-97.35
X106.55Y-63.78
X106.55Y-66.28
X106.55Y-68.78
X106.55Y-71.28
X106.55Y-73.78
X106.55Y-76.28
X107.94Y-87.35
X107.94Y-89.85
X107.94Y-92.35
X107.94Y-94.85
X107.94Y-97.35
X109.05Y-63.78
X109.05Y-66.28
X109.05Y-68.78
X109.05Y-71.28
X109.05Y-73.78
X109.05Y-76.28
X110.44Y-87.35
X110.44Y-89.85
X110.44Y-92.35
X110.44Y-94.85
X110.44Y-97.35
X111.55Y-63.78
X111.55Y-66.28
X111.55Y-68.78
X111.55Y-71.28
X111.55Y-73.78
X111.55Y-76.28
X112.94Y-87.35
X112.94Y-89.85
X112.94Y-92.35
X112.94Y-94.85
X112.94Y-97.35
X114.05Y-63.78
X114.05Y-66.28
X114.05Y-68.78
X114.05Y-71.28
X114.05Y-73.78
X114.05Y-76.28
X115.44Y-87.35
X115.44Y-89.85
X115.44Y-92.35
X115.44Y-94.85
X115.44Y-97.35
X116.55Y-63.78
X116.55Y-66.28
X116.55Y-68.78
X116.55Y-71.28
X116.55Y-73.78
X116.55Y-76.28
X117.94Y-87.35
X117.94Y-89.85
X117.94Y-92.35
X117.94Y-94.85
X117.94Y-97.35
X119.05Y-63.78
X119.05Y-66.28
X119.05Y-68.78
X119.05Y-71.28
X119.05Y-73.78
X119.05Y-76.28
X120.44Y-87.35
X120.44Y-89.85
X120.44Y-92.35
X120.44Y-94.85
X120.44Y-97.35
X121.55Y-63.78
X121.55Y-66.28
X121.55Y-68.78
X121.55Y-71.28
X121.55Y-73.78
X122.94Y-92.35
X122.94Y-94.85
X122.94Y-97.35
X124.05Y-63.78
X124.05Y-66.28
X124.05Y-68.78
X124.05Y-71.28
X124.05Y-73.78
X125.44Y-92.35
X125.44Y-94.85
X125.44Y-97.35
X126.55Y-63.78
X126.55Y-66.28
X126.55Y-68.78
X126.55Y-71.28
X126.55Y-73.78
X129.05Y-63.78
X129.05Y-66.28
X129.05Y-68.78
X129.05Y-71.28
X129.05Y-73.78
X131.55Y-63.78
X131.55Y-66.28
X131.55Y-68.78
X131.55Y-71.28
X131.55Y-73.78
X134.05Y-63.78
X134.05Y-66.28
X134.05Y-68.78
X134.05Y-71.28
X134.05Y-73.78
X136.55Y-63.78
X136.55Y-66.28
X136.55Y-68.78
X136.55Y-71.28
X136.55Y-73.78
X145.69Y-93.08
X145.69Y-95.58
X145.69Y-98.08
X146.38Y-79.79
X147.24Y-72.62
X147.24Y-75.12
X147.24Y-77.62
X148.19Y-93.08
X148.19Y-95.58
X148.19Y-98.08
X149.74Y-72.62
X149.74Y-75.12
X149.74Y-77.62
X150.69Y-93.08
X150.69Y-95.58
X150.69Y-98.08
X152.24Y-72.62
X152.24Y-75.12
X152.24Y-77.62
X153.19Y-93.08
X153.19Y-95.58
X153.19Y-98.08
X154.42Y-85.75
X154.74Y-72.62
X154.74Y-75.12
X154.74Y-77.62
X155.68Y-88.08
X155.69Y-93.08
X155.69Y-95.58
X155.69Y-98.08
X156.56Y-89.98
X157.24Y-72.62
X157.24Y-75.12
X157.24Y-77.62
X158.18Y-88.08
X158.19Y-93.08
X158.19Y-95.58
X158.19Y-98.08
X159.74Y-72.62
X159.74Y-75.12
X159.74Y-77.62
X160.68Y-88.08
X160.69Y-93.08
X160.69Y-95.58
X160.69Y-98.08
X160.95Y-90.58
X162.24Y-72.62
X162.24Y-75.12
X163.18Y-88.08
X163.18Y-90.58
X163.19Y-93.08
X163.19Y-95.58
X163.19Y-98.08
X164.74Y-72.62
X164.74Y-75.12
X165.68Y-88.08
X165.68Y-90.58
X165.69Y-93.08
X165.69Y-95.58
X165.69Y-98.08
X167.24Y-72.62
X167.24Y-75.12
X168.18Y-88.08
X168.18Y-90.58
X168.19Y-93.08
X168.19Y-95.58
X168.19Y-98.08
X169.74Y-72.62
X169.74Y-75.12
X169.74Y-77.62
T3
X165.07Y-79.14
X165.07Y-81.64
T4
X96.77Y-83.96
X96.77Y-89.04
X96.86Y-72.04
X96.86Y-77.12
X174.33Y-72.04
X174.33Y-77.12
X174.36Y-83.96
X174.36Y-89.04
T0
M30
