G04 #@! TF.GenerationSoftware,KiCad,Pcbnew,(5.1.12)-1*
G04 #@! TF.CreationDate,2025-12-17T12:17:42-06:00*
G04 #@! TF.ProjectId,Fuente_40Vdc_Opcion2,4675656e-7465-45f3-9430-5664635f4f70,rev?*
G04 #@! TF.SameCoordinates,Original*
G04 #@! TF.FileFunction,Copper,L2,Bot*
G04 #@! TF.FilePolarity,Positive*
%FSLAX46Y46*%
G04 Gerber Fmt 4.6, Leading zero omitted, Abs format (unit mm)*
G04 Created by KiCad (PCBNEW (5.1.12)-1) date 2025-12-17 12:17:42*
%MOMM*%
%LPD*%
G01*
G04 APERTURE LIST*
G04 #@! TA.AperFunction,ComponentPad*
%ADD10C,3.000000*%
G04 #@! TD*
G04 #@! TA.AperFunction,ComponentPad*
%ADD11R,3.000000X3.000000*%
G04 #@! TD*
G04 #@! TA.AperFunction,ComponentPad*
%ADD12C,1.600000*%
G04 #@! TD*
G04 #@! TA.AperFunction,ComponentPad*
%ADD13R,1.600000X1.600000*%
G04 #@! TD*
G04 #@! TA.AperFunction,ViaPad*
%ADD14C,0.800000*%
G04 #@! TD*
G04 #@! TA.AperFunction,ViaPad*
%ADD15C,0.600000*%
G04 #@! TD*
G04 #@! TA.AperFunction,Conductor*
%ADD16C,0.400000*%
G04 #@! TD*
G04 #@! TA.AperFunction,Conductor*
%ADD17C,0.254000*%
G04 #@! TD*
G04 #@! TA.AperFunction,Conductor*
%ADD18C,0.100000*%
G04 #@! TD*
G04 APERTURE END LIST*
D10*
X96770000Y-83960000D03*
D11*
X96770000Y-89040000D03*
D10*
X174330000Y-72040000D03*
D11*
X174330000Y-77120000D03*
D10*
X96860000Y-72040000D03*
D11*
X96860000Y-77120000D03*
D10*
X174360000Y-83960000D03*
D11*
X174360000Y-89040000D03*
D12*
X165070000Y-79140000D03*
D13*
X165070000Y-81640000D03*
D14*
X101550000Y-63780000D03*
X104050000Y-63780000D03*
X106550000Y-63780000D03*
X109050000Y-63780000D03*
X111550000Y-63780000D03*
X114050000Y-63780000D03*
X116550000Y-63780000D03*
X119050000Y-63780000D03*
X121550000Y-63780000D03*
X124050000Y-63780000D03*
X126550000Y-63780000D03*
X129050000Y-63780000D03*
X131550000Y-63780000D03*
X134050000Y-63780000D03*
X136550000Y-63780000D03*
X101550000Y-66280000D03*
X104050000Y-66280000D03*
X106550000Y-66280000D03*
X109050000Y-66280000D03*
X111550000Y-66280000D03*
X114050000Y-66280000D03*
X116550000Y-66280000D03*
X119050000Y-66280000D03*
X121550000Y-66280000D03*
X124050000Y-66280000D03*
X126550000Y-66280000D03*
X129050000Y-66280000D03*
X131550000Y-66280000D03*
X134050000Y-66280000D03*
X136550000Y-66280000D03*
X101550000Y-68780000D03*
X104050000Y-68780000D03*
X106550000Y-68780000D03*
X109050000Y-68780000D03*
X111550000Y-68780000D03*
X114050000Y-68780000D03*
X116550000Y-68780000D03*
X119050000Y-68780000D03*
X121550000Y-68780000D03*
X124050000Y-68780000D03*
X126550000Y-68780000D03*
X129050000Y-68780000D03*
X131550000Y-68780000D03*
X134050000Y-68780000D03*
X136550000Y-68780000D03*
X101550000Y-71280000D03*
X104050000Y-71280000D03*
X106550000Y-71280000D03*
X109050000Y-71280000D03*
X111550000Y-71280000D03*
X114050000Y-71280000D03*
X116550000Y-71280000D03*
X119050000Y-71280000D03*
X121550000Y-71280000D03*
X124050000Y-71280000D03*
X126550000Y-71280000D03*
X129050000Y-71280000D03*
X131550000Y-71280000D03*
X134050000Y-71280000D03*
X136550000Y-71280000D03*
X101550000Y-73780000D03*
X104050000Y-73780000D03*
X106550000Y-73780000D03*
X109050000Y-73780000D03*
X111550000Y-73780000D03*
X114050000Y-73780000D03*
X116550000Y-73780000D03*
X119050000Y-73780000D03*
X121550000Y-73780000D03*
X124050000Y-73780000D03*
X126550000Y-73780000D03*
X129050000Y-73780000D03*
X131550000Y-73780000D03*
X134050000Y-73780000D03*
X136550000Y-73780000D03*
X101550000Y-76280000D03*
X104050000Y-76280000D03*
X106550000Y-76280000D03*
X109050000Y-76280000D03*
X111550000Y-76280000D03*
X114050000Y-76280000D03*
X116550000Y-76280000D03*
X119050000Y-76280000D03*
X102940000Y-87350000D03*
X105440000Y-87350000D03*
X107940000Y-87350000D03*
X110440000Y-87350000D03*
X112940000Y-87350000D03*
X115440000Y-87350000D03*
X117940000Y-87350000D03*
X120440000Y-87350000D03*
X102940000Y-89850000D03*
X105440000Y-89850000D03*
X107940000Y-89850000D03*
X110440000Y-89850000D03*
X112940000Y-89850000D03*
X115440000Y-89850000D03*
X117940000Y-89850000D03*
X120440000Y-89850000D03*
X102940000Y-92350000D03*
X105440000Y-92350000D03*
X107940000Y-92350000D03*
X110440000Y-92350000D03*
X112940000Y-92350000D03*
X115440000Y-92350000D03*
X117940000Y-92350000D03*
X120440000Y-92350000D03*
X122940000Y-92350000D03*
X125440000Y-92350000D03*
X102940000Y-94850000D03*
X105440000Y-94850000D03*
X107940000Y-94850000D03*
X110440000Y-94850000D03*
X112940000Y-94850000D03*
X115440000Y-94850000D03*
X117940000Y-94850000D03*
X120440000Y-94850000D03*
X122940000Y-94850000D03*
X125440000Y-94850000D03*
X102940000Y-97350000D03*
X105440000Y-97350000D03*
X107940000Y-97350000D03*
X110440000Y-97350000D03*
X112940000Y-97350000D03*
X115440000Y-97350000D03*
X117940000Y-97350000D03*
X120440000Y-97350000D03*
X122940000Y-97350000D03*
X125440000Y-97350000D03*
X145690000Y-93080000D03*
X148190000Y-93080000D03*
X150690000Y-93080000D03*
X153190000Y-93080000D03*
X155690000Y-93080000D03*
X158190000Y-93080000D03*
X160690000Y-93080000D03*
X163190000Y-93080000D03*
X165690000Y-93080000D03*
X168190000Y-93080000D03*
X145690000Y-95580000D03*
X148190000Y-95580000D03*
X150690000Y-95580000D03*
X153190000Y-95580000D03*
X155690000Y-95580000D03*
X158190000Y-95580000D03*
X160690000Y-95580000D03*
X163190000Y-95580000D03*
X165690000Y-95580000D03*
X168190000Y-95580000D03*
X145690000Y-98080000D03*
X148190000Y-98080000D03*
X150690000Y-98080000D03*
X153190000Y-98080000D03*
X155690000Y-98080000D03*
X158190000Y-98080000D03*
X160690000Y-98080000D03*
X163190000Y-98080000D03*
X165690000Y-98080000D03*
X168190000Y-98080000D03*
X155680000Y-88080000D03*
X158180000Y-88080000D03*
X160680000Y-88080000D03*
X163180000Y-88080000D03*
X165680000Y-88080000D03*
X168180000Y-88080000D03*
X156560000Y-89980000D03*
X160950000Y-90580000D03*
X163180000Y-90580000D03*
X165680000Y-90580000D03*
X168180000Y-90580000D03*
D15*
X149330000Y-85150000D03*
X150130000Y-85150000D03*
X150930000Y-85150000D03*
X149330000Y-85950000D03*
X150130000Y-85950000D03*
X150930000Y-85950000D03*
X149330000Y-86750000D03*
X150130000Y-86750000D03*
X150930000Y-86750000D03*
X149330000Y-87550000D03*
X150130000Y-87550000D03*
X150930000Y-87550000D03*
D14*
X147240000Y-72620000D03*
X149740000Y-72620000D03*
X152240000Y-72620000D03*
X154740000Y-72620000D03*
X157240000Y-72620000D03*
X159740000Y-72620000D03*
X162240000Y-72620000D03*
X164740000Y-72620000D03*
X167240000Y-72620000D03*
X169740000Y-72620000D03*
X147240000Y-75120000D03*
X149740000Y-75120000D03*
X152240000Y-75120000D03*
X154740000Y-75120000D03*
X157240000Y-75120000D03*
X159740000Y-75120000D03*
X162240000Y-75120000D03*
X164740000Y-75120000D03*
X167240000Y-75120000D03*
X169740000Y-75120000D03*
X147240000Y-77620000D03*
X149740000Y-77620000D03*
X152240000Y-77620000D03*
X154740000Y-77620000D03*
X157240000Y-77620000D03*
X159740000Y-77620000D03*
X169740000Y-77620000D03*
X146380000Y-79790000D03*
X154420000Y-85750000D03*
D16*
X154420000Y-85750000D02*
X154420000Y-83400000D01*
X154420000Y-83400000D02*
X150810000Y-79790000D01*
X146380000Y-79790000D02*
X150810000Y-79790000D01*
D17*
X176808075Y-63020890D02*
X176401331Y-63189369D01*
X176035271Y-63433962D01*
X175723962Y-63745271D01*
X175479369Y-64111331D01*
X175310890Y-64518075D01*
X175225000Y-64949872D01*
X175225000Y-65390128D01*
X175310890Y-65821925D01*
X175479369Y-66228669D01*
X175723962Y-66594729D01*
X176035271Y-66906038D01*
X176401331Y-67150631D01*
X176808075Y-67319110D01*
X177239872Y-67405000D01*
X177680128Y-67405000D01*
X178111925Y-67319110D01*
X178518669Y-67150631D01*
X178884729Y-66906038D01*
X179196038Y-66594729D01*
X179440631Y-66228669D01*
X179609110Y-65821925D01*
X179695000Y-65390128D01*
X179695000Y-64949872D01*
X179609110Y-64518075D01*
X179440631Y-64111331D01*
X179196038Y-63745271D01*
X178884729Y-63433962D01*
X178518669Y-63189369D01*
X178111925Y-63020890D01*
X178082314Y-63015000D01*
X179695362Y-63015000D01*
X179714639Y-99595000D01*
X178885767Y-99595000D01*
X179196038Y-99284729D01*
X179440631Y-98918669D01*
X179609110Y-98511925D01*
X179695000Y-98080128D01*
X179695000Y-97639872D01*
X179609110Y-97208075D01*
X179440631Y-96801331D01*
X179196038Y-96435271D01*
X178884729Y-96123962D01*
X178518669Y-95879369D01*
X178111925Y-95710890D01*
X177680128Y-95625000D01*
X177239872Y-95625000D01*
X176808075Y-95710890D01*
X176401331Y-95879369D01*
X176035271Y-96123962D01*
X175723962Y-96435271D01*
X175479369Y-96801331D01*
X175310890Y-97208075D01*
X175225000Y-97639872D01*
X175225000Y-98080128D01*
X175310890Y-98511925D01*
X175479369Y-98918669D01*
X175723962Y-99284729D01*
X176034233Y-99595000D01*
X95275767Y-99595000D01*
X95586038Y-99284729D01*
X95830631Y-98918669D01*
X95999110Y-98511925D01*
X96085000Y-98080128D01*
X96085000Y-97639872D01*
X95999110Y-97208075D01*
X95830631Y-96801331D01*
X95586038Y-96435271D01*
X95274729Y-96123962D01*
X94908669Y-95879369D01*
X94501925Y-95710890D01*
X94070128Y-95625000D01*
X93629872Y-95625000D01*
X93198075Y-95710890D01*
X92791331Y-95879369D01*
X92425271Y-96123962D01*
X92113962Y-96435271D01*
X91869369Y-96801331D01*
X91703377Y-97202070D01*
X91698286Y-87540000D01*
X94631928Y-87540000D01*
X94631928Y-90540000D01*
X94644188Y-90664482D01*
X94680498Y-90784180D01*
X94739463Y-90894494D01*
X94818815Y-90991185D01*
X94915506Y-91070537D01*
X95025820Y-91129502D01*
X95145518Y-91165812D01*
X95270000Y-91178072D01*
X98270000Y-91178072D01*
X98394482Y-91165812D01*
X98514180Y-91129502D01*
X98624494Y-91070537D01*
X98721185Y-90991185D01*
X98800537Y-90894494D01*
X98859502Y-90784180D01*
X98895812Y-90664482D01*
X98908072Y-90540000D01*
X98908072Y-87540000D01*
X98895812Y-87415518D01*
X98859502Y-87295820D01*
X98800537Y-87185506D01*
X98721185Y-87088815D01*
X98624494Y-87009463D01*
X98514180Y-86950498D01*
X98394482Y-86914188D01*
X98270000Y-86901928D01*
X95270000Y-86901928D01*
X95145518Y-86914188D01*
X95025820Y-86950498D01*
X94915506Y-87009463D01*
X94818815Y-87088815D01*
X94739463Y-87185506D01*
X94680498Y-87295820D01*
X94644188Y-87415518D01*
X94631928Y-87540000D01*
X91698286Y-87540000D01*
X91696289Y-83749721D01*
X94635000Y-83749721D01*
X94635000Y-84170279D01*
X94717047Y-84582756D01*
X94877988Y-84971302D01*
X95111637Y-85320983D01*
X95409017Y-85618363D01*
X95758698Y-85852012D01*
X96147244Y-86012953D01*
X96559721Y-86095000D01*
X96980279Y-86095000D01*
X97392756Y-86012953D01*
X97781302Y-85852012D01*
X98130983Y-85618363D01*
X98428363Y-85320983D01*
X98662012Y-84971302D01*
X98822953Y-84582756D01*
X98905000Y-84170279D01*
X98905000Y-83749721D01*
X98822953Y-83337244D01*
X98662012Y-82948698D01*
X98428363Y-82599017D01*
X98130983Y-82301637D01*
X97781302Y-82067988D01*
X97392756Y-81907047D01*
X96980279Y-81825000D01*
X96559721Y-81825000D01*
X96147244Y-81907047D01*
X95758698Y-82067988D01*
X95409017Y-82301637D01*
X95111637Y-82599017D01*
X94877988Y-82948698D01*
X94717047Y-83337244D01*
X94635000Y-83749721D01*
X91696289Y-83749721D01*
X91692052Y-75710000D01*
X123003000Y-75710000D01*
X123003000Y-89000000D01*
X123005440Y-89024776D01*
X123012667Y-89048601D01*
X123024403Y-89070557D01*
X123040197Y-89089803D01*
X123059443Y-89105597D01*
X123081399Y-89117333D01*
X123105224Y-89124560D01*
X123130000Y-89127000D01*
X138670000Y-89127000D01*
X138694776Y-89124560D01*
X138718601Y-89117333D01*
X138740557Y-89105597D01*
X138759803Y-89089803D01*
X138775597Y-89070557D01*
X138787333Y-89048601D01*
X138794560Y-89024776D01*
X138797000Y-89000000D01*
X138797000Y-87540000D01*
X172221928Y-87540000D01*
X172221928Y-90540000D01*
X172234188Y-90664482D01*
X172270498Y-90784180D01*
X172329463Y-90894494D01*
X172408815Y-90991185D01*
X172505506Y-91070537D01*
X172615820Y-91129502D01*
X172735518Y-91165812D01*
X172860000Y-91178072D01*
X175860000Y-91178072D01*
X175984482Y-91165812D01*
X176104180Y-91129502D01*
X176214494Y-91070537D01*
X176311185Y-90991185D01*
X176390537Y-90894494D01*
X176449502Y-90784180D01*
X176485812Y-90664482D01*
X176498072Y-90540000D01*
X176498072Y-87540000D01*
X176485812Y-87415518D01*
X176449502Y-87295820D01*
X176390537Y-87185506D01*
X176311185Y-87088815D01*
X176214494Y-87009463D01*
X176104180Y-86950498D01*
X175984482Y-86914188D01*
X175860000Y-86901928D01*
X172860000Y-86901928D01*
X172735518Y-86914188D01*
X172615820Y-86950498D01*
X172505506Y-87009463D01*
X172408815Y-87088815D01*
X172329463Y-87185506D01*
X172270498Y-87295820D01*
X172234188Y-87415518D01*
X172221928Y-87540000D01*
X138797000Y-87540000D01*
X138797000Y-84987000D01*
X148180000Y-84987000D01*
X148204907Y-84984534D01*
X148228724Y-84977282D01*
X148250668Y-84965523D01*
X148269896Y-84949709D01*
X148285670Y-84930447D01*
X148405670Y-84750447D01*
X148417333Y-84728601D01*
X148424560Y-84704776D01*
X148427000Y-84680000D01*
X148427000Y-80960000D01*
X148421711Y-80923731D01*
X148412296Y-80900683D01*
X148398566Y-80879915D01*
X148268566Y-80719915D01*
X148259803Y-80710197D01*
X148240557Y-80694403D01*
X148218601Y-80682667D01*
X148194776Y-80675440D01*
X148170000Y-80673000D01*
X146921448Y-80673000D01*
X146993285Y-80625000D01*
X150464133Y-80625000D01*
X153585001Y-83745870D01*
X153585000Y-85136715D01*
X153502795Y-85259744D01*
X153424774Y-85448102D01*
X153385000Y-85648061D01*
X153385000Y-85851939D01*
X153424774Y-86051898D01*
X153502795Y-86240256D01*
X153616063Y-86409774D01*
X153760226Y-86553937D01*
X153929744Y-86667205D01*
X154118102Y-86745226D01*
X154318061Y-86785000D01*
X154521939Y-86785000D01*
X154721898Y-86745226D01*
X154910256Y-86667205D01*
X155079774Y-86553937D01*
X155223937Y-86409774D01*
X155337205Y-86240256D01*
X155415226Y-86051898D01*
X155455000Y-85851939D01*
X155455000Y-85648061D01*
X155415226Y-85448102D01*
X155337205Y-85259744D01*
X155255000Y-85136715D01*
X155255000Y-83749721D01*
X172225000Y-83749721D01*
X172225000Y-84170279D01*
X172307047Y-84582756D01*
X172467988Y-84971302D01*
X172701637Y-85320983D01*
X172999017Y-85618363D01*
X173348698Y-85852012D01*
X173737244Y-86012953D01*
X174149721Y-86095000D01*
X174570279Y-86095000D01*
X174982756Y-86012953D01*
X175371302Y-85852012D01*
X175720983Y-85618363D01*
X176018363Y-85320983D01*
X176252012Y-84971302D01*
X176412953Y-84582756D01*
X176495000Y-84170279D01*
X176495000Y-83749721D01*
X176412953Y-83337244D01*
X176252012Y-82948698D01*
X176018363Y-82599017D01*
X175720983Y-82301637D01*
X175371302Y-82067988D01*
X174982756Y-81907047D01*
X174570279Y-81825000D01*
X174149721Y-81825000D01*
X173737244Y-81907047D01*
X173348698Y-82067988D01*
X172999017Y-82301637D01*
X172701637Y-82599017D01*
X172467988Y-82948698D01*
X172307047Y-83337244D01*
X172225000Y-83749721D01*
X155255000Y-83749721D01*
X155255000Y-83441018D01*
X155259040Y-83400000D01*
X155242918Y-83236311D01*
X155195172Y-83078913D01*
X155117636Y-82933854D01*
X155039439Y-82838570D01*
X155039437Y-82838568D01*
X155013291Y-82806709D01*
X154981432Y-82780563D01*
X153040868Y-80840000D01*
X163631928Y-80840000D01*
X163631928Y-82440000D01*
X163644188Y-82564482D01*
X163680498Y-82684180D01*
X163739463Y-82794494D01*
X163818815Y-82891185D01*
X163915506Y-82970537D01*
X164025820Y-83029502D01*
X164145518Y-83065812D01*
X164270000Y-83078072D01*
X165870000Y-83078072D01*
X165994482Y-83065812D01*
X166114180Y-83029502D01*
X166224494Y-82970537D01*
X166321185Y-82891185D01*
X166400537Y-82794494D01*
X166459502Y-82684180D01*
X166495812Y-82564482D01*
X166508072Y-82440000D01*
X166508072Y-80840000D01*
X166495812Y-80715518D01*
X166459502Y-80595820D01*
X166400537Y-80485506D01*
X166321185Y-80388815D01*
X166224494Y-80309463D01*
X166114180Y-80250498D01*
X165994482Y-80214188D01*
X165870000Y-80201928D01*
X164270000Y-80201928D01*
X164145518Y-80214188D01*
X164025820Y-80250498D01*
X163915506Y-80309463D01*
X163818815Y-80388815D01*
X163739463Y-80485506D01*
X163680498Y-80595820D01*
X163644188Y-80715518D01*
X163631928Y-80840000D01*
X153040868Y-80840000D01*
X151429446Y-79228579D01*
X151403291Y-79196709D01*
X151276146Y-79092364D01*
X151131087Y-79014828D01*
X150973689Y-78967082D01*
X150851019Y-78955000D01*
X150851018Y-78955000D01*
X150810000Y-78950960D01*
X150768982Y-78955000D01*
X146993285Y-78955000D01*
X146870256Y-78872795D01*
X146681898Y-78794774D01*
X146481939Y-78755000D01*
X146278061Y-78755000D01*
X146078102Y-78794774D01*
X145889744Y-78872795D01*
X145720226Y-78986063D01*
X145576063Y-79130226D01*
X145462795Y-79299744D01*
X145384774Y-79488102D01*
X145345000Y-79688061D01*
X145345000Y-79891939D01*
X145384774Y-80091898D01*
X145462795Y-80280256D01*
X145576063Y-80449774D01*
X145720226Y-80593937D01*
X145838552Y-80673000D01*
X144870183Y-80673000D01*
X144847000Y-80644665D01*
X144847000Y-80200000D01*
X144846278Y-80186481D01*
X144841215Y-80162105D01*
X144831493Y-80139186D01*
X144771493Y-80029186D01*
X144749803Y-80000197D01*
X144730557Y-79984403D01*
X144708601Y-79972667D01*
X144684776Y-79965440D01*
X144660000Y-79963000D01*
X138892114Y-79963000D01*
X138816686Y-79866022D01*
X138786997Y-75749084D01*
X138784623Y-75725544D01*
X138777457Y-75701702D01*
X138765778Y-75679715D01*
X138750034Y-75660429D01*
X138730829Y-75644585D01*
X138708903Y-75632793D01*
X138685097Y-75625504D01*
X138660327Y-75623000D01*
X123130327Y-75583000D01*
X123105224Y-75585440D01*
X123081399Y-75592667D01*
X123059443Y-75604403D01*
X123040197Y-75620197D01*
X123024403Y-75639443D01*
X123012667Y-75661399D01*
X123005440Y-75685224D01*
X123003000Y-75710000D01*
X91692052Y-75710000D01*
X91686829Y-65801237D01*
X91700890Y-65871925D01*
X91869369Y-66278669D01*
X92113962Y-66644729D01*
X92425271Y-66956038D01*
X92791331Y-67200631D01*
X93198075Y-67369110D01*
X93629872Y-67455000D01*
X94070128Y-67455000D01*
X94501925Y-67369110D01*
X94908669Y-67200631D01*
X95274729Y-66956038D01*
X95586038Y-66644729D01*
X95830631Y-66278669D01*
X95999110Y-65871925D01*
X96085000Y-65440128D01*
X96085000Y-64999872D01*
X95999110Y-64568075D01*
X95830631Y-64161331D01*
X95586038Y-63795271D01*
X95274729Y-63483962D01*
X94908669Y-63239369D01*
X94501925Y-63070890D01*
X94220948Y-63015000D01*
X176837686Y-63015000D01*
X176808075Y-63020890D01*
G04 #@! TA.AperFunction,Conductor*
D18*
G36*
X176808075Y-63020890D02*
G01*
X176401331Y-63189369D01*
X176035271Y-63433962D01*
X175723962Y-63745271D01*
X175479369Y-64111331D01*
X175310890Y-64518075D01*
X175225000Y-64949872D01*
X175225000Y-65390128D01*
X175310890Y-65821925D01*
X175479369Y-66228669D01*
X175723962Y-66594729D01*
X176035271Y-66906038D01*
X176401331Y-67150631D01*
X176808075Y-67319110D01*
X177239872Y-67405000D01*
X177680128Y-67405000D01*
X178111925Y-67319110D01*
X178518669Y-67150631D01*
X178884729Y-66906038D01*
X179196038Y-66594729D01*
X179440631Y-66228669D01*
X179609110Y-65821925D01*
X179695000Y-65390128D01*
X179695000Y-64949872D01*
X179609110Y-64518075D01*
X179440631Y-64111331D01*
X179196038Y-63745271D01*
X178884729Y-63433962D01*
X178518669Y-63189369D01*
X178111925Y-63020890D01*
X178082314Y-63015000D01*
X179695362Y-63015000D01*
X179714639Y-99595000D01*
X178885767Y-99595000D01*
X179196038Y-99284729D01*
X179440631Y-98918669D01*
X179609110Y-98511925D01*
X179695000Y-98080128D01*
X179695000Y-97639872D01*
X179609110Y-97208075D01*
X179440631Y-96801331D01*
X179196038Y-96435271D01*
X178884729Y-96123962D01*
X178518669Y-95879369D01*
X178111925Y-95710890D01*
X177680128Y-95625000D01*
X177239872Y-95625000D01*
X176808075Y-95710890D01*
X176401331Y-95879369D01*
X176035271Y-96123962D01*
X175723962Y-96435271D01*
X175479369Y-96801331D01*
X175310890Y-97208075D01*
X175225000Y-97639872D01*
X175225000Y-98080128D01*
X175310890Y-98511925D01*
X175479369Y-98918669D01*
X175723962Y-99284729D01*
X176034233Y-99595000D01*
X95275767Y-99595000D01*
X95586038Y-99284729D01*
X95830631Y-98918669D01*
X95999110Y-98511925D01*
X96085000Y-98080128D01*
X96085000Y-97639872D01*
X95999110Y-97208075D01*
X95830631Y-96801331D01*
X95586038Y-96435271D01*
X95274729Y-96123962D01*
X94908669Y-95879369D01*
X94501925Y-95710890D01*
X94070128Y-95625000D01*
X93629872Y-95625000D01*
X93198075Y-95710890D01*
X92791331Y-95879369D01*
X92425271Y-96123962D01*
X92113962Y-96435271D01*
X91869369Y-96801331D01*
X91703377Y-97202070D01*
X91698286Y-87540000D01*
X94631928Y-87540000D01*
X94631928Y-90540000D01*
X94644188Y-90664482D01*
X94680498Y-90784180D01*
X94739463Y-90894494D01*
X94818815Y-90991185D01*
X94915506Y-91070537D01*
X95025820Y-91129502D01*
X95145518Y-91165812D01*
X95270000Y-91178072D01*
X98270000Y-91178072D01*
X98394482Y-91165812D01*
X98514180Y-91129502D01*
X98624494Y-91070537D01*
X98721185Y-90991185D01*
X98800537Y-90894494D01*
X98859502Y-90784180D01*
X98895812Y-90664482D01*
X98908072Y-90540000D01*
X98908072Y-87540000D01*
X98895812Y-87415518D01*
X98859502Y-87295820D01*
X98800537Y-87185506D01*
X98721185Y-87088815D01*
X98624494Y-87009463D01*
X98514180Y-86950498D01*
X98394482Y-86914188D01*
X98270000Y-86901928D01*
X95270000Y-86901928D01*
X95145518Y-86914188D01*
X95025820Y-86950498D01*
X94915506Y-87009463D01*
X94818815Y-87088815D01*
X94739463Y-87185506D01*
X94680498Y-87295820D01*
X94644188Y-87415518D01*
X94631928Y-87540000D01*
X91698286Y-87540000D01*
X91696289Y-83749721D01*
X94635000Y-83749721D01*
X94635000Y-84170279D01*
X94717047Y-84582756D01*
X94877988Y-84971302D01*
X95111637Y-85320983D01*
X95409017Y-85618363D01*
X95758698Y-85852012D01*
X96147244Y-86012953D01*
X96559721Y-86095000D01*
X96980279Y-86095000D01*
X97392756Y-86012953D01*
X97781302Y-85852012D01*
X98130983Y-85618363D01*
X98428363Y-85320983D01*
X98662012Y-84971302D01*
X98822953Y-84582756D01*
X98905000Y-84170279D01*
X98905000Y-83749721D01*
X98822953Y-83337244D01*
X98662012Y-82948698D01*
X98428363Y-82599017D01*
X98130983Y-82301637D01*
X97781302Y-82067988D01*
X97392756Y-81907047D01*
X96980279Y-81825000D01*
X96559721Y-81825000D01*
X96147244Y-81907047D01*
X95758698Y-82067988D01*
X95409017Y-82301637D01*
X95111637Y-82599017D01*
X94877988Y-82948698D01*
X94717047Y-83337244D01*
X94635000Y-83749721D01*
X91696289Y-83749721D01*
X91692052Y-75710000D01*
X123003000Y-75710000D01*
X123003000Y-89000000D01*
X123005440Y-89024776D01*
X123012667Y-89048601D01*
X123024403Y-89070557D01*
X123040197Y-89089803D01*
X123059443Y-89105597D01*
X123081399Y-89117333D01*
X123105224Y-89124560D01*
X123130000Y-89127000D01*
X138670000Y-89127000D01*
X138694776Y-89124560D01*
X138718601Y-89117333D01*
X138740557Y-89105597D01*
X138759803Y-89089803D01*
X138775597Y-89070557D01*
X138787333Y-89048601D01*
X138794560Y-89024776D01*
X138797000Y-89000000D01*
X138797000Y-87540000D01*
X172221928Y-87540000D01*
X172221928Y-90540000D01*
X172234188Y-90664482D01*
X172270498Y-90784180D01*
X172329463Y-90894494D01*
X172408815Y-90991185D01*
X172505506Y-91070537D01*
X172615820Y-91129502D01*
X172735518Y-91165812D01*
X172860000Y-91178072D01*
X175860000Y-91178072D01*
X175984482Y-91165812D01*
X176104180Y-91129502D01*
X176214494Y-91070537D01*
X176311185Y-90991185D01*
X176390537Y-90894494D01*
X176449502Y-90784180D01*
X176485812Y-90664482D01*
X176498072Y-90540000D01*
X176498072Y-87540000D01*
X176485812Y-87415518D01*
X176449502Y-87295820D01*
X176390537Y-87185506D01*
X176311185Y-87088815D01*
X176214494Y-87009463D01*
X176104180Y-86950498D01*
X175984482Y-86914188D01*
X175860000Y-86901928D01*
X172860000Y-86901928D01*
X172735518Y-86914188D01*
X172615820Y-86950498D01*
X172505506Y-87009463D01*
X172408815Y-87088815D01*
X172329463Y-87185506D01*
X172270498Y-87295820D01*
X172234188Y-87415518D01*
X172221928Y-87540000D01*
X138797000Y-87540000D01*
X138797000Y-84987000D01*
X148180000Y-84987000D01*
X148204907Y-84984534D01*
X148228724Y-84977282D01*
X148250668Y-84965523D01*
X148269896Y-84949709D01*
X148285670Y-84930447D01*
X148405670Y-84750447D01*
X148417333Y-84728601D01*
X148424560Y-84704776D01*
X148427000Y-84680000D01*
X148427000Y-80960000D01*
X148421711Y-80923731D01*
X148412296Y-80900683D01*
X148398566Y-80879915D01*
X148268566Y-80719915D01*
X148259803Y-80710197D01*
X148240557Y-80694403D01*
X148218601Y-80682667D01*
X148194776Y-80675440D01*
X148170000Y-80673000D01*
X146921448Y-80673000D01*
X146993285Y-80625000D01*
X150464133Y-80625000D01*
X153585001Y-83745870D01*
X153585000Y-85136715D01*
X153502795Y-85259744D01*
X153424774Y-85448102D01*
X153385000Y-85648061D01*
X153385000Y-85851939D01*
X153424774Y-86051898D01*
X153502795Y-86240256D01*
X153616063Y-86409774D01*
X153760226Y-86553937D01*
X153929744Y-86667205D01*
X154118102Y-86745226D01*
X154318061Y-86785000D01*
X154521939Y-86785000D01*
X154721898Y-86745226D01*
X154910256Y-86667205D01*
X155079774Y-86553937D01*
X155223937Y-86409774D01*
X155337205Y-86240256D01*
X155415226Y-86051898D01*
X155455000Y-85851939D01*
X155455000Y-85648061D01*
X155415226Y-85448102D01*
X155337205Y-85259744D01*
X155255000Y-85136715D01*
X155255000Y-83749721D01*
X172225000Y-83749721D01*
X172225000Y-84170279D01*
X172307047Y-84582756D01*
X172467988Y-84971302D01*
X172701637Y-85320983D01*
X172999017Y-85618363D01*
X173348698Y-85852012D01*
X173737244Y-86012953D01*
X174149721Y-86095000D01*
X174570279Y-86095000D01*
X174982756Y-86012953D01*
X175371302Y-85852012D01*
X175720983Y-85618363D01*
X176018363Y-85320983D01*
X176252012Y-84971302D01*
X176412953Y-84582756D01*
X176495000Y-84170279D01*
X176495000Y-83749721D01*
X176412953Y-83337244D01*
X176252012Y-82948698D01*
X176018363Y-82599017D01*
X175720983Y-82301637D01*
X175371302Y-82067988D01*
X174982756Y-81907047D01*
X174570279Y-81825000D01*
X174149721Y-81825000D01*
X173737244Y-81907047D01*
X173348698Y-82067988D01*
X172999017Y-82301637D01*
X172701637Y-82599017D01*
X172467988Y-82948698D01*
X172307047Y-83337244D01*
X172225000Y-83749721D01*
X155255000Y-83749721D01*
X155255000Y-83441018D01*
X155259040Y-83400000D01*
X155242918Y-83236311D01*
X155195172Y-83078913D01*
X155117636Y-82933854D01*
X155039439Y-82838570D01*
X155039437Y-82838568D01*
X155013291Y-82806709D01*
X154981432Y-82780563D01*
X153040868Y-80840000D01*
X163631928Y-80840000D01*
X163631928Y-82440000D01*
X163644188Y-82564482D01*
X163680498Y-82684180D01*
X163739463Y-82794494D01*
X163818815Y-82891185D01*
X163915506Y-82970537D01*
X164025820Y-83029502D01*
X164145518Y-83065812D01*
X164270000Y-83078072D01*
X165870000Y-83078072D01*
X165994482Y-83065812D01*
X166114180Y-83029502D01*
X166224494Y-82970537D01*
X166321185Y-82891185D01*
X166400537Y-82794494D01*
X166459502Y-82684180D01*
X166495812Y-82564482D01*
X166508072Y-82440000D01*
X166508072Y-80840000D01*
X166495812Y-80715518D01*
X166459502Y-80595820D01*
X166400537Y-80485506D01*
X166321185Y-80388815D01*
X166224494Y-80309463D01*
X166114180Y-80250498D01*
X165994482Y-80214188D01*
X165870000Y-80201928D01*
X164270000Y-80201928D01*
X164145518Y-80214188D01*
X164025820Y-80250498D01*
X163915506Y-80309463D01*
X163818815Y-80388815D01*
X163739463Y-80485506D01*
X163680498Y-80595820D01*
X163644188Y-80715518D01*
X163631928Y-80840000D01*
X153040868Y-80840000D01*
X151429446Y-79228579D01*
X151403291Y-79196709D01*
X151276146Y-79092364D01*
X151131087Y-79014828D01*
X150973689Y-78967082D01*
X150851019Y-78955000D01*
X150851018Y-78955000D01*
X150810000Y-78950960D01*
X150768982Y-78955000D01*
X146993285Y-78955000D01*
X146870256Y-78872795D01*
X146681898Y-78794774D01*
X146481939Y-78755000D01*
X146278061Y-78755000D01*
X146078102Y-78794774D01*
X145889744Y-78872795D01*
X145720226Y-78986063D01*
X145576063Y-79130226D01*
X145462795Y-79299744D01*
X145384774Y-79488102D01*
X145345000Y-79688061D01*
X145345000Y-79891939D01*
X145384774Y-80091898D01*
X145462795Y-80280256D01*
X145576063Y-80449774D01*
X145720226Y-80593937D01*
X145838552Y-80673000D01*
X144870183Y-80673000D01*
X144847000Y-80644665D01*
X144847000Y-80200000D01*
X144846278Y-80186481D01*
X144841215Y-80162105D01*
X144831493Y-80139186D01*
X144771493Y-80029186D01*
X144749803Y-80000197D01*
X144730557Y-79984403D01*
X144708601Y-79972667D01*
X144684776Y-79965440D01*
X144660000Y-79963000D01*
X138892114Y-79963000D01*
X138816686Y-79866022D01*
X138786997Y-75749084D01*
X138784623Y-75725544D01*
X138777457Y-75701702D01*
X138765778Y-75679715D01*
X138750034Y-75660429D01*
X138730829Y-75644585D01*
X138708903Y-75632793D01*
X138685097Y-75625504D01*
X138660327Y-75623000D01*
X123130327Y-75583000D01*
X123105224Y-75585440D01*
X123081399Y-75592667D01*
X123059443Y-75604403D01*
X123040197Y-75620197D01*
X123024403Y-75639443D01*
X123012667Y-75661399D01*
X123005440Y-75685224D01*
X123003000Y-75710000D01*
X91692052Y-75710000D01*
X91686829Y-65801237D01*
X91700890Y-65871925D01*
X91869369Y-66278669D01*
X92113962Y-66644729D01*
X92425271Y-66956038D01*
X92791331Y-67200631D01*
X93198075Y-67369110D01*
X93629872Y-67455000D01*
X94070128Y-67455000D01*
X94501925Y-67369110D01*
X94908669Y-67200631D01*
X95274729Y-66956038D01*
X95586038Y-66644729D01*
X95830631Y-66278669D01*
X95999110Y-65871925D01*
X96085000Y-65440128D01*
X96085000Y-64999872D01*
X95999110Y-64568075D01*
X95830631Y-64161331D01*
X95586038Y-63795271D01*
X95274729Y-63483962D01*
X94908669Y-63239369D01*
X94501925Y-63070890D01*
X94220948Y-63015000D01*
X176837686Y-63015000D01*
X176808075Y-63020890D01*
G37*
G04 #@! TD.AperFunction*
M02*
