M48
; DRILL file {KiCad (5.1.12)-1} date 10/31/24 12:08:42
; FORMAT={-:-/ absolute / metric / decimal}
; #@! TF.CreationDate,2024-10-31T12:08:42-06:00
; #@! TF.GenerationSoftware,Kicad,Pcbnew,(5.1.12)-1
; #@! TF.FileFunction,Plated,1,2,PTH
FMAT,2
METRIC
T1C0.300
T2C0.400
T3C0.550
T4C1.250
T5C1.270
T6C3.000
%
G90
G05
T1
X24.92Y-57.19
X70.15Y-15.32
T2
X12.14Y-63.86
X13.74Y-29.44
X14.61Y-76.09
X14.62Y-72.06
X15.16Y-37.43
X15.49Y-22.16
X15.52Y-26.15
X15.62Y-68.13
X15.74Y-64.33
X17.32Y-32.28
X19.13Y-10.94
X19.41Y-41.84
X19.72Y-59.92
X19.72Y-60.83
X19.72Y-63.78
X19.72Y-64.71
X19.72Y-67.65
X19.72Y-68.55
X19.84Y-17.74
X19.84Y-18.64
X19.84Y-21.79
X19.84Y-22.71
X19.84Y-25.65
X19.84Y-26.67
X19.99Y-57.95
X20.58Y-35.71
X22.15Y-11.61
X22.44Y-62.53
X22.99Y-16.57
X23.85Y-59.42
X24.284Y-58.188
X24.69Y-16.46
X24.91Y-53.98
X25.19Y-71.68
X25.72Y-31.14
X26.13Y-12.76
X26.47Y-16.1
X27.49Y-18.08
X27.49Y-20.58
X27.49Y-23.08
X27.49Y-25.58
X27.7Y-62.81
X27.7Y-64.89
X27.72Y-67.16
X27.726Y-60.32
X27.83Y-11.59
X29.49Y-18.08
X29.49Y-20.58
X29.49Y-23.08
X29.49Y-25.58
X29.67Y-66.92
X29.676Y-64.76
X29.726Y-60.32
X29.726Y-62.82
X31.455Y-30.98
X32.235Y-14.25
X32.315Y-12.58
X32.58Y-56.73
X33.03Y-30.84
X34.09Y-53.93
X34.31Y-26.69
X34.78Y-35.23
X35.33Y-65.0
X35.36Y-41.59
X35.92Y-15.57
X38.27Y-10.14
X39.69Y-17.97
X39.82Y-27.99
X40.5Y-15.6
X40.54Y-13.03
X46.86Y-9.98
X47.17Y-11.9
X48.307Y-66.528
X50.49Y-28.19
X51.67Y-18.12
X53.13Y-48.08
X55.04Y-48.63
X55.38Y-17.98
X55.432Y-27.99
X55.59Y-25.2
X57.23Y-13.54
X57.35Y-41.69
X58.48Y-64.6
X58.51Y-63.03
X60.64Y-19.84
X60.66Y-35.63
X60.74Y-61.26
X60.904Y-28.336
X60.99Y-58.61
X62.66Y-36.56
X63.275Y-56.505
X63.53Y-15.23
X63.94Y-49.4
X64.14Y-34.7
X64.77Y-57.658
X64.89Y-53.68
X65.105Y-13.675
X65.52Y-67.19
X65.56Y-25.42
X65.57Y-20.68
X65.57Y-23.18
X65.58Y-18.2
X65.61Y-60.09
X65.61Y-62.59
X65.62Y-64.51
X65.8Y-31.26
X67.09Y-32.95
X67.16Y-49.36
X67.176Y-47.834
X67.55Y-18.23
X67.56Y-25.42
X67.57Y-20.68
X67.57Y-23.18
X67.58Y-64.68
X67.59Y-67.22
X67.61Y-60.09
X67.61Y-62.59
X68.15Y-13.23
X68.3Y-57.13
X68.6Y-71.2
X68.75Y-27.13
X69.54Y-36.68
X69.71Y-29.55
X69.84Y-57.98
X70.21Y-16.59
X70.24Y-79.07
X71.81Y-26.29
X71.89Y-23.88
X71.94Y-24.96
X72.01Y-22.89
X72.4Y-68.0
X73.14Y-31.29
X74.16Y-59.63
X74.16Y-60.5
X74.16Y-63.6
X74.16Y-64.47
X74.16Y-67.47
X74.16Y-68.34
X74.8Y-71.2
X75.06Y-36.02
X75.29Y-41.65
X76.44Y-17.79
X76.44Y-18.69
X76.44Y-21.84
X76.44Y-22.76
X76.44Y-25.7
X76.44Y-26.72
X78.17Y-33.86
X78.26Y-63.91
X78.39Y-67.94
X78.6Y-58.2
X78.85Y-15.12
X79.81Y-32.85
X80.518Y-15.24
X80.54Y-22.31
X80.54Y-26.15
X80.56Y-18.19
X81.052Y-30.282
X93.89Y-21.41
X96.75Y-20.66
T3
X95.22Y-3.84
X95.22Y-5.09
X95.22Y-6.34
X95.22Y-7.59
X95.22Y-14.266
X95.22Y-15.516
X95.22Y-16.767
X95.22Y-18.017
X95.22Y-31.41
X95.22Y-32.66
X95.22Y-33.91
X95.22Y-35.16
X95.22Y-41.77
X95.22Y-43.02
X95.22Y-44.27
X95.22Y-45.52
T4
X11.97Y-8.4
X11.97Y-54.4
X13.97Y-8.4
X13.97Y-54.4
X15.97Y-8.4
X15.97Y-54.4
X51.48Y-54.57
X51.82Y-8.4
X53.48Y-54.57
X53.82Y-8.4
X55.48Y-54.57
X55.82Y-8.4
T5
X83.68Y-92.47
X86.22Y-92.47
X88.76Y-92.47
X91.3Y-92.47
X93.27Y-52.222
X93.27Y-54.762
X93.27Y-57.302
X93.27Y-59.842
X93.27Y-67.4
X93.27Y-69.94
X93.27Y-72.48
X93.27Y-75.02
X93.84Y-92.47
T6
X3.84Y-24.88
X3.85Y-82.61
X95.11Y-24.88
X95.11Y-82.61
T0
M30
