G04 #@! TF.GenerationSoftware,KiCad,Pcbnew,(5.1.12)-1*
G04 #@! TF.CreationDate,2024-10-31T12:08:18-06:00*
G04 #@! TF.ProjectId,Tarjeta_rs232_485_v1,5461726a-6574-4615-9f72-733233325f34,rev?*
G04 #@! TF.SameCoordinates,Original*
G04 #@! TF.FileFunction,Copper,L1,Top*
G04 #@! TF.FilePolarity,Positive*
%FSLAX46Y46*%
G04 Gerber Fmt 4.6, Leading zero omitted, Abs format (unit mm)*
G04 Created by KiCad (PCBNEW (5.1.12)-1) date 2024-10-31 12:08:18*
%MOMM*%
%LPD*%
G01*
G04 APERTURE LIST*
G04 #@! TA.AperFunction,ComponentPad*
%ADD10C,1.875000*%
G04 #@! TD*
G04 #@! TA.AperFunction,ComponentPad*
%ADD11R,1.875000X1.875000*%
G04 #@! TD*
G04 #@! TA.AperFunction,SMDPad,CuDef*
%ADD12R,2.400000X4.500000*%
G04 #@! TD*
G04 #@! TA.AperFunction,SMDPad,CuDef*
%ADD13R,0.800000X4.500000*%
G04 #@! TD*
G04 #@! TA.AperFunction,SMDPad,CuDef*
%ADD14R,4.500000X2.400000*%
G04 #@! TD*
G04 #@! TA.AperFunction,SMDPad,CuDef*
%ADD15R,4.500000X0.800000*%
G04 #@! TD*
G04 #@! TA.AperFunction,SMDPad,CuDef*
%ADD16R,0.650000X1.525000*%
G04 #@! TD*
G04 #@! TA.AperFunction,SMDPad,CuDef*
%ADD17R,1.725000X0.450000*%
G04 #@! TD*
G04 #@! TA.AperFunction,ComponentPad*
%ADD18C,1.000000*%
G04 #@! TD*
G04 #@! TA.AperFunction,ComponentPad*
%ADD19C,1.905000*%
G04 #@! TD*
G04 #@! TA.AperFunction,ComponentPad*
%ADD20R,1.905000X1.905000*%
G04 #@! TD*
G04 #@! TA.AperFunction,SMDPad,CuDef*
%ADD21R,1.250000X0.600000*%
G04 #@! TD*
G04 #@! TA.AperFunction,ViaPad*
%ADD22C,3.100000*%
G04 #@! TD*
G04 #@! TA.AperFunction,ViaPad*
%ADD23C,0.800000*%
G04 #@! TD*
G04 #@! TA.AperFunction,ViaPad*
%ADD24C,0.400000*%
G04 #@! TD*
G04 #@! TA.AperFunction,ViaPad*
%ADD25C,0.500000*%
G04 #@! TD*
G04 #@! TA.AperFunction,Conductor*
%ADD26C,0.250000*%
G04 #@! TD*
G04 #@! TA.AperFunction,Conductor*
%ADD27C,0.400000*%
G04 #@! TD*
G04 #@! TA.AperFunction,Conductor*
%ADD28C,0.700000*%
G04 #@! TD*
G04 #@! TA.AperFunction,Conductor*
%ADD29C,0.350000*%
G04 #@! TD*
G04 #@! TA.AperFunction,Conductor*
%ADD30C,0.300000*%
G04 #@! TD*
G04 #@! TA.AperFunction,Conductor*
%ADD31C,0.254000*%
G04 #@! TD*
G04 #@! TA.AperFunction,Conductor*
%ADD32C,0.100000*%
G04 #@! TD*
G04 APERTURE END LIST*
D10*
X11970000Y-54400000D03*
X13970000Y-54400000D03*
D11*
X15970000Y-54400000D03*
D10*
X51480000Y-54570000D03*
X53480000Y-54570000D03*
D11*
X55480000Y-54570000D03*
D10*
X51820000Y-8400000D03*
X53820000Y-8400000D03*
D11*
X55820000Y-8400000D03*
D10*
X11970000Y-8400000D03*
X13970000Y-8400000D03*
D11*
X15970000Y-8400000D03*
D12*
X70760000Y-41730000D03*
D13*
X73060000Y-41730000D03*
D12*
X75360000Y-41680000D03*
D14*
X55482000Y-32590000D03*
D15*
X55482000Y-30290000D03*
D14*
X55432000Y-27990000D03*
D16*
X69565000Y-31288000D03*
X68295000Y-31288000D03*
X67025000Y-31288000D03*
X65755000Y-31288000D03*
X65755000Y-36712000D03*
X67025000Y-36712000D03*
X68295000Y-36712000D03*
X69565000Y-36712000D03*
G04 #@! TA.AperFunction,SMDPad,CuDef*
G36*
G01*
X63725000Y-56250000D02*
X63725000Y-56750000D01*
G75*
G02*
X63500000Y-56975000I-225000J0D01*
G01*
X63050000Y-56975000D01*
G75*
G02*
X62825000Y-56750000I0J225000D01*
G01*
X62825000Y-56250000D01*
G75*
G02*
X63050000Y-56025000I225000J0D01*
G01*
X63500000Y-56025000D01*
G75*
G02*
X63725000Y-56250000I0J-225000D01*
G01*
G37*
G04 #@! TD.AperFunction*
G04 #@! TA.AperFunction,SMDPad,CuDef*
G36*
G01*
X65275000Y-56250000D02*
X65275000Y-56750000D01*
G75*
G02*
X65050000Y-56975000I-225000J0D01*
G01*
X64600000Y-56975000D01*
G75*
G02*
X64375000Y-56750000I0J225000D01*
G01*
X64375000Y-56250000D01*
G75*
G02*
X64600000Y-56025000I225000J0D01*
G01*
X65050000Y-56025000D01*
G75*
G02*
X65275000Y-56250000I0J-225000D01*
G01*
G37*
G04 #@! TD.AperFunction*
G04 #@! TA.AperFunction,SMDPad,CuDef*
G36*
G01*
X75225000Y-70925000D02*
X75225000Y-71475000D01*
G75*
G02*
X75025000Y-71675000I-200000J0D01*
G01*
X74625000Y-71675000D01*
G75*
G02*
X74425000Y-71475000I0J200000D01*
G01*
X74425000Y-70925000D01*
G75*
G02*
X74625000Y-70725000I200000J0D01*
G01*
X75025000Y-70725000D01*
G75*
G02*
X75225000Y-70925000I0J-200000D01*
G01*
G37*
G04 #@! TD.AperFunction*
G04 #@! TA.AperFunction,SMDPad,CuDef*
G36*
G01*
X73575000Y-70925000D02*
X73575000Y-71475000D01*
G75*
G02*
X73375000Y-71675000I-200000J0D01*
G01*
X72975000Y-71675000D01*
G75*
G02*
X72775000Y-71475000I0J200000D01*
G01*
X72775000Y-70925000D01*
G75*
G02*
X72975000Y-70725000I200000J0D01*
G01*
X73375000Y-70725000D01*
G75*
G02*
X73575000Y-70925000I0J-200000D01*
G01*
G37*
G04 #@! TD.AperFunction*
G04 #@! TA.AperFunction,SMDPad,CuDef*
G36*
G01*
X58270000Y-62555000D02*
X58770000Y-62555000D01*
G75*
G02*
X58995000Y-62780000I0J-225000D01*
G01*
X58995000Y-63230000D01*
G75*
G02*
X58770000Y-63455000I-225000J0D01*
G01*
X58270000Y-63455000D01*
G75*
G02*
X58045000Y-63230000I0J225000D01*
G01*
X58045000Y-62780000D01*
G75*
G02*
X58270000Y-62555000I225000J0D01*
G01*
G37*
G04 #@! TD.AperFunction*
G04 #@! TA.AperFunction,SMDPad,CuDef*
G36*
G01*
X58270000Y-64105000D02*
X58770000Y-64105000D01*
G75*
G02*
X58995000Y-64330000I0J-225000D01*
G01*
X58995000Y-64780000D01*
G75*
G02*
X58770000Y-65005000I-225000J0D01*
G01*
X58270000Y-65005000D01*
G75*
G02*
X58045000Y-64780000I0J225000D01*
G01*
X58045000Y-64330000D01*
G75*
G02*
X58270000Y-64105000I225000J0D01*
G01*
G37*
G04 #@! TD.AperFunction*
G04 #@! TA.AperFunction,SMDPad,CuDef*
G36*
G01*
X72700000Y-31560000D02*
X72700000Y-31060000D01*
G75*
G02*
X72925000Y-30835000I225000J0D01*
G01*
X73375000Y-30835000D01*
G75*
G02*
X73600000Y-31060000I0J-225000D01*
G01*
X73600000Y-31560000D01*
G75*
G02*
X73375000Y-31785000I-225000J0D01*
G01*
X72925000Y-31785000D01*
G75*
G02*
X72700000Y-31560000I0J225000D01*
G01*
G37*
G04 #@! TD.AperFunction*
G04 #@! TA.AperFunction,SMDPad,CuDef*
G36*
G01*
X71150000Y-31560000D02*
X71150000Y-31060000D01*
G75*
G02*
X71375000Y-30835000I225000J0D01*
G01*
X71825000Y-30835000D01*
G75*
G02*
X72050000Y-31060000I0J-225000D01*
G01*
X72050000Y-31560000D01*
G75*
G02*
X71825000Y-31785000I-225000J0D01*
G01*
X71375000Y-31785000D01*
G75*
G02*
X71150000Y-31560000I0J225000D01*
G01*
G37*
G04 #@! TD.AperFunction*
G04 #@! TA.AperFunction,SMDPad,CuDef*
G36*
G01*
X65505000Y-13400000D02*
X65505000Y-13950000D01*
G75*
G02*
X65305000Y-14150000I-200000J0D01*
G01*
X64905000Y-14150000D01*
G75*
G02*
X64705000Y-13950000I0J200000D01*
G01*
X64705000Y-13400000D01*
G75*
G02*
X64905000Y-13200000I200000J0D01*
G01*
X65305000Y-13200000D01*
G75*
G02*
X65505000Y-13400000I0J-200000D01*
G01*
G37*
G04 #@! TD.AperFunction*
G04 #@! TA.AperFunction,SMDPad,CuDef*
G36*
G01*
X63855000Y-13400000D02*
X63855000Y-13950000D01*
G75*
G02*
X63655000Y-14150000I-200000J0D01*
G01*
X63255000Y-14150000D01*
G75*
G02*
X63055000Y-13950000I0J200000D01*
G01*
X63055000Y-13400000D01*
G75*
G02*
X63255000Y-13200000I200000J0D01*
G01*
X63655000Y-13200000D01*
G75*
G02*
X63855000Y-13400000I0J-200000D01*
G01*
G37*
G04 #@! TD.AperFunction*
D17*
X70100000Y-17841000D03*
X70100000Y-18491000D03*
X70100000Y-19141000D03*
X70100000Y-19791000D03*
X70100000Y-20441000D03*
X70100000Y-21091000D03*
X70100000Y-21741000D03*
X70100000Y-22391000D03*
X70100000Y-23041000D03*
X70100000Y-23691000D03*
X70100000Y-24341000D03*
X70100000Y-24991000D03*
X70100000Y-25641000D03*
X70100000Y-26291000D03*
X63076000Y-26291000D03*
X63076000Y-25641000D03*
X63076000Y-24991000D03*
X63076000Y-24341000D03*
X63076000Y-23691000D03*
X63076000Y-23041000D03*
X63076000Y-22391000D03*
X63076000Y-21741000D03*
X63076000Y-21091000D03*
X63076000Y-20441000D03*
X63076000Y-19791000D03*
X63076000Y-19141000D03*
X63076000Y-18491000D03*
X63076000Y-17841000D03*
G04 #@! TA.AperFunction,SMDPad,CuDef*
G36*
G01*
X78625000Y-12125000D02*
X79175000Y-12125000D01*
G75*
G02*
X79375000Y-12325000I0J-200000D01*
G01*
X79375000Y-12725000D01*
G75*
G02*
X79175000Y-12925000I-200000J0D01*
G01*
X78625000Y-12925000D01*
G75*
G02*
X78425000Y-12725000I0J200000D01*
G01*
X78425000Y-12325000D01*
G75*
G02*
X78625000Y-12125000I200000J0D01*
G01*
G37*
G04 #@! TD.AperFunction*
G04 #@! TA.AperFunction,SMDPad,CuDef*
G36*
G01*
X78625000Y-13775000D02*
X79175000Y-13775000D01*
G75*
G02*
X79375000Y-13975000I0J-200000D01*
G01*
X79375000Y-14375000D01*
G75*
G02*
X79175000Y-14575000I-200000J0D01*
G01*
X78625000Y-14575000D01*
G75*
G02*
X78425000Y-14375000I0J200000D01*
G01*
X78425000Y-13975000D01*
G75*
G02*
X78625000Y-13775000I200000J0D01*
G01*
G37*
G04 #@! TD.AperFunction*
X32298000Y-68375000D03*
X32298000Y-67725000D03*
X32298000Y-67075000D03*
X32298000Y-66425000D03*
X32298000Y-65775000D03*
X32298000Y-65125000D03*
X32298000Y-64475000D03*
X32298000Y-63825000D03*
X32298000Y-63175000D03*
X32298000Y-62525000D03*
X32298000Y-61875000D03*
X32298000Y-61225000D03*
X32298000Y-60575000D03*
X32298000Y-59925000D03*
X25274000Y-59925000D03*
X25274000Y-60575000D03*
X25274000Y-61225000D03*
X25274000Y-61875000D03*
X25274000Y-62525000D03*
X25274000Y-63175000D03*
X25274000Y-63825000D03*
X25274000Y-64475000D03*
X25274000Y-65125000D03*
X25274000Y-65775000D03*
X25274000Y-66425000D03*
X25274000Y-67075000D03*
X25274000Y-67725000D03*
X25274000Y-68375000D03*
X63176000Y-68135000D03*
X63176000Y-67485000D03*
X63176000Y-66835000D03*
X63176000Y-66185000D03*
X63176000Y-65535000D03*
X63176000Y-64885000D03*
X63176000Y-64235000D03*
X63176000Y-63585000D03*
X63176000Y-62935000D03*
X63176000Y-62285000D03*
X63176000Y-61635000D03*
X63176000Y-60985000D03*
X63176000Y-60335000D03*
X63176000Y-59685000D03*
X70200000Y-59685000D03*
X70200000Y-60335000D03*
X70200000Y-60985000D03*
X70200000Y-61635000D03*
X70200000Y-62285000D03*
X70200000Y-62935000D03*
X70200000Y-63585000D03*
X70200000Y-64235000D03*
X70200000Y-64885000D03*
X70200000Y-65535000D03*
X70200000Y-66185000D03*
X70200000Y-66835000D03*
X70200000Y-67485000D03*
X70200000Y-68135000D03*
D16*
X29585000Y-31118000D03*
X28315000Y-31118000D03*
X27045000Y-31118000D03*
X25775000Y-31118000D03*
X25775000Y-36542000D03*
X27045000Y-36542000D03*
X28315000Y-36542000D03*
X29585000Y-36542000D03*
D17*
X25114000Y-26221000D03*
X25114000Y-25571000D03*
X25114000Y-24921000D03*
X25114000Y-24271000D03*
X25114000Y-23621000D03*
X25114000Y-22971000D03*
X25114000Y-22321000D03*
X25114000Y-21671000D03*
X25114000Y-21021000D03*
X25114000Y-20371000D03*
X25114000Y-19721000D03*
X25114000Y-19071000D03*
X25114000Y-18421000D03*
X25114000Y-17771000D03*
X32138000Y-17771000D03*
X32138000Y-18421000D03*
X32138000Y-19071000D03*
X32138000Y-19721000D03*
X32138000Y-20371000D03*
X32138000Y-21021000D03*
X32138000Y-21671000D03*
X32138000Y-22321000D03*
X32138000Y-22971000D03*
X32138000Y-23621000D03*
X32138000Y-24271000D03*
X32138000Y-24921000D03*
X32138000Y-25571000D03*
X32138000Y-26221000D03*
G04 #@! TA.AperFunction,SMDPad,CuDef*
G36*
G01*
X18329000Y-58201000D02*
X18329000Y-57651000D01*
G75*
G02*
X18529000Y-57451000I200000J0D01*
G01*
X18929000Y-57451000D01*
G75*
G02*
X19129000Y-57651000I0J-200000D01*
G01*
X19129000Y-58201000D01*
G75*
G02*
X18929000Y-58401000I-200000J0D01*
G01*
X18529000Y-58401000D01*
G75*
G02*
X18329000Y-58201000I0J200000D01*
G01*
G37*
G04 #@! TD.AperFunction*
G04 #@! TA.AperFunction,SMDPad,CuDef*
G36*
G01*
X16679000Y-58201000D02*
X16679000Y-57651000D01*
G75*
G02*
X16879000Y-57451000I200000J0D01*
G01*
X17279000Y-57451000D01*
G75*
G02*
X17479000Y-57651000I0J-200000D01*
G01*
X17479000Y-58201000D01*
G75*
G02*
X17279000Y-58401000I-200000J0D01*
G01*
X16879000Y-58401000D01*
G75*
G02*
X16679000Y-58201000I0J200000D01*
G01*
G37*
G04 #@! TD.AperFunction*
G04 #@! TA.AperFunction,SMDPad,CuDef*
G36*
G01*
X18945000Y-74755000D02*
X18945000Y-74205000D01*
G75*
G02*
X19145000Y-74005000I200000J0D01*
G01*
X19545000Y-74005000D01*
G75*
G02*
X19745000Y-74205000I0J-200000D01*
G01*
X19745000Y-74755000D01*
G75*
G02*
X19545000Y-74955000I-200000J0D01*
G01*
X19145000Y-74955000D01*
G75*
G02*
X18945000Y-74755000I0J200000D01*
G01*
G37*
G04 #@! TD.AperFunction*
G04 #@! TA.AperFunction,SMDPad,CuDef*
G36*
G01*
X17295000Y-74755000D02*
X17295000Y-74205000D01*
G75*
G02*
X17495000Y-74005000I200000J0D01*
G01*
X17895000Y-74005000D01*
G75*
G02*
X18095000Y-74205000I0J-200000D01*
G01*
X18095000Y-74755000D01*
G75*
G02*
X17895000Y-74955000I-200000J0D01*
G01*
X17495000Y-74955000D01*
G75*
G02*
X17295000Y-74755000I0J200000D01*
G01*
G37*
G04 #@! TD.AperFunction*
G04 #@! TA.AperFunction,SMDPad,CuDef*
G36*
G01*
X18945000Y-71971000D02*
X18945000Y-71421000D01*
G75*
G02*
X19145000Y-71221000I200000J0D01*
G01*
X19545000Y-71221000D01*
G75*
G02*
X19745000Y-71421000I0J-200000D01*
G01*
X19745000Y-71971000D01*
G75*
G02*
X19545000Y-72171000I-200000J0D01*
G01*
X19145000Y-72171000D01*
G75*
G02*
X18945000Y-71971000I0J200000D01*
G01*
G37*
G04 #@! TD.AperFunction*
G04 #@! TA.AperFunction,SMDPad,CuDef*
G36*
G01*
X17295000Y-71971000D02*
X17295000Y-71421000D01*
G75*
G02*
X17495000Y-71221000I200000J0D01*
G01*
X17895000Y-71221000D01*
G75*
G02*
X18095000Y-71421000I0J-200000D01*
G01*
X18095000Y-71971000D01*
G75*
G02*
X17895000Y-72171000I-200000J0D01*
G01*
X17495000Y-72171000D01*
G75*
G02*
X17295000Y-71971000I0J200000D01*
G01*
G37*
G04 #@! TD.AperFunction*
G04 #@! TA.AperFunction,SMDPad,CuDef*
G36*
G01*
X77040000Y-57725000D02*
X77040000Y-58275000D01*
G75*
G02*
X76840000Y-58475000I-200000J0D01*
G01*
X76440000Y-58475000D01*
G75*
G02*
X76240000Y-58275000I0J200000D01*
G01*
X76240000Y-57725000D01*
G75*
G02*
X76440000Y-57525000I200000J0D01*
G01*
X76840000Y-57525000D01*
G75*
G02*
X77040000Y-57725000I0J-200000D01*
G01*
G37*
G04 #@! TD.AperFunction*
G04 #@! TA.AperFunction,SMDPad,CuDef*
G36*
G01*
X75390000Y-57725000D02*
X75390000Y-58275000D01*
G75*
G02*
X75190000Y-58475000I-200000J0D01*
G01*
X74790000Y-58475000D01*
G75*
G02*
X74590000Y-58275000I0J200000D01*
G01*
X74590000Y-57725000D01*
G75*
G02*
X74790000Y-57525000I200000J0D01*
G01*
X75190000Y-57525000D01*
G75*
G02*
X75390000Y-57725000I0J-200000D01*
G01*
G37*
G04 #@! TD.AperFunction*
G04 #@! TA.AperFunction,SMDPad,CuDef*
G36*
G01*
X68175000Y-71475000D02*
X68175000Y-70925000D01*
G75*
G02*
X68375000Y-70725000I200000J0D01*
G01*
X68775000Y-70725000D01*
G75*
G02*
X68975000Y-70925000I0J-200000D01*
G01*
X68975000Y-71475000D01*
G75*
G02*
X68775000Y-71675000I-200000J0D01*
G01*
X68375000Y-71675000D01*
G75*
G02*
X68175000Y-71475000I0J200000D01*
G01*
G37*
G04 #@! TD.AperFunction*
G04 #@! TA.AperFunction,SMDPad,CuDef*
G36*
G01*
X69825000Y-71475000D02*
X69825000Y-70925000D01*
G75*
G02*
X70025000Y-70725000I200000J0D01*
G01*
X70425000Y-70725000D01*
G75*
G02*
X70625000Y-70925000I0J-200000D01*
G01*
X70625000Y-71475000D01*
G75*
G02*
X70425000Y-71675000I-200000J0D01*
G01*
X70025000Y-71675000D01*
G75*
G02*
X69825000Y-71475000I0J200000D01*
G01*
G37*
G04 #@! TD.AperFunction*
G04 #@! TA.AperFunction,SMDPad,CuDef*
G36*
G01*
X56965000Y-13117000D02*
X57515000Y-13117000D01*
G75*
G02*
X57715000Y-13317000I0J-200000D01*
G01*
X57715000Y-13717000D01*
G75*
G02*
X57515000Y-13917000I-200000J0D01*
G01*
X56965000Y-13917000D01*
G75*
G02*
X56765000Y-13717000I0J200000D01*
G01*
X56765000Y-13317000D01*
G75*
G02*
X56965000Y-13117000I200000J0D01*
G01*
G37*
G04 #@! TD.AperFunction*
G04 #@! TA.AperFunction,SMDPad,CuDef*
G36*
G01*
X56965000Y-14767000D02*
X57515000Y-14767000D01*
G75*
G02*
X57715000Y-14967000I0J-200000D01*
G01*
X57715000Y-15367000D01*
G75*
G02*
X57515000Y-15567000I-200000J0D01*
G01*
X56965000Y-15567000D01*
G75*
G02*
X56765000Y-15367000I0J200000D01*
G01*
X56765000Y-14967000D01*
G75*
G02*
X56965000Y-14767000I200000J0D01*
G01*
G37*
G04 #@! TD.AperFunction*
G04 #@! TA.AperFunction,SMDPad,CuDef*
G36*
G01*
X55965000Y-13917000D02*
X55415000Y-13917000D01*
G75*
G02*
X55215000Y-13717000I0J200000D01*
G01*
X55215000Y-13317000D01*
G75*
G02*
X55415000Y-13117000I200000J0D01*
G01*
X55965000Y-13117000D01*
G75*
G02*
X56165000Y-13317000I0J-200000D01*
G01*
X56165000Y-13717000D01*
G75*
G02*
X55965000Y-13917000I-200000J0D01*
G01*
G37*
G04 #@! TD.AperFunction*
G04 #@! TA.AperFunction,SMDPad,CuDef*
G36*
G01*
X55965000Y-15567000D02*
X55415000Y-15567000D01*
G75*
G02*
X55215000Y-15367000I0J200000D01*
G01*
X55215000Y-14967000D01*
G75*
G02*
X55415000Y-14767000I200000J0D01*
G01*
X55965000Y-14767000D01*
G75*
G02*
X56165000Y-14967000I0J-200000D01*
G01*
X56165000Y-15367000D01*
G75*
G02*
X55965000Y-15567000I-200000J0D01*
G01*
G37*
G04 #@! TD.AperFunction*
G04 #@! TA.AperFunction,SMDPad,CuDef*
G36*
G01*
X77025000Y-12125000D02*
X77575000Y-12125000D01*
G75*
G02*
X77775000Y-12325000I0J-200000D01*
G01*
X77775000Y-12725000D01*
G75*
G02*
X77575000Y-12925000I-200000J0D01*
G01*
X77025000Y-12925000D01*
G75*
G02*
X76825000Y-12725000I0J200000D01*
G01*
X76825000Y-12325000D01*
G75*
G02*
X77025000Y-12125000I200000J0D01*
G01*
G37*
G04 #@! TD.AperFunction*
G04 #@! TA.AperFunction,SMDPad,CuDef*
G36*
G01*
X77025000Y-13775000D02*
X77575000Y-13775000D01*
G75*
G02*
X77775000Y-13975000I0J-200000D01*
G01*
X77775000Y-14375000D01*
G75*
G02*
X77575000Y-14575000I-200000J0D01*
G01*
X77025000Y-14575000D01*
G75*
G02*
X76825000Y-14375000I0J200000D01*
G01*
X76825000Y-13975000D01*
G75*
G02*
X77025000Y-13775000I200000J0D01*
G01*
G37*
G04 #@! TD.AperFunction*
G04 #@! TA.AperFunction,SMDPad,CuDef*
G36*
G01*
X80195000Y-33575000D02*
X80195000Y-34125000D01*
G75*
G02*
X79995000Y-34325000I-200000J0D01*
G01*
X79595000Y-34325000D01*
G75*
G02*
X79395000Y-34125000I0J200000D01*
G01*
X79395000Y-33575000D01*
G75*
G02*
X79595000Y-33375000I200000J0D01*
G01*
X79995000Y-33375000D01*
G75*
G02*
X80195000Y-33575000I0J-200000D01*
G01*
G37*
G04 #@! TD.AperFunction*
G04 #@! TA.AperFunction,SMDPad,CuDef*
G36*
G01*
X78545000Y-33575000D02*
X78545000Y-34125000D01*
G75*
G02*
X78345000Y-34325000I-200000J0D01*
G01*
X77945000Y-34325000D01*
G75*
G02*
X77745000Y-34125000I0J200000D01*
G01*
X77745000Y-33575000D01*
G75*
G02*
X77945000Y-33375000I200000J0D01*
G01*
X78345000Y-33375000D01*
G75*
G02*
X78545000Y-33575000I0J-200000D01*
G01*
G37*
G04 #@! TD.AperFunction*
G04 #@! TA.AperFunction,SMDPad,CuDef*
G36*
G01*
X80195000Y-35975000D02*
X80195000Y-36525000D01*
G75*
G02*
X79995000Y-36725000I-200000J0D01*
G01*
X79595000Y-36725000D01*
G75*
G02*
X79395000Y-36525000I0J200000D01*
G01*
X79395000Y-35975000D01*
G75*
G02*
X79595000Y-35775000I200000J0D01*
G01*
X79995000Y-35775000D01*
G75*
G02*
X80195000Y-35975000I0J-200000D01*
G01*
G37*
G04 #@! TD.AperFunction*
G04 #@! TA.AperFunction,SMDPad,CuDef*
G36*
G01*
X78545000Y-35975000D02*
X78545000Y-36525000D01*
G75*
G02*
X78345000Y-36725000I-200000J0D01*
G01*
X77945000Y-36725000D01*
G75*
G02*
X77745000Y-36525000I0J200000D01*
G01*
X77745000Y-35975000D01*
G75*
G02*
X77945000Y-35775000I200000J0D01*
G01*
X78345000Y-35775000D01*
G75*
G02*
X78545000Y-35975000I0J-200000D01*
G01*
G37*
G04 #@! TD.AperFunction*
G04 #@! TA.AperFunction,SMDPad,CuDef*
G36*
G01*
X39255000Y-12765000D02*
X39255000Y-13315000D01*
G75*
G02*
X39055000Y-13515000I-200000J0D01*
G01*
X38655000Y-13515000D01*
G75*
G02*
X38455000Y-13315000I0J200000D01*
G01*
X38455000Y-12765000D01*
G75*
G02*
X38655000Y-12565000I200000J0D01*
G01*
X39055000Y-12565000D01*
G75*
G02*
X39255000Y-12765000I0J-200000D01*
G01*
G37*
G04 #@! TD.AperFunction*
G04 #@! TA.AperFunction,SMDPad,CuDef*
G36*
G01*
X40905000Y-12765000D02*
X40905000Y-13315000D01*
G75*
G02*
X40705000Y-13515000I-200000J0D01*
G01*
X40305000Y-13515000D01*
G75*
G02*
X40105000Y-13315000I0J200000D01*
G01*
X40105000Y-12765000D01*
G75*
G02*
X40305000Y-12565000I200000J0D01*
G01*
X40705000Y-12565000D01*
G75*
G02*
X40905000Y-12765000I0J-200000D01*
G01*
G37*
G04 #@! TD.AperFunction*
G04 #@! TA.AperFunction,SMDPad,CuDef*
G36*
G01*
X38455000Y-14935000D02*
X38455000Y-14385000D01*
G75*
G02*
X38655000Y-14185000I200000J0D01*
G01*
X39055000Y-14185000D01*
G75*
G02*
X39255000Y-14385000I0J-200000D01*
G01*
X39255000Y-14935000D01*
G75*
G02*
X39055000Y-15135000I-200000J0D01*
G01*
X38655000Y-15135000D01*
G75*
G02*
X38455000Y-14935000I0J200000D01*
G01*
G37*
G04 #@! TD.AperFunction*
G04 #@! TA.AperFunction,SMDPad,CuDef*
G36*
G01*
X40105000Y-14935000D02*
X40105000Y-14385000D01*
G75*
G02*
X40305000Y-14185000I200000J0D01*
G01*
X40705000Y-14185000D01*
G75*
G02*
X40905000Y-14385000I0J-200000D01*
G01*
X40905000Y-14935000D01*
G75*
G02*
X40705000Y-15135000I-200000J0D01*
G01*
X40305000Y-15135000D01*
G75*
G02*
X40105000Y-14935000I0J200000D01*
G01*
G37*
G04 #@! TD.AperFunction*
G04 #@! TA.AperFunction,SMDPad,CuDef*
G36*
G01*
X18855000Y-13705000D02*
X19405000Y-13705000D01*
G75*
G02*
X19605000Y-13905000I0J-200000D01*
G01*
X19605000Y-14305000D01*
G75*
G02*
X19405000Y-14505000I-200000J0D01*
G01*
X18855000Y-14505000D01*
G75*
G02*
X18655000Y-14305000I0J200000D01*
G01*
X18655000Y-13905000D01*
G75*
G02*
X18855000Y-13705000I200000J0D01*
G01*
G37*
G04 #@! TD.AperFunction*
G04 #@! TA.AperFunction,SMDPad,CuDef*
G36*
G01*
X18855000Y-12055000D02*
X19405000Y-12055000D01*
G75*
G02*
X19605000Y-12255000I0J-200000D01*
G01*
X19605000Y-12655000D01*
G75*
G02*
X19405000Y-12855000I-200000J0D01*
G01*
X18855000Y-12855000D01*
G75*
G02*
X18655000Y-12655000I0J200000D01*
G01*
X18655000Y-12255000D01*
G75*
G02*
X18855000Y-12055000I200000J0D01*
G01*
G37*
G04 #@! TD.AperFunction*
G04 #@! TA.AperFunction,SMDPad,CuDef*
G36*
G01*
X16425000Y-34055000D02*
X16425000Y-33505000D01*
G75*
G02*
X16625000Y-33305000I200000J0D01*
G01*
X17025000Y-33305000D01*
G75*
G02*
X17225000Y-33505000I0J-200000D01*
G01*
X17225000Y-34055000D01*
G75*
G02*
X17025000Y-34255000I-200000J0D01*
G01*
X16625000Y-34255000D01*
G75*
G02*
X16425000Y-34055000I0J200000D01*
G01*
G37*
G04 #@! TD.AperFunction*
G04 #@! TA.AperFunction,SMDPad,CuDef*
G36*
G01*
X14775000Y-34055000D02*
X14775000Y-33505000D01*
G75*
G02*
X14975000Y-33305000I200000J0D01*
G01*
X15375000Y-33305000D01*
G75*
G02*
X15575000Y-33505000I0J-200000D01*
G01*
X15575000Y-34055000D01*
G75*
G02*
X15375000Y-34255000I-200000J0D01*
G01*
X14975000Y-34255000D01*
G75*
G02*
X14775000Y-34055000I0J200000D01*
G01*
G37*
G04 #@! TD.AperFunction*
G04 #@! TA.AperFunction,SMDPad,CuDef*
G36*
G01*
X14775000Y-36455000D02*
X14775000Y-35905000D01*
G75*
G02*
X14975000Y-35705000I200000J0D01*
G01*
X15375000Y-35705000D01*
G75*
G02*
X15575000Y-35905000I0J-200000D01*
G01*
X15575000Y-36455000D01*
G75*
G02*
X15375000Y-36655000I-200000J0D01*
G01*
X14975000Y-36655000D01*
G75*
G02*
X14775000Y-36455000I0J200000D01*
G01*
G37*
G04 #@! TD.AperFunction*
G04 #@! TA.AperFunction,SMDPad,CuDef*
G36*
G01*
X16425000Y-36455000D02*
X16425000Y-35905000D01*
G75*
G02*
X16625000Y-35705000I200000J0D01*
G01*
X17025000Y-35705000D01*
G75*
G02*
X17225000Y-35905000I0J-200000D01*
G01*
X17225000Y-36455000D01*
G75*
G02*
X17025000Y-36655000I-200000J0D01*
G01*
X16625000Y-36655000D01*
G75*
G02*
X16425000Y-36455000I0J200000D01*
G01*
G37*
G04 #@! TD.AperFunction*
G04 #@! TA.AperFunction,SMDPad,CuDef*
G36*
G01*
X17225000Y-13705000D02*
X17775000Y-13705000D01*
G75*
G02*
X17975000Y-13905000I0J-200000D01*
G01*
X17975000Y-14305000D01*
G75*
G02*
X17775000Y-14505000I-200000J0D01*
G01*
X17225000Y-14505000D01*
G75*
G02*
X17025000Y-14305000I0J200000D01*
G01*
X17025000Y-13905000D01*
G75*
G02*
X17225000Y-13705000I200000J0D01*
G01*
G37*
G04 #@! TD.AperFunction*
G04 #@! TA.AperFunction,SMDPad,CuDef*
G36*
G01*
X17225000Y-12055000D02*
X17775000Y-12055000D01*
G75*
G02*
X17975000Y-12255000I0J-200000D01*
G01*
X17975000Y-12655000D01*
G75*
G02*
X17775000Y-12855000I-200000J0D01*
G01*
X17225000Y-12855000D01*
G75*
G02*
X17025000Y-12655000I0J200000D01*
G01*
X17025000Y-12255000D01*
G75*
G02*
X17225000Y-12055000I200000J0D01*
G01*
G37*
G04 #@! TD.AperFunction*
D18*
X95220000Y-31410000D03*
X95220000Y-32660000D03*
X95220000Y-33910000D03*
X95220000Y-35160000D03*
X95220000Y-41769997D03*
X95220000Y-43019997D03*
X95220000Y-44269997D03*
X95220000Y-45519997D03*
D19*
X93270000Y-67400000D03*
X93270000Y-69940000D03*
X93270000Y-72480000D03*
X93270000Y-75020000D03*
D20*
X83680000Y-92470000D03*
D19*
X86220000Y-92470000D03*
X88760000Y-92470000D03*
X91300000Y-92470000D03*
X93840000Y-92470000D03*
D18*
X95220000Y-14266500D03*
X95220000Y-15516500D03*
X95220000Y-16766500D03*
X95220000Y-18016500D03*
D19*
X93270000Y-52221662D03*
X93270000Y-54761662D03*
X93270000Y-57301662D03*
X93270000Y-59841662D03*
D18*
X95220000Y-3840000D03*
X95220000Y-5090000D03*
X95220000Y-6340000D03*
X95220000Y-7590000D03*
G04 #@! TA.AperFunction,SMDPad,CuDef*
G36*
G01*
X32210000Y-55470000D02*
X32210000Y-54920000D01*
G75*
G02*
X32410000Y-54720000I200000J0D01*
G01*
X32810000Y-54720000D01*
G75*
G02*
X33010000Y-54920000I0J-200000D01*
G01*
X33010000Y-55470000D01*
G75*
G02*
X32810000Y-55670000I-200000J0D01*
G01*
X32410000Y-55670000D01*
G75*
G02*
X32210000Y-55470000I0J200000D01*
G01*
G37*
G04 #@! TD.AperFunction*
G04 #@! TA.AperFunction,SMDPad,CuDef*
G36*
G01*
X30560000Y-55470000D02*
X30560000Y-54920000D01*
G75*
G02*
X30760000Y-54720000I200000J0D01*
G01*
X31160000Y-54720000D01*
G75*
G02*
X31360000Y-54920000I0J-200000D01*
G01*
X31360000Y-55470000D01*
G75*
G02*
X31160000Y-55670000I-200000J0D01*
G01*
X30760000Y-55670000D01*
G75*
G02*
X30560000Y-55470000I0J200000D01*
G01*
G37*
G04 #@! TD.AperFunction*
G04 #@! TA.AperFunction,SMDPad,CuDef*
G36*
G01*
X62875000Y-55230000D02*
X62875000Y-54680000D01*
G75*
G02*
X63075000Y-54480000I200000J0D01*
G01*
X63475000Y-54480000D01*
G75*
G02*
X63675000Y-54680000I0J-200000D01*
G01*
X63675000Y-55230000D01*
G75*
G02*
X63475000Y-55430000I-200000J0D01*
G01*
X63075000Y-55430000D01*
G75*
G02*
X62875000Y-55230000I0J200000D01*
G01*
G37*
G04 #@! TD.AperFunction*
G04 #@! TA.AperFunction,SMDPad,CuDef*
G36*
G01*
X64525000Y-55230000D02*
X64525000Y-54680000D01*
G75*
G02*
X64725000Y-54480000I200000J0D01*
G01*
X65125000Y-54480000D01*
G75*
G02*
X65325000Y-54680000I0J-200000D01*
G01*
X65325000Y-55230000D01*
G75*
G02*
X65125000Y-55430000I-200000J0D01*
G01*
X64725000Y-55430000D01*
G75*
G02*
X64525000Y-55230000I0J200000D01*
G01*
G37*
G04 #@! TD.AperFunction*
G04 #@! TA.AperFunction,SMDPad,CuDef*
G36*
G01*
X30265000Y-12855000D02*
X30265000Y-12305000D01*
G75*
G02*
X30465000Y-12105000I200000J0D01*
G01*
X30865000Y-12105000D01*
G75*
G02*
X31065000Y-12305000I0J-200000D01*
G01*
X31065000Y-12855000D01*
G75*
G02*
X30865000Y-13055000I-200000J0D01*
G01*
X30465000Y-13055000D01*
G75*
G02*
X30265000Y-12855000I0J200000D01*
G01*
G37*
G04 #@! TD.AperFunction*
G04 #@! TA.AperFunction,SMDPad,CuDef*
G36*
G01*
X31915000Y-12855000D02*
X31915000Y-12305000D01*
G75*
G02*
X32115000Y-12105000I200000J0D01*
G01*
X32515000Y-12105000D01*
G75*
G02*
X32715000Y-12305000I0J-200000D01*
G01*
X32715000Y-12855000D01*
G75*
G02*
X32515000Y-13055000I-200000J0D01*
G01*
X32115000Y-13055000D01*
G75*
G02*
X31915000Y-12855000I0J200000D01*
G01*
G37*
G04 #@! TD.AperFunction*
G04 #@! TA.AperFunction,SMDPad,CuDef*
G36*
G01*
X16301000Y-59766000D02*
X16301000Y-61016000D01*
G75*
G02*
X16051000Y-61266000I-250000J0D01*
G01*
X15301000Y-61266000D01*
G75*
G02*
X15051000Y-61016000I0J250000D01*
G01*
X15051000Y-59766000D01*
G75*
G02*
X15301000Y-59516000I250000J0D01*
G01*
X16051000Y-59516000D01*
G75*
G02*
X16301000Y-59766000I0J-250000D01*
G01*
G37*
G04 #@! TD.AperFunction*
G04 #@! TA.AperFunction,SMDPad,CuDef*
G36*
G01*
X19101000Y-59766000D02*
X19101000Y-61016000D01*
G75*
G02*
X18851000Y-61266000I-250000J0D01*
G01*
X18101000Y-61266000D01*
G75*
G02*
X17851000Y-61016000I0J250000D01*
G01*
X17851000Y-59766000D01*
G75*
G02*
X18101000Y-59516000I250000J0D01*
G01*
X18851000Y-59516000D01*
G75*
G02*
X19101000Y-59766000I0J-250000D01*
G01*
G37*
G04 #@! TD.AperFunction*
G04 #@! TA.AperFunction,SMDPad,CuDef*
G36*
G01*
X16301000Y-67451000D02*
X16301000Y-68701000D01*
G75*
G02*
X16051000Y-68951000I-250000J0D01*
G01*
X15301000Y-68951000D01*
G75*
G02*
X15051000Y-68701000I0J250000D01*
G01*
X15051000Y-67451000D01*
G75*
G02*
X15301000Y-67201000I250000J0D01*
G01*
X16051000Y-67201000D01*
G75*
G02*
X16301000Y-67451000I0J-250000D01*
G01*
G37*
G04 #@! TD.AperFunction*
G04 #@! TA.AperFunction,SMDPad,CuDef*
G36*
G01*
X19101000Y-67451000D02*
X19101000Y-68701000D01*
G75*
G02*
X18851000Y-68951000I-250000J0D01*
G01*
X18101000Y-68951000D01*
G75*
G02*
X17851000Y-68701000I0J250000D01*
G01*
X17851000Y-67451000D01*
G75*
G02*
X18101000Y-67201000I250000J0D01*
G01*
X18851000Y-67201000D01*
G75*
G02*
X19101000Y-67451000I0J-250000D01*
G01*
G37*
G04 #@! TD.AperFunction*
G04 #@! TA.AperFunction,SMDPad,CuDef*
G36*
G01*
X16301000Y-63608500D02*
X16301000Y-64858500D01*
G75*
G02*
X16051000Y-65108500I-250000J0D01*
G01*
X15301000Y-65108500D01*
G75*
G02*
X15051000Y-64858500I0J250000D01*
G01*
X15051000Y-63608500D01*
G75*
G02*
X15301000Y-63358500I250000J0D01*
G01*
X16051000Y-63358500D01*
G75*
G02*
X16301000Y-63608500I0J-250000D01*
G01*
G37*
G04 #@! TD.AperFunction*
G04 #@! TA.AperFunction,SMDPad,CuDef*
G36*
G01*
X19101000Y-63608500D02*
X19101000Y-64858500D01*
G75*
G02*
X18851000Y-65108500I-250000J0D01*
G01*
X18101000Y-65108500D01*
G75*
G02*
X17851000Y-64858500I0J250000D01*
G01*
X17851000Y-63608500D01*
G75*
G02*
X18101000Y-63358500I250000J0D01*
G01*
X18851000Y-63358500D01*
G75*
G02*
X19101000Y-63608500I0J-250000D01*
G01*
G37*
G04 #@! TD.AperFunction*
G04 #@! TA.AperFunction,SMDPad,CuDef*
G36*
G01*
X74859000Y-60820000D02*
X74859000Y-59570000D01*
G75*
G02*
X75109000Y-59320000I250000J0D01*
G01*
X75859000Y-59320000D01*
G75*
G02*
X76109000Y-59570000I0J-250000D01*
G01*
X76109000Y-60820000D01*
G75*
G02*
X75859000Y-61070000I-250000J0D01*
G01*
X75109000Y-61070000D01*
G75*
G02*
X74859000Y-60820000I0J250000D01*
G01*
G37*
G04 #@! TD.AperFunction*
G04 #@! TA.AperFunction,SMDPad,CuDef*
G36*
G01*
X77659000Y-60820000D02*
X77659000Y-59570000D01*
G75*
G02*
X77909000Y-59320000I250000J0D01*
G01*
X78659000Y-59320000D01*
G75*
G02*
X78909000Y-59570000I0J-250000D01*
G01*
X78909000Y-60820000D01*
G75*
G02*
X78659000Y-61070000I-250000J0D01*
G01*
X77909000Y-61070000D01*
G75*
G02*
X77659000Y-60820000I0J250000D01*
G01*
G37*
G04 #@! TD.AperFunction*
G04 #@! TA.AperFunction,SMDPad,CuDef*
G36*
G01*
X74859000Y-68505000D02*
X74859000Y-67255000D01*
G75*
G02*
X75109000Y-67005000I250000J0D01*
G01*
X75859000Y-67005000D01*
G75*
G02*
X76109000Y-67255000I0J-250000D01*
G01*
X76109000Y-68505000D01*
G75*
G02*
X75859000Y-68755000I-250000J0D01*
G01*
X75109000Y-68755000D01*
G75*
G02*
X74859000Y-68505000I0J250000D01*
G01*
G37*
G04 #@! TD.AperFunction*
G04 #@! TA.AperFunction,SMDPad,CuDef*
G36*
G01*
X77659000Y-68505000D02*
X77659000Y-67255000D01*
G75*
G02*
X77909000Y-67005000I250000J0D01*
G01*
X78659000Y-67005000D01*
G75*
G02*
X78909000Y-67255000I0J-250000D01*
G01*
X78909000Y-68505000D01*
G75*
G02*
X78659000Y-68755000I-250000J0D01*
G01*
X77909000Y-68755000D01*
G75*
G02*
X77659000Y-68505000I0J250000D01*
G01*
G37*
G04 #@! TD.AperFunction*
G04 #@! TA.AperFunction,SMDPad,CuDef*
G36*
G01*
X74819000Y-64662500D02*
X74819000Y-63412500D01*
G75*
G02*
X75069000Y-63162500I250000J0D01*
G01*
X75819000Y-63162500D01*
G75*
G02*
X76069000Y-63412500I0J-250000D01*
G01*
X76069000Y-64662500D01*
G75*
G02*
X75819000Y-64912500I-250000J0D01*
G01*
X75069000Y-64912500D01*
G75*
G02*
X74819000Y-64662500I0J250000D01*
G01*
G37*
G04 #@! TD.AperFunction*
G04 #@! TA.AperFunction,SMDPad,CuDef*
G36*
G01*
X77619000Y-64662500D02*
X77619000Y-63412500D01*
G75*
G02*
X77869000Y-63162500I250000J0D01*
G01*
X78619000Y-63162500D01*
G75*
G02*
X78869000Y-63412500I0J-250000D01*
G01*
X78869000Y-64662500D01*
G75*
G02*
X78619000Y-64912500I-250000J0D01*
G01*
X77869000Y-64912500D01*
G75*
G02*
X77619000Y-64662500I0J250000D01*
G01*
G37*
G04 #@! TD.AperFunction*
D14*
X55382000Y-18070000D03*
D15*
X55432000Y-20370000D03*
D14*
X55432000Y-22670000D03*
D12*
X61900000Y-41730000D03*
D13*
X59600000Y-41730000D03*
D12*
X57300000Y-41780000D03*
G04 #@! TA.AperFunction,SMDPad,CuDef*
G36*
G01*
X77115000Y-18896000D02*
X77115000Y-17646000D01*
G75*
G02*
X77365000Y-17396000I250000J0D01*
G01*
X78115000Y-17396000D01*
G75*
G02*
X78365000Y-17646000I0J-250000D01*
G01*
X78365000Y-18896000D01*
G75*
G02*
X78115000Y-19146000I-250000J0D01*
G01*
X77365000Y-19146000D01*
G75*
G02*
X77115000Y-18896000I0J250000D01*
G01*
G37*
G04 #@! TD.AperFunction*
G04 #@! TA.AperFunction,SMDPad,CuDef*
G36*
G01*
X79915000Y-18896000D02*
X79915000Y-17646000D01*
G75*
G02*
X80165000Y-17396000I250000J0D01*
G01*
X80915000Y-17396000D01*
G75*
G02*
X81165000Y-17646000I0J-250000D01*
G01*
X81165000Y-18896000D01*
G75*
G02*
X80915000Y-19146000I-250000J0D01*
G01*
X80165000Y-19146000D01*
G75*
G02*
X79915000Y-18896000I0J250000D01*
G01*
G37*
G04 #@! TD.AperFunction*
D21*
X73050000Y-35080000D03*
X73050000Y-36980000D03*
X75050000Y-36030000D03*
X60660000Y-35610000D03*
X62660000Y-34660000D03*
X62660000Y-36560000D03*
G04 #@! TA.AperFunction,SMDPad,CuDef*
G36*
G01*
X77115000Y-26781000D02*
X77115000Y-25531000D01*
G75*
G02*
X77365000Y-25281000I250000J0D01*
G01*
X78115000Y-25281000D01*
G75*
G02*
X78365000Y-25531000I0J-250000D01*
G01*
X78365000Y-26781000D01*
G75*
G02*
X78115000Y-27031000I-250000J0D01*
G01*
X77365000Y-27031000D01*
G75*
G02*
X77115000Y-26781000I0J250000D01*
G01*
G37*
G04 #@! TD.AperFunction*
G04 #@! TA.AperFunction,SMDPad,CuDef*
G36*
G01*
X79915000Y-26781000D02*
X79915000Y-25531000D01*
G75*
G02*
X80165000Y-25281000I250000J0D01*
G01*
X80915000Y-25281000D01*
G75*
G02*
X81165000Y-25531000I0J-250000D01*
G01*
X81165000Y-26781000D01*
G75*
G02*
X80915000Y-27031000I-250000J0D01*
G01*
X80165000Y-27031000D01*
G75*
G02*
X79915000Y-26781000I0J250000D01*
G01*
G37*
G04 #@! TD.AperFunction*
G04 #@! TA.AperFunction,SMDPad,CuDef*
G36*
G01*
X77115000Y-22938500D02*
X77115000Y-21688500D01*
G75*
G02*
X77365000Y-21438500I250000J0D01*
G01*
X78115000Y-21438500D01*
G75*
G02*
X78365000Y-21688500I0J-250000D01*
G01*
X78365000Y-22938500D01*
G75*
G02*
X78115000Y-23188500I-250000J0D01*
G01*
X77365000Y-23188500D01*
G75*
G02*
X77115000Y-22938500I0J250000D01*
G01*
G37*
G04 #@! TD.AperFunction*
G04 #@! TA.AperFunction,SMDPad,CuDef*
G36*
G01*
X79915000Y-22938500D02*
X79915000Y-21688500D01*
G75*
G02*
X80165000Y-21438500I250000J0D01*
G01*
X80915000Y-21438500D01*
G75*
G02*
X81165000Y-21688500I0J-250000D01*
G01*
X81165000Y-22938500D01*
G75*
G02*
X80915000Y-23188500I-250000J0D01*
G01*
X80165000Y-23188500D01*
G75*
G02*
X79915000Y-22938500I0J250000D01*
G01*
G37*
G04 #@! TD.AperFunction*
D14*
X39690000Y-27920000D03*
D15*
X39740000Y-30220000D03*
D14*
X39740000Y-32520000D03*
X39620000Y-18000000D03*
D15*
X39670000Y-20300000D03*
D14*
X39670000Y-22600000D03*
D12*
X19500000Y-41680000D03*
D13*
X21800000Y-41630000D03*
D12*
X24100000Y-41630000D03*
X35310000Y-41660000D03*
D13*
X33010000Y-41710000D03*
D12*
X30710000Y-41710000D03*
D21*
X22570000Y-36670000D03*
X22570000Y-34770000D03*
X20570000Y-35720000D03*
X34710000Y-35300000D03*
X32710000Y-36250000D03*
X32710000Y-34350000D03*
G04 #@! TA.AperFunction,SMDPad,CuDef*
G36*
G01*
X18941000Y-25481000D02*
X18941000Y-26731000D01*
G75*
G02*
X18691000Y-26981000I-250000J0D01*
G01*
X17941000Y-26981000D01*
G75*
G02*
X17691000Y-26731000I0J250000D01*
G01*
X17691000Y-25481000D01*
G75*
G02*
X17941000Y-25231000I250000J0D01*
G01*
X18691000Y-25231000D01*
G75*
G02*
X18941000Y-25481000I0J-250000D01*
G01*
G37*
G04 #@! TD.AperFunction*
G04 #@! TA.AperFunction,SMDPad,CuDef*
G36*
G01*
X16141000Y-25481000D02*
X16141000Y-26731000D01*
G75*
G02*
X15891000Y-26981000I-250000J0D01*
G01*
X15141000Y-26981000D01*
G75*
G02*
X14891000Y-26731000I0J250000D01*
G01*
X14891000Y-25481000D01*
G75*
G02*
X15141000Y-25231000I250000J0D01*
G01*
X15891000Y-25231000D01*
G75*
G02*
X16141000Y-25481000I0J-250000D01*
G01*
G37*
G04 #@! TD.AperFunction*
G04 #@! TA.AperFunction,SMDPad,CuDef*
G36*
G01*
X18941000Y-21638500D02*
X18941000Y-22888500D01*
G75*
G02*
X18691000Y-23138500I-250000J0D01*
G01*
X17941000Y-23138500D01*
G75*
G02*
X17691000Y-22888500I0J250000D01*
G01*
X17691000Y-21638500D01*
G75*
G02*
X17941000Y-21388500I250000J0D01*
G01*
X18691000Y-21388500D01*
G75*
G02*
X18941000Y-21638500I0J-250000D01*
G01*
G37*
G04 #@! TD.AperFunction*
G04 #@! TA.AperFunction,SMDPad,CuDef*
G36*
G01*
X16141000Y-21638500D02*
X16141000Y-22888500D01*
G75*
G02*
X15891000Y-23138500I-250000J0D01*
G01*
X15141000Y-23138500D01*
G75*
G02*
X14891000Y-22888500I0J250000D01*
G01*
X14891000Y-21638500D01*
G75*
G02*
X15141000Y-21388500I250000J0D01*
G01*
X15891000Y-21388500D01*
G75*
G02*
X16141000Y-21638500I0J-250000D01*
G01*
G37*
G04 #@! TD.AperFunction*
G04 #@! TA.AperFunction,SMDPad,CuDef*
G36*
G01*
X18941000Y-17596000D02*
X18941000Y-18846000D01*
G75*
G02*
X18691000Y-19096000I-250000J0D01*
G01*
X17941000Y-19096000D01*
G75*
G02*
X17691000Y-18846000I0J250000D01*
G01*
X17691000Y-17596000D01*
G75*
G02*
X17941000Y-17346000I250000J0D01*
G01*
X18691000Y-17346000D01*
G75*
G02*
X18941000Y-17596000I0J-250000D01*
G01*
G37*
G04 #@! TD.AperFunction*
G04 #@! TA.AperFunction,SMDPad,CuDef*
G36*
G01*
X16141000Y-17596000D02*
X16141000Y-18846000D01*
G75*
G02*
X15891000Y-19096000I-250000J0D01*
G01*
X15141000Y-19096000D01*
G75*
G02*
X14891000Y-18846000I0J250000D01*
G01*
X14891000Y-17596000D01*
G75*
G02*
X15141000Y-17346000I250000J0D01*
G01*
X15891000Y-17346000D01*
G75*
G02*
X16141000Y-17596000I0J-250000D01*
G01*
G37*
G04 #@! TD.AperFunction*
G04 #@! TA.AperFunction,SMDPad,CuDef*
G36*
G01*
X32160000Y-56995000D02*
X32160000Y-56495000D01*
G75*
G02*
X32385000Y-56270000I225000J0D01*
G01*
X32835000Y-56270000D01*
G75*
G02*
X33060000Y-56495000I0J-225000D01*
G01*
X33060000Y-56995000D01*
G75*
G02*
X32835000Y-57220000I-225000J0D01*
G01*
X32385000Y-57220000D01*
G75*
G02*
X32160000Y-56995000I0J225000D01*
G01*
G37*
G04 #@! TD.AperFunction*
G04 #@! TA.AperFunction,SMDPad,CuDef*
G36*
G01*
X30610000Y-56995000D02*
X30610000Y-56495000D01*
G75*
G02*
X30835000Y-56270000I225000J0D01*
G01*
X31285000Y-56270000D01*
G75*
G02*
X31510000Y-56495000I0J-225000D01*
G01*
X31510000Y-56995000D01*
G75*
G02*
X31285000Y-57220000I-225000J0D01*
G01*
X30835000Y-57220000D01*
G75*
G02*
X30610000Y-56995000I0J225000D01*
G01*
G37*
G04 #@! TD.AperFunction*
G04 #@! TA.AperFunction,SMDPad,CuDef*
G36*
G01*
X33850000Y-56295000D02*
X34350000Y-56295000D01*
G75*
G02*
X34575000Y-56520000I0J-225000D01*
G01*
X34575000Y-56970000D01*
G75*
G02*
X34350000Y-57195000I-225000J0D01*
G01*
X33850000Y-57195000D01*
G75*
G02*
X33625000Y-56970000I0J225000D01*
G01*
X33625000Y-56520000D01*
G75*
G02*
X33850000Y-56295000I225000J0D01*
G01*
G37*
G04 #@! TD.AperFunction*
G04 #@! TA.AperFunction,SMDPad,CuDef*
G36*
G01*
X33850000Y-54745000D02*
X34350000Y-54745000D01*
G75*
G02*
X34575000Y-54970000I0J-225000D01*
G01*
X34575000Y-55420000D01*
G75*
G02*
X34350000Y-55645000I-225000J0D01*
G01*
X33850000Y-55645000D01*
G75*
G02*
X33625000Y-55420000I0J225000D01*
G01*
X33625000Y-54970000D01*
G75*
G02*
X33850000Y-54745000I225000J0D01*
G01*
G37*
G04 #@! TD.AperFunction*
G04 #@! TA.AperFunction,SMDPad,CuDef*
G36*
G01*
X11830000Y-63435000D02*
X12330000Y-63435000D01*
G75*
G02*
X12555000Y-63660000I0J-225000D01*
G01*
X12555000Y-64110000D01*
G75*
G02*
X12330000Y-64335000I-225000J0D01*
G01*
X11830000Y-64335000D01*
G75*
G02*
X11605000Y-64110000I0J225000D01*
G01*
X11605000Y-63660000D01*
G75*
G02*
X11830000Y-63435000I225000J0D01*
G01*
G37*
G04 #@! TD.AperFunction*
G04 #@! TA.AperFunction,SMDPad,CuDef*
G36*
G01*
X11830000Y-61885000D02*
X12330000Y-61885000D01*
G75*
G02*
X12555000Y-62110000I0J-225000D01*
G01*
X12555000Y-62560000D01*
G75*
G02*
X12330000Y-62785000I-225000J0D01*
G01*
X11830000Y-62785000D01*
G75*
G02*
X11605000Y-62560000I0J225000D01*
G01*
X11605000Y-62110000D01*
G75*
G02*
X11830000Y-61885000I225000J0D01*
G01*
G37*
G04 #@! TD.AperFunction*
G04 #@! TA.AperFunction,SMDPad,CuDef*
G36*
G01*
X61460000Y-54505000D02*
X61960000Y-54505000D01*
G75*
G02*
X62185000Y-54730000I0J-225000D01*
G01*
X62185000Y-55180000D01*
G75*
G02*
X61960000Y-55405000I-225000J0D01*
G01*
X61460000Y-55405000D01*
G75*
G02*
X61235000Y-55180000I0J225000D01*
G01*
X61235000Y-54730000D01*
G75*
G02*
X61460000Y-54505000I225000J0D01*
G01*
G37*
G04 #@! TD.AperFunction*
G04 #@! TA.AperFunction,SMDPad,CuDef*
G36*
G01*
X61460000Y-56055000D02*
X61960000Y-56055000D01*
G75*
G02*
X62185000Y-56280000I0J-225000D01*
G01*
X62185000Y-56730000D01*
G75*
G02*
X61960000Y-56955000I-225000J0D01*
G01*
X61460000Y-56955000D01*
G75*
G02*
X61235000Y-56730000I0J225000D01*
G01*
X61235000Y-56280000D01*
G75*
G02*
X61460000Y-56055000I225000J0D01*
G01*
G37*
G04 #@! TD.AperFunction*
G04 #@! TA.AperFunction,SMDPad,CuDef*
G36*
G01*
X65505000Y-14975000D02*
X65505000Y-15475000D01*
G75*
G02*
X65280000Y-15700000I-225000J0D01*
G01*
X64830000Y-15700000D01*
G75*
G02*
X64605000Y-15475000I0J225000D01*
G01*
X64605000Y-14975000D01*
G75*
G02*
X64830000Y-14750000I225000J0D01*
G01*
X65280000Y-14750000D01*
G75*
G02*
X65505000Y-14975000I0J-225000D01*
G01*
G37*
G04 #@! TD.AperFunction*
G04 #@! TA.AperFunction,SMDPad,CuDef*
G36*
G01*
X63955000Y-14975000D02*
X63955000Y-15475000D01*
G75*
G02*
X63730000Y-15700000I-225000J0D01*
G01*
X63280000Y-15700000D01*
G75*
G02*
X63055000Y-15475000I0J225000D01*
G01*
X63055000Y-14975000D01*
G75*
G02*
X63280000Y-14750000I225000J0D01*
G01*
X63730000Y-14750000D01*
G75*
G02*
X63955000Y-14975000I0J-225000D01*
G01*
G37*
G04 #@! TD.AperFunction*
G04 #@! TA.AperFunction,SMDPad,CuDef*
G36*
G01*
X61630000Y-13225000D02*
X62130000Y-13225000D01*
G75*
G02*
X62355000Y-13450000I0J-225000D01*
G01*
X62355000Y-13900000D01*
G75*
G02*
X62130000Y-14125000I-225000J0D01*
G01*
X61630000Y-14125000D01*
G75*
G02*
X61405000Y-13900000I0J225000D01*
G01*
X61405000Y-13450000D01*
G75*
G02*
X61630000Y-13225000I225000J0D01*
G01*
G37*
G04 #@! TD.AperFunction*
G04 #@! TA.AperFunction,SMDPad,CuDef*
G36*
G01*
X61630000Y-14775000D02*
X62130000Y-14775000D01*
G75*
G02*
X62355000Y-15000000I0J-225000D01*
G01*
X62355000Y-15450000D01*
G75*
G02*
X62130000Y-15675000I-225000J0D01*
G01*
X61630000Y-15675000D01*
G75*
G02*
X61405000Y-15450000I0J225000D01*
G01*
X61405000Y-15000000D01*
G75*
G02*
X61630000Y-14775000I225000J0D01*
G01*
G37*
G04 #@! TD.AperFunction*
G04 #@! TA.AperFunction,SMDPad,CuDef*
G36*
G01*
X32555000Y-31230000D02*
X32555000Y-30730000D01*
G75*
G02*
X32780000Y-30505000I225000J0D01*
G01*
X33230000Y-30505000D01*
G75*
G02*
X33455000Y-30730000I0J-225000D01*
G01*
X33455000Y-31230000D01*
G75*
G02*
X33230000Y-31455000I-225000J0D01*
G01*
X32780000Y-31455000D01*
G75*
G02*
X32555000Y-31230000I0J225000D01*
G01*
G37*
G04 #@! TD.AperFunction*
G04 #@! TA.AperFunction,SMDPad,CuDef*
G36*
G01*
X31005000Y-31230000D02*
X31005000Y-30730000D01*
G75*
G02*
X31230000Y-30505000I225000J0D01*
G01*
X31680000Y-30505000D01*
G75*
G02*
X31905000Y-30730000I0J-225000D01*
G01*
X31905000Y-31230000D01*
G75*
G02*
X31680000Y-31455000I-225000J0D01*
G01*
X31230000Y-31455000D01*
G75*
G02*
X31005000Y-31230000I0J225000D01*
G01*
G37*
G04 #@! TD.AperFunction*
G04 #@! TA.AperFunction,SMDPad,CuDef*
G36*
G01*
X30235000Y-14500000D02*
X30235000Y-14000000D01*
G75*
G02*
X30460000Y-13775000I225000J0D01*
G01*
X30910000Y-13775000D01*
G75*
G02*
X31135000Y-14000000I0J-225000D01*
G01*
X31135000Y-14500000D01*
G75*
G02*
X30910000Y-14725000I-225000J0D01*
G01*
X30460000Y-14725000D01*
G75*
G02*
X30235000Y-14500000I0J225000D01*
G01*
G37*
G04 #@! TD.AperFunction*
G04 #@! TA.AperFunction,SMDPad,CuDef*
G36*
G01*
X31785000Y-14500000D02*
X31785000Y-14000000D01*
G75*
G02*
X32010000Y-13775000I225000J0D01*
G01*
X32460000Y-13775000D01*
G75*
G02*
X32685000Y-14000000I0J-225000D01*
G01*
X32685000Y-14500000D01*
G75*
G02*
X32460000Y-14725000I-225000J0D01*
G01*
X32010000Y-14725000D01*
G75*
G02*
X31785000Y-14500000I0J225000D01*
G01*
G37*
G04 #@! TD.AperFunction*
G04 #@! TA.AperFunction,SMDPad,CuDef*
G36*
G01*
X33720000Y-12215000D02*
X34220000Y-12215000D01*
G75*
G02*
X34445000Y-12440000I0J-225000D01*
G01*
X34445000Y-12890000D01*
G75*
G02*
X34220000Y-13115000I-225000J0D01*
G01*
X33720000Y-13115000D01*
G75*
G02*
X33495000Y-12890000I0J225000D01*
G01*
X33495000Y-12440000D01*
G75*
G02*
X33720000Y-12215000I225000J0D01*
G01*
G37*
G04 #@! TD.AperFunction*
G04 #@! TA.AperFunction,SMDPad,CuDef*
G36*
G01*
X33720000Y-13765000D02*
X34220000Y-13765000D01*
G75*
G02*
X34445000Y-13990000I0J-225000D01*
G01*
X34445000Y-14440000D01*
G75*
G02*
X34220000Y-14665000I-225000J0D01*
G01*
X33720000Y-14665000D01*
G75*
G02*
X33495000Y-14440000I0J225000D01*
G01*
X33495000Y-13990000D01*
G75*
G02*
X33720000Y-13765000I225000J0D01*
G01*
G37*
G04 #@! TD.AperFunction*
D22*
X95110000Y-24880000D03*
X3840000Y-24880000D03*
X3850000Y-82610000D03*
X95110000Y-82610000D03*
D23*
X12140000Y-63860000D03*
X58480000Y-64600000D03*
X32580000Y-56730000D03*
X65800000Y-31260000D03*
X60660000Y-35630000D03*
X75060000Y-36020000D03*
X73140000Y-31290000D03*
X63530000Y-15230000D03*
X57230000Y-13540000D03*
X25720000Y-31140000D03*
X20580000Y-35710000D03*
X33030000Y-30840000D03*
X34780000Y-35230000D03*
X40540000Y-13030000D03*
X19840000Y-22710000D03*
X19840000Y-21790000D03*
X19840000Y-25650000D03*
X19840000Y-26670000D03*
X27490000Y-18080000D03*
X29490000Y-18080000D03*
X27490000Y-20580000D03*
X29490000Y-20580000D03*
X27490000Y-23080000D03*
X29490000Y-23080000D03*
X27490000Y-25580000D03*
X29490000Y-25580000D03*
X19840000Y-17740000D03*
X19840000Y-18640000D03*
X67570000Y-20680000D03*
X65570000Y-20680000D03*
X67570000Y-23180000D03*
X65570000Y-23180000D03*
X27726000Y-60320000D03*
X29726000Y-62820000D03*
X29676000Y-64760000D03*
X29726000Y-60320000D03*
X65610000Y-60090000D03*
X67580000Y-64680000D03*
X65620000Y-64510000D03*
X65610000Y-62590000D03*
X67610000Y-62590000D03*
X67610000Y-60090000D03*
X76440000Y-25700000D03*
X76440000Y-26720000D03*
X76440000Y-21840000D03*
X76440000Y-22760000D03*
X76440000Y-17790000D03*
X76440000Y-18690000D03*
X74160000Y-59630000D03*
X74160000Y-60500000D03*
X74160000Y-63600000D03*
X74160000Y-64470000D03*
X74160000Y-67470000D03*
X74160000Y-68340000D03*
X19720000Y-60830000D03*
X19720000Y-63780000D03*
X19720000Y-64710000D03*
X19720000Y-67650000D03*
X19720000Y-68550000D03*
X32235000Y-14250000D03*
X26130000Y-12760000D03*
X19720000Y-59920000D03*
X67550000Y-18230000D03*
X65580000Y-18200000D03*
X67560000Y-25420000D03*
X65560000Y-25420000D03*
X27700000Y-62810000D03*
X27700000Y-64890000D03*
X27720000Y-67160000D03*
X29670000Y-66920000D03*
X65520000Y-67190000D03*
X67590000Y-67220000D03*
X63275000Y-56505000D03*
X32315000Y-12580000D03*
X17320000Y-32280000D03*
X22990000Y-16570000D03*
X31455000Y-30980000D03*
X71940000Y-24960000D03*
X69710000Y-29550000D03*
X68150000Y-13230000D03*
X78850000Y-15120000D03*
X71890000Y-23880000D03*
X72010000Y-22890000D03*
X65105000Y-13675000D03*
X60740000Y-61260000D03*
X58510000Y-63030000D03*
X63940000Y-49400000D03*
X64890000Y-53680000D03*
X64770024Y-57658000D03*
X78600000Y-58200000D03*
X34090000Y-53930000D03*
X24910000Y-53980000D03*
X19990000Y-57950000D03*
X22440000Y-62530000D03*
X15490000Y-22160000D03*
X15520000Y-26150000D03*
X39820000Y-27990000D03*
X19130000Y-10940000D03*
X40500000Y-15600000D03*
X96750000Y-20660000D03*
X46860000Y-9980000D03*
X93890000Y-21410000D03*
X39690000Y-17970000D03*
X47170000Y-11900000D03*
X35360000Y-41590000D03*
X67160000Y-49360000D03*
X55040000Y-48630010D03*
X19410000Y-41840000D03*
X67175693Y-47834307D03*
X53130000Y-48080028D03*
X80540000Y-22310000D03*
X80540000Y-26150000D03*
X55432000Y-27990000D03*
X50489990Y-28190000D03*
X55380000Y-17980000D03*
X51670000Y-18120000D03*
X62660000Y-36560000D03*
X55590000Y-25200000D03*
X69540000Y-36680000D03*
X64140000Y-34700000D03*
X57350000Y-41690000D03*
X75290000Y-41650000D03*
X80518000Y-15240000D03*
X80560000Y-18190000D03*
X78260000Y-63910000D03*
X78390000Y-67940000D03*
X15740000Y-64330000D03*
X15620000Y-68130000D03*
X24690000Y-16460000D03*
X22150000Y-11610000D03*
X26470000Y-16100000D03*
X27830000Y-11590000D03*
X71810000Y-26290000D03*
D24*
X70150000Y-15320000D03*
D23*
X68750000Y-27130000D03*
X70210000Y-16590000D03*
X60904142Y-28335859D03*
X68300000Y-57130000D03*
X60990000Y-58610000D03*
X69840000Y-57980000D03*
X24284059Y-58188197D03*
X23850000Y-59420000D03*
D25*
X24920000Y-57190000D03*
D23*
X70239990Y-79070000D03*
X48306814Y-66528186D03*
X35330000Y-65000000D03*
X25190000Y-71680000D03*
X15160000Y-37430000D03*
X13740000Y-29440000D03*
X81052348Y-30282348D03*
X79810000Y-32850000D03*
X74800000Y-71200000D03*
X68600000Y-71200000D03*
X14620000Y-72060000D03*
X14610000Y-76090000D03*
X78170000Y-33860000D03*
X67090000Y-32950000D03*
X60640000Y-19840000D03*
X34310000Y-26690000D03*
X38270000Y-10140000D03*
X35920000Y-15570000D03*
X72400000Y-68000000D03*
D26*
X25114000Y-19721000D02*
X27711000Y-19721000D01*
X25114000Y-21671000D02*
X27541000Y-21671000D01*
X32138000Y-22321000D02*
X29701000Y-22321000D01*
X25114000Y-24921000D02*
X27499000Y-24921000D01*
D27*
X25114000Y-24271000D02*
X25114000Y-24921000D01*
D26*
X25114000Y-24271000D02*
X27381000Y-24271000D01*
D28*
X75484000Y-63997500D02*
X75444000Y-64037500D01*
X75444000Y-67840000D02*
X75484000Y-67880000D01*
D27*
X33935000Y-14250000D02*
X33970000Y-14215000D01*
X32235000Y-14250000D02*
X32235000Y-14250000D01*
X32235000Y-14250000D02*
X33935000Y-14250000D01*
X69961000Y-22391000D02*
X69960000Y-22390000D01*
X70100000Y-22391000D02*
X69961000Y-22391000D01*
X65570000Y-21430000D02*
X65570000Y-20680000D01*
X65259000Y-21741000D02*
X65570000Y-21430000D01*
X63076000Y-21741000D02*
X65259000Y-21741000D01*
X67570000Y-21910000D02*
X67570000Y-20680000D01*
X68051000Y-22391000D02*
X67570000Y-21910000D01*
X70100000Y-22391000D02*
X68051000Y-22391000D01*
X67570000Y-23800000D02*
X67570000Y-23180000D01*
X68111000Y-24341000D02*
X67570000Y-23800000D01*
X70100000Y-24341000D02*
X68111000Y-24341000D01*
X69109000Y-19141000D02*
X67570000Y-20680000D01*
X70100000Y-19141000D02*
X69109000Y-19141000D01*
X61880000Y-15225000D02*
X63505000Y-15225000D01*
X70100000Y-19141000D02*
X70100000Y-19791000D01*
X34100000Y-56745000D02*
X32610000Y-56745000D01*
X63275000Y-56505000D02*
X63275000Y-56505000D01*
X26765000Y-61875000D02*
X27700000Y-62810000D01*
X25274000Y-61875000D02*
X26765000Y-61875000D01*
X26635000Y-63825000D02*
X27700000Y-64890000D01*
X25274000Y-63825000D02*
X26635000Y-63825000D01*
X29961000Y-64475000D02*
X32298000Y-64475000D01*
X29676000Y-64760000D02*
X29961000Y-64475000D01*
X27635000Y-67075000D02*
X25274000Y-67075000D01*
X27720000Y-67160000D02*
X27635000Y-67075000D01*
X25274000Y-66425000D02*
X25274000Y-67075000D01*
X65165000Y-66835000D02*
X65520000Y-67190000D01*
X63176000Y-66835000D02*
X65165000Y-66835000D01*
X63176000Y-66185000D02*
X63176000Y-66835000D01*
X68025000Y-64235000D02*
X70200000Y-64235000D01*
X67580000Y-64680000D02*
X68025000Y-64235000D01*
X64695000Y-63585000D02*
X65620000Y-64510000D01*
X63176000Y-63585000D02*
X64695000Y-63585000D01*
X64655000Y-61635000D02*
X65610000Y-62590000D01*
X63176000Y-61635000D02*
X64655000Y-61635000D01*
X63275000Y-56505000D02*
X61720000Y-56505000D01*
X33885000Y-12580000D02*
X33970000Y-12665000D01*
X32315000Y-12580000D02*
X32315000Y-12580000D01*
X32315000Y-12580000D02*
X33885000Y-12580000D01*
X33970000Y-10670000D02*
X33970000Y-12665000D01*
X94319999Y-6772001D02*
X94319999Y-6689999D01*
X93300000Y-5670000D02*
X38970000Y-5670000D01*
X94319999Y-6689999D02*
X93300000Y-5670000D01*
X94787999Y-7240001D02*
X94319999Y-6772001D01*
X94870001Y-7240001D02*
X94787999Y-7240001D01*
X38970000Y-5670000D02*
X33970000Y-10670000D01*
X95220000Y-7590000D02*
X94870001Y-7240001D01*
X25114000Y-21021000D02*
X25114000Y-20371000D01*
X19130000Y-14810000D02*
X19130000Y-14105000D01*
X20010000Y-15690000D02*
X19130000Y-14810000D01*
X21180000Y-15690000D02*
X20010000Y-15690000D01*
X21920000Y-16430000D02*
X21180000Y-15690000D01*
X21920000Y-19170000D02*
X21920000Y-16430000D01*
X23121000Y-20371000D02*
X21920000Y-19170000D01*
X25114000Y-20371000D02*
X23121000Y-20371000D01*
X30540000Y-14105000D02*
X30685000Y-14250000D01*
X30685000Y-12600000D02*
X30665000Y-12580000D01*
X30685000Y-14250000D02*
X30685000Y-12600000D01*
X19275000Y-14250000D02*
X19130000Y-14105000D01*
X30685000Y-14250000D02*
X19275000Y-14250000D01*
X17500000Y-14105000D02*
X19130000Y-14105000D01*
D26*
X17320000Y-32280000D02*
X22770000Y-26830000D01*
X22770000Y-26830000D02*
X22770000Y-22100000D01*
X23849000Y-21021000D02*
X25114000Y-21021000D01*
X22770000Y-22100000D02*
X23849000Y-21021000D01*
D29*
X19420000Y-8250000D02*
X20990000Y-9820000D01*
X20990000Y-9820000D02*
X20990000Y-12940000D01*
X19825000Y-14105000D02*
X19130000Y-14105000D01*
X20990000Y-12940000D02*
X19825000Y-14105000D01*
D27*
X16120000Y-8250000D02*
X15970000Y-8400000D01*
X19420000Y-8250000D02*
X16120000Y-8250000D01*
X23956498Y-19071000D02*
X23060000Y-18174502D01*
X25114000Y-19071000D02*
X23956498Y-19071000D01*
X23060000Y-16640000D02*
X22990000Y-16570000D01*
X23060000Y-18174502D02*
X23060000Y-16640000D01*
X29723000Y-30980000D02*
X29585000Y-31118000D01*
X31455000Y-30980000D02*
X31455000Y-30980000D01*
X31455000Y-30980000D02*
X29723000Y-30980000D01*
D30*
X71909000Y-24991000D02*
X71940000Y-24960000D01*
X70100000Y-24991000D02*
X71909000Y-24991000D01*
X69710000Y-31143000D02*
X69565000Y-31288000D01*
X69710000Y-29550000D02*
X69710000Y-31143000D01*
X71578000Y-31288000D02*
X71600000Y-31310000D01*
X69565000Y-31288000D02*
X71578000Y-31288000D01*
D26*
X63455000Y-13675000D02*
X61880000Y-13675000D01*
D27*
X61880000Y-13675000D02*
X61880000Y-13350000D01*
X61880000Y-13350000D02*
X62800000Y-12430000D01*
X67350000Y-12430000D02*
X68150000Y-13230000D01*
X62800000Y-12430000D02*
X67350000Y-12430000D01*
X77300000Y-14175000D02*
X78900000Y-14175000D01*
X65105000Y-15175000D02*
X65055000Y-15225000D01*
X65105000Y-13675000D02*
X65105000Y-13675000D01*
X77190000Y-14285000D02*
X77300000Y-14175000D01*
X78900000Y-15070000D02*
X78850000Y-15120000D01*
X78900000Y-14175000D02*
X78900000Y-15070000D01*
X70100000Y-23041000D02*
X70100000Y-23691000D01*
X71701000Y-23691000D02*
X71890000Y-23880000D01*
X70100000Y-23691000D02*
X71701000Y-23691000D01*
X70100000Y-23041000D02*
X71859000Y-23041000D01*
X71859000Y-23041000D02*
X72010000Y-22890000D01*
X66105000Y-14175000D02*
X77300000Y-14175000D01*
X65055000Y-15225000D02*
X66105000Y-14175000D01*
X65105000Y-13675000D02*
X65105000Y-15175000D01*
D26*
X58455000Y-62940000D02*
X58520000Y-63005000D01*
D27*
X61015000Y-60985000D02*
X63176000Y-60985000D01*
X60740000Y-61260000D02*
X61015000Y-60985000D01*
X51480000Y-54570000D02*
X51480000Y-57100000D01*
X57410000Y-63030000D02*
X58510000Y-63030000D01*
X51480000Y-57100000D02*
X57410000Y-63030000D01*
X64925000Y-56405000D02*
X64825000Y-56505000D01*
X64925000Y-54955000D02*
X64925000Y-56405000D01*
X64890000Y-54920000D02*
X64925000Y-54955000D01*
X64890000Y-53680000D02*
X64890000Y-54920000D01*
D30*
X64825000Y-56500000D02*
X64825000Y-57603024D01*
X64825000Y-57603024D02*
X64770024Y-57658000D01*
D27*
X63940000Y-47489994D02*
X65909997Y-45519997D01*
X63940000Y-49400000D02*
X63940000Y-47489994D01*
X95220000Y-45519997D02*
X65909997Y-45519997D01*
X63176000Y-62935000D02*
X63176000Y-62285000D01*
X61720000Y-54955000D02*
X63275000Y-54955000D01*
X63275000Y-54955000D02*
X61805000Y-54955000D01*
X63151000Y-62260000D02*
X63176000Y-62285000D01*
X63176000Y-62935000D02*
X60675000Y-62935000D01*
X60675000Y-62935000D02*
X59080000Y-61340000D01*
X59080000Y-61340000D02*
X59080000Y-56270000D01*
X60395000Y-54955000D02*
X61710000Y-54955000D01*
X59080000Y-56270000D02*
X60395000Y-54955000D01*
X55480000Y-54570000D02*
X55480000Y-53450000D01*
X55480000Y-53450000D02*
X55960000Y-52970000D01*
X55960000Y-52970000D02*
X60660000Y-52970000D01*
X61710000Y-54020000D02*
X61710000Y-54955000D01*
X60660000Y-52970000D02*
X61710000Y-54020000D01*
X63275000Y-53565000D02*
X63275000Y-54955000D01*
X70570000Y-52570000D02*
X64270000Y-52570000D01*
X72200000Y-54200000D02*
X70570000Y-52570000D01*
X72200000Y-56600000D02*
X72200000Y-54200000D01*
X64270000Y-52570000D02*
X63275000Y-53565000D01*
X73600000Y-58000000D02*
X72200000Y-56600000D01*
X74990000Y-58000000D02*
X73600000Y-58000000D01*
X78600000Y-57500000D02*
X78600000Y-58200000D01*
X77800000Y-56700000D02*
X78600000Y-57500000D01*
X75700000Y-56700000D02*
X77800000Y-56700000D01*
X74990000Y-57410000D02*
X75700000Y-56700000D01*
X74990000Y-58000000D02*
X74990000Y-57410000D01*
X12080000Y-62335000D02*
X20635000Y-62335000D01*
X21745000Y-61225000D02*
X25274000Y-61225000D01*
X20635000Y-62335000D02*
X21745000Y-61225000D01*
X12080000Y-54510000D02*
X11970000Y-54400000D01*
X12080000Y-62335000D02*
X12080000Y-54510000D01*
X34090000Y-55185000D02*
X34100000Y-55195000D01*
X34090000Y-53930000D02*
X34090000Y-55185000D01*
X32610000Y-55195000D02*
X34100000Y-55195000D01*
D30*
X32610000Y-55195000D02*
X31395000Y-53980000D01*
X31395000Y-53980000D02*
X24910000Y-53980000D01*
D27*
X30960000Y-56645000D02*
X31060000Y-56745000D01*
X30960000Y-55195000D02*
X30960000Y-56645000D01*
D30*
X19966000Y-57926000D02*
X19990000Y-57950000D01*
X18729000Y-57926000D02*
X19966000Y-57926000D01*
D27*
X25274000Y-62525000D02*
X25274000Y-63175000D01*
X18729000Y-57861000D02*
X18729000Y-57926000D01*
X20050001Y-56539999D02*
X18729000Y-57861000D01*
X30854999Y-56539999D02*
X20050001Y-56539999D01*
X31060000Y-56745000D02*
X30854999Y-56539999D01*
D30*
X25274000Y-62525000D02*
X22445000Y-62525000D01*
X22445000Y-62525000D02*
X22440000Y-62530000D01*
D27*
X24355000Y-55195000D02*
X30960000Y-55195000D01*
X23560000Y-54400000D02*
X24355000Y-55195000D01*
X15970000Y-54400000D02*
X23560000Y-54400000D01*
X15516000Y-14439000D02*
X15516000Y-18221000D01*
X17500000Y-12455000D02*
X15516000Y-14439000D01*
X39690000Y-27920000D02*
X40890000Y-27920000D01*
X40890000Y-27920000D02*
X43650000Y-25160000D01*
X43650000Y-25160000D02*
X43650000Y-16000000D01*
X42310000Y-14660000D02*
X40505000Y-14660000D01*
X43650000Y-16000000D02*
X42310000Y-14660000D01*
X19130000Y-12455000D02*
X19130000Y-10940000D01*
X40505000Y-15595000D02*
X40500000Y-15600000D01*
X40505000Y-14660000D02*
X40505000Y-15595000D01*
D26*
X97580000Y-19830000D02*
X96750000Y-20660000D01*
X97580000Y-13140000D02*
X97580000Y-19830000D01*
X94710000Y-10270000D02*
X97580000Y-13140000D01*
X47100000Y-10270000D02*
X94710000Y-10270000D01*
X46830000Y-10000000D02*
X47100000Y-10270000D01*
D27*
X38855000Y-13040000D02*
X38855000Y-14660000D01*
X38855000Y-17135000D02*
X39690000Y-17970000D01*
X38855000Y-14660000D02*
X38855000Y-17135000D01*
X39995000Y-11900000D02*
X38855000Y-13040000D01*
X47170000Y-11900000D02*
X39995000Y-11900000D01*
D26*
X96820000Y-18480000D02*
X93890000Y-21410000D01*
X96820000Y-14000000D02*
X96820000Y-18480000D01*
X93920000Y-11100000D02*
X96820000Y-14000000D01*
X47970000Y-11100000D02*
X93920000Y-11100000D01*
X47170000Y-11900000D02*
X47970000Y-11100000D01*
D27*
X28315000Y-35379500D02*
X28315000Y-36542000D01*
X29344500Y-34350000D02*
X28315000Y-35379500D01*
X32710000Y-34350000D02*
X29344500Y-34350000D01*
X37060000Y-22600000D02*
X39670000Y-22600000D01*
X36430000Y-23230000D02*
X37060000Y-22600000D01*
X36430000Y-32900000D02*
X36430000Y-23230000D01*
X34980000Y-34350000D02*
X36430000Y-32900000D01*
X32710000Y-34350000D02*
X34980000Y-34350000D01*
X32746000Y-36286000D02*
X32710000Y-36250000D01*
X29877000Y-36250000D02*
X29585000Y-36542000D01*
X32710000Y-36250000D02*
X29877000Y-36250000D01*
X32710000Y-36250000D02*
X38460000Y-36250000D01*
X39740000Y-34970000D02*
X39740000Y-32520000D01*
X38460000Y-36250000D02*
X39740000Y-34970000D01*
X22698000Y-36542000D02*
X22570000Y-36670000D01*
X25775000Y-36542000D02*
X22698000Y-36542000D01*
X22570000Y-36670000D02*
X22570000Y-37490000D01*
X24100000Y-39020000D02*
X24100000Y-41630000D01*
X22570000Y-37490000D02*
X24100000Y-39020000D01*
X27045000Y-35345000D02*
X27045000Y-36542000D01*
X26430000Y-34730000D02*
X27045000Y-35345000D01*
X22710000Y-34730000D02*
X26430000Y-34730000D01*
X27045000Y-36542000D02*
X27045000Y-39385000D01*
X29370000Y-41710000D02*
X30710000Y-41710000D01*
X27045000Y-39385000D02*
X29370000Y-41710000D01*
X80860000Y-49360000D02*
X67160000Y-49360000D01*
X86261662Y-54761662D02*
X80860000Y-49360000D01*
X93270000Y-54761662D02*
X86261662Y-54761662D01*
X35310000Y-41660000D02*
X48069990Y-41660000D01*
X48069990Y-41660000D02*
X55040000Y-48630010D01*
X88882645Y-47834307D02*
X67175693Y-47834307D01*
X93270000Y-52221662D02*
X88882645Y-47834307D01*
X21950028Y-48080028D02*
X53130000Y-48080028D01*
X19410000Y-41840000D02*
X19410000Y-45540000D01*
X19410000Y-45540000D02*
X21950028Y-48080028D01*
X54590000Y-27990000D02*
X55432000Y-27990000D01*
X55432000Y-27990000D02*
X55432000Y-27990000D01*
X52470000Y-16737000D02*
X55690000Y-13517000D01*
X52470000Y-25028000D02*
X52470000Y-16737000D01*
X55432000Y-27990000D02*
X52470000Y-25028000D01*
X55690000Y-13517000D02*
X55916456Y-13517000D01*
D26*
X57302009Y-11904991D02*
X55690000Y-13517000D01*
X76679991Y-11904991D02*
X57302009Y-11904991D01*
X77300000Y-12525000D02*
X76679991Y-11904991D01*
D27*
X60214989Y-51964989D02*
X50489990Y-42239990D01*
X50489990Y-42239990D02*
X50489990Y-28190000D01*
X86450000Y-61020000D02*
X77394989Y-51964989D01*
X89150000Y-75020000D02*
X86450000Y-72320000D01*
X77394989Y-51964989D02*
X60214989Y-51964989D01*
X86450000Y-72320000D02*
X86450000Y-61020000D01*
X93270000Y-75020000D02*
X89150000Y-75020000D01*
X56207000Y-17153000D02*
X55380000Y-17980000D01*
X56207000Y-17245000D02*
X55382000Y-18070000D01*
X55380000Y-15477000D02*
X55690000Y-15167000D01*
X55380000Y-17980000D02*
X55380000Y-15477000D01*
X55690000Y-15167000D02*
X57240000Y-15167000D01*
X51490000Y-18300000D02*
X51670000Y-18120000D01*
X61154978Y-51364978D02*
X51490000Y-41700000D01*
X77964978Y-51364978D02*
X61154978Y-51364978D01*
X87250000Y-60650000D02*
X77964978Y-51364978D01*
X87250000Y-70470000D02*
X87250000Y-60650000D01*
X89260000Y-72480000D02*
X87250000Y-70470000D01*
X51490000Y-41700000D02*
X51490000Y-18300000D01*
X93270000Y-72480000D02*
X89260000Y-72480000D01*
X62670000Y-36570000D02*
X62660000Y-36560000D01*
X55512000Y-22750000D02*
X55432000Y-22670000D01*
D30*
X68244999Y-37824501D02*
X63924501Y-37824501D01*
X68295000Y-37774500D02*
X68244999Y-37824501D01*
X63924501Y-37824501D02*
X62660000Y-36560000D01*
X68295000Y-36712000D02*
X68295000Y-37774500D01*
D27*
X55482000Y-22620000D02*
X55432000Y-22670000D01*
X55432000Y-25042000D02*
X55590000Y-25200000D01*
X55590000Y-22828000D02*
X55432000Y-22670000D01*
X55590000Y-25200000D02*
X55590000Y-22828000D01*
X62680000Y-34680000D02*
X62660000Y-34660000D01*
D30*
X62700000Y-34700000D02*
X62660000Y-34660000D01*
X64140000Y-34700000D02*
X62700000Y-34700000D01*
D27*
X55482000Y-33992000D02*
X55482000Y-32590000D01*
X56150000Y-34660000D02*
X55482000Y-33992000D01*
X62660000Y-34660000D02*
X56150000Y-34660000D01*
D30*
X73050000Y-35080000D02*
X72659990Y-34689990D01*
X72659990Y-34689990D02*
X66714510Y-34689990D01*
X66714510Y-34689990D02*
X65755000Y-35649500D01*
X65755000Y-35649500D02*
X65755000Y-36712000D01*
D26*
X74000001Y-36030001D02*
X73050000Y-35080000D01*
X74000001Y-37439999D02*
X74000001Y-36030001D01*
X70760000Y-40680000D02*
X74000001Y-37439999D01*
X70760000Y-41730000D02*
X70760000Y-40680000D01*
D30*
X67025000Y-35649500D02*
X67025000Y-36712000D01*
X71310000Y-35190000D02*
X67484500Y-35190000D01*
X73050000Y-36930000D02*
X71310000Y-35190000D01*
X73050000Y-36980000D02*
X73050000Y-36930000D01*
X67484500Y-35190000D02*
X67025000Y-35649500D01*
D26*
X70875001Y-39154999D02*
X73050000Y-36980000D01*
X64475001Y-39154999D02*
X70875001Y-39154999D01*
X61900000Y-41730000D02*
X64475001Y-39154999D01*
D27*
X57300000Y-45660000D02*
X57300000Y-41780000D01*
X62404967Y-50764967D02*
X57300000Y-45660000D01*
X88060000Y-59730000D02*
X79094967Y-50764967D01*
X88060000Y-68670000D02*
X88060000Y-59730000D01*
X79094967Y-50764967D02*
X62404967Y-50764967D01*
X89330000Y-69940000D02*
X88060000Y-68670000D01*
X93270000Y-69940000D02*
X89330000Y-69940000D01*
X77050000Y-39990000D02*
X75360000Y-41680000D01*
X95240000Y-39990000D02*
X77050000Y-39990000D01*
X96580000Y-41330000D02*
X95240000Y-39990000D01*
X96580000Y-66040000D02*
X96580000Y-41330000D01*
X95220000Y-67400000D02*
X96580000Y-66040000D01*
X93270000Y-67400000D02*
X95220000Y-67400000D01*
X80605010Y-18205990D02*
X80540000Y-18271000D01*
D26*
X80518000Y-14143000D02*
X80518000Y-15240000D01*
X78900000Y-12525000D02*
X80518000Y-14143000D01*
D27*
X78284000Y-59644000D02*
X76640000Y-58000000D01*
X78284000Y-60195000D02*
X78284000Y-59644000D01*
D30*
X15676000Y-59329000D02*
X17079000Y-57926000D01*
X15676000Y-60391000D02*
X15676000Y-59329000D01*
D26*
X25114000Y-16884000D02*
X24690000Y-16460000D01*
X25114000Y-17771000D02*
X25114000Y-16884000D01*
D27*
X30500000Y-3260000D02*
X22150000Y-11610000D01*
X93390000Y-3260000D02*
X30500000Y-3260000D01*
X94319999Y-4272001D02*
X94319999Y-4189999D01*
X94319999Y-4189999D02*
X93390000Y-3260000D01*
X94787999Y-4740001D02*
X94319999Y-4272001D01*
X94870001Y-4740001D02*
X94787999Y-4740001D01*
X95220000Y-5090000D02*
X94870001Y-4740001D01*
D26*
X26226500Y-18421000D02*
X26470000Y-18177500D01*
X25114000Y-18421000D02*
X26226500Y-18421000D01*
X26470000Y-18177500D02*
X26470000Y-16100000D01*
D27*
X34870000Y-4550000D02*
X27830000Y-11590000D01*
X93430000Y-4550000D02*
X34870000Y-4550000D01*
X94319999Y-5439999D02*
X93430000Y-4550000D01*
X94319999Y-5522001D02*
X94319999Y-5439999D01*
X94787999Y-5990001D02*
X94319999Y-5522001D01*
X94870001Y-5990001D02*
X94787999Y-5990001D01*
X95220000Y-6340000D02*
X94870001Y-5990001D01*
D30*
X70101000Y-26290000D02*
X70100000Y-26291000D01*
X71810000Y-26290000D02*
X70101000Y-26290000D01*
D27*
X70100000Y-26910000D02*
X70100000Y-26291000D01*
X70710001Y-27520001D02*
X70100000Y-26910000D01*
X91848756Y-16766500D02*
X81095255Y-27520001D01*
X81095255Y-27520001D02*
X70710001Y-27520001D01*
X95220000Y-16766500D02*
X91848756Y-16766500D01*
D26*
X68750000Y-25878500D02*
X68750000Y-27130000D01*
X68987500Y-25641000D02*
X68750000Y-25878500D01*
X70100000Y-25641000D02*
X68987500Y-25641000D01*
D27*
X70290000Y-16670000D02*
X70210000Y-16590000D01*
X86520000Y-16590000D02*
X70210000Y-16590000D01*
X87593500Y-15516500D02*
X86520000Y-16590000D01*
X95220000Y-15516500D02*
X87593500Y-15516500D01*
D26*
X60980000Y-16590000D02*
X70210000Y-16590000D01*
X58620000Y-18950000D02*
X60980000Y-16590000D01*
X58620000Y-25780000D02*
X58620000Y-18950000D01*
X60904142Y-28064142D02*
X58620000Y-25780000D01*
X60904142Y-28335859D02*
X60904142Y-28064142D01*
D30*
X66800000Y-57130000D02*
X68300000Y-57130000D01*
X64245000Y-59685000D02*
X66800000Y-57130000D01*
X63176000Y-59685000D02*
X64245000Y-59685000D01*
D27*
X61485000Y-60335000D02*
X63176000Y-60335000D01*
D30*
X63176000Y-60335000D02*
X64302122Y-60335000D01*
X64302122Y-60335000D02*
X66657122Y-57980000D01*
X66657122Y-57980000D02*
X69840000Y-57980000D01*
D27*
X60990000Y-59840000D02*
X61485000Y-60335000D01*
X60990000Y-58610000D02*
X60990000Y-59840000D01*
D30*
X25274000Y-59178138D02*
X24284059Y-58188197D01*
X25274000Y-59925000D02*
X25274000Y-59178138D01*
D27*
X24355000Y-59925000D02*
X23850000Y-59420000D01*
X25274000Y-59925000D02*
X24355000Y-59925000D01*
D30*
X23770000Y-57190000D02*
X24920000Y-57190000D01*
X22710000Y-58250000D02*
X23770000Y-57190000D01*
X22710000Y-59780000D02*
X22710000Y-58250000D01*
X23505000Y-60575000D02*
X22710000Y-59780000D01*
X25274000Y-60575000D02*
X23505000Y-60575000D01*
D27*
X70200000Y-71225000D02*
X70225000Y-71200000D01*
X70240000Y-71215000D02*
X70225000Y-71200000D01*
X70240000Y-79070000D02*
X70240000Y-71215000D01*
X70225000Y-68160000D02*
X70200000Y-68135000D01*
X70225000Y-71200000D02*
X70225000Y-68160000D01*
D26*
X73300000Y-71075000D02*
X73175000Y-71200000D01*
X73300000Y-66800000D02*
X73300000Y-71075000D01*
X72035000Y-65535000D02*
X73300000Y-66800000D01*
X70200000Y-65535000D02*
X72035000Y-65535000D01*
D27*
X73175000Y-74725000D02*
X73175000Y-71200000D01*
X72077000Y-75823000D02*
X73175000Y-74725000D01*
X72077000Y-87907000D02*
X72077000Y-75823000D01*
X85680000Y-90300000D02*
X74470000Y-90300000D01*
X86220000Y-90840000D02*
X85680000Y-90300000D01*
X74470000Y-90300000D02*
X72077000Y-87907000D01*
X86220000Y-92470000D02*
X86220000Y-90840000D01*
X48635000Y-65725000D02*
X43138000Y-65725000D01*
X76732501Y-93822501D02*
X48635000Y-65725000D01*
X87407499Y-93822501D02*
X76732501Y-93822501D01*
X88760000Y-92470000D02*
X87407499Y-93822501D01*
D30*
X32298000Y-69092000D02*
X32298000Y-68375000D01*
X26910000Y-74480000D02*
X32298000Y-69092000D01*
X19345000Y-74480000D02*
X26910000Y-74480000D01*
D27*
X32565000Y-68375000D02*
X32589999Y-68350001D01*
X32298000Y-68375000D02*
X32565000Y-68375000D01*
X32298000Y-68375000D02*
X40488000Y-68375000D01*
X40488000Y-68375000D02*
X43138000Y-65725000D01*
X76201138Y-94422510D02*
X48306814Y-66528186D01*
X89347490Y-94422510D02*
X76201138Y-94422510D01*
X91300000Y-92470000D02*
X89347490Y-94422510D01*
D30*
X25174000Y-71696000D02*
X25190000Y-71680000D01*
X19345000Y-71696000D02*
X25174000Y-71696000D01*
D27*
X34555000Y-65775000D02*
X32298000Y-65775000D01*
X35330000Y-65000000D02*
X34555000Y-65775000D01*
D26*
X15175000Y-36180000D02*
X15175000Y-37415000D01*
X15175000Y-37415000D02*
X15160000Y-37430000D01*
X13740000Y-31140000D02*
X13740000Y-29440000D01*
X15175000Y-32575000D02*
X13740000Y-31140000D01*
X15175000Y-33780000D02*
X15175000Y-32575000D01*
X80460000Y-36250000D02*
X79795000Y-36250000D01*
X81052348Y-35657652D02*
X80460000Y-36250000D01*
X81052348Y-30282348D02*
X81052348Y-35657652D01*
X79795000Y-32865000D02*
X79810000Y-32850000D01*
X79795000Y-33850000D02*
X79795000Y-32865000D01*
D30*
X14984000Y-71696000D02*
X14620000Y-72060000D01*
X17695000Y-71696000D02*
X14984000Y-71696000D01*
X16120000Y-76090000D02*
X14610000Y-76090000D01*
X17695000Y-74515000D02*
X16120000Y-76090000D01*
X17695000Y-74480000D02*
X17695000Y-74515000D01*
D29*
X28400000Y-30920000D02*
X28410000Y-30910000D01*
D26*
X16825000Y-36180000D02*
X16825000Y-35730000D01*
X16825000Y-36180000D02*
X17560000Y-36180000D01*
X17560000Y-36180000D02*
X20170000Y-33570000D01*
X20170000Y-33570000D02*
X27170000Y-33570000D01*
X28315000Y-32425000D02*
X28315000Y-31118000D01*
X27170000Y-33570000D02*
X28315000Y-32425000D01*
X34701000Y-23621000D02*
X32138000Y-23621000D01*
X35640000Y-24560000D02*
X34701000Y-23621000D01*
X35640000Y-27950000D02*
X35640000Y-24560000D01*
X33930000Y-29660000D02*
X35640000Y-27950000D01*
X29100000Y-29660000D02*
X33930000Y-29660000D01*
X28315000Y-30445000D02*
X29100000Y-29660000D01*
X28315000Y-31118000D02*
X28315000Y-30445000D01*
X17225000Y-33780000D02*
X16825000Y-33780000D01*
X16825000Y-33780000D02*
X17820000Y-33780000D01*
X17820000Y-33780000D02*
X18920000Y-32680000D01*
X18920000Y-32680000D02*
X26460000Y-32680000D01*
X27045000Y-32095000D02*
X27045000Y-31118000D01*
X26460000Y-32680000D02*
X27045000Y-32095000D01*
X31060000Y-28150000D02*
X32138000Y-27072000D01*
X28290000Y-28150000D02*
X31060000Y-28150000D01*
X27045000Y-29395000D02*
X28290000Y-28150000D01*
X32138000Y-27072000D02*
X32138000Y-26221000D01*
X27045000Y-31118000D02*
X27045000Y-29395000D01*
D30*
X68295000Y-32350500D02*
X68295000Y-31288000D01*
X69174500Y-33230000D02*
X68295000Y-32350500D01*
X75125000Y-33230000D02*
X69174500Y-33230000D01*
X78145000Y-36250000D02*
X75125000Y-33230000D01*
D26*
X68295000Y-30275500D02*
X68295000Y-31288000D01*
X66289500Y-28270000D02*
X68295000Y-30275500D01*
X61320000Y-26260000D02*
X63330000Y-28270000D01*
X61320000Y-21084500D02*
X61320000Y-26260000D01*
X61963500Y-20441000D02*
X61320000Y-21084500D01*
X63330000Y-28270000D02*
X66289500Y-28270000D01*
X63076000Y-20441000D02*
X61963500Y-20441000D01*
D30*
X67090000Y-31353000D02*
X67025000Y-31288000D01*
X67090000Y-32950000D02*
X67090000Y-31353000D01*
D26*
X67025000Y-30275500D02*
X67025000Y-31288000D01*
X65689511Y-28940011D02*
X67025000Y-30275500D01*
X62680011Y-28940011D02*
X65689511Y-28940011D01*
X59350000Y-25610000D02*
X62680011Y-28940011D01*
X59350000Y-19370000D02*
X59350000Y-25610000D01*
X60879000Y-17841000D02*
X59350000Y-19370000D01*
X63076000Y-17841000D02*
X60879000Y-17841000D01*
D27*
X60689000Y-19791000D02*
X63076000Y-19791000D01*
X60640000Y-19840000D02*
X60689000Y-19791000D01*
D26*
X32138000Y-24271000D02*
X33671000Y-24271000D01*
X34310000Y-24910000D02*
X34310000Y-26690000D01*
X33671000Y-24271000D02*
X34310000Y-24910000D01*
X38270000Y-11140000D02*
X38270000Y-10140000D01*
X35920000Y-13490000D02*
X38270000Y-11140000D01*
X35920000Y-15570000D02*
X35920000Y-13490000D01*
D27*
X72400000Y-67227498D02*
X72400000Y-68000000D01*
X71357502Y-66185000D02*
X72400000Y-67227498D01*
X70200000Y-66185000D02*
X71357502Y-66185000D01*
X35685000Y-66425000D02*
X32298000Y-66425000D01*
X38070000Y-64040000D02*
X35685000Y-66425000D01*
X38070000Y-55810000D02*
X38070000Y-64040000D01*
X34200000Y-51940000D02*
X38070000Y-55810000D01*
X13970000Y-53804998D02*
X15834998Y-51940000D01*
X15834998Y-51940000D02*
X34200000Y-51940000D01*
X13970000Y-54400000D02*
X13970000Y-53804998D01*
D31*
X30378226Y-26218639D02*
X26952511Y-26209330D01*
X26960851Y-18761450D01*
X26980998Y-18741303D01*
X27010001Y-18717501D01*
X27104974Y-18601776D01*
X27175546Y-18469747D01*
X27219003Y-18326486D01*
X27230000Y-18214833D01*
X27230000Y-18214823D01*
X27233676Y-18177501D01*
X27230000Y-18140178D01*
X27230000Y-17532985D01*
X30368511Y-17532985D01*
X30378226Y-26218639D01*
G04 #@! TA.AperFunction,Conductor*
D32*
G36*
X30378226Y-26218639D02*
G01*
X26952511Y-26209330D01*
X26960851Y-18761450D01*
X26980998Y-18741303D01*
X27010001Y-18717501D01*
X27104974Y-18601776D01*
X27175546Y-18469747D01*
X27219003Y-18326486D01*
X27230000Y-18214833D01*
X27230000Y-18214823D01*
X27233676Y-18177501D01*
X27230000Y-18140178D01*
X27230000Y-17532985D01*
X30368511Y-17532985D01*
X30378226Y-26218639D01*
G37*
G04 #@! TD.AperFunction*
D31*
X20213719Y-26903000D02*
X17777114Y-26903000D01*
X17777114Y-25406504D01*
X20222274Y-25397472D01*
X20213719Y-26903000D01*
G04 #@! TA.AperFunction,Conductor*
D32*
G36*
X20213719Y-26903000D02*
G01*
X17777114Y-26903000D01*
X17777114Y-25406504D01*
X20222274Y-25397472D01*
X20213719Y-26903000D01*
G37*
G04 #@! TD.AperFunction*
D31*
X30438857Y-68482654D02*
X27013142Y-68473345D01*
X27022858Y-59797000D01*
X30429142Y-59797000D01*
X30438857Y-68482654D01*
G04 #@! TA.AperFunction,Conductor*
D32*
G36*
X30438857Y-68482654D02*
G01*
X27013142Y-68473345D01*
X27022858Y-59797000D01*
X30429142Y-59797000D01*
X30438857Y-68482654D01*
G37*
G04 #@! TD.AperFunction*
D31*
X75934828Y-60890997D02*
X73680361Y-60864058D01*
X73680361Y-59396550D01*
X75909209Y-59396550D01*
X75934828Y-60890997D01*
G04 #@! TA.AperFunction,Conductor*
D32*
G36*
X75934828Y-60890997D02*
G01*
X73680361Y-60864058D01*
X73680361Y-59396550D01*
X75909209Y-59396550D01*
X75934828Y-60890997D01*
G37*
G04 #@! TD.AperFunction*
D31*
X75884742Y-64765999D02*
X73630275Y-64739060D01*
X73630275Y-63271552D01*
X75859123Y-63271552D01*
X75884742Y-64765999D01*
G04 #@! TA.AperFunction,Conductor*
D32*
G36*
X75884742Y-64765999D02*
G01*
X73630275Y-64739060D01*
X73630275Y-63271552D01*
X75859123Y-63271552D01*
X75884742Y-64765999D01*
G37*
G04 #@! TD.AperFunction*
D31*
X75991751Y-68568030D02*
X74060000Y-68544947D01*
X74060000Y-67073583D01*
X75966132Y-67073583D01*
X75991751Y-68568030D01*
G04 #@! TA.AperFunction,Conductor*
D32*
G36*
X75991751Y-68568030D02*
G01*
X74060000Y-68544947D01*
X74060000Y-67073583D01*
X75966132Y-67073583D01*
X75991751Y-68568030D01*
G37*
G04 #@! TD.AperFunction*
D31*
X20251467Y-68831447D02*
X17997000Y-68804508D01*
X17997000Y-67337000D01*
X20225848Y-67337000D01*
X20251467Y-68831447D01*
G04 #@! TA.AperFunction,Conductor*
D32*
G36*
X20251467Y-68831447D02*
G01*
X17997000Y-68804508D01*
X17997000Y-67337000D01*
X20225848Y-67337000D01*
X20251467Y-68831447D01*
G37*
G04 #@! TD.AperFunction*
D31*
X20244988Y-65011481D02*
X17987669Y-64984508D01*
X17987669Y-63516497D01*
X20252373Y-63507508D01*
X20244988Y-65011481D01*
G04 #@! TA.AperFunction,Conductor*
D32*
G36*
X20244988Y-65011481D02*
G01*
X17987669Y-64984508D01*
X17987669Y-63516497D01*
X20252373Y-63507508D01*
X20244988Y-65011481D01*
G37*
G04 #@! TD.AperFunction*
D31*
X20167158Y-61121447D02*
X17912691Y-61094508D01*
X17912691Y-59627000D01*
X20141539Y-59627000D01*
X20167158Y-61121447D01*
G04 #@! TA.AperFunction,Conductor*
D32*
G36*
X20167158Y-61121447D02*
G01*
X17912691Y-61094508D01*
X17912691Y-59627000D01*
X20141539Y-59627000D01*
X20167158Y-61121447D01*
G37*
G04 #@! TD.AperFunction*
D31*
X20251869Y-22979830D02*
X17815264Y-22979830D01*
X17815264Y-21483334D01*
X20260424Y-21474302D01*
X20251869Y-22979830D01*
G04 #@! TA.AperFunction,Conductor*
D32*
G36*
X20251869Y-22979830D02*
G01*
X17815264Y-22979830D01*
X17815264Y-21483334D01*
X20260424Y-21474302D01*
X20251869Y-22979830D01*
G37*
G04 #@! TD.AperFunction*
D31*
X20285582Y-18979742D02*
X17848977Y-18979742D01*
X17848977Y-17483246D01*
X20294137Y-17474214D01*
X20285582Y-18979742D01*
G04 #@! TA.AperFunction,Conductor*
D32*
G36*
X20285582Y-18979742D02*
G01*
X17848977Y-18979742D01*
X17848977Y-17483246D01*
X20294137Y-17474214D01*
X20285582Y-18979742D01*
G37*
G04 #@! TD.AperFunction*
D31*
X68281660Y-25272039D02*
X68239003Y-25314696D01*
X68209999Y-25338499D01*
X68154871Y-25405674D01*
X68115026Y-25454224D01*
X68094827Y-25492014D01*
X68044454Y-25586254D01*
X68000997Y-25729515D01*
X67990000Y-25841168D01*
X67990000Y-25841178D01*
X67986324Y-25878500D01*
X67990000Y-25915823D01*
X67990000Y-26341858D01*
X64857142Y-26333345D01*
X64866858Y-17657000D01*
X68273142Y-17657000D01*
X68281660Y-25272039D01*
G04 #@! TA.AperFunction,Conductor*
D32*
G36*
X68281660Y-25272039D02*
G01*
X68239003Y-25314696D01*
X68209999Y-25338499D01*
X68154871Y-25405674D01*
X68115026Y-25454224D01*
X68094827Y-25492014D01*
X68044454Y-25586254D01*
X68000997Y-25729515D01*
X67990000Y-25841168D01*
X67990000Y-25841178D01*
X67986324Y-25878500D01*
X67990000Y-25915823D01*
X67990000Y-26341858D01*
X64857142Y-26333345D01*
X64866858Y-17657000D01*
X68273142Y-17657000D01*
X68281660Y-25272039D01*
G37*
G04 #@! TD.AperFunction*
D31*
X78235549Y-26685001D02*
X76097000Y-26685001D01*
X76097000Y-25207736D01*
X78242409Y-25203266D01*
X78235549Y-26685001D01*
G04 #@! TA.AperFunction,Conductor*
D32*
G36*
X78235549Y-26685001D02*
G01*
X76097000Y-26685001D01*
X76097000Y-25207736D01*
X78242409Y-25203266D01*
X78235549Y-26685001D01*
G37*
G04 #@! TD.AperFunction*
D31*
X78233586Y-23258000D02*
X76097000Y-23258000D01*
X76097000Y-21356736D01*
X78242409Y-21352266D01*
X78233586Y-23258000D01*
G04 #@! TA.AperFunction,Conductor*
D32*
G36*
X78233586Y-23258000D02*
G01*
X76097000Y-23258000D01*
X76097000Y-21356736D01*
X78242409Y-21352266D01*
X78233586Y-23258000D01*
G37*
G04 #@! TD.AperFunction*
D31*
X78233314Y-19224000D02*
X76096728Y-19224000D01*
X76096728Y-17425000D01*
X78241643Y-17425000D01*
X78233314Y-19224000D01*
G04 #@! TA.AperFunction,Conductor*
D32*
G36*
X78233314Y-19224000D02*
G01*
X76096728Y-19224000D01*
X76096728Y-17425000D01*
X78241643Y-17425000D01*
X78233314Y-19224000D01*
G37*
G04 #@! TD.AperFunction*
D31*
X68322857Y-68252654D02*
X64897142Y-68243345D01*
X64905430Y-60841849D01*
X66180280Y-59567000D01*
X68313142Y-59567000D01*
X68322857Y-68252654D01*
G04 #@! TA.AperFunction,Conductor*
D32*
G36*
X68322857Y-68252654D02*
G01*
X64897142Y-68243345D01*
X64905430Y-60841849D01*
X66180280Y-59567000D01*
X68313142Y-59567000D01*
X68322857Y-68252654D01*
G37*
G04 #@! TD.AperFunction*
M02*
