G04 #@! TF.GenerationSoftware,KiCad,Pcbnew,(5.1.12)-1*
G04 #@! TF.CreationDate,2024-10-31T12:08:18-06:00*
G04 #@! TF.ProjectId,Tarjeta_rs232_485_v1,5461726a-6574-4615-9f72-733233325f34,rev?*
G04 #@! TF.SameCoordinates,Original*
G04 #@! TF.FileFunction,Legend,Bot*
G04 #@! TF.FilePolarity,Positive*
%FSLAX46Y46*%
G04 Gerber Fmt 4.6, Leading zero omitted, Abs format (unit mm)*
G04 Created by KiCad (PCBNEW (5.1.12)-1) date 2024-10-31 12:08:18*
%MOMM*%
%LPD*%
G01*
G04 APERTURE LIST*
%ADD10C,0.120000*%
%ADD11C,0.250000*%
%ADD12C,0.200000*%
%ADD13C,0.100000*%
%ADD14C,0.150000*%
%ADD15C,0.254000*%
%ADD16R,0.400000X0.650000*%
%ADD17C,1.875000*%
%ADD18R,1.875000X1.875000*%
%ADD19R,1.750000X1.060000*%
%ADD20R,0.350000X0.650000*%
%ADD21R,0.650000X0.400000*%
%ADD22C,1.000000*%
%ADD23C,2.057000*%
%ADD24C,1.905000*%
%ADD25R,1.905000X1.905000*%
%ADD26C,2.060000*%
%ADD27R,2.160000X2.400000*%
%ADD28R,2.400000X2.160000*%
G04 APERTURE END LIST*
D10*
X82360000Y-56500000D02*
X82360000Y-58400000D01*
X80040000Y-57900000D02*
X80040000Y-56500000D01*
D11*
X68650000Y-54695000D02*
G75*
G03*
X68650000Y-54695000I-125000J0D01*
G01*
D10*
X78270000Y-29520000D02*
X80170000Y-29520000D01*
X79670000Y-31840000D02*
X78270000Y-31840000D01*
D11*
X23710000Y-54695000D02*
G75*
G03*
X23710000Y-54695000I-125000J0D01*
G01*
D10*
X14422742Y-67607500D02*
X14897258Y-67607500D01*
X14422742Y-68652500D02*
X14897258Y-68652500D01*
D11*
X68940000Y-12855000D02*
G75*
G03*
X68940000Y-12855000I-125000J0D01*
G01*
D10*
X14642742Y-63857500D02*
X15117258Y-63857500D01*
X14642742Y-64902500D02*
X15117258Y-64902500D01*
X79467258Y-67417500D02*
X78992742Y-67417500D01*
X79467258Y-68462500D02*
X78992742Y-68462500D01*
X79347258Y-63387500D02*
X78872742Y-63387500D01*
X79347258Y-64432500D02*
X78872742Y-64432500D01*
X81602258Y-25633500D02*
X81127742Y-25633500D01*
X81602258Y-26678500D02*
X81127742Y-26678500D01*
X81602258Y-21791000D02*
X81127742Y-21791000D01*
X81602258Y-22836000D02*
X81127742Y-22836000D01*
X14432742Y-26702500D02*
X14907258Y-26702500D01*
X14432742Y-25657500D02*
X14907258Y-25657500D01*
X14442742Y-22722500D02*
X14917258Y-22722500D01*
X14442742Y-21677500D02*
X14917258Y-21677500D01*
X15770000Y-73400000D02*
X15770000Y-74800000D01*
X13450000Y-74800000D02*
X13450000Y-72900000D01*
X17070000Y-31770000D02*
X15670000Y-31770000D01*
X15670000Y-29450000D02*
X17570000Y-29450000D01*
D11*
X24030000Y-12465000D02*
G75*
G03*
X24030000Y-12465000I-125000J0D01*
G01*
D12*
X68810000Y-41620000D02*
X68810000Y-41620000D01*
X69010000Y-41620000D02*
X69010000Y-41620000D01*
D13*
X70852000Y-39810000D02*
X75168000Y-39810000D01*
X70852000Y-43430000D02*
X75168000Y-43430000D01*
D12*
X68810000Y-41620000D02*
G75*
G03*
X69010000Y-41620000I100000J0D01*
G01*
X69010000Y-41620000D02*
G75*
G03*
X68810000Y-41620000I-100000J0D01*
G01*
X63850000Y-41620000D02*
X63850000Y-41620000D01*
X63650000Y-41620000D02*
X63650000Y-41620000D01*
D13*
X61808000Y-43430000D02*
X57492000Y-43430000D01*
X61808000Y-39810000D02*
X57492000Y-39810000D01*
D12*
X63850000Y-41620000D02*
G75*
G03*
X63650000Y-41620000I-100000J0D01*
G01*
X63650000Y-41620000D02*
G75*
G03*
X63850000Y-41620000I100000J0D01*
G01*
X55382000Y-24490000D02*
X55382000Y-24490000D01*
X55382000Y-24290000D02*
X55382000Y-24290000D01*
D13*
X53572000Y-22448000D02*
X53572000Y-18132000D01*
X57192000Y-22448000D02*
X57192000Y-18132000D01*
D12*
X55382000Y-24490000D02*
G75*
G03*
X55382000Y-24290000I0J100000D01*
G01*
X55382000Y-24290000D02*
G75*
G03*
X55382000Y-24490000I0J-100000D01*
G01*
X55432000Y-34440000D02*
X55432000Y-34440000D01*
X55432000Y-34240000D02*
X55432000Y-34240000D01*
D13*
X53622000Y-32398000D02*
X53622000Y-28082000D01*
X57242000Y-32398000D02*
X57242000Y-28082000D01*
D12*
X55432000Y-34440000D02*
G75*
G03*
X55432000Y-34240000I0J100000D01*
G01*
X55432000Y-34240000D02*
G75*
G03*
X55432000Y-34440000I0J-100000D01*
G01*
D13*
X24058000Y-39880000D02*
X19742000Y-39880000D01*
X24058000Y-43500000D02*
X19742000Y-43500000D01*
D12*
X25900000Y-41690000D02*
X25900000Y-41690000D01*
X26100000Y-41690000D02*
X26100000Y-41690000D01*
X25900000Y-41690000D02*
G75*
G03*
X26100000Y-41690000I100000J0D01*
G01*
X26100000Y-41690000D02*
G75*
G03*
X25900000Y-41690000I-100000J0D01*
G01*
X28850000Y-41550000D02*
X28850000Y-41550000D01*
X29050000Y-41550000D02*
X29050000Y-41550000D01*
D13*
X30892000Y-39740000D02*
X35208000Y-39740000D01*
X30892000Y-43360000D02*
X35208000Y-43360000D01*
D12*
X28850000Y-41550000D02*
G75*
G03*
X29050000Y-41550000I100000J0D01*
G01*
X29050000Y-41550000D02*
G75*
G03*
X28850000Y-41550000I-100000J0D01*
G01*
D13*
X41540000Y-22378000D02*
X41540000Y-18062000D01*
X37920000Y-22378000D02*
X37920000Y-18062000D01*
D12*
X39730000Y-24220000D02*
X39730000Y-24220000D01*
X39730000Y-24420000D02*
X39730000Y-24420000D01*
X39730000Y-24220000D02*
G75*
G03*
X39730000Y-24420000I0J-100000D01*
G01*
X39730000Y-24420000D02*
G75*
G03*
X39730000Y-24220000I0J100000D01*
G01*
D13*
X41520000Y-32328000D02*
X41520000Y-28012000D01*
X37900000Y-32328000D02*
X37900000Y-28012000D01*
D12*
X39710000Y-34170000D02*
X39710000Y-34170000D01*
X39710000Y-34370000D02*
X39710000Y-34370000D01*
X39710000Y-34170000D02*
G75*
G03*
X39710000Y-34370000I0J-100000D01*
G01*
X39710000Y-34370000D02*
G75*
G03*
X39710000Y-34170000I0J100000D01*
G01*
D14*
X83925238Y-57507619D02*
X84020476Y-57460000D01*
X84115714Y-57364761D01*
X84258571Y-57221904D01*
X84353809Y-57174285D01*
X84449047Y-57174285D01*
X84401428Y-57412380D02*
X84496666Y-57364761D01*
X84591904Y-57269523D01*
X84639523Y-57079047D01*
X84639523Y-56745714D01*
X84591904Y-56555238D01*
X84496666Y-56460000D01*
X84401428Y-56412380D01*
X84210952Y-56412380D01*
X84115714Y-56460000D01*
X84020476Y-56555238D01*
X83972857Y-56745714D01*
X83972857Y-57079047D01*
X84020476Y-57269523D01*
X84115714Y-57364761D01*
X84210952Y-57412380D01*
X84401428Y-57412380D01*
X83639523Y-56412380D02*
X83020476Y-56412380D01*
X83353809Y-56793333D01*
X83210952Y-56793333D01*
X83115714Y-56840952D01*
X83068095Y-56888571D01*
X83020476Y-56983809D01*
X83020476Y-57221904D01*
X83068095Y-57317142D01*
X83115714Y-57364761D01*
X83210952Y-57412380D01*
X83496666Y-57412380D01*
X83591904Y-57364761D01*
X83639523Y-57317142D01*
D15*
X71149761Y-54104523D02*
X71149761Y-52834523D01*
X69819285Y-53983571D02*
X69879761Y-54044047D01*
X70061190Y-54104523D01*
X70182142Y-54104523D01*
X70363571Y-54044047D01*
X70484523Y-53923095D01*
X70545000Y-53802142D01*
X70605476Y-53560238D01*
X70605476Y-53378809D01*
X70545000Y-53136904D01*
X70484523Y-53015952D01*
X70363571Y-52895000D01*
X70182142Y-52834523D01*
X70061190Y-52834523D01*
X69879761Y-52895000D01*
X69819285Y-52955476D01*
X69395952Y-52834523D02*
X68609761Y-52834523D01*
X69033095Y-53318333D01*
X68851666Y-53318333D01*
X68730714Y-53378809D01*
X68670238Y-53439285D01*
X68609761Y-53560238D01*
X68609761Y-53862619D01*
X68670238Y-53983571D01*
X68730714Y-54044047D01*
X68851666Y-54104523D01*
X69214523Y-54104523D01*
X69335476Y-54044047D01*
X69395952Y-53983571D01*
D14*
X81805238Y-31827619D02*
X81900476Y-31780000D01*
X81995714Y-31684761D01*
X82138571Y-31541904D01*
X82233809Y-31494285D01*
X82329047Y-31494285D01*
X82281428Y-31732380D02*
X82376666Y-31684761D01*
X82471904Y-31589523D01*
X82519523Y-31399047D01*
X82519523Y-31065714D01*
X82471904Y-30875238D01*
X82376666Y-30780000D01*
X82281428Y-30732380D01*
X82090952Y-30732380D01*
X81995714Y-30780000D01*
X81900476Y-30875238D01*
X81852857Y-31065714D01*
X81852857Y-31399047D01*
X81900476Y-31589523D01*
X81995714Y-31684761D01*
X82090952Y-31732380D01*
X82281428Y-31732380D01*
X81471904Y-30827619D02*
X81424285Y-30780000D01*
X81329047Y-30732380D01*
X81090952Y-30732380D01*
X80995714Y-30780000D01*
X80948095Y-30827619D01*
X80900476Y-30922857D01*
X80900476Y-31018095D01*
X80948095Y-31160952D01*
X81519523Y-31732380D01*
X80900476Y-31732380D01*
D15*
X26035761Y-53918523D02*
X26035761Y-52648523D01*
X24705285Y-53797571D02*
X24765761Y-53858047D01*
X24947190Y-53918523D01*
X25068142Y-53918523D01*
X25249571Y-53858047D01*
X25370523Y-53737095D01*
X25431000Y-53616142D01*
X25491476Y-53374238D01*
X25491476Y-53192809D01*
X25431000Y-52950904D01*
X25370523Y-52829952D01*
X25249571Y-52709000D01*
X25068142Y-52648523D01*
X24947190Y-52648523D01*
X24765761Y-52709000D01*
X24705285Y-52769476D01*
X23616714Y-53071857D02*
X23616714Y-53918523D01*
X23919095Y-52588047D02*
X24221476Y-53495190D01*
X23435285Y-53495190D01*
D14*
X15348857Y-67158380D02*
X15682190Y-66682190D01*
X15920285Y-67158380D02*
X15920285Y-66158380D01*
X15539333Y-66158380D01*
X15444095Y-66206000D01*
X15396476Y-66253619D01*
X15348857Y-66348857D01*
X15348857Y-66491714D01*
X15396476Y-66586952D01*
X15444095Y-66634571D01*
X15539333Y-66682190D01*
X15920285Y-66682190D01*
X14967904Y-66253619D02*
X14920285Y-66206000D01*
X14825047Y-66158380D01*
X14586952Y-66158380D01*
X14491714Y-66206000D01*
X14444095Y-66253619D01*
X14396476Y-66348857D01*
X14396476Y-66444095D01*
X14444095Y-66586952D01*
X15015523Y-67158380D01*
X14396476Y-67158380D01*
X13491714Y-66158380D02*
X13967904Y-66158380D01*
X14015523Y-66634571D01*
X13967904Y-66586952D01*
X13872666Y-66539333D01*
X13634571Y-66539333D01*
X13539333Y-66586952D01*
X13491714Y-66634571D01*
X13444095Y-66729809D01*
X13444095Y-66967904D01*
X13491714Y-67063142D01*
X13539333Y-67110761D01*
X13634571Y-67158380D01*
X13872666Y-67158380D01*
X13967904Y-67110761D01*
X14015523Y-67063142D01*
D15*
X71469761Y-12244523D02*
X71469761Y-10974523D01*
X70139285Y-12123571D02*
X70199761Y-12184047D01*
X70381190Y-12244523D01*
X70502142Y-12244523D01*
X70683571Y-12184047D01*
X70804523Y-12063095D01*
X70865000Y-11942142D01*
X70925476Y-11700238D01*
X70925476Y-11518809D01*
X70865000Y-11276904D01*
X70804523Y-11155952D01*
X70683571Y-11035000D01*
X70502142Y-10974523D01*
X70381190Y-10974523D01*
X70199761Y-11035000D01*
X70139285Y-11095476D01*
X69655476Y-11095476D02*
X69595000Y-11035000D01*
X69474047Y-10974523D01*
X69171666Y-10974523D01*
X69050714Y-11035000D01*
X68990238Y-11095476D01*
X68929761Y-11216428D01*
X68929761Y-11337380D01*
X68990238Y-11518809D01*
X69715952Y-12244523D01*
X68929761Y-12244523D01*
D14*
X15518857Y-63253380D02*
X15852190Y-62777190D01*
X16090285Y-63253380D02*
X16090285Y-62253380D01*
X15709333Y-62253380D01*
X15614095Y-62301000D01*
X15566476Y-62348619D01*
X15518857Y-62443857D01*
X15518857Y-62586714D01*
X15566476Y-62681952D01*
X15614095Y-62729571D01*
X15709333Y-62777190D01*
X16090285Y-62777190D01*
X15137904Y-62348619D02*
X15090285Y-62301000D01*
X14995047Y-62253380D01*
X14756952Y-62253380D01*
X14661714Y-62301000D01*
X14614095Y-62348619D01*
X14566476Y-62443857D01*
X14566476Y-62539095D01*
X14614095Y-62681952D01*
X15185523Y-63253380D01*
X14566476Y-63253380D01*
X14233142Y-62253380D02*
X13614095Y-62253380D01*
X13947428Y-62634333D01*
X13804571Y-62634333D01*
X13709333Y-62681952D01*
X13661714Y-62729571D01*
X13614095Y-62824809D01*
X13614095Y-63062904D01*
X13661714Y-63158142D01*
X13709333Y-63205761D01*
X13804571Y-63253380D01*
X14090285Y-63253380D01*
X14185523Y-63205761D01*
X14233142Y-63158142D01*
X83002857Y-68392380D02*
X83336190Y-67916190D01*
X83574285Y-68392380D02*
X83574285Y-67392380D01*
X83193333Y-67392380D01*
X83098095Y-67440000D01*
X83050476Y-67487619D01*
X83002857Y-67582857D01*
X83002857Y-67725714D01*
X83050476Y-67820952D01*
X83098095Y-67868571D01*
X83193333Y-67916190D01*
X83574285Y-67916190D01*
X82621904Y-67487619D02*
X82574285Y-67440000D01*
X82479047Y-67392380D01*
X82240952Y-67392380D01*
X82145714Y-67440000D01*
X82098095Y-67487619D01*
X82050476Y-67582857D01*
X82050476Y-67678095D01*
X82098095Y-67820952D01*
X82669523Y-68392380D01*
X82050476Y-68392380D01*
X81431428Y-67392380D02*
X81336190Y-67392380D01*
X81240952Y-67440000D01*
X81193333Y-67487619D01*
X81145714Y-67582857D01*
X81098095Y-67773333D01*
X81098095Y-68011428D01*
X81145714Y-68201904D01*
X81193333Y-68297142D01*
X81240952Y-68344761D01*
X81336190Y-68392380D01*
X81431428Y-68392380D01*
X81526666Y-68344761D01*
X81574285Y-68297142D01*
X81621904Y-68201904D01*
X81669523Y-68011428D01*
X81669523Y-67773333D01*
X81621904Y-67582857D01*
X81574285Y-67487619D01*
X81526666Y-67440000D01*
X81431428Y-67392380D01*
X82762857Y-64432380D02*
X83096190Y-63956190D01*
X83334285Y-64432380D02*
X83334285Y-63432380D01*
X82953333Y-63432380D01*
X82858095Y-63480000D01*
X82810476Y-63527619D01*
X82762857Y-63622857D01*
X82762857Y-63765714D01*
X82810476Y-63860952D01*
X82858095Y-63908571D01*
X82953333Y-63956190D01*
X83334285Y-63956190D01*
X81810476Y-64432380D02*
X82381904Y-64432380D01*
X82096190Y-64432380D02*
X82096190Y-63432380D01*
X82191428Y-63575238D01*
X82286666Y-63670476D01*
X82381904Y-63718095D01*
X81239047Y-63860952D02*
X81334285Y-63813333D01*
X81381904Y-63765714D01*
X81429523Y-63670476D01*
X81429523Y-63622857D01*
X81381904Y-63527619D01*
X81334285Y-63480000D01*
X81239047Y-63432380D01*
X81048571Y-63432380D01*
X80953333Y-63480000D01*
X80905714Y-63527619D01*
X80858095Y-63622857D01*
X80858095Y-63670476D01*
X80905714Y-63765714D01*
X80953333Y-63813333D01*
X81048571Y-63860952D01*
X81239047Y-63860952D01*
X81334285Y-63908571D01*
X81381904Y-63956190D01*
X81429523Y-64051428D01*
X81429523Y-64241904D01*
X81381904Y-64337142D01*
X81334285Y-64384761D01*
X81239047Y-64432380D01*
X81048571Y-64432380D01*
X80953333Y-64384761D01*
X80905714Y-64337142D01*
X80858095Y-64241904D01*
X80858095Y-64051428D01*
X80905714Y-63956190D01*
X80953333Y-63908571D01*
X81048571Y-63860952D01*
X84972857Y-26592380D02*
X85306190Y-26116190D01*
X85544285Y-26592380D02*
X85544285Y-25592380D01*
X85163333Y-25592380D01*
X85068095Y-25640000D01*
X85020476Y-25687619D01*
X84972857Y-25782857D01*
X84972857Y-25925714D01*
X85020476Y-26020952D01*
X85068095Y-26068571D01*
X85163333Y-26116190D01*
X85544285Y-26116190D01*
X84020476Y-26592380D02*
X84591904Y-26592380D01*
X84306190Y-26592380D02*
X84306190Y-25592380D01*
X84401428Y-25735238D01*
X84496666Y-25830476D01*
X84591904Y-25878095D01*
X83639523Y-25687619D02*
X83591904Y-25640000D01*
X83496666Y-25592380D01*
X83258571Y-25592380D01*
X83163333Y-25640000D01*
X83115714Y-25687619D01*
X83068095Y-25782857D01*
X83068095Y-25878095D01*
X83115714Y-26020952D01*
X83687142Y-26592380D01*
X83068095Y-26592380D01*
X84932857Y-22812380D02*
X85266190Y-22336190D01*
X85504285Y-22812380D02*
X85504285Y-21812380D01*
X85123333Y-21812380D01*
X85028095Y-21860000D01*
X84980476Y-21907619D01*
X84932857Y-22002857D01*
X84932857Y-22145714D01*
X84980476Y-22240952D01*
X85028095Y-22288571D01*
X85123333Y-22336190D01*
X85504285Y-22336190D01*
X83980476Y-22812380D02*
X84551904Y-22812380D01*
X84266190Y-22812380D02*
X84266190Y-21812380D01*
X84361428Y-21955238D01*
X84456666Y-22050476D01*
X84551904Y-22098095D01*
X83361428Y-21812380D02*
X83266190Y-21812380D01*
X83170952Y-21860000D01*
X83123333Y-21907619D01*
X83075714Y-22002857D01*
X83028095Y-22193333D01*
X83028095Y-22431428D01*
X83075714Y-22621904D01*
X83123333Y-22717142D01*
X83170952Y-22764761D01*
X83266190Y-22812380D01*
X83361428Y-22812380D01*
X83456666Y-22764761D01*
X83504285Y-22717142D01*
X83551904Y-22621904D01*
X83599523Y-22431428D01*
X83599523Y-22193333D01*
X83551904Y-22002857D01*
X83504285Y-21907619D01*
X83456666Y-21860000D01*
X83361428Y-21812380D01*
X12326666Y-26592380D02*
X12660000Y-26116190D01*
X12898095Y-26592380D02*
X12898095Y-25592380D01*
X12517142Y-25592380D01*
X12421904Y-25640000D01*
X12374285Y-25687619D01*
X12326666Y-25782857D01*
X12326666Y-25925714D01*
X12374285Y-26020952D01*
X12421904Y-26068571D01*
X12517142Y-26116190D01*
X12898095Y-26116190D01*
X11421904Y-25592380D02*
X11898095Y-25592380D01*
X11945714Y-26068571D01*
X11898095Y-26020952D01*
X11802857Y-25973333D01*
X11564761Y-25973333D01*
X11469523Y-26020952D01*
X11421904Y-26068571D01*
X11374285Y-26163809D01*
X11374285Y-26401904D01*
X11421904Y-26497142D01*
X11469523Y-26544761D01*
X11564761Y-26592380D01*
X11802857Y-26592380D01*
X11898095Y-26544761D01*
X11945714Y-26497142D01*
X12256666Y-22642380D02*
X12590000Y-22166190D01*
X12828095Y-22642380D02*
X12828095Y-21642380D01*
X12447142Y-21642380D01*
X12351904Y-21690000D01*
X12304285Y-21737619D01*
X12256666Y-21832857D01*
X12256666Y-21975714D01*
X12304285Y-22070952D01*
X12351904Y-22118571D01*
X12447142Y-22166190D01*
X12828095Y-22166190D01*
X11923333Y-21642380D02*
X11304285Y-21642380D01*
X11637619Y-22023333D01*
X11494761Y-22023333D01*
X11399523Y-22070952D01*
X11351904Y-22118571D01*
X11304285Y-22213809D01*
X11304285Y-22451904D01*
X11351904Y-22547142D01*
X11399523Y-22594761D01*
X11494761Y-22642380D01*
X11780476Y-22642380D01*
X11875714Y-22594761D01*
X11923333Y-22547142D01*
X12265238Y-74547619D02*
X12360476Y-74500000D01*
X12455714Y-74404761D01*
X12598571Y-74261904D01*
X12693809Y-74214285D01*
X12789047Y-74214285D01*
X12741428Y-74452380D02*
X12836666Y-74404761D01*
X12931904Y-74309523D01*
X12979523Y-74119047D01*
X12979523Y-73785714D01*
X12931904Y-73595238D01*
X12836666Y-73500000D01*
X12741428Y-73452380D01*
X12550952Y-73452380D01*
X12455714Y-73500000D01*
X12360476Y-73595238D01*
X12312857Y-73785714D01*
X12312857Y-74119047D01*
X12360476Y-74309523D01*
X12455714Y-74404761D01*
X12550952Y-74452380D01*
X12741428Y-74452380D01*
X11455714Y-73785714D02*
X11455714Y-74452380D01*
X11693809Y-73404761D02*
X11931904Y-74119047D01*
X11312857Y-74119047D01*
X13815238Y-31067619D02*
X13910476Y-31020000D01*
X14005714Y-30924761D01*
X14148571Y-30781904D01*
X14243809Y-30734285D01*
X14339047Y-30734285D01*
X14291428Y-30972380D02*
X14386666Y-30924761D01*
X14481904Y-30829523D01*
X14529523Y-30639047D01*
X14529523Y-30305714D01*
X14481904Y-30115238D01*
X14386666Y-30020000D01*
X14291428Y-29972380D01*
X14100952Y-29972380D01*
X14005714Y-30020000D01*
X13910476Y-30115238D01*
X13862857Y-30305714D01*
X13862857Y-30639047D01*
X13910476Y-30829523D01*
X14005714Y-30924761D01*
X14100952Y-30972380D01*
X14291428Y-30972380D01*
X12910476Y-30972380D02*
X13481904Y-30972380D01*
X13196190Y-30972380D02*
X13196190Y-29972380D01*
X13291428Y-30115238D01*
X13386666Y-30210476D01*
X13481904Y-30258095D01*
D15*
X26338761Y-11746525D02*
X26338761Y-10476525D01*
X25008285Y-11625573D02*
X25068761Y-11686049D01*
X25250190Y-11746525D01*
X25371142Y-11746525D01*
X25552571Y-11686049D01*
X25673523Y-11565097D01*
X25734000Y-11444144D01*
X25794476Y-11202240D01*
X25794476Y-11020811D01*
X25734000Y-10778906D01*
X25673523Y-10657954D01*
X25552571Y-10537002D01*
X25371142Y-10476525D01*
X25250190Y-10476525D01*
X25068761Y-10537002D01*
X25008285Y-10597478D01*
X23798761Y-11746525D02*
X24524476Y-11746525D01*
X24161619Y-11746525D02*
X24161619Y-10476525D01*
X24282571Y-10657954D01*
X24403523Y-10778906D01*
X24524476Y-10839382D01*
D14*
X74048285Y-45712380D02*
X74048285Y-44712380D01*
X73810190Y-44712380D01*
X73667333Y-44760000D01*
X73572095Y-44855238D01*
X73524476Y-44950476D01*
X73476857Y-45140952D01*
X73476857Y-45283809D01*
X73524476Y-45474285D01*
X73572095Y-45569523D01*
X73667333Y-45664761D01*
X73810190Y-45712380D01*
X74048285Y-45712380D01*
X73095904Y-44807619D02*
X73048285Y-44760000D01*
X72953047Y-44712380D01*
X72714952Y-44712380D01*
X72619714Y-44760000D01*
X72572095Y-44807619D01*
X72524476Y-44902857D01*
X72524476Y-44998095D01*
X72572095Y-45140952D01*
X73143523Y-45712380D01*
X72524476Y-45712380D01*
X71572095Y-45712380D02*
X72143523Y-45712380D01*
X71857809Y-45712380D02*
X71857809Y-44712380D01*
X71953047Y-44855238D01*
X72048285Y-44950476D01*
X72143523Y-44998095D01*
X60994285Y-45872380D02*
X60994285Y-44872380D01*
X60756190Y-44872380D01*
X60613333Y-44920000D01*
X60518095Y-45015238D01*
X60470476Y-45110476D01*
X60422857Y-45300952D01*
X60422857Y-45443809D01*
X60470476Y-45634285D01*
X60518095Y-45729523D01*
X60613333Y-45824761D01*
X60756190Y-45872380D01*
X60994285Y-45872380D01*
X60041904Y-44967619D02*
X59994285Y-44920000D01*
X59899047Y-44872380D01*
X59660952Y-44872380D01*
X59565714Y-44920000D01*
X59518095Y-44967619D01*
X59470476Y-45062857D01*
X59470476Y-45158095D01*
X59518095Y-45300952D01*
X60089523Y-45872380D01*
X59470476Y-45872380D01*
X58851428Y-44872380D02*
X58756190Y-44872380D01*
X58660952Y-44920000D01*
X58613333Y-44967619D01*
X58565714Y-45062857D01*
X58518095Y-45253333D01*
X58518095Y-45491428D01*
X58565714Y-45681904D01*
X58613333Y-45777142D01*
X58660952Y-45824761D01*
X58756190Y-45872380D01*
X58851428Y-45872380D01*
X58946666Y-45824761D01*
X58994285Y-45777142D01*
X59041904Y-45681904D01*
X59089523Y-45491428D01*
X59089523Y-45253333D01*
X59041904Y-45062857D01*
X58994285Y-44967619D01*
X58946666Y-44920000D01*
X58851428Y-44872380D01*
X51956380Y-19237714D02*
X50956380Y-19237714D01*
X50956380Y-19475809D01*
X51004000Y-19618666D01*
X51099238Y-19713904D01*
X51194476Y-19761523D01*
X51384952Y-19809142D01*
X51527809Y-19809142D01*
X51718285Y-19761523D01*
X51813523Y-19713904D01*
X51908761Y-19618666D01*
X51956380Y-19475809D01*
X51956380Y-19237714D01*
X51956380Y-20761523D02*
X51956380Y-20190095D01*
X51956380Y-20475809D02*
X50956380Y-20475809D01*
X51099238Y-20380571D01*
X51194476Y-20285333D01*
X51242095Y-20190095D01*
X50956380Y-21094857D02*
X50956380Y-21761523D01*
X51956380Y-21332952D01*
X52194380Y-29131714D02*
X51194380Y-29131714D01*
X51194380Y-29369809D01*
X51242000Y-29512666D01*
X51337238Y-29607904D01*
X51432476Y-29655523D01*
X51622952Y-29703142D01*
X51765809Y-29703142D01*
X51956285Y-29655523D01*
X52051523Y-29607904D01*
X52146761Y-29512666D01*
X52194380Y-29369809D01*
X52194380Y-29131714D01*
X52194380Y-30655523D02*
X52194380Y-30084095D01*
X52194380Y-30369809D02*
X51194380Y-30369809D01*
X51337238Y-30274571D01*
X51432476Y-30179333D01*
X51480095Y-30084095D01*
X51194380Y-31512666D02*
X51194380Y-31322190D01*
X51242000Y-31226952D01*
X51289619Y-31179333D01*
X51432476Y-31084095D01*
X51622952Y-31036476D01*
X52003904Y-31036476D01*
X52099142Y-31084095D01*
X52146761Y-31131714D01*
X52194380Y-31226952D01*
X52194380Y-31417428D01*
X52146761Y-31512666D01*
X52099142Y-31560285D01*
X52003904Y-31607904D01*
X51765809Y-31607904D01*
X51670571Y-31560285D01*
X51622952Y-31512666D01*
X51575333Y-31417428D01*
X51575333Y-31226952D01*
X51622952Y-31131714D01*
X51670571Y-31084095D01*
X51765809Y-31036476D01*
X22808095Y-45442380D02*
X22808095Y-44442380D01*
X22570000Y-44442380D01*
X22427142Y-44490000D01*
X22331904Y-44585238D01*
X22284285Y-44680476D01*
X22236666Y-44870952D01*
X22236666Y-45013809D01*
X22284285Y-45204285D01*
X22331904Y-45299523D01*
X22427142Y-45394761D01*
X22570000Y-45442380D01*
X22808095Y-45442380D01*
X21760476Y-45442380D02*
X21570000Y-45442380D01*
X21474761Y-45394761D01*
X21427142Y-45347142D01*
X21331904Y-45204285D01*
X21284285Y-45013809D01*
X21284285Y-44632857D01*
X21331904Y-44537619D01*
X21379523Y-44490000D01*
X21474761Y-44442380D01*
X21665238Y-44442380D01*
X21760476Y-44490000D01*
X21808095Y-44537619D01*
X21855714Y-44632857D01*
X21855714Y-44870952D01*
X21808095Y-44966190D01*
X21760476Y-45013809D01*
X21665238Y-45061428D01*
X21474761Y-45061428D01*
X21379523Y-45013809D01*
X21331904Y-44966190D01*
X21284285Y-44870952D01*
X33808095Y-45772380D02*
X33808095Y-44772380D01*
X33570000Y-44772380D01*
X33427142Y-44820000D01*
X33331904Y-44915238D01*
X33284285Y-45010476D01*
X33236666Y-45200952D01*
X33236666Y-45343809D01*
X33284285Y-45534285D01*
X33331904Y-45629523D01*
X33427142Y-45724761D01*
X33570000Y-45772380D01*
X33808095Y-45772380D01*
X32665238Y-45200952D02*
X32760476Y-45153333D01*
X32808095Y-45105714D01*
X32855714Y-45010476D01*
X32855714Y-44962857D01*
X32808095Y-44867619D01*
X32760476Y-44820000D01*
X32665238Y-44772380D01*
X32474761Y-44772380D01*
X32379523Y-44820000D01*
X32331904Y-44867619D01*
X32284285Y-44962857D01*
X32284285Y-45010476D01*
X32331904Y-45105714D01*
X32379523Y-45153333D01*
X32474761Y-45200952D01*
X32665238Y-45200952D01*
X32760476Y-45248571D01*
X32808095Y-45296190D01*
X32855714Y-45391428D01*
X32855714Y-45581904D01*
X32808095Y-45677142D01*
X32760476Y-45724761D01*
X32665238Y-45772380D01*
X32474761Y-45772380D01*
X32379523Y-45724761D01*
X32331904Y-45677142D01*
X32284285Y-45581904D01*
X32284285Y-45391428D01*
X32331904Y-45296190D01*
X32379523Y-45248571D01*
X32474761Y-45200952D01*
X43942380Y-19511904D02*
X42942380Y-19511904D01*
X42942380Y-19750000D01*
X42990000Y-19892857D01*
X43085238Y-19988095D01*
X43180476Y-20035714D01*
X43370952Y-20083333D01*
X43513809Y-20083333D01*
X43704285Y-20035714D01*
X43799523Y-19988095D01*
X43894761Y-19892857D01*
X43942380Y-19750000D01*
X43942380Y-19511904D01*
X42942380Y-20988095D02*
X42942380Y-20511904D01*
X43418571Y-20464285D01*
X43370952Y-20511904D01*
X43323333Y-20607142D01*
X43323333Y-20845238D01*
X43370952Y-20940476D01*
X43418571Y-20988095D01*
X43513809Y-21035714D01*
X43751904Y-21035714D01*
X43847142Y-20988095D01*
X43894761Y-20940476D01*
X43942380Y-20845238D01*
X43942380Y-20607142D01*
X43894761Y-20511904D01*
X43847142Y-20464285D01*
X43872380Y-29421904D02*
X42872380Y-29421904D01*
X42872380Y-29660000D01*
X42920000Y-29802857D01*
X43015238Y-29898095D01*
X43110476Y-29945714D01*
X43300952Y-29993333D01*
X43443809Y-29993333D01*
X43634285Y-29945714D01*
X43729523Y-29898095D01*
X43824761Y-29802857D01*
X43872380Y-29660000D01*
X43872380Y-29421904D01*
X43205714Y-30850476D02*
X43872380Y-30850476D01*
X42824761Y-30612380D02*
X43539047Y-30374285D01*
X43539047Y-30993333D01*
%LPC*%
D16*
X81850000Y-58150000D03*
X80550000Y-58150000D03*
X81200000Y-56250000D03*
X81200000Y-58150000D03*
X80550000Y-56250000D03*
X81850000Y-56250000D03*
D17*
X11970000Y-54400000D03*
X13970000Y-54400000D03*
D18*
X15970000Y-54400000D03*
D17*
X51480000Y-54570000D03*
X53480000Y-54570000D03*
D18*
X55480000Y-54570000D03*
D17*
X51820000Y-8400000D03*
X53820000Y-8400000D03*
D18*
X55820000Y-8400000D03*
D17*
X11970000Y-8400000D03*
X13970000Y-8400000D03*
D18*
X15970000Y-8400000D03*
D19*
X69850000Y-56070000D03*
D20*
X69200000Y-57120000D03*
X69850000Y-57120000D03*
X70500000Y-57120000D03*
X70500000Y-55020000D03*
X69850000Y-55020000D03*
X69200000Y-55020000D03*
D21*
X79920000Y-30030000D03*
X79920000Y-31330000D03*
X78020000Y-30680000D03*
X79920000Y-30680000D03*
X78020000Y-31330000D03*
X78020000Y-30030000D03*
D19*
X24910000Y-56070000D03*
D20*
X24260000Y-57120000D03*
X24910000Y-57120000D03*
X25560000Y-57120000D03*
X25560000Y-55020000D03*
X24910000Y-55020000D03*
X24260000Y-55020000D03*
G36*
G01*
X15085000Y-68405000D02*
X15085000Y-67855000D01*
G75*
G02*
X15285000Y-67655000I200000J0D01*
G01*
X15685000Y-67655000D01*
G75*
G02*
X15885000Y-67855000I0J-200000D01*
G01*
X15885000Y-68405000D01*
G75*
G02*
X15685000Y-68605000I-200000J0D01*
G01*
X15285000Y-68605000D01*
G75*
G02*
X15085000Y-68405000I0J200000D01*
G01*
G37*
G36*
G01*
X13435000Y-68405000D02*
X13435000Y-67855000D01*
G75*
G02*
X13635000Y-67655000I200000J0D01*
G01*
X14035000Y-67655000D01*
G75*
G02*
X14235000Y-67855000I0J-200000D01*
G01*
X14235000Y-68405000D01*
G75*
G02*
X14035000Y-68605000I-200000J0D01*
G01*
X13635000Y-68605000D01*
G75*
G02*
X13435000Y-68405000I0J200000D01*
G01*
G37*
X69490000Y-13180000D03*
X70140000Y-13180000D03*
X70790000Y-13180000D03*
X70790000Y-15280000D03*
X70140000Y-15280000D03*
X69490000Y-15280000D03*
D19*
X70140000Y-14230000D03*
G36*
G01*
X15305000Y-64655000D02*
X15305000Y-64105000D01*
G75*
G02*
X15505000Y-63905000I200000J0D01*
G01*
X15905000Y-63905000D01*
G75*
G02*
X16105000Y-64105000I0J-200000D01*
G01*
X16105000Y-64655000D01*
G75*
G02*
X15905000Y-64855000I-200000J0D01*
G01*
X15505000Y-64855000D01*
G75*
G02*
X15305000Y-64655000I0J200000D01*
G01*
G37*
G36*
G01*
X13655000Y-64655000D02*
X13655000Y-64105000D01*
G75*
G02*
X13855000Y-63905000I200000J0D01*
G01*
X14255000Y-63905000D01*
G75*
G02*
X14455000Y-64105000I0J-200000D01*
G01*
X14455000Y-64655000D01*
G75*
G02*
X14255000Y-64855000I-200000J0D01*
G01*
X13855000Y-64855000D01*
G75*
G02*
X13655000Y-64655000I0J200000D01*
G01*
G37*
G36*
G01*
X80455000Y-67665000D02*
X80455000Y-68215000D01*
G75*
G02*
X80255000Y-68415000I-200000J0D01*
G01*
X79855000Y-68415000D01*
G75*
G02*
X79655000Y-68215000I0J200000D01*
G01*
X79655000Y-67665000D01*
G75*
G02*
X79855000Y-67465000I200000J0D01*
G01*
X80255000Y-67465000D01*
G75*
G02*
X80455000Y-67665000I0J-200000D01*
G01*
G37*
G36*
G01*
X78805000Y-67665000D02*
X78805000Y-68215000D01*
G75*
G02*
X78605000Y-68415000I-200000J0D01*
G01*
X78205000Y-68415000D01*
G75*
G02*
X78005000Y-68215000I0J200000D01*
G01*
X78005000Y-67665000D01*
G75*
G02*
X78205000Y-67465000I200000J0D01*
G01*
X78605000Y-67465000D01*
G75*
G02*
X78805000Y-67665000I0J-200000D01*
G01*
G37*
G36*
G01*
X80335000Y-63635000D02*
X80335000Y-64185000D01*
G75*
G02*
X80135000Y-64385000I-200000J0D01*
G01*
X79735000Y-64385000D01*
G75*
G02*
X79535000Y-64185000I0J200000D01*
G01*
X79535000Y-63635000D01*
G75*
G02*
X79735000Y-63435000I200000J0D01*
G01*
X80135000Y-63435000D01*
G75*
G02*
X80335000Y-63635000I0J-200000D01*
G01*
G37*
G36*
G01*
X78685000Y-63635000D02*
X78685000Y-64185000D01*
G75*
G02*
X78485000Y-64385000I-200000J0D01*
G01*
X78085000Y-64385000D01*
G75*
G02*
X77885000Y-64185000I0J200000D01*
G01*
X77885000Y-63635000D01*
G75*
G02*
X78085000Y-63435000I200000J0D01*
G01*
X78485000Y-63435000D01*
G75*
G02*
X78685000Y-63635000I0J-200000D01*
G01*
G37*
G36*
G01*
X82590000Y-25881000D02*
X82590000Y-26431000D01*
G75*
G02*
X82390000Y-26631000I-200000J0D01*
G01*
X81990000Y-26631000D01*
G75*
G02*
X81790000Y-26431000I0J200000D01*
G01*
X81790000Y-25881000D01*
G75*
G02*
X81990000Y-25681000I200000J0D01*
G01*
X82390000Y-25681000D01*
G75*
G02*
X82590000Y-25881000I0J-200000D01*
G01*
G37*
G36*
G01*
X80940000Y-25881000D02*
X80940000Y-26431000D01*
G75*
G02*
X80740000Y-26631000I-200000J0D01*
G01*
X80340000Y-26631000D01*
G75*
G02*
X80140000Y-26431000I0J200000D01*
G01*
X80140000Y-25881000D01*
G75*
G02*
X80340000Y-25681000I200000J0D01*
G01*
X80740000Y-25681000D01*
G75*
G02*
X80940000Y-25881000I0J-200000D01*
G01*
G37*
G36*
G01*
X82590000Y-22038500D02*
X82590000Y-22588500D01*
G75*
G02*
X82390000Y-22788500I-200000J0D01*
G01*
X81990000Y-22788500D01*
G75*
G02*
X81790000Y-22588500I0J200000D01*
G01*
X81790000Y-22038500D01*
G75*
G02*
X81990000Y-21838500I200000J0D01*
G01*
X82390000Y-21838500D01*
G75*
G02*
X82590000Y-22038500I0J-200000D01*
G01*
G37*
G36*
G01*
X80940000Y-22038500D02*
X80940000Y-22588500D01*
G75*
G02*
X80740000Y-22788500I-200000J0D01*
G01*
X80340000Y-22788500D01*
G75*
G02*
X80140000Y-22588500I0J200000D01*
G01*
X80140000Y-22038500D01*
G75*
G02*
X80340000Y-21838500I200000J0D01*
G01*
X80740000Y-21838500D01*
G75*
G02*
X80940000Y-22038500I0J-200000D01*
G01*
G37*
G36*
G01*
X13445000Y-26455000D02*
X13445000Y-25905000D01*
G75*
G02*
X13645000Y-25705000I200000J0D01*
G01*
X14045000Y-25705000D01*
G75*
G02*
X14245000Y-25905000I0J-200000D01*
G01*
X14245000Y-26455000D01*
G75*
G02*
X14045000Y-26655000I-200000J0D01*
G01*
X13645000Y-26655000D01*
G75*
G02*
X13445000Y-26455000I0J200000D01*
G01*
G37*
G36*
G01*
X15095000Y-26455000D02*
X15095000Y-25905000D01*
G75*
G02*
X15295000Y-25705000I200000J0D01*
G01*
X15695000Y-25705000D01*
G75*
G02*
X15895000Y-25905000I0J-200000D01*
G01*
X15895000Y-26455000D01*
G75*
G02*
X15695000Y-26655000I-200000J0D01*
G01*
X15295000Y-26655000D01*
G75*
G02*
X15095000Y-26455000I0J200000D01*
G01*
G37*
G36*
G01*
X13455000Y-22475000D02*
X13455000Y-21925000D01*
G75*
G02*
X13655000Y-21725000I200000J0D01*
G01*
X14055000Y-21725000D01*
G75*
G02*
X14255000Y-21925000I0J-200000D01*
G01*
X14255000Y-22475000D01*
G75*
G02*
X14055000Y-22675000I-200000J0D01*
G01*
X13655000Y-22675000D01*
G75*
G02*
X13455000Y-22475000I0J200000D01*
G01*
G37*
G36*
G01*
X15105000Y-22475000D02*
X15105000Y-21925000D01*
G75*
G02*
X15305000Y-21725000I200000J0D01*
G01*
X15705000Y-21725000D01*
G75*
G02*
X15905000Y-21925000I0J-200000D01*
G01*
X15905000Y-22475000D01*
G75*
G02*
X15705000Y-22675000I-200000J0D01*
G01*
X15305000Y-22675000D01*
G75*
G02*
X15105000Y-22475000I0J200000D01*
G01*
G37*
D16*
X13960000Y-75050000D03*
X15260000Y-75050000D03*
X14610000Y-73150000D03*
X14610000Y-75050000D03*
X15260000Y-73150000D03*
X13960000Y-73150000D03*
D21*
X15420000Y-29960000D03*
X15420000Y-31260000D03*
X17320000Y-30610000D03*
X15420000Y-30610000D03*
X17320000Y-31260000D03*
X17320000Y-29960000D03*
D22*
X95220000Y-31410000D03*
X95220000Y-32660000D03*
X95220000Y-33910000D03*
X95220000Y-35160000D03*
X95220000Y-41769997D03*
X95220000Y-43019997D03*
X95220000Y-44269997D03*
X95220000Y-45519997D03*
D23*
X90120000Y-66333000D03*
D24*
X93270000Y-67400000D03*
X93270000Y-69940000D03*
X93270000Y-72480000D03*
X93270000Y-75020000D03*
D25*
X83680000Y-92470000D03*
D24*
X86220000Y-92470000D03*
X88760000Y-92470000D03*
X91300000Y-92470000D03*
X93840000Y-92470000D03*
D26*
X94910000Y-89320000D03*
D22*
X95220000Y-14266500D03*
X95220000Y-15516500D03*
X95220000Y-16766500D03*
X95220000Y-18016500D03*
D23*
X90120000Y-51154662D03*
D24*
X93270000Y-52221662D03*
X93270000Y-54761662D03*
X93270000Y-57301662D03*
X93270000Y-59841662D03*
D22*
X95220000Y-3840000D03*
X95220000Y-5090000D03*
X95220000Y-6340000D03*
X95220000Y-7590000D03*
D20*
X24580000Y-12790000D03*
X25230000Y-12790000D03*
X25880000Y-12790000D03*
X25880000Y-14890000D03*
X25230000Y-14890000D03*
X24580000Y-14890000D03*
D19*
X25230000Y-13840000D03*
D27*
X70660000Y-41620000D03*
X75360000Y-41620000D03*
X62000000Y-41620000D03*
X57300000Y-41620000D03*
D28*
X55382000Y-22640000D03*
X55382000Y-17940000D03*
X55432000Y-32590000D03*
X55432000Y-27890000D03*
D27*
X19550000Y-41690000D03*
X24250000Y-41690000D03*
X30700000Y-41550000D03*
X35400000Y-41550000D03*
D28*
X39730000Y-17870000D03*
X39730000Y-22570000D03*
X39710000Y-27820000D03*
X39710000Y-32520000D03*
M02*
